G75*
%MOIN*%
%OFA0B0*%
%FSLAX25Y25*%
%IPPOS*%
%LPD*%
%AMOC8*
5,1,8,0,0,1.08239X$1,22.5*
%
%ADD10C,0.13000*%
%ADD11R,0.09949X0.09949*%
%ADD12OC8,0.06500*%
%ADD13R,0.05520X0.05520*%
%ADD14OC8,0.09000*%
%ADD15C,0.02469*%
%ADD16C,0.13098*%
%ADD17R,0.06406X0.06406*%
%ADD18C,0.07900*%
%ADD19C,0.02878*%
%ADD20C,0.03075*%
D10*
X0022000Y0017000D03*
X0332000Y0017000D03*
X0332000Y0287000D03*
X0022000Y0287000D03*
D11*
X0057138Y0042787D03*
X0082138Y0042787D03*
D12*
X0027000Y0056000D03*
X0027000Y0066000D03*
X0017000Y0066000D03*
X0017000Y0056000D03*
X0017000Y0076000D03*
X0017000Y0086000D03*
X0017000Y0096000D03*
X0017000Y0106000D03*
X0027000Y0106000D03*
X0027000Y0096000D03*
X0027000Y0086000D03*
X0027000Y0076000D03*
X0027000Y0116000D03*
X0027000Y0126000D03*
X0017000Y0126000D03*
X0017000Y0116000D03*
X0017000Y0178000D03*
X0017000Y0188000D03*
X0027000Y0188000D03*
X0027000Y0178000D03*
X0027000Y0198000D03*
X0027000Y0208000D03*
X0027000Y0218000D03*
X0017000Y0218000D03*
X0017000Y0208000D03*
X0017000Y0198000D03*
X0017000Y0228000D03*
X0017000Y0238000D03*
X0017000Y0248000D03*
X0027000Y0248000D03*
X0027000Y0238000D03*
X0027000Y0228000D03*
X0222661Y0231055D03*
X0222661Y0241055D03*
X0222661Y0251055D03*
X0232661Y0251055D03*
X0232661Y0241055D03*
X0232661Y0231055D03*
X0232661Y0221055D03*
X0222661Y0221055D03*
X0222661Y0211055D03*
X0232661Y0211055D03*
X0232661Y0195228D03*
X0222661Y0195228D03*
X0222661Y0185228D03*
X0222661Y0175228D03*
X0232661Y0175228D03*
X0232661Y0185228D03*
X0327315Y0188000D03*
X0337315Y0188000D03*
X0337315Y0178000D03*
X0327315Y0178000D03*
X0327315Y0198000D03*
X0337315Y0198000D03*
X0337315Y0208000D03*
X0337315Y0218000D03*
X0327315Y0218000D03*
X0327315Y0208000D03*
X0327315Y0228000D03*
X0337315Y0228000D03*
X0337315Y0238000D03*
X0337315Y0248000D03*
X0327315Y0248000D03*
X0327315Y0238000D03*
X0327000Y0126000D03*
X0327000Y0116000D03*
X0337000Y0116000D03*
X0337000Y0126000D03*
X0337000Y0106000D03*
X0337000Y0096000D03*
X0337000Y0086000D03*
X0337000Y0076000D03*
X0327000Y0076000D03*
X0327000Y0086000D03*
X0327000Y0096000D03*
X0327000Y0106000D03*
X0327000Y0066000D03*
X0327000Y0056000D03*
X0337000Y0056000D03*
X0337000Y0066000D03*
D13*
X0273811Y0199480D03*
X0273811Y0229402D03*
D14*
X0093331Y0139512D03*
D15*
X0220819Y0126843D03*
X0246803Y0126843D03*
D16*
X0273811Y0125937D03*
X0163811Y0055937D03*
D17*
X0073969Y0074992D03*
X0073969Y0084992D03*
X0073969Y0094992D03*
D18*
X0171000Y0182000D03*
X0181000Y0182000D03*
D19*
X0124143Y0252111D03*
X0109699Y0252111D03*
X0106721Y0252111D03*
D20*
X0201500Y0179000D03*
M02*
