M48
;GenerationSoftware,Autodesk,EAGLE,9.2.2*%
;CreationDate,2019-01-13T00:28:09Z*%
FMAT,2
ICI,OFF
METRIC,TZ,000.000
T2C0.350
T1C1.016
%
G90
M71
T1
X43180Y55880
X40640Y60960
X20320Y63500
X22860Y63500
X25400Y63500
X27940Y63500
X30480Y63500
X33020Y63500
X35560Y63500
X38100Y63500
X40640Y63500
X43180Y63500
X20320Y60960
X22860Y60960
X25400Y60960
X27940Y60960
X30480Y60960
X33020Y60960
X35560Y60960
X38100Y60960
X43180Y60960
X20320Y58420
X22860Y58420
X25400Y58420
X27940Y58420
X30480Y58420
X33020Y58420
X35560Y58420
X38100Y58420
X40640Y58420
X43180Y58420
X20320Y55880
X22860Y55880
X25400Y55880
X27940Y55880
X30480Y55880
X33020Y55880
X35560Y55880
X38100Y55880
X40640Y55880
T2
X39497Y762
X47244Y762
X54991Y762
X62738Y762
X762Y75438
X8509Y75438
X16256Y75438
X24003Y75438
X31750Y75438
X39497Y75438
X47244Y75438
X54991Y75438
X62738Y75438
X762Y4318
X762Y7874
X762Y11430
X762Y14986
X762Y18542
X762Y22098
X762Y25654
X762Y29210
X762Y32766
X762Y36322
X762Y39878
X762Y43434
X762Y46990
X762Y50546
X762Y54102
X762Y57658
X762Y61214
X762Y64770
X762Y68326
X762Y71882
X62738Y4318
X62738Y7874
X62738Y11430
X62738Y14986
X62738Y18542
X62738Y22098
X62738Y25654
X62738Y29210
X62738Y32766
X62738Y36322
X62738Y39878
X62738Y43434
X62738Y46990
X62738Y50546
X26670Y44958
X62738Y57658
X62738Y61214
X62738Y64770
X62738Y68326
X62738Y71882
X54864Y52324
X54864Y48006
X54864Y42164
X54864Y36068
X54864Y29972
X54864Y24130
X49784Y19558
X54864Y19558
X43688Y19558
X37846Y19558
X31750Y19558
X25654Y19558
X19558Y19558
X13716Y19558
X8382Y19558
X8382Y23876
X8382Y29972
X8382Y36068
X8382Y41910
X8382Y48006
X13716Y52324
X8382Y52324
X19304Y52324
X25146Y52324
X42926Y52324
X49530Y52324
X30988Y52324
X32512Y52324
X30226Y48260
X32512Y34290
X39370Y47752
X30988Y49022
X32512Y33274
X40132Y48514
X31750Y49784
X33528Y33274
X40894Y49276
X44450Y22352
X39116Y30988
X45974Y22352
X43434Y11176
X35560Y30988
X28194Y26416
X30861Y23749
X35560Y44450
X28194Y41148
X45466Y42164
X49276Y43434
X45212Y12954
X49276Y10401
X32766Y39116
X35560Y39370
X49022Y40640
X49022Y38100
X47498Y36576
X45466Y31496
X42926Y29718
X35560Y25400
X32766Y24892
X62738Y54102
X50800Y12954
X49022Y14732
X37338Y41148
X48260Y46482
X42926Y44958
X42926Y43688
X29464Y27940
X26924Y28956
X50978Y6985
X53594Y7010
X55118Y8534
X49530Y8509
X44196Y4064
X45720Y5588
X42672Y5588
X762Y762
X8509Y762
X16256Y762
X24003Y762
X31750Y762
X42672Y9652
M30