G75*
%MOIN*%
%OFA0B0*%
%FSLAX25Y25*%
%IPPOS*%
%LPD*%
%AMOC8*
5,1,8,0,0,1.08239X$1,22.5*
%
%ADD10C,0.05906*%
%ADD11C,0.09449*%
%ADD12C,0.06000*%
%ADD13C,0.04429*%
%ADD14C,0.04724*%
%ADD15C,0.05020*%
%ADD16C,0.02178*%
%ADD17C,0.02375*%
%ADD18C,0.02657*%
%ADD19C,0.00800*%
%ADD20C,0.01981*%
%ADD21C,0.00787*%
%ADD22C,0.01000*%
%ADD23C,0.03543*%
%ADD24C,0.01600*%
%ADD25C,0.00600*%
%ADD26C,0.01200*%
D10*
X0046654Y0103974D03*
X0036654Y0108482D03*
X0046654Y0112990D03*
X0046654Y0122005D03*
X0036654Y0117498D03*
X0036654Y0126513D03*
X0046654Y0131021D03*
X0036654Y0135529D03*
X0036654Y0144545D03*
X0046654Y0140037D03*
X0056654Y0144545D03*
X0056654Y0135529D03*
X0056654Y0126513D03*
X0056654Y0117498D03*
X0056654Y0108482D03*
X0046500Y0237648D03*
X0036500Y0242156D03*
X0046500Y0246663D03*
X0036500Y0251171D03*
X0036500Y0260187D03*
X0046500Y0255679D03*
X0046500Y0264695D03*
X0036500Y0269203D03*
X0046500Y0273711D03*
X0036500Y0278219D03*
X0056500Y0278219D03*
X0056500Y0269203D03*
X0056500Y0260187D03*
X0056500Y0251171D03*
X0056500Y0242156D03*
X0339834Y0142233D03*
X0339834Y0133217D03*
X0339834Y0124201D03*
X0339834Y0115185D03*
X0339834Y0106170D03*
X0349834Y0110677D03*
X0359834Y0106170D03*
X0359834Y0115185D03*
X0349834Y0119693D03*
X0359834Y0124201D03*
X0349834Y0128709D03*
X0349834Y0137725D03*
X0359834Y0142233D03*
X0349834Y0146740D03*
X0359834Y0133217D03*
X0352278Y0237436D03*
X0363459Y0242908D03*
X0363459Y0253814D03*
X0352278Y0259247D03*
X0352278Y0248341D03*
X0363459Y0264719D03*
X0363459Y0275625D03*
X0352278Y0281058D03*
X0352278Y0270153D03*
D11*
X0354368Y0045328D03*
X0354368Y0020328D03*
D12*
X0257406Y0016998D03*
X0139610Y0300974D03*
X0129610Y0300974D03*
X0119610Y0300974D03*
X0109610Y0300974D03*
X0099610Y0300974D03*
X0099610Y0310974D03*
X0109610Y0310974D03*
X0119610Y0310974D03*
X0129610Y0310974D03*
X0139610Y0310974D03*
D13*
X0265280Y0221722D03*
X0273154Y0221722D03*
X0273154Y0213848D03*
X0273154Y0205974D03*
X0265280Y0205974D03*
X0265280Y0213848D03*
D14*
X0255594Y0056368D03*
X0245594Y0056368D03*
X0235594Y0056368D03*
D15*
X0127327Y0118100D03*
X0097406Y0118100D03*
D16*
X0084177Y0119360D03*
X0079846Y0138258D03*
X0103862Y0170541D03*
X0120004Y0183533D03*
X0138902Y0203612D03*
X0143232Y0203612D03*
X0166461Y0201644D03*
X0166440Y0198810D03*
X0168035Y0204006D03*
X0171579Y0203612D03*
X0184177Y0197707D03*
X0186146Y0199696D03*
X0182996Y0194951D03*
X0164865Y0183140D03*
X0158980Y0182352D03*
X0136539Y0150069D03*
X0202287Y0147707D03*
X0202287Y0157549D03*
X0202287Y0166604D03*
X0202287Y0176447D03*
X0234177Y0198867D03*
X0236146Y0200856D03*
X0232996Y0203042D03*
X0227484Y0212683D03*
X0262917Y0233140D03*
X0245594Y0254793D03*
X0258193Y0267392D03*
X0226697Y0255954D03*
X0224376Y0252390D03*
X0218429Y0252023D03*
X0210161Y0245344D03*
X0202287Y0246919D03*
X0183783Y0248929D03*
X0180634Y0246940D03*
X0174335Y0266211D03*
X0173969Y0269332D03*
X0170791Y0268967D03*
X0179059Y0266998D03*
X0157012Y0280778D03*
X0143232Y0265030D03*
X0139295Y0265030D03*
X0252287Y0174478D03*
X0249531Y0172904D03*
X0255437Y0175659D03*
X0254650Y0178415D03*
X0260555Y0175648D03*
X0259394Y0173022D03*
X0315673Y0159911D03*
X0320398Y0131171D03*
X0292839Y0101644D03*
X0288902Y0095738D03*
X0273154Y0095738D03*
X0273154Y0101644D03*
X0257406Y0103612D03*
X0241657Y0095738D03*
X0233783Y0109124D03*
X0225909Y0095738D03*
X0209768Y0095738D03*
X0206224Y0107549D03*
X0207746Y0056959D03*
X0156224Y0038652D03*
X0151894Y0035502D03*
X0143232Y0031565D03*
X0134177Y0037864D03*
X0108587Y0083140D03*
X0068429Y0099281D03*
X0048744Y0052431D03*
X0336146Y0285896D03*
X0340870Y0256987D03*
X0340870Y0243415D03*
X0340870Y0226339D03*
D17*
X0275122Y0237864D03*
X0263705Y0256368D03*
X0248744Y0237470D03*
X0242839Y0224478D03*
X0232602Y0246919D03*
X0202681Y0231171D03*
X0198744Y0230778D03*
X0201428Y0225981D03*
X0184177Y0211486D03*
X0181421Y0200069D03*
X0175122Y0201644D03*
X0185752Y0189045D03*
X0179846Y0184321D03*
X0195988Y0208337D03*
X0170791Y0225659D03*
X0174728Y0231171D03*
X0115673Y0182352D03*
X0072366Y0182352D03*
X0074335Y0144163D03*
X0165280Y0089045D03*
X0175122Y0108337D03*
X0171972Y0111486D03*
X0167248Y0115423D03*
X0167248Y0119360D03*
X0170004Y0122116D03*
X0171972Y0126841D03*
X0175122Y0135108D03*
X0229846Y0107549D03*
X0233783Y0127234D03*
X0269217Y0127234D03*
X0269610Y0118179D03*
X0276697Y0145344D03*
X0279059Y0154793D03*
X0282602Y0162667D03*
X0265673Y0184321D03*
X0261343Y0187470D03*
X0340083Y0158730D03*
X0243232Y0076841D03*
X0229846Y0063848D03*
X0197957Y0033927D03*
X0147563Y0016998D03*
X0081815Y0048100D03*
X0070004Y0048494D03*
X0021185Y0042982D03*
X0100713Y0222510D03*
X0100713Y0233140D03*
X0089689Y0227234D03*
X0088114Y0281959D03*
X0072760Y0287470D03*
X0145594Y0291801D03*
X0157799Y0296919D03*
X0170004Y0291801D03*
X0163311Y0280778D03*
X0198350Y0285502D03*
D18*
X0208193Y0259911D03*
X0198350Y0316211D03*
X0264492Y0316211D03*
X0329846Y0316211D03*
X0391264Y0316211D03*
X0391264Y0249281D03*
X0391264Y0182352D03*
X0391264Y0142982D03*
X0391264Y0076053D03*
X0391264Y0009124D03*
X0329846Y0009124D03*
X0264492Y0009124D03*
X0198350Y0009124D03*
X0132602Y0009124D03*
X0005437Y0009124D03*
X0005437Y0076053D03*
X0005437Y0142982D03*
X0005437Y0182352D03*
X0005437Y0249281D03*
X0005437Y0316211D03*
X0067248Y0316211D03*
D19*
X0099610Y0300974D02*
X0101106Y0299478D01*
X0101106Y0247707D01*
X0129453Y0247313D02*
X0129453Y0277234D01*
X0136933Y0284715D01*
X0136933Y0281959D02*
X0131421Y0276447D01*
X0131421Y0245344D01*
X0129453Y0243376D01*
X0167212Y0205995D02*
X0178702Y0205995D01*
X0185001Y0199696D01*
X0185573Y0199123D01*
X0186146Y0199696D01*
X0186146Y0198551D01*
X0186166Y0198531D01*
X0186166Y0197805D01*
X0187327Y0196644D01*
X0218942Y0196644D01*
X0221185Y0198888D01*
X0221315Y0198888D01*
X0224584Y0202156D01*
X0232328Y0202156D01*
X0232996Y0202825D01*
X0232996Y0203042D01*
X0236146Y0200856D02*
X0225122Y0200856D01*
X0219610Y0195344D01*
X0186539Y0195344D01*
X0184177Y0197707D01*
X0168149Y0197707D01*
X0167264Y0196821D01*
X0165616Y0196821D01*
X0164850Y0197588D01*
X0075765Y0197588D01*
X0050353Y0223000D01*
X0050353Y0239244D01*
X0046500Y0243096D01*
X0042445Y0239041D01*
X0042445Y0228809D01*
X0045200Y0226054D01*
X0045200Y0224475D01*
X0055247Y0214429D01*
X0055247Y0171123D01*
X0050506Y0166383D01*
X0050506Y0120410D01*
X0046654Y0116557D01*
X0046654Y0112990D01*
X0046654Y0109423D01*
X0042801Y0105570D01*
X0042801Y0102378D01*
X0045058Y0100121D01*
X0058486Y0100121D01*
X0122732Y0035875D01*
X0135001Y0035875D01*
X0135415Y0036289D01*
X0151106Y0036289D01*
X0151894Y0035502D01*
X0143232Y0031565D02*
X0141284Y0033513D01*
X0123256Y0033513D01*
X0057948Y0098821D01*
X0044519Y0098821D01*
X0041501Y0101840D01*
X0041501Y0116853D01*
X0046654Y0122005D01*
X0046654Y0125573D01*
X0042801Y0129425D01*
X0042801Y0166383D01*
X0037907Y0171277D01*
X0037907Y0238114D01*
X0040353Y0240560D01*
X0040353Y0249532D01*
X0046500Y0255679D01*
X0046500Y0252112D01*
X0051653Y0246959D01*
X0051653Y0223538D01*
X0076303Y0198888D01*
X0160104Y0198888D01*
X0167212Y0205995D01*
X0164311Y0196288D02*
X0075226Y0196288D01*
X0063047Y0208467D01*
X0046500Y0225014D01*
X0046500Y0237648D01*
X0046500Y0243096D02*
X0046500Y0246663D01*
X0054376Y0255024D02*
X0051347Y0258053D01*
X0051347Y0259848D01*
X0046500Y0264695D01*
X0046500Y0270144D02*
X0052647Y0263996D01*
X0052647Y0258591D01*
X0054904Y0256334D01*
X0056618Y0256334D01*
X0056628Y0256324D01*
X0058634Y0256324D01*
X0061855Y0253103D01*
X0061855Y0217013D01*
X0077380Y0201488D01*
X0133964Y0201488D01*
X0138078Y0205601D01*
X0139725Y0205601D01*
X0140891Y0204436D01*
X0138902Y0203612D02*
X0138783Y0203612D01*
X0135358Y0200188D01*
X0076842Y0200188D01*
X0060555Y0216474D01*
X0060555Y0252565D01*
X0058096Y0255024D01*
X0054376Y0255024D01*
X0046500Y0270144D02*
X0046500Y0273711D01*
X0062130Y0209124D02*
X0062130Y0207549D01*
X0063705Y0207549D01*
X0063047Y0208467D02*
X0062130Y0207549D01*
X0056547Y0201966D01*
X0056547Y0170585D01*
X0051807Y0165845D01*
X0051807Y0112694D01*
X0046654Y0107541D01*
X0046654Y0103974D01*
X0056472Y0103974D01*
X0104403Y0056043D01*
X0115998Y0056043D01*
X0134177Y0037864D01*
X0251578Y0146266D02*
X0260099Y0137745D01*
X0328019Y0137745D01*
X0335752Y0130012D01*
X0335752Y0122835D01*
X0338239Y0120348D01*
X0340164Y0120348D01*
X0349834Y0110677D01*
X0349834Y0119693D02*
X0340164Y0129364D01*
X0338239Y0129364D01*
X0328557Y0139045D01*
X0308587Y0139045D01*
X0308550Y0139082D01*
X0261696Y0139082D01*
X0258349Y0142429D01*
X0257254Y0142429D01*
X0253469Y0146214D01*
X0253469Y0150856D01*
X0257406Y0150856D02*
X0257406Y0146919D01*
X0257406Y0146214D01*
X0258591Y0145029D01*
X0259426Y0145029D01*
X0262773Y0141682D01*
X0334936Y0141682D01*
X0338239Y0138380D01*
X0349179Y0138380D01*
X0349834Y0137725D01*
X0341464Y0137080D02*
X0349834Y0128709D01*
X0341464Y0137080D02*
X0337700Y0137080D01*
X0334398Y0140382D01*
X0262234Y0140382D01*
X0258888Y0143729D01*
X0258052Y0143729D01*
X0255437Y0146344D01*
X0255437Y0146919D01*
X0251578Y0146841D02*
X0251500Y0146919D01*
X0251578Y0146841D02*
X0251578Y0146266D01*
X0259374Y0146919D02*
X0260358Y0145935D01*
X0263311Y0142982D01*
X0334965Y0142982D01*
X0338723Y0146740D01*
X0349834Y0146740D01*
X0268429Y0208337D02*
X0268429Y0224478D01*
X0267248Y0225659D01*
X0248744Y0225659D01*
X0242445Y0231959D01*
X0242445Y0240445D01*
X0242445Y0240620D01*
X0241264Y0214636D02*
X0234571Y0214636D01*
X0241264Y0214636D02*
X0242051Y0213848D01*
X0265280Y0213848D01*
X0268429Y0208337D02*
X0266067Y0205974D01*
X0265280Y0205974D01*
X0234177Y0198867D02*
X0224972Y0198867D01*
X0220149Y0194044D01*
X0183902Y0194044D01*
X0182996Y0194951D01*
X0182425Y0195521D01*
X0165078Y0195521D01*
X0164311Y0196288D01*
D20*
X0137327Y0211880D03*
X0137327Y0215817D03*
X0137327Y0219754D03*
X0137720Y0223691D03*
X0129453Y0243376D03*
X0129453Y0247313D03*
X0121972Y0256762D03*
X0117642Y0254793D03*
X0113705Y0261093D03*
X0125516Y0261093D03*
X0136933Y0281959D03*
X0136933Y0284715D03*
X0144413Y0281171D03*
X0151106Y0280778D03*
X0171185Y0280778D03*
X0174335Y0282746D03*
X0168429Y0264242D03*
X0151106Y0253219D03*
X0149531Y0255974D03*
X0134571Y0294557D03*
X0101106Y0247707D03*
X0198350Y0237077D03*
X0201106Y0215423D03*
X0203075Y0211880D03*
X0198350Y0205974D03*
X0198350Y0202037D03*
X0206224Y0191014D03*
X0210161Y0191014D03*
X0216067Y0191014D03*
X0221972Y0191014D03*
X0229059Y0191407D03*
X0232194Y0191407D03*
X0235358Y0191407D03*
X0241657Y0205974D03*
X0234571Y0214636D03*
X0236539Y0219360D03*
X0227878Y0218573D03*
X0245594Y0233533D03*
X0242445Y0240445D03*
X0227484Y0246526D03*
X0224335Y0246919D03*
X0277091Y0249281D03*
X0277091Y0229596D03*
X0277091Y0272904D03*
X0277091Y0296526D03*
X0257406Y0150856D03*
X0253469Y0150856D03*
X0255437Y0146919D03*
X0251500Y0146919D03*
X0259374Y0146919D03*
X0316461Y0125266D03*
X0318823Y0127234D03*
X0115673Y0146919D03*
X0112524Y0148888D03*
X0105437Y0141801D03*
X0107799Y0139045D03*
X0088114Y0079990D03*
X0092051Y0076053D03*
X0043232Y0046526D03*
X0034965Y0064242D03*
X0025122Y0064242D03*
X0017248Y0046526D03*
D21*
X0141657Y0200856D02*
X0160243Y0200856D01*
X0166676Y0207289D01*
X0179238Y0207289D01*
X0184489Y0202037D01*
X0198350Y0202037D01*
X0198350Y0205974D02*
X0182373Y0205974D01*
X0179771Y0208576D01*
X0166142Y0208576D01*
X0161179Y0203612D01*
X0143232Y0203612D01*
X0141714Y0203612D01*
X0140891Y0204436D01*
X0138902Y0203612D02*
X0141657Y0200856D01*
X0199025Y0214724D02*
X0199025Y0217256D01*
X0155809Y0260472D01*
X0155809Y0269776D01*
X0144413Y0281171D01*
X0158200Y0264945D02*
X0157096Y0263842D01*
X0157096Y0261006D01*
X0201106Y0216996D01*
X0201106Y0215423D01*
X0201613Y0213342D02*
X0200407Y0213342D01*
X0199025Y0214724D01*
X0201613Y0213342D02*
X0203075Y0211880D01*
X0216067Y0191014D02*
X0251500Y0155581D01*
X0251500Y0146919D01*
X0255353Y0147004D02*
X0255353Y0155369D01*
X0234283Y0176439D01*
X0234283Y0180523D01*
X0229059Y0185748D01*
X0229059Y0191407D01*
X0232194Y0191407D02*
X0232194Y0184433D01*
X0236230Y0180398D01*
X0255471Y0180398D01*
X0257420Y0178449D01*
X0257420Y0174202D01*
X0248325Y0165108D01*
X0248325Y0164217D01*
X0257406Y0155137D01*
X0257406Y0146919D01*
X0255437Y0146919D02*
X0255353Y0147004D01*
X0253469Y0150856D02*
X0253384Y0150856D01*
X0253384Y0155517D01*
X0232996Y0175905D01*
X0232996Y0179990D01*
X0221972Y0191014D01*
X0235358Y0191407D02*
X0245080Y0181685D01*
X0257333Y0181685D01*
X0262538Y0176481D01*
X0262538Y0173243D01*
X0260358Y0171063D01*
X0260358Y0145935D01*
X0166461Y0262274D02*
X0162432Y0262274D01*
X0159761Y0264945D01*
X0158200Y0264945D01*
X0166461Y0262274D02*
X0166545Y0262358D01*
X0166545Y0267524D01*
X0170004Y0270983D01*
X0170004Y0278413D01*
X0169301Y0279116D01*
X0169301Y0281558D01*
X0170405Y0282662D01*
X0174250Y0282662D01*
X0174335Y0282746D01*
D22*
X0131230Y0007203D02*
X0006809Y0007203D01*
X0007766Y0008159D01*
X0007766Y0010089D01*
X0006402Y0011453D01*
X0004472Y0011453D01*
X0003500Y0010480D01*
X0003500Y0074697D01*
X0004472Y0073724D01*
X0006402Y0073724D01*
X0007766Y0075089D01*
X0007766Y0077018D01*
X0006402Y0078382D01*
X0004472Y0078382D01*
X0003500Y0077409D01*
X0003500Y0141626D01*
X0004472Y0140654D01*
X0006402Y0140654D01*
X0007766Y0142018D01*
X0007766Y0143947D01*
X0006402Y0145311D01*
X0004472Y0145311D01*
X0003500Y0144339D01*
X0003500Y0180996D01*
X0004472Y0180024D01*
X0006402Y0180024D01*
X0007766Y0181388D01*
X0007766Y0183317D01*
X0006402Y0184681D01*
X0004472Y0184681D01*
X0003500Y0183709D01*
X0003500Y0247925D01*
X0004472Y0246953D01*
X0006402Y0246953D01*
X0007766Y0248317D01*
X0007766Y0250246D01*
X0006402Y0251610D01*
X0004472Y0251610D01*
X0003500Y0250638D01*
X0003500Y0314854D01*
X0004472Y0313882D01*
X0006402Y0313882D01*
X0007766Y0315246D01*
X0007766Y0317175D01*
X0006778Y0318163D01*
X0065907Y0318163D01*
X0064919Y0317175D01*
X0064919Y0315246D01*
X0066283Y0313882D01*
X0068213Y0313882D01*
X0069577Y0315246D01*
X0069577Y0317175D01*
X0068589Y0318163D01*
X0197010Y0318163D01*
X0196022Y0317175D01*
X0196022Y0315246D01*
X0197386Y0313882D01*
X0199315Y0313882D01*
X0200679Y0315246D01*
X0200679Y0317175D01*
X0199691Y0318163D01*
X0263152Y0318163D01*
X0262163Y0317175D01*
X0262163Y0315246D01*
X0263528Y0313882D01*
X0265457Y0313882D01*
X0266821Y0315246D01*
X0266821Y0317175D01*
X0265833Y0318163D01*
X0328506Y0318163D01*
X0327518Y0317175D01*
X0327518Y0315246D01*
X0328882Y0313882D01*
X0330811Y0313882D01*
X0332175Y0315246D01*
X0332175Y0317175D01*
X0331187Y0318163D01*
X0389923Y0318163D01*
X0388935Y0317175D01*
X0388935Y0315246D01*
X0390299Y0313882D01*
X0392228Y0313882D01*
X0393201Y0314854D01*
X0393201Y0250638D01*
X0392228Y0251610D01*
X0390299Y0251610D01*
X0388935Y0250246D01*
X0388935Y0248317D01*
X0390299Y0246953D01*
X0392228Y0246953D01*
X0393201Y0247925D01*
X0393201Y0183709D01*
X0392228Y0184681D01*
X0390299Y0184681D01*
X0388935Y0183317D01*
X0388935Y0181388D01*
X0390299Y0180024D01*
X0392228Y0180024D01*
X0393201Y0180996D01*
X0393201Y0144339D01*
X0392228Y0145311D01*
X0390299Y0145311D01*
X0388935Y0143947D01*
X0388935Y0142018D01*
X0390299Y0140654D01*
X0392228Y0140654D01*
X0393201Y0141626D01*
X0393201Y0077409D01*
X0392228Y0078382D01*
X0390299Y0078382D01*
X0388935Y0077018D01*
X0388935Y0075089D01*
X0390299Y0073724D01*
X0392228Y0073724D01*
X0393201Y0074697D01*
X0393201Y0010480D01*
X0392228Y0011453D01*
X0390299Y0011453D01*
X0388935Y0010089D01*
X0388935Y0008159D01*
X0389892Y0007203D01*
X0331219Y0007203D01*
X0332175Y0008159D01*
X0332175Y0010089D01*
X0330811Y0011453D01*
X0328882Y0011453D01*
X0327518Y0010089D01*
X0327518Y0008159D01*
X0328474Y0007203D01*
X0265864Y0007203D01*
X0266821Y0008159D01*
X0266821Y0010089D01*
X0265457Y0011453D01*
X0263528Y0011453D01*
X0262163Y0010089D01*
X0262163Y0008159D01*
X0263120Y0007203D01*
X0199722Y0007203D01*
X0200679Y0008159D01*
X0200679Y0010089D01*
X0199315Y0011453D01*
X0197386Y0011453D01*
X0196022Y0010089D01*
X0196022Y0008159D01*
X0196978Y0007203D01*
X0133974Y0007203D01*
X0134931Y0008159D01*
X0134931Y0010089D01*
X0133567Y0011453D01*
X0131638Y0011453D01*
X0130274Y0010089D01*
X0130274Y0008159D01*
X0131230Y0007203D01*
X0130274Y0008198D02*
X0007766Y0008198D01*
X0007766Y0009197D02*
X0130274Y0009197D01*
X0130380Y0010195D02*
X0007659Y0010195D01*
X0006661Y0011194D02*
X0131379Y0011194D01*
X0133826Y0011194D02*
X0197127Y0011194D01*
X0196128Y0010195D02*
X0134824Y0010195D01*
X0134931Y0009197D02*
X0196022Y0009197D01*
X0196022Y0008198D02*
X0134931Y0008198D01*
X0141234Y0030609D02*
X0108545Y0030609D01*
X0105662Y0033492D01*
X0104608Y0034546D01*
X0025868Y0034546D01*
X0022985Y0037429D01*
X0022985Y0041689D01*
X0023372Y0042076D01*
X0023372Y0043888D01*
X0022091Y0045170D01*
X0020279Y0045170D01*
X0018998Y0043888D01*
X0018998Y0042076D01*
X0019385Y0041689D01*
X0019385Y0035937D01*
X0020439Y0034883D01*
X0024376Y0030946D01*
X0103117Y0030946D01*
X0105999Y0028063D01*
X0107054Y0027009D01*
X0304597Y0027009D01*
X0305288Y0026968D01*
X0305334Y0027009D01*
X0305395Y0027009D01*
X0305885Y0027499D01*
X0340767Y0058505D01*
X0368387Y0058505D01*
X0369442Y0059560D01*
X0380198Y0070316D01*
X0381253Y0071371D01*
X0381253Y0147665D01*
X0380198Y0148719D01*
X0364450Y0164467D01*
X0340828Y0164467D01*
X0334009Y0171287D01*
X0334009Y0181523D01*
X0332954Y0182578D01*
X0277309Y0238222D01*
X0277309Y0238770D01*
X0276028Y0240052D01*
X0274216Y0240052D01*
X0272935Y0238770D01*
X0272935Y0236958D01*
X0274216Y0235677D01*
X0274764Y0235677D01*
X0330409Y0180032D01*
X0330409Y0169796D01*
X0338283Y0161922D01*
X0339337Y0160867D01*
X0362959Y0160867D01*
X0377653Y0146174D01*
X0377653Y0072862D01*
X0366896Y0062105D01*
X0340136Y0062105D01*
X0339444Y0062146D01*
X0339398Y0062105D01*
X0339337Y0062105D01*
X0338847Y0061615D01*
X0303965Y0030609D01*
X0145231Y0030609D01*
X0145321Y0030700D01*
X0145321Y0032430D01*
X0144098Y0033654D01*
X0143123Y0033654D01*
X0141888Y0034889D01*
X0149805Y0034889D01*
X0149805Y0034637D01*
X0151028Y0033413D01*
X0152759Y0033413D01*
X0153983Y0034637D01*
X0153983Y0036367D01*
X0152759Y0037591D01*
X0151785Y0037591D01*
X0151686Y0037689D01*
X0136266Y0037689D01*
X0136266Y0038729D01*
X0135042Y0039953D01*
X0134068Y0039953D01*
X0117398Y0056623D01*
X0116578Y0057443D01*
X0112737Y0057443D01*
X0114835Y0059541D01*
X0116098Y0062591D01*
X0116098Y0065893D01*
X0114835Y0068943D01*
X0112500Y0071278D01*
X0109450Y0072541D01*
X0106148Y0072541D01*
X0103098Y0071278D01*
X0100763Y0068943D01*
X0099500Y0065893D01*
X0099500Y0062926D01*
X0058142Y0104284D01*
X0058363Y0104355D01*
X0058987Y0104673D01*
X0059554Y0105085D01*
X0060050Y0105581D01*
X0060462Y0106148D01*
X0060780Y0106773D01*
X0060997Y0107439D01*
X0061085Y0107998D01*
X0057138Y0107998D01*
X0057138Y0108966D01*
X0061085Y0108966D01*
X0060997Y0109525D01*
X0060780Y0110191D01*
X0060462Y0110816D01*
X0060050Y0111383D01*
X0059554Y0111878D01*
X0058987Y0112290D01*
X0058363Y0112608D01*
X0057696Y0112825D01*
X0057138Y0112913D01*
X0057138Y0108966D01*
X0056169Y0108966D01*
X0056169Y0107998D01*
X0052222Y0107998D01*
X0052311Y0107439D01*
X0052527Y0106773D01*
X0052845Y0106148D01*
X0053257Y0105581D01*
X0053464Y0105374D01*
X0050352Y0105374D01*
X0050005Y0106213D01*
X0048893Y0107325D01*
X0048557Y0107464D01*
X0052386Y0111294D01*
X0053207Y0112114D01*
X0053207Y0115491D01*
X0053303Y0115259D01*
X0054415Y0114147D01*
X0055867Y0113545D01*
X0057440Y0113545D01*
X0058893Y0114147D01*
X0060005Y0115259D01*
X0060606Y0116711D01*
X0060606Y0118284D01*
X0060005Y0119737D01*
X0058893Y0120849D01*
X0057440Y0121450D01*
X0055867Y0121450D01*
X0054415Y0120849D01*
X0053303Y0119737D01*
X0053207Y0119504D01*
X0053207Y0124507D01*
X0053303Y0124274D01*
X0054415Y0123162D01*
X0055867Y0122561D01*
X0057440Y0122561D01*
X0058893Y0123162D01*
X0060005Y0124274D01*
X0060606Y0125727D01*
X0060606Y0127300D01*
X0060005Y0128752D01*
X0058893Y0129864D01*
X0057440Y0130466D01*
X0055867Y0130466D01*
X0054415Y0129864D01*
X0053303Y0128752D01*
X0053207Y0128520D01*
X0053207Y0133522D01*
X0053303Y0133290D01*
X0054415Y0132178D01*
X0055867Y0131576D01*
X0057440Y0131576D01*
X0058893Y0132178D01*
X0060005Y0133290D01*
X0060606Y0134743D01*
X0060606Y0136315D01*
X0060005Y0137768D01*
X0058893Y0138880D01*
X0057440Y0139482D01*
X0055867Y0139482D01*
X0054415Y0138880D01*
X0053303Y0137768D01*
X0053207Y0137536D01*
X0053207Y0142538D01*
X0053303Y0142306D01*
X0054415Y0141194D01*
X0055867Y0140592D01*
X0057440Y0140592D01*
X0058893Y0141194D01*
X0060005Y0142306D01*
X0060606Y0143759D01*
X0060606Y0145331D01*
X0060005Y0146784D01*
X0058893Y0147896D01*
X0057440Y0148498D01*
X0055867Y0148498D01*
X0054415Y0147896D01*
X0053303Y0146784D01*
X0053207Y0146552D01*
X0053207Y0165265D01*
X0057947Y0170005D01*
X0057947Y0201386D01*
X0062710Y0206149D01*
X0063385Y0206149D01*
X0073826Y0195708D01*
X0074646Y0194888D01*
X0163731Y0194888D01*
X0164498Y0194121D01*
X0180907Y0194121D01*
X0180907Y0194085D01*
X0182131Y0192862D01*
X0183105Y0192862D01*
X0183322Y0192644D01*
X0205040Y0192644D01*
X0204234Y0191838D01*
X0204234Y0190862D01*
X0147812Y0134440D01*
X0147345Y0134440D01*
X0147045Y0134740D01*
X0145719Y0134740D01*
X0130759Y0119779D01*
X0130527Y0119547D01*
X0130302Y0120089D01*
X0129315Y0121076D01*
X0128025Y0121610D01*
X0126629Y0121610D01*
X0125339Y0121076D01*
X0124351Y0120089D01*
X0123817Y0118799D01*
X0123817Y0117402D01*
X0124351Y0116112D01*
X0125339Y0115125D01*
X0125508Y0115055D01*
X0124853Y0115055D01*
X0091088Y0081290D01*
X0089629Y0081290D01*
X0088939Y0081981D01*
X0087290Y0081981D01*
X0086124Y0080815D01*
X0086124Y0079166D01*
X0087290Y0078000D01*
X0088939Y0078000D01*
X0089629Y0078690D01*
X0091088Y0078690D01*
X0091388Y0078390D01*
X0092714Y0078390D01*
X0093014Y0078690D01*
X0093771Y0078690D01*
X0094532Y0079452D01*
X0094532Y0080209D01*
X0126178Y0111855D01*
X0129164Y0111855D01*
X0094662Y0077353D01*
X0093566Y0077353D01*
X0092876Y0078044D01*
X0091227Y0078044D01*
X0090061Y0076878D01*
X0090061Y0075229D01*
X0091227Y0074063D01*
X0092876Y0074063D01*
X0093566Y0074753D01*
X0095739Y0074753D01*
X0210009Y0189023D01*
X0210986Y0189023D01*
X0212152Y0190189D01*
X0212152Y0191838D01*
X0211346Y0192644D01*
X0214883Y0192644D01*
X0214076Y0191838D01*
X0214076Y0190189D01*
X0215242Y0189023D01*
X0216086Y0189023D01*
X0250106Y0155003D01*
X0250106Y0148341D01*
X0249509Y0147744D01*
X0249509Y0146095D01*
X0250675Y0144929D01*
X0250936Y0144929D01*
X0259519Y0136345D01*
X0327439Y0136345D01*
X0334352Y0129432D01*
X0334352Y0122255D01*
X0335172Y0121435D01*
X0337659Y0118948D01*
X0338590Y0118948D01*
X0337595Y0118536D01*
X0336484Y0117424D01*
X0335882Y0115972D01*
X0335882Y0114399D01*
X0336484Y0112946D01*
X0337595Y0111834D01*
X0339048Y0111233D01*
X0340621Y0111233D01*
X0342074Y0111834D01*
X0343185Y0112946D01*
X0343787Y0114399D01*
X0343787Y0114745D01*
X0346229Y0112303D01*
X0345882Y0111464D01*
X0345882Y0109891D01*
X0346484Y0108438D01*
X0347595Y0107327D01*
X0349048Y0106725D01*
X0350621Y0106725D01*
X0352074Y0107327D01*
X0353185Y0108438D01*
X0353787Y0109891D01*
X0353787Y0111464D01*
X0353185Y0112917D01*
X0352074Y0114028D01*
X0350621Y0114630D01*
X0349048Y0114630D01*
X0348209Y0114283D01*
X0341768Y0120724D01*
X0342074Y0120850D01*
X0343185Y0121962D01*
X0343787Y0123415D01*
X0343787Y0123761D01*
X0346229Y0121319D01*
X0345882Y0120479D01*
X0345882Y0118907D01*
X0346484Y0117454D01*
X0347595Y0116342D01*
X0349048Y0115740D01*
X0350621Y0115740D01*
X0352074Y0116342D01*
X0353185Y0117454D01*
X0353787Y0118907D01*
X0353787Y0120479D01*
X0353185Y0121932D01*
X0352074Y0123044D01*
X0350621Y0123646D01*
X0349048Y0123646D01*
X0348209Y0123298D01*
X0341768Y0129739D01*
X0342074Y0129866D01*
X0343185Y0130978D01*
X0343787Y0132431D01*
X0343787Y0132776D01*
X0346229Y0130334D01*
X0345882Y0129495D01*
X0345882Y0127923D01*
X0346484Y0126470D01*
X0347595Y0125358D01*
X0349048Y0124756D01*
X0350621Y0124756D01*
X0352074Y0125358D01*
X0353185Y0126470D01*
X0353787Y0127923D01*
X0353787Y0129495D01*
X0353185Y0130948D01*
X0352074Y0132060D01*
X0350621Y0132662D01*
X0349048Y0132662D01*
X0348209Y0132314D01*
X0343544Y0136980D01*
X0345882Y0136980D01*
X0345882Y0136938D01*
X0346484Y0135486D01*
X0347595Y0134374D01*
X0349048Y0133772D01*
X0350621Y0133772D01*
X0352074Y0134374D01*
X0353185Y0135486D01*
X0353787Y0136938D01*
X0353787Y0138511D01*
X0353185Y0139964D01*
X0352074Y0141076D01*
X0350621Y0141677D01*
X0349048Y0141677D01*
X0347595Y0141076D01*
X0346484Y0139964D01*
X0346407Y0139780D01*
X0343556Y0139780D01*
X0343643Y0139899D01*
X0343961Y0140523D01*
X0344178Y0141190D01*
X0344266Y0141748D01*
X0340319Y0141748D01*
X0340319Y0142717D01*
X0344266Y0142717D01*
X0344178Y0143275D01*
X0343961Y0143942D01*
X0343643Y0144566D01*
X0343231Y0145133D01*
X0343024Y0145340D01*
X0346136Y0145340D01*
X0346484Y0144501D01*
X0347595Y0143389D01*
X0349048Y0142788D01*
X0350621Y0142788D01*
X0352074Y0143389D01*
X0353185Y0144501D01*
X0353787Y0145954D01*
X0353787Y0147527D01*
X0353185Y0148980D01*
X0352074Y0150091D01*
X0350621Y0150693D01*
X0349048Y0150693D01*
X0347595Y0150091D01*
X0346484Y0148980D01*
X0346136Y0148140D01*
X0338143Y0148140D01*
X0334385Y0144382D01*
X0267843Y0144382D01*
X0268417Y0144956D01*
X0268839Y0145974D01*
X0268839Y0147077D01*
X0268417Y0148096D01*
X0267637Y0148875D01*
X0266618Y0149297D01*
X0265516Y0149297D01*
X0264497Y0148875D01*
X0263717Y0148096D01*
X0263295Y0147077D01*
X0263295Y0145974D01*
X0263717Y0144956D01*
X0264291Y0144382D01*
X0263891Y0144382D01*
X0261758Y0146515D01*
X0261752Y0146521D01*
X0261752Y0170486D01*
X0263931Y0172666D01*
X0263931Y0177058D01*
X0258727Y0182263D01*
X0257910Y0183079D01*
X0245658Y0183079D01*
X0237349Y0191388D01*
X0237349Y0192232D01*
X0236183Y0193398D01*
X0234534Y0193398D01*
X0233776Y0192641D01*
X0233019Y0193398D01*
X0231370Y0193398D01*
X0230627Y0192655D01*
X0229884Y0193398D01*
X0228235Y0193398D01*
X0227069Y0192232D01*
X0227069Y0190583D01*
X0227665Y0189986D01*
X0227665Y0187292D01*
X0223963Y0190994D01*
X0223963Y0191838D01*
X0222797Y0193004D01*
X0221148Y0193004D01*
X0219982Y0191838D01*
X0219982Y0190189D01*
X0221148Y0189023D01*
X0221992Y0189023D01*
X0231602Y0179413D01*
X0231602Y0177449D01*
X0218057Y0190994D01*
X0218057Y0191838D01*
X0217251Y0192644D01*
X0220729Y0192644D01*
X0221549Y0193465D01*
X0225551Y0197467D01*
X0232623Y0197467D01*
X0233312Y0196778D01*
X0235042Y0196778D01*
X0236266Y0198002D01*
X0236266Y0198767D01*
X0237011Y0198767D01*
X0238235Y0199991D01*
X0238235Y0201722D01*
X0237011Y0202945D01*
X0235280Y0202945D01*
X0235085Y0202750D01*
X0235085Y0203907D01*
X0233861Y0205131D01*
X0232131Y0205131D01*
X0230907Y0203907D01*
X0230907Y0203556D01*
X0224004Y0203556D01*
X0223184Y0202736D01*
X0220735Y0200288D01*
X0220605Y0200288D01*
X0219785Y0199468D01*
X0218362Y0198044D01*
X0187907Y0198044D01*
X0187678Y0198273D01*
X0188235Y0198830D01*
X0188235Y0200561D01*
X0188152Y0200644D01*
X0196929Y0200644D01*
X0197526Y0200047D01*
X0199175Y0200047D01*
X0200341Y0201213D01*
X0200341Y0202862D01*
X0199197Y0204006D01*
X0200341Y0205150D01*
X0200341Y0206799D01*
X0199175Y0207965D01*
X0197526Y0207965D01*
X0196929Y0207368D01*
X0182950Y0207368D01*
X0180348Y0209970D01*
X0165565Y0209970D01*
X0160601Y0205006D01*
X0144793Y0205006D01*
X0144098Y0205701D01*
X0142367Y0205701D01*
X0141986Y0205320D01*
X0141125Y0206181D01*
X0140305Y0207001D01*
X0137498Y0207001D01*
X0133384Y0202888D01*
X0077960Y0202888D01*
X0063255Y0217593D01*
X0063255Y0253683D01*
X0062435Y0254503D01*
X0060034Y0256904D01*
X0059421Y0257518D01*
X0059851Y0257948D01*
X0060453Y0259401D01*
X0060453Y0260973D01*
X0059851Y0262426D01*
X0058739Y0263538D01*
X0057286Y0264140D01*
X0055714Y0264140D01*
X0054261Y0263538D01*
X0054047Y0263324D01*
X0054047Y0264576D01*
X0053227Y0265396D01*
X0048403Y0270220D01*
X0048739Y0270360D01*
X0049851Y0271472D01*
X0050453Y0272924D01*
X0050453Y0274497D01*
X0049851Y0275950D01*
X0048739Y0277062D01*
X0047286Y0277663D01*
X0045714Y0277663D01*
X0044261Y0277062D01*
X0043149Y0275950D01*
X0042547Y0274497D01*
X0042547Y0272924D01*
X0043149Y0271472D01*
X0044261Y0270360D01*
X0045100Y0270012D01*
X0045100Y0269564D01*
X0046016Y0268648D01*
X0045714Y0268648D01*
X0044261Y0268046D01*
X0043149Y0266934D01*
X0042547Y0265481D01*
X0042547Y0263909D01*
X0043149Y0262456D01*
X0044261Y0261344D01*
X0045714Y0260742D01*
X0047286Y0260742D01*
X0048125Y0261090D01*
X0049947Y0259268D01*
X0049947Y0257686D01*
X0049851Y0257918D01*
X0048739Y0259030D01*
X0047286Y0259632D01*
X0045714Y0259632D01*
X0044261Y0259030D01*
X0043149Y0257918D01*
X0042547Y0256465D01*
X0042547Y0254893D01*
X0042895Y0254054D01*
X0040453Y0251612D01*
X0040453Y0251958D01*
X0039851Y0253410D01*
X0038739Y0254522D01*
X0037286Y0255124D01*
X0035714Y0255124D01*
X0034261Y0254522D01*
X0033149Y0253410D01*
X0032547Y0251958D01*
X0032547Y0250385D01*
X0033149Y0248932D01*
X0034261Y0247820D01*
X0035714Y0247219D01*
X0037286Y0247219D01*
X0038739Y0247820D01*
X0038953Y0248034D01*
X0038953Y0245293D01*
X0038739Y0245506D01*
X0037286Y0246108D01*
X0035714Y0246108D01*
X0034261Y0245506D01*
X0033149Y0244395D01*
X0032547Y0242942D01*
X0032547Y0241369D01*
X0033149Y0239916D01*
X0034261Y0238805D01*
X0035714Y0238203D01*
X0036507Y0238203D01*
X0036507Y0170697D01*
X0037327Y0169877D01*
X0041401Y0165803D01*
X0041401Y0128845D01*
X0042221Y0128025D01*
X0044751Y0125496D01*
X0044415Y0125356D01*
X0043303Y0124245D01*
X0042701Y0122792D01*
X0042701Y0121219D01*
X0043048Y0120380D01*
X0040921Y0118253D01*
X0040606Y0117938D01*
X0040606Y0118284D01*
X0040005Y0119737D01*
X0038893Y0120849D01*
X0037440Y0121450D01*
X0035867Y0121450D01*
X0034415Y0120849D01*
X0033303Y0119737D01*
X0032701Y0118284D01*
X0032701Y0116711D01*
X0033303Y0115259D01*
X0034415Y0114147D01*
X0035867Y0113545D01*
X0037440Y0113545D01*
X0038893Y0114147D01*
X0040005Y0115259D01*
X0040101Y0115491D01*
X0040101Y0110488D01*
X0040005Y0110721D01*
X0038893Y0111833D01*
X0037440Y0112435D01*
X0035867Y0112435D01*
X0034415Y0111833D01*
X0033303Y0110721D01*
X0032701Y0109268D01*
X0032701Y0107696D01*
X0033303Y0106243D01*
X0034415Y0105131D01*
X0035867Y0104529D01*
X0037440Y0104529D01*
X0038893Y0105131D01*
X0040005Y0106243D01*
X0040101Y0106475D01*
X0040101Y0101260D01*
X0040921Y0100440D01*
X0043119Y0098241D01*
X0043939Y0097421D01*
X0057368Y0097421D01*
X0121856Y0032933D01*
X0122676Y0032113D01*
X0140704Y0032113D01*
X0141143Y0031674D01*
X0141143Y0030700D01*
X0141234Y0030609D01*
X0141143Y0031164D02*
X0107990Y0031164D01*
X0106991Y0032163D02*
X0122626Y0032163D01*
X0121856Y0032933D02*
X0121856Y0032933D01*
X0121628Y0033161D02*
X0105993Y0033161D01*
X0104994Y0034160D02*
X0120629Y0034160D01*
X0119631Y0035158D02*
X0025256Y0035158D01*
X0024257Y0036157D02*
X0118632Y0036157D01*
X0117634Y0037155D02*
X0023259Y0037155D01*
X0022985Y0038154D02*
X0116635Y0038154D01*
X0115637Y0039152D02*
X0022985Y0039152D01*
X0022985Y0040151D02*
X0114638Y0040151D01*
X0113640Y0041149D02*
X0022985Y0041149D01*
X0023372Y0042148D02*
X0112641Y0042148D01*
X0111643Y0043146D02*
X0023372Y0043146D01*
X0023116Y0044145D02*
X0110644Y0044145D01*
X0109646Y0045143D02*
X0044665Y0045143D01*
X0045223Y0045701D02*
X0044057Y0044535D01*
X0042408Y0044535D01*
X0041242Y0045701D01*
X0041242Y0047350D01*
X0042408Y0048516D01*
X0044057Y0048516D01*
X0045223Y0047350D01*
X0045223Y0045701D01*
X0045223Y0046142D02*
X0080680Y0046142D01*
X0080909Y0045913D02*
X0082721Y0045913D01*
X0084002Y0047194D01*
X0084002Y0049006D01*
X0082721Y0050288D01*
X0080909Y0050288D01*
X0079628Y0049006D01*
X0079628Y0047194D01*
X0080909Y0045913D01*
X0079682Y0047140D02*
X0071744Y0047140D01*
X0072191Y0047588D02*
X0070910Y0046307D01*
X0069098Y0046307D01*
X0067817Y0047588D01*
X0067817Y0049400D01*
X0069098Y0050681D01*
X0070910Y0050681D01*
X0072191Y0049400D01*
X0072191Y0047588D01*
X0072191Y0048139D02*
X0079628Y0048139D01*
X0079758Y0049137D02*
X0072191Y0049137D01*
X0071456Y0050136D02*
X0080757Y0050136D01*
X0082873Y0050136D02*
X0104653Y0050136D01*
X0103655Y0051134D02*
X0050402Y0051134D01*
X0050833Y0051566D02*
X0049609Y0050342D01*
X0047879Y0050342D01*
X0046655Y0051566D01*
X0046655Y0053296D01*
X0047879Y0054520D01*
X0049609Y0054520D01*
X0050833Y0053296D01*
X0050833Y0051566D01*
X0050833Y0052133D02*
X0102656Y0052133D01*
X0101658Y0053131D02*
X0050833Y0053131D01*
X0050000Y0054130D02*
X0100659Y0054130D01*
X0099661Y0055128D02*
X0003500Y0055128D01*
X0003500Y0054130D02*
X0047489Y0054130D01*
X0046655Y0053131D02*
X0003500Y0053131D01*
X0003500Y0052133D02*
X0046655Y0052133D01*
X0047087Y0051134D02*
X0003500Y0051134D01*
X0003500Y0050136D02*
X0068552Y0050136D01*
X0067817Y0049137D02*
X0003500Y0049137D01*
X0003500Y0048139D02*
X0016046Y0048139D01*
X0016424Y0048516D02*
X0015257Y0047350D01*
X0015257Y0045701D01*
X0016424Y0044535D01*
X0018073Y0044535D01*
X0019239Y0045701D01*
X0019239Y0047350D01*
X0018073Y0048516D01*
X0016424Y0048516D01*
X0015257Y0047140D02*
X0003500Y0047140D01*
X0003500Y0046142D02*
X0015257Y0046142D01*
X0015815Y0045143D02*
X0003500Y0045143D01*
X0003500Y0044145D02*
X0019254Y0044145D01*
X0018998Y0043146D02*
X0003500Y0043146D01*
X0003500Y0042148D02*
X0018998Y0042148D01*
X0019385Y0041149D02*
X0003500Y0041149D01*
X0003500Y0040151D02*
X0019385Y0040151D01*
X0019385Y0039152D02*
X0003500Y0039152D01*
X0003500Y0038154D02*
X0019385Y0038154D01*
X0019385Y0037155D02*
X0003500Y0037155D01*
X0003500Y0036157D02*
X0019385Y0036157D01*
X0020164Y0035158D02*
X0003500Y0035158D01*
X0003500Y0034160D02*
X0021163Y0034160D01*
X0022161Y0033161D02*
X0003500Y0033161D01*
X0003500Y0032163D02*
X0023160Y0032163D01*
X0024158Y0031164D02*
X0003500Y0031164D01*
X0003500Y0030166D02*
X0103897Y0030166D01*
X0104896Y0029167D02*
X0003500Y0029167D01*
X0003500Y0028169D02*
X0105894Y0028169D01*
X0105999Y0028063D02*
X0105999Y0028063D01*
X0106893Y0027170D02*
X0097769Y0027170D01*
X0098400Y0026908D02*
X0096942Y0027513D01*
X0095363Y0027513D01*
X0093904Y0026908D01*
X0092788Y0025792D01*
X0092184Y0024333D01*
X0092184Y0022755D01*
X0092788Y0021296D01*
X0093904Y0020180D01*
X0081078Y0020180D01*
X0082194Y0021296D01*
X0082798Y0022755D01*
X0082798Y0024333D01*
X0082194Y0025792D01*
X0081078Y0026908D01*
X0079619Y0027513D01*
X0078040Y0027513D01*
X0076582Y0026908D01*
X0075465Y0025792D01*
X0074861Y0024333D01*
X0074861Y0022755D01*
X0075465Y0021296D01*
X0076582Y0020180D01*
X0078040Y0019576D01*
X0079619Y0019576D01*
X0081078Y0020180D01*
X0082077Y0021179D02*
X0092905Y0021179D01*
X0092423Y0022177D02*
X0082559Y0022177D01*
X0082798Y0023176D02*
X0092184Y0023176D01*
X0092184Y0024174D02*
X0082798Y0024174D01*
X0082450Y0025173D02*
X0092532Y0025173D01*
X0093168Y0026171D02*
X0081814Y0026171D01*
X0080446Y0027170D02*
X0094536Y0027170D01*
X0098400Y0026908D02*
X0099517Y0025792D01*
X0100121Y0024333D01*
X0100121Y0022755D01*
X0099517Y0021296D01*
X0098400Y0020180D01*
X0096942Y0019576D01*
X0095363Y0019576D01*
X0093904Y0020180D01*
X0098401Y0020180D02*
X0254931Y0020180D01*
X0255140Y0020389D02*
X0254014Y0019264D01*
X0253406Y0017794D01*
X0253406Y0016202D01*
X0254014Y0014732D01*
X0255140Y0013607D01*
X0256610Y0012998D01*
X0258201Y0012998D01*
X0259671Y0013607D01*
X0260797Y0014732D01*
X0261405Y0016202D01*
X0261405Y0017794D01*
X0260797Y0019264D01*
X0259671Y0020389D01*
X0258201Y0020998D01*
X0256610Y0020998D01*
X0255140Y0020389D01*
X0253981Y0019182D02*
X0003500Y0019182D01*
X0003500Y0020180D02*
X0021839Y0020180D01*
X0022087Y0019933D02*
X0023545Y0019329D01*
X0025124Y0019329D01*
X0026583Y0019933D01*
X0027699Y0021049D01*
X0028303Y0022508D01*
X0028303Y0024087D01*
X0027699Y0025545D01*
X0026583Y0026662D01*
X0025124Y0027266D01*
X0023545Y0027266D01*
X0022087Y0026662D01*
X0020970Y0025545D01*
X0020366Y0024087D01*
X0020366Y0022508D01*
X0020970Y0021049D01*
X0022087Y0019933D01*
X0020917Y0021179D02*
X0003500Y0021179D01*
X0003500Y0022177D02*
X0020503Y0022177D01*
X0020366Y0023176D02*
X0003500Y0023176D01*
X0003500Y0024174D02*
X0020403Y0024174D01*
X0020816Y0025173D02*
X0003500Y0025173D01*
X0003500Y0026171D02*
X0021597Y0026171D01*
X0023314Y0027170D02*
X0003500Y0027170D01*
X0003500Y0018183D02*
X0253567Y0018183D01*
X0253406Y0017185D02*
X0003500Y0017185D01*
X0003500Y0016186D02*
X0253412Y0016186D01*
X0253826Y0015188D02*
X0003500Y0015188D01*
X0003500Y0014189D02*
X0254557Y0014189D01*
X0256144Y0013191D02*
X0003500Y0013191D01*
X0003500Y0012192D02*
X0393201Y0012192D01*
X0393201Y0011194D02*
X0392487Y0011194D01*
X0393201Y0013191D02*
X0258667Y0013191D01*
X0260254Y0014189D02*
X0393201Y0014189D01*
X0393201Y0015188D02*
X0356917Y0015188D01*
X0357611Y0015475D02*
X0355507Y0014604D01*
X0353230Y0014604D01*
X0351126Y0015475D01*
X0349515Y0017085D01*
X0348644Y0019189D01*
X0348644Y0021467D01*
X0349515Y0023571D01*
X0351126Y0025181D01*
X0353230Y0026053D01*
X0355507Y0026053D01*
X0357611Y0025181D01*
X0359221Y0023571D01*
X0360093Y0021467D01*
X0360093Y0019189D01*
X0359221Y0017085D01*
X0357611Y0015475D01*
X0358322Y0016186D02*
X0393201Y0016186D01*
X0393201Y0017185D02*
X0359262Y0017185D01*
X0359676Y0018183D02*
X0393201Y0018183D01*
X0393201Y0019182D02*
X0360089Y0019182D01*
X0360093Y0020180D02*
X0393201Y0020180D01*
X0393201Y0021179D02*
X0360093Y0021179D01*
X0359798Y0022177D02*
X0393201Y0022177D01*
X0393201Y0023176D02*
X0359385Y0023176D01*
X0358617Y0024174D02*
X0393201Y0024174D01*
X0393201Y0025173D02*
X0357619Y0025173D01*
X0351118Y0025173D02*
X0099773Y0025173D01*
X0100121Y0024174D02*
X0350119Y0024174D01*
X0349352Y0023176D02*
X0100121Y0023176D01*
X0099882Y0022177D02*
X0348938Y0022177D01*
X0348644Y0021179D02*
X0099400Y0021179D01*
X0099137Y0026171D02*
X0393201Y0026171D01*
X0393201Y0027170D02*
X0305556Y0027170D01*
X0306638Y0028169D02*
X0393201Y0028169D01*
X0393201Y0029167D02*
X0307762Y0029167D01*
X0308885Y0030166D02*
X0393201Y0030166D01*
X0393201Y0031164D02*
X0310008Y0031164D01*
X0311132Y0032163D02*
X0393201Y0032163D01*
X0393201Y0033161D02*
X0312255Y0033161D01*
X0313378Y0034160D02*
X0393201Y0034160D01*
X0393201Y0035158D02*
X0314502Y0035158D01*
X0315625Y0036157D02*
X0393201Y0036157D01*
X0393201Y0037155D02*
X0316748Y0037155D01*
X0317872Y0038154D02*
X0393201Y0038154D01*
X0393201Y0039152D02*
X0318995Y0039152D01*
X0320118Y0040151D02*
X0351909Y0040151D01*
X0351126Y0040475D02*
X0353230Y0039604D01*
X0355507Y0039604D01*
X0357611Y0040475D01*
X0359221Y0042085D01*
X0360093Y0044189D01*
X0360093Y0046467D01*
X0359221Y0048571D01*
X0357611Y0050181D01*
X0355507Y0051053D01*
X0353230Y0051053D01*
X0351126Y0050181D01*
X0349515Y0048571D01*
X0348644Y0046467D01*
X0348644Y0044189D01*
X0349515Y0042085D01*
X0351126Y0040475D01*
X0350452Y0041149D02*
X0321242Y0041149D01*
X0322365Y0042148D02*
X0349490Y0042148D01*
X0349076Y0043146D02*
X0323488Y0043146D01*
X0324612Y0044145D02*
X0348662Y0044145D01*
X0348644Y0045143D02*
X0325735Y0045143D01*
X0326858Y0046142D02*
X0348644Y0046142D01*
X0348923Y0047140D02*
X0327982Y0047140D01*
X0329105Y0048139D02*
X0349336Y0048139D01*
X0350082Y0049137D02*
X0330228Y0049137D01*
X0331352Y0050136D02*
X0351080Y0050136D01*
X0357656Y0050136D02*
X0393201Y0050136D01*
X0393201Y0051134D02*
X0332475Y0051134D01*
X0333598Y0052133D02*
X0393201Y0052133D01*
X0393201Y0053131D02*
X0334721Y0053131D01*
X0335845Y0054130D02*
X0393201Y0054130D01*
X0393201Y0055128D02*
X0336968Y0055128D01*
X0338091Y0056127D02*
X0393201Y0056127D01*
X0393201Y0057125D02*
X0339215Y0057125D01*
X0340338Y0058124D02*
X0393201Y0058124D01*
X0393201Y0059122D02*
X0369005Y0059122D01*
X0370003Y0060121D02*
X0393201Y0060121D01*
X0393201Y0061119D02*
X0371002Y0061119D01*
X0372000Y0062118D02*
X0393201Y0062118D01*
X0393201Y0063116D02*
X0372999Y0063116D01*
X0373997Y0064115D02*
X0393201Y0064115D01*
X0393201Y0065113D02*
X0374996Y0065113D01*
X0375994Y0066112D02*
X0393201Y0066112D01*
X0393201Y0067110D02*
X0376993Y0067110D01*
X0377991Y0068109D02*
X0393201Y0068109D01*
X0393201Y0069107D02*
X0378990Y0069107D01*
X0379988Y0070106D02*
X0393201Y0070106D01*
X0393201Y0071105D02*
X0380987Y0071105D01*
X0381253Y0072103D02*
X0393201Y0072103D01*
X0393201Y0073102D02*
X0381253Y0073102D01*
X0381253Y0074100D02*
X0389924Y0074100D01*
X0388935Y0075099D02*
X0381253Y0075099D01*
X0381253Y0076097D02*
X0388935Y0076097D01*
X0389013Y0077096D02*
X0381253Y0077096D01*
X0381253Y0078094D02*
X0390011Y0078094D01*
X0392516Y0078094D02*
X0393201Y0078094D01*
X0393201Y0079093D02*
X0381253Y0079093D01*
X0381253Y0080091D02*
X0393201Y0080091D01*
X0393201Y0081090D02*
X0381253Y0081090D01*
X0381253Y0082088D02*
X0393201Y0082088D01*
X0393201Y0083087D02*
X0381253Y0083087D01*
X0381253Y0084085D02*
X0393201Y0084085D01*
X0393201Y0085084D02*
X0381253Y0085084D01*
X0381253Y0086082D02*
X0393201Y0086082D01*
X0393201Y0087081D02*
X0381253Y0087081D01*
X0381253Y0088079D02*
X0393201Y0088079D01*
X0393201Y0089078D02*
X0381253Y0089078D01*
X0381253Y0090076D02*
X0393201Y0090076D01*
X0393201Y0091075D02*
X0381253Y0091075D01*
X0381253Y0092073D02*
X0393201Y0092073D01*
X0393201Y0093072D02*
X0381253Y0093072D01*
X0381253Y0094070D02*
X0393201Y0094070D01*
X0393201Y0095069D02*
X0381253Y0095069D01*
X0381253Y0096067D02*
X0393201Y0096067D01*
X0393201Y0097066D02*
X0381253Y0097066D01*
X0381253Y0098064D02*
X0393201Y0098064D01*
X0393201Y0099063D02*
X0381253Y0099063D01*
X0381253Y0100061D02*
X0393201Y0100061D01*
X0393201Y0101060D02*
X0381253Y0101060D01*
X0381253Y0102058D02*
X0393201Y0102058D01*
X0393201Y0103057D02*
X0381253Y0103057D01*
X0381253Y0104055D02*
X0393201Y0104055D01*
X0393201Y0105054D02*
X0381253Y0105054D01*
X0381253Y0106052D02*
X0393201Y0106052D01*
X0393201Y0107051D02*
X0381253Y0107051D01*
X0381253Y0108049D02*
X0393201Y0108049D01*
X0393201Y0109048D02*
X0381253Y0109048D01*
X0381253Y0110046D02*
X0393201Y0110046D01*
X0393201Y0111045D02*
X0381253Y0111045D01*
X0381253Y0112043D02*
X0393201Y0112043D01*
X0393201Y0113042D02*
X0381253Y0113042D01*
X0381253Y0114040D02*
X0393201Y0114040D01*
X0393201Y0115039D02*
X0381253Y0115039D01*
X0381253Y0116038D02*
X0393201Y0116038D01*
X0393201Y0117036D02*
X0381253Y0117036D01*
X0381253Y0118035D02*
X0393201Y0118035D01*
X0393201Y0119033D02*
X0381253Y0119033D01*
X0381253Y0120032D02*
X0393201Y0120032D01*
X0393201Y0121030D02*
X0381253Y0121030D01*
X0381253Y0122029D02*
X0393201Y0122029D01*
X0393201Y0123027D02*
X0381253Y0123027D01*
X0381253Y0124026D02*
X0393201Y0124026D01*
X0393201Y0125024D02*
X0381253Y0125024D01*
X0381253Y0126023D02*
X0393201Y0126023D01*
X0393201Y0127021D02*
X0381253Y0127021D01*
X0381253Y0128020D02*
X0393201Y0128020D01*
X0393201Y0129018D02*
X0381253Y0129018D01*
X0381253Y0130017D02*
X0393201Y0130017D01*
X0393201Y0131015D02*
X0381253Y0131015D01*
X0381253Y0132014D02*
X0393201Y0132014D01*
X0393201Y0133012D02*
X0381253Y0133012D01*
X0381253Y0134011D02*
X0393201Y0134011D01*
X0393201Y0135009D02*
X0381253Y0135009D01*
X0381253Y0136008D02*
X0393201Y0136008D01*
X0393201Y0137006D02*
X0381253Y0137006D01*
X0381253Y0138005D02*
X0393201Y0138005D01*
X0393201Y0139003D02*
X0381253Y0139003D01*
X0381253Y0140002D02*
X0393201Y0140002D01*
X0393201Y0141000D02*
X0392575Y0141000D01*
X0389952Y0141000D02*
X0381253Y0141000D01*
X0381253Y0141999D02*
X0388954Y0141999D01*
X0388935Y0142997D02*
X0381253Y0142997D01*
X0381253Y0143996D02*
X0388984Y0143996D01*
X0389983Y0144994D02*
X0381253Y0144994D01*
X0381253Y0145993D02*
X0393201Y0145993D01*
X0393201Y0146991D02*
X0381253Y0146991D01*
X0380928Y0147990D02*
X0393201Y0147990D01*
X0393201Y0148988D02*
X0379929Y0148988D01*
X0378931Y0149987D02*
X0393201Y0149987D01*
X0393201Y0150985D02*
X0377932Y0150985D01*
X0376934Y0151984D02*
X0393201Y0151984D01*
X0393201Y0152982D02*
X0375935Y0152982D01*
X0374937Y0153981D02*
X0393201Y0153981D01*
X0393201Y0154979D02*
X0373938Y0154979D01*
X0372940Y0155978D02*
X0393201Y0155978D01*
X0393201Y0156976D02*
X0371941Y0156976D01*
X0370943Y0157975D02*
X0393201Y0157975D01*
X0393201Y0158973D02*
X0369944Y0158973D01*
X0368946Y0159972D02*
X0393201Y0159972D01*
X0393201Y0160971D02*
X0367947Y0160971D01*
X0366949Y0161969D02*
X0393201Y0161969D01*
X0393201Y0162968D02*
X0365950Y0162968D01*
X0364952Y0163966D02*
X0393201Y0163966D01*
X0393201Y0164965D02*
X0340331Y0164965D01*
X0339332Y0165963D02*
X0347625Y0165963D01*
X0348105Y0165764D02*
X0351564Y0165764D01*
X0354759Y0167088D01*
X0357204Y0169533D01*
X0358527Y0172728D01*
X0358527Y0176186D01*
X0357204Y0179381D01*
X0354759Y0181827D01*
X0351564Y0183150D01*
X0348105Y0183150D01*
X0344910Y0181827D01*
X0342465Y0179381D01*
X0341142Y0176186D01*
X0341142Y0172728D01*
X0342465Y0169533D01*
X0344910Y0167088D01*
X0348105Y0165764D01*
X0345214Y0166962D02*
X0338334Y0166962D01*
X0337335Y0167960D02*
X0344038Y0167960D01*
X0343039Y0168959D02*
X0336337Y0168959D01*
X0335338Y0169957D02*
X0342289Y0169957D01*
X0341876Y0170956D02*
X0334340Y0170956D01*
X0334009Y0171954D02*
X0341462Y0171954D01*
X0341142Y0172953D02*
X0334009Y0172953D01*
X0334009Y0173951D02*
X0341142Y0173951D01*
X0341142Y0174950D02*
X0334009Y0174950D01*
X0334009Y0175948D02*
X0341142Y0175948D01*
X0341457Y0176947D02*
X0334009Y0176947D01*
X0334009Y0177945D02*
X0341870Y0177945D01*
X0342284Y0178944D02*
X0334009Y0178944D01*
X0334009Y0179942D02*
X0343026Y0179942D01*
X0344025Y0180941D02*
X0334009Y0180941D01*
X0333593Y0181939D02*
X0345183Y0181939D01*
X0347593Y0182938D02*
X0332594Y0182938D01*
X0331596Y0183936D02*
X0389554Y0183936D01*
X0388935Y0182938D02*
X0352076Y0182938D01*
X0354486Y0181939D02*
X0388935Y0181939D01*
X0389382Y0180941D02*
X0355644Y0180941D01*
X0356643Y0179942D02*
X0393201Y0179942D01*
X0393201Y0178944D02*
X0357385Y0178944D01*
X0357799Y0177945D02*
X0393201Y0177945D01*
X0393201Y0176947D02*
X0358212Y0176947D01*
X0358527Y0175948D02*
X0393201Y0175948D01*
X0393201Y0174950D02*
X0358527Y0174950D01*
X0358527Y0173951D02*
X0393201Y0173951D01*
X0393201Y0172953D02*
X0358527Y0172953D01*
X0358207Y0171954D02*
X0393201Y0171954D01*
X0393201Y0170956D02*
X0357793Y0170956D01*
X0357380Y0169957D02*
X0393201Y0169957D01*
X0393201Y0168959D02*
X0356630Y0168959D01*
X0355631Y0167960D02*
X0393201Y0167960D01*
X0393201Y0166962D02*
X0354455Y0166962D01*
X0352044Y0165963D02*
X0393201Y0165963D01*
X0393145Y0180941D02*
X0393201Y0180941D01*
X0393201Y0183936D02*
X0392973Y0183936D01*
X0393201Y0184935D02*
X0330597Y0184935D01*
X0329598Y0185933D02*
X0393201Y0185933D01*
X0393201Y0186932D02*
X0328600Y0186932D01*
X0327601Y0187930D02*
X0393201Y0187930D01*
X0393201Y0188929D02*
X0326603Y0188929D01*
X0325604Y0189927D02*
X0393201Y0189927D01*
X0393201Y0190926D02*
X0324606Y0190926D01*
X0323607Y0191924D02*
X0393201Y0191924D01*
X0393201Y0192923D02*
X0322609Y0192923D01*
X0321610Y0193921D02*
X0393201Y0193921D01*
X0393201Y0194920D02*
X0320612Y0194920D01*
X0319613Y0195918D02*
X0393201Y0195918D01*
X0393201Y0196917D02*
X0318615Y0196917D01*
X0317616Y0197915D02*
X0393201Y0197915D01*
X0393201Y0198914D02*
X0316618Y0198914D01*
X0315619Y0199912D02*
X0393201Y0199912D01*
X0393201Y0200911D02*
X0314621Y0200911D01*
X0313622Y0201909D02*
X0393201Y0201909D01*
X0393201Y0202908D02*
X0361579Y0202908D01*
X0362403Y0203249D02*
X0364654Y0205501D01*
X0365873Y0208442D01*
X0365873Y0211626D01*
X0364654Y0214568D01*
X0362403Y0216820D01*
X0359461Y0218038D01*
X0356277Y0218038D01*
X0353335Y0216820D01*
X0351083Y0214568D01*
X0349865Y0211626D01*
X0349865Y0208442D01*
X0351083Y0205501D01*
X0353335Y0203249D01*
X0356277Y0202030D01*
X0359461Y0202030D01*
X0362403Y0203249D01*
X0363060Y0203907D02*
X0393201Y0203907D01*
X0393201Y0204905D02*
X0364059Y0204905D01*
X0364821Y0205904D02*
X0393201Y0205904D01*
X0393201Y0206902D02*
X0365235Y0206902D01*
X0365648Y0207901D02*
X0393201Y0207901D01*
X0393201Y0208899D02*
X0365873Y0208899D01*
X0365873Y0209898D02*
X0393201Y0209898D01*
X0393201Y0210896D02*
X0365873Y0210896D01*
X0365762Y0211895D02*
X0393201Y0211895D01*
X0393201Y0212893D02*
X0365348Y0212893D01*
X0364934Y0213892D02*
X0393201Y0213892D01*
X0393201Y0214890D02*
X0364332Y0214890D01*
X0363334Y0215889D02*
X0393201Y0215889D01*
X0393201Y0216887D02*
X0362240Y0216887D01*
X0359829Y0217886D02*
X0393201Y0217886D01*
X0393201Y0218884D02*
X0296648Y0218884D01*
X0297646Y0217886D02*
X0355908Y0217886D01*
X0353497Y0216887D02*
X0298645Y0216887D01*
X0299643Y0215889D02*
X0352404Y0215889D01*
X0351405Y0214890D02*
X0300642Y0214890D01*
X0301640Y0213892D02*
X0350803Y0213892D01*
X0350389Y0212893D02*
X0302639Y0212893D01*
X0303637Y0211895D02*
X0349976Y0211895D01*
X0349865Y0210896D02*
X0304636Y0210896D01*
X0305634Y0209898D02*
X0349865Y0209898D01*
X0349865Y0208899D02*
X0306633Y0208899D01*
X0307631Y0207901D02*
X0350089Y0207901D01*
X0350503Y0206902D02*
X0308630Y0206902D01*
X0309628Y0205904D02*
X0350916Y0205904D01*
X0351679Y0204905D02*
X0310627Y0204905D01*
X0311625Y0203907D02*
X0352677Y0203907D01*
X0354158Y0202908D02*
X0312624Y0202908D01*
X0310528Y0199912D02*
X0246408Y0199912D01*
X0247406Y0198914D02*
X0311527Y0198914D01*
X0312525Y0197915D02*
X0292783Y0197915D01*
X0292913Y0197785D02*
X0292035Y0198663D01*
X0247657Y0198663D01*
X0242336Y0203984D01*
X0242482Y0203984D01*
X0243648Y0205150D01*
X0243648Y0206799D01*
X0242482Y0207965D01*
X0240833Y0207965D01*
X0239667Y0206799D01*
X0239667Y0206653D01*
X0237568Y0208752D01*
X0237568Y0208752D01*
X0236689Y0209631D01*
X0216806Y0209631D01*
X0202489Y0223948D01*
X0203615Y0225075D01*
X0203615Y0226887D01*
X0202334Y0228168D01*
X0200522Y0228168D01*
X0199395Y0227042D01*
X0181543Y0244894D01*
X0182723Y0246074D01*
X0182723Y0247035D01*
X0182918Y0246840D01*
X0184649Y0246840D01*
X0185872Y0248063D01*
X0185872Y0249794D01*
X0184649Y0251018D01*
X0182918Y0251018D01*
X0181694Y0249794D01*
X0181694Y0248833D01*
X0181499Y0249029D01*
X0179769Y0249029D01*
X0178588Y0247848D01*
X0173232Y0253205D01*
X0173232Y0255900D01*
X0182436Y0265104D01*
X0183315Y0265983D01*
X0183315Y0267073D01*
X0186858Y0263530D01*
X0221351Y0263530D01*
X0226838Y0258043D01*
X0225832Y0258043D01*
X0224608Y0256819D01*
X0224608Y0255089D01*
X0225217Y0254479D01*
X0223510Y0254479D01*
X0222287Y0253255D01*
X0222287Y0252423D01*
X0220527Y0250663D01*
X0220023Y0250663D01*
X0220518Y0251158D01*
X0220518Y0252889D01*
X0219294Y0254112D01*
X0217564Y0254112D01*
X0216340Y0252889D01*
X0216340Y0251158D01*
X0217564Y0249934D01*
X0217634Y0249934D01*
X0214544Y0246844D01*
X0211616Y0246844D01*
X0211027Y0247433D01*
X0209296Y0247433D01*
X0208072Y0246210D01*
X0208072Y0244479D01*
X0209296Y0243256D01*
X0211027Y0243256D01*
X0211616Y0243844D01*
X0214544Y0243844D01*
X0215787Y0243844D01*
X0219605Y0247663D01*
X0221770Y0247663D01*
X0222648Y0248542D01*
X0224408Y0250301D01*
X0225241Y0250301D01*
X0226465Y0251525D01*
X0226465Y0253255D01*
X0225855Y0253865D01*
X0227562Y0253865D01*
X0228786Y0255089D01*
X0228786Y0256095D01*
X0242445Y0242436D01*
X0241620Y0242436D01*
X0240454Y0241270D01*
X0240454Y0239621D01*
X0241045Y0239030D01*
X0241045Y0231379D01*
X0241865Y0230559D01*
X0248164Y0224259D01*
X0263270Y0224259D01*
X0262554Y0223543D01*
X0262065Y0222362D01*
X0262065Y0221083D01*
X0262554Y0219902D01*
X0263459Y0218997D01*
X0264640Y0218508D01*
X0265919Y0218508D01*
X0267029Y0218968D01*
X0267029Y0216603D01*
X0265919Y0217063D01*
X0264640Y0217063D01*
X0263459Y0216574D01*
X0262554Y0215669D01*
X0262380Y0215248D01*
X0242631Y0215248D01*
X0241844Y0216036D01*
X0235986Y0216036D01*
X0235395Y0216626D01*
X0233746Y0216626D01*
X0232580Y0215460D01*
X0232580Y0213811D01*
X0233746Y0212645D01*
X0235395Y0212645D01*
X0235986Y0213236D01*
X0240684Y0213236D01*
X0241471Y0212448D01*
X0262380Y0212448D01*
X0262554Y0212028D01*
X0263459Y0211123D01*
X0264640Y0210634D01*
X0265919Y0210634D01*
X0267029Y0211094D01*
X0267029Y0208917D01*
X0266897Y0208784D01*
X0265919Y0209189D01*
X0264640Y0209189D01*
X0263459Y0208700D01*
X0262554Y0207795D01*
X0262065Y0206614D01*
X0262065Y0205335D01*
X0262554Y0204153D01*
X0263459Y0203249D01*
X0264640Y0202760D01*
X0265919Y0202760D01*
X0267100Y0203249D01*
X0268005Y0204153D01*
X0268494Y0205335D01*
X0268494Y0206422D01*
X0269009Y0206937D01*
X0269829Y0207757D01*
X0269829Y0225058D01*
X0268648Y0226239D01*
X0267828Y0227059D01*
X0249324Y0227059D01*
X0244841Y0231543D01*
X0246419Y0231543D01*
X0247585Y0232709D01*
X0247585Y0234358D01*
X0247094Y0234849D01*
X0247094Y0242029D01*
X0223472Y0265651D01*
X0222594Y0266530D01*
X0188101Y0266530D01*
X0178667Y0275963D01*
X0178667Y0283859D01*
X0176093Y0286433D01*
X0170084Y0286433D01*
X0166407Y0282757D01*
X0166407Y0278515D01*
X0166233Y0278341D01*
X0155665Y0278341D01*
X0153097Y0280908D01*
X0153097Y0281602D01*
X0151931Y0282768D01*
X0150282Y0282768D01*
X0149116Y0281602D01*
X0149116Y0279953D01*
X0150282Y0278787D01*
X0150976Y0278787D01*
X0154422Y0275341D01*
X0167476Y0275341D01*
X0168528Y0276393D01*
X0168610Y0276475D01*
X0168610Y0271560D01*
X0165968Y0268918D01*
X0165151Y0268101D01*
X0165151Y0263667D01*
X0163010Y0263667D01*
X0160338Y0266339D01*
X0157623Y0266339D01*
X0157202Y0265919D01*
X0157202Y0270353D01*
X0156386Y0271170D01*
X0146404Y0281152D01*
X0146404Y0281996D01*
X0145238Y0283162D01*
X0143589Y0283162D01*
X0142423Y0281996D01*
X0142423Y0280347D01*
X0143589Y0279181D01*
X0144433Y0279181D01*
X0154415Y0269199D01*
X0154415Y0259895D01*
X0197631Y0216679D01*
X0197631Y0214147D01*
X0198448Y0213331D01*
X0199014Y0212765D01*
X0199014Y0212765D01*
X0199830Y0211948D01*
X0201035Y0211948D01*
X0201084Y0211899D01*
X0201084Y0211055D01*
X0202250Y0209889D01*
X0203899Y0209889D01*
X0205065Y0211055D01*
X0205065Y0212704D01*
X0203899Y0213870D01*
X0203055Y0213870D01*
X0203006Y0213919D01*
X0203006Y0213919D01*
X0202712Y0214214D01*
X0203097Y0214599D01*
X0203097Y0216248D01*
X0202500Y0216845D01*
X0202500Y0217573D01*
X0158490Y0261583D01*
X0158490Y0263264D01*
X0158777Y0263552D01*
X0159184Y0263552D01*
X0161855Y0260880D01*
X0166929Y0260880D01*
X0166929Y0253144D01*
X0214942Y0205131D01*
X0234825Y0205131D01*
X0244914Y0195042D01*
X0245793Y0194163D01*
X0289872Y0194163D01*
X0289872Y0194163D01*
X0333342Y0150693D01*
X0351472Y0150693D01*
X0353787Y0148378D01*
X0353787Y0137143D01*
X0356188Y0134742D01*
X0355882Y0134003D01*
X0355882Y0132431D01*
X0356484Y0130978D01*
X0357595Y0129866D01*
X0359048Y0129264D01*
X0360621Y0129264D01*
X0362074Y0129866D01*
X0363185Y0130978D01*
X0363787Y0132431D01*
X0363787Y0134003D01*
X0363185Y0135456D01*
X0362074Y0136568D01*
X0360621Y0137170D01*
X0359048Y0137170D01*
X0358309Y0136863D01*
X0356787Y0138385D01*
X0356787Y0139690D01*
X0357595Y0138882D01*
X0359048Y0138280D01*
X0360621Y0138280D01*
X0362074Y0138882D01*
X0363185Y0139994D01*
X0363787Y0141446D01*
X0363787Y0143019D01*
X0363185Y0144472D01*
X0362074Y0145584D01*
X0360621Y0146185D01*
X0359048Y0146185D01*
X0358309Y0145879D01*
X0358287Y0145901D01*
X0358287Y0150242D01*
X0357409Y0151120D01*
X0357409Y0151120D01*
X0354214Y0154315D01*
X0353336Y0155193D01*
X0335505Y0155193D01*
X0292913Y0197785D01*
X0293781Y0196917D02*
X0313524Y0196917D01*
X0314522Y0195918D02*
X0294780Y0195918D01*
X0295778Y0194920D02*
X0315521Y0194920D01*
X0316519Y0193921D02*
X0296777Y0193921D01*
X0297775Y0192923D02*
X0317518Y0192923D01*
X0318516Y0191924D02*
X0298774Y0191924D01*
X0299772Y0190926D02*
X0319515Y0190926D01*
X0320513Y0189927D02*
X0300771Y0189927D01*
X0301769Y0188929D02*
X0321512Y0188929D01*
X0322510Y0187930D02*
X0302768Y0187930D01*
X0303766Y0186932D02*
X0323509Y0186932D01*
X0324507Y0185933D02*
X0304765Y0185933D01*
X0305763Y0184935D02*
X0325506Y0184935D01*
X0326504Y0183936D02*
X0306762Y0183936D01*
X0307760Y0182938D02*
X0327503Y0182938D01*
X0328501Y0181939D02*
X0308759Y0181939D01*
X0309757Y0180941D02*
X0329500Y0180941D01*
X0330409Y0179942D02*
X0310756Y0179942D01*
X0311754Y0178944D02*
X0330409Y0178944D01*
X0330409Y0177945D02*
X0312753Y0177945D01*
X0313751Y0176947D02*
X0330409Y0176947D01*
X0330409Y0175948D02*
X0314750Y0175948D01*
X0315748Y0174950D02*
X0330409Y0174950D01*
X0330409Y0173951D02*
X0316747Y0173951D01*
X0317745Y0172953D02*
X0330409Y0172953D01*
X0330409Y0171954D02*
X0318744Y0171954D01*
X0319742Y0170956D02*
X0330409Y0170956D01*
X0330409Y0169957D02*
X0320741Y0169957D01*
X0321739Y0168959D02*
X0331246Y0168959D01*
X0332244Y0167960D02*
X0322738Y0167960D01*
X0323736Y0166962D02*
X0333243Y0166962D01*
X0334241Y0165963D02*
X0324735Y0165963D01*
X0325734Y0164965D02*
X0335240Y0164965D01*
X0336238Y0163966D02*
X0326732Y0163966D01*
X0327731Y0162968D02*
X0337237Y0162968D01*
X0338235Y0161969D02*
X0328729Y0161969D01*
X0329728Y0160971D02*
X0339234Y0160971D01*
X0334720Y0155978D02*
X0367848Y0155978D01*
X0366850Y0156976D02*
X0333722Y0156976D01*
X0332723Y0157975D02*
X0365851Y0157975D01*
X0364853Y0158973D02*
X0331725Y0158973D01*
X0330726Y0159972D02*
X0363854Y0159972D01*
X0368847Y0154979D02*
X0353550Y0154979D01*
X0354214Y0154315D02*
X0354214Y0154315D01*
X0354548Y0153981D02*
X0369846Y0153981D01*
X0370844Y0152982D02*
X0355547Y0152982D01*
X0356545Y0151984D02*
X0371843Y0151984D01*
X0372841Y0150985D02*
X0357544Y0150985D01*
X0358287Y0149987D02*
X0373840Y0149987D01*
X0374838Y0148988D02*
X0358287Y0148988D01*
X0358287Y0147990D02*
X0375837Y0147990D01*
X0376835Y0146991D02*
X0358287Y0146991D01*
X0358287Y0145993D02*
X0358584Y0145993D01*
X0356787Y0145280D02*
X0356787Y0149620D01*
X0352715Y0153693D01*
X0334585Y0153693D01*
X0291115Y0197163D01*
X0288630Y0197163D01*
X0247035Y0197163D01*
X0236068Y0208131D01*
X0216184Y0208131D01*
X0171732Y0252584D01*
X0171732Y0256521D01*
X0181815Y0266604D01*
X0181815Y0268573D01*
X0171185Y0279203D01*
X0171185Y0280778D01*
X0167907Y0282135D02*
X0167907Y0277893D01*
X0166854Y0276841D01*
X0155043Y0276841D01*
X0151106Y0280778D01*
X0149116Y0280792D02*
X0146764Y0280792D01*
X0146404Y0281790D02*
X0149304Y0281790D01*
X0149275Y0279793D02*
X0147762Y0279793D01*
X0148761Y0278795D02*
X0150274Y0278795D01*
X0149759Y0277796D02*
X0151966Y0277796D01*
X0152965Y0276798D02*
X0150758Y0276798D01*
X0151756Y0275799D02*
X0153963Y0275799D01*
X0152755Y0274801D02*
X0168610Y0274801D01*
X0168610Y0275799D02*
X0167934Y0275799D01*
X0168610Y0273802D02*
X0153753Y0273802D01*
X0154752Y0272804D02*
X0168610Y0272804D01*
X0168610Y0271805D02*
X0155750Y0271805D01*
X0156386Y0271170D02*
X0156386Y0271170D01*
X0156749Y0270807D02*
X0167857Y0270807D01*
X0166858Y0269808D02*
X0157202Y0269808D01*
X0157202Y0268810D02*
X0165860Y0268810D01*
X0165151Y0267811D02*
X0157202Y0267811D01*
X0157202Y0266813D02*
X0165151Y0266813D01*
X0165151Y0265814D02*
X0160863Y0265814D01*
X0161861Y0264816D02*
X0165151Y0264816D01*
X0165151Y0263817D02*
X0162860Y0263817D01*
X0160915Y0261820D02*
X0158490Y0261820D01*
X0158490Y0262819D02*
X0159916Y0262819D01*
X0159251Y0260822D02*
X0166929Y0260822D01*
X0166929Y0259823D02*
X0160250Y0259823D01*
X0161248Y0258825D02*
X0166929Y0258825D01*
X0166929Y0257826D02*
X0162247Y0257826D01*
X0163245Y0256828D02*
X0166929Y0256828D01*
X0166929Y0255829D02*
X0164244Y0255829D01*
X0165242Y0254831D02*
X0166929Y0254831D01*
X0166929Y0253832D02*
X0166241Y0253832D01*
X0167239Y0252834D02*
X0167239Y0252834D01*
X0168238Y0251835D02*
X0168238Y0251835D01*
X0169236Y0250837D02*
X0169236Y0250837D01*
X0170235Y0249838D02*
X0170235Y0249838D01*
X0171233Y0248840D02*
X0171233Y0248840D01*
X0172232Y0247841D02*
X0172232Y0247841D01*
X0173230Y0246842D02*
X0173230Y0246842D01*
X0174229Y0245844D02*
X0174229Y0245844D01*
X0175227Y0244845D02*
X0175227Y0244845D01*
X0176226Y0243847D02*
X0176226Y0243847D01*
X0177224Y0242848D02*
X0177224Y0242848D01*
X0178223Y0241850D02*
X0178223Y0241850D01*
X0179221Y0240851D02*
X0179221Y0240851D01*
X0180220Y0239853D02*
X0180220Y0239853D01*
X0181218Y0238854D02*
X0181218Y0238854D01*
X0182217Y0237856D02*
X0182217Y0237856D01*
X0183215Y0236857D02*
X0183215Y0236857D01*
X0184214Y0235859D02*
X0184214Y0235859D01*
X0185212Y0234860D02*
X0185212Y0234860D01*
X0186211Y0233862D02*
X0186211Y0233862D01*
X0187209Y0232863D02*
X0187209Y0232863D01*
X0188208Y0231865D02*
X0188208Y0231865D01*
X0189206Y0230866D02*
X0189207Y0230866D01*
X0190205Y0229868D02*
X0190205Y0229868D01*
X0191204Y0228869D02*
X0191204Y0228869D01*
X0192202Y0227871D02*
X0192202Y0227871D01*
X0193201Y0226872D02*
X0193201Y0226872D01*
X0194199Y0225874D02*
X0194199Y0225874D01*
X0195198Y0224875D02*
X0195198Y0224875D01*
X0196196Y0223877D02*
X0196196Y0223877D01*
X0197195Y0222878D02*
X0197195Y0222878D01*
X0198193Y0221880D02*
X0198193Y0221880D01*
X0199192Y0220881D02*
X0199192Y0220881D01*
X0200190Y0219883D02*
X0200190Y0219883D01*
X0201189Y0218884D02*
X0201189Y0218884D01*
X0202187Y0217886D02*
X0202187Y0217886D01*
X0202500Y0216887D02*
X0203186Y0216887D01*
X0203097Y0215889D02*
X0204184Y0215889D01*
X0205183Y0214890D02*
X0203097Y0214890D01*
X0203034Y0213892D02*
X0206181Y0213892D01*
X0207180Y0212893D02*
X0204877Y0212893D01*
X0205065Y0211895D02*
X0208178Y0211895D01*
X0209177Y0210896D02*
X0204906Y0210896D01*
X0203908Y0209898D02*
X0210175Y0209898D01*
X0211174Y0208899D02*
X0181419Y0208899D01*
X0182417Y0207901D02*
X0197461Y0207901D01*
X0199239Y0207901D02*
X0212172Y0207901D01*
X0213171Y0206902D02*
X0200238Y0206902D01*
X0200341Y0205904D02*
X0214169Y0205904D01*
X0215563Y0206631D02*
X0168429Y0253765D01*
X0168429Y0264242D01*
X0175158Y0257826D02*
X0206985Y0257826D01*
X0207228Y0257583D02*
X0209158Y0257583D01*
X0210522Y0258947D01*
X0210522Y0260876D01*
X0209158Y0262240D01*
X0207228Y0262240D01*
X0205864Y0260876D01*
X0205864Y0258947D01*
X0207228Y0257583D01*
X0205986Y0258825D02*
X0176157Y0258825D01*
X0177155Y0259823D02*
X0205864Y0259823D01*
X0205864Y0260822D02*
X0178154Y0260822D01*
X0179152Y0261820D02*
X0206808Y0261820D01*
X0209577Y0261820D02*
X0223060Y0261820D01*
X0222062Y0262819D02*
X0180151Y0262819D01*
X0181149Y0263817D02*
X0186571Y0263817D01*
X0185572Y0264816D02*
X0182148Y0264816D01*
X0183146Y0265814D02*
X0184574Y0265814D01*
X0183575Y0266813D02*
X0183315Y0266813D01*
X0185821Y0268810D02*
X0256657Y0268810D01*
X0256104Y0268257D02*
X0256104Y0266526D01*
X0257328Y0265303D01*
X0259058Y0265303D01*
X0260282Y0266526D01*
X0260282Y0268257D01*
X0259058Y0269481D01*
X0257328Y0269481D01*
X0256104Y0268257D01*
X0256104Y0267811D02*
X0186819Y0267811D01*
X0187818Y0266813D02*
X0256104Y0266813D01*
X0256816Y0265814D02*
X0223309Y0265814D01*
X0224308Y0264816D02*
X0359507Y0264816D01*
X0359507Y0265506D02*
X0359507Y0263933D01*
X0360108Y0262480D01*
X0361220Y0261368D01*
X0362673Y0260767D01*
X0364246Y0260767D01*
X0365698Y0261368D01*
X0366810Y0262480D01*
X0367412Y0263933D01*
X0367412Y0265506D01*
X0366810Y0266959D01*
X0365698Y0268070D01*
X0364246Y0268672D01*
X0362673Y0268672D01*
X0361220Y0268070D01*
X0360108Y0266959D01*
X0359507Y0265506D01*
X0359634Y0265814D02*
X0259570Y0265814D01*
X0260282Y0266813D02*
X0350028Y0266813D01*
X0350039Y0266802D02*
X0351492Y0266200D01*
X0353064Y0266200D01*
X0354517Y0266802D01*
X0355629Y0267913D01*
X0356231Y0269366D01*
X0356231Y0270939D01*
X0355629Y0272392D01*
X0354517Y0273503D01*
X0353064Y0274105D01*
X0351492Y0274105D01*
X0350039Y0273503D01*
X0348927Y0272392D01*
X0348325Y0270939D01*
X0348325Y0269366D01*
X0348927Y0267913D01*
X0350039Y0266802D01*
X0349029Y0267811D02*
X0260282Y0267811D01*
X0259729Y0268810D02*
X0348556Y0268810D01*
X0348325Y0269808D02*
X0184822Y0269808D01*
X0183824Y0270807D02*
X0348325Y0270807D01*
X0348684Y0271805D02*
X0278807Y0271805D01*
X0279081Y0272079D02*
X0277915Y0270913D01*
X0276266Y0270913D01*
X0275100Y0272079D01*
X0275100Y0273728D01*
X0276266Y0274894D01*
X0277915Y0274894D01*
X0279081Y0273728D01*
X0279081Y0272079D01*
X0279081Y0272804D02*
X0349339Y0272804D01*
X0350761Y0273802D02*
X0279007Y0273802D01*
X0278008Y0274801D02*
X0359522Y0274801D01*
X0359507Y0274839D02*
X0360108Y0273386D01*
X0361220Y0272274D01*
X0362673Y0271672D01*
X0364246Y0271672D01*
X0365698Y0272274D01*
X0366810Y0273386D01*
X0367412Y0274839D01*
X0367412Y0276411D01*
X0366810Y0277864D01*
X0365698Y0278976D01*
X0364246Y0279578D01*
X0362673Y0279578D01*
X0361220Y0278976D01*
X0360108Y0277864D01*
X0359507Y0276411D01*
X0359507Y0274839D01*
X0359507Y0275799D02*
X0178831Y0275799D01*
X0178667Y0276798D02*
X0359667Y0276798D01*
X0360080Y0277796D02*
X0354607Y0277796D01*
X0354517Y0277707D02*
X0355629Y0278819D01*
X0356231Y0280272D01*
X0356231Y0281844D01*
X0355629Y0283297D01*
X0354517Y0284409D01*
X0353064Y0285011D01*
X0351492Y0285011D01*
X0350039Y0284409D01*
X0348927Y0283297D01*
X0348325Y0281844D01*
X0348325Y0280272D01*
X0348927Y0278819D01*
X0350039Y0277707D01*
X0351492Y0277105D01*
X0353064Y0277105D01*
X0354517Y0277707D01*
X0355605Y0278795D02*
X0361039Y0278795D01*
X0365879Y0278795D02*
X0393201Y0278795D01*
X0393201Y0279793D02*
X0356033Y0279793D01*
X0356231Y0280792D02*
X0393201Y0280792D01*
X0393201Y0281790D02*
X0356231Y0281790D01*
X0355840Y0282789D02*
X0393201Y0282789D01*
X0393201Y0283787D02*
X0355139Y0283787D01*
X0353607Y0284786D02*
X0393201Y0284786D01*
X0393201Y0285784D02*
X0338235Y0285784D01*
X0338235Y0285030D02*
X0337011Y0283807D01*
X0335280Y0283807D01*
X0334057Y0285030D01*
X0334057Y0286761D01*
X0335280Y0287985D01*
X0337011Y0287985D01*
X0338235Y0286761D01*
X0338235Y0285030D01*
X0337990Y0284786D02*
X0350949Y0284786D01*
X0349418Y0283787D02*
X0178667Y0283787D01*
X0178667Y0282789D02*
X0348717Y0282789D01*
X0348325Y0281790D02*
X0178667Y0281790D01*
X0178667Y0280792D02*
X0348325Y0280792D01*
X0348524Y0279793D02*
X0178667Y0279793D01*
X0178667Y0278795D02*
X0348951Y0278795D01*
X0349950Y0277796D02*
X0178667Y0277796D01*
X0177167Y0275342D02*
X0177167Y0283238D01*
X0175471Y0284933D01*
X0170705Y0284933D01*
X0167907Y0282135D01*
X0166407Y0281790D02*
X0158953Y0281790D01*
X0159101Y0281643D02*
X0157877Y0282867D01*
X0156147Y0282867D01*
X0154923Y0281643D01*
X0154923Y0279912D01*
X0156147Y0278689D01*
X0157877Y0278689D01*
X0159101Y0279912D01*
X0159101Y0281643D01*
X0159101Y0280792D02*
X0166407Y0280792D01*
X0166407Y0279793D02*
X0158982Y0279793D01*
X0157983Y0278795D02*
X0166407Y0278795D01*
X0166439Y0282789D02*
X0157955Y0282789D01*
X0156069Y0282789D02*
X0145611Y0282789D01*
X0143216Y0282789D02*
X0138918Y0282789D01*
X0138924Y0282783D02*
X0138370Y0283337D01*
X0138924Y0283890D01*
X0138924Y0285539D01*
X0137758Y0286705D01*
X0136109Y0286705D01*
X0134943Y0285539D01*
X0134943Y0284704D01*
X0128873Y0278634D01*
X0128053Y0277814D01*
X0128053Y0248728D01*
X0127462Y0248137D01*
X0127462Y0246488D01*
X0128606Y0245344D01*
X0127462Y0244200D01*
X0127462Y0242551D01*
X0128628Y0241385D01*
X0130277Y0241385D01*
X0131443Y0242551D01*
X0131443Y0243387D01*
X0132821Y0244765D01*
X0132821Y0275867D01*
X0136922Y0279968D01*
X0137758Y0279968D01*
X0138924Y0281134D01*
X0138924Y0282783D01*
X0138924Y0281790D02*
X0142423Y0281790D01*
X0142423Y0280792D02*
X0138581Y0280792D01*
X0136748Y0279793D02*
X0142976Y0279793D01*
X0144819Y0278795D02*
X0135749Y0278795D01*
X0134751Y0277796D02*
X0145817Y0277796D01*
X0146816Y0276798D02*
X0133752Y0276798D01*
X0132821Y0275799D02*
X0147814Y0275799D01*
X0148813Y0274801D02*
X0132821Y0274801D01*
X0132821Y0273802D02*
X0149811Y0273802D01*
X0150810Y0272804D02*
X0132821Y0272804D01*
X0132821Y0271805D02*
X0151808Y0271805D01*
X0152807Y0270807D02*
X0132821Y0270807D01*
X0132821Y0269808D02*
X0153805Y0269808D01*
X0154415Y0268810D02*
X0132821Y0268810D01*
X0132821Y0267811D02*
X0154415Y0267811D01*
X0154415Y0266813D02*
X0144403Y0266813D01*
X0144098Y0267118D02*
X0145321Y0265895D01*
X0145321Y0264164D01*
X0144098Y0262941D01*
X0142367Y0262941D01*
X0141264Y0264044D01*
X0140161Y0262941D01*
X0138430Y0262941D01*
X0137206Y0264164D01*
X0137206Y0265895D01*
X0138430Y0267118D01*
X0140161Y0267118D01*
X0141264Y0266015D01*
X0142367Y0267118D01*
X0144098Y0267118D01*
X0145321Y0265814D02*
X0154415Y0265814D01*
X0154415Y0264816D02*
X0145321Y0264816D01*
X0144974Y0263817D02*
X0154415Y0263817D01*
X0154415Y0262819D02*
X0132821Y0262819D01*
X0132821Y0263817D02*
X0137553Y0263817D01*
X0137206Y0264816D02*
X0132821Y0264816D01*
X0132821Y0265814D02*
X0137206Y0265814D01*
X0138124Y0266813D02*
X0132821Y0266813D01*
X0128053Y0266813D02*
X0102506Y0266813D01*
X0102506Y0267811D02*
X0128053Y0267811D01*
X0128053Y0268810D02*
X0102506Y0268810D01*
X0102506Y0269808D02*
X0128053Y0269808D01*
X0128053Y0270807D02*
X0102506Y0270807D01*
X0102506Y0271805D02*
X0128053Y0271805D01*
X0128053Y0272804D02*
X0102506Y0272804D01*
X0102506Y0273802D02*
X0128053Y0273802D01*
X0128053Y0274801D02*
X0102506Y0274801D01*
X0102506Y0275799D02*
X0128053Y0275799D01*
X0128053Y0276798D02*
X0102506Y0276798D01*
X0102506Y0277796D02*
X0128053Y0277796D01*
X0129033Y0278795D02*
X0102506Y0278795D01*
X0102506Y0279793D02*
X0130032Y0279793D01*
X0131030Y0280792D02*
X0102506Y0280792D01*
X0102506Y0281790D02*
X0132029Y0281790D01*
X0133028Y0282789D02*
X0102506Y0282789D01*
X0102506Y0283787D02*
X0134026Y0283787D01*
X0134943Y0284786D02*
X0102506Y0284786D01*
X0102506Y0285784D02*
X0135188Y0285784D01*
X0138678Y0285784D02*
X0169435Y0285784D01*
X0168436Y0284786D02*
X0138924Y0284786D01*
X0138821Y0283787D02*
X0167438Y0283787D01*
X0176742Y0285784D02*
X0334057Y0285784D01*
X0334079Y0286783D02*
X0102506Y0286783D01*
X0102506Y0287781D02*
X0335077Y0287781D01*
X0337214Y0287781D02*
X0393201Y0287781D01*
X0393201Y0286783D02*
X0338213Y0286783D01*
X0334301Y0284786D02*
X0177740Y0284786D01*
X0177167Y0275342D02*
X0187480Y0265030D01*
X0221972Y0265030D01*
X0245594Y0241407D01*
X0245594Y0233533D01*
X0247094Y0234860D02*
X0261684Y0234860D01*
X0262052Y0235229D02*
X0260828Y0234005D01*
X0260828Y0232274D01*
X0262052Y0231051D01*
X0263783Y0231051D01*
X0265006Y0232274D01*
X0265006Y0234005D01*
X0263783Y0235229D01*
X0262052Y0235229D01*
X0260828Y0233862D02*
X0247585Y0233862D01*
X0247585Y0232863D02*
X0260828Y0232863D01*
X0261238Y0231865D02*
X0246741Y0231865D01*
X0245517Y0230866D02*
X0275545Y0230866D01*
X0275100Y0230421D02*
X0275100Y0228772D01*
X0276266Y0227606D01*
X0277915Y0227606D01*
X0279081Y0228772D01*
X0279081Y0230421D01*
X0277915Y0231587D01*
X0276266Y0231587D01*
X0275100Y0230421D01*
X0275100Y0229868D02*
X0246516Y0229868D01*
X0247514Y0228869D02*
X0275100Y0228869D01*
X0276001Y0227871D02*
X0248513Y0227871D01*
X0246550Y0225874D02*
X0203615Y0225874D01*
X0203615Y0226872D02*
X0245551Y0226872D01*
X0244553Y0227871D02*
X0202632Y0227871D01*
X0201775Y0228984D02*
X0203587Y0228984D01*
X0204868Y0230265D01*
X0204868Y0232077D01*
X0203587Y0233359D01*
X0201775Y0233359D01*
X0200494Y0232077D01*
X0200494Y0230265D01*
X0201775Y0228984D01*
X0200891Y0229868D02*
X0196569Y0229868D01*
X0195570Y0230866D02*
X0200494Y0230866D01*
X0200494Y0231865D02*
X0194572Y0231865D01*
X0193573Y0232863D02*
X0201280Y0232863D01*
X0204082Y0232863D02*
X0241045Y0232863D01*
X0241045Y0231865D02*
X0204868Y0231865D01*
X0204868Y0230866D02*
X0241557Y0230866D01*
X0242556Y0229868D02*
X0204471Y0229868D01*
X0200224Y0227871D02*
X0198566Y0227871D01*
X0197568Y0228869D02*
X0243554Y0228869D01*
X0241045Y0233862D02*
X0192575Y0233862D01*
X0191576Y0234860D02*
X0241045Y0234860D01*
X0241045Y0235859D02*
X0199948Y0235859D01*
X0200341Y0236252D02*
X0199175Y0235086D01*
X0197526Y0235086D01*
X0196360Y0236252D01*
X0196360Y0237901D01*
X0197526Y0239067D01*
X0199175Y0239067D01*
X0200341Y0237901D01*
X0200341Y0236252D01*
X0200341Y0236857D02*
X0241045Y0236857D01*
X0241045Y0237856D02*
X0200341Y0237856D01*
X0199388Y0238854D02*
X0241045Y0238854D01*
X0240454Y0239853D02*
X0186584Y0239853D01*
X0187582Y0238854D02*
X0197313Y0238854D01*
X0196360Y0237856D02*
X0188581Y0237856D01*
X0189579Y0236857D02*
X0196360Y0236857D01*
X0196753Y0235859D02*
X0190578Y0235859D01*
X0185585Y0240851D02*
X0240454Y0240851D01*
X0241034Y0241850D02*
X0184587Y0241850D01*
X0183588Y0242848D02*
X0242032Y0242848D01*
X0241034Y0243847D02*
X0215789Y0243847D01*
X0216788Y0244845D02*
X0226349Y0244845D01*
X0226660Y0244535D02*
X0228309Y0244535D01*
X0229475Y0245701D01*
X0229475Y0247350D01*
X0228309Y0248516D01*
X0226660Y0248516D01*
X0226106Y0247963D01*
X0225159Y0248910D01*
X0223510Y0248910D01*
X0222344Y0247744D01*
X0222344Y0246095D01*
X0223510Y0244929D01*
X0225159Y0244929D01*
X0225713Y0245482D01*
X0226660Y0244535D01*
X0228619Y0244845D02*
X0231583Y0244845D01*
X0231696Y0244732D02*
X0233508Y0244732D01*
X0234790Y0246013D01*
X0234790Y0247825D01*
X0233508Y0249107D01*
X0231696Y0249107D01*
X0230415Y0247825D01*
X0230415Y0246013D01*
X0231696Y0244732D01*
X0230584Y0245844D02*
X0229475Y0245844D01*
X0229475Y0246842D02*
X0230415Y0246842D01*
X0230431Y0247841D02*
X0228984Y0247841D01*
X0231429Y0248840D02*
X0225229Y0248840D01*
X0223945Y0249838D02*
X0235043Y0249838D01*
X0236041Y0248840D02*
X0233776Y0248840D01*
X0234774Y0247841D02*
X0237040Y0247841D01*
X0238038Y0246842D02*
X0234790Y0246842D01*
X0234620Y0245844D02*
X0239037Y0245844D01*
X0240035Y0244845D02*
X0233622Y0244845D01*
X0234044Y0250837D02*
X0225776Y0250837D01*
X0226465Y0251835D02*
X0233046Y0251835D01*
X0232047Y0252834D02*
X0226465Y0252834D01*
X0225888Y0253832D02*
X0231049Y0253832D01*
X0230050Y0254831D02*
X0228528Y0254831D01*
X0228786Y0255829D02*
X0229052Y0255829D01*
X0231297Y0257826D02*
X0338781Y0257826D01*
X0338781Y0257852D02*
X0338781Y0256121D01*
X0340005Y0254898D01*
X0341735Y0254898D01*
X0342959Y0256121D01*
X0342959Y0257852D01*
X0341735Y0259075D01*
X0340005Y0259075D01*
X0338781Y0257852D01*
X0338781Y0256828D02*
X0246514Y0256828D01*
X0246460Y0256882D02*
X0244729Y0256882D01*
X0243506Y0255659D01*
X0243506Y0253928D01*
X0244729Y0252704D01*
X0246460Y0252704D01*
X0247683Y0253928D01*
X0247683Y0255659D01*
X0246460Y0256882D01*
X0247513Y0255829D02*
X0339073Y0255829D01*
X0339754Y0258825D02*
X0230299Y0258825D01*
X0229300Y0259823D02*
X0348325Y0259823D01*
X0348325Y0260033D02*
X0348325Y0258461D01*
X0348927Y0257008D01*
X0350039Y0255896D01*
X0351492Y0255294D01*
X0353064Y0255294D01*
X0354517Y0255896D01*
X0355629Y0257008D01*
X0356231Y0258461D01*
X0356231Y0260033D01*
X0355629Y0261486D01*
X0354517Y0262598D01*
X0353064Y0263200D01*
X0351492Y0263200D01*
X0350039Y0262598D01*
X0348927Y0261486D01*
X0348325Y0260033D01*
X0348652Y0260822D02*
X0228302Y0260822D01*
X0227303Y0261820D02*
X0349261Y0261820D01*
X0350572Y0262819D02*
X0226305Y0262819D01*
X0225306Y0263817D02*
X0359555Y0263817D01*
X0359968Y0262819D02*
X0353984Y0262819D01*
X0355295Y0261820D02*
X0360769Y0261820D01*
X0362540Y0260822D02*
X0355904Y0260822D01*
X0356231Y0259823D02*
X0393201Y0259823D01*
X0393201Y0258825D02*
X0356231Y0258825D01*
X0355968Y0257826D02*
X0393201Y0257826D01*
X0393201Y0256828D02*
X0366036Y0256828D01*
X0365698Y0257165D02*
X0364246Y0257767D01*
X0362673Y0257767D01*
X0361220Y0257165D01*
X0360108Y0256053D01*
X0359507Y0254600D01*
X0359507Y0253028D01*
X0360108Y0251575D01*
X0361220Y0250463D01*
X0362673Y0249861D01*
X0364246Y0249861D01*
X0365698Y0250463D01*
X0366810Y0251575D01*
X0367412Y0253028D01*
X0367412Y0254600D01*
X0366810Y0256053D01*
X0365698Y0257165D01*
X0366903Y0255829D02*
X0393201Y0255829D01*
X0393201Y0254831D02*
X0367317Y0254831D01*
X0367412Y0253832D02*
X0393201Y0253832D01*
X0393201Y0252834D02*
X0367332Y0252834D01*
X0366918Y0251835D02*
X0393201Y0251835D01*
X0393201Y0250837D02*
X0393002Y0250837D01*
X0393117Y0247841D02*
X0393201Y0247841D01*
X0393201Y0246842D02*
X0364291Y0246842D01*
X0364246Y0246861D02*
X0362673Y0246861D01*
X0361220Y0246259D01*
X0360108Y0245147D01*
X0359507Y0243695D01*
X0359507Y0242122D01*
X0360108Y0240669D01*
X0361220Y0239557D01*
X0362673Y0238956D01*
X0364246Y0238956D01*
X0365698Y0239557D01*
X0366810Y0240669D01*
X0367412Y0242122D01*
X0367412Y0243695D01*
X0366810Y0245147D01*
X0365698Y0246259D01*
X0364246Y0246861D01*
X0362628Y0246842D02*
X0355936Y0246842D01*
X0356231Y0247555D02*
X0355629Y0246102D01*
X0354517Y0244991D01*
X0353064Y0244389D01*
X0351492Y0244389D01*
X0350039Y0244991D01*
X0348927Y0246102D01*
X0348325Y0247555D01*
X0348325Y0249128D01*
X0348927Y0250581D01*
X0350039Y0251692D01*
X0351492Y0252294D01*
X0353064Y0252294D01*
X0354517Y0251692D01*
X0355629Y0250581D01*
X0356231Y0249128D01*
X0356231Y0247555D01*
X0356231Y0247841D02*
X0389411Y0247841D01*
X0388935Y0248840D02*
X0356231Y0248840D01*
X0355937Y0249838D02*
X0388935Y0249838D01*
X0389525Y0250837D02*
X0366072Y0250837D01*
X0366114Y0245844D02*
X0393201Y0245844D01*
X0393201Y0244845D02*
X0366935Y0244845D01*
X0367349Y0243847D02*
X0393201Y0243847D01*
X0393201Y0242848D02*
X0367412Y0242848D01*
X0367299Y0241850D02*
X0393201Y0241850D01*
X0393201Y0240851D02*
X0366886Y0240851D01*
X0365994Y0239853D02*
X0393201Y0239853D01*
X0393201Y0238854D02*
X0355969Y0238854D01*
X0356231Y0238222D02*
X0355629Y0239675D01*
X0354517Y0240787D01*
X0353064Y0241389D01*
X0351492Y0241389D01*
X0350039Y0240787D01*
X0348927Y0239675D01*
X0348325Y0238222D01*
X0348325Y0236650D01*
X0348927Y0235197D01*
X0350039Y0234085D01*
X0351492Y0233483D01*
X0353064Y0233483D01*
X0354517Y0234085D01*
X0355629Y0235197D01*
X0356231Y0236650D01*
X0356231Y0238222D01*
X0356231Y0237856D02*
X0393201Y0237856D01*
X0393201Y0236857D02*
X0356231Y0236857D01*
X0355903Y0235859D02*
X0393201Y0235859D01*
X0393201Y0234860D02*
X0355293Y0234860D01*
X0353978Y0233862D02*
X0393201Y0233862D01*
X0393201Y0232863D02*
X0282668Y0232863D01*
X0281670Y0233862D02*
X0350578Y0233862D01*
X0349264Y0234860D02*
X0280671Y0234860D01*
X0279673Y0235859D02*
X0348653Y0235859D01*
X0348325Y0236857D02*
X0278674Y0236857D01*
X0277676Y0237856D02*
X0348325Y0237856D01*
X0348587Y0238854D02*
X0277225Y0238854D01*
X0276227Y0239853D02*
X0349105Y0239853D01*
X0350195Y0240851D02*
X0247094Y0240851D01*
X0247094Y0239853D02*
X0274017Y0239853D01*
X0273019Y0238854D02*
X0247094Y0238854D01*
X0247094Y0237856D02*
X0272935Y0237856D01*
X0273035Y0236857D02*
X0247094Y0236857D01*
X0247094Y0235859D02*
X0274034Y0235859D01*
X0275580Y0234860D02*
X0264151Y0234860D01*
X0265006Y0233862D02*
X0276579Y0233862D01*
X0277577Y0232863D02*
X0265006Y0232863D01*
X0264597Y0231865D02*
X0278576Y0231865D01*
X0278636Y0230866D02*
X0279574Y0230866D01*
X0279081Y0229868D02*
X0280573Y0229868D01*
X0281571Y0228869D02*
X0279081Y0228869D01*
X0278180Y0227871D02*
X0282570Y0227871D01*
X0283568Y0226872D02*
X0268015Y0226872D01*
X0269014Y0225874D02*
X0284567Y0225874D01*
X0285565Y0224875D02*
X0273942Y0224875D01*
X0273793Y0224937D02*
X0272514Y0224937D01*
X0271333Y0224448D01*
X0270428Y0223543D01*
X0269939Y0222362D01*
X0269939Y0221083D01*
X0270428Y0219902D01*
X0271333Y0218997D01*
X0272514Y0218508D01*
X0273793Y0218508D01*
X0274974Y0218997D01*
X0275879Y0219902D01*
X0276368Y0221083D01*
X0276368Y0222362D01*
X0275879Y0223543D01*
X0274974Y0224448D01*
X0273793Y0224937D01*
X0272365Y0224875D02*
X0269829Y0224875D01*
X0269829Y0223877D02*
X0270762Y0223877D01*
X0270153Y0222878D02*
X0269829Y0222878D01*
X0269829Y0221880D02*
X0269939Y0221880D01*
X0270023Y0220881D02*
X0269829Y0220881D01*
X0269829Y0219883D02*
X0270447Y0219883D01*
X0269829Y0218884D02*
X0271606Y0218884D01*
X0272514Y0217063D02*
X0271333Y0216574D01*
X0270428Y0215669D01*
X0269939Y0214488D01*
X0269939Y0213209D01*
X0270428Y0212028D01*
X0271333Y0211123D01*
X0272514Y0210634D01*
X0273793Y0210634D01*
X0274974Y0211123D01*
X0275879Y0212028D01*
X0276368Y0213209D01*
X0276368Y0214488D01*
X0275879Y0215669D01*
X0274974Y0216574D01*
X0273793Y0217063D01*
X0272514Y0217063D01*
X0272090Y0216887D02*
X0269829Y0216887D01*
X0269829Y0215889D02*
X0270648Y0215889D01*
X0270106Y0214890D02*
X0269829Y0214890D01*
X0269829Y0213892D02*
X0269939Y0213892D01*
X0269829Y0212893D02*
X0270070Y0212893D01*
X0269829Y0211895D02*
X0270561Y0211895D01*
X0269829Y0210896D02*
X0271881Y0210896D01*
X0272514Y0209189D02*
X0271333Y0208700D01*
X0270428Y0207795D01*
X0269939Y0206614D01*
X0269939Y0205335D01*
X0270428Y0204153D01*
X0271333Y0203249D01*
X0272514Y0202760D01*
X0273793Y0202760D01*
X0274974Y0203249D01*
X0275879Y0204153D01*
X0276368Y0205335D01*
X0276368Y0206614D01*
X0275879Y0207795D01*
X0274974Y0208700D01*
X0273793Y0209189D01*
X0272514Y0209189D01*
X0271814Y0208899D02*
X0269829Y0208899D01*
X0269829Y0207901D02*
X0270534Y0207901D01*
X0270058Y0206902D02*
X0268974Y0206902D01*
X0268494Y0205904D02*
X0269939Y0205904D01*
X0270117Y0204905D02*
X0268316Y0204905D01*
X0267758Y0203907D02*
X0270675Y0203907D01*
X0272156Y0202908D02*
X0266277Y0202908D01*
X0264282Y0202908D02*
X0243412Y0202908D01*
X0242414Y0203907D02*
X0262801Y0203907D01*
X0262243Y0204905D02*
X0243403Y0204905D01*
X0243648Y0205904D02*
X0262065Y0205904D01*
X0262184Y0206902D02*
X0243545Y0206902D01*
X0242546Y0207901D02*
X0262660Y0207901D01*
X0263940Y0208899D02*
X0237421Y0208899D01*
X0238420Y0207901D02*
X0240769Y0207901D01*
X0239770Y0206902D02*
X0239418Y0206902D01*
X0235446Y0206631D02*
X0246414Y0195663D01*
X0289251Y0195663D01*
X0289251Y0195663D01*
X0290494Y0195663D01*
X0333964Y0152193D01*
X0352093Y0152193D01*
X0355287Y0148999D01*
X0355287Y0137764D01*
X0359834Y0133217D01*
X0362634Y0136008D02*
X0377653Y0136008D01*
X0377653Y0137006D02*
X0361015Y0137006D01*
X0362195Y0139003D02*
X0377653Y0139003D01*
X0377653Y0138005D02*
X0357168Y0138005D01*
X0357474Y0139003D02*
X0356787Y0139003D01*
X0358166Y0137006D02*
X0358654Y0137006D01*
X0355921Y0135009D02*
X0352709Y0135009D01*
X0353402Y0136008D02*
X0354922Y0136008D01*
X0353924Y0137006D02*
X0353787Y0137006D01*
X0353787Y0138005D02*
X0353787Y0138005D01*
X0353787Y0139003D02*
X0353583Y0139003D01*
X0353787Y0140002D02*
X0353147Y0140002D01*
X0353787Y0141000D02*
X0352149Y0141000D01*
X0353787Y0141999D02*
X0340319Y0141999D01*
X0343695Y0140002D02*
X0346522Y0140002D01*
X0347520Y0141000D02*
X0344116Y0141000D01*
X0344222Y0142997D02*
X0348542Y0142997D01*
X0346989Y0143996D02*
X0343934Y0143996D01*
X0343332Y0144994D02*
X0346279Y0144994D01*
X0346492Y0148988D02*
X0267364Y0148988D01*
X0268460Y0147990D02*
X0337992Y0147990D01*
X0336994Y0146991D02*
X0268839Y0146991D01*
X0268839Y0145993D02*
X0335995Y0145993D01*
X0334997Y0144994D02*
X0268433Y0144994D01*
X0263701Y0144994D02*
X0263279Y0144994D01*
X0263295Y0145993D02*
X0262280Y0145993D01*
X0261752Y0146991D02*
X0263295Y0146991D01*
X0263673Y0147990D02*
X0261752Y0147990D01*
X0261752Y0148988D02*
X0264770Y0148988D01*
X0261752Y0149987D02*
X0347491Y0149987D01*
X0352178Y0149987D02*
X0352178Y0149987D01*
X0353177Y0148988D02*
X0353177Y0148988D01*
X0353595Y0147990D02*
X0353787Y0147990D01*
X0353787Y0146991D02*
X0353787Y0146991D01*
X0353787Y0145993D02*
X0353787Y0145993D01*
X0353787Y0144994D02*
X0353390Y0144994D01*
X0353787Y0143996D02*
X0352680Y0143996D01*
X0353787Y0142997D02*
X0351127Y0142997D01*
X0356787Y0145280D02*
X0359834Y0142233D01*
X0362663Y0144994D02*
X0377653Y0144994D01*
X0377653Y0143996D02*
X0363383Y0143996D01*
X0363787Y0142997D02*
X0377653Y0142997D01*
X0377653Y0141999D02*
X0363787Y0141999D01*
X0363602Y0141000D02*
X0377653Y0141000D01*
X0377653Y0140002D02*
X0363189Y0140002D01*
X0363370Y0135009D02*
X0377653Y0135009D01*
X0377653Y0134011D02*
X0363784Y0134011D01*
X0363787Y0133012D02*
X0377653Y0133012D01*
X0377653Y0132014D02*
X0363615Y0132014D01*
X0363201Y0131015D02*
X0377653Y0131015D01*
X0377653Y0130017D02*
X0362224Y0130017D01*
X0360945Y0128020D02*
X0377653Y0128020D01*
X0377653Y0129018D02*
X0353787Y0129018D01*
X0353787Y0128020D02*
X0358724Y0128020D01*
X0359048Y0128154D02*
X0357595Y0127552D01*
X0356484Y0126440D01*
X0355882Y0124987D01*
X0355882Y0123415D01*
X0356484Y0121962D01*
X0357595Y0120850D01*
X0359048Y0120248D01*
X0360621Y0120248D01*
X0362074Y0120850D01*
X0363185Y0121962D01*
X0363787Y0123415D01*
X0363787Y0124987D01*
X0363185Y0126440D01*
X0362074Y0127552D01*
X0360621Y0128154D01*
X0359048Y0128154D01*
X0357064Y0127021D02*
X0353414Y0127021D01*
X0352738Y0126023D02*
X0356311Y0126023D01*
X0355897Y0125024D02*
X0351267Y0125024D01*
X0352091Y0123027D02*
X0356042Y0123027D01*
X0355882Y0124026D02*
X0347482Y0124026D01*
X0348401Y0125024D02*
X0346483Y0125024D01*
X0346931Y0126023D02*
X0345485Y0126023D01*
X0346255Y0127021D02*
X0344486Y0127021D01*
X0343488Y0128020D02*
X0345882Y0128020D01*
X0345882Y0129018D02*
X0342489Y0129018D01*
X0342224Y0130017D02*
X0346098Y0130017D01*
X0345548Y0131015D02*
X0343201Y0131015D01*
X0343615Y0132014D02*
X0344550Y0132014D01*
X0346513Y0134011D02*
X0348472Y0134011D01*
X0347511Y0133012D02*
X0355882Y0133012D01*
X0355885Y0134011D02*
X0351197Y0134011D01*
X0352120Y0132014D02*
X0356054Y0132014D01*
X0356468Y0131015D02*
X0353118Y0131015D01*
X0353571Y0130017D02*
X0357445Y0130017D01*
X0362604Y0127021D02*
X0377653Y0127021D01*
X0377653Y0126023D02*
X0363358Y0126023D01*
X0363772Y0125024D02*
X0377653Y0125024D01*
X0377653Y0124026D02*
X0363787Y0124026D01*
X0363627Y0123027D02*
X0377653Y0123027D01*
X0377653Y0122029D02*
X0363213Y0122029D01*
X0362253Y0121030D02*
X0377653Y0121030D01*
X0377653Y0120032D02*
X0353787Y0120032D01*
X0353787Y0119033D02*
X0358795Y0119033D01*
X0359048Y0119138D02*
X0357595Y0118536D01*
X0356484Y0117424D01*
X0355882Y0115972D01*
X0355882Y0114399D01*
X0356484Y0112946D01*
X0357595Y0111834D01*
X0359048Y0111233D01*
X0360621Y0111233D01*
X0362074Y0111834D01*
X0363185Y0112946D01*
X0363787Y0114399D01*
X0363787Y0115972D01*
X0363185Y0117424D01*
X0362074Y0118536D01*
X0360621Y0119138D01*
X0359048Y0119138D01*
X0360874Y0119033D02*
X0377653Y0119033D01*
X0377653Y0118035D02*
X0362575Y0118035D01*
X0363346Y0117036D02*
X0377653Y0117036D01*
X0377653Y0116038D02*
X0363760Y0116038D01*
X0363787Y0115039D02*
X0377653Y0115039D01*
X0377653Y0114040D02*
X0363639Y0114040D01*
X0363225Y0113042D02*
X0377653Y0113042D01*
X0377653Y0112043D02*
X0362283Y0112043D01*
X0360804Y0110046D02*
X0377653Y0110046D01*
X0377653Y0109048D02*
X0362546Y0109048D01*
X0362074Y0109521D02*
X0363185Y0108409D01*
X0363787Y0106956D01*
X0363787Y0105383D01*
X0363185Y0103931D01*
X0362074Y0102819D01*
X0360621Y0102217D01*
X0359048Y0102217D01*
X0357595Y0102819D01*
X0356484Y0103931D01*
X0355882Y0105383D01*
X0355882Y0106956D01*
X0356484Y0108409D01*
X0357595Y0109521D01*
X0359048Y0110122D01*
X0360621Y0110122D01*
X0362074Y0109521D01*
X0363334Y0108049D02*
X0377653Y0108049D01*
X0377653Y0107051D02*
X0363748Y0107051D01*
X0363787Y0106052D02*
X0377653Y0106052D01*
X0377653Y0105054D02*
X0363651Y0105054D01*
X0363237Y0104055D02*
X0377653Y0104055D01*
X0377653Y0103057D02*
X0362312Y0103057D01*
X0357357Y0103057D02*
X0342312Y0103057D01*
X0342074Y0102819D02*
X0343185Y0103931D01*
X0343787Y0105383D01*
X0343787Y0106956D01*
X0343185Y0108409D01*
X0342074Y0109521D01*
X0340621Y0110122D01*
X0339048Y0110122D01*
X0337595Y0109521D01*
X0336484Y0108409D01*
X0335882Y0106956D01*
X0335882Y0105383D01*
X0336484Y0103931D01*
X0337595Y0102819D01*
X0339048Y0102217D01*
X0340621Y0102217D01*
X0342074Y0102819D01*
X0343237Y0104055D02*
X0356432Y0104055D01*
X0356018Y0105054D02*
X0343651Y0105054D01*
X0343787Y0106052D02*
X0355882Y0106052D01*
X0355921Y0107051D02*
X0351408Y0107051D01*
X0352796Y0108049D02*
X0356335Y0108049D01*
X0357123Y0109048D02*
X0353438Y0109048D01*
X0353787Y0110046D02*
X0358865Y0110046D01*
X0357386Y0112043D02*
X0353547Y0112043D01*
X0353787Y0111045D02*
X0377653Y0111045D01*
X0377653Y0102058D02*
X0294928Y0102058D01*
X0294928Y0102509D02*
X0293704Y0103733D01*
X0291973Y0103733D01*
X0290750Y0102509D01*
X0290750Y0100778D01*
X0291973Y0099555D01*
X0293704Y0099555D01*
X0294928Y0100778D01*
X0294928Y0102509D01*
X0294380Y0103057D02*
X0337357Y0103057D01*
X0336432Y0104055D02*
X0259494Y0104055D01*
X0259494Y0104477D02*
X0258271Y0105701D01*
X0256540Y0105701D01*
X0255317Y0104477D01*
X0255317Y0102747D01*
X0256540Y0101523D01*
X0258271Y0101523D01*
X0259494Y0102747D01*
X0259494Y0104477D01*
X0258918Y0105054D02*
X0336018Y0105054D01*
X0335882Y0106052D02*
X0231443Y0106052D01*
X0232034Y0106643D02*
X0230752Y0105362D01*
X0228940Y0105362D01*
X0227659Y0106643D01*
X0227659Y0108455D01*
X0228940Y0109737D01*
X0230752Y0109737D01*
X0231694Y0108795D01*
X0231694Y0109989D01*
X0232918Y0111213D01*
X0234649Y0111213D01*
X0235872Y0109989D01*
X0235872Y0108259D01*
X0234649Y0107035D01*
X0232918Y0107035D01*
X0232034Y0107919D01*
X0232034Y0106643D01*
X0232034Y0107051D02*
X0232902Y0107051D01*
X0234665Y0107051D02*
X0335921Y0107051D01*
X0336335Y0108049D02*
X0235663Y0108049D01*
X0235872Y0109048D02*
X0337123Y0109048D01*
X0338865Y0110046D02*
X0235815Y0110046D01*
X0234817Y0111045D02*
X0345882Y0111045D01*
X0345882Y0110046D02*
X0340804Y0110046D01*
X0342546Y0109048D02*
X0346231Y0109048D01*
X0346873Y0108049D02*
X0343334Y0108049D01*
X0343748Y0107051D02*
X0348261Y0107051D01*
X0346122Y0112043D02*
X0342283Y0112043D01*
X0343225Y0113042D02*
X0345490Y0113042D01*
X0344492Y0114040D02*
X0343639Y0114040D01*
X0346454Y0116038D02*
X0348331Y0116038D01*
X0347453Y0115039D02*
X0355882Y0115039D01*
X0355909Y0116038D02*
X0351338Y0116038D01*
X0352767Y0117036D02*
X0356323Y0117036D01*
X0357094Y0118035D02*
X0353426Y0118035D01*
X0353559Y0121030D02*
X0357415Y0121030D01*
X0356456Y0122029D02*
X0353089Y0122029D01*
X0346110Y0121030D02*
X0342253Y0121030D01*
X0342460Y0120032D02*
X0345882Y0120032D01*
X0345882Y0119033D02*
X0343459Y0119033D01*
X0344457Y0118035D02*
X0346243Y0118035D01*
X0346902Y0117036D02*
X0345456Y0117036D01*
X0345519Y0122029D02*
X0343213Y0122029D01*
X0343627Y0123027D02*
X0344521Y0123027D01*
X0337574Y0119033D02*
X0169435Y0119033D01*
X0169435Y0118454D02*
X0169435Y0120266D01*
X0168154Y0121548D01*
X0166342Y0121548D01*
X0165061Y0120266D01*
X0165061Y0118454D01*
X0166342Y0117173D01*
X0168154Y0117173D01*
X0169435Y0118454D01*
X0169016Y0118035D02*
X0337094Y0118035D01*
X0336323Y0117036D02*
X0138022Y0117036D01*
X0137024Y0116038D02*
X0335909Y0116038D01*
X0335882Y0115039D02*
X0136025Y0115039D01*
X0135027Y0114040D02*
X0336030Y0114040D01*
X0336444Y0113042D02*
X0173510Y0113042D01*
X0172878Y0113674D02*
X0171066Y0113674D01*
X0169785Y0112392D01*
X0169785Y0110580D01*
X0171066Y0109299D01*
X0172878Y0109299D01*
X0174160Y0110580D01*
X0174160Y0112392D01*
X0172878Y0113674D01*
X0174160Y0112043D02*
X0337386Y0112043D01*
X0336575Y0120032D02*
X0169435Y0120032D01*
X0168672Y0121030D02*
X0335577Y0121030D01*
X0334578Y0122029D02*
X0143015Y0122029D01*
X0144013Y0123027D02*
X0334352Y0123027D01*
X0334352Y0124026D02*
X0318036Y0124026D01*
X0318451Y0124441D02*
X0318451Y0125244D01*
X0319647Y0125244D01*
X0320813Y0126410D01*
X0320813Y0128059D01*
X0319790Y0129082D01*
X0321263Y0129082D01*
X0322487Y0130306D01*
X0322487Y0132037D01*
X0321263Y0133260D01*
X0319532Y0133260D01*
X0318309Y0132037D01*
X0318309Y0130306D01*
X0319390Y0129225D01*
X0317998Y0129225D01*
X0316832Y0128059D01*
X0316832Y0127256D01*
X0315636Y0127256D01*
X0314470Y0126090D01*
X0314470Y0124441D01*
X0315636Y0123275D01*
X0317285Y0123275D01*
X0318451Y0124441D01*
X0318451Y0125024D02*
X0334352Y0125024D01*
X0334352Y0126023D02*
X0320426Y0126023D01*
X0320813Y0127021D02*
X0334352Y0127021D01*
X0334352Y0128020D02*
X0320813Y0128020D01*
X0319854Y0129018D02*
X0334352Y0129018D01*
X0333768Y0130017D02*
X0322197Y0130017D01*
X0322487Y0131015D02*
X0332769Y0131015D01*
X0331771Y0132014D02*
X0322487Y0132014D01*
X0321511Y0133012D02*
X0330772Y0133012D01*
X0329774Y0134011D02*
X0177118Y0134011D01*
X0177309Y0134202D02*
X0176028Y0132921D01*
X0174216Y0132921D01*
X0172935Y0134202D01*
X0172935Y0136014D01*
X0174216Y0137296D01*
X0176028Y0137296D01*
X0177309Y0136014D01*
X0177309Y0134202D01*
X0177309Y0135009D02*
X0328775Y0135009D01*
X0327777Y0136008D02*
X0177309Y0136008D01*
X0176317Y0137006D02*
X0258858Y0137006D01*
X0257859Y0138005D02*
X0158991Y0138005D01*
X0159989Y0139003D02*
X0256861Y0139003D01*
X0255862Y0140002D02*
X0160988Y0140002D01*
X0161986Y0141000D02*
X0254864Y0141000D01*
X0253865Y0141999D02*
X0162985Y0141999D01*
X0163983Y0142997D02*
X0252867Y0142997D01*
X0251868Y0143996D02*
X0164982Y0143996D01*
X0165980Y0144994D02*
X0250610Y0144994D01*
X0249611Y0145993D02*
X0203528Y0145993D01*
X0203153Y0145618D02*
X0204376Y0146841D01*
X0204376Y0148572D01*
X0203153Y0149796D01*
X0201422Y0149796D01*
X0200198Y0148572D01*
X0200198Y0146841D01*
X0201422Y0145618D01*
X0203153Y0145618D01*
X0204376Y0146991D02*
X0249509Y0146991D01*
X0249756Y0147990D02*
X0204376Y0147990D01*
X0203960Y0148988D02*
X0250106Y0148988D01*
X0250106Y0149987D02*
X0170973Y0149987D01*
X0171972Y0150985D02*
X0250106Y0150985D01*
X0250106Y0151984D02*
X0172970Y0151984D01*
X0173969Y0152982D02*
X0250106Y0152982D01*
X0250106Y0153981D02*
X0174967Y0153981D01*
X0175966Y0154979D02*
X0250106Y0154979D01*
X0249132Y0155978D02*
X0203670Y0155978D01*
X0203153Y0155460D02*
X0204376Y0156684D01*
X0204376Y0158414D01*
X0203153Y0159638D01*
X0201422Y0159638D01*
X0200198Y0158414D01*
X0200198Y0156684D01*
X0201422Y0155460D01*
X0203153Y0155460D01*
X0204376Y0156976D02*
X0248133Y0156976D01*
X0247135Y0157975D02*
X0204376Y0157975D01*
X0203817Y0158973D02*
X0246136Y0158973D01*
X0245138Y0159972D02*
X0180958Y0159972D01*
X0179960Y0158973D02*
X0200757Y0158973D01*
X0200198Y0157975D02*
X0178961Y0157975D01*
X0177963Y0156976D02*
X0200198Y0156976D01*
X0200904Y0155978D02*
X0176964Y0155978D01*
X0173344Y0159972D02*
X0128899Y0159972D01*
X0129897Y0158973D02*
X0172346Y0158973D01*
X0171347Y0157975D02*
X0130896Y0157975D01*
X0131895Y0156976D02*
X0170349Y0156976D01*
X0169350Y0155978D02*
X0132893Y0155978D01*
X0133892Y0154979D02*
X0168352Y0154979D01*
X0167353Y0153981D02*
X0134890Y0153981D01*
X0135889Y0152982D02*
X0166355Y0152982D01*
X0165356Y0151984D02*
X0137579Y0151984D01*
X0137405Y0152158D02*
X0136713Y0152158D01*
X0121604Y0167267D01*
X0121604Y0182179D01*
X0122093Y0182668D01*
X0122093Y0184399D01*
X0120869Y0185622D01*
X0119139Y0185622D01*
X0117915Y0184399D01*
X0117915Y0182668D01*
X0118404Y0182179D01*
X0118404Y0165942D01*
X0119341Y0165004D01*
X0134450Y0149895D01*
X0134450Y0149204D01*
X0135674Y0147980D01*
X0137405Y0147980D01*
X0138628Y0149204D01*
X0138628Y0150934D01*
X0137405Y0152158D01*
X0138577Y0150985D02*
X0164358Y0150985D01*
X0163359Y0149987D02*
X0138628Y0149987D01*
X0138413Y0148988D02*
X0162361Y0148988D01*
X0161362Y0147990D02*
X0137415Y0147990D01*
X0135664Y0147990D02*
X0117418Y0147990D01*
X0117664Y0147744D02*
X0116498Y0148910D01*
X0114849Y0148910D01*
X0114514Y0148575D01*
X0114514Y0149712D01*
X0113348Y0150878D01*
X0111699Y0150878D01*
X0110533Y0149712D01*
X0110533Y0148063D01*
X0111699Y0146897D01*
X0113348Y0146897D01*
X0113683Y0147232D01*
X0113683Y0146095D01*
X0114849Y0144929D01*
X0116498Y0144929D01*
X0117664Y0146095D01*
X0117664Y0147744D01*
X0117664Y0146991D02*
X0160364Y0146991D01*
X0159365Y0145993D02*
X0117562Y0145993D01*
X0116563Y0144994D02*
X0158366Y0144994D01*
X0157368Y0143996D02*
X0076522Y0143996D01*
X0076522Y0143257D02*
X0075241Y0141976D01*
X0073429Y0141976D01*
X0072147Y0143257D01*
X0072147Y0145069D01*
X0073429Y0146351D01*
X0075241Y0146351D01*
X0076522Y0145069D01*
X0076522Y0143257D01*
X0076262Y0142997D02*
X0103818Y0142997D01*
X0103446Y0142626D02*
X0103446Y0140977D01*
X0104612Y0139811D01*
X0105809Y0139811D01*
X0105809Y0138221D01*
X0106975Y0137055D01*
X0108624Y0137055D01*
X0109790Y0138221D01*
X0109790Y0139870D01*
X0108624Y0141036D01*
X0107428Y0141036D01*
X0107428Y0142626D01*
X0106262Y0143792D01*
X0104612Y0143792D01*
X0103446Y0142626D01*
X0103446Y0141999D02*
X0075264Y0141999D01*
X0073406Y0141999D02*
X0059698Y0141999D01*
X0060291Y0142997D02*
X0072407Y0142997D01*
X0072147Y0143996D02*
X0060606Y0143996D01*
X0060606Y0144994D02*
X0072147Y0144994D01*
X0073071Y0145993D02*
X0060332Y0145993D01*
X0059797Y0146991D02*
X0111605Y0146991D01*
X0110606Y0147990D02*
X0058666Y0147990D01*
X0054642Y0147990D02*
X0053207Y0147990D01*
X0053207Y0148988D02*
X0110533Y0148988D01*
X0110808Y0149987D02*
X0053207Y0149987D01*
X0053207Y0150985D02*
X0133360Y0150985D01*
X0134359Y0149987D02*
X0114240Y0149987D01*
X0114514Y0148988D02*
X0134666Y0148988D01*
X0132362Y0151984D02*
X0053207Y0151984D01*
X0053207Y0152982D02*
X0131363Y0152982D01*
X0130365Y0153981D02*
X0053207Y0153981D01*
X0053207Y0154979D02*
X0129366Y0154979D01*
X0128368Y0155978D02*
X0053207Y0155978D01*
X0053207Y0156976D02*
X0127369Y0156976D01*
X0126371Y0157975D02*
X0053207Y0157975D01*
X0053207Y0158973D02*
X0125372Y0158973D01*
X0124374Y0159972D02*
X0053207Y0159972D01*
X0053207Y0160971D02*
X0123375Y0160971D01*
X0122376Y0161969D02*
X0053207Y0161969D01*
X0053207Y0162968D02*
X0121378Y0162968D01*
X0120379Y0163966D02*
X0053207Y0163966D01*
X0053207Y0164965D02*
X0119381Y0164965D01*
X0118404Y0165963D02*
X0053905Y0165963D01*
X0054903Y0166962D02*
X0118404Y0166962D01*
X0118404Y0167960D02*
X0055902Y0167960D01*
X0056900Y0168959D02*
X0102491Y0168959D01*
X0102997Y0168452D02*
X0104727Y0168452D01*
X0105951Y0169676D01*
X0105951Y0171407D01*
X0104727Y0172630D01*
X0102997Y0172630D01*
X0101773Y0171407D01*
X0101773Y0169676D01*
X0102997Y0168452D01*
X0101773Y0169957D02*
X0057899Y0169957D01*
X0057947Y0170956D02*
X0101773Y0170956D01*
X0102321Y0171954D02*
X0057947Y0171954D01*
X0057947Y0172953D02*
X0118404Y0172953D01*
X0118404Y0173951D02*
X0057947Y0173951D01*
X0057947Y0174950D02*
X0118404Y0174950D01*
X0118404Y0175948D02*
X0057947Y0175948D01*
X0057947Y0176947D02*
X0118404Y0176947D01*
X0118404Y0177945D02*
X0057947Y0177945D01*
X0057947Y0178944D02*
X0118404Y0178944D01*
X0118404Y0179942D02*
X0057947Y0179942D01*
X0057947Y0180941D02*
X0113991Y0180941D01*
X0113486Y0181446D02*
X0114767Y0180165D01*
X0116579Y0180165D01*
X0117861Y0181446D01*
X0117861Y0183258D01*
X0116579Y0184540D01*
X0114767Y0184540D01*
X0113486Y0183258D01*
X0113486Y0181446D01*
X0113486Y0181939D02*
X0057947Y0181939D01*
X0057947Y0182938D02*
X0113486Y0182938D01*
X0114164Y0183936D02*
X0057947Y0183936D01*
X0057947Y0184935D02*
X0118451Y0184935D01*
X0117915Y0183936D02*
X0117183Y0183936D01*
X0117861Y0182938D02*
X0117915Y0182938D01*
X0117861Y0181939D02*
X0118404Y0181939D01*
X0118404Y0180941D02*
X0117355Y0180941D01*
X0121604Y0180941D02*
X0157438Y0180941D01*
X0156891Y0181487D02*
X0158115Y0180263D01*
X0159846Y0180263D01*
X0161069Y0181487D01*
X0161069Y0183218D01*
X0159846Y0184441D01*
X0158115Y0184441D01*
X0156891Y0183218D01*
X0156891Y0181487D01*
X0156891Y0181939D02*
X0121604Y0181939D01*
X0122093Y0182938D02*
X0156891Y0182938D01*
X0157610Y0183936D02*
X0122093Y0183936D01*
X0121557Y0184935D02*
X0163706Y0184935D01*
X0164000Y0185229D02*
X0162776Y0184005D01*
X0162776Y0182274D01*
X0164000Y0181051D01*
X0165731Y0181051D01*
X0166954Y0182274D01*
X0166954Y0184005D01*
X0165731Y0185229D01*
X0164000Y0185229D01*
X0162776Y0183936D02*
X0160351Y0183936D01*
X0161069Y0182938D02*
X0162776Y0182938D01*
X0163112Y0181939D02*
X0161069Y0181939D01*
X0160523Y0180941D02*
X0194313Y0180941D01*
X0195311Y0181939D02*
X0166619Y0181939D01*
X0166954Y0182938D02*
X0178136Y0182938D01*
X0177659Y0183415D02*
X0178940Y0182133D01*
X0180752Y0182133D01*
X0182034Y0183415D01*
X0182034Y0185227D01*
X0180752Y0186508D01*
X0178940Y0186508D01*
X0177659Y0185227D01*
X0177659Y0183415D01*
X0177659Y0183936D02*
X0166954Y0183936D01*
X0166025Y0184935D02*
X0177659Y0184935D01*
X0178365Y0185933D02*
X0057947Y0185933D01*
X0057947Y0186932D02*
X0184772Y0186932D01*
X0184846Y0186858D02*
X0186658Y0186858D01*
X0187939Y0188139D01*
X0187939Y0189951D01*
X0186658Y0191233D01*
X0184846Y0191233D01*
X0183565Y0189951D01*
X0183565Y0188139D01*
X0184846Y0186858D01*
X0183773Y0187930D02*
X0057947Y0187930D01*
X0057947Y0188929D02*
X0183565Y0188929D01*
X0183565Y0189927D02*
X0057947Y0189927D01*
X0057947Y0190926D02*
X0184539Y0190926D01*
X0186965Y0190926D02*
X0204234Y0190926D01*
X0204320Y0191924D02*
X0057947Y0191924D01*
X0057947Y0192923D02*
X0182070Y0192923D01*
X0181071Y0193921D02*
X0057947Y0193921D01*
X0057947Y0194920D02*
X0074614Y0194920D01*
X0073616Y0195918D02*
X0057947Y0195918D01*
X0057947Y0196917D02*
X0072617Y0196917D01*
X0071619Y0197915D02*
X0057947Y0197915D01*
X0057947Y0198914D02*
X0070620Y0198914D01*
X0069622Y0199912D02*
X0057947Y0199912D01*
X0057947Y0200911D02*
X0068623Y0200911D01*
X0067625Y0201909D02*
X0058470Y0201909D01*
X0059469Y0202908D02*
X0066626Y0202908D01*
X0065628Y0203907D02*
X0060467Y0203907D01*
X0061466Y0204905D02*
X0064629Y0204905D01*
X0063631Y0205904D02*
X0062464Y0205904D01*
X0068953Y0211895D02*
X0135336Y0211895D01*
X0135336Y0212704D02*
X0135336Y0211055D01*
X0136502Y0209889D01*
X0138151Y0209889D01*
X0139317Y0211055D01*
X0139317Y0212704D01*
X0138173Y0213848D01*
X0139317Y0214992D01*
X0139317Y0216641D01*
X0138173Y0217785D01*
X0139317Y0218929D01*
X0139317Y0220578D01*
X0138195Y0221700D01*
X0138545Y0221700D01*
X0139711Y0222866D01*
X0139711Y0224515D01*
X0138545Y0225681D01*
X0136896Y0225681D01*
X0135730Y0224515D01*
X0135730Y0222866D01*
X0136852Y0221744D01*
X0136502Y0221744D01*
X0135336Y0220578D01*
X0135336Y0218929D01*
X0136480Y0217785D01*
X0135336Y0216641D01*
X0135336Y0214992D01*
X0136480Y0213848D01*
X0135336Y0212704D01*
X0135525Y0212893D02*
X0067955Y0212893D01*
X0066956Y0213892D02*
X0136437Y0213892D01*
X0135438Y0214890D02*
X0065958Y0214890D01*
X0064959Y0215889D02*
X0135336Y0215889D01*
X0135582Y0216887D02*
X0063961Y0216887D01*
X0063255Y0217886D02*
X0136380Y0217886D01*
X0135381Y0218884D02*
X0063255Y0218884D01*
X0063255Y0219883D02*
X0135336Y0219883D01*
X0135639Y0220881D02*
X0102177Y0220881D01*
X0101619Y0220322D02*
X0102900Y0221604D01*
X0102900Y0223416D01*
X0101619Y0224697D01*
X0099807Y0224697D01*
X0098525Y0223416D01*
X0098525Y0221604D01*
X0099807Y0220322D01*
X0101619Y0220322D01*
X0102900Y0221880D02*
X0136717Y0221880D01*
X0135730Y0222878D02*
X0102900Y0222878D01*
X0102439Y0223877D02*
X0135730Y0223877D01*
X0136090Y0224875D02*
X0063255Y0224875D01*
X0063255Y0223877D02*
X0098986Y0223877D01*
X0098525Y0222878D02*
X0063255Y0222878D01*
X0063255Y0221880D02*
X0098525Y0221880D01*
X0099248Y0220881D02*
X0063255Y0220881D01*
X0059155Y0220881D02*
X0056290Y0220881D01*
X0057288Y0219883D02*
X0059155Y0219883D01*
X0059155Y0218884D02*
X0058287Y0218884D01*
X0059155Y0218016D02*
X0053053Y0224118D01*
X0053053Y0239325D01*
X0053104Y0239255D01*
X0053599Y0238759D01*
X0054166Y0238347D01*
X0054791Y0238029D01*
X0055457Y0237812D01*
X0056016Y0237724D01*
X0056016Y0241671D01*
X0056984Y0241671D01*
X0056984Y0237724D01*
X0057543Y0237812D01*
X0058209Y0238029D01*
X0058834Y0238347D01*
X0059155Y0238581D01*
X0059155Y0218016D01*
X0059155Y0221880D02*
X0055291Y0221880D01*
X0054293Y0222878D02*
X0059155Y0222878D01*
X0059155Y0223877D02*
X0053294Y0223877D01*
X0053053Y0224875D02*
X0059155Y0224875D01*
X0059155Y0225874D02*
X0053053Y0225874D01*
X0053053Y0226872D02*
X0059155Y0226872D01*
X0059155Y0227871D02*
X0053053Y0227871D01*
X0053053Y0228869D02*
X0059155Y0228869D01*
X0059155Y0229868D02*
X0053053Y0229868D01*
X0053053Y0230866D02*
X0059155Y0230866D01*
X0059155Y0231865D02*
X0053053Y0231865D01*
X0053053Y0232863D02*
X0059155Y0232863D01*
X0059155Y0233862D02*
X0053053Y0233862D01*
X0053053Y0234860D02*
X0059155Y0234860D01*
X0059155Y0235859D02*
X0053053Y0235859D01*
X0053053Y0236857D02*
X0059155Y0236857D01*
X0059155Y0237856D02*
X0057677Y0237856D01*
X0056984Y0237856D02*
X0056016Y0237856D01*
X0055323Y0237856D02*
X0053053Y0237856D01*
X0053053Y0238854D02*
X0053504Y0238854D01*
X0056016Y0238854D02*
X0056984Y0238854D01*
X0056984Y0239853D02*
X0056016Y0239853D01*
X0056016Y0240851D02*
X0056984Y0240851D01*
X0056984Y0242640D02*
X0056016Y0242640D01*
X0056016Y0246587D01*
X0055457Y0246499D01*
X0054791Y0246282D01*
X0054166Y0245964D01*
X0053599Y0245552D01*
X0053104Y0245056D01*
X0053053Y0244986D01*
X0053053Y0247539D01*
X0048403Y0252189D01*
X0048739Y0252328D01*
X0049851Y0253440D01*
X0050453Y0254893D01*
X0050453Y0256465D01*
X0050098Y0257322D01*
X0053579Y0253841D01*
X0053149Y0253410D01*
X0052547Y0251958D01*
X0052547Y0250385D01*
X0053149Y0248932D01*
X0054261Y0247820D01*
X0055714Y0247219D01*
X0057286Y0247219D01*
X0058739Y0247820D01*
X0059155Y0248236D01*
X0059155Y0245730D01*
X0058834Y0245964D01*
X0058209Y0246282D01*
X0057543Y0246499D01*
X0056984Y0246587D01*
X0056984Y0242640D01*
X0056984Y0242848D02*
X0056016Y0242848D01*
X0056016Y0243847D02*
X0056984Y0243847D01*
X0056984Y0244845D02*
X0056016Y0244845D01*
X0056016Y0245844D02*
X0056984Y0245844D01*
X0058999Y0245844D02*
X0059155Y0245844D01*
X0059155Y0246842D02*
X0053053Y0246842D01*
X0053053Y0245844D02*
X0054001Y0245844D01*
X0054240Y0247841D02*
X0052751Y0247841D01*
X0053242Y0248840D02*
X0051752Y0248840D01*
X0050754Y0249838D02*
X0052774Y0249838D01*
X0052547Y0250837D02*
X0049755Y0250837D01*
X0048757Y0251835D02*
X0052547Y0251835D01*
X0052910Y0252834D02*
X0049244Y0252834D01*
X0050013Y0253832D02*
X0053571Y0253832D01*
X0052589Y0254831D02*
X0050427Y0254831D01*
X0050453Y0255829D02*
X0051591Y0255829D01*
X0050592Y0256828D02*
X0050303Y0256828D01*
X0049947Y0257826D02*
X0049889Y0257826D01*
X0049947Y0258825D02*
X0048945Y0258825D01*
X0049392Y0259823D02*
X0040453Y0259823D01*
X0040453Y0259401D02*
X0039851Y0257948D01*
X0038739Y0256836D01*
X0037286Y0256234D01*
X0035714Y0256234D01*
X0034261Y0256836D01*
X0033149Y0257948D01*
X0032547Y0259401D01*
X0032547Y0260973D01*
X0033149Y0262426D01*
X0034261Y0263538D01*
X0035714Y0264140D01*
X0037286Y0264140D01*
X0038739Y0263538D01*
X0039851Y0262426D01*
X0040453Y0260973D01*
X0040453Y0259401D01*
X0040214Y0258825D02*
X0044055Y0258825D01*
X0043111Y0257826D02*
X0039729Y0257826D01*
X0038719Y0256828D02*
X0042697Y0256828D01*
X0042547Y0255829D02*
X0003500Y0255829D01*
X0003500Y0254831D02*
X0035005Y0254831D01*
X0033571Y0253832D02*
X0003500Y0253832D01*
X0003500Y0252834D02*
X0032910Y0252834D01*
X0032547Y0251835D02*
X0003500Y0251835D01*
X0003500Y0250837D02*
X0003699Y0250837D01*
X0003584Y0247841D02*
X0003500Y0247841D01*
X0003500Y0246842D02*
X0038953Y0246842D01*
X0038953Y0245844D02*
X0037924Y0245844D01*
X0038760Y0247841D02*
X0038953Y0247841D01*
X0040453Y0251835D02*
X0040676Y0251835D01*
X0040090Y0252834D02*
X0041675Y0252834D01*
X0042673Y0253832D02*
X0039429Y0253832D01*
X0037995Y0254831D02*
X0042573Y0254831D01*
X0040453Y0260822D02*
X0045522Y0260822D01*
X0047478Y0260822D02*
X0048393Y0260822D01*
X0043785Y0261820D02*
X0040102Y0261820D01*
X0039458Y0262819D02*
X0042999Y0262819D01*
X0042585Y0263817D02*
X0038065Y0263817D01*
X0037286Y0265250D02*
X0038739Y0265852D01*
X0039851Y0266964D01*
X0040453Y0268416D01*
X0040453Y0269989D01*
X0039851Y0271442D01*
X0038739Y0272554D01*
X0037286Y0273155D01*
X0035714Y0273155D01*
X0034261Y0272554D01*
X0033149Y0271442D01*
X0032547Y0269989D01*
X0032547Y0268416D01*
X0033149Y0266964D01*
X0034261Y0265852D01*
X0035714Y0265250D01*
X0037286Y0265250D01*
X0038648Y0265814D02*
X0042685Y0265814D01*
X0042547Y0264816D02*
X0003500Y0264816D01*
X0003500Y0265814D02*
X0034352Y0265814D01*
X0033300Y0266813D02*
X0003500Y0266813D01*
X0003500Y0267811D02*
X0032798Y0267811D01*
X0032547Y0268810D02*
X0003500Y0268810D01*
X0003500Y0269808D02*
X0032547Y0269808D01*
X0032886Y0270807D02*
X0003500Y0270807D01*
X0003500Y0271805D02*
X0033512Y0271805D01*
X0034865Y0272804D02*
X0003500Y0272804D01*
X0003500Y0273802D02*
X0042547Y0273802D01*
X0042597Y0272804D02*
X0038135Y0272804D01*
X0039488Y0271805D02*
X0043011Y0271805D01*
X0043814Y0270807D02*
X0040114Y0270807D01*
X0040453Y0269808D02*
X0045100Y0269808D01*
X0045854Y0268810D02*
X0040453Y0268810D01*
X0040202Y0267811D02*
X0044026Y0267811D01*
X0043099Y0266813D02*
X0039700Y0266813D01*
X0034935Y0263817D02*
X0003500Y0263817D01*
X0003500Y0262819D02*
X0033542Y0262819D01*
X0032898Y0261820D02*
X0003500Y0261820D01*
X0003500Y0260822D02*
X0032547Y0260822D01*
X0032547Y0259823D02*
X0003500Y0259823D01*
X0003500Y0258825D02*
X0032786Y0258825D01*
X0033271Y0257826D02*
X0003500Y0257826D01*
X0003500Y0256828D02*
X0034281Y0256828D01*
X0032547Y0250837D02*
X0007175Y0250837D01*
X0007766Y0249838D02*
X0032774Y0249838D01*
X0033242Y0248840D02*
X0007766Y0248840D01*
X0007290Y0247841D02*
X0034240Y0247841D01*
X0035076Y0245844D02*
X0003500Y0245844D01*
X0003500Y0244845D02*
X0033600Y0244845D01*
X0032922Y0243847D02*
X0003500Y0243847D01*
X0003500Y0242848D02*
X0032547Y0242848D01*
X0032547Y0241850D02*
X0003500Y0241850D01*
X0003500Y0240851D02*
X0032762Y0240851D01*
X0033213Y0239853D02*
X0003500Y0239853D01*
X0003500Y0238854D02*
X0034211Y0238854D01*
X0036507Y0237856D02*
X0003500Y0237856D01*
X0003500Y0236857D02*
X0036507Y0236857D01*
X0036507Y0235859D02*
X0003500Y0235859D01*
X0003500Y0234860D02*
X0036507Y0234860D01*
X0036507Y0233862D02*
X0003500Y0233862D01*
X0003500Y0232863D02*
X0036507Y0232863D01*
X0036507Y0231865D02*
X0003500Y0231865D01*
X0003500Y0230866D02*
X0036507Y0230866D01*
X0036507Y0229868D02*
X0003500Y0229868D01*
X0003500Y0228869D02*
X0036507Y0228869D01*
X0036507Y0227871D02*
X0003500Y0227871D01*
X0003500Y0226872D02*
X0036507Y0226872D01*
X0036507Y0225874D02*
X0003500Y0225874D01*
X0003500Y0224875D02*
X0036507Y0224875D01*
X0036507Y0223877D02*
X0003500Y0223877D01*
X0003500Y0222878D02*
X0036507Y0222878D01*
X0036507Y0221880D02*
X0003500Y0221880D01*
X0003500Y0220881D02*
X0036507Y0220881D01*
X0036507Y0219883D02*
X0003500Y0219883D01*
X0003500Y0218884D02*
X0036507Y0218884D01*
X0036507Y0217886D02*
X0003500Y0217886D01*
X0003500Y0216887D02*
X0036507Y0216887D01*
X0036507Y0215889D02*
X0003500Y0215889D01*
X0003500Y0214890D02*
X0036507Y0214890D01*
X0036507Y0213892D02*
X0003500Y0213892D01*
X0003500Y0212893D02*
X0036507Y0212893D01*
X0036507Y0211895D02*
X0003500Y0211895D01*
X0003500Y0210896D02*
X0036507Y0210896D01*
X0036507Y0209898D02*
X0003500Y0209898D01*
X0003500Y0208899D02*
X0036507Y0208899D01*
X0036507Y0207901D02*
X0003500Y0207901D01*
X0003500Y0206902D02*
X0036507Y0206902D01*
X0036507Y0205904D02*
X0003500Y0205904D01*
X0003500Y0204905D02*
X0036507Y0204905D01*
X0036507Y0203907D02*
X0003500Y0203907D01*
X0003500Y0202908D02*
X0036507Y0202908D01*
X0036507Y0201909D02*
X0003500Y0201909D01*
X0003500Y0200911D02*
X0036507Y0200911D01*
X0036507Y0199912D02*
X0003500Y0199912D01*
X0003500Y0198914D02*
X0036507Y0198914D01*
X0036507Y0197915D02*
X0003500Y0197915D01*
X0003500Y0196917D02*
X0036507Y0196917D01*
X0036507Y0195918D02*
X0003500Y0195918D01*
X0003500Y0194920D02*
X0036507Y0194920D01*
X0036507Y0193921D02*
X0003500Y0193921D01*
X0003500Y0192923D02*
X0036507Y0192923D01*
X0036507Y0191924D02*
X0003500Y0191924D01*
X0003500Y0190926D02*
X0036507Y0190926D01*
X0036507Y0189927D02*
X0003500Y0189927D01*
X0003500Y0188929D02*
X0036507Y0188929D01*
X0036507Y0187930D02*
X0003500Y0187930D01*
X0003500Y0186932D02*
X0036507Y0186932D01*
X0036507Y0185933D02*
X0003500Y0185933D01*
X0003500Y0184935D02*
X0036507Y0184935D01*
X0036507Y0183936D02*
X0007146Y0183936D01*
X0007766Y0182938D02*
X0036507Y0182938D01*
X0036507Y0181939D02*
X0007766Y0181939D01*
X0007319Y0180941D02*
X0036507Y0180941D01*
X0036507Y0179942D02*
X0003500Y0179942D01*
X0003500Y0178944D02*
X0036507Y0178944D01*
X0036507Y0177945D02*
X0003500Y0177945D01*
X0003500Y0176947D02*
X0036507Y0176947D01*
X0036507Y0175948D02*
X0003500Y0175948D01*
X0003500Y0174950D02*
X0036507Y0174950D01*
X0036507Y0173951D02*
X0003500Y0173951D01*
X0003500Y0172953D02*
X0036507Y0172953D01*
X0036507Y0171954D02*
X0003500Y0171954D01*
X0003500Y0170956D02*
X0036507Y0170956D01*
X0037247Y0169957D02*
X0003500Y0169957D01*
X0003500Y0168959D02*
X0038246Y0168959D01*
X0039244Y0167960D02*
X0003500Y0167960D01*
X0003500Y0166962D02*
X0040243Y0166962D01*
X0041241Y0165963D02*
X0003500Y0165963D01*
X0003500Y0164965D02*
X0041401Y0164965D01*
X0041401Y0163966D02*
X0003500Y0163966D01*
X0003500Y0162968D02*
X0041401Y0162968D01*
X0041401Y0161969D02*
X0003500Y0161969D01*
X0003500Y0160971D02*
X0041401Y0160971D01*
X0041401Y0159972D02*
X0003500Y0159972D01*
X0003500Y0158973D02*
X0041401Y0158973D01*
X0041401Y0157975D02*
X0003500Y0157975D01*
X0003500Y0156976D02*
X0041401Y0156976D01*
X0041401Y0155978D02*
X0003500Y0155978D01*
X0003500Y0154979D02*
X0041401Y0154979D01*
X0041401Y0153981D02*
X0003500Y0153981D01*
X0003500Y0152982D02*
X0041401Y0152982D01*
X0041401Y0151984D02*
X0003500Y0151984D01*
X0003500Y0150985D02*
X0041401Y0150985D01*
X0041401Y0149987D02*
X0003500Y0149987D01*
X0003500Y0148988D02*
X0041401Y0148988D01*
X0041401Y0147990D02*
X0038666Y0147990D01*
X0038893Y0147896D02*
X0037440Y0148498D01*
X0035867Y0148498D01*
X0034415Y0147896D01*
X0033303Y0146784D01*
X0032701Y0145331D01*
X0032701Y0143759D01*
X0033303Y0142306D01*
X0034415Y0141194D01*
X0035867Y0140592D01*
X0037440Y0140592D01*
X0038893Y0141194D01*
X0040005Y0142306D01*
X0040606Y0143759D01*
X0040606Y0145331D01*
X0040005Y0146784D01*
X0038893Y0147896D01*
X0039797Y0146991D02*
X0041401Y0146991D01*
X0041401Y0145993D02*
X0040332Y0145993D01*
X0040606Y0144994D02*
X0041401Y0144994D01*
X0041401Y0143996D02*
X0040606Y0143996D01*
X0040291Y0142997D02*
X0041401Y0142997D01*
X0041401Y0141999D02*
X0039698Y0141999D01*
X0038426Y0141000D02*
X0041401Y0141000D01*
X0041401Y0140002D02*
X0003500Y0140002D01*
X0003500Y0141000D02*
X0004126Y0141000D01*
X0003500Y0139003D02*
X0034712Y0139003D01*
X0034415Y0138880D02*
X0033303Y0137768D01*
X0032701Y0136315D01*
X0032701Y0134743D01*
X0033303Y0133290D01*
X0034415Y0132178D01*
X0035867Y0131576D01*
X0037440Y0131576D01*
X0038893Y0132178D01*
X0040005Y0133290D01*
X0040606Y0134743D01*
X0040606Y0136315D01*
X0040005Y0137768D01*
X0038893Y0138880D01*
X0037440Y0139482D01*
X0035867Y0139482D01*
X0034415Y0138880D01*
X0033539Y0138005D02*
X0003500Y0138005D01*
X0003500Y0137006D02*
X0032987Y0137006D01*
X0032701Y0136008D02*
X0003500Y0136008D01*
X0003500Y0135009D02*
X0032701Y0135009D01*
X0033004Y0134011D02*
X0003500Y0134011D01*
X0003500Y0133012D02*
X0033581Y0133012D01*
X0034812Y0132014D02*
X0003500Y0132014D01*
X0003500Y0131015D02*
X0041401Y0131015D01*
X0041401Y0130017D02*
X0038525Y0130017D01*
X0038893Y0129864D02*
X0037440Y0130466D01*
X0035867Y0130466D01*
X0034415Y0129864D01*
X0033303Y0128752D01*
X0032701Y0127300D01*
X0032701Y0125727D01*
X0033303Y0124274D01*
X0034415Y0123162D01*
X0035867Y0122561D01*
X0037440Y0122561D01*
X0038893Y0123162D01*
X0040005Y0124274D01*
X0040606Y0125727D01*
X0040606Y0127300D01*
X0040005Y0128752D01*
X0038893Y0129864D01*
X0039739Y0129018D02*
X0041401Y0129018D01*
X0042227Y0128020D02*
X0040308Y0128020D01*
X0040606Y0127021D02*
X0043225Y0127021D01*
X0044224Y0126023D02*
X0040606Y0126023D01*
X0040315Y0125024D02*
X0044082Y0125024D01*
X0043212Y0124026D02*
X0039756Y0124026D01*
X0038566Y0123027D02*
X0042798Y0123027D01*
X0042701Y0122029D02*
X0003500Y0122029D01*
X0003500Y0123027D02*
X0034741Y0123027D01*
X0033551Y0124026D02*
X0003500Y0124026D01*
X0003500Y0125024D02*
X0032992Y0125024D01*
X0032701Y0126023D02*
X0003500Y0126023D01*
X0003500Y0127021D02*
X0032701Y0127021D01*
X0032999Y0128020D02*
X0003500Y0128020D01*
X0003500Y0129018D02*
X0033569Y0129018D01*
X0034783Y0130017D02*
X0003500Y0130017D01*
X0003500Y0121030D02*
X0034853Y0121030D01*
X0033598Y0120032D02*
X0003500Y0120032D01*
X0003500Y0119033D02*
X0033011Y0119033D01*
X0032701Y0118035D02*
X0003500Y0118035D01*
X0003500Y0117036D02*
X0032701Y0117036D01*
X0032980Y0116038D02*
X0003500Y0116038D01*
X0003500Y0115039D02*
X0033522Y0115039D01*
X0034671Y0114040D02*
X0003500Y0114040D01*
X0003500Y0113042D02*
X0040101Y0113042D01*
X0040101Y0114040D02*
X0038637Y0114040D01*
X0039785Y0115039D02*
X0040101Y0115039D01*
X0040101Y0112043D02*
X0038384Y0112043D01*
X0039681Y0111045D02*
X0040101Y0111045D01*
X0040101Y0106052D02*
X0039814Y0106052D01*
X0040101Y0105054D02*
X0038707Y0105054D01*
X0040101Y0104055D02*
X0003500Y0104055D01*
X0003500Y0103057D02*
X0040101Y0103057D01*
X0040101Y0102058D02*
X0003500Y0102058D01*
X0003500Y0101060D02*
X0040301Y0101060D01*
X0040921Y0100440D02*
X0040921Y0100440D01*
X0041299Y0100061D02*
X0003500Y0100061D01*
X0003500Y0099063D02*
X0042298Y0099063D01*
X0043119Y0098241D02*
X0043119Y0098241D01*
X0043296Y0098064D02*
X0003500Y0098064D01*
X0003500Y0097066D02*
X0057723Y0097066D01*
X0058722Y0096067D02*
X0003500Y0096067D01*
X0003500Y0095069D02*
X0059720Y0095069D01*
X0060719Y0094070D02*
X0003500Y0094070D01*
X0003500Y0093072D02*
X0061717Y0093072D01*
X0062716Y0092073D02*
X0003500Y0092073D01*
X0003500Y0091075D02*
X0063714Y0091075D01*
X0064713Y0090076D02*
X0003500Y0090076D01*
X0003500Y0089078D02*
X0065711Y0089078D01*
X0066710Y0088079D02*
X0003500Y0088079D01*
X0003500Y0087081D02*
X0067708Y0087081D01*
X0068707Y0086082D02*
X0003500Y0086082D01*
X0003500Y0085084D02*
X0069705Y0085084D01*
X0070704Y0084085D02*
X0050472Y0084085D01*
X0051578Y0083627D02*
X0048383Y0084950D01*
X0044925Y0084950D01*
X0041730Y0083627D01*
X0039284Y0081182D01*
X0037961Y0077987D01*
X0037961Y0074528D01*
X0039284Y0071333D01*
X0041730Y0068888D01*
X0044925Y0067565D01*
X0048383Y0067565D01*
X0051578Y0068888D01*
X0054023Y0071333D01*
X0055347Y0074528D01*
X0055347Y0077987D01*
X0054023Y0081182D01*
X0051578Y0083627D01*
X0052118Y0083087D02*
X0071702Y0083087D01*
X0072701Y0082088D02*
X0053117Y0082088D01*
X0054061Y0081090D02*
X0073699Y0081090D01*
X0074698Y0080091D02*
X0054475Y0080091D01*
X0054888Y0079093D02*
X0075696Y0079093D01*
X0076695Y0078094D02*
X0055302Y0078094D01*
X0055347Y0077096D02*
X0077693Y0077096D01*
X0078692Y0076097D02*
X0055347Y0076097D01*
X0055347Y0075099D02*
X0079690Y0075099D01*
X0080689Y0074100D02*
X0055169Y0074100D01*
X0054756Y0073102D02*
X0081688Y0073102D01*
X0082686Y0072103D02*
X0054342Y0072103D01*
X0053794Y0071105D02*
X0083685Y0071105D01*
X0084683Y0070106D02*
X0052796Y0070106D01*
X0051797Y0069107D02*
X0085682Y0069107D01*
X0086680Y0068109D02*
X0049697Y0068109D01*
X0043610Y0068109D02*
X0003500Y0068109D01*
X0003500Y0069107D02*
X0041510Y0069107D01*
X0040511Y0070106D02*
X0003500Y0070106D01*
X0003500Y0071105D02*
X0039513Y0071105D01*
X0038965Y0072103D02*
X0003500Y0072103D01*
X0003500Y0073102D02*
X0038552Y0073102D01*
X0038138Y0074100D02*
X0006777Y0074100D01*
X0007766Y0075099D02*
X0037961Y0075099D01*
X0037961Y0076097D02*
X0007766Y0076097D01*
X0007688Y0077096D02*
X0037961Y0077096D01*
X0038005Y0078094D02*
X0006689Y0078094D01*
X0004185Y0078094D02*
X0003500Y0078094D01*
X0003500Y0079093D02*
X0038419Y0079093D01*
X0038833Y0080091D02*
X0003500Y0080091D01*
X0003500Y0081090D02*
X0039246Y0081090D01*
X0040191Y0082088D02*
X0003500Y0082088D01*
X0003500Y0083087D02*
X0041189Y0083087D01*
X0042836Y0084085D02*
X0003500Y0084085D01*
X0003500Y0074100D02*
X0004097Y0074100D01*
X0003500Y0067110D02*
X0087679Y0067110D01*
X0088677Y0066112D02*
X0035910Y0066112D01*
X0035789Y0066233D02*
X0034140Y0066233D01*
X0032974Y0065067D01*
X0032974Y0063418D01*
X0034140Y0062252D01*
X0035789Y0062252D01*
X0036955Y0063418D01*
X0036955Y0065067D01*
X0035789Y0066233D01*
X0036908Y0065113D02*
X0089676Y0065113D01*
X0090674Y0064115D02*
X0036955Y0064115D01*
X0036654Y0063116D02*
X0091673Y0063116D01*
X0092671Y0062118D02*
X0003500Y0062118D01*
X0003500Y0063116D02*
X0023433Y0063116D01*
X0023131Y0063418D02*
X0024298Y0062252D01*
X0025947Y0062252D01*
X0027113Y0063418D01*
X0027113Y0065067D01*
X0025947Y0066233D01*
X0024298Y0066233D01*
X0023131Y0065067D01*
X0023131Y0063418D01*
X0023131Y0064115D02*
X0003500Y0064115D01*
X0003500Y0065113D02*
X0023178Y0065113D01*
X0024177Y0066112D02*
X0003500Y0066112D01*
X0003500Y0061119D02*
X0093670Y0061119D01*
X0094668Y0060121D02*
X0003500Y0060121D01*
X0003500Y0059122D02*
X0095667Y0059122D01*
X0096665Y0058124D02*
X0003500Y0058124D01*
X0003500Y0057125D02*
X0097664Y0057125D01*
X0098662Y0056127D02*
X0003500Y0056127D01*
X0018450Y0048139D02*
X0042030Y0048139D01*
X0041242Y0047140D02*
X0019239Y0047140D01*
X0019239Y0046142D02*
X0041242Y0046142D01*
X0041800Y0045143D02*
X0022118Y0045143D01*
X0020253Y0045143D02*
X0018681Y0045143D01*
X0026811Y0063116D02*
X0033275Y0063116D01*
X0032974Y0064115D02*
X0027113Y0064115D01*
X0027066Y0065113D02*
X0033021Y0065113D01*
X0034019Y0066112D02*
X0026067Y0066112D01*
X0044434Y0048139D02*
X0067817Y0048139D01*
X0068264Y0047140D02*
X0045223Y0047140D01*
X0042447Y0027266D02*
X0040868Y0027266D01*
X0039409Y0026662D01*
X0038293Y0025545D01*
X0037689Y0024087D01*
X0037689Y0022508D01*
X0038293Y0021049D01*
X0039409Y0019933D01*
X0040868Y0019329D01*
X0042447Y0019329D01*
X0043905Y0019933D01*
X0045022Y0021049D01*
X0045626Y0022508D01*
X0045626Y0024087D01*
X0045022Y0025545D01*
X0043905Y0026662D01*
X0042447Y0027266D01*
X0042678Y0027170D02*
X0077213Y0027170D01*
X0075845Y0026171D02*
X0044396Y0026171D01*
X0045176Y0025173D02*
X0075209Y0025173D01*
X0074861Y0024174D02*
X0045590Y0024174D01*
X0045626Y0023176D02*
X0074861Y0023176D01*
X0075100Y0022177D02*
X0045489Y0022177D01*
X0045076Y0021179D02*
X0075582Y0021179D01*
X0076581Y0020180D02*
X0044153Y0020180D01*
X0039162Y0020180D02*
X0026830Y0020180D01*
X0027753Y0021179D02*
X0038239Y0021179D01*
X0037826Y0022177D02*
X0028166Y0022177D01*
X0028303Y0023176D02*
X0037689Y0023176D01*
X0037725Y0024174D02*
X0028267Y0024174D01*
X0027853Y0025173D02*
X0038139Y0025173D01*
X0038919Y0026171D02*
X0027073Y0026171D01*
X0025355Y0027170D02*
X0040637Y0027170D01*
X0004213Y0011194D02*
X0003500Y0011194D01*
X0082950Y0046142D02*
X0108647Y0046142D01*
X0107649Y0047140D02*
X0083948Y0047140D01*
X0084002Y0048139D02*
X0106650Y0048139D01*
X0105652Y0049137D02*
X0083872Y0049137D01*
X0098311Y0064115D02*
X0099500Y0064115D01*
X0099500Y0065113D02*
X0097312Y0065113D01*
X0096314Y0066112D02*
X0099591Y0066112D01*
X0100004Y0067110D02*
X0095315Y0067110D01*
X0094317Y0068109D02*
X0100418Y0068109D01*
X0100928Y0069107D02*
X0093318Y0069107D01*
X0092320Y0070106D02*
X0101926Y0070106D01*
X0102925Y0071105D02*
X0091321Y0071105D01*
X0090323Y0072103D02*
X0105090Y0072103D01*
X0110508Y0072103D02*
X0342053Y0072103D01*
X0342465Y0071108D02*
X0344910Y0068662D01*
X0348105Y0067339D01*
X0351564Y0067339D01*
X0354759Y0068662D01*
X0357204Y0071108D01*
X0358527Y0074303D01*
X0358527Y0077761D01*
X0357204Y0080956D01*
X0354759Y0083401D01*
X0351564Y0084725D01*
X0348105Y0084725D01*
X0344910Y0083401D01*
X0342465Y0080956D01*
X0341142Y0077761D01*
X0341142Y0074303D01*
X0342465Y0071108D01*
X0342468Y0071105D02*
X0112674Y0071105D01*
X0113672Y0070106D02*
X0294783Y0070106D01*
X0294426Y0069749D02*
X0294004Y0068730D01*
X0294004Y0067628D01*
X0294426Y0066609D01*
X0295206Y0065829D01*
X0296224Y0065407D01*
X0297327Y0065407D01*
X0298346Y0065829D01*
X0299125Y0066609D01*
X0299547Y0067628D01*
X0299547Y0068730D01*
X0299125Y0069749D01*
X0298346Y0070529D01*
X0297327Y0070951D01*
X0296224Y0070951D01*
X0295206Y0070529D01*
X0294426Y0069749D01*
X0294160Y0069107D02*
X0114671Y0069107D01*
X0115181Y0068109D02*
X0294004Y0068109D01*
X0294218Y0067110D02*
X0115594Y0067110D01*
X0116008Y0066112D02*
X0294923Y0066112D01*
X0298628Y0066112D02*
X0370903Y0066112D01*
X0371901Y0067110D02*
X0299333Y0067110D01*
X0299547Y0068109D02*
X0346246Y0068109D01*
X0344465Y0069107D02*
X0299391Y0069107D01*
X0298768Y0070106D02*
X0343467Y0070106D01*
X0341639Y0073102D02*
X0089324Y0073102D01*
X0088326Y0074100D02*
X0091189Y0074100D01*
X0090191Y0075099D02*
X0087327Y0075099D01*
X0086329Y0076097D02*
X0090061Y0076097D01*
X0090279Y0077096D02*
X0085330Y0077096D01*
X0084332Y0078094D02*
X0087195Y0078094D01*
X0086197Y0079093D02*
X0083333Y0079093D01*
X0082335Y0080091D02*
X0086124Y0080091D01*
X0086399Y0081090D02*
X0081336Y0081090D01*
X0080338Y0082088D02*
X0091886Y0082088D01*
X0092885Y0083087D02*
X0079339Y0083087D01*
X0078341Y0084085D02*
X0093883Y0084085D01*
X0094882Y0085084D02*
X0077342Y0085084D01*
X0076344Y0086082D02*
X0095880Y0086082D01*
X0096879Y0087081D02*
X0075345Y0087081D01*
X0074347Y0088079D02*
X0097877Y0088079D01*
X0098876Y0089078D02*
X0073348Y0089078D01*
X0072350Y0090076D02*
X0099875Y0090076D01*
X0100873Y0091075D02*
X0071351Y0091075D01*
X0070353Y0092073D02*
X0101872Y0092073D01*
X0102870Y0093072D02*
X0069354Y0093072D01*
X0068356Y0094070D02*
X0103869Y0094070D01*
X0104867Y0095069D02*
X0067357Y0095069D01*
X0066358Y0096067D02*
X0105866Y0096067D01*
X0106864Y0097066D02*
X0065360Y0097066D01*
X0064361Y0098064D02*
X0066692Y0098064D01*
X0066340Y0098416D02*
X0067564Y0097193D01*
X0069294Y0097193D01*
X0070518Y0098416D01*
X0070518Y0100147D01*
X0069294Y0101370D01*
X0067564Y0101370D01*
X0066340Y0100147D01*
X0066340Y0098416D01*
X0066340Y0099063D02*
X0063363Y0099063D01*
X0062364Y0100061D02*
X0066340Y0100061D01*
X0067253Y0101060D02*
X0061366Y0101060D01*
X0060367Y0102058D02*
X0111857Y0102058D01*
X0112855Y0103057D02*
X0059369Y0103057D01*
X0058370Y0104055D02*
X0113854Y0104055D01*
X0114852Y0105054D02*
X0059511Y0105054D01*
X0060393Y0106052D02*
X0115851Y0106052D01*
X0116849Y0107051D02*
X0060871Y0107051D01*
X0061072Y0109048D02*
X0118846Y0109048D01*
X0117848Y0108049D02*
X0057138Y0108049D01*
X0056169Y0108049D02*
X0049142Y0108049D01*
X0049167Y0107051D02*
X0052437Y0107051D01*
X0052915Y0106052D02*
X0050071Y0106052D01*
X0050140Y0109048D02*
X0052235Y0109048D01*
X0052222Y0108966D02*
X0056169Y0108966D01*
X0056169Y0112913D01*
X0055611Y0112825D01*
X0054944Y0112608D01*
X0054320Y0112290D01*
X0053753Y0111878D01*
X0053257Y0111383D01*
X0052845Y0110816D01*
X0052527Y0110191D01*
X0052311Y0109525D01*
X0052222Y0108966D01*
X0052480Y0110046D02*
X0051139Y0110046D01*
X0052138Y0111045D02*
X0053012Y0111045D01*
X0053136Y0112043D02*
X0053980Y0112043D01*
X0053207Y0113042D02*
X0122840Y0113042D01*
X0121842Y0112043D02*
X0059327Y0112043D01*
X0060295Y0111045D02*
X0120843Y0111045D01*
X0119845Y0110046D02*
X0060827Y0110046D01*
X0057138Y0110046D02*
X0056169Y0110046D01*
X0056169Y0109048D02*
X0057138Y0109048D01*
X0057138Y0111045D02*
X0056169Y0111045D01*
X0056169Y0112043D02*
X0057138Y0112043D01*
X0058637Y0114040D02*
X0123839Y0114040D01*
X0124837Y0115039D02*
X0099186Y0115039D01*
X0099394Y0115125D02*
X0100381Y0116112D01*
X0100915Y0117402D01*
X0100915Y0118799D01*
X0100381Y0120089D01*
X0099394Y0121076D01*
X0098104Y0121610D01*
X0096707Y0121610D01*
X0095417Y0121076D01*
X0094430Y0120089D01*
X0093896Y0118799D01*
X0093896Y0117402D01*
X0094430Y0116112D01*
X0095417Y0115125D01*
X0096707Y0114591D01*
X0098104Y0114591D01*
X0099394Y0115125D01*
X0100306Y0116038D02*
X0124426Y0116038D01*
X0123969Y0117036D02*
X0100764Y0117036D01*
X0100915Y0118035D02*
X0123817Y0118035D01*
X0123914Y0119033D02*
X0100818Y0119033D01*
X0100405Y0120032D02*
X0124328Y0120032D01*
X0125293Y0121030D02*
X0099439Y0121030D01*
X0095372Y0121030D02*
X0085462Y0121030D01*
X0085042Y0121449D02*
X0083312Y0121449D01*
X0082088Y0120226D01*
X0082088Y0118495D01*
X0083312Y0117271D01*
X0085042Y0117271D01*
X0086266Y0118495D01*
X0086266Y0120226D01*
X0085042Y0121449D01*
X0086266Y0120032D02*
X0094406Y0120032D01*
X0093993Y0119033D02*
X0086266Y0119033D01*
X0085806Y0118035D02*
X0093896Y0118035D01*
X0094047Y0117036D02*
X0060606Y0117036D01*
X0060606Y0118035D02*
X0082549Y0118035D01*
X0082088Y0119033D02*
X0060296Y0119033D01*
X0059710Y0120032D02*
X0082088Y0120032D01*
X0082893Y0121030D02*
X0058455Y0121030D01*
X0058566Y0123027D02*
X0134006Y0123027D01*
X0133008Y0122029D02*
X0053207Y0122029D01*
X0053207Y0123027D02*
X0054741Y0123027D01*
X0053551Y0124026D02*
X0053207Y0124026D01*
X0053207Y0121030D02*
X0054853Y0121030D01*
X0053598Y0120032D02*
X0053207Y0120032D01*
X0053207Y0115039D02*
X0053522Y0115039D01*
X0053207Y0114040D02*
X0054671Y0114040D01*
X0059785Y0115039D02*
X0095625Y0115039D01*
X0094505Y0116038D02*
X0060327Y0116038D01*
X0059756Y0124026D02*
X0135005Y0124026D01*
X0136004Y0125024D02*
X0060315Y0125024D01*
X0060606Y0126023D02*
X0137002Y0126023D01*
X0138001Y0127021D02*
X0060606Y0127021D01*
X0060308Y0128020D02*
X0138999Y0128020D01*
X0139998Y0129018D02*
X0059739Y0129018D01*
X0058525Y0130017D02*
X0140996Y0130017D01*
X0141995Y0131015D02*
X0053207Y0131015D01*
X0053207Y0130017D02*
X0054783Y0130017D01*
X0053569Y0129018D02*
X0053207Y0129018D01*
X0053207Y0132014D02*
X0054812Y0132014D01*
X0053581Y0133012D02*
X0053207Y0133012D01*
X0053207Y0138005D02*
X0053539Y0138005D01*
X0053207Y0139003D02*
X0054712Y0139003D01*
X0053207Y0140002D02*
X0078636Y0140002D01*
X0078981Y0140347D02*
X0077757Y0139123D01*
X0077757Y0137393D01*
X0078981Y0136169D01*
X0080712Y0136169D01*
X0081935Y0137393D01*
X0081935Y0139123D01*
X0080712Y0140347D01*
X0078981Y0140347D01*
X0077757Y0139003D02*
X0058595Y0139003D01*
X0059768Y0138005D02*
X0077757Y0138005D01*
X0078144Y0137006D02*
X0060320Y0137006D01*
X0060606Y0136008D02*
X0149380Y0136008D01*
X0150378Y0137006D02*
X0081549Y0137006D01*
X0081935Y0138005D02*
X0106025Y0138005D01*
X0105809Y0139003D02*
X0081935Y0139003D01*
X0081057Y0140002D02*
X0104421Y0140002D01*
X0103446Y0141000D02*
X0058426Y0141000D01*
X0054882Y0141000D02*
X0053207Y0141000D01*
X0053207Y0141999D02*
X0053610Y0141999D01*
X0053510Y0146991D02*
X0053207Y0146991D01*
X0041401Y0139003D02*
X0038595Y0139003D01*
X0039768Y0138005D02*
X0041401Y0138005D01*
X0041401Y0137006D02*
X0040320Y0137006D01*
X0040606Y0136008D02*
X0041401Y0136008D01*
X0041401Y0135009D02*
X0040606Y0135009D01*
X0040303Y0134011D02*
X0041401Y0134011D01*
X0041401Y0133012D02*
X0039727Y0133012D01*
X0038496Y0132014D02*
X0041401Y0132014D01*
X0034882Y0141000D02*
X0006748Y0141000D01*
X0007747Y0141999D02*
X0033610Y0141999D01*
X0033016Y0142997D02*
X0007766Y0142997D01*
X0007717Y0143996D02*
X0032701Y0143996D01*
X0032701Y0144994D02*
X0006718Y0144994D01*
X0004156Y0144994D02*
X0003500Y0144994D01*
X0003500Y0145993D02*
X0032975Y0145993D01*
X0033510Y0146991D02*
X0003500Y0146991D01*
X0003500Y0147990D02*
X0034642Y0147990D01*
X0058496Y0132014D02*
X0142993Y0132014D01*
X0143992Y0133012D02*
X0059727Y0133012D01*
X0060303Y0134011D02*
X0144990Y0134011D01*
X0148381Y0135009D02*
X0060606Y0135009D01*
X0075599Y0145993D02*
X0113785Y0145993D01*
X0113683Y0146991D02*
X0113442Y0146991D01*
X0114783Y0144994D02*
X0076522Y0144994D01*
X0107056Y0142997D02*
X0156369Y0142997D01*
X0155371Y0141999D02*
X0107428Y0141999D01*
X0108659Y0141000D02*
X0154372Y0141000D01*
X0153374Y0140002D02*
X0109658Y0140002D01*
X0109790Y0139003D02*
X0152375Y0139003D01*
X0151377Y0138005D02*
X0109574Y0138005D01*
X0129361Y0121030D02*
X0132009Y0121030D01*
X0131011Y0120032D02*
X0130326Y0120032D01*
X0134028Y0113042D02*
X0170435Y0113042D01*
X0169785Y0112043D02*
X0133030Y0112043D01*
X0132031Y0111045D02*
X0169785Y0111045D01*
X0170319Y0110046D02*
X0131033Y0110046D01*
X0130034Y0109048D02*
X0172935Y0109048D01*
X0172935Y0109243D02*
X0172935Y0107431D01*
X0174216Y0106149D01*
X0176028Y0106149D01*
X0177309Y0107431D01*
X0177309Y0109243D01*
X0176028Y0110524D01*
X0174216Y0110524D01*
X0172935Y0109243D01*
X0173626Y0110046D02*
X0173738Y0110046D01*
X0174160Y0111045D02*
X0232750Y0111045D01*
X0231752Y0110046D02*
X0176506Y0110046D01*
X0177309Y0109048D02*
X0204769Y0109048D01*
X0205359Y0109638D02*
X0204135Y0108414D01*
X0204135Y0106684D01*
X0205359Y0105460D01*
X0207090Y0105460D01*
X0208313Y0106684D01*
X0208313Y0108414D01*
X0207090Y0109638D01*
X0205359Y0109638D01*
X0204135Y0108049D02*
X0177309Y0108049D01*
X0176930Y0107051D02*
X0204135Y0107051D01*
X0204767Y0106052D02*
X0127039Y0106052D01*
X0128037Y0107051D02*
X0173314Y0107051D01*
X0172935Y0108049D02*
X0129036Y0108049D01*
X0127356Y0110046D02*
X0124370Y0110046D01*
X0123372Y0109048D02*
X0126357Y0109048D01*
X0125359Y0108049D02*
X0122373Y0108049D01*
X0121375Y0107051D02*
X0124360Y0107051D01*
X0123362Y0106052D02*
X0120376Y0106052D01*
X0119378Y0105054D02*
X0122363Y0105054D01*
X0121365Y0104055D02*
X0118379Y0104055D01*
X0117381Y0103057D02*
X0120366Y0103057D01*
X0119368Y0102058D02*
X0116382Y0102058D01*
X0115384Y0101060D02*
X0118369Y0101060D01*
X0117371Y0100061D02*
X0114385Y0100061D01*
X0113387Y0099063D02*
X0116372Y0099063D01*
X0115373Y0098064D02*
X0112388Y0098064D01*
X0111390Y0097066D02*
X0114375Y0097066D01*
X0113376Y0096067D02*
X0110391Y0096067D01*
X0109393Y0095069D02*
X0112378Y0095069D01*
X0111379Y0094070D02*
X0108394Y0094070D01*
X0107396Y0093072D02*
X0110381Y0093072D01*
X0109382Y0092073D02*
X0106397Y0092073D01*
X0105398Y0091075D02*
X0108384Y0091075D01*
X0107385Y0090076D02*
X0104400Y0090076D01*
X0103401Y0089078D02*
X0106387Y0089078D01*
X0105388Y0088079D02*
X0102403Y0088079D01*
X0101404Y0087081D02*
X0104390Y0087081D01*
X0103391Y0086082D02*
X0100406Y0086082D01*
X0099407Y0085084D02*
X0102393Y0085084D01*
X0101394Y0084085D02*
X0098409Y0084085D01*
X0097410Y0083087D02*
X0100396Y0083087D01*
X0099397Y0082088D02*
X0096412Y0082088D01*
X0095413Y0081090D02*
X0098399Y0081090D01*
X0097400Y0080091D02*
X0094532Y0080091D01*
X0094173Y0079093D02*
X0096402Y0079093D01*
X0095403Y0078094D02*
X0089033Y0078094D01*
X0092913Y0074100D02*
X0341226Y0074100D01*
X0341142Y0075099D02*
X0244584Y0075099D01*
X0244138Y0074653D02*
X0245420Y0075934D01*
X0245420Y0077747D01*
X0244138Y0079028D01*
X0242326Y0079028D01*
X0241045Y0077747D01*
X0241045Y0075934D01*
X0242326Y0074653D01*
X0244138Y0074653D01*
X0245420Y0076097D02*
X0341142Y0076097D01*
X0341142Y0077096D02*
X0245420Y0077096D01*
X0245072Y0078094D02*
X0341280Y0078094D01*
X0341693Y0079093D02*
X0100079Y0079093D01*
X0101077Y0080091D02*
X0342107Y0080091D01*
X0342599Y0081090D02*
X0109491Y0081090D01*
X0109452Y0081051D02*
X0110676Y0082274D01*
X0110676Y0084005D01*
X0109452Y0085229D01*
X0107721Y0085229D01*
X0106498Y0084005D01*
X0106498Y0082274D01*
X0107721Y0081051D01*
X0109452Y0081051D01*
X0110489Y0082088D02*
X0343597Y0082088D01*
X0344596Y0083087D02*
X0110676Y0083087D01*
X0110595Y0084085D02*
X0346561Y0084085D01*
X0353108Y0084085D02*
X0377653Y0084085D01*
X0377653Y0083087D02*
X0355073Y0083087D01*
X0356072Y0082088D02*
X0377653Y0082088D01*
X0377653Y0081090D02*
X0357070Y0081090D01*
X0357562Y0080091D02*
X0377653Y0080091D01*
X0377653Y0079093D02*
X0357976Y0079093D01*
X0358389Y0078094D02*
X0377653Y0078094D01*
X0377653Y0077096D02*
X0358527Y0077096D01*
X0358527Y0076097D02*
X0377653Y0076097D01*
X0377653Y0075099D02*
X0358527Y0075099D01*
X0358443Y0074100D02*
X0377653Y0074100D01*
X0377653Y0073102D02*
X0358030Y0073102D01*
X0357616Y0072103D02*
X0376894Y0072103D01*
X0375896Y0071105D02*
X0357201Y0071105D01*
X0356202Y0070106D02*
X0374897Y0070106D01*
X0373899Y0069107D02*
X0355204Y0069107D01*
X0353423Y0068109D02*
X0372900Y0068109D01*
X0369904Y0065113D02*
X0116098Y0065113D01*
X0116098Y0064115D02*
X0313476Y0064115D01*
X0314810Y0064667D02*
X0311759Y0063404D01*
X0309425Y0061069D01*
X0308161Y0058019D01*
X0308161Y0054717D01*
X0309425Y0051667D01*
X0311759Y0049332D01*
X0314810Y0048069D01*
X0318111Y0048069D01*
X0321162Y0049332D01*
X0323496Y0051667D01*
X0324760Y0054717D01*
X0324760Y0058019D01*
X0323496Y0061069D01*
X0321162Y0063404D01*
X0318111Y0064667D01*
X0314810Y0064667D01*
X0311472Y0063116D02*
X0116098Y0063116D01*
X0115902Y0062118D02*
X0310474Y0062118D01*
X0309475Y0061119D02*
X0115489Y0061119D01*
X0115075Y0060121D02*
X0254664Y0060121D01*
X0254468Y0060082D02*
X0253765Y0059791D01*
X0253132Y0059368D01*
X0252595Y0058830D01*
X0252172Y0058198D01*
X0251881Y0057495D01*
X0251732Y0056748D01*
X0251732Y0056656D01*
X0255307Y0056656D01*
X0255307Y0060230D01*
X0255214Y0060230D01*
X0254468Y0060082D01*
X0255307Y0060121D02*
X0255882Y0060121D01*
X0255882Y0060230D02*
X0255975Y0060230D01*
X0256721Y0060082D01*
X0257424Y0059791D01*
X0258056Y0059368D01*
X0258594Y0058830D01*
X0259017Y0058198D01*
X0259308Y0057495D01*
X0259457Y0056748D01*
X0259457Y0056656D01*
X0255882Y0056656D01*
X0255307Y0056656D01*
X0255307Y0056081D01*
X0251732Y0056081D01*
X0251732Y0055988D01*
X0251881Y0055242D01*
X0252172Y0054539D01*
X0252595Y0053906D01*
X0253132Y0053368D01*
X0253765Y0052945D01*
X0254468Y0052654D01*
X0255214Y0052506D01*
X0255307Y0052506D01*
X0255307Y0056081D01*
X0255882Y0056081D01*
X0255882Y0056656D01*
X0255882Y0060230D01*
X0256525Y0060121D02*
X0309032Y0060121D01*
X0308618Y0059122D02*
X0258302Y0059122D01*
X0259048Y0058124D02*
X0308205Y0058124D01*
X0308161Y0057125D02*
X0259382Y0057125D01*
X0259457Y0056081D02*
X0255882Y0056081D01*
X0255882Y0052506D01*
X0255975Y0052506D01*
X0256721Y0052654D01*
X0257424Y0052945D01*
X0258056Y0053368D01*
X0258594Y0053906D01*
X0259017Y0054539D01*
X0259308Y0055242D01*
X0259457Y0055988D01*
X0259457Y0056081D01*
X0259261Y0055128D02*
X0308161Y0055128D01*
X0308161Y0056127D02*
X0255882Y0056127D01*
X0255307Y0056127D02*
X0248957Y0056127D01*
X0248957Y0055699D02*
X0248445Y0054464D01*
X0247499Y0053518D01*
X0246263Y0053006D01*
X0244926Y0053006D01*
X0243690Y0053518D01*
X0242744Y0054464D01*
X0242232Y0055699D01*
X0242232Y0057037D01*
X0242744Y0058273D01*
X0243690Y0059218D01*
X0244926Y0059730D01*
X0246263Y0059730D01*
X0247499Y0059218D01*
X0248445Y0058273D01*
X0248957Y0057037D01*
X0248957Y0055699D01*
X0248720Y0055128D02*
X0251928Y0055128D01*
X0252445Y0054130D02*
X0248111Y0054130D01*
X0246566Y0053131D02*
X0253487Y0053131D01*
X0255307Y0053131D02*
X0255882Y0053131D01*
X0255882Y0054130D02*
X0255307Y0054130D01*
X0255307Y0055128D02*
X0255882Y0055128D01*
X0255882Y0057125D02*
X0255307Y0057125D01*
X0255307Y0058124D02*
X0255882Y0058124D01*
X0255882Y0059122D02*
X0255307Y0059122D01*
X0252887Y0059122D02*
X0247595Y0059122D01*
X0248506Y0058124D02*
X0252141Y0058124D01*
X0251807Y0057125D02*
X0248920Y0057125D01*
X0243594Y0059122D02*
X0237595Y0059122D01*
X0237499Y0059218D02*
X0236263Y0059730D01*
X0234926Y0059730D01*
X0233690Y0059218D01*
X0232744Y0058273D01*
X0232232Y0057037D01*
X0232232Y0055699D01*
X0232744Y0054464D01*
X0233690Y0053518D01*
X0234926Y0053006D01*
X0236263Y0053006D01*
X0237499Y0053518D01*
X0238445Y0054464D01*
X0238957Y0055699D01*
X0238957Y0057037D01*
X0238445Y0058273D01*
X0237499Y0059218D01*
X0238506Y0058124D02*
X0242683Y0058124D01*
X0242269Y0057125D02*
X0238920Y0057125D01*
X0238957Y0056127D02*
X0242232Y0056127D01*
X0242469Y0055128D02*
X0238720Y0055128D01*
X0238111Y0054130D02*
X0243078Y0054130D01*
X0244623Y0053131D02*
X0236566Y0053131D01*
X0234623Y0053131D02*
X0120890Y0053131D01*
X0121888Y0052133D02*
X0309232Y0052133D01*
X0308818Y0053131D02*
X0257702Y0053131D01*
X0258744Y0054130D02*
X0308405Y0054130D01*
X0309958Y0051134D02*
X0122887Y0051134D01*
X0123885Y0050136D02*
X0310956Y0050136D01*
X0312231Y0049137D02*
X0124884Y0049137D01*
X0125882Y0048139D02*
X0314641Y0048139D01*
X0318280Y0048139D02*
X0323686Y0048139D01*
X0324809Y0049137D02*
X0320691Y0049137D01*
X0321965Y0050136D02*
X0325933Y0050136D01*
X0327056Y0051134D02*
X0322964Y0051134D01*
X0323689Y0052133D02*
X0328179Y0052133D01*
X0329303Y0053131D02*
X0324103Y0053131D01*
X0324516Y0054130D02*
X0330426Y0054130D01*
X0331549Y0055128D02*
X0324760Y0055128D01*
X0324760Y0056127D02*
X0332673Y0056127D01*
X0333796Y0057125D02*
X0324760Y0057125D01*
X0324716Y0058124D02*
X0334919Y0058124D01*
X0336043Y0059122D02*
X0324303Y0059122D01*
X0323889Y0060121D02*
X0337166Y0060121D01*
X0338289Y0061119D02*
X0323446Y0061119D01*
X0322448Y0062118D02*
X0339413Y0062118D01*
X0339918Y0062118D02*
X0366909Y0062118D01*
X0367907Y0063116D02*
X0321449Y0063116D01*
X0319445Y0064115D02*
X0368906Y0064115D01*
X0358655Y0049137D02*
X0393201Y0049137D01*
X0393201Y0048139D02*
X0359400Y0048139D01*
X0359814Y0047140D02*
X0393201Y0047140D01*
X0393201Y0046142D02*
X0360093Y0046142D01*
X0360093Y0045143D02*
X0393201Y0045143D01*
X0393201Y0044145D02*
X0360074Y0044145D01*
X0359660Y0043146D02*
X0393201Y0043146D01*
X0393201Y0042148D02*
X0359247Y0042148D01*
X0358285Y0041149D02*
X0393201Y0041149D01*
X0393201Y0040151D02*
X0356827Y0040151D01*
X0348644Y0020180D02*
X0259880Y0020180D01*
X0260830Y0019182D02*
X0348647Y0019182D01*
X0349061Y0018183D02*
X0261244Y0018183D01*
X0261405Y0017185D02*
X0349474Y0017185D01*
X0350414Y0016186D02*
X0261399Y0016186D01*
X0260985Y0015188D02*
X0351819Y0015188D01*
X0332068Y0010195D02*
X0389042Y0010195D01*
X0388935Y0009197D02*
X0332175Y0009197D01*
X0332175Y0008198D02*
X0388935Y0008198D01*
X0390040Y0011194D02*
X0331070Y0011194D01*
X0328623Y0011194D02*
X0265716Y0011194D01*
X0266714Y0010195D02*
X0327624Y0010195D01*
X0327518Y0009197D02*
X0266821Y0009197D01*
X0266821Y0008198D02*
X0327518Y0008198D01*
X0305713Y0032163D02*
X0199286Y0032163D01*
X0198863Y0031740D02*
X0200144Y0033021D01*
X0200144Y0034833D01*
X0198863Y0036115D01*
X0197051Y0036115D01*
X0195769Y0034833D01*
X0195769Y0033021D01*
X0197051Y0031740D01*
X0198863Y0031740D01*
X0200144Y0033161D02*
X0306836Y0033161D01*
X0307960Y0034160D02*
X0200144Y0034160D01*
X0199819Y0035158D02*
X0309083Y0035158D01*
X0310206Y0036157D02*
X0153983Y0036157D01*
X0153983Y0035158D02*
X0196094Y0035158D01*
X0195769Y0034160D02*
X0153506Y0034160D01*
X0153195Y0037155D02*
X0154767Y0037155D01*
X0155359Y0036563D02*
X0157090Y0036563D01*
X0158313Y0037786D01*
X0158313Y0039517D01*
X0157090Y0040741D01*
X0155359Y0040741D01*
X0154135Y0039517D01*
X0154135Y0037786D01*
X0155359Y0036563D01*
X0154135Y0038154D02*
X0136266Y0038154D01*
X0135843Y0039152D02*
X0154135Y0039152D01*
X0154769Y0040151D02*
X0133871Y0040151D01*
X0132872Y0041149D02*
X0218174Y0041149D01*
X0218020Y0040778D02*
X0218020Y0039675D01*
X0218442Y0038656D01*
X0219221Y0037877D01*
X0220240Y0037455D01*
X0221343Y0037455D01*
X0222361Y0037877D01*
X0223141Y0038656D01*
X0223563Y0039675D01*
X0223563Y0040778D01*
X0223141Y0041796D01*
X0222361Y0042576D01*
X0221343Y0042998D01*
X0220240Y0042998D01*
X0219221Y0042576D01*
X0218442Y0041796D01*
X0218020Y0040778D01*
X0218020Y0040151D02*
X0157680Y0040151D01*
X0158313Y0039152D02*
X0218236Y0039152D01*
X0218944Y0038154D02*
X0158313Y0038154D01*
X0157682Y0037155D02*
X0311330Y0037155D01*
X0312453Y0038154D02*
X0222638Y0038154D01*
X0223346Y0039152D02*
X0313576Y0039152D01*
X0314700Y0040151D02*
X0223563Y0040151D01*
X0223409Y0041149D02*
X0315823Y0041149D01*
X0316946Y0042148D02*
X0222790Y0042148D01*
X0218793Y0042148D02*
X0131874Y0042148D01*
X0130875Y0043146D02*
X0318070Y0043146D01*
X0319193Y0044145D02*
X0129877Y0044145D01*
X0128878Y0045143D02*
X0320316Y0045143D01*
X0321440Y0046142D02*
X0127880Y0046142D01*
X0126881Y0047140D02*
X0322563Y0047140D01*
X0304590Y0031164D02*
X0145321Y0031164D01*
X0145321Y0032163D02*
X0196628Y0032163D01*
X0195769Y0033161D02*
X0144590Y0033161D01*
X0142618Y0034160D02*
X0150282Y0034160D01*
X0119891Y0054130D02*
X0233078Y0054130D01*
X0232469Y0055128D02*
X0118893Y0055128D01*
X0117894Y0056127D02*
X0232232Y0056127D01*
X0232269Y0057125D02*
X0116896Y0057125D01*
X0117398Y0056623D02*
X0117398Y0056623D01*
X0114416Y0059122D02*
X0233594Y0059122D01*
X0232683Y0058124D02*
X0113418Y0058124D01*
X0099500Y0063116D02*
X0099309Y0063116D01*
X0096085Y0075099D02*
X0241881Y0075099D01*
X0241045Y0076097D02*
X0097083Y0076097D01*
X0098082Y0077096D02*
X0241045Y0077096D01*
X0241392Y0078094D02*
X0099080Y0078094D01*
X0102076Y0081090D02*
X0107682Y0081090D01*
X0106684Y0082088D02*
X0103074Y0082088D01*
X0104073Y0083087D02*
X0106498Y0083087D01*
X0106578Y0084085D02*
X0105071Y0084085D01*
X0106070Y0085084D02*
X0107576Y0085084D01*
X0107068Y0086082D02*
X0377653Y0086082D01*
X0377653Y0085084D02*
X0109597Y0085084D01*
X0108067Y0087081D02*
X0377653Y0087081D01*
X0377653Y0088079D02*
X0109065Y0088079D01*
X0110064Y0089078D02*
X0188688Y0089078D01*
X0188747Y0089053D02*
X0192048Y0089053D01*
X0195099Y0090317D01*
X0197433Y0092651D01*
X0198697Y0095702D01*
X0198697Y0099003D01*
X0197433Y0102053D01*
X0195099Y0104388D01*
X0192048Y0105652D01*
X0188747Y0105652D01*
X0185697Y0104388D01*
X0183362Y0102053D01*
X0182098Y0099003D01*
X0182098Y0095702D01*
X0183362Y0092651D01*
X0185697Y0090317D01*
X0188747Y0089053D01*
X0186277Y0090076D02*
X0111062Y0090076D01*
X0112061Y0091075D02*
X0184938Y0091075D01*
X0183940Y0092073D02*
X0113059Y0092073D01*
X0114058Y0093072D02*
X0183188Y0093072D01*
X0182774Y0094070D02*
X0115056Y0094070D01*
X0116055Y0095069D02*
X0182361Y0095069D01*
X0182098Y0096067D02*
X0117053Y0096067D01*
X0118052Y0097066D02*
X0182098Y0097066D01*
X0182098Y0098064D02*
X0119050Y0098064D01*
X0120049Y0099063D02*
X0182123Y0099063D01*
X0182537Y0100061D02*
X0121047Y0100061D01*
X0122046Y0101060D02*
X0182950Y0101060D01*
X0183367Y0102058D02*
X0123044Y0102058D01*
X0124043Y0103057D02*
X0184365Y0103057D01*
X0185364Y0104055D02*
X0125041Y0104055D01*
X0126040Y0105054D02*
X0187304Y0105054D01*
X0193491Y0105054D02*
X0255893Y0105054D01*
X0255317Y0104055D02*
X0195431Y0104055D01*
X0196430Y0103057D02*
X0255317Y0103057D01*
X0256005Y0102058D02*
X0197428Y0102058D01*
X0197845Y0101060D02*
X0271065Y0101060D01*
X0271065Y0100778D02*
X0272288Y0099555D01*
X0274019Y0099555D01*
X0275243Y0100778D01*
X0275243Y0102509D01*
X0274019Y0103733D01*
X0272288Y0103733D01*
X0271065Y0102509D01*
X0271065Y0100778D01*
X0271782Y0100061D02*
X0198259Y0100061D01*
X0198672Y0099063D02*
X0377653Y0099063D01*
X0377653Y0100061D02*
X0294210Y0100061D01*
X0294928Y0101060D02*
X0377653Y0101060D01*
X0377653Y0098064D02*
X0198697Y0098064D01*
X0198697Y0097066D02*
X0208141Y0097066D01*
X0207679Y0096603D02*
X0207679Y0094873D01*
X0208902Y0093649D01*
X0210633Y0093649D01*
X0211857Y0094873D01*
X0211857Y0096603D01*
X0210633Y0097827D01*
X0208902Y0097827D01*
X0207679Y0096603D01*
X0207679Y0096067D02*
X0198697Y0096067D01*
X0198435Y0095069D02*
X0207679Y0095069D01*
X0208481Y0094070D02*
X0198021Y0094070D01*
X0197608Y0093072D02*
X0377653Y0093072D01*
X0377653Y0094070D02*
X0290188Y0094070D01*
X0289767Y0093649D02*
X0290991Y0094873D01*
X0290991Y0096603D01*
X0289767Y0097827D01*
X0288036Y0097827D01*
X0286813Y0096603D01*
X0286813Y0094873D01*
X0288036Y0093649D01*
X0289767Y0093649D01*
X0290991Y0095069D02*
X0377653Y0095069D01*
X0377653Y0096067D02*
X0290991Y0096067D01*
X0290528Y0097066D02*
X0377653Y0097066D01*
X0377653Y0092073D02*
X0196855Y0092073D01*
X0195857Y0091075D02*
X0377653Y0091075D01*
X0377653Y0090076D02*
X0194518Y0090076D01*
X0192108Y0089078D02*
X0377653Y0089078D01*
X0392604Y0074100D02*
X0393201Y0074100D01*
X0356444Y0113042D02*
X0353060Y0113042D01*
X0352044Y0114040D02*
X0356030Y0114040D01*
X0346960Y0135009D02*
X0345514Y0135009D01*
X0346267Y0136008D02*
X0344516Y0136008D01*
X0333050Y0150985D02*
X0261752Y0150985D01*
X0261752Y0151984D02*
X0332052Y0151984D01*
X0331053Y0152982D02*
X0280342Y0152982D01*
X0279965Y0152606D02*
X0281246Y0153887D01*
X0281246Y0155699D01*
X0279965Y0156981D01*
X0278153Y0156981D01*
X0276872Y0155699D01*
X0276872Y0153887D01*
X0278153Y0152606D01*
X0279965Y0152606D01*
X0281246Y0153981D02*
X0330055Y0153981D01*
X0329056Y0154979D02*
X0281246Y0154979D01*
X0280968Y0155978D02*
X0328058Y0155978D01*
X0327059Y0156976D02*
X0279969Y0156976D01*
X0278149Y0156976D02*
X0261752Y0156976D01*
X0261752Y0155978D02*
X0277150Y0155978D01*
X0276872Y0154979D02*
X0261752Y0154979D01*
X0261752Y0153981D02*
X0276872Y0153981D01*
X0277776Y0152982D02*
X0261752Y0152982D01*
X0261752Y0157975D02*
X0314655Y0157975D01*
X0314808Y0157822D02*
X0316539Y0157822D01*
X0317762Y0159046D01*
X0317762Y0160777D01*
X0316539Y0162000D01*
X0314808Y0162000D01*
X0313584Y0160777D01*
X0313584Y0159046D01*
X0314808Y0157822D01*
X0313657Y0158973D02*
X0261752Y0158973D01*
X0261752Y0159972D02*
X0296528Y0159972D01*
X0295697Y0160317D02*
X0298747Y0159053D01*
X0302048Y0159053D01*
X0305099Y0160317D01*
X0307433Y0162651D01*
X0308697Y0165702D01*
X0308697Y0169003D01*
X0307433Y0172053D01*
X0305099Y0174388D01*
X0302048Y0175652D01*
X0298747Y0175652D01*
X0295697Y0174388D01*
X0293362Y0172053D01*
X0292098Y0169003D01*
X0292098Y0165702D01*
X0293362Y0162651D01*
X0295697Y0160317D01*
X0295043Y0160971D02*
X0283999Y0160971D01*
X0283508Y0160480D02*
X0284790Y0161761D01*
X0284790Y0163573D01*
X0283508Y0164855D01*
X0281696Y0164855D01*
X0280415Y0163573D01*
X0280415Y0161761D01*
X0281696Y0160480D01*
X0283508Y0160480D01*
X0284790Y0161969D02*
X0294044Y0161969D01*
X0293231Y0162968D02*
X0284790Y0162968D01*
X0284397Y0163966D02*
X0292817Y0163966D01*
X0292404Y0164965D02*
X0261752Y0164965D01*
X0261752Y0165963D02*
X0271464Y0165963D01*
X0271699Y0165728D02*
X0272796Y0165274D01*
X0273983Y0165274D01*
X0275080Y0165728D01*
X0275920Y0166567D01*
X0276374Y0167664D01*
X0276374Y0168851D01*
X0275920Y0169948D01*
X0275080Y0170788D01*
X0273983Y0171242D01*
X0272796Y0171242D01*
X0271699Y0170788D01*
X0270860Y0169948D01*
X0270406Y0168851D01*
X0270406Y0167664D01*
X0270860Y0166567D01*
X0271699Y0165728D01*
X0270697Y0166962D02*
X0261752Y0166962D01*
X0261752Y0167960D02*
X0270406Y0167960D01*
X0270450Y0168959D02*
X0261752Y0168959D01*
X0261752Y0169957D02*
X0270869Y0169957D01*
X0272105Y0170956D02*
X0262222Y0170956D01*
X0263220Y0171954D02*
X0293321Y0171954D01*
X0292907Y0170956D02*
X0274675Y0170956D01*
X0275911Y0169957D02*
X0292494Y0169957D01*
X0292098Y0168959D02*
X0276330Y0168959D01*
X0276374Y0167960D02*
X0292098Y0167960D01*
X0292098Y0166962D02*
X0276083Y0166962D01*
X0275315Y0165963D02*
X0292098Y0165963D01*
X0294261Y0172953D02*
X0263931Y0172953D01*
X0263931Y0173951D02*
X0295260Y0173951D01*
X0297052Y0174950D02*
X0263931Y0174950D01*
X0263931Y0175948D02*
X0308087Y0175948D01*
X0307089Y0176947D02*
X0263931Y0176947D01*
X0263044Y0177945D02*
X0306090Y0177945D01*
X0305092Y0178944D02*
X0262046Y0178944D01*
X0261047Y0179942D02*
X0304093Y0179942D01*
X0303095Y0180941D02*
X0260049Y0180941D01*
X0259050Y0181939D02*
X0302096Y0181939D01*
X0301098Y0182938D02*
X0267384Y0182938D01*
X0267861Y0183415D02*
X0266579Y0182133D01*
X0264767Y0182133D01*
X0263486Y0183415D01*
X0263486Y0185227D01*
X0264767Y0186508D01*
X0266579Y0186508D01*
X0267861Y0185227D01*
X0267861Y0183415D01*
X0267861Y0183936D02*
X0300099Y0183936D01*
X0299101Y0184935D02*
X0267861Y0184935D01*
X0267154Y0185933D02*
X0298102Y0185933D01*
X0297104Y0186932D02*
X0263530Y0186932D01*
X0263530Y0186564D02*
X0263530Y0188377D01*
X0262249Y0189658D01*
X0260436Y0189658D01*
X0259155Y0188377D01*
X0259155Y0186564D01*
X0260436Y0185283D01*
X0262249Y0185283D01*
X0263530Y0186564D01*
X0262899Y0185933D02*
X0264192Y0185933D01*
X0263486Y0184935D02*
X0243802Y0184935D01*
X0242803Y0185933D02*
X0259786Y0185933D01*
X0259155Y0186932D02*
X0241805Y0186932D01*
X0240806Y0187930D02*
X0259155Y0187930D01*
X0259707Y0188929D02*
X0239808Y0188929D01*
X0238809Y0189927D02*
X0294108Y0189927D01*
X0295107Y0188929D02*
X0262978Y0188929D01*
X0263530Y0187930D02*
X0296105Y0187930D01*
X0293110Y0190926D02*
X0237811Y0190926D01*
X0237349Y0191924D02*
X0292111Y0191924D01*
X0291113Y0192923D02*
X0236658Y0192923D01*
X0234059Y0192923D02*
X0233494Y0192923D01*
X0230895Y0192923D02*
X0230359Y0192923D01*
X0227759Y0192923D02*
X0222878Y0192923D01*
X0222006Y0193921D02*
X0290114Y0193921D01*
X0291115Y0197163D02*
X0291413Y0197163D01*
X0334883Y0153693D01*
X0326061Y0157975D02*
X0316691Y0157975D01*
X0317690Y0158973D02*
X0325062Y0158973D01*
X0324064Y0159972D02*
X0317762Y0159972D01*
X0317568Y0160971D02*
X0323065Y0160971D01*
X0322067Y0161969D02*
X0316570Y0161969D01*
X0314777Y0161969D02*
X0306751Y0161969D01*
X0307564Y0162968D02*
X0321068Y0162968D01*
X0320070Y0163966D02*
X0307978Y0163966D01*
X0308392Y0164965D02*
X0319071Y0164965D01*
X0318073Y0165963D02*
X0308697Y0165963D01*
X0308697Y0166962D02*
X0317074Y0166962D01*
X0316076Y0167960D02*
X0308697Y0167960D01*
X0308697Y0168959D02*
X0315077Y0168959D01*
X0314079Y0169957D02*
X0308302Y0169957D01*
X0307888Y0170956D02*
X0313080Y0170956D01*
X0312081Y0171954D02*
X0307475Y0171954D01*
X0306534Y0172953D02*
X0311083Y0172953D01*
X0310084Y0173951D02*
X0305536Y0173951D01*
X0303743Y0174950D02*
X0309086Y0174950D01*
X0305753Y0160971D02*
X0313778Y0160971D01*
X0313584Y0159972D02*
X0304267Y0159972D01*
X0281206Y0160971D02*
X0261752Y0160971D01*
X0261752Y0161969D02*
X0280415Y0161969D01*
X0280415Y0162968D02*
X0261752Y0162968D01*
X0261752Y0163966D02*
X0280808Y0163966D01*
X0263963Y0182938D02*
X0258052Y0182938D01*
X0263486Y0183936D02*
X0244800Y0183936D01*
X0245036Y0194920D02*
X0223004Y0194920D01*
X0224003Y0195918D02*
X0244038Y0195918D01*
X0243039Y0196917D02*
X0235181Y0196917D01*
X0236180Y0197915D02*
X0242041Y0197915D01*
X0241042Y0198914D02*
X0237158Y0198914D01*
X0238156Y0199912D02*
X0240044Y0199912D01*
X0239045Y0200911D02*
X0238235Y0200911D01*
X0238047Y0201909D02*
X0238047Y0201909D01*
X0237048Y0202908D02*
X0237048Y0202908D01*
X0236050Y0203907D02*
X0235085Y0203907D01*
X0235051Y0204905D02*
X0234087Y0204905D01*
X0231905Y0204905D02*
X0200096Y0204905D01*
X0199296Y0203907D02*
X0230907Y0203907D01*
X0235085Y0202908D02*
X0235243Y0202908D01*
X0235446Y0206631D02*
X0215563Y0206631D01*
X0216539Y0209898D02*
X0267029Y0209898D01*
X0267029Y0210896D02*
X0266552Y0210896D01*
X0266619Y0208899D02*
X0267012Y0208899D01*
X0269829Y0209898D02*
X0300543Y0209898D01*
X0299545Y0210896D02*
X0274426Y0210896D01*
X0275746Y0211895D02*
X0298546Y0211895D01*
X0297548Y0212893D02*
X0276237Y0212893D01*
X0276368Y0213892D02*
X0296549Y0213892D01*
X0295550Y0214890D02*
X0276201Y0214890D01*
X0275659Y0215889D02*
X0294552Y0215889D01*
X0293553Y0216887D02*
X0274217Y0216887D01*
X0274701Y0218884D02*
X0291556Y0218884D01*
X0290558Y0219883D02*
X0275860Y0219883D01*
X0276284Y0220881D02*
X0289559Y0220881D01*
X0288561Y0221880D02*
X0276368Y0221880D01*
X0276154Y0222878D02*
X0287562Y0222878D01*
X0286564Y0223877D02*
X0275545Y0223877D01*
X0269829Y0217886D02*
X0292555Y0217886D01*
X0294651Y0220881D02*
X0393201Y0220881D01*
X0393201Y0219883D02*
X0295649Y0219883D01*
X0293652Y0221880D02*
X0393201Y0221880D01*
X0393201Y0222878D02*
X0292654Y0222878D01*
X0291655Y0223877D02*
X0393201Y0223877D01*
X0393201Y0224875D02*
X0342361Y0224875D01*
X0342959Y0225474D02*
X0341735Y0224250D01*
X0340005Y0224250D01*
X0338781Y0225474D01*
X0338781Y0227204D01*
X0340005Y0228428D01*
X0341735Y0228428D01*
X0342959Y0227204D01*
X0342959Y0225474D01*
X0342959Y0225874D02*
X0393201Y0225874D01*
X0393201Y0226872D02*
X0342959Y0226872D01*
X0342293Y0227871D02*
X0393201Y0227871D01*
X0393201Y0228869D02*
X0286663Y0228869D01*
X0287661Y0227871D02*
X0339448Y0227871D01*
X0338781Y0226872D02*
X0288660Y0226872D01*
X0289658Y0225874D02*
X0338781Y0225874D01*
X0339380Y0224875D02*
X0290657Y0224875D01*
X0285664Y0229868D02*
X0393201Y0229868D01*
X0393201Y0230866D02*
X0284665Y0230866D01*
X0283667Y0231865D02*
X0393201Y0231865D01*
X0393201Y0260822D02*
X0364378Y0260822D01*
X0366150Y0261820D02*
X0393201Y0261820D01*
X0393201Y0262819D02*
X0366950Y0262819D01*
X0367364Y0263817D02*
X0393201Y0263817D01*
X0393201Y0264816D02*
X0367412Y0264816D01*
X0367284Y0265814D02*
X0393201Y0265814D01*
X0393201Y0266813D02*
X0366871Y0266813D01*
X0365958Y0267811D02*
X0393201Y0267811D01*
X0393201Y0268810D02*
X0356000Y0268810D01*
X0356231Y0269808D02*
X0393201Y0269808D01*
X0393201Y0270807D02*
X0356231Y0270807D01*
X0355872Y0271805D02*
X0362352Y0271805D01*
X0360690Y0272804D02*
X0355217Y0272804D01*
X0353796Y0273802D02*
X0359936Y0273802D01*
X0364567Y0271805D02*
X0393201Y0271805D01*
X0393201Y0272804D02*
X0366228Y0272804D01*
X0366983Y0273802D02*
X0393201Y0273802D01*
X0393201Y0274801D02*
X0367396Y0274801D01*
X0367412Y0275799D02*
X0393201Y0275799D01*
X0393201Y0276798D02*
X0367252Y0276798D01*
X0366838Y0277796D02*
X0393201Y0277796D01*
X0393201Y0288780D02*
X0102506Y0288780D01*
X0102506Y0289778D02*
X0144524Y0289778D01*
X0144688Y0289614D02*
X0146501Y0289614D01*
X0147782Y0290895D01*
X0147782Y0292707D01*
X0146501Y0293989D01*
X0144688Y0293989D01*
X0143407Y0292707D01*
X0143407Y0290895D01*
X0144688Y0289614D01*
X0143525Y0290777D02*
X0102506Y0290777D01*
X0102506Y0291776D02*
X0143407Y0291776D01*
X0143474Y0292774D02*
X0135603Y0292774D01*
X0135395Y0292567D02*
X0136561Y0293733D01*
X0136561Y0295382D01*
X0135395Y0296548D01*
X0134702Y0296548D01*
X0133709Y0297541D01*
X0132830Y0298419D01*
X0132712Y0298419D01*
X0133001Y0298709D01*
X0133610Y0300179D01*
X0133610Y0301770D01*
X0133001Y0303240D01*
X0131876Y0304365D01*
X0130406Y0304974D01*
X0128815Y0304974D01*
X0127344Y0304365D01*
X0126219Y0303240D01*
X0125610Y0301770D01*
X0125610Y0300179D01*
X0126219Y0298709D01*
X0126509Y0298419D01*
X0122712Y0298419D01*
X0123001Y0298709D01*
X0123610Y0300179D01*
X0123610Y0301770D01*
X0123001Y0303240D01*
X0121876Y0304365D01*
X0120406Y0304974D01*
X0118815Y0304974D01*
X0117344Y0304365D01*
X0116219Y0303240D01*
X0115610Y0301770D01*
X0115610Y0300179D01*
X0116219Y0298709D01*
X0116509Y0298419D01*
X0114287Y0298419D01*
X0113293Y0299413D01*
X0113610Y0300179D01*
X0113610Y0301770D01*
X0113001Y0303240D01*
X0111876Y0304365D01*
X0110406Y0304974D01*
X0108815Y0304974D01*
X0107344Y0304365D01*
X0106219Y0303240D01*
X0105610Y0301770D01*
X0105610Y0300179D01*
X0106219Y0298709D01*
X0107344Y0297583D01*
X0108815Y0296974D01*
X0110406Y0296974D01*
X0111172Y0297292D01*
X0112165Y0296298D01*
X0113044Y0295419D01*
X0131587Y0295419D01*
X0132580Y0294426D01*
X0132580Y0293733D01*
X0133746Y0292567D01*
X0135395Y0292567D01*
X0136561Y0293773D02*
X0144472Y0293773D01*
X0146717Y0293773D02*
X0252359Y0293773D01*
X0252704Y0293427D02*
X0255755Y0292163D01*
X0259056Y0292163D01*
X0262107Y0293427D01*
X0264441Y0295761D01*
X0265705Y0298812D01*
X0265705Y0302113D01*
X0264441Y0305164D01*
X0262107Y0307498D01*
X0259056Y0308762D01*
X0255755Y0308762D01*
X0252704Y0307498D01*
X0250370Y0305164D01*
X0249106Y0302113D01*
X0249106Y0298812D01*
X0250370Y0295761D01*
X0252704Y0293427D01*
X0254280Y0292774D02*
X0147715Y0292774D01*
X0147782Y0291776D02*
X0393201Y0291776D01*
X0393201Y0292774D02*
X0260531Y0292774D01*
X0262452Y0293773D02*
X0393201Y0293773D01*
X0393201Y0294771D02*
X0278151Y0294771D01*
X0277915Y0294535D02*
X0279081Y0295701D01*
X0279081Y0297350D01*
X0277915Y0298516D01*
X0276266Y0298516D01*
X0275100Y0297350D01*
X0275100Y0295701D01*
X0276266Y0294535D01*
X0277915Y0294535D01*
X0279081Y0295770D02*
X0393201Y0295770D01*
X0393201Y0296768D02*
X0279081Y0296768D01*
X0278665Y0297767D02*
X0393201Y0297767D01*
X0393201Y0298765D02*
X0265685Y0298765D01*
X0265705Y0299764D02*
X0393201Y0299764D01*
X0393201Y0300762D02*
X0360201Y0300762D01*
X0359461Y0300456D02*
X0362403Y0301674D01*
X0364654Y0303926D01*
X0365873Y0306868D01*
X0365873Y0310052D01*
X0364654Y0312993D01*
X0362403Y0315245D01*
X0359461Y0316464D01*
X0356277Y0316464D01*
X0353335Y0315245D01*
X0351083Y0312993D01*
X0349865Y0310052D01*
X0349865Y0306868D01*
X0351083Y0303926D01*
X0353335Y0301674D01*
X0356277Y0300456D01*
X0359461Y0300456D01*
X0362489Y0301761D02*
X0393201Y0301761D01*
X0393201Y0302759D02*
X0363488Y0302759D01*
X0364486Y0303758D02*
X0393201Y0303758D01*
X0393201Y0304756D02*
X0364998Y0304756D01*
X0365412Y0305755D02*
X0393201Y0305755D01*
X0393201Y0306753D02*
X0365825Y0306753D01*
X0365873Y0307752D02*
X0393201Y0307752D01*
X0393201Y0308750D02*
X0365873Y0308750D01*
X0365873Y0309749D02*
X0393201Y0309749D01*
X0393201Y0310747D02*
X0365585Y0310747D01*
X0365171Y0311746D02*
X0393201Y0311746D01*
X0393201Y0312744D02*
X0364757Y0312744D01*
X0363905Y0313743D02*
X0393201Y0313743D01*
X0393201Y0314741D02*
X0393088Y0314741D01*
X0389440Y0314741D02*
X0362906Y0314741D01*
X0361208Y0315740D02*
X0388935Y0315740D01*
X0388935Y0316738D02*
X0332175Y0316738D01*
X0332175Y0315740D02*
X0354529Y0315740D01*
X0352831Y0314741D02*
X0331670Y0314741D01*
X0331614Y0317737D02*
X0389497Y0317737D01*
X0393201Y0290777D02*
X0147664Y0290777D01*
X0146665Y0289778D02*
X0393201Y0289778D01*
X0360961Y0267811D02*
X0355527Y0267811D01*
X0354528Y0266813D02*
X0360048Y0266813D01*
X0360883Y0256828D02*
X0355449Y0256828D01*
X0354356Y0255829D02*
X0360016Y0255829D01*
X0359602Y0254831D02*
X0247683Y0254831D01*
X0247588Y0253832D02*
X0359507Y0253832D01*
X0359587Y0252834D02*
X0246589Y0252834D01*
X0244600Y0252834D02*
X0236290Y0252834D01*
X0235291Y0253832D02*
X0243601Y0253832D01*
X0243506Y0254831D02*
X0234293Y0254831D01*
X0233294Y0255829D02*
X0243676Y0255829D01*
X0244675Y0256828D02*
X0232296Y0256828D01*
X0237288Y0251835D02*
X0350383Y0251835D01*
X0349183Y0250837D02*
X0278351Y0250837D01*
X0277915Y0251272D02*
X0279081Y0250106D01*
X0279081Y0248457D01*
X0277915Y0247291D01*
X0276266Y0247291D01*
X0275100Y0248457D01*
X0275100Y0250106D01*
X0276266Y0251272D01*
X0277915Y0251272D01*
X0279081Y0249838D02*
X0348620Y0249838D01*
X0348325Y0248840D02*
X0279081Y0248840D01*
X0278465Y0247841D02*
X0348325Y0247841D01*
X0348621Y0246842D02*
X0242281Y0246842D01*
X0243279Y0245844D02*
X0349186Y0245844D01*
X0350389Y0244845D02*
X0342394Y0244845D01*
X0342959Y0244281D02*
X0341735Y0245504D01*
X0340005Y0245504D01*
X0338781Y0244281D01*
X0338781Y0242550D01*
X0340005Y0241326D01*
X0341735Y0241326D01*
X0342959Y0242550D01*
X0342959Y0244281D01*
X0342959Y0243847D02*
X0359570Y0243847D01*
X0359507Y0242848D02*
X0342959Y0242848D01*
X0342259Y0241850D02*
X0359619Y0241850D01*
X0360033Y0240851D02*
X0354362Y0240851D01*
X0355451Y0239853D02*
X0360925Y0239853D01*
X0359983Y0244845D02*
X0354167Y0244845D01*
X0355371Y0245844D02*
X0360805Y0245844D01*
X0360847Y0250837D02*
X0355373Y0250837D01*
X0354173Y0251835D02*
X0360001Y0251835D01*
X0350201Y0255829D02*
X0342667Y0255829D01*
X0342959Y0256828D02*
X0349108Y0256828D01*
X0348588Y0257826D02*
X0342959Y0257826D01*
X0341986Y0258825D02*
X0348325Y0258825D01*
X0339346Y0244845D02*
X0244278Y0244845D01*
X0245276Y0243847D02*
X0338781Y0243847D01*
X0338781Y0242848D02*
X0246275Y0242848D01*
X0247094Y0241850D02*
X0339481Y0241850D01*
X0303539Y0206902D02*
X0276249Y0206902D01*
X0276368Y0205904D02*
X0304537Y0205904D01*
X0305536Y0204905D02*
X0276190Y0204905D01*
X0275632Y0203907D02*
X0306534Y0203907D01*
X0307533Y0202908D02*
X0274151Y0202908D01*
X0275773Y0207901D02*
X0302540Y0207901D01*
X0301542Y0208899D02*
X0274493Y0208899D01*
X0264007Y0210896D02*
X0215541Y0210896D01*
X0214542Y0211895D02*
X0262687Y0211895D01*
X0262774Y0215889D02*
X0241991Y0215889D01*
X0241027Y0212893D02*
X0235643Y0212893D01*
X0233499Y0212893D02*
X0213544Y0212893D01*
X0212545Y0213892D02*
X0232580Y0213892D01*
X0232580Y0214890D02*
X0211547Y0214890D01*
X0210548Y0215889D02*
X0233009Y0215889D01*
X0235199Y0217886D02*
X0229868Y0217886D01*
X0229868Y0217748D02*
X0228702Y0216582D01*
X0227053Y0216582D01*
X0225887Y0217748D01*
X0225887Y0219397D01*
X0227053Y0220563D01*
X0228702Y0220563D01*
X0229868Y0219397D01*
X0229868Y0217748D01*
X0229868Y0218884D02*
X0234549Y0218884D01*
X0234549Y0218536D02*
X0234549Y0220185D01*
X0235715Y0221351D01*
X0237364Y0221351D01*
X0238530Y0220185D01*
X0238530Y0218536D01*
X0237364Y0217370D01*
X0235715Y0217370D01*
X0234549Y0218536D01*
X0234549Y0219883D02*
X0229383Y0219883D01*
X0226373Y0219883D02*
X0206554Y0219883D01*
X0205556Y0220881D02*
X0235245Y0220881D01*
X0237833Y0220881D02*
X0262149Y0220881D01*
X0262065Y0221880D02*
X0204557Y0221880D01*
X0203559Y0222878D02*
X0262279Y0222878D01*
X0262888Y0223877D02*
X0202560Y0223877D01*
X0203416Y0224875D02*
X0247548Y0224875D01*
X0238530Y0219883D02*
X0262573Y0219883D01*
X0263732Y0218884D02*
X0238530Y0218884D01*
X0237880Y0217886D02*
X0267029Y0217886D01*
X0267029Y0218884D02*
X0266827Y0218884D01*
X0267029Y0216887D02*
X0266343Y0216887D01*
X0264216Y0216887D02*
X0229007Y0216887D01*
X0226749Y0216887D02*
X0209550Y0216887D01*
X0208551Y0217886D02*
X0225887Y0217886D01*
X0225887Y0218884D02*
X0207553Y0218884D01*
X0198885Y0212893D02*
X0139129Y0212893D01*
X0139317Y0211895D02*
X0201084Y0211895D01*
X0201244Y0210896D02*
X0139158Y0210896D01*
X0138159Y0209898D02*
X0165493Y0209898D01*
X0164495Y0208899D02*
X0071949Y0208899D01*
X0072947Y0207901D02*
X0163496Y0207901D01*
X0162497Y0206902D02*
X0140404Y0206902D01*
X0141125Y0206181D02*
X0141125Y0206181D01*
X0141403Y0205904D02*
X0161499Y0205904D01*
X0180420Y0209898D02*
X0202242Y0209898D01*
X0197887Y0213892D02*
X0138217Y0213892D01*
X0139215Y0214890D02*
X0197631Y0214890D01*
X0197631Y0215889D02*
X0139317Y0215889D01*
X0139072Y0216887D02*
X0197423Y0216887D01*
X0196424Y0217886D02*
X0138274Y0217886D01*
X0139272Y0218884D02*
X0195426Y0218884D01*
X0194427Y0219883D02*
X0139317Y0219883D01*
X0139015Y0220881D02*
X0193429Y0220881D01*
X0192430Y0221880D02*
X0138724Y0221880D01*
X0139711Y0222878D02*
X0191432Y0222878D01*
X0190433Y0223877D02*
X0172102Y0223877D01*
X0171697Y0223472D02*
X0172979Y0224753D01*
X0172979Y0226565D01*
X0171697Y0227847D01*
X0169885Y0227847D01*
X0168604Y0226565D01*
X0168604Y0224753D01*
X0169885Y0223472D01*
X0171697Y0223472D01*
X0172979Y0224875D02*
X0189435Y0224875D01*
X0188436Y0225874D02*
X0172979Y0225874D01*
X0172672Y0226872D02*
X0187438Y0226872D01*
X0186439Y0227871D02*
X0063255Y0227871D01*
X0063255Y0228869D02*
X0185441Y0228869D01*
X0184442Y0229868D02*
X0176518Y0229868D01*
X0176916Y0230265D02*
X0175634Y0228984D01*
X0173822Y0228984D01*
X0172541Y0230265D01*
X0172541Y0232077D01*
X0173822Y0233359D01*
X0175634Y0233359D01*
X0176916Y0232077D01*
X0176916Y0230265D01*
X0176916Y0230866D02*
X0183444Y0230866D01*
X0182445Y0231865D02*
X0176916Y0231865D01*
X0176130Y0232863D02*
X0181447Y0232863D01*
X0180448Y0233862D02*
X0102900Y0233862D01*
X0102900Y0234046D02*
X0101619Y0235327D01*
X0099807Y0235327D01*
X0098525Y0234046D01*
X0098525Y0232234D01*
X0099807Y0230952D01*
X0101619Y0230952D01*
X0102900Y0232234D01*
X0102900Y0234046D01*
X0102085Y0234860D02*
X0179450Y0234860D01*
X0178451Y0235859D02*
X0063255Y0235859D01*
X0063255Y0236857D02*
X0177453Y0236857D01*
X0176454Y0237856D02*
X0063255Y0237856D01*
X0063255Y0238854D02*
X0175456Y0238854D01*
X0174457Y0239853D02*
X0063255Y0239853D01*
X0063255Y0240851D02*
X0173459Y0240851D01*
X0172460Y0241850D02*
X0130742Y0241850D01*
X0131443Y0242848D02*
X0171462Y0242848D01*
X0170463Y0243847D02*
X0131904Y0243847D01*
X0132821Y0244845D02*
X0169465Y0244845D01*
X0168466Y0245844D02*
X0132821Y0245844D01*
X0132821Y0246842D02*
X0167468Y0246842D01*
X0166469Y0247841D02*
X0132821Y0247841D01*
X0132821Y0248840D02*
X0165471Y0248840D01*
X0164472Y0249838D02*
X0132821Y0249838D01*
X0132821Y0250837D02*
X0163474Y0250837D01*
X0162475Y0251835D02*
X0152538Y0251835D01*
X0153097Y0252394D02*
X0151931Y0251228D01*
X0150282Y0251228D01*
X0149116Y0252394D01*
X0149116Y0253984D01*
X0148707Y0253984D01*
X0147541Y0255150D01*
X0147541Y0256799D01*
X0148707Y0257965D01*
X0150356Y0257965D01*
X0151522Y0256799D01*
X0151522Y0255209D01*
X0151931Y0255209D01*
X0153097Y0254043D01*
X0153097Y0252394D01*
X0153097Y0252834D02*
X0161477Y0252834D01*
X0160478Y0253832D02*
X0153097Y0253832D01*
X0152309Y0254831D02*
X0159480Y0254831D01*
X0158481Y0255829D02*
X0151522Y0255829D01*
X0151493Y0256828D02*
X0157483Y0256828D01*
X0156484Y0257826D02*
X0150495Y0257826D01*
X0148568Y0257826D02*
X0132821Y0257826D01*
X0132821Y0256828D02*
X0147570Y0256828D01*
X0147541Y0255829D02*
X0132821Y0255829D01*
X0132821Y0254831D02*
X0147860Y0254831D01*
X0149116Y0253832D02*
X0132821Y0253832D01*
X0132821Y0252834D02*
X0149116Y0252834D01*
X0149675Y0251835D02*
X0132821Y0251835D01*
X0128053Y0251835D02*
X0102506Y0251835D01*
X0102506Y0250837D02*
X0128053Y0250837D01*
X0128053Y0249838D02*
X0102506Y0249838D01*
X0102506Y0249122D02*
X0102506Y0298214D01*
X0103001Y0298709D01*
X0103610Y0300179D01*
X0103610Y0301770D01*
X0103001Y0303240D01*
X0101876Y0304365D01*
X0100406Y0304974D01*
X0098815Y0304974D01*
X0097344Y0304365D01*
X0096219Y0303240D01*
X0095610Y0301770D01*
X0095610Y0300179D01*
X0096219Y0298709D01*
X0097344Y0297583D01*
X0098815Y0296974D01*
X0099706Y0296974D01*
X0099706Y0249122D01*
X0099116Y0248531D01*
X0099116Y0246882D01*
X0100282Y0245716D01*
X0101931Y0245716D01*
X0103097Y0246882D01*
X0103097Y0248531D01*
X0102506Y0249122D01*
X0102789Y0248840D02*
X0128053Y0248840D01*
X0127462Y0247841D02*
X0103097Y0247841D01*
X0103057Y0246842D02*
X0127462Y0246842D01*
X0128107Y0245844D02*
X0102059Y0245844D01*
X0100154Y0245844D02*
X0063255Y0245844D01*
X0063255Y0246842D02*
X0099155Y0246842D01*
X0099116Y0247841D02*
X0063255Y0247841D01*
X0063255Y0248840D02*
X0099424Y0248840D01*
X0099706Y0249838D02*
X0063255Y0249838D01*
X0063255Y0250837D02*
X0099706Y0250837D01*
X0099706Y0251835D02*
X0063255Y0251835D01*
X0063255Y0252834D02*
X0099706Y0252834D01*
X0099706Y0253832D02*
X0063106Y0253832D01*
X0062108Y0254831D02*
X0099706Y0254831D01*
X0099706Y0255829D02*
X0061109Y0255829D01*
X0060111Y0256828D02*
X0099706Y0256828D01*
X0099706Y0257826D02*
X0059729Y0257826D01*
X0060214Y0258825D02*
X0099706Y0258825D01*
X0099706Y0259823D02*
X0060453Y0259823D01*
X0060453Y0260822D02*
X0099706Y0260822D01*
X0099706Y0261820D02*
X0060102Y0261820D01*
X0059458Y0262819D02*
X0099706Y0262819D01*
X0099706Y0263817D02*
X0058065Y0263817D01*
X0057286Y0265250D02*
X0058739Y0265852D01*
X0059851Y0266964D01*
X0060453Y0268416D01*
X0060453Y0269989D01*
X0059851Y0271442D01*
X0058739Y0272554D01*
X0057286Y0273155D01*
X0055714Y0273155D01*
X0054261Y0272554D01*
X0053149Y0271442D01*
X0052547Y0269989D01*
X0052547Y0268416D01*
X0053149Y0266964D01*
X0054261Y0265852D01*
X0055714Y0265250D01*
X0057286Y0265250D01*
X0058648Y0265814D02*
X0099706Y0265814D01*
X0099706Y0264816D02*
X0053808Y0264816D01*
X0054047Y0263817D02*
X0054935Y0263817D01*
X0054352Y0265814D02*
X0052809Y0265814D01*
X0053300Y0266813D02*
X0051811Y0266813D01*
X0052798Y0267811D02*
X0050812Y0267811D01*
X0049814Y0268810D02*
X0052547Y0268810D01*
X0052547Y0269808D02*
X0048815Y0269808D01*
X0049186Y0270807D02*
X0052886Y0270807D01*
X0053512Y0271805D02*
X0049989Y0271805D01*
X0050403Y0272804D02*
X0054865Y0272804D01*
X0055714Y0274266D02*
X0054261Y0274868D01*
X0053149Y0275979D01*
X0052547Y0277432D01*
X0052547Y0279005D01*
X0053149Y0280458D01*
X0054261Y0281569D01*
X0055714Y0282171D01*
X0057286Y0282171D01*
X0058739Y0281569D01*
X0059851Y0280458D01*
X0060453Y0279005D01*
X0060453Y0277432D01*
X0059851Y0275979D01*
X0058739Y0274868D01*
X0057286Y0274266D01*
X0055714Y0274266D01*
X0054422Y0274801D02*
X0050327Y0274801D01*
X0050453Y0273802D02*
X0099706Y0273802D01*
X0099706Y0272804D02*
X0058135Y0272804D01*
X0059487Y0271805D02*
X0099706Y0271805D01*
X0099706Y0270807D02*
X0060114Y0270807D01*
X0060453Y0269808D02*
X0099706Y0269808D01*
X0099706Y0268810D02*
X0060453Y0268810D01*
X0060202Y0267811D02*
X0099706Y0267811D01*
X0099706Y0266813D02*
X0059700Y0266813D01*
X0058578Y0274801D02*
X0099706Y0274801D01*
X0099706Y0275799D02*
X0059671Y0275799D01*
X0060190Y0276798D02*
X0099706Y0276798D01*
X0099706Y0277796D02*
X0060453Y0277796D01*
X0060453Y0278795D02*
X0099706Y0278795D01*
X0099706Y0279793D02*
X0089042Y0279793D01*
X0089020Y0279771D02*
X0090302Y0281053D01*
X0090302Y0282865D01*
X0089020Y0284146D01*
X0087208Y0284146D01*
X0085927Y0282865D01*
X0085927Y0281053D01*
X0087208Y0279771D01*
X0089020Y0279771D01*
X0090041Y0280792D02*
X0099706Y0280792D01*
X0099706Y0281790D02*
X0090302Y0281790D01*
X0090302Y0282789D02*
X0099706Y0282789D01*
X0099706Y0283787D02*
X0089379Y0283787D01*
X0086849Y0283787D02*
X0003500Y0283787D01*
X0003500Y0282789D02*
X0085927Y0282789D01*
X0085927Y0281790D02*
X0058206Y0281790D01*
X0059517Y0280792D02*
X0086188Y0280792D01*
X0087186Y0279793D02*
X0060126Y0279793D01*
X0054794Y0281790D02*
X0038206Y0281790D01*
X0038739Y0281569D02*
X0037286Y0282171D01*
X0035714Y0282171D01*
X0034261Y0281569D01*
X0033149Y0280458D01*
X0032547Y0279005D01*
X0032547Y0277432D01*
X0033149Y0275979D01*
X0034261Y0274868D01*
X0035714Y0274266D01*
X0037286Y0274266D01*
X0038739Y0274868D01*
X0039851Y0275979D01*
X0040453Y0277432D01*
X0040453Y0279005D01*
X0039851Y0280458D01*
X0038739Y0281569D01*
X0039517Y0280792D02*
X0053483Y0280792D01*
X0052874Y0279793D02*
X0040126Y0279793D01*
X0040453Y0278795D02*
X0052547Y0278795D01*
X0052547Y0277796D02*
X0040453Y0277796D01*
X0040190Y0276798D02*
X0043997Y0276798D01*
X0043087Y0275799D02*
X0039671Y0275799D01*
X0038578Y0274801D02*
X0042673Y0274801D01*
X0049003Y0276798D02*
X0052810Y0276798D01*
X0053329Y0275799D02*
X0049913Y0275799D01*
X0034422Y0274801D02*
X0003500Y0274801D01*
X0003500Y0275799D02*
X0033329Y0275799D01*
X0032810Y0276798D02*
X0003500Y0276798D01*
X0003500Y0277796D02*
X0032547Y0277796D01*
X0032547Y0278795D02*
X0003500Y0278795D01*
X0003500Y0279793D02*
X0032874Y0279793D01*
X0033483Y0280792D02*
X0003500Y0280792D01*
X0003500Y0281790D02*
X0034794Y0281790D01*
X0042118Y0300762D02*
X0003500Y0300762D01*
X0003500Y0299764D02*
X0044529Y0299764D01*
X0044771Y0299663D02*
X0048229Y0299663D01*
X0051424Y0300987D01*
X0053869Y0303432D01*
X0055193Y0306627D01*
X0055193Y0310085D01*
X0053869Y0313280D01*
X0051424Y0315726D01*
X0048229Y0317049D01*
X0044771Y0317049D01*
X0041576Y0315726D01*
X0039130Y0313280D01*
X0037807Y0310085D01*
X0037807Y0306627D01*
X0039130Y0303432D01*
X0041576Y0300987D01*
X0044771Y0299663D01*
X0048471Y0299764D02*
X0095782Y0299764D01*
X0095610Y0300762D02*
X0050882Y0300762D01*
X0052198Y0301761D02*
X0095610Y0301761D01*
X0096020Y0302759D02*
X0053196Y0302759D01*
X0054004Y0303758D02*
X0096737Y0303758D01*
X0098288Y0304756D02*
X0054418Y0304756D01*
X0054831Y0305755D02*
X0250961Y0305755D01*
X0250201Y0304756D02*
X0140933Y0304756D01*
X0140406Y0304974D02*
X0138815Y0304974D01*
X0137344Y0304365D01*
X0136219Y0303240D01*
X0135610Y0301770D01*
X0135610Y0300179D01*
X0136219Y0298709D01*
X0137344Y0297583D01*
X0138815Y0296974D01*
X0140406Y0296974D01*
X0141876Y0297583D01*
X0143001Y0298709D01*
X0143610Y0300179D01*
X0143610Y0301770D01*
X0143001Y0303240D01*
X0141876Y0304365D01*
X0140406Y0304974D01*
X0140110Y0306498D02*
X0140664Y0306585D01*
X0141338Y0306804D01*
X0141969Y0307126D01*
X0142542Y0307542D01*
X0143043Y0308043D01*
X0143459Y0308616D01*
X0143781Y0309247D01*
X0143999Y0309921D01*
X0144087Y0310474D01*
X0140110Y0310474D01*
X0140110Y0306498D01*
X0140110Y0306753D02*
X0139110Y0306753D01*
X0139110Y0306498D02*
X0139110Y0310474D01*
X0140110Y0310474D01*
X0140110Y0311474D01*
X0144087Y0311474D01*
X0143999Y0312028D01*
X0143781Y0312702D01*
X0143459Y0313333D01*
X0143043Y0313906D01*
X0142542Y0314407D01*
X0141969Y0314823D01*
X0141338Y0315145D01*
X0140664Y0315364D01*
X0140110Y0315451D01*
X0140110Y0311474D01*
X0139110Y0311474D01*
X0139110Y0310474D01*
X0135133Y0310474D01*
X0135221Y0309921D01*
X0135440Y0309247D01*
X0135761Y0308616D01*
X0136178Y0308043D01*
X0136679Y0307542D01*
X0137252Y0307126D01*
X0137883Y0306804D01*
X0138556Y0306585D01*
X0139110Y0306498D01*
X0138040Y0306753D02*
X0055193Y0306753D01*
X0055193Y0307752D02*
X0097176Y0307752D01*
X0097344Y0307583D02*
X0098815Y0306974D01*
X0100406Y0306974D01*
X0101876Y0307583D01*
X0103001Y0308709D01*
X0103610Y0310179D01*
X0103610Y0311770D01*
X0103001Y0313240D01*
X0101876Y0314365D01*
X0100406Y0314974D01*
X0098815Y0314974D01*
X0097344Y0314365D01*
X0096219Y0313240D01*
X0095610Y0311770D01*
X0095610Y0310179D01*
X0096219Y0308709D01*
X0097344Y0307583D01*
X0096202Y0308750D02*
X0055193Y0308750D01*
X0055193Y0309749D02*
X0095788Y0309749D01*
X0095610Y0310747D02*
X0054919Y0310747D01*
X0054505Y0311746D02*
X0095610Y0311746D01*
X0096014Y0312744D02*
X0054092Y0312744D01*
X0053407Y0313743D02*
X0096722Y0313743D01*
X0098252Y0314741D02*
X0069072Y0314741D01*
X0069577Y0315740D02*
X0196022Y0315740D01*
X0196022Y0316738D02*
X0069577Y0316738D01*
X0069015Y0317737D02*
X0196583Y0317737D01*
X0196526Y0314741D02*
X0142081Y0314741D01*
X0143161Y0313743D02*
X0351833Y0313743D01*
X0350980Y0312744D02*
X0143759Y0312744D01*
X0144044Y0311746D02*
X0350567Y0311746D01*
X0350153Y0310747D02*
X0140110Y0310747D01*
X0140110Y0309749D02*
X0139110Y0309749D01*
X0139110Y0310747D02*
X0133610Y0310747D01*
X0133610Y0310179D02*
X0133001Y0308709D01*
X0131876Y0307583D01*
X0130406Y0306974D01*
X0128815Y0306974D01*
X0127344Y0307583D01*
X0126219Y0308709D01*
X0125610Y0310179D01*
X0125610Y0311770D01*
X0126219Y0313240D01*
X0127344Y0314365D01*
X0128815Y0314974D01*
X0130406Y0314974D01*
X0131876Y0314365D01*
X0133001Y0313240D01*
X0133610Y0311770D01*
X0133610Y0310179D01*
X0133432Y0309749D02*
X0135277Y0309749D01*
X0135693Y0308750D02*
X0133018Y0308750D01*
X0132044Y0307752D02*
X0136469Y0307752D01*
X0139110Y0307752D02*
X0140110Y0307752D01*
X0140110Y0308750D02*
X0139110Y0308750D01*
X0139110Y0311474D02*
X0135133Y0311474D01*
X0135221Y0312028D01*
X0135440Y0312702D01*
X0135761Y0313333D01*
X0136178Y0313906D01*
X0136679Y0314407D01*
X0137252Y0314823D01*
X0137883Y0315145D01*
X0138556Y0315364D01*
X0139110Y0315451D01*
X0139110Y0311474D01*
X0139110Y0311746D02*
X0140110Y0311746D01*
X0140110Y0312744D02*
X0139110Y0312744D01*
X0139110Y0313743D02*
X0140110Y0313743D01*
X0140110Y0314741D02*
X0139110Y0314741D01*
X0137139Y0314741D02*
X0130969Y0314741D01*
X0132499Y0313743D02*
X0136059Y0313743D01*
X0135462Y0312744D02*
X0133207Y0312744D01*
X0133610Y0311746D02*
X0135176Y0311746D01*
X0141181Y0306753D02*
X0251959Y0306753D01*
X0253316Y0307752D02*
X0142751Y0307752D01*
X0143527Y0308750D02*
X0255727Y0308750D01*
X0259084Y0308750D02*
X0349865Y0308750D01*
X0349865Y0307752D02*
X0261495Y0307752D01*
X0262852Y0306753D02*
X0349912Y0306753D01*
X0350326Y0305755D02*
X0263850Y0305755D01*
X0264610Y0304756D02*
X0350739Y0304756D01*
X0351251Y0303758D02*
X0265024Y0303758D01*
X0265437Y0302759D02*
X0352250Y0302759D01*
X0353248Y0301761D02*
X0265705Y0301761D01*
X0265705Y0300762D02*
X0355537Y0300762D01*
X0349865Y0309749D02*
X0143944Y0309749D01*
X0142484Y0303758D02*
X0249787Y0303758D01*
X0249374Y0302759D02*
X0143201Y0302759D01*
X0143610Y0301761D02*
X0249106Y0301761D01*
X0249106Y0300762D02*
X0143610Y0300762D01*
X0143438Y0299764D02*
X0249106Y0299764D01*
X0249126Y0298765D02*
X0143025Y0298765D01*
X0142059Y0297767D02*
X0249539Y0297767D01*
X0249953Y0296768D02*
X0134481Y0296768D01*
X0133483Y0297767D02*
X0137161Y0297767D01*
X0136196Y0298765D02*
X0133025Y0298765D01*
X0133438Y0299764D02*
X0135782Y0299764D01*
X0135610Y0300762D02*
X0133610Y0300762D01*
X0133610Y0301761D02*
X0135610Y0301761D01*
X0136020Y0302759D02*
X0133201Y0302759D01*
X0132484Y0303758D02*
X0136737Y0303758D01*
X0138288Y0304756D02*
X0130933Y0304756D01*
X0128288Y0304756D02*
X0120933Y0304756D01*
X0122484Y0303758D02*
X0126737Y0303758D01*
X0126020Y0302759D02*
X0123201Y0302759D01*
X0123610Y0301761D02*
X0125610Y0301761D01*
X0125610Y0300762D02*
X0123610Y0300762D01*
X0123438Y0299764D02*
X0125782Y0299764D01*
X0126196Y0298765D02*
X0123025Y0298765D01*
X0116196Y0298765D02*
X0113941Y0298765D01*
X0113438Y0299764D02*
X0115782Y0299764D01*
X0115610Y0300762D02*
X0113610Y0300762D01*
X0113610Y0301761D02*
X0115610Y0301761D01*
X0116020Y0302759D02*
X0113201Y0302759D01*
X0112484Y0303758D02*
X0116737Y0303758D01*
X0118288Y0304756D02*
X0110933Y0304756D01*
X0110406Y0306974D02*
X0111876Y0307583D01*
X0113001Y0308709D01*
X0113610Y0310179D01*
X0113610Y0311770D01*
X0113001Y0313240D01*
X0111876Y0314365D01*
X0110406Y0314974D01*
X0108815Y0314974D01*
X0107344Y0314365D01*
X0106219Y0313240D01*
X0105610Y0311770D01*
X0105610Y0310179D01*
X0106219Y0308709D01*
X0107344Y0307583D01*
X0108815Y0306974D01*
X0110406Y0306974D01*
X0112044Y0307752D02*
X0117176Y0307752D01*
X0117344Y0307583D02*
X0118815Y0306974D01*
X0120406Y0306974D01*
X0121876Y0307583D01*
X0123001Y0308709D01*
X0123610Y0310179D01*
X0123610Y0311770D01*
X0123001Y0313240D01*
X0121876Y0314365D01*
X0120406Y0314974D01*
X0118815Y0314974D01*
X0117344Y0314365D01*
X0116219Y0313240D01*
X0115610Y0311770D01*
X0115610Y0310179D01*
X0116219Y0308709D01*
X0117344Y0307583D01*
X0116202Y0308750D02*
X0113018Y0308750D01*
X0113432Y0309749D02*
X0115788Y0309749D01*
X0115610Y0310747D02*
X0113610Y0310747D01*
X0113610Y0311746D02*
X0115610Y0311746D01*
X0116014Y0312744D02*
X0113207Y0312744D01*
X0112499Y0313743D02*
X0116722Y0313743D01*
X0118252Y0314741D02*
X0110969Y0314741D01*
X0108252Y0314741D02*
X0100969Y0314741D01*
X0102499Y0313743D02*
X0106722Y0313743D01*
X0106014Y0312744D02*
X0103207Y0312744D01*
X0103610Y0311746D02*
X0105610Y0311746D01*
X0105610Y0310747D02*
X0103610Y0310747D01*
X0103432Y0309749D02*
X0105788Y0309749D01*
X0106202Y0308750D02*
X0103018Y0308750D01*
X0102044Y0307752D02*
X0107176Y0307752D01*
X0108288Y0304756D02*
X0100933Y0304756D01*
X0102484Y0303758D02*
X0106737Y0303758D01*
X0106020Y0302759D02*
X0103201Y0302759D01*
X0103610Y0301761D02*
X0105610Y0301761D01*
X0105610Y0300762D02*
X0103610Y0300762D01*
X0103438Y0299764D02*
X0105782Y0299764D01*
X0106196Y0298765D02*
X0103025Y0298765D01*
X0102506Y0297767D02*
X0107161Y0297767D01*
X0109610Y0300974D02*
X0113665Y0296919D01*
X0132209Y0296919D01*
X0134571Y0294557D01*
X0136561Y0294771D02*
X0251360Y0294771D01*
X0250366Y0295770D02*
X0136173Y0295770D01*
X0133539Y0292774D02*
X0102506Y0292774D01*
X0102506Y0293773D02*
X0132580Y0293773D01*
X0132236Y0294771D02*
X0102506Y0294771D01*
X0102506Y0295770D02*
X0112694Y0295770D01*
X0111695Y0296768D02*
X0102506Y0296768D01*
X0099706Y0296768D02*
X0003500Y0296768D01*
X0003500Y0295770D02*
X0099706Y0295770D01*
X0099706Y0294771D02*
X0003500Y0294771D01*
X0003500Y0293773D02*
X0099706Y0293773D01*
X0099706Y0292774D02*
X0003500Y0292774D01*
X0003500Y0291776D02*
X0099706Y0291776D01*
X0099706Y0290777D02*
X0003500Y0290777D01*
X0003500Y0289778D02*
X0099706Y0289778D01*
X0099706Y0288780D02*
X0074544Y0288780D01*
X0074947Y0288377D02*
X0073666Y0289658D01*
X0071854Y0289658D01*
X0070572Y0288377D01*
X0070572Y0286564D01*
X0071854Y0285283D01*
X0073666Y0285283D01*
X0074947Y0286564D01*
X0074947Y0288377D01*
X0074947Y0287781D02*
X0099706Y0287781D01*
X0099706Y0286783D02*
X0074947Y0286783D01*
X0074167Y0285784D02*
X0099706Y0285784D01*
X0099706Y0284786D02*
X0003500Y0284786D01*
X0003500Y0285784D02*
X0071352Y0285784D01*
X0070572Y0286783D02*
X0003500Y0286783D01*
X0003500Y0287781D02*
X0070572Y0287781D01*
X0070976Y0288780D02*
X0003500Y0288780D01*
X0003500Y0297767D02*
X0097161Y0297767D01*
X0096196Y0298765D02*
X0003500Y0298765D01*
X0003500Y0301761D02*
X0040802Y0301761D01*
X0039804Y0302759D02*
X0003500Y0302759D01*
X0003500Y0303758D02*
X0038996Y0303758D01*
X0038582Y0304756D02*
X0003500Y0304756D01*
X0003500Y0305755D02*
X0038168Y0305755D01*
X0037807Y0306753D02*
X0003500Y0306753D01*
X0003500Y0307752D02*
X0037807Y0307752D01*
X0037807Y0308750D02*
X0003500Y0308750D01*
X0003500Y0309749D02*
X0037807Y0309749D01*
X0038081Y0310747D02*
X0003500Y0310747D01*
X0003500Y0311746D02*
X0038495Y0311746D01*
X0038908Y0312744D02*
X0003500Y0312744D01*
X0003500Y0313743D02*
X0039593Y0313743D01*
X0040591Y0314741D02*
X0007261Y0314741D01*
X0007766Y0315740D02*
X0041610Y0315740D01*
X0044020Y0316738D02*
X0007766Y0316738D01*
X0007204Y0317737D02*
X0065481Y0317737D01*
X0064919Y0316738D02*
X0048980Y0316738D01*
X0051390Y0315740D02*
X0064919Y0315740D01*
X0065424Y0314741D02*
X0052409Y0314741D01*
X0003613Y0314741D02*
X0003500Y0314741D01*
X0058760Y0247841D02*
X0059155Y0247841D01*
X0063255Y0244845D02*
X0128107Y0244845D01*
X0127462Y0243847D02*
X0063255Y0243847D01*
X0063255Y0242848D02*
X0127462Y0242848D01*
X0128164Y0241850D02*
X0063255Y0241850D01*
X0063255Y0234860D02*
X0099340Y0234860D01*
X0098525Y0233862D02*
X0063255Y0233862D01*
X0063255Y0232863D02*
X0098525Y0232863D01*
X0098894Y0231865D02*
X0063255Y0231865D01*
X0063255Y0230866D02*
X0172541Y0230866D01*
X0172541Y0231865D02*
X0102531Y0231865D01*
X0102900Y0232863D02*
X0173327Y0232863D01*
X0172938Y0229868D02*
X0063255Y0229868D01*
X0063255Y0226872D02*
X0168911Y0226872D01*
X0168604Y0225874D02*
X0063255Y0225874D01*
X0069952Y0210896D02*
X0135496Y0210896D01*
X0136494Y0209898D02*
X0070950Y0209898D01*
X0073946Y0206902D02*
X0137399Y0206902D01*
X0136400Y0205904D02*
X0074944Y0205904D01*
X0075943Y0204905D02*
X0135402Y0204905D01*
X0134403Y0203907D02*
X0076941Y0203907D01*
X0077940Y0202908D02*
X0133405Y0202908D01*
X0139711Y0223877D02*
X0169481Y0223877D01*
X0168604Y0224875D02*
X0139351Y0224875D01*
X0128053Y0252834D02*
X0118497Y0252834D01*
X0118466Y0252803D02*
X0119632Y0253969D01*
X0119632Y0255618D01*
X0118466Y0256784D01*
X0116817Y0256784D01*
X0115651Y0255618D01*
X0115651Y0253969D01*
X0116817Y0252803D01*
X0118466Y0252803D01*
X0119496Y0253832D02*
X0128053Y0253832D01*
X0128053Y0254831D02*
X0122856Y0254831D01*
X0122797Y0254771D02*
X0123963Y0255937D01*
X0123963Y0257586D01*
X0122797Y0258752D01*
X0121148Y0258752D01*
X0119982Y0257586D01*
X0119982Y0255937D01*
X0121148Y0254771D01*
X0122797Y0254771D01*
X0123855Y0255829D02*
X0128053Y0255829D01*
X0128053Y0256828D02*
X0123963Y0256828D01*
X0123723Y0257826D02*
X0128053Y0257826D01*
X0128053Y0258825D02*
X0102506Y0258825D01*
X0102506Y0259823D02*
X0112159Y0259823D01*
X0111714Y0260268D02*
X0112880Y0259102D01*
X0114529Y0259102D01*
X0115695Y0260268D01*
X0115695Y0261917D01*
X0114529Y0263083D01*
X0112880Y0263083D01*
X0111714Y0261917D01*
X0111714Y0260268D01*
X0111714Y0260822D02*
X0102506Y0260822D01*
X0102506Y0261820D02*
X0111714Y0261820D01*
X0112616Y0262819D02*
X0102506Y0262819D01*
X0102506Y0263817D02*
X0128053Y0263817D01*
X0128053Y0262819D02*
X0126605Y0262819D01*
X0126340Y0263083D02*
X0124691Y0263083D01*
X0123525Y0261917D01*
X0123525Y0260268D01*
X0124691Y0259102D01*
X0126340Y0259102D01*
X0127506Y0260268D01*
X0127506Y0261917D01*
X0126340Y0263083D01*
X0127506Y0261820D02*
X0128053Y0261820D01*
X0128053Y0260822D02*
X0127506Y0260822D01*
X0127061Y0259823D02*
X0128053Y0259823D01*
X0123970Y0259823D02*
X0115250Y0259823D01*
X0115695Y0260822D02*
X0123525Y0260822D01*
X0123525Y0261820D02*
X0115695Y0261820D01*
X0114794Y0262819D02*
X0124427Y0262819D01*
X0128053Y0264816D02*
X0102506Y0264816D01*
X0102506Y0265814D02*
X0128053Y0265814D01*
X0132821Y0261820D02*
X0154415Y0261820D01*
X0154415Y0260822D02*
X0132821Y0260822D01*
X0132821Y0259823D02*
X0154487Y0259823D01*
X0155486Y0258825D02*
X0132821Y0258825D01*
X0141037Y0263817D02*
X0141490Y0263817D01*
X0142061Y0266813D02*
X0140466Y0266813D01*
X0154212Y0279793D02*
X0155042Y0279793D01*
X0154923Y0280792D02*
X0153213Y0280792D01*
X0152909Y0281790D02*
X0155070Y0281790D01*
X0155210Y0278795D02*
X0156040Y0278795D01*
X0179830Y0274801D02*
X0276173Y0274801D01*
X0275174Y0273802D02*
X0180828Y0273802D01*
X0181827Y0272804D02*
X0275100Y0272804D01*
X0275374Y0271805D02*
X0182825Y0271805D01*
X0174160Y0256828D02*
X0224616Y0256828D01*
X0224608Y0255829D02*
X0173232Y0255829D01*
X0173232Y0254831D02*
X0224866Y0254831D01*
X0222863Y0253832D02*
X0219575Y0253832D01*
X0220518Y0252834D02*
X0222287Y0252834D01*
X0221699Y0251835D02*
X0220518Y0251835D01*
X0220701Y0250837D02*
X0220197Y0250837D01*
X0221148Y0249163D02*
X0218984Y0249163D01*
X0215166Y0245344D01*
X0210161Y0245344D01*
X0208705Y0243847D02*
X0182590Y0243847D01*
X0181591Y0244845D02*
X0201407Y0244845D01*
X0201422Y0244830D02*
X0203153Y0244830D01*
X0204376Y0246054D01*
X0204376Y0247785D01*
X0203153Y0249008D01*
X0201422Y0249008D01*
X0200198Y0247785D01*
X0200198Y0246054D01*
X0201422Y0244830D01*
X0200408Y0245844D02*
X0182492Y0245844D01*
X0182723Y0246842D02*
X0182915Y0246842D01*
X0184651Y0246842D02*
X0200198Y0246842D01*
X0200255Y0247841D02*
X0185650Y0247841D01*
X0185872Y0248840D02*
X0201253Y0248840D01*
X0203321Y0248840D02*
X0216539Y0248840D01*
X0217538Y0249838D02*
X0185828Y0249838D01*
X0184830Y0250837D02*
X0216662Y0250837D01*
X0216340Y0251835D02*
X0174602Y0251835D01*
X0175600Y0250837D02*
X0182737Y0250837D01*
X0181738Y0249838D02*
X0176599Y0249838D01*
X0177597Y0248840D02*
X0179579Y0248840D01*
X0181688Y0248840D02*
X0181694Y0248840D01*
X0173603Y0252834D02*
X0216340Y0252834D01*
X0217284Y0253832D02*
X0173232Y0253832D01*
X0203168Y0244845D02*
X0208072Y0244845D01*
X0208072Y0245844D02*
X0204166Y0245844D01*
X0204376Y0246842D02*
X0208705Y0246842D01*
X0204320Y0247841D02*
X0215541Y0247841D01*
X0217786Y0245844D02*
X0222595Y0245844D01*
X0222344Y0246842D02*
X0218785Y0246842D01*
X0221148Y0249163D02*
X0224376Y0252390D01*
X0223440Y0248840D02*
X0222946Y0248840D01*
X0222441Y0247841D02*
X0221948Y0247841D01*
X0225615Y0257826D02*
X0209401Y0257826D01*
X0210399Y0258825D02*
X0226056Y0258825D01*
X0225057Y0259823D02*
X0210522Y0259823D01*
X0210522Y0260822D02*
X0224059Y0260822D01*
X0238287Y0250837D02*
X0275831Y0250837D01*
X0275100Y0249838D02*
X0239285Y0249838D01*
X0240284Y0248840D02*
X0275100Y0248840D01*
X0275716Y0247841D02*
X0241282Y0247841D01*
X0223355Y0202908D02*
X0200295Y0202908D01*
X0200341Y0201909D02*
X0222357Y0201909D01*
X0221358Y0200911D02*
X0200039Y0200911D01*
X0203300Y0189927D02*
X0187939Y0189927D01*
X0187939Y0188929D02*
X0202301Y0188929D01*
X0201302Y0187930D02*
X0187730Y0187930D01*
X0186732Y0186932D02*
X0200304Y0186932D01*
X0199305Y0185933D02*
X0181327Y0185933D01*
X0182034Y0184935D02*
X0198307Y0184935D01*
X0197308Y0183936D02*
X0182034Y0183936D01*
X0181557Y0182938D02*
X0196310Y0182938D01*
X0193314Y0179942D02*
X0121604Y0179942D01*
X0121604Y0178944D02*
X0192316Y0178944D01*
X0191317Y0177945D02*
X0121604Y0177945D01*
X0121604Y0176947D02*
X0190319Y0176947D01*
X0189320Y0175948D02*
X0121604Y0175948D01*
X0121604Y0174950D02*
X0188322Y0174950D01*
X0187323Y0173951D02*
X0121604Y0173951D01*
X0121604Y0172953D02*
X0186325Y0172953D01*
X0185326Y0171954D02*
X0121604Y0171954D01*
X0121604Y0170956D02*
X0184328Y0170956D01*
X0183329Y0169957D02*
X0121604Y0169957D01*
X0121604Y0168959D02*
X0182331Y0168959D01*
X0181332Y0167960D02*
X0121604Y0167960D01*
X0121909Y0166962D02*
X0180334Y0166962D01*
X0179335Y0165963D02*
X0122908Y0165963D01*
X0123906Y0164965D02*
X0178337Y0164965D01*
X0177338Y0163966D02*
X0124905Y0163966D01*
X0125903Y0162968D02*
X0176340Y0162968D01*
X0175341Y0161969D02*
X0126902Y0161969D01*
X0127900Y0160971D02*
X0174343Y0160971D01*
X0181957Y0160971D02*
X0244139Y0160971D01*
X0243141Y0161969D02*
X0182955Y0161969D01*
X0183954Y0162968D02*
X0242142Y0162968D01*
X0241144Y0163966D02*
X0184952Y0163966D01*
X0185951Y0164965D02*
X0200973Y0164965D01*
X0201422Y0164515D02*
X0203153Y0164515D01*
X0204376Y0165739D01*
X0204376Y0167470D01*
X0203153Y0168693D01*
X0201422Y0168693D01*
X0200198Y0167470D01*
X0200198Y0165739D01*
X0201422Y0164515D01*
X0200198Y0165963D02*
X0186949Y0165963D01*
X0187948Y0166962D02*
X0200198Y0166962D01*
X0200689Y0167960D02*
X0188946Y0167960D01*
X0189945Y0168959D02*
X0236151Y0168959D01*
X0235153Y0169957D02*
X0190943Y0169957D01*
X0191942Y0170956D02*
X0234154Y0170956D01*
X0233156Y0171954D02*
X0192940Y0171954D01*
X0193939Y0172953D02*
X0232157Y0172953D01*
X0231159Y0173951D02*
X0194937Y0173951D01*
X0195936Y0174950D02*
X0200830Y0174950D01*
X0201422Y0174358D02*
X0203153Y0174358D01*
X0204376Y0175582D01*
X0204376Y0177312D01*
X0203153Y0178536D01*
X0201422Y0178536D01*
X0200198Y0177312D01*
X0200198Y0175582D01*
X0201422Y0174358D01*
X0200198Y0175948D02*
X0196934Y0175948D01*
X0197933Y0176947D02*
X0200198Y0176947D01*
X0200832Y0177945D02*
X0198931Y0177945D01*
X0199930Y0178944D02*
X0226166Y0178944D01*
X0225167Y0179942D02*
X0200928Y0179942D01*
X0201927Y0180941D02*
X0224169Y0180941D01*
X0223170Y0181939D02*
X0202925Y0181939D01*
X0203924Y0182938D02*
X0222172Y0182938D01*
X0221173Y0183936D02*
X0204922Y0183936D01*
X0205921Y0184935D02*
X0220175Y0184935D01*
X0219176Y0185933D02*
X0206919Y0185933D01*
X0207918Y0186932D02*
X0218178Y0186932D01*
X0217179Y0187930D02*
X0208916Y0187930D01*
X0209915Y0188929D02*
X0216181Y0188929D01*
X0214338Y0189927D02*
X0211890Y0189927D01*
X0212152Y0190926D02*
X0214076Y0190926D01*
X0214162Y0191924D02*
X0212066Y0191924D01*
X0217971Y0191924D02*
X0220068Y0191924D01*
X0219982Y0190926D02*
X0218126Y0190926D01*
X0219124Y0189927D02*
X0220244Y0189927D01*
X0220123Y0188929D02*
X0222086Y0188929D01*
X0221121Y0187930D02*
X0223085Y0187930D01*
X0222120Y0186932D02*
X0224083Y0186932D01*
X0223118Y0185933D02*
X0225082Y0185933D01*
X0224117Y0184935D02*
X0226080Y0184935D01*
X0225115Y0183936D02*
X0227079Y0183936D01*
X0226114Y0182938D02*
X0228077Y0182938D01*
X0227112Y0181939D02*
X0229076Y0181939D01*
X0228111Y0180941D02*
X0230074Y0180941D01*
X0229109Y0179942D02*
X0231073Y0179942D01*
X0231602Y0178944D02*
X0230108Y0178944D01*
X0231106Y0177945D02*
X0231602Y0177945D01*
X0229162Y0175948D02*
X0204376Y0175948D01*
X0204376Y0176947D02*
X0228163Y0176947D01*
X0227164Y0177945D02*
X0203743Y0177945D01*
X0203744Y0174950D02*
X0230160Y0174950D01*
X0237150Y0167960D02*
X0203886Y0167960D01*
X0204376Y0166962D02*
X0238148Y0166962D01*
X0239147Y0165963D02*
X0204376Y0165963D01*
X0203602Y0164965D02*
X0240145Y0164965D01*
X0227665Y0187930D02*
X0227027Y0187930D01*
X0227665Y0188929D02*
X0226028Y0188929D01*
X0225030Y0189927D02*
X0227665Y0189927D01*
X0227069Y0190926D02*
X0224031Y0190926D01*
X0223877Y0191924D02*
X0227069Y0191924D01*
X0225001Y0196917D02*
X0233173Y0196917D01*
X0244411Y0201909D02*
X0308531Y0201909D01*
X0309530Y0200911D02*
X0245409Y0200911D01*
X0220230Y0199912D02*
X0188235Y0199912D01*
X0188235Y0198914D02*
X0219231Y0198914D01*
X0221007Y0192923D02*
X0221066Y0192923D01*
X0200615Y0148988D02*
X0169974Y0148988D01*
X0168976Y0147990D02*
X0200198Y0147990D01*
X0200198Y0146991D02*
X0167977Y0146991D01*
X0166979Y0145993D02*
X0201047Y0145993D01*
X0176119Y0133012D02*
X0319284Y0133012D01*
X0318309Y0132014D02*
X0153000Y0132014D01*
X0153998Y0133012D02*
X0174125Y0133012D01*
X0173126Y0134011D02*
X0154997Y0134011D01*
X0155995Y0135009D02*
X0172935Y0135009D01*
X0172935Y0136008D02*
X0156994Y0136008D01*
X0157992Y0137006D02*
X0173927Y0137006D01*
X0172878Y0129028D02*
X0171066Y0129028D01*
X0169785Y0127747D01*
X0169785Y0125934D01*
X0171066Y0124653D01*
X0172878Y0124653D01*
X0174160Y0125934D01*
X0174160Y0127747D01*
X0172878Y0129028D01*
X0172888Y0129018D02*
X0232474Y0129018D01*
X0232877Y0129422D02*
X0231596Y0128140D01*
X0231596Y0126328D01*
X0232877Y0125047D01*
X0234690Y0125047D01*
X0235971Y0126328D01*
X0235971Y0128140D01*
X0234690Y0129422D01*
X0232877Y0129422D01*
X0231596Y0128020D02*
X0173887Y0128020D01*
X0174160Y0127021D02*
X0231596Y0127021D01*
X0231902Y0126023D02*
X0174160Y0126023D01*
X0173249Y0125024D02*
X0314470Y0125024D01*
X0314470Y0126023D02*
X0271098Y0126023D01*
X0271404Y0126328D02*
X0270123Y0125047D01*
X0268310Y0125047D01*
X0267029Y0126328D01*
X0267029Y0128140D01*
X0268310Y0129422D01*
X0270123Y0129422D01*
X0271404Y0128140D01*
X0271404Y0126328D01*
X0271404Y0127021D02*
X0315401Y0127021D01*
X0316832Y0128020D02*
X0271404Y0128020D01*
X0270526Y0129018D02*
X0317792Y0129018D01*
X0318598Y0130017D02*
X0151003Y0130017D01*
X0152001Y0131015D02*
X0318309Y0131015D01*
X0314886Y0124026D02*
X0145012Y0124026D01*
X0146010Y0125024D02*
X0170695Y0125024D01*
X0169785Y0126023D02*
X0147009Y0126023D01*
X0148007Y0127021D02*
X0169785Y0127021D01*
X0170058Y0128020D02*
X0149006Y0128020D01*
X0150004Y0129018D02*
X0171057Y0129018D01*
X0165824Y0121030D02*
X0142016Y0121030D01*
X0141018Y0120032D02*
X0165061Y0120032D01*
X0165061Y0119033D02*
X0140019Y0119033D01*
X0139021Y0118035D02*
X0165480Y0118035D01*
X0128354Y0111045D02*
X0125369Y0111045D01*
X0110858Y0101060D02*
X0069605Y0101060D01*
X0070518Y0100061D02*
X0109860Y0100061D01*
X0108861Y0099063D02*
X0070518Y0099063D01*
X0070166Y0098064D02*
X0107863Y0098064D01*
X0042700Y0120032D02*
X0039710Y0120032D01*
X0040296Y0119033D02*
X0041701Y0119033D01*
X0040703Y0118035D02*
X0040606Y0118035D01*
X0038455Y0121030D02*
X0042779Y0121030D01*
X0034923Y0112043D02*
X0003500Y0112043D01*
X0003500Y0111045D02*
X0033627Y0111045D01*
X0033023Y0110046D02*
X0003500Y0110046D01*
X0003500Y0109048D02*
X0032701Y0109048D01*
X0032701Y0108049D02*
X0003500Y0108049D01*
X0003500Y0107051D02*
X0032968Y0107051D01*
X0033493Y0106052D02*
X0003500Y0106052D01*
X0003500Y0105054D02*
X0034600Y0105054D01*
X0105234Y0168959D02*
X0118404Y0168959D01*
X0118404Y0169957D02*
X0105951Y0169957D01*
X0105951Y0170956D02*
X0118404Y0170956D01*
X0118404Y0171954D02*
X0105404Y0171954D01*
X0102506Y0252834D02*
X0116786Y0252834D01*
X0115788Y0253832D02*
X0102506Y0253832D01*
X0102506Y0254831D02*
X0115651Y0254831D01*
X0115862Y0255829D02*
X0102506Y0255829D01*
X0102506Y0256828D02*
X0119982Y0256828D01*
X0120090Y0255829D02*
X0119421Y0255829D01*
X0119632Y0254831D02*
X0121089Y0254831D01*
X0120222Y0257826D02*
X0102506Y0257826D01*
X0122044Y0307752D02*
X0127176Y0307752D01*
X0126202Y0308750D02*
X0123018Y0308750D01*
X0123432Y0309749D02*
X0125788Y0309749D01*
X0125610Y0310747D02*
X0123610Y0310747D01*
X0123610Y0311746D02*
X0125610Y0311746D01*
X0126014Y0312744D02*
X0123207Y0312744D01*
X0122499Y0313743D02*
X0126722Y0313743D01*
X0128252Y0314741D02*
X0120969Y0314741D01*
X0200118Y0317737D02*
X0262725Y0317737D01*
X0262163Y0316738D02*
X0200679Y0316738D01*
X0200679Y0315740D02*
X0262163Y0315740D01*
X0262668Y0314741D02*
X0200174Y0314741D01*
X0263451Y0294771D02*
X0276030Y0294771D01*
X0275100Y0295770D02*
X0264445Y0295770D01*
X0264858Y0296768D02*
X0275100Y0296768D01*
X0275516Y0297767D02*
X0265272Y0297767D01*
X0266316Y0314741D02*
X0328022Y0314741D01*
X0327518Y0315740D02*
X0266821Y0315740D01*
X0266821Y0316738D02*
X0327518Y0316738D01*
X0328079Y0317737D02*
X0266259Y0317737D01*
X0274728Y0197163D02*
X0288630Y0197163D01*
X0288630Y0197163D01*
X0361085Y0145993D02*
X0377653Y0145993D01*
X0392545Y0144994D02*
X0393201Y0144994D01*
X0291297Y0103057D02*
X0274695Y0103057D01*
X0275243Y0102058D02*
X0290750Y0102058D01*
X0290750Y0101060D02*
X0275243Y0101060D01*
X0274525Y0100061D02*
X0291467Y0100061D01*
X0287275Y0097066D02*
X0274780Y0097066D01*
X0275243Y0096603D02*
X0274019Y0097827D01*
X0272288Y0097827D01*
X0271065Y0096603D01*
X0271065Y0094873D01*
X0272288Y0093649D01*
X0274019Y0093649D01*
X0275243Y0094873D01*
X0275243Y0096603D01*
X0275243Y0096067D02*
X0286813Y0096067D01*
X0286813Y0095069D02*
X0275243Y0095069D01*
X0274440Y0094070D02*
X0287615Y0094070D01*
X0271867Y0094070D02*
X0242944Y0094070D01*
X0242523Y0093649D02*
X0243746Y0094873D01*
X0243746Y0096603D01*
X0242523Y0097827D01*
X0240792Y0097827D01*
X0239569Y0096603D01*
X0239569Y0094873D01*
X0240792Y0093649D01*
X0242523Y0093649D01*
X0243746Y0095069D02*
X0271065Y0095069D01*
X0271065Y0096067D02*
X0243746Y0096067D01*
X0243284Y0097066D02*
X0271527Y0097066D01*
X0271065Y0102058D02*
X0258806Y0102058D01*
X0259494Y0103057D02*
X0271612Y0103057D01*
X0267335Y0126023D02*
X0235665Y0126023D01*
X0235971Y0127021D02*
X0267029Y0127021D01*
X0267029Y0128020D02*
X0235971Y0128020D01*
X0235093Y0129018D02*
X0267907Y0129018D01*
X0231694Y0109048D02*
X0231441Y0109048D01*
X0228252Y0109048D02*
X0207680Y0109048D01*
X0208313Y0108049D02*
X0227659Y0108049D01*
X0227659Y0107051D02*
X0208313Y0107051D01*
X0207682Y0106052D02*
X0228250Y0106052D01*
X0226775Y0097827D02*
X0225044Y0097827D01*
X0223820Y0096603D01*
X0223820Y0094873D01*
X0225044Y0093649D01*
X0226775Y0093649D01*
X0227998Y0094873D01*
X0227998Y0096603D01*
X0226775Y0097827D01*
X0227536Y0097066D02*
X0240031Y0097066D01*
X0239569Y0096067D02*
X0227998Y0096067D01*
X0227998Y0095069D02*
X0239569Y0095069D01*
X0240371Y0094070D02*
X0227196Y0094070D01*
X0224623Y0094070D02*
X0211054Y0094070D01*
X0211857Y0095069D02*
X0223820Y0095069D01*
X0223820Y0096067D02*
X0211857Y0096067D01*
X0211394Y0097066D02*
X0224283Y0097066D01*
X0199574Y0011194D02*
X0263269Y0011194D01*
X0262270Y0010195D02*
X0200572Y0010195D01*
X0200679Y0009197D02*
X0262163Y0009197D01*
X0262163Y0008198D02*
X0200679Y0008198D01*
X0003555Y0180941D02*
X0003500Y0180941D01*
X0003500Y0183936D02*
X0003728Y0183936D01*
D23*
X0220791Y0040226D03*
X0296776Y0068179D03*
X0266067Y0146526D03*
D24*
X0332209Y0170541D02*
X0340083Y0162667D01*
X0363705Y0162667D01*
X0379453Y0146919D01*
X0379453Y0072116D01*
X0367642Y0060305D01*
X0340083Y0060305D01*
X0304650Y0028809D01*
X0107799Y0028809D01*
X0103862Y0032746D01*
X0025122Y0032746D01*
X0021185Y0036683D01*
X0021185Y0042982D01*
X0275122Y0237864D02*
X0332209Y0180778D01*
X0332209Y0170541D01*
D25*
X0210161Y0191014D02*
X0095201Y0076053D01*
X0092051Y0076053D01*
X0092051Y0079990D02*
X0088114Y0079990D01*
X0092051Y0079990D02*
X0093232Y0079990D01*
X0146382Y0133140D02*
X0148350Y0133140D01*
X0206224Y0191014D01*
D26*
X0136539Y0150069D02*
X0120004Y0166604D01*
X0120004Y0183533D01*
X0146382Y0133140D02*
X0131421Y0118179D01*
X0131421Y0115423D01*
X0129453Y0113455D01*
X0125516Y0113455D01*
X0092051Y0079990D01*
M02*
