G75*
%MOIN*%
%OFA0B0*%
%FSLAX25Y25*%
%IPPOS*%
%LPD*%
%AMOC8*
5,1,8,0,0,1.08239X$1,22.5*
%
%ADD10C,0.00000*%
D10*
X0001500Y0005203D02*
X0001500Y0320163D01*
X0395201Y0320163D01*
X0395201Y0005203D01*
X0001500Y0005203D01*
X0022366Y0023297D02*
X0022368Y0023385D01*
X0022374Y0023473D01*
X0022384Y0023561D01*
X0022398Y0023649D01*
X0022415Y0023735D01*
X0022437Y0023821D01*
X0022462Y0023905D01*
X0022492Y0023989D01*
X0022524Y0024071D01*
X0022561Y0024151D01*
X0022601Y0024230D01*
X0022645Y0024307D01*
X0022692Y0024382D01*
X0022742Y0024454D01*
X0022796Y0024525D01*
X0022852Y0024592D01*
X0022912Y0024658D01*
X0022974Y0024720D01*
X0023040Y0024780D01*
X0023107Y0024836D01*
X0023178Y0024890D01*
X0023250Y0024940D01*
X0023325Y0024987D01*
X0023402Y0025031D01*
X0023481Y0025071D01*
X0023561Y0025108D01*
X0023643Y0025140D01*
X0023727Y0025170D01*
X0023811Y0025195D01*
X0023897Y0025217D01*
X0023983Y0025234D01*
X0024071Y0025248D01*
X0024159Y0025258D01*
X0024247Y0025264D01*
X0024335Y0025266D01*
X0024423Y0025264D01*
X0024511Y0025258D01*
X0024599Y0025248D01*
X0024687Y0025234D01*
X0024773Y0025217D01*
X0024859Y0025195D01*
X0024943Y0025170D01*
X0025027Y0025140D01*
X0025109Y0025108D01*
X0025189Y0025071D01*
X0025268Y0025031D01*
X0025345Y0024987D01*
X0025420Y0024940D01*
X0025492Y0024890D01*
X0025563Y0024836D01*
X0025630Y0024780D01*
X0025696Y0024720D01*
X0025758Y0024658D01*
X0025818Y0024592D01*
X0025874Y0024525D01*
X0025928Y0024454D01*
X0025978Y0024382D01*
X0026025Y0024307D01*
X0026069Y0024230D01*
X0026109Y0024151D01*
X0026146Y0024071D01*
X0026178Y0023989D01*
X0026208Y0023905D01*
X0026233Y0023821D01*
X0026255Y0023735D01*
X0026272Y0023649D01*
X0026286Y0023561D01*
X0026296Y0023473D01*
X0026302Y0023385D01*
X0026304Y0023297D01*
X0026302Y0023209D01*
X0026296Y0023121D01*
X0026286Y0023033D01*
X0026272Y0022945D01*
X0026255Y0022859D01*
X0026233Y0022773D01*
X0026208Y0022689D01*
X0026178Y0022605D01*
X0026146Y0022523D01*
X0026109Y0022443D01*
X0026069Y0022364D01*
X0026025Y0022287D01*
X0025978Y0022212D01*
X0025928Y0022140D01*
X0025874Y0022069D01*
X0025818Y0022002D01*
X0025758Y0021936D01*
X0025696Y0021874D01*
X0025630Y0021814D01*
X0025563Y0021758D01*
X0025492Y0021704D01*
X0025420Y0021654D01*
X0025345Y0021607D01*
X0025268Y0021563D01*
X0025189Y0021523D01*
X0025109Y0021486D01*
X0025027Y0021454D01*
X0024943Y0021424D01*
X0024859Y0021399D01*
X0024773Y0021377D01*
X0024687Y0021360D01*
X0024599Y0021346D01*
X0024511Y0021336D01*
X0024423Y0021330D01*
X0024335Y0021328D01*
X0024247Y0021330D01*
X0024159Y0021336D01*
X0024071Y0021346D01*
X0023983Y0021360D01*
X0023897Y0021377D01*
X0023811Y0021399D01*
X0023727Y0021424D01*
X0023643Y0021454D01*
X0023561Y0021486D01*
X0023481Y0021523D01*
X0023402Y0021563D01*
X0023325Y0021607D01*
X0023250Y0021654D01*
X0023178Y0021704D01*
X0023107Y0021758D01*
X0023040Y0021814D01*
X0022974Y0021874D01*
X0022912Y0021936D01*
X0022852Y0022002D01*
X0022796Y0022069D01*
X0022742Y0022140D01*
X0022692Y0022212D01*
X0022645Y0022287D01*
X0022601Y0022364D01*
X0022561Y0022443D01*
X0022524Y0022523D01*
X0022492Y0022605D01*
X0022462Y0022689D01*
X0022437Y0022773D01*
X0022415Y0022859D01*
X0022398Y0022945D01*
X0022384Y0023033D01*
X0022374Y0023121D01*
X0022368Y0023209D01*
X0022366Y0023297D01*
X0039688Y0023297D02*
X0039690Y0023385D01*
X0039696Y0023473D01*
X0039706Y0023561D01*
X0039720Y0023649D01*
X0039737Y0023735D01*
X0039759Y0023821D01*
X0039784Y0023905D01*
X0039814Y0023989D01*
X0039846Y0024071D01*
X0039883Y0024151D01*
X0039923Y0024230D01*
X0039967Y0024307D01*
X0040014Y0024382D01*
X0040064Y0024454D01*
X0040118Y0024525D01*
X0040174Y0024592D01*
X0040234Y0024658D01*
X0040296Y0024720D01*
X0040362Y0024780D01*
X0040429Y0024836D01*
X0040500Y0024890D01*
X0040572Y0024940D01*
X0040647Y0024987D01*
X0040724Y0025031D01*
X0040803Y0025071D01*
X0040883Y0025108D01*
X0040965Y0025140D01*
X0041049Y0025170D01*
X0041133Y0025195D01*
X0041219Y0025217D01*
X0041305Y0025234D01*
X0041393Y0025248D01*
X0041481Y0025258D01*
X0041569Y0025264D01*
X0041657Y0025266D01*
X0041745Y0025264D01*
X0041833Y0025258D01*
X0041921Y0025248D01*
X0042009Y0025234D01*
X0042095Y0025217D01*
X0042181Y0025195D01*
X0042265Y0025170D01*
X0042349Y0025140D01*
X0042431Y0025108D01*
X0042511Y0025071D01*
X0042590Y0025031D01*
X0042667Y0024987D01*
X0042742Y0024940D01*
X0042814Y0024890D01*
X0042885Y0024836D01*
X0042952Y0024780D01*
X0043018Y0024720D01*
X0043080Y0024658D01*
X0043140Y0024592D01*
X0043196Y0024525D01*
X0043250Y0024454D01*
X0043300Y0024382D01*
X0043347Y0024307D01*
X0043391Y0024230D01*
X0043431Y0024151D01*
X0043468Y0024071D01*
X0043500Y0023989D01*
X0043530Y0023905D01*
X0043555Y0023821D01*
X0043577Y0023735D01*
X0043594Y0023649D01*
X0043608Y0023561D01*
X0043618Y0023473D01*
X0043624Y0023385D01*
X0043626Y0023297D01*
X0043624Y0023209D01*
X0043618Y0023121D01*
X0043608Y0023033D01*
X0043594Y0022945D01*
X0043577Y0022859D01*
X0043555Y0022773D01*
X0043530Y0022689D01*
X0043500Y0022605D01*
X0043468Y0022523D01*
X0043431Y0022443D01*
X0043391Y0022364D01*
X0043347Y0022287D01*
X0043300Y0022212D01*
X0043250Y0022140D01*
X0043196Y0022069D01*
X0043140Y0022002D01*
X0043080Y0021936D01*
X0043018Y0021874D01*
X0042952Y0021814D01*
X0042885Y0021758D01*
X0042814Y0021704D01*
X0042742Y0021654D01*
X0042667Y0021607D01*
X0042590Y0021563D01*
X0042511Y0021523D01*
X0042431Y0021486D01*
X0042349Y0021454D01*
X0042265Y0021424D01*
X0042181Y0021399D01*
X0042095Y0021377D01*
X0042009Y0021360D01*
X0041921Y0021346D01*
X0041833Y0021336D01*
X0041745Y0021330D01*
X0041657Y0021328D01*
X0041569Y0021330D01*
X0041481Y0021336D01*
X0041393Y0021346D01*
X0041305Y0021360D01*
X0041219Y0021377D01*
X0041133Y0021399D01*
X0041049Y0021424D01*
X0040965Y0021454D01*
X0040883Y0021486D01*
X0040803Y0021523D01*
X0040724Y0021563D01*
X0040647Y0021607D01*
X0040572Y0021654D01*
X0040500Y0021704D01*
X0040429Y0021758D01*
X0040362Y0021814D01*
X0040296Y0021874D01*
X0040234Y0021936D01*
X0040174Y0022002D01*
X0040118Y0022069D01*
X0040064Y0022140D01*
X0040014Y0022212D01*
X0039967Y0022287D01*
X0039923Y0022364D01*
X0039883Y0022443D01*
X0039846Y0022523D01*
X0039814Y0022605D01*
X0039784Y0022689D01*
X0039759Y0022773D01*
X0039737Y0022859D01*
X0039720Y0022945D01*
X0039706Y0023033D01*
X0039696Y0023121D01*
X0039690Y0023209D01*
X0039688Y0023297D01*
X0076861Y0023544D02*
X0076863Y0023632D01*
X0076869Y0023720D01*
X0076879Y0023808D01*
X0076893Y0023896D01*
X0076910Y0023982D01*
X0076932Y0024068D01*
X0076957Y0024152D01*
X0076987Y0024236D01*
X0077019Y0024318D01*
X0077056Y0024398D01*
X0077096Y0024477D01*
X0077140Y0024554D01*
X0077187Y0024629D01*
X0077237Y0024701D01*
X0077291Y0024772D01*
X0077347Y0024839D01*
X0077407Y0024905D01*
X0077469Y0024967D01*
X0077535Y0025027D01*
X0077602Y0025083D01*
X0077673Y0025137D01*
X0077745Y0025187D01*
X0077820Y0025234D01*
X0077897Y0025278D01*
X0077976Y0025318D01*
X0078056Y0025355D01*
X0078138Y0025387D01*
X0078222Y0025417D01*
X0078306Y0025442D01*
X0078392Y0025464D01*
X0078478Y0025481D01*
X0078566Y0025495D01*
X0078654Y0025505D01*
X0078742Y0025511D01*
X0078830Y0025513D01*
X0078918Y0025511D01*
X0079006Y0025505D01*
X0079094Y0025495D01*
X0079182Y0025481D01*
X0079268Y0025464D01*
X0079354Y0025442D01*
X0079438Y0025417D01*
X0079522Y0025387D01*
X0079604Y0025355D01*
X0079684Y0025318D01*
X0079763Y0025278D01*
X0079840Y0025234D01*
X0079915Y0025187D01*
X0079987Y0025137D01*
X0080058Y0025083D01*
X0080125Y0025027D01*
X0080191Y0024967D01*
X0080253Y0024905D01*
X0080313Y0024839D01*
X0080369Y0024772D01*
X0080423Y0024701D01*
X0080473Y0024629D01*
X0080520Y0024554D01*
X0080564Y0024477D01*
X0080604Y0024398D01*
X0080641Y0024318D01*
X0080673Y0024236D01*
X0080703Y0024152D01*
X0080728Y0024068D01*
X0080750Y0023982D01*
X0080767Y0023896D01*
X0080781Y0023808D01*
X0080791Y0023720D01*
X0080797Y0023632D01*
X0080799Y0023544D01*
X0080797Y0023456D01*
X0080791Y0023368D01*
X0080781Y0023280D01*
X0080767Y0023192D01*
X0080750Y0023106D01*
X0080728Y0023020D01*
X0080703Y0022936D01*
X0080673Y0022852D01*
X0080641Y0022770D01*
X0080604Y0022690D01*
X0080564Y0022611D01*
X0080520Y0022534D01*
X0080473Y0022459D01*
X0080423Y0022387D01*
X0080369Y0022316D01*
X0080313Y0022249D01*
X0080253Y0022183D01*
X0080191Y0022121D01*
X0080125Y0022061D01*
X0080058Y0022005D01*
X0079987Y0021951D01*
X0079915Y0021901D01*
X0079840Y0021854D01*
X0079763Y0021810D01*
X0079684Y0021770D01*
X0079604Y0021733D01*
X0079522Y0021701D01*
X0079438Y0021671D01*
X0079354Y0021646D01*
X0079268Y0021624D01*
X0079182Y0021607D01*
X0079094Y0021593D01*
X0079006Y0021583D01*
X0078918Y0021577D01*
X0078830Y0021575D01*
X0078742Y0021577D01*
X0078654Y0021583D01*
X0078566Y0021593D01*
X0078478Y0021607D01*
X0078392Y0021624D01*
X0078306Y0021646D01*
X0078222Y0021671D01*
X0078138Y0021701D01*
X0078056Y0021733D01*
X0077976Y0021770D01*
X0077897Y0021810D01*
X0077820Y0021854D01*
X0077745Y0021901D01*
X0077673Y0021951D01*
X0077602Y0022005D01*
X0077535Y0022061D01*
X0077469Y0022121D01*
X0077407Y0022183D01*
X0077347Y0022249D01*
X0077291Y0022316D01*
X0077237Y0022387D01*
X0077187Y0022459D01*
X0077140Y0022534D01*
X0077096Y0022611D01*
X0077056Y0022690D01*
X0077019Y0022770D01*
X0076987Y0022852D01*
X0076957Y0022936D01*
X0076932Y0023020D01*
X0076910Y0023106D01*
X0076893Y0023192D01*
X0076879Y0023280D01*
X0076869Y0023368D01*
X0076863Y0023456D01*
X0076861Y0023544D01*
X0094183Y0023544D02*
X0094185Y0023632D01*
X0094191Y0023720D01*
X0094201Y0023808D01*
X0094215Y0023896D01*
X0094232Y0023982D01*
X0094254Y0024068D01*
X0094279Y0024152D01*
X0094309Y0024236D01*
X0094341Y0024318D01*
X0094378Y0024398D01*
X0094418Y0024477D01*
X0094462Y0024554D01*
X0094509Y0024629D01*
X0094559Y0024701D01*
X0094613Y0024772D01*
X0094669Y0024839D01*
X0094729Y0024905D01*
X0094791Y0024967D01*
X0094857Y0025027D01*
X0094924Y0025083D01*
X0094995Y0025137D01*
X0095067Y0025187D01*
X0095142Y0025234D01*
X0095219Y0025278D01*
X0095298Y0025318D01*
X0095378Y0025355D01*
X0095460Y0025387D01*
X0095544Y0025417D01*
X0095628Y0025442D01*
X0095714Y0025464D01*
X0095800Y0025481D01*
X0095888Y0025495D01*
X0095976Y0025505D01*
X0096064Y0025511D01*
X0096152Y0025513D01*
X0096240Y0025511D01*
X0096328Y0025505D01*
X0096416Y0025495D01*
X0096504Y0025481D01*
X0096590Y0025464D01*
X0096676Y0025442D01*
X0096760Y0025417D01*
X0096844Y0025387D01*
X0096926Y0025355D01*
X0097006Y0025318D01*
X0097085Y0025278D01*
X0097162Y0025234D01*
X0097237Y0025187D01*
X0097309Y0025137D01*
X0097380Y0025083D01*
X0097447Y0025027D01*
X0097513Y0024967D01*
X0097575Y0024905D01*
X0097635Y0024839D01*
X0097691Y0024772D01*
X0097745Y0024701D01*
X0097795Y0024629D01*
X0097842Y0024554D01*
X0097886Y0024477D01*
X0097926Y0024398D01*
X0097963Y0024318D01*
X0097995Y0024236D01*
X0098025Y0024152D01*
X0098050Y0024068D01*
X0098072Y0023982D01*
X0098089Y0023896D01*
X0098103Y0023808D01*
X0098113Y0023720D01*
X0098119Y0023632D01*
X0098121Y0023544D01*
X0098119Y0023456D01*
X0098113Y0023368D01*
X0098103Y0023280D01*
X0098089Y0023192D01*
X0098072Y0023106D01*
X0098050Y0023020D01*
X0098025Y0022936D01*
X0097995Y0022852D01*
X0097963Y0022770D01*
X0097926Y0022690D01*
X0097886Y0022611D01*
X0097842Y0022534D01*
X0097795Y0022459D01*
X0097745Y0022387D01*
X0097691Y0022316D01*
X0097635Y0022249D01*
X0097575Y0022183D01*
X0097513Y0022121D01*
X0097447Y0022061D01*
X0097380Y0022005D01*
X0097309Y0021951D01*
X0097237Y0021901D01*
X0097162Y0021854D01*
X0097085Y0021810D01*
X0097006Y0021770D01*
X0096926Y0021733D01*
X0096844Y0021701D01*
X0096760Y0021671D01*
X0096676Y0021646D01*
X0096590Y0021624D01*
X0096504Y0021607D01*
X0096416Y0021593D01*
X0096328Y0021583D01*
X0096240Y0021577D01*
X0096152Y0021575D01*
X0096064Y0021577D01*
X0095976Y0021583D01*
X0095888Y0021593D01*
X0095800Y0021607D01*
X0095714Y0021624D01*
X0095628Y0021646D01*
X0095544Y0021671D01*
X0095460Y0021701D01*
X0095378Y0021733D01*
X0095298Y0021770D01*
X0095219Y0021810D01*
X0095142Y0021854D01*
X0095067Y0021901D01*
X0094995Y0021951D01*
X0094924Y0022005D01*
X0094857Y0022061D01*
X0094791Y0022121D01*
X0094729Y0022183D01*
X0094669Y0022249D01*
X0094613Y0022316D01*
X0094559Y0022387D01*
X0094509Y0022459D01*
X0094462Y0022534D01*
X0094418Y0022611D01*
X0094378Y0022690D01*
X0094341Y0022770D01*
X0094309Y0022852D01*
X0094279Y0022936D01*
X0094254Y0023020D01*
X0094232Y0023106D01*
X0094215Y0023192D01*
X0094201Y0023280D01*
X0094191Y0023368D01*
X0094185Y0023456D01*
X0094183Y0023544D01*
X0101500Y0064242D02*
X0101502Y0064400D01*
X0101508Y0064558D01*
X0101518Y0064716D01*
X0101532Y0064874D01*
X0101550Y0065031D01*
X0101571Y0065188D01*
X0101597Y0065344D01*
X0101627Y0065500D01*
X0101660Y0065655D01*
X0101698Y0065808D01*
X0101739Y0065961D01*
X0101784Y0066113D01*
X0101833Y0066264D01*
X0101886Y0066413D01*
X0101942Y0066561D01*
X0102002Y0066707D01*
X0102066Y0066852D01*
X0102134Y0066995D01*
X0102205Y0067137D01*
X0102279Y0067277D01*
X0102357Y0067414D01*
X0102439Y0067550D01*
X0102523Y0067684D01*
X0102612Y0067815D01*
X0102703Y0067944D01*
X0102798Y0068071D01*
X0102895Y0068196D01*
X0102996Y0068318D01*
X0103100Y0068437D01*
X0103207Y0068554D01*
X0103317Y0068668D01*
X0103430Y0068779D01*
X0103545Y0068888D01*
X0103663Y0068993D01*
X0103784Y0069095D01*
X0103907Y0069195D01*
X0104033Y0069291D01*
X0104161Y0069384D01*
X0104291Y0069474D01*
X0104424Y0069560D01*
X0104559Y0069644D01*
X0104695Y0069723D01*
X0104834Y0069800D01*
X0104975Y0069872D01*
X0105117Y0069942D01*
X0105261Y0070007D01*
X0105407Y0070069D01*
X0105554Y0070127D01*
X0105703Y0070182D01*
X0105853Y0070233D01*
X0106004Y0070280D01*
X0106156Y0070323D01*
X0106309Y0070362D01*
X0106464Y0070398D01*
X0106619Y0070429D01*
X0106775Y0070457D01*
X0106931Y0070481D01*
X0107088Y0070501D01*
X0107246Y0070517D01*
X0107403Y0070529D01*
X0107562Y0070537D01*
X0107720Y0070541D01*
X0107878Y0070541D01*
X0108036Y0070537D01*
X0108195Y0070529D01*
X0108352Y0070517D01*
X0108510Y0070501D01*
X0108667Y0070481D01*
X0108823Y0070457D01*
X0108979Y0070429D01*
X0109134Y0070398D01*
X0109289Y0070362D01*
X0109442Y0070323D01*
X0109594Y0070280D01*
X0109745Y0070233D01*
X0109895Y0070182D01*
X0110044Y0070127D01*
X0110191Y0070069D01*
X0110337Y0070007D01*
X0110481Y0069942D01*
X0110623Y0069872D01*
X0110764Y0069800D01*
X0110903Y0069723D01*
X0111039Y0069644D01*
X0111174Y0069560D01*
X0111307Y0069474D01*
X0111437Y0069384D01*
X0111565Y0069291D01*
X0111691Y0069195D01*
X0111814Y0069095D01*
X0111935Y0068993D01*
X0112053Y0068888D01*
X0112168Y0068779D01*
X0112281Y0068668D01*
X0112391Y0068554D01*
X0112498Y0068437D01*
X0112602Y0068318D01*
X0112703Y0068196D01*
X0112800Y0068071D01*
X0112895Y0067944D01*
X0112986Y0067815D01*
X0113075Y0067684D01*
X0113159Y0067550D01*
X0113241Y0067414D01*
X0113319Y0067277D01*
X0113393Y0067137D01*
X0113464Y0066995D01*
X0113532Y0066852D01*
X0113596Y0066707D01*
X0113656Y0066561D01*
X0113712Y0066413D01*
X0113765Y0066264D01*
X0113814Y0066113D01*
X0113859Y0065961D01*
X0113900Y0065808D01*
X0113938Y0065655D01*
X0113971Y0065500D01*
X0114001Y0065344D01*
X0114027Y0065188D01*
X0114048Y0065031D01*
X0114066Y0064874D01*
X0114080Y0064716D01*
X0114090Y0064558D01*
X0114096Y0064400D01*
X0114098Y0064242D01*
X0114096Y0064084D01*
X0114090Y0063926D01*
X0114080Y0063768D01*
X0114066Y0063610D01*
X0114048Y0063453D01*
X0114027Y0063296D01*
X0114001Y0063140D01*
X0113971Y0062984D01*
X0113938Y0062829D01*
X0113900Y0062676D01*
X0113859Y0062523D01*
X0113814Y0062371D01*
X0113765Y0062220D01*
X0113712Y0062071D01*
X0113656Y0061923D01*
X0113596Y0061777D01*
X0113532Y0061632D01*
X0113464Y0061489D01*
X0113393Y0061347D01*
X0113319Y0061207D01*
X0113241Y0061070D01*
X0113159Y0060934D01*
X0113075Y0060800D01*
X0112986Y0060669D01*
X0112895Y0060540D01*
X0112800Y0060413D01*
X0112703Y0060288D01*
X0112602Y0060166D01*
X0112498Y0060047D01*
X0112391Y0059930D01*
X0112281Y0059816D01*
X0112168Y0059705D01*
X0112053Y0059596D01*
X0111935Y0059491D01*
X0111814Y0059389D01*
X0111691Y0059289D01*
X0111565Y0059193D01*
X0111437Y0059100D01*
X0111307Y0059010D01*
X0111174Y0058924D01*
X0111039Y0058840D01*
X0110903Y0058761D01*
X0110764Y0058684D01*
X0110623Y0058612D01*
X0110481Y0058542D01*
X0110337Y0058477D01*
X0110191Y0058415D01*
X0110044Y0058357D01*
X0109895Y0058302D01*
X0109745Y0058251D01*
X0109594Y0058204D01*
X0109442Y0058161D01*
X0109289Y0058122D01*
X0109134Y0058086D01*
X0108979Y0058055D01*
X0108823Y0058027D01*
X0108667Y0058003D01*
X0108510Y0057983D01*
X0108352Y0057967D01*
X0108195Y0057955D01*
X0108036Y0057947D01*
X0107878Y0057943D01*
X0107720Y0057943D01*
X0107562Y0057947D01*
X0107403Y0057955D01*
X0107246Y0057967D01*
X0107088Y0057983D01*
X0106931Y0058003D01*
X0106775Y0058027D01*
X0106619Y0058055D01*
X0106464Y0058086D01*
X0106309Y0058122D01*
X0106156Y0058161D01*
X0106004Y0058204D01*
X0105853Y0058251D01*
X0105703Y0058302D01*
X0105554Y0058357D01*
X0105407Y0058415D01*
X0105261Y0058477D01*
X0105117Y0058542D01*
X0104975Y0058612D01*
X0104834Y0058684D01*
X0104695Y0058761D01*
X0104559Y0058840D01*
X0104424Y0058924D01*
X0104291Y0059010D01*
X0104161Y0059100D01*
X0104033Y0059193D01*
X0103907Y0059289D01*
X0103784Y0059389D01*
X0103663Y0059491D01*
X0103545Y0059596D01*
X0103430Y0059705D01*
X0103317Y0059816D01*
X0103207Y0059930D01*
X0103100Y0060047D01*
X0102996Y0060166D01*
X0102895Y0060288D01*
X0102798Y0060413D01*
X0102703Y0060540D01*
X0102612Y0060669D01*
X0102523Y0060800D01*
X0102439Y0060934D01*
X0102357Y0061070D01*
X0102279Y0061207D01*
X0102205Y0061347D01*
X0102134Y0061489D01*
X0102066Y0061632D01*
X0102002Y0061777D01*
X0101942Y0061923D01*
X0101886Y0062071D01*
X0101833Y0062220D01*
X0101784Y0062371D01*
X0101739Y0062523D01*
X0101698Y0062676D01*
X0101660Y0062829D01*
X0101627Y0062984D01*
X0101597Y0063140D01*
X0101571Y0063296D01*
X0101550Y0063453D01*
X0101532Y0063610D01*
X0101518Y0063768D01*
X0101508Y0063926D01*
X0101502Y0064084D01*
X0101500Y0064242D01*
X0039961Y0076257D02*
X0039963Y0076421D01*
X0039969Y0076585D01*
X0039979Y0076749D01*
X0039993Y0076913D01*
X0040011Y0077076D01*
X0040033Y0077239D01*
X0040060Y0077401D01*
X0040090Y0077563D01*
X0040124Y0077723D01*
X0040162Y0077883D01*
X0040203Y0078042D01*
X0040249Y0078200D01*
X0040299Y0078356D01*
X0040352Y0078512D01*
X0040409Y0078666D01*
X0040470Y0078818D01*
X0040535Y0078969D01*
X0040604Y0079119D01*
X0040676Y0079266D01*
X0040751Y0079412D01*
X0040831Y0079556D01*
X0040913Y0079698D01*
X0040999Y0079838D01*
X0041089Y0079975D01*
X0041182Y0080111D01*
X0041278Y0080244D01*
X0041378Y0080375D01*
X0041480Y0080503D01*
X0041586Y0080629D01*
X0041695Y0080752D01*
X0041807Y0080872D01*
X0041921Y0080990D01*
X0042039Y0081104D01*
X0042159Y0081216D01*
X0042282Y0081325D01*
X0042408Y0081431D01*
X0042536Y0081533D01*
X0042667Y0081633D01*
X0042800Y0081729D01*
X0042936Y0081822D01*
X0043073Y0081912D01*
X0043213Y0081998D01*
X0043355Y0082080D01*
X0043499Y0082160D01*
X0043645Y0082235D01*
X0043792Y0082307D01*
X0043942Y0082376D01*
X0044093Y0082441D01*
X0044245Y0082502D01*
X0044399Y0082559D01*
X0044555Y0082612D01*
X0044711Y0082662D01*
X0044869Y0082708D01*
X0045028Y0082749D01*
X0045188Y0082787D01*
X0045348Y0082821D01*
X0045510Y0082851D01*
X0045672Y0082878D01*
X0045835Y0082900D01*
X0045998Y0082918D01*
X0046162Y0082932D01*
X0046326Y0082942D01*
X0046490Y0082948D01*
X0046654Y0082950D01*
X0046818Y0082948D01*
X0046982Y0082942D01*
X0047146Y0082932D01*
X0047310Y0082918D01*
X0047473Y0082900D01*
X0047636Y0082878D01*
X0047798Y0082851D01*
X0047960Y0082821D01*
X0048120Y0082787D01*
X0048280Y0082749D01*
X0048439Y0082708D01*
X0048597Y0082662D01*
X0048753Y0082612D01*
X0048909Y0082559D01*
X0049063Y0082502D01*
X0049215Y0082441D01*
X0049366Y0082376D01*
X0049516Y0082307D01*
X0049663Y0082235D01*
X0049809Y0082160D01*
X0049953Y0082080D01*
X0050095Y0081998D01*
X0050235Y0081912D01*
X0050372Y0081822D01*
X0050508Y0081729D01*
X0050641Y0081633D01*
X0050772Y0081533D01*
X0050900Y0081431D01*
X0051026Y0081325D01*
X0051149Y0081216D01*
X0051269Y0081104D01*
X0051387Y0080990D01*
X0051501Y0080872D01*
X0051613Y0080752D01*
X0051722Y0080629D01*
X0051828Y0080503D01*
X0051930Y0080375D01*
X0052030Y0080244D01*
X0052126Y0080111D01*
X0052219Y0079975D01*
X0052309Y0079838D01*
X0052395Y0079698D01*
X0052477Y0079556D01*
X0052557Y0079412D01*
X0052632Y0079266D01*
X0052704Y0079119D01*
X0052773Y0078969D01*
X0052838Y0078818D01*
X0052899Y0078666D01*
X0052956Y0078512D01*
X0053009Y0078356D01*
X0053059Y0078200D01*
X0053105Y0078042D01*
X0053146Y0077883D01*
X0053184Y0077723D01*
X0053218Y0077563D01*
X0053248Y0077401D01*
X0053275Y0077239D01*
X0053297Y0077076D01*
X0053315Y0076913D01*
X0053329Y0076749D01*
X0053339Y0076585D01*
X0053345Y0076421D01*
X0053347Y0076257D01*
X0053345Y0076093D01*
X0053339Y0075929D01*
X0053329Y0075765D01*
X0053315Y0075601D01*
X0053297Y0075438D01*
X0053275Y0075275D01*
X0053248Y0075113D01*
X0053218Y0074951D01*
X0053184Y0074791D01*
X0053146Y0074631D01*
X0053105Y0074472D01*
X0053059Y0074314D01*
X0053009Y0074158D01*
X0052956Y0074002D01*
X0052899Y0073848D01*
X0052838Y0073696D01*
X0052773Y0073545D01*
X0052704Y0073395D01*
X0052632Y0073248D01*
X0052557Y0073102D01*
X0052477Y0072958D01*
X0052395Y0072816D01*
X0052309Y0072676D01*
X0052219Y0072539D01*
X0052126Y0072403D01*
X0052030Y0072270D01*
X0051930Y0072139D01*
X0051828Y0072011D01*
X0051722Y0071885D01*
X0051613Y0071762D01*
X0051501Y0071642D01*
X0051387Y0071524D01*
X0051269Y0071410D01*
X0051149Y0071298D01*
X0051026Y0071189D01*
X0050900Y0071083D01*
X0050772Y0070981D01*
X0050641Y0070881D01*
X0050508Y0070785D01*
X0050372Y0070692D01*
X0050235Y0070602D01*
X0050095Y0070516D01*
X0049953Y0070434D01*
X0049809Y0070354D01*
X0049663Y0070279D01*
X0049516Y0070207D01*
X0049366Y0070138D01*
X0049215Y0070073D01*
X0049063Y0070012D01*
X0048909Y0069955D01*
X0048753Y0069902D01*
X0048597Y0069852D01*
X0048439Y0069806D01*
X0048280Y0069765D01*
X0048120Y0069727D01*
X0047960Y0069693D01*
X0047798Y0069663D01*
X0047636Y0069636D01*
X0047473Y0069614D01*
X0047310Y0069596D01*
X0047146Y0069582D01*
X0046982Y0069572D01*
X0046818Y0069566D01*
X0046654Y0069564D01*
X0046490Y0069566D01*
X0046326Y0069572D01*
X0046162Y0069582D01*
X0045998Y0069596D01*
X0045835Y0069614D01*
X0045672Y0069636D01*
X0045510Y0069663D01*
X0045348Y0069693D01*
X0045188Y0069727D01*
X0045028Y0069765D01*
X0044869Y0069806D01*
X0044711Y0069852D01*
X0044555Y0069902D01*
X0044399Y0069955D01*
X0044245Y0070012D01*
X0044093Y0070073D01*
X0043942Y0070138D01*
X0043792Y0070207D01*
X0043645Y0070279D01*
X0043499Y0070354D01*
X0043355Y0070434D01*
X0043213Y0070516D01*
X0043073Y0070602D01*
X0042936Y0070692D01*
X0042800Y0070785D01*
X0042667Y0070881D01*
X0042536Y0070981D01*
X0042408Y0071083D01*
X0042282Y0071189D01*
X0042159Y0071298D01*
X0042039Y0071410D01*
X0041921Y0071524D01*
X0041807Y0071642D01*
X0041695Y0071762D01*
X0041586Y0071885D01*
X0041480Y0072011D01*
X0041378Y0072139D01*
X0041278Y0072270D01*
X0041182Y0072403D01*
X0041089Y0072539D01*
X0040999Y0072676D01*
X0040913Y0072816D01*
X0040831Y0072958D01*
X0040751Y0073102D01*
X0040676Y0073248D01*
X0040604Y0073395D01*
X0040535Y0073545D01*
X0040470Y0073696D01*
X0040409Y0073848D01*
X0040352Y0074002D01*
X0040299Y0074158D01*
X0040249Y0074314D01*
X0040203Y0074472D01*
X0040162Y0074631D01*
X0040124Y0074791D01*
X0040090Y0074951D01*
X0040060Y0075113D01*
X0040033Y0075275D01*
X0040011Y0075438D01*
X0039993Y0075601D01*
X0039979Y0075765D01*
X0039969Y0075929D01*
X0039963Y0076093D01*
X0039961Y0076257D01*
X0039961Y0174683D02*
X0039963Y0174847D01*
X0039969Y0175011D01*
X0039979Y0175175D01*
X0039993Y0175339D01*
X0040011Y0175502D01*
X0040033Y0175665D01*
X0040060Y0175827D01*
X0040090Y0175989D01*
X0040124Y0176149D01*
X0040162Y0176309D01*
X0040203Y0176468D01*
X0040249Y0176626D01*
X0040299Y0176782D01*
X0040352Y0176938D01*
X0040409Y0177092D01*
X0040470Y0177244D01*
X0040535Y0177395D01*
X0040604Y0177545D01*
X0040676Y0177692D01*
X0040751Y0177838D01*
X0040831Y0177982D01*
X0040913Y0178124D01*
X0040999Y0178264D01*
X0041089Y0178401D01*
X0041182Y0178537D01*
X0041278Y0178670D01*
X0041378Y0178801D01*
X0041480Y0178929D01*
X0041586Y0179055D01*
X0041695Y0179178D01*
X0041807Y0179298D01*
X0041921Y0179416D01*
X0042039Y0179530D01*
X0042159Y0179642D01*
X0042282Y0179751D01*
X0042408Y0179857D01*
X0042536Y0179959D01*
X0042667Y0180059D01*
X0042800Y0180155D01*
X0042936Y0180248D01*
X0043073Y0180338D01*
X0043213Y0180424D01*
X0043355Y0180506D01*
X0043499Y0180586D01*
X0043645Y0180661D01*
X0043792Y0180733D01*
X0043942Y0180802D01*
X0044093Y0180867D01*
X0044245Y0180928D01*
X0044399Y0180985D01*
X0044555Y0181038D01*
X0044711Y0181088D01*
X0044869Y0181134D01*
X0045028Y0181175D01*
X0045188Y0181213D01*
X0045348Y0181247D01*
X0045510Y0181277D01*
X0045672Y0181304D01*
X0045835Y0181326D01*
X0045998Y0181344D01*
X0046162Y0181358D01*
X0046326Y0181368D01*
X0046490Y0181374D01*
X0046654Y0181376D01*
X0046818Y0181374D01*
X0046982Y0181368D01*
X0047146Y0181358D01*
X0047310Y0181344D01*
X0047473Y0181326D01*
X0047636Y0181304D01*
X0047798Y0181277D01*
X0047960Y0181247D01*
X0048120Y0181213D01*
X0048280Y0181175D01*
X0048439Y0181134D01*
X0048597Y0181088D01*
X0048753Y0181038D01*
X0048909Y0180985D01*
X0049063Y0180928D01*
X0049215Y0180867D01*
X0049366Y0180802D01*
X0049516Y0180733D01*
X0049663Y0180661D01*
X0049809Y0180586D01*
X0049953Y0180506D01*
X0050095Y0180424D01*
X0050235Y0180338D01*
X0050372Y0180248D01*
X0050508Y0180155D01*
X0050641Y0180059D01*
X0050772Y0179959D01*
X0050900Y0179857D01*
X0051026Y0179751D01*
X0051149Y0179642D01*
X0051269Y0179530D01*
X0051387Y0179416D01*
X0051501Y0179298D01*
X0051613Y0179178D01*
X0051722Y0179055D01*
X0051828Y0178929D01*
X0051930Y0178801D01*
X0052030Y0178670D01*
X0052126Y0178537D01*
X0052219Y0178401D01*
X0052309Y0178264D01*
X0052395Y0178124D01*
X0052477Y0177982D01*
X0052557Y0177838D01*
X0052632Y0177692D01*
X0052704Y0177545D01*
X0052773Y0177395D01*
X0052838Y0177244D01*
X0052899Y0177092D01*
X0052956Y0176938D01*
X0053009Y0176782D01*
X0053059Y0176626D01*
X0053105Y0176468D01*
X0053146Y0176309D01*
X0053184Y0176149D01*
X0053218Y0175989D01*
X0053248Y0175827D01*
X0053275Y0175665D01*
X0053297Y0175502D01*
X0053315Y0175339D01*
X0053329Y0175175D01*
X0053339Y0175011D01*
X0053345Y0174847D01*
X0053347Y0174683D01*
X0053345Y0174519D01*
X0053339Y0174355D01*
X0053329Y0174191D01*
X0053315Y0174027D01*
X0053297Y0173864D01*
X0053275Y0173701D01*
X0053248Y0173539D01*
X0053218Y0173377D01*
X0053184Y0173217D01*
X0053146Y0173057D01*
X0053105Y0172898D01*
X0053059Y0172740D01*
X0053009Y0172584D01*
X0052956Y0172428D01*
X0052899Y0172274D01*
X0052838Y0172122D01*
X0052773Y0171971D01*
X0052704Y0171821D01*
X0052632Y0171674D01*
X0052557Y0171528D01*
X0052477Y0171384D01*
X0052395Y0171242D01*
X0052309Y0171102D01*
X0052219Y0170965D01*
X0052126Y0170829D01*
X0052030Y0170696D01*
X0051930Y0170565D01*
X0051828Y0170437D01*
X0051722Y0170311D01*
X0051613Y0170188D01*
X0051501Y0170068D01*
X0051387Y0169950D01*
X0051269Y0169836D01*
X0051149Y0169724D01*
X0051026Y0169615D01*
X0050900Y0169509D01*
X0050772Y0169407D01*
X0050641Y0169307D01*
X0050508Y0169211D01*
X0050372Y0169118D01*
X0050235Y0169028D01*
X0050095Y0168942D01*
X0049953Y0168860D01*
X0049809Y0168780D01*
X0049663Y0168705D01*
X0049516Y0168633D01*
X0049366Y0168564D01*
X0049215Y0168499D01*
X0049063Y0168438D01*
X0048909Y0168381D01*
X0048753Y0168328D01*
X0048597Y0168278D01*
X0048439Y0168232D01*
X0048280Y0168191D01*
X0048120Y0168153D01*
X0047960Y0168119D01*
X0047798Y0168089D01*
X0047636Y0168062D01*
X0047473Y0168040D01*
X0047310Y0168022D01*
X0047146Y0168008D01*
X0046982Y0167998D01*
X0046818Y0167992D01*
X0046654Y0167990D01*
X0046490Y0167992D01*
X0046326Y0167998D01*
X0046162Y0168008D01*
X0045998Y0168022D01*
X0045835Y0168040D01*
X0045672Y0168062D01*
X0045510Y0168089D01*
X0045348Y0168119D01*
X0045188Y0168153D01*
X0045028Y0168191D01*
X0044869Y0168232D01*
X0044711Y0168278D01*
X0044555Y0168328D01*
X0044399Y0168381D01*
X0044245Y0168438D01*
X0044093Y0168499D01*
X0043942Y0168564D01*
X0043792Y0168633D01*
X0043645Y0168705D01*
X0043499Y0168780D01*
X0043355Y0168860D01*
X0043213Y0168942D01*
X0043073Y0169028D01*
X0042936Y0169118D01*
X0042800Y0169211D01*
X0042667Y0169307D01*
X0042536Y0169407D01*
X0042408Y0169509D01*
X0042282Y0169615D01*
X0042159Y0169724D01*
X0042039Y0169836D01*
X0041921Y0169950D01*
X0041807Y0170068D01*
X0041695Y0170188D01*
X0041586Y0170311D01*
X0041480Y0170437D01*
X0041378Y0170565D01*
X0041278Y0170696D01*
X0041182Y0170829D01*
X0041089Y0170965D01*
X0040999Y0171102D01*
X0040913Y0171242D01*
X0040831Y0171384D01*
X0040751Y0171528D01*
X0040676Y0171674D01*
X0040604Y0171821D01*
X0040535Y0171971D01*
X0040470Y0172122D01*
X0040409Y0172274D01*
X0040352Y0172428D01*
X0040299Y0172584D01*
X0040249Y0172740D01*
X0040203Y0172898D01*
X0040162Y0173057D01*
X0040124Y0173217D01*
X0040090Y0173377D01*
X0040060Y0173539D01*
X0040033Y0173701D01*
X0040011Y0173864D01*
X0039993Y0174027D01*
X0039979Y0174191D01*
X0039969Y0174355D01*
X0039963Y0174519D01*
X0039961Y0174683D01*
X0039807Y0209931D02*
X0039809Y0210095D01*
X0039815Y0210259D01*
X0039825Y0210423D01*
X0039839Y0210587D01*
X0039857Y0210750D01*
X0039879Y0210913D01*
X0039906Y0211075D01*
X0039936Y0211237D01*
X0039970Y0211397D01*
X0040008Y0211557D01*
X0040049Y0211716D01*
X0040095Y0211874D01*
X0040145Y0212030D01*
X0040198Y0212186D01*
X0040255Y0212340D01*
X0040316Y0212492D01*
X0040381Y0212643D01*
X0040450Y0212793D01*
X0040522Y0212940D01*
X0040597Y0213086D01*
X0040677Y0213230D01*
X0040759Y0213372D01*
X0040845Y0213512D01*
X0040935Y0213649D01*
X0041028Y0213785D01*
X0041124Y0213918D01*
X0041224Y0214049D01*
X0041326Y0214177D01*
X0041432Y0214303D01*
X0041541Y0214426D01*
X0041653Y0214546D01*
X0041767Y0214664D01*
X0041885Y0214778D01*
X0042005Y0214890D01*
X0042128Y0214999D01*
X0042254Y0215105D01*
X0042382Y0215207D01*
X0042513Y0215307D01*
X0042646Y0215403D01*
X0042782Y0215496D01*
X0042919Y0215586D01*
X0043059Y0215672D01*
X0043201Y0215754D01*
X0043345Y0215834D01*
X0043491Y0215909D01*
X0043638Y0215981D01*
X0043788Y0216050D01*
X0043939Y0216115D01*
X0044091Y0216176D01*
X0044245Y0216233D01*
X0044401Y0216286D01*
X0044557Y0216336D01*
X0044715Y0216382D01*
X0044874Y0216423D01*
X0045034Y0216461D01*
X0045194Y0216495D01*
X0045356Y0216525D01*
X0045518Y0216552D01*
X0045681Y0216574D01*
X0045844Y0216592D01*
X0046008Y0216606D01*
X0046172Y0216616D01*
X0046336Y0216622D01*
X0046500Y0216624D01*
X0046664Y0216622D01*
X0046828Y0216616D01*
X0046992Y0216606D01*
X0047156Y0216592D01*
X0047319Y0216574D01*
X0047482Y0216552D01*
X0047644Y0216525D01*
X0047806Y0216495D01*
X0047966Y0216461D01*
X0048126Y0216423D01*
X0048285Y0216382D01*
X0048443Y0216336D01*
X0048599Y0216286D01*
X0048755Y0216233D01*
X0048909Y0216176D01*
X0049061Y0216115D01*
X0049212Y0216050D01*
X0049362Y0215981D01*
X0049509Y0215909D01*
X0049655Y0215834D01*
X0049799Y0215754D01*
X0049941Y0215672D01*
X0050081Y0215586D01*
X0050218Y0215496D01*
X0050354Y0215403D01*
X0050487Y0215307D01*
X0050618Y0215207D01*
X0050746Y0215105D01*
X0050872Y0214999D01*
X0050995Y0214890D01*
X0051115Y0214778D01*
X0051233Y0214664D01*
X0051347Y0214546D01*
X0051459Y0214426D01*
X0051568Y0214303D01*
X0051674Y0214177D01*
X0051776Y0214049D01*
X0051876Y0213918D01*
X0051972Y0213785D01*
X0052065Y0213649D01*
X0052155Y0213512D01*
X0052241Y0213372D01*
X0052323Y0213230D01*
X0052403Y0213086D01*
X0052478Y0212940D01*
X0052550Y0212793D01*
X0052619Y0212643D01*
X0052684Y0212492D01*
X0052745Y0212340D01*
X0052802Y0212186D01*
X0052855Y0212030D01*
X0052905Y0211874D01*
X0052951Y0211716D01*
X0052992Y0211557D01*
X0053030Y0211397D01*
X0053064Y0211237D01*
X0053094Y0211075D01*
X0053121Y0210913D01*
X0053143Y0210750D01*
X0053161Y0210587D01*
X0053175Y0210423D01*
X0053185Y0210259D01*
X0053191Y0210095D01*
X0053193Y0209931D01*
X0053191Y0209767D01*
X0053185Y0209603D01*
X0053175Y0209439D01*
X0053161Y0209275D01*
X0053143Y0209112D01*
X0053121Y0208949D01*
X0053094Y0208787D01*
X0053064Y0208625D01*
X0053030Y0208465D01*
X0052992Y0208305D01*
X0052951Y0208146D01*
X0052905Y0207988D01*
X0052855Y0207832D01*
X0052802Y0207676D01*
X0052745Y0207522D01*
X0052684Y0207370D01*
X0052619Y0207219D01*
X0052550Y0207069D01*
X0052478Y0206922D01*
X0052403Y0206776D01*
X0052323Y0206632D01*
X0052241Y0206490D01*
X0052155Y0206350D01*
X0052065Y0206213D01*
X0051972Y0206077D01*
X0051876Y0205944D01*
X0051776Y0205813D01*
X0051674Y0205685D01*
X0051568Y0205559D01*
X0051459Y0205436D01*
X0051347Y0205316D01*
X0051233Y0205198D01*
X0051115Y0205084D01*
X0050995Y0204972D01*
X0050872Y0204863D01*
X0050746Y0204757D01*
X0050618Y0204655D01*
X0050487Y0204555D01*
X0050354Y0204459D01*
X0050218Y0204366D01*
X0050081Y0204276D01*
X0049941Y0204190D01*
X0049799Y0204108D01*
X0049655Y0204028D01*
X0049509Y0203953D01*
X0049362Y0203881D01*
X0049212Y0203812D01*
X0049061Y0203747D01*
X0048909Y0203686D01*
X0048755Y0203629D01*
X0048599Y0203576D01*
X0048443Y0203526D01*
X0048285Y0203480D01*
X0048126Y0203439D01*
X0047966Y0203401D01*
X0047806Y0203367D01*
X0047644Y0203337D01*
X0047482Y0203310D01*
X0047319Y0203288D01*
X0047156Y0203270D01*
X0046992Y0203256D01*
X0046828Y0203246D01*
X0046664Y0203240D01*
X0046500Y0203238D01*
X0046336Y0203240D01*
X0046172Y0203246D01*
X0046008Y0203256D01*
X0045844Y0203270D01*
X0045681Y0203288D01*
X0045518Y0203310D01*
X0045356Y0203337D01*
X0045194Y0203367D01*
X0045034Y0203401D01*
X0044874Y0203439D01*
X0044715Y0203480D01*
X0044557Y0203526D01*
X0044401Y0203576D01*
X0044245Y0203629D01*
X0044091Y0203686D01*
X0043939Y0203747D01*
X0043788Y0203812D01*
X0043638Y0203881D01*
X0043491Y0203953D01*
X0043345Y0204028D01*
X0043201Y0204108D01*
X0043059Y0204190D01*
X0042919Y0204276D01*
X0042782Y0204366D01*
X0042646Y0204459D01*
X0042513Y0204555D01*
X0042382Y0204655D01*
X0042254Y0204757D01*
X0042128Y0204863D01*
X0042005Y0204972D01*
X0041885Y0205084D01*
X0041767Y0205198D01*
X0041653Y0205316D01*
X0041541Y0205436D01*
X0041432Y0205559D01*
X0041326Y0205685D01*
X0041224Y0205813D01*
X0041124Y0205944D01*
X0041028Y0206077D01*
X0040935Y0206213D01*
X0040845Y0206350D01*
X0040759Y0206490D01*
X0040677Y0206632D01*
X0040597Y0206776D01*
X0040522Y0206922D01*
X0040450Y0207069D01*
X0040381Y0207219D01*
X0040316Y0207370D01*
X0040255Y0207522D01*
X0040198Y0207676D01*
X0040145Y0207832D01*
X0040095Y0207988D01*
X0040049Y0208146D01*
X0040008Y0208305D01*
X0039970Y0208465D01*
X0039936Y0208625D01*
X0039906Y0208787D01*
X0039879Y0208949D01*
X0039857Y0209112D01*
X0039839Y0209275D01*
X0039825Y0209439D01*
X0039815Y0209603D01*
X0039809Y0209767D01*
X0039807Y0209931D01*
X0039807Y0308356D02*
X0039809Y0308520D01*
X0039815Y0308684D01*
X0039825Y0308848D01*
X0039839Y0309012D01*
X0039857Y0309175D01*
X0039879Y0309338D01*
X0039906Y0309500D01*
X0039936Y0309662D01*
X0039970Y0309822D01*
X0040008Y0309982D01*
X0040049Y0310141D01*
X0040095Y0310299D01*
X0040145Y0310455D01*
X0040198Y0310611D01*
X0040255Y0310765D01*
X0040316Y0310917D01*
X0040381Y0311068D01*
X0040450Y0311218D01*
X0040522Y0311365D01*
X0040597Y0311511D01*
X0040677Y0311655D01*
X0040759Y0311797D01*
X0040845Y0311937D01*
X0040935Y0312074D01*
X0041028Y0312210D01*
X0041124Y0312343D01*
X0041224Y0312474D01*
X0041326Y0312602D01*
X0041432Y0312728D01*
X0041541Y0312851D01*
X0041653Y0312971D01*
X0041767Y0313089D01*
X0041885Y0313203D01*
X0042005Y0313315D01*
X0042128Y0313424D01*
X0042254Y0313530D01*
X0042382Y0313632D01*
X0042513Y0313732D01*
X0042646Y0313828D01*
X0042782Y0313921D01*
X0042919Y0314011D01*
X0043059Y0314097D01*
X0043201Y0314179D01*
X0043345Y0314259D01*
X0043491Y0314334D01*
X0043638Y0314406D01*
X0043788Y0314475D01*
X0043939Y0314540D01*
X0044091Y0314601D01*
X0044245Y0314658D01*
X0044401Y0314711D01*
X0044557Y0314761D01*
X0044715Y0314807D01*
X0044874Y0314848D01*
X0045034Y0314886D01*
X0045194Y0314920D01*
X0045356Y0314950D01*
X0045518Y0314977D01*
X0045681Y0314999D01*
X0045844Y0315017D01*
X0046008Y0315031D01*
X0046172Y0315041D01*
X0046336Y0315047D01*
X0046500Y0315049D01*
X0046664Y0315047D01*
X0046828Y0315041D01*
X0046992Y0315031D01*
X0047156Y0315017D01*
X0047319Y0314999D01*
X0047482Y0314977D01*
X0047644Y0314950D01*
X0047806Y0314920D01*
X0047966Y0314886D01*
X0048126Y0314848D01*
X0048285Y0314807D01*
X0048443Y0314761D01*
X0048599Y0314711D01*
X0048755Y0314658D01*
X0048909Y0314601D01*
X0049061Y0314540D01*
X0049212Y0314475D01*
X0049362Y0314406D01*
X0049509Y0314334D01*
X0049655Y0314259D01*
X0049799Y0314179D01*
X0049941Y0314097D01*
X0050081Y0314011D01*
X0050218Y0313921D01*
X0050354Y0313828D01*
X0050487Y0313732D01*
X0050618Y0313632D01*
X0050746Y0313530D01*
X0050872Y0313424D01*
X0050995Y0313315D01*
X0051115Y0313203D01*
X0051233Y0313089D01*
X0051347Y0312971D01*
X0051459Y0312851D01*
X0051568Y0312728D01*
X0051674Y0312602D01*
X0051776Y0312474D01*
X0051876Y0312343D01*
X0051972Y0312210D01*
X0052065Y0312074D01*
X0052155Y0311937D01*
X0052241Y0311797D01*
X0052323Y0311655D01*
X0052403Y0311511D01*
X0052478Y0311365D01*
X0052550Y0311218D01*
X0052619Y0311068D01*
X0052684Y0310917D01*
X0052745Y0310765D01*
X0052802Y0310611D01*
X0052855Y0310455D01*
X0052905Y0310299D01*
X0052951Y0310141D01*
X0052992Y0309982D01*
X0053030Y0309822D01*
X0053064Y0309662D01*
X0053094Y0309500D01*
X0053121Y0309338D01*
X0053143Y0309175D01*
X0053161Y0309012D01*
X0053175Y0308848D01*
X0053185Y0308684D01*
X0053191Y0308520D01*
X0053193Y0308356D01*
X0053191Y0308192D01*
X0053185Y0308028D01*
X0053175Y0307864D01*
X0053161Y0307700D01*
X0053143Y0307537D01*
X0053121Y0307374D01*
X0053094Y0307212D01*
X0053064Y0307050D01*
X0053030Y0306890D01*
X0052992Y0306730D01*
X0052951Y0306571D01*
X0052905Y0306413D01*
X0052855Y0306257D01*
X0052802Y0306101D01*
X0052745Y0305947D01*
X0052684Y0305795D01*
X0052619Y0305644D01*
X0052550Y0305494D01*
X0052478Y0305347D01*
X0052403Y0305201D01*
X0052323Y0305057D01*
X0052241Y0304915D01*
X0052155Y0304775D01*
X0052065Y0304638D01*
X0051972Y0304502D01*
X0051876Y0304369D01*
X0051776Y0304238D01*
X0051674Y0304110D01*
X0051568Y0303984D01*
X0051459Y0303861D01*
X0051347Y0303741D01*
X0051233Y0303623D01*
X0051115Y0303509D01*
X0050995Y0303397D01*
X0050872Y0303288D01*
X0050746Y0303182D01*
X0050618Y0303080D01*
X0050487Y0302980D01*
X0050354Y0302884D01*
X0050218Y0302791D01*
X0050081Y0302701D01*
X0049941Y0302615D01*
X0049799Y0302533D01*
X0049655Y0302453D01*
X0049509Y0302378D01*
X0049362Y0302306D01*
X0049212Y0302237D01*
X0049061Y0302172D01*
X0048909Y0302111D01*
X0048755Y0302054D01*
X0048599Y0302001D01*
X0048443Y0301951D01*
X0048285Y0301905D01*
X0048126Y0301864D01*
X0047966Y0301826D01*
X0047806Y0301792D01*
X0047644Y0301762D01*
X0047482Y0301735D01*
X0047319Y0301713D01*
X0047156Y0301695D01*
X0046992Y0301681D01*
X0046828Y0301671D01*
X0046664Y0301665D01*
X0046500Y0301663D01*
X0046336Y0301665D01*
X0046172Y0301671D01*
X0046008Y0301681D01*
X0045844Y0301695D01*
X0045681Y0301713D01*
X0045518Y0301735D01*
X0045356Y0301762D01*
X0045194Y0301792D01*
X0045034Y0301826D01*
X0044874Y0301864D01*
X0044715Y0301905D01*
X0044557Y0301951D01*
X0044401Y0302001D01*
X0044245Y0302054D01*
X0044091Y0302111D01*
X0043939Y0302172D01*
X0043788Y0302237D01*
X0043638Y0302306D01*
X0043491Y0302378D01*
X0043345Y0302453D01*
X0043201Y0302533D01*
X0043059Y0302615D01*
X0042919Y0302701D01*
X0042782Y0302791D01*
X0042646Y0302884D01*
X0042513Y0302980D01*
X0042382Y0303080D01*
X0042254Y0303182D01*
X0042128Y0303288D01*
X0042005Y0303397D01*
X0041885Y0303509D01*
X0041767Y0303623D01*
X0041653Y0303741D01*
X0041541Y0303861D01*
X0041432Y0303984D01*
X0041326Y0304110D01*
X0041224Y0304238D01*
X0041124Y0304369D01*
X0041028Y0304502D01*
X0040935Y0304638D01*
X0040845Y0304775D01*
X0040759Y0304915D01*
X0040677Y0305057D01*
X0040597Y0305201D01*
X0040522Y0305347D01*
X0040450Y0305494D01*
X0040381Y0305644D01*
X0040316Y0305795D01*
X0040255Y0305947D01*
X0040198Y0306101D01*
X0040145Y0306257D01*
X0040095Y0306413D01*
X0040049Y0306571D01*
X0040008Y0306730D01*
X0039970Y0306890D01*
X0039936Y0307050D01*
X0039906Y0307212D01*
X0039879Y0307374D01*
X0039857Y0307537D01*
X0039839Y0307700D01*
X0039825Y0307864D01*
X0039815Y0308028D01*
X0039809Y0308192D01*
X0039807Y0308356D01*
X0246422Y0168258D02*
X0246424Y0168320D01*
X0246430Y0168383D01*
X0246440Y0168444D01*
X0246454Y0168505D01*
X0246471Y0168565D01*
X0246492Y0168624D01*
X0246518Y0168681D01*
X0246546Y0168736D01*
X0246578Y0168790D01*
X0246614Y0168841D01*
X0246652Y0168891D01*
X0246694Y0168937D01*
X0246738Y0168981D01*
X0246786Y0169022D01*
X0246835Y0169060D01*
X0246887Y0169094D01*
X0246941Y0169125D01*
X0246997Y0169153D01*
X0247055Y0169177D01*
X0247114Y0169198D01*
X0247174Y0169214D01*
X0247235Y0169227D01*
X0247297Y0169236D01*
X0247359Y0169241D01*
X0247422Y0169242D01*
X0247484Y0169239D01*
X0247546Y0169232D01*
X0247608Y0169221D01*
X0247668Y0169206D01*
X0247728Y0169188D01*
X0247786Y0169166D01*
X0247843Y0169140D01*
X0247898Y0169110D01*
X0247951Y0169077D01*
X0248002Y0169041D01*
X0248050Y0169002D01*
X0248096Y0168959D01*
X0248139Y0168914D01*
X0248179Y0168866D01*
X0248216Y0168816D01*
X0248250Y0168763D01*
X0248281Y0168709D01*
X0248307Y0168653D01*
X0248331Y0168595D01*
X0248350Y0168535D01*
X0248366Y0168475D01*
X0248378Y0168413D01*
X0248386Y0168352D01*
X0248390Y0168289D01*
X0248390Y0168227D01*
X0248386Y0168164D01*
X0248378Y0168103D01*
X0248366Y0168041D01*
X0248350Y0167981D01*
X0248331Y0167921D01*
X0248307Y0167863D01*
X0248281Y0167807D01*
X0248250Y0167753D01*
X0248216Y0167700D01*
X0248179Y0167650D01*
X0248139Y0167602D01*
X0248096Y0167557D01*
X0248050Y0167514D01*
X0248002Y0167475D01*
X0247951Y0167439D01*
X0247898Y0167406D01*
X0247843Y0167376D01*
X0247786Y0167350D01*
X0247728Y0167328D01*
X0247668Y0167310D01*
X0247608Y0167295D01*
X0247546Y0167284D01*
X0247484Y0167277D01*
X0247422Y0167274D01*
X0247359Y0167275D01*
X0247297Y0167280D01*
X0247235Y0167289D01*
X0247174Y0167302D01*
X0247114Y0167318D01*
X0247055Y0167339D01*
X0246997Y0167363D01*
X0246941Y0167391D01*
X0246887Y0167422D01*
X0246835Y0167456D01*
X0246786Y0167494D01*
X0246738Y0167535D01*
X0246694Y0167579D01*
X0246652Y0167625D01*
X0246614Y0167675D01*
X0246578Y0167726D01*
X0246546Y0167780D01*
X0246518Y0167835D01*
X0246492Y0167892D01*
X0246471Y0167951D01*
X0246454Y0168011D01*
X0246440Y0168072D01*
X0246430Y0168133D01*
X0246424Y0168196D01*
X0246422Y0168258D01*
X0272406Y0168258D02*
X0272408Y0168320D01*
X0272414Y0168383D01*
X0272424Y0168444D01*
X0272438Y0168505D01*
X0272455Y0168565D01*
X0272476Y0168624D01*
X0272502Y0168681D01*
X0272530Y0168736D01*
X0272562Y0168790D01*
X0272598Y0168841D01*
X0272636Y0168891D01*
X0272678Y0168937D01*
X0272722Y0168981D01*
X0272770Y0169022D01*
X0272819Y0169060D01*
X0272871Y0169094D01*
X0272925Y0169125D01*
X0272981Y0169153D01*
X0273039Y0169177D01*
X0273098Y0169198D01*
X0273158Y0169214D01*
X0273219Y0169227D01*
X0273281Y0169236D01*
X0273343Y0169241D01*
X0273406Y0169242D01*
X0273468Y0169239D01*
X0273530Y0169232D01*
X0273592Y0169221D01*
X0273652Y0169206D01*
X0273712Y0169188D01*
X0273770Y0169166D01*
X0273827Y0169140D01*
X0273882Y0169110D01*
X0273935Y0169077D01*
X0273986Y0169041D01*
X0274034Y0169002D01*
X0274080Y0168959D01*
X0274123Y0168914D01*
X0274163Y0168866D01*
X0274200Y0168816D01*
X0274234Y0168763D01*
X0274265Y0168709D01*
X0274291Y0168653D01*
X0274315Y0168595D01*
X0274334Y0168535D01*
X0274350Y0168475D01*
X0274362Y0168413D01*
X0274370Y0168352D01*
X0274374Y0168289D01*
X0274374Y0168227D01*
X0274370Y0168164D01*
X0274362Y0168103D01*
X0274350Y0168041D01*
X0274334Y0167981D01*
X0274315Y0167921D01*
X0274291Y0167863D01*
X0274265Y0167807D01*
X0274234Y0167753D01*
X0274200Y0167700D01*
X0274163Y0167650D01*
X0274123Y0167602D01*
X0274080Y0167557D01*
X0274034Y0167514D01*
X0273986Y0167475D01*
X0273935Y0167439D01*
X0273882Y0167406D01*
X0273827Y0167376D01*
X0273770Y0167350D01*
X0273712Y0167328D01*
X0273652Y0167310D01*
X0273592Y0167295D01*
X0273530Y0167284D01*
X0273468Y0167277D01*
X0273406Y0167274D01*
X0273343Y0167275D01*
X0273281Y0167280D01*
X0273219Y0167289D01*
X0273158Y0167302D01*
X0273098Y0167318D01*
X0273039Y0167339D01*
X0272981Y0167363D01*
X0272925Y0167391D01*
X0272871Y0167422D01*
X0272819Y0167456D01*
X0272770Y0167494D01*
X0272722Y0167535D01*
X0272678Y0167579D01*
X0272636Y0167625D01*
X0272598Y0167675D01*
X0272562Y0167726D01*
X0272530Y0167780D01*
X0272502Y0167835D01*
X0272476Y0167892D01*
X0272455Y0167951D01*
X0272438Y0168011D01*
X0272424Y0168072D01*
X0272414Y0168133D01*
X0272408Y0168196D01*
X0272406Y0168258D01*
X0294099Y0167352D02*
X0294101Y0167510D01*
X0294107Y0167668D01*
X0294117Y0167826D01*
X0294131Y0167984D01*
X0294149Y0168141D01*
X0294170Y0168298D01*
X0294196Y0168454D01*
X0294226Y0168610D01*
X0294259Y0168765D01*
X0294297Y0168918D01*
X0294338Y0169071D01*
X0294383Y0169223D01*
X0294432Y0169374D01*
X0294485Y0169523D01*
X0294541Y0169671D01*
X0294601Y0169817D01*
X0294665Y0169962D01*
X0294733Y0170105D01*
X0294804Y0170247D01*
X0294878Y0170387D01*
X0294956Y0170524D01*
X0295038Y0170660D01*
X0295122Y0170794D01*
X0295211Y0170925D01*
X0295302Y0171054D01*
X0295397Y0171181D01*
X0295494Y0171306D01*
X0295595Y0171428D01*
X0295699Y0171547D01*
X0295806Y0171664D01*
X0295916Y0171778D01*
X0296029Y0171889D01*
X0296144Y0171998D01*
X0296262Y0172103D01*
X0296383Y0172205D01*
X0296506Y0172305D01*
X0296632Y0172401D01*
X0296760Y0172494D01*
X0296890Y0172584D01*
X0297023Y0172670D01*
X0297158Y0172754D01*
X0297294Y0172833D01*
X0297433Y0172910D01*
X0297574Y0172982D01*
X0297716Y0173052D01*
X0297860Y0173117D01*
X0298006Y0173179D01*
X0298153Y0173237D01*
X0298302Y0173292D01*
X0298452Y0173343D01*
X0298603Y0173390D01*
X0298755Y0173433D01*
X0298908Y0173472D01*
X0299063Y0173508D01*
X0299218Y0173539D01*
X0299374Y0173567D01*
X0299530Y0173591D01*
X0299687Y0173611D01*
X0299845Y0173627D01*
X0300002Y0173639D01*
X0300161Y0173647D01*
X0300319Y0173651D01*
X0300477Y0173651D01*
X0300635Y0173647D01*
X0300794Y0173639D01*
X0300951Y0173627D01*
X0301109Y0173611D01*
X0301266Y0173591D01*
X0301422Y0173567D01*
X0301578Y0173539D01*
X0301733Y0173508D01*
X0301888Y0173472D01*
X0302041Y0173433D01*
X0302193Y0173390D01*
X0302344Y0173343D01*
X0302494Y0173292D01*
X0302643Y0173237D01*
X0302790Y0173179D01*
X0302936Y0173117D01*
X0303080Y0173052D01*
X0303222Y0172982D01*
X0303363Y0172910D01*
X0303502Y0172833D01*
X0303638Y0172754D01*
X0303773Y0172670D01*
X0303906Y0172584D01*
X0304036Y0172494D01*
X0304164Y0172401D01*
X0304290Y0172305D01*
X0304413Y0172205D01*
X0304534Y0172103D01*
X0304652Y0171998D01*
X0304767Y0171889D01*
X0304880Y0171778D01*
X0304990Y0171664D01*
X0305097Y0171547D01*
X0305201Y0171428D01*
X0305302Y0171306D01*
X0305399Y0171181D01*
X0305494Y0171054D01*
X0305585Y0170925D01*
X0305674Y0170794D01*
X0305758Y0170660D01*
X0305840Y0170524D01*
X0305918Y0170387D01*
X0305992Y0170247D01*
X0306063Y0170105D01*
X0306131Y0169962D01*
X0306195Y0169817D01*
X0306255Y0169671D01*
X0306311Y0169523D01*
X0306364Y0169374D01*
X0306413Y0169223D01*
X0306458Y0169071D01*
X0306499Y0168918D01*
X0306537Y0168765D01*
X0306570Y0168610D01*
X0306600Y0168454D01*
X0306626Y0168298D01*
X0306647Y0168141D01*
X0306665Y0167984D01*
X0306679Y0167826D01*
X0306689Y0167668D01*
X0306695Y0167510D01*
X0306697Y0167352D01*
X0306695Y0167194D01*
X0306689Y0167036D01*
X0306679Y0166878D01*
X0306665Y0166720D01*
X0306647Y0166563D01*
X0306626Y0166406D01*
X0306600Y0166250D01*
X0306570Y0166094D01*
X0306537Y0165939D01*
X0306499Y0165786D01*
X0306458Y0165633D01*
X0306413Y0165481D01*
X0306364Y0165330D01*
X0306311Y0165181D01*
X0306255Y0165033D01*
X0306195Y0164887D01*
X0306131Y0164742D01*
X0306063Y0164599D01*
X0305992Y0164457D01*
X0305918Y0164317D01*
X0305840Y0164180D01*
X0305758Y0164044D01*
X0305674Y0163910D01*
X0305585Y0163779D01*
X0305494Y0163650D01*
X0305399Y0163523D01*
X0305302Y0163398D01*
X0305201Y0163276D01*
X0305097Y0163157D01*
X0304990Y0163040D01*
X0304880Y0162926D01*
X0304767Y0162815D01*
X0304652Y0162706D01*
X0304534Y0162601D01*
X0304413Y0162499D01*
X0304290Y0162399D01*
X0304164Y0162303D01*
X0304036Y0162210D01*
X0303906Y0162120D01*
X0303773Y0162034D01*
X0303638Y0161950D01*
X0303502Y0161871D01*
X0303363Y0161794D01*
X0303222Y0161722D01*
X0303080Y0161652D01*
X0302936Y0161587D01*
X0302790Y0161525D01*
X0302643Y0161467D01*
X0302494Y0161412D01*
X0302344Y0161361D01*
X0302193Y0161314D01*
X0302041Y0161271D01*
X0301888Y0161232D01*
X0301733Y0161196D01*
X0301578Y0161165D01*
X0301422Y0161137D01*
X0301266Y0161113D01*
X0301109Y0161093D01*
X0300951Y0161077D01*
X0300794Y0161065D01*
X0300635Y0161057D01*
X0300477Y0161053D01*
X0300319Y0161053D01*
X0300161Y0161057D01*
X0300002Y0161065D01*
X0299845Y0161077D01*
X0299687Y0161093D01*
X0299530Y0161113D01*
X0299374Y0161137D01*
X0299218Y0161165D01*
X0299063Y0161196D01*
X0298908Y0161232D01*
X0298755Y0161271D01*
X0298603Y0161314D01*
X0298452Y0161361D01*
X0298302Y0161412D01*
X0298153Y0161467D01*
X0298006Y0161525D01*
X0297860Y0161587D01*
X0297716Y0161652D01*
X0297574Y0161722D01*
X0297433Y0161794D01*
X0297294Y0161871D01*
X0297158Y0161950D01*
X0297023Y0162034D01*
X0296890Y0162120D01*
X0296760Y0162210D01*
X0296632Y0162303D01*
X0296506Y0162399D01*
X0296383Y0162499D01*
X0296262Y0162601D01*
X0296144Y0162706D01*
X0296029Y0162815D01*
X0295916Y0162926D01*
X0295806Y0163040D01*
X0295699Y0163157D01*
X0295595Y0163276D01*
X0295494Y0163398D01*
X0295397Y0163523D01*
X0295302Y0163650D01*
X0295211Y0163779D01*
X0295122Y0163910D01*
X0295038Y0164044D01*
X0294956Y0164180D01*
X0294878Y0164317D01*
X0294804Y0164457D01*
X0294733Y0164599D01*
X0294665Y0164742D01*
X0294601Y0164887D01*
X0294541Y0165033D01*
X0294485Y0165181D01*
X0294432Y0165330D01*
X0294383Y0165481D01*
X0294338Y0165633D01*
X0294297Y0165786D01*
X0294259Y0165939D01*
X0294226Y0166094D01*
X0294196Y0166250D01*
X0294170Y0166406D01*
X0294149Y0166563D01*
X0294131Y0166720D01*
X0294117Y0166878D01*
X0294107Y0167036D01*
X0294101Y0167194D01*
X0294099Y0167352D01*
X0343141Y0174457D02*
X0343143Y0174621D01*
X0343149Y0174785D01*
X0343159Y0174949D01*
X0343173Y0175113D01*
X0343191Y0175276D01*
X0343213Y0175439D01*
X0343240Y0175601D01*
X0343270Y0175763D01*
X0343304Y0175923D01*
X0343342Y0176083D01*
X0343383Y0176242D01*
X0343429Y0176400D01*
X0343479Y0176556D01*
X0343532Y0176712D01*
X0343589Y0176866D01*
X0343650Y0177018D01*
X0343715Y0177169D01*
X0343784Y0177319D01*
X0343856Y0177466D01*
X0343931Y0177612D01*
X0344011Y0177756D01*
X0344093Y0177898D01*
X0344179Y0178038D01*
X0344269Y0178175D01*
X0344362Y0178311D01*
X0344458Y0178444D01*
X0344558Y0178575D01*
X0344660Y0178703D01*
X0344766Y0178829D01*
X0344875Y0178952D01*
X0344987Y0179072D01*
X0345101Y0179190D01*
X0345219Y0179304D01*
X0345339Y0179416D01*
X0345462Y0179525D01*
X0345588Y0179631D01*
X0345716Y0179733D01*
X0345847Y0179833D01*
X0345980Y0179929D01*
X0346116Y0180022D01*
X0346253Y0180112D01*
X0346393Y0180198D01*
X0346535Y0180280D01*
X0346679Y0180360D01*
X0346825Y0180435D01*
X0346972Y0180507D01*
X0347122Y0180576D01*
X0347273Y0180641D01*
X0347425Y0180702D01*
X0347579Y0180759D01*
X0347735Y0180812D01*
X0347891Y0180862D01*
X0348049Y0180908D01*
X0348208Y0180949D01*
X0348368Y0180987D01*
X0348528Y0181021D01*
X0348690Y0181051D01*
X0348852Y0181078D01*
X0349015Y0181100D01*
X0349178Y0181118D01*
X0349342Y0181132D01*
X0349506Y0181142D01*
X0349670Y0181148D01*
X0349834Y0181150D01*
X0349998Y0181148D01*
X0350162Y0181142D01*
X0350326Y0181132D01*
X0350490Y0181118D01*
X0350653Y0181100D01*
X0350816Y0181078D01*
X0350978Y0181051D01*
X0351140Y0181021D01*
X0351300Y0180987D01*
X0351460Y0180949D01*
X0351619Y0180908D01*
X0351777Y0180862D01*
X0351933Y0180812D01*
X0352089Y0180759D01*
X0352243Y0180702D01*
X0352395Y0180641D01*
X0352546Y0180576D01*
X0352696Y0180507D01*
X0352843Y0180435D01*
X0352989Y0180360D01*
X0353133Y0180280D01*
X0353275Y0180198D01*
X0353415Y0180112D01*
X0353552Y0180022D01*
X0353688Y0179929D01*
X0353821Y0179833D01*
X0353952Y0179733D01*
X0354080Y0179631D01*
X0354206Y0179525D01*
X0354329Y0179416D01*
X0354449Y0179304D01*
X0354567Y0179190D01*
X0354681Y0179072D01*
X0354793Y0178952D01*
X0354902Y0178829D01*
X0355008Y0178703D01*
X0355110Y0178575D01*
X0355210Y0178444D01*
X0355306Y0178311D01*
X0355399Y0178175D01*
X0355489Y0178038D01*
X0355575Y0177898D01*
X0355657Y0177756D01*
X0355737Y0177612D01*
X0355812Y0177466D01*
X0355884Y0177319D01*
X0355953Y0177169D01*
X0356018Y0177018D01*
X0356079Y0176866D01*
X0356136Y0176712D01*
X0356189Y0176556D01*
X0356239Y0176400D01*
X0356285Y0176242D01*
X0356326Y0176083D01*
X0356364Y0175923D01*
X0356398Y0175763D01*
X0356428Y0175601D01*
X0356455Y0175439D01*
X0356477Y0175276D01*
X0356495Y0175113D01*
X0356509Y0174949D01*
X0356519Y0174785D01*
X0356525Y0174621D01*
X0356527Y0174457D01*
X0356525Y0174293D01*
X0356519Y0174129D01*
X0356509Y0173965D01*
X0356495Y0173801D01*
X0356477Y0173638D01*
X0356455Y0173475D01*
X0356428Y0173313D01*
X0356398Y0173151D01*
X0356364Y0172991D01*
X0356326Y0172831D01*
X0356285Y0172672D01*
X0356239Y0172514D01*
X0356189Y0172358D01*
X0356136Y0172202D01*
X0356079Y0172048D01*
X0356018Y0171896D01*
X0355953Y0171745D01*
X0355884Y0171595D01*
X0355812Y0171448D01*
X0355737Y0171302D01*
X0355657Y0171158D01*
X0355575Y0171016D01*
X0355489Y0170876D01*
X0355399Y0170739D01*
X0355306Y0170603D01*
X0355210Y0170470D01*
X0355110Y0170339D01*
X0355008Y0170211D01*
X0354902Y0170085D01*
X0354793Y0169962D01*
X0354681Y0169842D01*
X0354567Y0169724D01*
X0354449Y0169610D01*
X0354329Y0169498D01*
X0354206Y0169389D01*
X0354080Y0169283D01*
X0353952Y0169181D01*
X0353821Y0169081D01*
X0353688Y0168985D01*
X0353552Y0168892D01*
X0353415Y0168802D01*
X0353275Y0168716D01*
X0353133Y0168634D01*
X0352989Y0168554D01*
X0352843Y0168479D01*
X0352696Y0168407D01*
X0352546Y0168338D01*
X0352395Y0168273D01*
X0352243Y0168212D01*
X0352089Y0168155D01*
X0351933Y0168102D01*
X0351777Y0168052D01*
X0351619Y0168006D01*
X0351460Y0167965D01*
X0351300Y0167927D01*
X0351140Y0167893D01*
X0350978Y0167863D01*
X0350816Y0167836D01*
X0350653Y0167814D01*
X0350490Y0167796D01*
X0350326Y0167782D01*
X0350162Y0167772D01*
X0349998Y0167766D01*
X0349834Y0167764D01*
X0349670Y0167766D01*
X0349506Y0167772D01*
X0349342Y0167782D01*
X0349178Y0167796D01*
X0349015Y0167814D01*
X0348852Y0167836D01*
X0348690Y0167863D01*
X0348528Y0167893D01*
X0348368Y0167927D01*
X0348208Y0167965D01*
X0348049Y0168006D01*
X0347891Y0168052D01*
X0347735Y0168102D01*
X0347579Y0168155D01*
X0347425Y0168212D01*
X0347273Y0168273D01*
X0347122Y0168338D01*
X0346972Y0168407D01*
X0346825Y0168479D01*
X0346679Y0168554D01*
X0346535Y0168634D01*
X0346393Y0168716D01*
X0346253Y0168802D01*
X0346116Y0168892D01*
X0345980Y0168985D01*
X0345847Y0169081D01*
X0345716Y0169181D01*
X0345588Y0169283D01*
X0345462Y0169389D01*
X0345339Y0169498D01*
X0345219Y0169610D01*
X0345101Y0169724D01*
X0344987Y0169842D01*
X0344875Y0169962D01*
X0344766Y0170085D01*
X0344660Y0170211D01*
X0344558Y0170339D01*
X0344458Y0170470D01*
X0344362Y0170603D01*
X0344269Y0170739D01*
X0344179Y0170876D01*
X0344093Y0171016D01*
X0344011Y0171158D01*
X0343931Y0171302D01*
X0343856Y0171448D01*
X0343784Y0171595D01*
X0343715Y0171745D01*
X0343650Y0171896D01*
X0343589Y0172048D01*
X0343532Y0172202D01*
X0343479Y0172358D01*
X0343429Y0172514D01*
X0343383Y0172672D01*
X0343342Y0172831D01*
X0343304Y0172991D01*
X0343270Y0173151D01*
X0343240Y0173313D01*
X0343213Y0173475D01*
X0343191Y0173638D01*
X0343173Y0173801D01*
X0343159Y0173965D01*
X0343149Y0174129D01*
X0343143Y0174293D01*
X0343141Y0174457D01*
X0351865Y0210034D02*
X0351867Y0210189D01*
X0351873Y0210343D01*
X0351883Y0210497D01*
X0351897Y0210651D01*
X0351915Y0210805D01*
X0351937Y0210958D01*
X0351962Y0211110D01*
X0351992Y0211262D01*
X0352026Y0211413D01*
X0352063Y0211563D01*
X0352104Y0211712D01*
X0352149Y0211860D01*
X0352198Y0212007D01*
X0352251Y0212152D01*
X0352307Y0212296D01*
X0352367Y0212438D01*
X0352431Y0212579D01*
X0352498Y0212718D01*
X0352569Y0212856D01*
X0352644Y0212991D01*
X0352722Y0213125D01*
X0352803Y0213256D01*
X0352888Y0213386D01*
X0352976Y0213513D01*
X0353067Y0213638D01*
X0353161Y0213760D01*
X0353259Y0213880D01*
X0353359Y0213998D01*
X0353463Y0214112D01*
X0353569Y0214224D01*
X0353679Y0214334D01*
X0353791Y0214440D01*
X0353905Y0214544D01*
X0354023Y0214644D01*
X0354143Y0214742D01*
X0354265Y0214836D01*
X0354390Y0214927D01*
X0354517Y0215015D01*
X0354647Y0215100D01*
X0354778Y0215181D01*
X0354912Y0215259D01*
X0355047Y0215334D01*
X0355185Y0215405D01*
X0355324Y0215472D01*
X0355465Y0215536D01*
X0355607Y0215596D01*
X0355751Y0215652D01*
X0355896Y0215705D01*
X0356043Y0215754D01*
X0356191Y0215799D01*
X0356340Y0215840D01*
X0356490Y0215877D01*
X0356641Y0215911D01*
X0356793Y0215941D01*
X0356945Y0215966D01*
X0357098Y0215988D01*
X0357252Y0216006D01*
X0357406Y0216020D01*
X0357560Y0216030D01*
X0357714Y0216036D01*
X0357869Y0216038D01*
X0358024Y0216036D01*
X0358178Y0216030D01*
X0358332Y0216020D01*
X0358486Y0216006D01*
X0358640Y0215988D01*
X0358793Y0215966D01*
X0358945Y0215941D01*
X0359097Y0215911D01*
X0359248Y0215877D01*
X0359398Y0215840D01*
X0359547Y0215799D01*
X0359695Y0215754D01*
X0359842Y0215705D01*
X0359987Y0215652D01*
X0360131Y0215596D01*
X0360273Y0215536D01*
X0360414Y0215472D01*
X0360553Y0215405D01*
X0360691Y0215334D01*
X0360826Y0215259D01*
X0360960Y0215181D01*
X0361091Y0215100D01*
X0361221Y0215015D01*
X0361348Y0214927D01*
X0361473Y0214836D01*
X0361595Y0214742D01*
X0361715Y0214644D01*
X0361833Y0214544D01*
X0361947Y0214440D01*
X0362059Y0214334D01*
X0362169Y0214224D01*
X0362275Y0214112D01*
X0362379Y0213998D01*
X0362479Y0213880D01*
X0362577Y0213760D01*
X0362671Y0213638D01*
X0362762Y0213513D01*
X0362850Y0213386D01*
X0362935Y0213256D01*
X0363016Y0213125D01*
X0363094Y0212991D01*
X0363169Y0212856D01*
X0363240Y0212718D01*
X0363307Y0212579D01*
X0363371Y0212438D01*
X0363431Y0212296D01*
X0363487Y0212152D01*
X0363540Y0212007D01*
X0363589Y0211860D01*
X0363634Y0211712D01*
X0363675Y0211563D01*
X0363712Y0211413D01*
X0363746Y0211262D01*
X0363776Y0211110D01*
X0363801Y0210958D01*
X0363823Y0210805D01*
X0363841Y0210651D01*
X0363855Y0210497D01*
X0363865Y0210343D01*
X0363871Y0210189D01*
X0363873Y0210034D01*
X0363871Y0209879D01*
X0363865Y0209725D01*
X0363855Y0209571D01*
X0363841Y0209417D01*
X0363823Y0209263D01*
X0363801Y0209110D01*
X0363776Y0208958D01*
X0363746Y0208806D01*
X0363712Y0208655D01*
X0363675Y0208505D01*
X0363634Y0208356D01*
X0363589Y0208208D01*
X0363540Y0208061D01*
X0363487Y0207916D01*
X0363431Y0207772D01*
X0363371Y0207630D01*
X0363307Y0207489D01*
X0363240Y0207350D01*
X0363169Y0207212D01*
X0363094Y0207077D01*
X0363016Y0206943D01*
X0362935Y0206812D01*
X0362850Y0206682D01*
X0362762Y0206555D01*
X0362671Y0206430D01*
X0362577Y0206308D01*
X0362479Y0206188D01*
X0362379Y0206070D01*
X0362275Y0205956D01*
X0362169Y0205844D01*
X0362059Y0205734D01*
X0361947Y0205628D01*
X0361833Y0205524D01*
X0361715Y0205424D01*
X0361595Y0205326D01*
X0361473Y0205232D01*
X0361348Y0205141D01*
X0361221Y0205053D01*
X0361091Y0204968D01*
X0360960Y0204887D01*
X0360826Y0204809D01*
X0360691Y0204734D01*
X0360553Y0204663D01*
X0360414Y0204596D01*
X0360273Y0204532D01*
X0360131Y0204472D01*
X0359987Y0204416D01*
X0359842Y0204363D01*
X0359695Y0204314D01*
X0359547Y0204269D01*
X0359398Y0204228D01*
X0359248Y0204191D01*
X0359097Y0204157D01*
X0358945Y0204127D01*
X0358793Y0204102D01*
X0358640Y0204080D01*
X0358486Y0204062D01*
X0358332Y0204048D01*
X0358178Y0204038D01*
X0358024Y0204032D01*
X0357869Y0204030D01*
X0357714Y0204032D01*
X0357560Y0204038D01*
X0357406Y0204048D01*
X0357252Y0204062D01*
X0357098Y0204080D01*
X0356945Y0204102D01*
X0356793Y0204127D01*
X0356641Y0204157D01*
X0356490Y0204191D01*
X0356340Y0204228D01*
X0356191Y0204269D01*
X0356043Y0204314D01*
X0355896Y0204363D01*
X0355751Y0204416D01*
X0355607Y0204472D01*
X0355465Y0204532D01*
X0355324Y0204596D01*
X0355185Y0204663D01*
X0355047Y0204734D01*
X0354912Y0204809D01*
X0354778Y0204887D01*
X0354647Y0204968D01*
X0354517Y0205053D01*
X0354390Y0205141D01*
X0354265Y0205232D01*
X0354143Y0205326D01*
X0354023Y0205424D01*
X0353905Y0205524D01*
X0353791Y0205628D01*
X0353679Y0205734D01*
X0353569Y0205844D01*
X0353463Y0205956D01*
X0353359Y0206070D01*
X0353259Y0206188D01*
X0353161Y0206308D01*
X0353067Y0206430D01*
X0352976Y0206555D01*
X0352888Y0206682D01*
X0352803Y0206812D01*
X0352722Y0206943D01*
X0352644Y0207077D01*
X0352569Y0207212D01*
X0352498Y0207350D01*
X0352431Y0207489D01*
X0352367Y0207630D01*
X0352307Y0207772D01*
X0352251Y0207916D01*
X0352198Y0208061D01*
X0352149Y0208208D01*
X0352104Y0208356D01*
X0352063Y0208505D01*
X0352026Y0208655D01*
X0351992Y0208806D01*
X0351962Y0208958D01*
X0351937Y0209110D01*
X0351915Y0209263D01*
X0351897Y0209417D01*
X0351883Y0209571D01*
X0351873Y0209725D01*
X0351867Y0209879D01*
X0351865Y0210034D01*
X0251107Y0300463D02*
X0251109Y0300621D01*
X0251115Y0300779D01*
X0251125Y0300937D01*
X0251139Y0301095D01*
X0251157Y0301252D01*
X0251178Y0301409D01*
X0251204Y0301565D01*
X0251234Y0301721D01*
X0251267Y0301876D01*
X0251305Y0302029D01*
X0251346Y0302182D01*
X0251391Y0302334D01*
X0251440Y0302485D01*
X0251493Y0302634D01*
X0251549Y0302782D01*
X0251609Y0302928D01*
X0251673Y0303073D01*
X0251741Y0303216D01*
X0251812Y0303358D01*
X0251886Y0303498D01*
X0251964Y0303635D01*
X0252046Y0303771D01*
X0252130Y0303905D01*
X0252219Y0304036D01*
X0252310Y0304165D01*
X0252405Y0304292D01*
X0252502Y0304417D01*
X0252603Y0304539D01*
X0252707Y0304658D01*
X0252814Y0304775D01*
X0252924Y0304889D01*
X0253037Y0305000D01*
X0253152Y0305109D01*
X0253270Y0305214D01*
X0253391Y0305316D01*
X0253514Y0305416D01*
X0253640Y0305512D01*
X0253768Y0305605D01*
X0253898Y0305695D01*
X0254031Y0305781D01*
X0254166Y0305865D01*
X0254302Y0305944D01*
X0254441Y0306021D01*
X0254582Y0306093D01*
X0254724Y0306163D01*
X0254868Y0306228D01*
X0255014Y0306290D01*
X0255161Y0306348D01*
X0255310Y0306403D01*
X0255460Y0306454D01*
X0255611Y0306501D01*
X0255763Y0306544D01*
X0255916Y0306583D01*
X0256071Y0306619D01*
X0256226Y0306650D01*
X0256382Y0306678D01*
X0256538Y0306702D01*
X0256695Y0306722D01*
X0256853Y0306738D01*
X0257010Y0306750D01*
X0257169Y0306758D01*
X0257327Y0306762D01*
X0257485Y0306762D01*
X0257643Y0306758D01*
X0257802Y0306750D01*
X0257959Y0306738D01*
X0258117Y0306722D01*
X0258274Y0306702D01*
X0258430Y0306678D01*
X0258586Y0306650D01*
X0258741Y0306619D01*
X0258896Y0306583D01*
X0259049Y0306544D01*
X0259201Y0306501D01*
X0259352Y0306454D01*
X0259502Y0306403D01*
X0259651Y0306348D01*
X0259798Y0306290D01*
X0259944Y0306228D01*
X0260088Y0306163D01*
X0260230Y0306093D01*
X0260371Y0306021D01*
X0260510Y0305944D01*
X0260646Y0305865D01*
X0260781Y0305781D01*
X0260914Y0305695D01*
X0261044Y0305605D01*
X0261172Y0305512D01*
X0261298Y0305416D01*
X0261421Y0305316D01*
X0261542Y0305214D01*
X0261660Y0305109D01*
X0261775Y0305000D01*
X0261888Y0304889D01*
X0261998Y0304775D01*
X0262105Y0304658D01*
X0262209Y0304539D01*
X0262310Y0304417D01*
X0262407Y0304292D01*
X0262502Y0304165D01*
X0262593Y0304036D01*
X0262682Y0303905D01*
X0262766Y0303771D01*
X0262848Y0303635D01*
X0262926Y0303498D01*
X0263000Y0303358D01*
X0263071Y0303216D01*
X0263139Y0303073D01*
X0263203Y0302928D01*
X0263263Y0302782D01*
X0263319Y0302634D01*
X0263372Y0302485D01*
X0263421Y0302334D01*
X0263466Y0302182D01*
X0263507Y0302029D01*
X0263545Y0301876D01*
X0263578Y0301721D01*
X0263608Y0301565D01*
X0263634Y0301409D01*
X0263655Y0301252D01*
X0263673Y0301095D01*
X0263687Y0300937D01*
X0263697Y0300779D01*
X0263703Y0300621D01*
X0263705Y0300463D01*
X0263703Y0300305D01*
X0263697Y0300147D01*
X0263687Y0299989D01*
X0263673Y0299831D01*
X0263655Y0299674D01*
X0263634Y0299517D01*
X0263608Y0299361D01*
X0263578Y0299205D01*
X0263545Y0299050D01*
X0263507Y0298897D01*
X0263466Y0298744D01*
X0263421Y0298592D01*
X0263372Y0298441D01*
X0263319Y0298292D01*
X0263263Y0298144D01*
X0263203Y0297998D01*
X0263139Y0297853D01*
X0263071Y0297710D01*
X0263000Y0297568D01*
X0262926Y0297428D01*
X0262848Y0297291D01*
X0262766Y0297155D01*
X0262682Y0297021D01*
X0262593Y0296890D01*
X0262502Y0296761D01*
X0262407Y0296634D01*
X0262310Y0296509D01*
X0262209Y0296387D01*
X0262105Y0296268D01*
X0261998Y0296151D01*
X0261888Y0296037D01*
X0261775Y0295926D01*
X0261660Y0295817D01*
X0261542Y0295712D01*
X0261421Y0295610D01*
X0261298Y0295510D01*
X0261172Y0295414D01*
X0261044Y0295321D01*
X0260914Y0295231D01*
X0260781Y0295145D01*
X0260646Y0295061D01*
X0260510Y0294982D01*
X0260371Y0294905D01*
X0260230Y0294833D01*
X0260088Y0294763D01*
X0259944Y0294698D01*
X0259798Y0294636D01*
X0259651Y0294578D01*
X0259502Y0294523D01*
X0259352Y0294472D01*
X0259201Y0294425D01*
X0259049Y0294382D01*
X0258896Y0294343D01*
X0258741Y0294307D01*
X0258586Y0294276D01*
X0258430Y0294248D01*
X0258274Y0294224D01*
X0258117Y0294204D01*
X0257959Y0294188D01*
X0257802Y0294176D01*
X0257643Y0294168D01*
X0257485Y0294164D01*
X0257327Y0294164D01*
X0257169Y0294168D01*
X0257010Y0294176D01*
X0256853Y0294188D01*
X0256695Y0294204D01*
X0256538Y0294224D01*
X0256382Y0294248D01*
X0256226Y0294276D01*
X0256071Y0294307D01*
X0255916Y0294343D01*
X0255763Y0294382D01*
X0255611Y0294425D01*
X0255460Y0294472D01*
X0255310Y0294523D01*
X0255161Y0294578D01*
X0255014Y0294636D01*
X0254868Y0294698D01*
X0254724Y0294763D01*
X0254582Y0294833D01*
X0254441Y0294905D01*
X0254302Y0294982D01*
X0254166Y0295061D01*
X0254031Y0295145D01*
X0253898Y0295231D01*
X0253768Y0295321D01*
X0253640Y0295414D01*
X0253514Y0295510D01*
X0253391Y0295610D01*
X0253270Y0295712D01*
X0253152Y0295817D01*
X0253037Y0295926D01*
X0252924Y0296037D01*
X0252814Y0296151D01*
X0252707Y0296268D01*
X0252603Y0296387D01*
X0252502Y0296509D01*
X0252405Y0296634D01*
X0252310Y0296761D01*
X0252219Y0296890D01*
X0252130Y0297021D01*
X0252046Y0297155D01*
X0251964Y0297291D01*
X0251886Y0297428D01*
X0251812Y0297568D01*
X0251741Y0297710D01*
X0251673Y0297853D01*
X0251609Y0297998D01*
X0251549Y0298144D01*
X0251493Y0298292D01*
X0251440Y0298441D01*
X0251391Y0298592D01*
X0251346Y0298744D01*
X0251305Y0298897D01*
X0251267Y0299050D01*
X0251234Y0299205D01*
X0251204Y0299361D01*
X0251178Y0299517D01*
X0251157Y0299674D01*
X0251139Y0299831D01*
X0251125Y0299989D01*
X0251115Y0300147D01*
X0251109Y0300305D01*
X0251107Y0300463D01*
X0351865Y0308460D02*
X0351867Y0308615D01*
X0351873Y0308769D01*
X0351883Y0308923D01*
X0351897Y0309077D01*
X0351915Y0309231D01*
X0351937Y0309384D01*
X0351962Y0309536D01*
X0351992Y0309688D01*
X0352026Y0309839D01*
X0352063Y0309989D01*
X0352104Y0310138D01*
X0352149Y0310286D01*
X0352198Y0310433D01*
X0352251Y0310578D01*
X0352307Y0310722D01*
X0352367Y0310864D01*
X0352431Y0311005D01*
X0352498Y0311144D01*
X0352569Y0311282D01*
X0352644Y0311417D01*
X0352722Y0311551D01*
X0352803Y0311682D01*
X0352888Y0311812D01*
X0352976Y0311939D01*
X0353067Y0312064D01*
X0353161Y0312186D01*
X0353259Y0312306D01*
X0353359Y0312424D01*
X0353463Y0312538D01*
X0353569Y0312650D01*
X0353679Y0312760D01*
X0353791Y0312866D01*
X0353905Y0312970D01*
X0354023Y0313070D01*
X0354143Y0313168D01*
X0354265Y0313262D01*
X0354390Y0313353D01*
X0354517Y0313441D01*
X0354647Y0313526D01*
X0354778Y0313607D01*
X0354912Y0313685D01*
X0355047Y0313760D01*
X0355185Y0313831D01*
X0355324Y0313898D01*
X0355465Y0313962D01*
X0355607Y0314022D01*
X0355751Y0314078D01*
X0355896Y0314131D01*
X0356043Y0314180D01*
X0356191Y0314225D01*
X0356340Y0314266D01*
X0356490Y0314303D01*
X0356641Y0314337D01*
X0356793Y0314367D01*
X0356945Y0314392D01*
X0357098Y0314414D01*
X0357252Y0314432D01*
X0357406Y0314446D01*
X0357560Y0314456D01*
X0357714Y0314462D01*
X0357869Y0314464D01*
X0358024Y0314462D01*
X0358178Y0314456D01*
X0358332Y0314446D01*
X0358486Y0314432D01*
X0358640Y0314414D01*
X0358793Y0314392D01*
X0358945Y0314367D01*
X0359097Y0314337D01*
X0359248Y0314303D01*
X0359398Y0314266D01*
X0359547Y0314225D01*
X0359695Y0314180D01*
X0359842Y0314131D01*
X0359987Y0314078D01*
X0360131Y0314022D01*
X0360273Y0313962D01*
X0360414Y0313898D01*
X0360553Y0313831D01*
X0360691Y0313760D01*
X0360826Y0313685D01*
X0360960Y0313607D01*
X0361091Y0313526D01*
X0361221Y0313441D01*
X0361348Y0313353D01*
X0361473Y0313262D01*
X0361595Y0313168D01*
X0361715Y0313070D01*
X0361833Y0312970D01*
X0361947Y0312866D01*
X0362059Y0312760D01*
X0362169Y0312650D01*
X0362275Y0312538D01*
X0362379Y0312424D01*
X0362479Y0312306D01*
X0362577Y0312186D01*
X0362671Y0312064D01*
X0362762Y0311939D01*
X0362850Y0311812D01*
X0362935Y0311682D01*
X0363016Y0311551D01*
X0363094Y0311417D01*
X0363169Y0311282D01*
X0363240Y0311144D01*
X0363307Y0311005D01*
X0363371Y0310864D01*
X0363431Y0310722D01*
X0363487Y0310578D01*
X0363540Y0310433D01*
X0363589Y0310286D01*
X0363634Y0310138D01*
X0363675Y0309989D01*
X0363712Y0309839D01*
X0363746Y0309688D01*
X0363776Y0309536D01*
X0363801Y0309384D01*
X0363823Y0309231D01*
X0363841Y0309077D01*
X0363855Y0308923D01*
X0363865Y0308769D01*
X0363871Y0308615D01*
X0363873Y0308460D01*
X0363871Y0308305D01*
X0363865Y0308151D01*
X0363855Y0307997D01*
X0363841Y0307843D01*
X0363823Y0307689D01*
X0363801Y0307536D01*
X0363776Y0307384D01*
X0363746Y0307232D01*
X0363712Y0307081D01*
X0363675Y0306931D01*
X0363634Y0306782D01*
X0363589Y0306634D01*
X0363540Y0306487D01*
X0363487Y0306342D01*
X0363431Y0306198D01*
X0363371Y0306056D01*
X0363307Y0305915D01*
X0363240Y0305776D01*
X0363169Y0305638D01*
X0363094Y0305503D01*
X0363016Y0305369D01*
X0362935Y0305238D01*
X0362850Y0305108D01*
X0362762Y0304981D01*
X0362671Y0304856D01*
X0362577Y0304734D01*
X0362479Y0304614D01*
X0362379Y0304496D01*
X0362275Y0304382D01*
X0362169Y0304270D01*
X0362059Y0304160D01*
X0361947Y0304054D01*
X0361833Y0303950D01*
X0361715Y0303850D01*
X0361595Y0303752D01*
X0361473Y0303658D01*
X0361348Y0303567D01*
X0361221Y0303479D01*
X0361091Y0303394D01*
X0360960Y0303313D01*
X0360826Y0303235D01*
X0360691Y0303160D01*
X0360553Y0303089D01*
X0360414Y0303022D01*
X0360273Y0302958D01*
X0360131Y0302898D01*
X0359987Y0302842D01*
X0359842Y0302789D01*
X0359695Y0302740D01*
X0359547Y0302695D01*
X0359398Y0302654D01*
X0359248Y0302617D01*
X0359097Y0302583D01*
X0358945Y0302553D01*
X0358793Y0302528D01*
X0358640Y0302506D01*
X0358486Y0302488D01*
X0358332Y0302474D01*
X0358178Y0302464D01*
X0358024Y0302458D01*
X0357869Y0302456D01*
X0357714Y0302458D01*
X0357560Y0302464D01*
X0357406Y0302474D01*
X0357252Y0302488D01*
X0357098Y0302506D01*
X0356945Y0302528D01*
X0356793Y0302553D01*
X0356641Y0302583D01*
X0356490Y0302617D01*
X0356340Y0302654D01*
X0356191Y0302695D01*
X0356043Y0302740D01*
X0355896Y0302789D01*
X0355751Y0302842D01*
X0355607Y0302898D01*
X0355465Y0302958D01*
X0355324Y0303022D01*
X0355185Y0303089D01*
X0355047Y0303160D01*
X0354912Y0303235D01*
X0354778Y0303313D01*
X0354647Y0303394D01*
X0354517Y0303479D01*
X0354390Y0303567D01*
X0354265Y0303658D01*
X0354143Y0303752D01*
X0354023Y0303850D01*
X0353905Y0303950D01*
X0353791Y0304054D01*
X0353679Y0304160D01*
X0353569Y0304270D01*
X0353463Y0304382D01*
X0353359Y0304496D01*
X0353259Y0304614D01*
X0353161Y0304734D01*
X0353067Y0304856D01*
X0352976Y0304981D01*
X0352888Y0305108D01*
X0352803Y0305238D01*
X0352722Y0305369D01*
X0352644Y0305503D01*
X0352569Y0305638D01*
X0352498Y0305776D01*
X0352431Y0305915D01*
X0352367Y0306056D01*
X0352307Y0306198D01*
X0352251Y0306342D01*
X0352198Y0306487D01*
X0352149Y0306634D01*
X0352104Y0306782D01*
X0352063Y0306931D01*
X0352026Y0307081D01*
X0351992Y0307232D01*
X0351962Y0307384D01*
X0351937Y0307536D01*
X0351915Y0307689D01*
X0351897Y0307843D01*
X0351883Y0307997D01*
X0351873Y0308151D01*
X0351867Y0308305D01*
X0351865Y0308460D01*
X0184099Y0097352D02*
X0184101Y0097510D01*
X0184107Y0097668D01*
X0184117Y0097826D01*
X0184131Y0097984D01*
X0184149Y0098141D01*
X0184170Y0098298D01*
X0184196Y0098454D01*
X0184226Y0098610D01*
X0184259Y0098765D01*
X0184297Y0098918D01*
X0184338Y0099071D01*
X0184383Y0099223D01*
X0184432Y0099374D01*
X0184485Y0099523D01*
X0184541Y0099671D01*
X0184601Y0099817D01*
X0184665Y0099962D01*
X0184733Y0100105D01*
X0184804Y0100247D01*
X0184878Y0100387D01*
X0184956Y0100524D01*
X0185038Y0100660D01*
X0185122Y0100794D01*
X0185211Y0100925D01*
X0185302Y0101054D01*
X0185397Y0101181D01*
X0185494Y0101306D01*
X0185595Y0101428D01*
X0185699Y0101547D01*
X0185806Y0101664D01*
X0185916Y0101778D01*
X0186029Y0101889D01*
X0186144Y0101998D01*
X0186262Y0102103D01*
X0186383Y0102205D01*
X0186506Y0102305D01*
X0186632Y0102401D01*
X0186760Y0102494D01*
X0186890Y0102584D01*
X0187023Y0102670D01*
X0187158Y0102754D01*
X0187294Y0102833D01*
X0187433Y0102910D01*
X0187574Y0102982D01*
X0187716Y0103052D01*
X0187860Y0103117D01*
X0188006Y0103179D01*
X0188153Y0103237D01*
X0188302Y0103292D01*
X0188452Y0103343D01*
X0188603Y0103390D01*
X0188755Y0103433D01*
X0188908Y0103472D01*
X0189063Y0103508D01*
X0189218Y0103539D01*
X0189374Y0103567D01*
X0189530Y0103591D01*
X0189687Y0103611D01*
X0189845Y0103627D01*
X0190002Y0103639D01*
X0190161Y0103647D01*
X0190319Y0103651D01*
X0190477Y0103651D01*
X0190635Y0103647D01*
X0190794Y0103639D01*
X0190951Y0103627D01*
X0191109Y0103611D01*
X0191266Y0103591D01*
X0191422Y0103567D01*
X0191578Y0103539D01*
X0191733Y0103508D01*
X0191888Y0103472D01*
X0192041Y0103433D01*
X0192193Y0103390D01*
X0192344Y0103343D01*
X0192494Y0103292D01*
X0192643Y0103237D01*
X0192790Y0103179D01*
X0192936Y0103117D01*
X0193080Y0103052D01*
X0193222Y0102982D01*
X0193363Y0102910D01*
X0193502Y0102833D01*
X0193638Y0102754D01*
X0193773Y0102670D01*
X0193906Y0102584D01*
X0194036Y0102494D01*
X0194164Y0102401D01*
X0194290Y0102305D01*
X0194413Y0102205D01*
X0194534Y0102103D01*
X0194652Y0101998D01*
X0194767Y0101889D01*
X0194880Y0101778D01*
X0194990Y0101664D01*
X0195097Y0101547D01*
X0195201Y0101428D01*
X0195302Y0101306D01*
X0195399Y0101181D01*
X0195494Y0101054D01*
X0195585Y0100925D01*
X0195674Y0100794D01*
X0195758Y0100660D01*
X0195840Y0100524D01*
X0195918Y0100387D01*
X0195992Y0100247D01*
X0196063Y0100105D01*
X0196131Y0099962D01*
X0196195Y0099817D01*
X0196255Y0099671D01*
X0196311Y0099523D01*
X0196364Y0099374D01*
X0196413Y0099223D01*
X0196458Y0099071D01*
X0196499Y0098918D01*
X0196537Y0098765D01*
X0196570Y0098610D01*
X0196600Y0098454D01*
X0196626Y0098298D01*
X0196647Y0098141D01*
X0196665Y0097984D01*
X0196679Y0097826D01*
X0196689Y0097668D01*
X0196695Y0097510D01*
X0196697Y0097352D01*
X0196695Y0097194D01*
X0196689Y0097036D01*
X0196679Y0096878D01*
X0196665Y0096720D01*
X0196647Y0096563D01*
X0196626Y0096406D01*
X0196600Y0096250D01*
X0196570Y0096094D01*
X0196537Y0095939D01*
X0196499Y0095786D01*
X0196458Y0095633D01*
X0196413Y0095481D01*
X0196364Y0095330D01*
X0196311Y0095181D01*
X0196255Y0095033D01*
X0196195Y0094887D01*
X0196131Y0094742D01*
X0196063Y0094599D01*
X0195992Y0094457D01*
X0195918Y0094317D01*
X0195840Y0094180D01*
X0195758Y0094044D01*
X0195674Y0093910D01*
X0195585Y0093779D01*
X0195494Y0093650D01*
X0195399Y0093523D01*
X0195302Y0093398D01*
X0195201Y0093276D01*
X0195097Y0093157D01*
X0194990Y0093040D01*
X0194880Y0092926D01*
X0194767Y0092815D01*
X0194652Y0092706D01*
X0194534Y0092601D01*
X0194413Y0092499D01*
X0194290Y0092399D01*
X0194164Y0092303D01*
X0194036Y0092210D01*
X0193906Y0092120D01*
X0193773Y0092034D01*
X0193638Y0091950D01*
X0193502Y0091871D01*
X0193363Y0091794D01*
X0193222Y0091722D01*
X0193080Y0091652D01*
X0192936Y0091587D01*
X0192790Y0091525D01*
X0192643Y0091467D01*
X0192494Y0091412D01*
X0192344Y0091361D01*
X0192193Y0091314D01*
X0192041Y0091271D01*
X0191888Y0091232D01*
X0191733Y0091196D01*
X0191578Y0091165D01*
X0191422Y0091137D01*
X0191266Y0091113D01*
X0191109Y0091093D01*
X0190951Y0091077D01*
X0190794Y0091065D01*
X0190635Y0091057D01*
X0190477Y0091053D01*
X0190319Y0091053D01*
X0190161Y0091057D01*
X0190002Y0091065D01*
X0189845Y0091077D01*
X0189687Y0091093D01*
X0189530Y0091113D01*
X0189374Y0091137D01*
X0189218Y0091165D01*
X0189063Y0091196D01*
X0188908Y0091232D01*
X0188755Y0091271D01*
X0188603Y0091314D01*
X0188452Y0091361D01*
X0188302Y0091412D01*
X0188153Y0091467D01*
X0188006Y0091525D01*
X0187860Y0091587D01*
X0187716Y0091652D01*
X0187574Y0091722D01*
X0187433Y0091794D01*
X0187294Y0091871D01*
X0187158Y0091950D01*
X0187023Y0092034D01*
X0186890Y0092120D01*
X0186760Y0092210D01*
X0186632Y0092303D01*
X0186506Y0092399D01*
X0186383Y0092499D01*
X0186262Y0092601D01*
X0186144Y0092706D01*
X0186029Y0092815D01*
X0185916Y0092926D01*
X0185806Y0093040D01*
X0185699Y0093157D01*
X0185595Y0093276D01*
X0185494Y0093398D01*
X0185397Y0093523D01*
X0185302Y0093650D01*
X0185211Y0093779D01*
X0185122Y0093910D01*
X0185038Y0094044D01*
X0184956Y0094180D01*
X0184878Y0094317D01*
X0184804Y0094457D01*
X0184733Y0094599D01*
X0184665Y0094742D01*
X0184601Y0094887D01*
X0184541Y0095033D01*
X0184485Y0095181D01*
X0184432Y0095330D01*
X0184383Y0095481D01*
X0184338Y0095633D01*
X0184297Y0095786D01*
X0184259Y0095939D01*
X0184226Y0096094D01*
X0184196Y0096250D01*
X0184170Y0096406D01*
X0184149Y0096563D01*
X0184131Y0096720D01*
X0184117Y0096878D01*
X0184107Y0097036D01*
X0184101Y0097194D01*
X0184099Y0097352D01*
X0310162Y0056368D02*
X0310164Y0056526D01*
X0310170Y0056684D01*
X0310180Y0056842D01*
X0310194Y0057000D01*
X0310212Y0057157D01*
X0310233Y0057314D01*
X0310259Y0057470D01*
X0310289Y0057626D01*
X0310322Y0057781D01*
X0310360Y0057934D01*
X0310401Y0058087D01*
X0310446Y0058239D01*
X0310495Y0058390D01*
X0310548Y0058539D01*
X0310604Y0058687D01*
X0310664Y0058833D01*
X0310728Y0058978D01*
X0310796Y0059121D01*
X0310867Y0059263D01*
X0310941Y0059403D01*
X0311019Y0059540D01*
X0311101Y0059676D01*
X0311185Y0059810D01*
X0311274Y0059941D01*
X0311365Y0060070D01*
X0311460Y0060197D01*
X0311557Y0060322D01*
X0311658Y0060444D01*
X0311762Y0060563D01*
X0311869Y0060680D01*
X0311979Y0060794D01*
X0312092Y0060905D01*
X0312207Y0061014D01*
X0312325Y0061119D01*
X0312446Y0061221D01*
X0312569Y0061321D01*
X0312695Y0061417D01*
X0312823Y0061510D01*
X0312953Y0061600D01*
X0313086Y0061686D01*
X0313221Y0061770D01*
X0313357Y0061849D01*
X0313496Y0061926D01*
X0313637Y0061998D01*
X0313779Y0062068D01*
X0313923Y0062133D01*
X0314069Y0062195D01*
X0314216Y0062253D01*
X0314365Y0062308D01*
X0314515Y0062359D01*
X0314666Y0062406D01*
X0314818Y0062449D01*
X0314971Y0062488D01*
X0315126Y0062524D01*
X0315281Y0062555D01*
X0315437Y0062583D01*
X0315593Y0062607D01*
X0315750Y0062627D01*
X0315908Y0062643D01*
X0316065Y0062655D01*
X0316224Y0062663D01*
X0316382Y0062667D01*
X0316540Y0062667D01*
X0316698Y0062663D01*
X0316857Y0062655D01*
X0317014Y0062643D01*
X0317172Y0062627D01*
X0317329Y0062607D01*
X0317485Y0062583D01*
X0317641Y0062555D01*
X0317796Y0062524D01*
X0317951Y0062488D01*
X0318104Y0062449D01*
X0318256Y0062406D01*
X0318407Y0062359D01*
X0318557Y0062308D01*
X0318706Y0062253D01*
X0318853Y0062195D01*
X0318999Y0062133D01*
X0319143Y0062068D01*
X0319285Y0061998D01*
X0319426Y0061926D01*
X0319565Y0061849D01*
X0319701Y0061770D01*
X0319836Y0061686D01*
X0319969Y0061600D01*
X0320099Y0061510D01*
X0320227Y0061417D01*
X0320353Y0061321D01*
X0320476Y0061221D01*
X0320597Y0061119D01*
X0320715Y0061014D01*
X0320830Y0060905D01*
X0320943Y0060794D01*
X0321053Y0060680D01*
X0321160Y0060563D01*
X0321264Y0060444D01*
X0321365Y0060322D01*
X0321462Y0060197D01*
X0321557Y0060070D01*
X0321648Y0059941D01*
X0321737Y0059810D01*
X0321821Y0059676D01*
X0321903Y0059540D01*
X0321981Y0059403D01*
X0322055Y0059263D01*
X0322126Y0059121D01*
X0322194Y0058978D01*
X0322258Y0058833D01*
X0322318Y0058687D01*
X0322374Y0058539D01*
X0322427Y0058390D01*
X0322476Y0058239D01*
X0322521Y0058087D01*
X0322562Y0057934D01*
X0322600Y0057781D01*
X0322633Y0057626D01*
X0322663Y0057470D01*
X0322689Y0057314D01*
X0322710Y0057157D01*
X0322728Y0057000D01*
X0322742Y0056842D01*
X0322752Y0056684D01*
X0322758Y0056526D01*
X0322760Y0056368D01*
X0322758Y0056210D01*
X0322752Y0056052D01*
X0322742Y0055894D01*
X0322728Y0055736D01*
X0322710Y0055579D01*
X0322689Y0055422D01*
X0322663Y0055266D01*
X0322633Y0055110D01*
X0322600Y0054955D01*
X0322562Y0054802D01*
X0322521Y0054649D01*
X0322476Y0054497D01*
X0322427Y0054346D01*
X0322374Y0054197D01*
X0322318Y0054049D01*
X0322258Y0053903D01*
X0322194Y0053758D01*
X0322126Y0053615D01*
X0322055Y0053473D01*
X0321981Y0053333D01*
X0321903Y0053196D01*
X0321821Y0053060D01*
X0321737Y0052926D01*
X0321648Y0052795D01*
X0321557Y0052666D01*
X0321462Y0052539D01*
X0321365Y0052414D01*
X0321264Y0052292D01*
X0321160Y0052173D01*
X0321053Y0052056D01*
X0320943Y0051942D01*
X0320830Y0051831D01*
X0320715Y0051722D01*
X0320597Y0051617D01*
X0320476Y0051515D01*
X0320353Y0051415D01*
X0320227Y0051319D01*
X0320099Y0051226D01*
X0319969Y0051136D01*
X0319836Y0051050D01*
X0319701Y0050966D01*
X0319565Y0050887D01*
X0319426Y0050810D01*
X0319285Y0050738D01*
X0319143Y0050668D01*
X0318999Y0050603D01*
X0318853Y0050541D01*
X0318706Y0050483D01*
X0318557Y0050428D01*
X0318407Y0050377D01*
X0318256Y0050330D01*
X0318104Y0050287D01*
X0317951Y0050248D01*
X0317796Y0050212D01*
X0317641Y0050181D01*
X0317485Y0050153D01*
X0317329Y0050129D01*
X0317172Y0050109D01*
X0317014Y0050093D01*
X0316857Y0050081D01*
X0316698Y0050073D01*
X0316540Y0050069D01*
X0316382Y0050069D01*
X0316224Y0050073D01*
X0316065Y0050081D01*
X0315908Y0050093D01*
X0315750Y0050109D01*
X0315593Y0050129D01*
X0315437Y0050153D01*
X0315281Y0050181D01*
X0315126Y0050212D01*
X0314971Y0050248D01*
X0314818Y0050287D01*
X0314666Y0050330D01*
X0314515Y0050377D01*
X0314365Y0050428D01*
X0314216Y0050483D01*
X0314069Y0050541D01*
X0313923Y0050603D01*
X0313779Y0050668D01*
X0313637Y0050738D01*
X0313496Y0050810D01*
X0313357Y0050887D01*
X0313221Y0050966D01*
X0313086Y0051050D01*
X0312953Y0051136D01*
X0312823Y0051226D01*
X0312695Y0051319D01*
X0312569Y0051415D01*
X0312446Y0051515D01*
X0312325Y0051617D01*
X0312207Y0051722D01*
X0312092Y0051831D01*
X0311979Y0051942D01*
X0311869Y0052056D01*
X0311762Y0052173D01*
X0311658Y0052292D01*
X0311557Y0052414D01*
X0311460Y0052539D01*
X0311365Y0052666D01*
X0311274Y0052795D01*
X0311185Y0052926D01*
X0311101Y0053060D01*
X0311019Y0053196D01*
X0310941Y0053333D01*
X0310867Y0053473D01*
X0310796Y0053615D01*
X0310728Y0053758D01*
X0310664Y0053903D01*
X0310604Y0054049D01*
X0310548Y0054197D01*
X0310495Y0054346D01*
X0310446Y0054497D01*
X0310401Y0054649D01*
X0310360Y0054802D01*
X0310322Y0054955D01*
X0310289Y0055110D01*
X0310259Y0055266D01*
X0310233Y0055422D01*
X0310212Y0055579D01*
X0310194Y0055736D01*
X0310180Y0055894D01*
X0310170Y0056052D01*
X0310164Y0056210D01*
X0310162Y0056368D01*
X0343141Y0076032D02*
X0343143Y0076196D01*
X0343149Y0076360D01*
X0343159Y0076524D01*
X0343173Y0076688D01*
X0343191Y0076851D01*
X0343213Y0077014D01*
X0343240Y0077176D01*
X0343270Y0077338D01*
X0343304Y0077498D01*
X0343342Y0077658D01*
X0343383Y0077817D01*
X0343429Y0077975D01*
X0343479Y0078131D01*
X0343532Y0078287D01*
X0343589Y0078441D01*
X0343650Y0078593D01*
X0343715Y0078744D01*
X0343784Y0078894D01*
X0343856Y0079041D01*
X0343931Y0079187D01*
X0344011Y0079331D01*
X0344093Y0079473D01*
X0344179Y0079613D01*
X0344269Y0079750D01*
X0344362Y0079886D01*
X0344458Y0080019D01*
X0344558Y0080150D01*
X0344660Y0080278D01*
X0344766Y0080404D01*
X0344875Y0080527D01*
X0344987Y0080647D01*
X0345101Y0080765D01*
X0345219Y0080879D01*
X0345339Y0080991D01*
X0345462Y0081100D01*
X0345588Y0081206D01*
X0345716Y0081308D01*
X0345847Y0081408D01*
X0345980Y0081504D01*
X0346116Y0081597D01*
X0346253Y0081687D01*
X0346393Y0081773D01*
X0346535Y0081855D01*
X0346679Y0081935D01*
X0346825Y0082010D01*
X0346972Y0082082D01*
X0347122Y0082151D01*
X0347273Y0082216D01*
X0347425Y0082277D01*
X0347579Y0082334D01*
X0347735Y0082387D01*
X0347891Y0082437D01*
X0348049Y0082483D01*
X0348208Y0082524D01*
X0348368Y0082562D01*
X0348528Y0082596D01*
X0348690Y0082626D01*
X0348852Y0082653D01*
X0349015Y0082675D01*
X0349178Y0082693D01*
X0349342Y0082707D01*
X0349506Y0082717D01*
X0349670Y0082723D01*
X0349834Y0082725D01*
X0349998Y0082723D01*
X0350162Y0082717D01*
X0350326Y0082707D01*
X0350490Y0082693D01*
X0350653Y0082675D01*
X0350816Y0082653D01*
X0350978Y0082626D01*
X0351140Y0082596D01*
X0351300Y0082562D01*
X0351460Y0082524D01*
X0351619Y0082483D01*
X0351777Y0082437D01*
X0351933Y0082387D01*
X0352089Y0082334D01*
X0352243Y0082277D01*
X0352395Y0082216D01*
X0352546Y0082151D01*
X0352696Y0082082D01*
X0352843Y0082010D01*
X0352989Y0081935D01*
X0353133Y0081855D01*
X0353275Y0081773D01*
X0353415Y0081687D01*
X0353552Y0081597D01*
X0353688Y0081504D01*
X0353821Y0081408D01*
X0353952Y0081308D01*
X0354080Y0081206D01*
X0354206Y0081100D01*
X0354329Y0080991D01*
X0354449Y0080879D01*
X0354567Y0080765D01*
X0354681Y0080647D01*
X0354793Y0080527D01*
X0354902Y0080404D01*
X0355008Y0080278D01*
X0355110Y0080150D01*
X0355210Y0080019D01*
X0355306Y0079886D01*
X0355399Y0079750D01*
X0355489Y0079613D01*
X0355575Y0079473D01*
X0355657Y0079331D01*
X0355737Y0079187D01*
X0355812Y0079041D01*
X0355884Y0078894D01*
X0355953Y0078744D01*
X0356018Y0078593D01*
X0356079Y0078441D01*
X0356136Y0078287D01*
X0356189Y0078131D01*
X0356239Y0077975D01*
X0356285Y0077817D01*
X0356326Y0077658D01*
X0356364Y0077498D01*
X0356398Y0077338D01*
X0356428Y0077176D01*
X0356455Y0077014D01*
X0356477Y0076851D01*
X0356495Y0076688D01*
X0356509Y0076524D01*
X0356519Y0076360D01*
X0356525Y0076196D01*
X0356527Y0076032D01*
X0356525Y0075868D01*
X0356519Y0075704D01*
X0356509Y0075540D01*
X0356495Y0075376D01*
X0356477Y0075213D01*
X0356455Y0075050D01*
X0356428Y0074888D01*
X0356398Y0074726D01*
X0356364Y0074566D01*
X0356326Y0074406D01*
X0356285Y0074247D01*
X0356239Y0074089D01*
X0356189Y0073933D01*
X0356136Y0073777D01*
X0356079Y0073623D01*
X0356018Y0073471D01*
X0355953Y0073320D01*
X0355884Y0073170D01*
X0355812Y0073023D01*
X0355737Y0072877D01*
X0355657Y0072733D01*
X0355575Y0072591D01*
X0355489Y0072451D01*
X0355399Y0072314D01*
X0355306Y0072178D01*
X0355210Y0072045D01*
X0355110Y0071914D01*
X0355008Y0071786D01*
X0354902Y0071660D01*
X0354793Y0071537D01*
X0354681Y0071417D01*
X0354567Y0071299D01*
X0354449Y0071185D01*
X0354329Y0071073D01*
X0354206Y0070964D01*
X0354080Y0070858D01*
X0353952Y0070756D01*
X0353821Y0070656D01*
X0353688Y0070560D01*
X0353552Y0070467D01*
X0353415Y0070377D01*
X0353275Y0070291D01*
X0353133Y0070209D01*
X0352989Y0070129D01*
X0352843Y0070054D01*
X0352696Y0069982D01*
X0352546Y0069913D01*
X0352395Y0069848D01*
X0352243Y0069787D01*
X0352089Y0069730D01*
X0351933Y0069677D01*
X0351777Y0069627D01*
X0351619Y0069581D01*
X0351460Y0069540D01*
X0351300Y0069502D01*
X0351140Y0069468D01*
X0350978Y0069438D01*
X0350816Y0069411D01*
X0350653Y0069389D01*
X0350490Y0069371D01*
X0350326Y0069357D01*
X0350162Y0069347D01*
X0349998Y0069341D01*
X0349834Y0069339D01*
X0349670Y0069341D01*
X0349506Y0069347D01*
X0349342Y0069357D01*
X0349178Y0069371D01*
X0349015Y0069389D01*
X0348852Y0069411D01*
X0348690Y0069438D01*
X0348528Y0069468D01*
X0348368Y0069502D01*
X0348208Y0069540D01*
X0348049Y0069581D01*
X0347891Y0069627D01*
X0347735Y0069677D01*
X0347579Y0069730D01*
X0347425Y0069787D01*
X0347273Y0069848D01*
X0347122Y0069913D01*
X0346972Y0069982D01*
X0346825Y0070054D01*
X0346679Y0070129D01*
X0346535Y0070209D01*
X0346393Y0070291D01*
X0346253Y0070377D01*
X0346116Y0070467D01*
X0345980Y0070560D01*
X0345847Y0070656D01*
X0345716Y0070756D01*
X0345588Y0070858D01*
X0345462Y0070964D01*
X0345339Y0071073D01*
X0345219Y0071185D01*
X0345101Y0071299D01*
X0344987Y0071417D01*
X0344875Y0071537D01*
X0344766Y0071660D01*
X0344660Y0071786D01*
X0344558Y0071914D01*
X0344458Y0072045D01*
X0344362Y0072178D01*
X0344269Y0072314D01*
X0344179Y0072451D01*
X0344093Y0072591D01*
X0344011Y0072733D01*
X0343931Y0072877D01*
X0343856Y0073023D01*
X0343784Y0073170D01*
X0343715Y0073320D01*
X0343650Y0073471D01*
X0343589Y0073623D01*
X0343532Y0073777D01*
X0343479Y0073933D01*
X0343429Y0074089D01*
X0343383Y0074247D01*
X0343342Y0074406D01*
X0343304Y0074566D01*
X0343270Y0074726D01*
X0343240Y0074888D01*
X0343213Y0075050D01*
X0343191Y0075213D01*
X0343173Y0075376D01*
X0343159Y0075540D01*
X0343149Y0075704D01*
X0343143Y0075868D01*
X0343141Y0076032D01*
M02*
