G75*
%MOIN*%
%OFA0B0*%
%FSLAX25Y25*%
%IPPOS*%
%LPD*%
%AMOC8*
5,1,8,0,0,1.08239X$1,22.5*
%
%ADD10C,0.00400*%
%ADD11C,0.00300*%
%ADD12C,0.00591*%
%ADD13C,0.00200*%
D10*
X0223966Y0250500D02*
X0224833Y0250500D01*
X0223966Y0250500D02*
X0223098Y0251367D01*
X0223098Y0255704D01*
X0221411Y0254837D02*
X0220544Y0253969D01*
X0218809Y0253969D01*
X0217942Y0253102D01*
X0218809Y0252234D01*
X0221411Y0252234D01*
X0223098Y0252234D02*
X0225700Y0252234D01*
X0226568Y0253102D01*
X0226568Y0255704D01*
X0228255Y0256571D02*
X0229122Y0257439D01*
X0230857Y0257439D01*
X0231724Y0256571D01*
X0231724Y0255704D01*
X0230857Y0254837D01*
X0229122Y0254837D01*
X0228255Y0253969D01*
X0228255Y0253102D01*
X0229122Y0252234D01*
X0230857Y0252234D01*
X0231724Y0253102D01*
X0238567Y0253969D02*
X0242037Y0253969D01*
X0242037Y0253102D02*
X0242037Y0254837D01*
X0241170Y0255704D01*
X0239435Y0255704D01*
X0238567Y0254837D01*
X0238567Y0253969D01*
X0239435Y0252234D02*
X0241170Y0252234D01*
X0242037Y0253102D01*
X0243724Y0252234D02*
X0246326Y0252234D01*
X0247193Y0253102D01*
X0247193Y0254837D01*
X0246326Y0255704D01*
X0243724Y0255704D01*
X0248880Y0254837D02*
X0248880Y0252234D01*
X0251482Y0252234D01*
X0252350Y0253102D01*
X0251482Y0253969D01*
X0248880Y0253969D01*
X0248880Y0254837D02*
X0249748Y0255704D01*
X0251482Y0255704D01*
X0254037Y0254837D02*
X0254037Y0253102D01*
X0254904Y0252234D01*
X0257506Y0252234D01*
X0257506Y0250500D02*
X0257506Y0255704D01*
X0254904Y0255704D01*
X0254037Y0254837D01*
X0259193Y0253969D02*
X0259193Y0253102D01*
X0260060Y0252234D01*
X0261795Y0252234D01*
X0262663Y0253102D01*
X0261795Y0254837D02*
X0260060Y0254837D01*
X0259193Y0253969D01*
X0259193Y0256571D02*
X0260060Y0257439D01*
X0261795Y0257439D01*
X0262663Y0256571D01*
X0262663Y0255704D01*
X0261795Y0254837D01*
X0269506Y0255704D02*
X0269506Y0251367D01*
X0270373Y0250500D01*
X0271241Y0250500D01*
X0272108Y0252234D02*
X0269506Y0252234D01*
X0272108Y0252234D02*
X0272975Y0253102D01*
X0272975Y0255704D01*
X0275546Y0257439D02*
X0275546Y0252234D01*
X0276413Y0252234D02*
X0274678Y0252234D01*
X0278100Y0253102D02*
X0278100Y0254837D01*
X0278967Y0255704D01*
X0280702Y0255704D01*
X0281569Y0254837D01*
X0281569Y0253102D01*
X0280702Y0252234D01*
X0278967Y0252234D01*
X0278100Y0253102D01*
X0283256Y0254837D02*
X0284124Y0253969D01*
X0286726Y0253969D01*
X0286726Y0252234D02*
X0286726Y0257439D01*
X0284124Y0257439D01*
X0283256Y0256571D01*
X0283256Y0254837D01*
X0276413Y0257439D02*
X0275546Y0257439D01*
X0293585Y0252234D02*
X0295320Y0252234D01*
X0294452Y0252234D02*
X0294452Y0257439D01*
X0295320Y0257439D01*
X0297874Y0255704D02*
X0297007Y0254837D01*
X0297007Y0252234D01*
X0299609Y0252234D01*
X0300476Y0253102D01*
X0299609Y0253969D01*
X0297007Y0253969D01*
X0297874Y0255704D02*
X0299609Y0255704D01*
X0302163Y0256571D02*
X0303030Y0257439D01*
X0304765Y0257439D01*
X0305633Y0256571D01*
X0305633Y0253102D01*
X0304765Y0252234D01*
X0303030Y0252234D01*
X0302163Y0253102D01*
X0221411Y0254837D02*
X0220544Y0255704D01*
X0217942Y0255704D01*
X0216255Y0255704D02*
X0214520Y0255704D01*
X0215388Y0256571D02*
X0215388Y0253102D01*
X0214520Y0252234D01*
X0212817Y0253102D02*
X0212817Y0254837D01*
X0211950Y0255704D01*
X0210215Y0255704D01*
X0209348Y0254837D01*
X0209348Y0253969D01*
X0212817Y0253969D01*
X0212817Y0253102D02*
X0211950Y0252234D01*
X0210215Y0252234D01*
X0207661Y0252234D02*
X0207661Y0255704D01*
X0206794Y0255704D01*
X0205926Y0254837D01*
X0205059Y0255704D01*
X0204191Y0254837D01*
X0204191Y0252234D01*
X0202505Y0252234D02*
X0199902Y0252234D01*
X0199035Y0253102D01*
X0199902Y0253969D01*
X0201637Y0253969D01*
X0202505Y0254837D01*
X0201637Y0255704D01*
X0199035Y0255704D01*
X0205926Y0254837D02*
X0205926Y0252234D01*
D11*
X0209374Y0260911D02*
X0227287Y0260911D01*
X0226500Y0265439D01*
X0214295Y0265439D01*
X0212130Y0265833D01*
X0211539Y0266226D01*
X0210949Y0266817D01*
X0210555Y0268392D01*
X0210752Y0269179D01*
X0211146Y0269573D01*
X0212130Y0269967D01*
X0220004Y0270557D01*
X0221382Y0270951D01*
X0223154Y0272132D01*
X0223941Y0273116D01*
X0224335Y0274691D01*
X0224335Y0276856D01*
X0224138Y0278628D01*
X0223547Y0280006D01*
X0222957Y0280990D01*
X0221972Y0282368D01*
X0220594Y0283549D01*
X0218429Y0284533D01*
X0216854Y0284730D01*
X0200713Y0284730D01*
X0200713Y0284533D01*
X0201500Y0280006D01*
X0214886Y0280006D01*
X0215673Y0279809D01*
X0216461Y0279415D01*
X0216854Y0278825D01*
X0217248Y0278037D01*
X0217248Y0276463D01*
X0216854Y0275872D01*
X0215673Y0275478D01*
X0209768Y0275085D01*
X0207799Y0274888D01*
X0206618Y0274494D01*
X0205240Y0273707D01*
X0204650Y0273116D01*
X0204059Y0272329D01*
X0203665Y0271344D01*
X0203469Y0269770D01*
X0203665Y0267801D01*
X0204059Y0266030D01*
X0204650Y0265045D01*
X0205634Y0263470D01*
X0206618Y0262486D01*
X0207799Y0261699D01*
X0209374Y0260911D01*
X0209143Y0261027D02*
X0227267Y0261027D01*
X0227215Y0261325D02*
X0208546Y0261325D01*
X0207949Y0261624D02*
X0227163Y0261624D01*
X0227112Y0261922D02*
X0207464Y0261922D01*
X0207016Y0262221D02*
X0227060Y0262221D01*
X0227008Y0262520D02*
X0206585Y0262520D01*
X0206286Y0262818D02*
X0226956Y0262818D01*
X0226904Y0263117D02*
X0205988Y0263117D01*
X0205689Y0263415D02*
X0226852Y0263415D01*
X0226800Y0263714D02*
X0205482Y0263714D01*
X0205295Y0264012D02*
X0226748Y0264012D01*
X0226696Y0264311D02*
X0205109Y0264311D01*
X0204922Y0264609D02*
X0226644Y0264609D01*
X0226592Y0264908D02*
X0204736Y0264908D01*
X0204553Y0265206D02*
X0226541Y0265206D01*
X0228862Y0266030D02*
X0229453Y0265045D01*
X0230437Y0263470D01*
X0231421Y0262486D01*
X0232602Y0261699D01*
X0234177Y0260911D01*
X0252091Y0260911D01*
X0251303Y0265439D01*
X0239098Y0265439D01*
X0236933Y0265833D01*
X0236343Y0266226D01*
X0235752Y0266817D01*
X0235358Y0268392D01*
X0235555Y0269179D01*
X0235949Y0269573D01*
X0236933Y0269967D01*
X0244807Y0270557D01*
X0246185Y0270951D01*
X0247957Y0272132D01*
X0248744Y0273116D01*
X0249138Y0274691D01*
X0249138Y0276856D01*
X0248941Y0278628D01*
X0248350Y0280006D01*
X0247760Y0280990D01*
X0246776Y0282368D01*
X0245398Y0283549D01*
X0243232Y0284533D01*
X0241657Y0284730D01*
X0225516Y0284730D01*
X0225516Y0284533D01*
X0226303Y0280006D01*
X0239689Y0280006D01*
X0240476Y0279809D01*
X0241264Y0279415D01*
X0241657Y0278825D01*
X0242051Y0278037D01*
X0242051Y0276463D01*
X0241657Y0275872D01*
X0240476Y0275478D01*
X0234571Y0275085D01*
X0232602Y0274888D01*
X0231421Y0274494D01*
X0230043Y0273707D01*
X0229453Y0273116D01*
X0228862Y0272329D01*
X0228469Y0271344D01*
X0228272Y0269770D01*
X0228469Y0267801D01*
X0228862Y0266030D01*
X0228846Y0266102D02*
X0236530Y0266102D01*
X0236169Y0266400D02*
X0228780Y0266400D01*
X0228713Y0266699D02*
X0235870Y0266699D01*
X0235707Y0266997D02*
X0228647Y0266997D01*
X0228581Y0267296D02*
X0235632Y0267296D01*
X0235558Y0267594D02*
X0228514Y0267594D01*
X0228459Y0267893D02*
X0235483Y0267893D01*
X0235408Y0268191D02*
X0228429Y0268191D01*
X0228400Y0268490D02*
X0235383Y0268490D01*
X0235457Y0268788D02*
X0228370Y0268788D01*
X0228340Y0269087D02*
X0235532Y0269087D01*
X0235761Y0269385D02*
X0228310Y0269385D01*
X0228280Y0269684D02*
X0236226Y0269684D01*
X0237143Y0269982D02*
X0228298Y0269982D01*
X0228336Y0270281D02*
X0241123Y0270281D01*
X0244885Y0270579D02*
X0228373Y0270579D01*
X0228410Y0270878D02*
X0245930Y0270878D01*
X0246523Y0271176D02*
X0228447Y0271176D01*
X0228521Y0271475D02*
X0246971Y0271475D01*
X0247419Y0271773D02*
X0228640Y0271773D01*
X0228759Y0272072D02*
X0247867Y0272072D01*
X0248147Y0272370D02*
X0228893Y0272370D01*
X0229117Y0272669D02*
X0248386Y0272669D01*
X0248625Y0272967D02*
X0229341Y0272967D01*
X0229603Y0273266D02*
X0248782Y0273266D01*
X0248856Y0273564D02*
X0229901Y0273564D01*
X0230317Y0273863D02*
X0248931Y0273863D01*
X0249005Y0274161D02*
X0230839Y0274161D01*
X0231362Y0274460D02*
X0249080Y0274460D01*
X0249138Y0274758D02*
X0232214Y0274758D01*
X0234294Y0275057D02*
X0249138Y0275057D01*
X0249138Y0275355D02*
X0238634Y0275355D01*
X0238067Y0276848D02*
X0241195Y0276848D01*
X0241264Y0277053D02*
X0241067Y0276463D01*
X0240870Y0276463D01*
X0225122Y0278628D01*
X0224925Y0278628D01*
X0224728Y0279219D01*
X0224531Y0279809D01*
X0224335Y0280203D01*
X0224138Y0280400D01*
X0225319Y0280400D01*
X0225516Y0279415D01*
X0225909Y0279022D01*
X0240476Y0278825D01*
X0240673Y0278628D01*
X0241067Y0278037D01*
X0241264Y0277053D01*
X0241245Y0277147D02*
X0235896Y0277147D01*
X0233725Y0277445D02*
X0241185Y0277445D01*
X0241126Y0277744D02*
X0231554Y0277744D01*
X0232127Y0278938D02*
X0224822Y0278938D01*
X0224722Y0279236D02*
X0225695Y0279236D01*
X0225492Y0279535D02*
X0224623Y0279535D01*
X0224519Y0279833D02*
X0225432Y0279833D01*
X0225372Y0280132D02*
X0224370Y0280132D01*
X0223621Y0279833D02*
X0215577Y0279833D01*
X0216222Y0279535D02*
X0223749Y0279535D01*
X0223877Y0279236D02*
X0216580Y0279236D01*
X0216779Y0278938D02*
X0224005Y0278938D01*
X0224133Y0278639D02*
X0216947Y0278639D01*
X0217096Y0278341D02*
X0224170Y0278341D01*
X0224203Y0278042D02*
X0217246Y0278042D01*
X0217248Y0277744D02*
X0224236Y0277744D01*
X0224269Y0277445D02*
X0217248Y0277445D01*
X0217248Y0277147D02*
X0224302Y0277147D01*
X0224335Y0276848D02*
X0217248Y0276848D01*
X0217248Y0276550D02*
X0224335Y0276550D01*
X0224335Y0276251D02*
X0217107Y0276251D01*
X0216908Y0275953D02*
X0224335Y0275953D01*
X0224335Y0275654D02*
X0216200Y0275654D01*
X0213831Y0275355D02*
X0224335Y0275355D01*
X0224335Y0275057D02*
X0209491Y0275057D01*
X0207411Y0274758D02*
X0224335Y0274758D01*
X0224277Y0274460D02*
X0206558Y0274460D01*
X0206036Y0274161D02*
X0224202Y0274161D01*
X0224128Y0273863D02*
X0205514Y0273863D01*
X0205098Y0273564D02*
X0224053Y0273564D01*
X0223978Y0273266D02*
X0204799Y0273266D01*
X0204538Y0272967D02*
X0223822Y0272967D01*
X0223583Y0272669D02*
X0204314Y0272669D01*
X0204090Y0272370D02*
X0223344Y0272370D01*
X0223064Y0272072D02*
X0203956Y0272072D01*
X0203837Y0271773D02*
X0222616Y0271773D01*
X0222168Y0271475D02*
X0203718Y0271475D01*
X0203644Y0271176D02*
X0221720Y0271176D01*
X0221127Y0270878D02*
X0203607Y0270878D01*
X0203570Y0270579D02*
X0220082Y0270579D01*
X0216320Y0270281D02*
X0203532Y0270281D01*
X0203495Y0269982D02*
X0212340Y0269982D01*
X0211423Y0269684D02*
X0203477Y0269684D01*
X0203507Y0269385D02*
X0210958Y0269385D01*
X0210729Y0269087D02*
X0203537Y0269087D01*
X0203567Y0268788D02*
X0210654Y0268788D01*
X0210580Y0268490D02*
X0203596Y0268490D01*
X0203626Y0268191D02*
X0210605Y0268191D01*
X0210680Y0267893D02*
X0203656Y0267893D01*
X0203711Y0267594D02*
X0210755Y0267594D01*
X0210829Y0267296D02*
X0203778Y0267296D01*
X0203844Y0266997D02*
X0210904Y0266997D01*
X0211067Y0266699D02*
X0203910Y0266699D01*
X0203977Y0266400D02*
X0211366Y0266400D01*
X0211726Y0266102D02*
X0204043Y0266102D01*
X0204195Y0265803D02*
X0212292Y0265803D01*
X0213934Y0265505D02*
X0204374Y0265505D01*
X0201478Y0280132D02*
X0223472Y0280132D01*
X0223293Y0280430D02*
X0201426Y0280430D01*
X0201374Y0280729D02*
X0223114Y0280729D01*
X0222930Y0281027D02*
X0201322Y0281027D01*
X0201270Y0281326D02*
X0222717Y0281326D01*
X0222504Y0281624D02*
X0201219Y0281624D01*
X0201167Y0281923D02*
X0222291Y0281923D01*
X0222077Y0282221D02*
X0201115Y0282221D01*
X0201063Y0282520D02*
X0221796Y0282520D01*
X0221447Y0282818D02*
X0201011Y0282818D01*
X0200959Y0283117D02*
X0221099Y0283117D01*
X0220751Y0283415D02*
X0200907Y0283415D01*
X0200855Y0283714D02*
X0220232Y0283714D01*
X0219576Y0284012D02*
X0200803Y0284012D01*
X0200751Y0284311D02*
X0218919Y0284311D01*
X0217822Y0284609D02*
X0200713Y0284609D01*
X0200122Y0282368D02*
X0200319Y0281778D01*
X0200122Y0281581D01*
X0196972Y0281778D01*
X0196972Y0281187D01*
X0196776Y0280990D01*
X0196382Y0280793D01*
X0195594Y0280990D01*
X0194610Y0281581D01*
X0194217Y0281778D01*
X0194020Y0281581D01*
X0194020Y0280990D01*
X0194217Y0280203D01*
X0194020Y0280203D01*
X0191264Y0281384D01*
X0179846Y0282368D01*
X0176697Y0283943D01*
X0176697Y0284140D01*
X0176894Y0284337D01*
X0180240Y0285124D01*
X0191264Y0284337D01*
X0194610Y0285124D01*
X0194807Y0285124D01*
X0194413Y0284337D01*
X0194413Y0283549D01*
X0194610Y0283352D01*
X0195791Y0283746D01*
X0196776Y0283746D01*
X0196972Y0283549D01*
X0196972Y0282762D01*
X0199531Y0282565D01*
X0200122Y0282368D01*
X0200171Y0282221D02*
X0181550Y0282221D01*
X0179543Y0282520D02*
X0199667Y0282520D01*
X0200270Y0281923D02*
X0185013Y0281923D01*
X0183266Y0284908D02*
X0179321Y0284908D01*
X0178053Y0284609D02*
X0187445Y0284609D01*
X0188475Y0281624D02*
X0194063Y0281624D01*
X0194020Y0281326D02*
X0191399Y0281326D01*
X0192096Y0281027D02*
X0194020Y0281027D01*
X0194085Y0280729D02*
X0192792Y0280729D01*
X0193489Y0280430D02*
X0194160Y0280430D01*
X0194523Y0281624D02*
X0196972Y0281624D01*
X0196972Y0281326D02*
X0195035Y0281326D01*
X0195533Y0281027D02*
X0196813Y0281027D01*
X0196972Y0282818D02*
X0178946Y0282818D01*
X0178349Y0283117D02*
X0196972Y0283117D01*
X0196972Y0283415D02*
X0194799Y0283415D01*
X0194547Y0283415D02*
X0177752Y0283415D01*
X0177155Y0283714D02*
X0194413Y0283714D01*
X0194413Y0284012D02*
X0176697Y0284012D01*
X0176868Y0284311D02*
X0194413Y0284311D01*
X0194550Y0284609D02*
X0192423Y0284609D01*
X0193692Y0284908D02*
X0194699Y0284908D01*
X0195695Y0283714D02*
X0196808Y0283714D01*
X0199426Y0281624D02*
X0200166Y0281624D01*
X0224921Y0278639D02*
X0240662Y0278639D01*
X0240865Y0278341D02*
X0227212Y0278341D01*
X0226281Y0280132D02*
X0248275Y0280132D01*
X0248424Y0279833D02*
X0240380Y0279833D01*
X0241025Y0279535D02*
X0248552Y0279535D01*
X0248680Y0279236D02*
X0241383Y0279236D01*
X0241582Y0278938D02*
X0248808Y0278938D01*
X0248936Y0278639D02*
X0241750Y0278639D01*
X0241900Y0278341D02*
X0248973Y0278341D01*
X0249006Y0278042D02*
X0242049Y0278042D01*
X0242051Y0277744D02*
X0249039Y0277744D01*
X0249072Y0277445D02*
X0242051Y0277445D01*
X0242051Y0277147D02*
X0249106Y0277147D01*
X0249138Y0276848D02*
X0242051Y0276848D01*
X0242051Y0276550D02*
X0249138Y0276550D01*
X0249138Y0276251D02*
X0241910Y0276251D01*
X0241711Y0275953D02*
X0249138Y0275953D01*
X0249138Y0275654D02*
X0241003Y0275654D01*
X0241096Y0276550D02*
X0240238Y0276550D01*
X0241064Y0278042D02*
X0229383Y0278042D01*
X0226229Y0280430D02*
X0248096Y0280430D01*
X0247917Y0280729D02*
X0226177Y0280729D01*
X0226126Y0281027D02*
X0247733Y0281027D01*
X0247520Y0281326D02*
X0226074Y0281326D01*
X0226022Y0281624D02*
X0247307Y0281624D01*
X0247094Y0281923D02*
X0225970Y0281923D01*
X0225918Y0282221D02*
X0246880Y0282221D01*
X0246599Y0282520D02*
X0225866Y0282520D01*
X0225814Y0282818D02*
X0246250Y0282818D01*
X0245902Y0283117D02*
X0225762Y0283117D01*
X0225710Y0283415D02*
X0245554Y0283415D01*
X0245036Y0283714D02*
X0225658Y0283714D01*
X0225606Y0284012D02*
X0244379Y0284012D01*
X0243722Y0284311D02*
X0225554Y0284311D01*
X0225516Y0284609D02*
X0242625Y0284609D01*
X0251155Y0281923D02*
X0272077Y0281923D01*
X0272312Y0282221D02*
X0251254Y0282221D01*
X0251303Y0282368D02*
X0251894Y0283156D01*
X0252878Y0283943D01*
X0254059Y0284533D01*
X0255634Y0284730D01*
X0273941Y0284730D01*
X0274138Y0284533D01*
X0271185Y0280793D01*
X0271185Y0280006D01*
X0274531Y0261108D01*
X0274531Y0260911D01*
X0267248Y0260911D01*
X0265083Y0272722D01*
X0264689Y0272919D01*
X0264295Y0274297D01*
X0262917Y0274297D01*
X0261933Y0274494D01*
X0260752Y0274888D01*
X0259571Y0275478D01*
X0258980Y0275872D01*
X0258587Y0276463D01*
X0258193Y0277644D01*
X0257996Y0278431D01*
X0258390Y0279219D01*
X0258980Y0279612D01*
X0260161Y0280006D01*
X0263705Y0280006D01*
X0263902Y0279809D01*
X0264689Y0274494D01*
X0264492Y0274297D01*
X0264492Y0272919D01*
X0262327Y0269376D01*
X0259768Y0269376D01*
X0257799Y0269770D01*
X0256028Y0270557D01*
X0255240Y0270951D01*
X0253862Y0272132D01*
X0252681Y0273510D01*
X0251697Y0275478D01*
X0251106Y0277250D01*
X0250713Y0279612D01*
X0250909Y0281187D01*
X0251303Y0282368D01*
X0251417Y0282520D02*
X0272548Y0282520D01*
X0272784Y0282818D02*
X0251641Y0282818D01*
X0251865Y0283117D02*
X0273019Y0283117D01*
X0273255Y0283415D02*
X0252218Y0283415D01*
X0252592Y0283714D02*
X0273491Y0283714D01*
X0273726Y0284012D02*
X0253017Y0284012D01*
X0253614Y0284311D02*
X0273962Y0284311D01*
X0274062Y0284609D02*
X0254666Y0284609D01*
X0251055Y0281624D02*
X0271841Y0281624D01*
X0271605Y0281326D02*
X0250956Y0281326D01*
X0250889Y0281027D02*
X0271370Y0281027D01*
X0271185Y0280729D02*
X0250852Y0280729D01*
X0250815Y0280430D02*
X0271185Y0280430D01*
X0271185Y0280132D02*
X0250778Y0280132D01*
X0250740Y0279833D02*
X0259643Y0279833D01*
X0258864Y0279535D02*
X0250726Y0279535D01*
X0250775Y0279236D02*
X0258416Y0279236D01*
X0258249Y0278938D02*
X0250825Y0278938D01*
X0250875Y0278639D02*
X0258100Y0278639D01*
X0258019Y0278341D02*
X0250925Y0278341D01*
X0250974Y0278042D02*
X0258093Y0278042D01*
X0258168Y0277744D02*
X0251024Y0277744D01*
X0251074Y0277445D02*
X0258259Y0277445D01*
X0258359Y0277147D02*
X0251141Y0277147D01*
X0251240Y0276848D02*
X0258458Y0276848D01*
X0258558Y0276550D02*
X0251340Y0276550D01*
X0251439Y0276251D02*
X0258728Y0276251D01*
X0258927Y0275953D02*
X0251539Y0275953D01*
X0251638Y0275654D02*
X0259307Y0275654D01*
X0259817Y0275355D02*
X0251758Y0275355D01*
X0251908Y0275057D02*
X0260414Y0275057D01*
X0261140Y0274758D02*
X0252057Y0274758D01*
X0252206Y0274460D02*
X0262104Y0274460D01*
X0262350Y0275355D02*
X0263501Y0275355D01*
X0263508Y0275281D02*
X0262720Y0275281D01*
X0261736Y0275478D01*
X0261146Y0275675D01*
X0260161Y0276069D01*
X0259571Y0276659D01*
X0259177Y0277250D01*
X0259177Y0277841D01*
X0263311Y0277447D01*
X0263508Y0275281D01*
X0263474Y0275654D02*
X0261209Y0275654D01*
X0260452Y0275953D02*
X0263447Y0275953D01*
X0263420Y0276251D02*
X0259979Y0276251D01*
X0259681Y0276550D02*
X0263393Y0276550D01*
X0263365Y0276848D02*
X0259445Y0276848D01*
X0259246Y0277147D02*
X0263338Y0277147D01*
X0263311Y0277445D02*
X0259177Y0277445D01*
X0259177Y0277744D02*
X0260195Y0277744D01*
X0264119Y0278341D02*
X0271480Y0278341D01*
X0271427Y0278639D02*
X0264075Y0278639D01*
X0264031Y0278938D02*
X0271374Y0278938D01*
X0271321Y0279236D02*
X0263986Y0279236D01*
X0263942Y0279535D02*
X0271268Y0279535D01*
X0271216Y0279833D02*
X0263877Y0279833D01*
X0264163Y0278042D02*
X0271533Y0278042D01*
X0271586Y0277744D02*
X0264208Y0277744D01*
X0264252Y0277445D02*
X0271639Y0277445D01*
X0271691Y0277147D02*
X0264296Y0277147D01*
X0264340Y0276848D02*
X0271744Y0276848D01*
X0271797Y0276550D02*
X0264384Y0276550D01*
X0264429Y0276251D02*
X0271850Y0276251D01*
X0271903Y0275953D02*
X0264473Y0275953D01*
X0264517Y0275654D02*
X0271956Y0275654D01*
X0272009Y0275355D02*
X0264561Y0275355D01*
X0264606Y0275057D02*
X0272061Y0275057D01*
X0272114Y0274758D02*
X0264650Y0274758D01*
X0264655Y0274460D02*
X0272167Y0274460D01*
X0272220Y0274161D02*
X0264492Y0274161D01*
X0264334Y0274161D02*
X0252355Y0274161D01*
X0252505Y0273863D02*
X0264419Y0273863D01*
X0264492Y0273863D02*
X0272273Y0273863D01*
X0272326Y0273564D02*
X0264505Y0273564D01*
X0264492Y0273564D02*
X0252654Y0273564D01*
X0252890Y0273266D02*
X0264492Y0273266D01*
X0264590Y0273266D02*
X0272379Y0273266D01*
X0272431Y0272967D02*
X0264675Y0272967D01*
X0264492Y0272967D02*
X0253146Y0272967D01*
X0253402Y0272669D02*
X0264339Y0272669D01*
X0264157Y0272370D02*
X0253658Y0272370D01*
X0253932Y0272072D02*
X0263974Y0272072D01*
X0263792Y0271773D02*
X0254280Y0271773D01*
X0254629Y0271475D02*
X0263609Y0271475D01*
X0263427Y0271176D02*
X0254977Y0271176D01*
X0255386Y0270878D02*
X0263245Y0270878D01*
X0263062Y0270579D02*
X0255983Y0270579D01*
X0256649Y0270281D02*
X0262880Y0270281D01*
X0262697Y0269982D02*
X0257321Y0269982D01*
X0258229Y0269684D02*
X0262515Y0269684D01*
X0262332Y0269385D02*
X0259721Y0269385D01*
X0265476Y0270579D02*
X0272854Y0270579D01*
X0272907Y0270281D02*
X0265530Y0270281D01*
X0265585Y0269982D02*
X0272960Y0269982D01*
X0273013Y0269684D02*
X0265640Y0269684D01*
X0265695Y0269385D02*
X0273066Y0269385D01*
X0273119Y0269087D02*
X0265749Y0269087D01*
X0265804Y0268788D02*
X0273171Y0268788D01*
X0273224Y0268490D02*
X0265859Y0268490D01*
X0265913Y0268191D02*
X0273277Y0268191D01*
X0273330Y0267893D02*
X0265968Y0267893D01*
X0266023Y0267594D02*
X0273383Y0267594D01*
X0273436Y0267296D02*
X0266078Y0267296D01*
X0266132Y0266997D02*
X0273489Y0266997D01*
X0273542Y0266699D02*
X0266187Y0266699D01*
X0266242Y0266400D02*
X0273594Y0266400D01*
X0273647Y0266102D02*
X0266296Y0266102D01*
X0266351Y0265803D02*
X0273700Y0265803D01*
X0273753Y0265505D02*
X0266406Y0265505D01*
X0266461Y0265206D02*
X0273806Y0265206D01*
X0273859Y0264908D02*
X0266515Y0264908D01*
X0266570Y0264609D02*
X0273912Y0264609D01*
X0273964Y0264311D02*
X0266625Y0264311D01*
X0266680Y0264012D02*
X0274017Y0264012D01*
X0274070Y0263714D02*
X0266734Y0263714D01*
X0266789Y0263415D02*
X0274123Y0263415D01*
X0274176Y0263117D02*
X0266844Y0263117D01*
X0266898Y0262818D02*
X0274229Y0262818D01*
X0274282Y0262520D02*
X0266953Y0262520D01*
X0267008Y0262221D02*
X0274334Y0262221D01*
X0274387Y0261922D02*
X0267063Y0261922D01*
X0267117Y0261624D02*
X0274440Y0261624D01*
X0274493Y0261325D02*
X0267172Y0261325D01*
X0267227Y0261027D02*
X0274531Y0261027D01*
X0279059Y0264848D02*
X0278862Y0265439D01*
X0292839Y0265439D01*
X0294217Y0267211D01*
X0292445Y0277841D01*
X0290280Y0280006D01*
X0276500Y0280006D01*
X0276303Y0280596D01*
X0279650Y0284730D01*
X0294807Y0284730D01*
X0299138Y0280596D01*
X0301894Y0265045D01*
X0298154Y0260911D01*
X0283783Y0260911D01*
X0279059Y0264848D01*
X0279039Y0264908D02*
X0301769Y0264908D01*
X0301865Y0265206D02*
X0278940Y0265206D01*
X0279346Y0264609D02*
X0301499Y0264609D01*
X0301229Y0264311D02*
X0279704Y0264311D01*
X0280063Y0264012D02*
X0300959Y0264012D01*
X0300689Y0263714D02*
X0280421Y0263714D01*
X0280779Y0263415D02*
X0300419Y0263415D01*
X0300149Y0263117D02*
X0281137Y0263117D01*
X0281496Y0262818D02*
X0299879Y0262818D01*
X0299608Y0262520D02*
X0281854Y0262520D01*
X0282212Y0262221D02*
X0299338Y0262221D01*
X0299068Y0261922D02*
X0282570Y0261922D01*
X0282928Y0261624D02*
X0298798Y0261624D01*
X0298528Y0261325D02*
X0283287Y0261325D01*
X0283645Y0261027D02*
X0298258Y0261027D01*
X0301812Y0265505D02*
X0292890Y0265505D01*
X0293122Y0265803D02*
X0301759Y0265803D01*
X0301706Y0266102D02*
X0293354Y0266102D01*
X0293586Y0266400D02*
X0301654Y0266400D01*
X0301601Y0266699D02*
X0293818Y0266699D01*
X0294051Y0266997D02*
X0301548Y0266997D01*
X0301495Y0267296D02*
X0294202Y0267296D01*
X0294153Y0267594D02*
X0301442Y0267594D01*
X0301389Y0267893D02*
X0294103Y0267893D01*
X0294053Y0268191D02*
X0301336Y0268191D01*
X0301283Y0268490D02*
X0294003Y0268490D01*
X0293954Y0268788D02*
X0301230Y0268788D01*
X0301177Y0269087D02*
X0293904Y0269087D01*
X0293854Y0269385D02*
X0301125Y0269385D01*
X0301072Y0269684D02*
X0293804Y0269684D01*
X0293755Y0269982D02*
X0301019Y0269982D01*
X0300966Y0270281D02*
X0293705Y0270281D01*
X0293655Y0270579D02*
X0300913Y0270579D01*
X0300860Y0270878D02*
X0293605Y0270878D01*
X0293556Y0271176D02*
X0300807Y0271176D01*
X0300754Y0271475D02*
X0293506Y0271475D01*
X0293456Y0271773D02*
X0300701Y0271773D01*
X0300648Y0272072D02*
X0293406Y0272072D01*
X0293357Y0272370D02*
X0300596Y0272370D01*
X0300543Y0272669D02*
X0293307Y0272669D01*
X0293257Y0272967D02*
X0300490Y0272967D01*
X0300437Y0273266D02*
X0293207Y0273266D01*
X0293158Y0273564D02*
X0300384Y0273564D01*
X0300331Y0273863D02*
X0293108Y0273863D01*
X0293058Y0274161D02*
X0300278Y0274161D01*
X0300225Y0274460D02*
X0293008Y0274460D01*
X0292959Y0274758D02*
X0300172Y0274758D01*
X0300119Y0275057D02*
X0292909Y0275057D01*
X0292859Y0275355D02*
X0300067Y0275355D01*
X0300014Y0275654D02*
X0292809Y0275654D01*
X0292760Y0275953D02*
X0299961Y0275953D01*
X0299908Y0276251D02*
X0292710Y0276251D01*
X0292660Y0276550D02*
X0299855Y0276550D01*
X0299802Y0276848D02*
X0292610Y0276848D01*
X0292561Y0277147D02*
X0299749Y0277147D01*
X0299696Y0277445D02*
X0292511Y0277445D01*
X0292461Y0277744D02*
X0299643Y0277744D01*
X0299590Y0278042D02*
X0292243Y0278042D01*
X0291945Y0278341D02*
X0299538Y0278341D01*
X0299485Y0278639D02*
X0291646Y0278639D01*
X0291348Y0278938D02*
X0299432Y0278938D01*
X0299379Y0279236D02*
X0291049Y0279236D01*
X0290751Y0279535D02*
X0299326Y0279535D01*
X0299273Y0279833D02*
X0290452Y0279833D01*
X0288259Y0275355D02*
X0272973Y0275355D01*
X0273030Y0275057D02*
X0292056Y0275057D01*
X0292051Y0275085D02*
X0272760Y0276463D01*
X0273744Y0271344D01*
X0293035Y0268392D01*
X0293232Y0268589D01*
X0292051Y0275085D01*
X0292110Y0274758D02*
X0273088Y0274758D01*
X0273145Y0274460D02*
X0292165Y0274460D01*
X0292219Y0274161D02*
X0273202Y0274161D01*
X0273260Y0273863D02*
X0292273Y0273863D01*
X0292328Y0273564D02*
X0273317Y0273564D01*
X0273375Y0273266D02*
X0292382Y0273266D01*
X0292436Y0272967D02*
X0273432Y0272967D01*
X0273489Y0272669D02*
X0292490Y0272669D01*
X0292545Y0272370D02*
X0273547Y0272370D01*
X0273604Y0272072D02*
X0292599Y0272072D01*
X0292653Y0271773D02*
X0273662Y0271773D01*
X0273719Y0271475D02*
X0292708Y0271475D01*
X0292762Y0271176D02*
X0274843Y0271176D01*
X0276793Y0270878D02*
X0292816Y0270878D01*
X0292870Y0270579D02*
X0278743Y0270579D01*
X0280693Y0270281D02*
X0292925Y0270281D01*
X0292979Y0269982D02*
X0282644Y0269982D01*
X0284594Y0269684D02*
X0293033Y0269684D01*
X0293087Y0269385D02*
X0286544Y0269385D01*
X0288495Y0269087D02*
X0293142Y0269087D01*
X0293196Y0268788D02*
X0290445Y0268788D01*
X0292395Y0268490D02*
X0293133Y0268490D01*
X0301461Y0272370D02*
X0323907Y0272370D01*
X0323965Y0271176D02*
X0301681Y0271176D01*
X0301736Y0270878D02*
X0321961Y0270878D01*
X0320759Y0270281D02*
X0301846Y0270281D01*
X0301791Y0270579D02*
X0319956Y0270579D01*
X0319807Y0270557D02*
X0329059Y0271935D01*
X0301106Y0274297D01*
X0302484Y0266817D01*
X0328469Y0262683D01*
X0318035Y0266423D01*
X0327484Y0266423D01*
X0318626Y0268589D01*
X0327484Y0269573D01*
X0320004Y0270360D01*
X0319807Y0270557D01*
X0320423Y0268788D02*
X0302121Y0268788D01*
X0302176Y0268490D02*
X0319030Y0268490D01*
X0320252Y0268191D02*
X0302231Y0268191D01*
X0302286Y0267893D02*
X0321473Y0267893D01*
X0322694Y0267594D02*
X0302341Y0267594D01*
X0302396Y0267296D02*
X0323915Y0267296D01*
X0325136Y0266997D02*
X0302451Y0266997D01*
X0303228Y0266699D02*
X0326357Y0266699D01*
X0325796Y0269385D02*
X0302011Y0269385D01*
X0302066Y0269087D02*
X0323110Y0269087D01*
X0323594Y0269982D02*
X0301901Y0269982D01*
X0301956Y0269684D02*
X0326430Y0269684D01*
X0325969Y0271475D02*
X0301626Y0271475D01*
X0301571Y0271773D02*
X0327974Y0271773D01*
X0327440Y0272072D02*
X0301516Y0272072D01*
X0301406Y0272669D02*
X0320375Y0272669D01*
X0316843Y0272967D02*
X0301351Y0272967D01*
X0301296Y0273266D02*
X0313310Y0273266D01*
X0309778Y0273564D02*
X0301241Y0273564D01*
X0301186Y0273863D02*
X0306246Y0273863D01*
X0302713Y0274161D02*
X0301131Y0274161D01*
X0299220Y0280132D02*
X0276458Y0280132D01*
X0276359Y0280430D02*
X0299167Y0280430D01*
X0298999Y0280729D02*
X0276410Y0280729D01*
X0276652Y0281027D02*
X0298687Y0281027D01*
X0298374Y0281326D02*
X0276894Y0281326D01*
X0277135Y0281624D02*
X0298061Y0281624D01*
X0297748Y0281923D02*
X0277377Y0281923D01*
X0277618Y0282221D02*
X0297436Y0282221D01*
X0297123Y0282520D02*
X0277860Y0282520D01*
X0278102Y0282818D02*
X0296810Y0282818D01*
X0296497Y0283117D02*
X0278343Y0283117D01*
X0278585Y0283415D02*
X0296185Y0283415D01*
X0295872Y0283714D02*
X0278827Y0283714D01*
X0279068Y0284012D02*
X0295559Y0284012D01*
X0295247Y0284311D02*
X0279310Y0284311D01*
X0279552Y0284609D02*
X0294934Y0284609D01*
X0284080Y0275654D02*
X0272915Y0275654D01*
X0272858Y0275953D02*
X0279901Y0275953D01*
X0275722Y0276251D02*
X0272801Y0276251D01*
X0272484Y0272669D02*
X0265092Y0272669D01*
X0265147Y0272370D02*
X0272537Y0272370D01*
X0272590Y0272072D02*
X0265202Y0272072D01*
X0265257Y0271773D02*
X0272643Y0271773D01*
X0272696Y0271475D02*
X0265311Y0271475D01*
X0265366Y0271176D02*
X0272749Y0271176D01*
X0272801Y0270878D02*
X0265421Y0270878D01*
X0251344Y0265206D02*
X0229356Y0265206D01*
X0229177Y0265505D02*
X0238737Y0265505D01*
X0237096Y0265803D02*
X0228998Y0265803D01*
X0229539Y0264908D02*
X0251396Y0264908D01*
X0251447Y0264609D02*
X0229725Y0264609D01*
X0229912Y0264311D02*
X0251499Y0264311D01*
X0251551Y0264012D02*
X0230098Y0264012D01*
X0230285Y0263714D02*
X0251603Y0263714D01*
X0251655Y0263415D02*
X0230492Y0263415D01*
X0230791Y0263117D02*
X0251707Y0263117D01*
X0251759Y0262818D02*
X0231089Y0262818D01*
X0231388Y0262520D02*
X0251811Y0262520D01*
X0251863Y0262221D02*
X0231819Y0262221D01*
X0232267Y0261922D02*
X0251915Y0261922D01*
X0251967Y0261624D02*
X0232752Y0261624D01*
X0233349Y0261325D02*
X0252019Y0261325D01*
X0252070Y0261027D02*
X0233946Y0261027D01*
X0240673Y0242407D02*
X0240673Y0242211D01*
X0240870Y0242211D01*
X0241657Y0242014D01*
X0242051Y0241817D01*
X0245988Y0237486D01*
X0246185Y0237880D01*
X0242839Y0241620D01*
X0242839Y0241817D01*
X0243035Y0242211D01*
X0243823Y0242211D01*
X0243823Y0242407D01*
X0240673Y0242407D01*
X0240673Y0242221D02*
X0243823Y0242221D01*
X0242891Y0241922D02*
X0241841Y0241922D01*
X0242227Y0241624D02*
X0242839Y0241624D01*
X0243102Y0241325D02*
X0242498Y0241325D01*
X0242770Y0241027D02*
X0243370Y0241027D01*
X0243637Y0240728D02*
X0243041Y0240728D01*
X0243312Y0240430D02*
X0243904Y0240430D01*
X0244171Y0240131D02*
X0243584Y0240131D01*
X0243855Y0239833D02*
X0244438Y0239833D01*
X0244705Y0239534D02*
X0244126Y0239534D01*
X0244398Y0239236D02*
X0244972Y0239236D01*
X0245239Y0238937D02*
X0244669Y0238937D01*
X0244941Y0238639D02*
X0245506Y0238639D01*
X0245773Y0238340D02*
X0245212Y0238340D01*
X0245483Y0238042D02*
X0246040Y0238042D01*
X0246117Y0237743D02*
X0245755Y0237743D01*
X0246765Y0237445D02*
X0248321Y0237445D01*
X0248450Y0237743D02*
X0246897Y0237743D01*
X0247029Y0238042D02*
X0248578Y0238042D01*
X0248707Y0238340D02*
X0247161Y0238340D01*
X0247293Y0238639D02*
X0248836Y0238639D01*
X0248965Y0238937D02*
X0247425Y0238937D01*
X0247557Y0239236D02*
X0249093Y0239236D01*
X0249222Y0239534D02*
X0247689Y0239534D01*
X0247821Y0239833D02*
X0249351Y0239833D01*
X0249480Y0240131D02*
X0247953Y0240131D01*
X0248085Y0240430D02*
X0249609Y0240430D01*
X0249737Y0240728D02*
X0248217Y0240728D01*
X0248349Y0241027D02*
X0249866Y0241027D01*
X0249995Y0241325D02*
X0248350Y0241325D01*
X0248350Y0241620D02*
X0248154Y0242014D01*
X0247366Y0242211D01*
X0246972Y0242211D01*
X0246972Y0242407D01*
X0251303Y0242407D01*
X0251303Y0242211D01*
X0250516Y0242014D01*
X0250122Y0241620D01*
X0245791Y0231581D01*
X0245791Y0230990D01*
X0245988Y0230596D01*
X0247169Y0230400D01*
X0247169Y0230203D01*
X0242839Y0230203D01*
X0242839Y0230596D01*
X0243626Y0230596D01*
X0243823Y0230793D01*
X0248350Y0241030D01*
X0248350Y0241620D01*
X0248349Y0241624D02*
X0250126Y0241624D01*
X0250424Y0241922D02*
X0248199Y0241922D01*
X0246972Y0242221D02*
X0251303Y0242221D01*
X0248192Y0237146D02*
X0246633Y0237146D01*
X0246501Y0236848D02*
X0248063Y0236848D01*
X0247935Y0236549D02*
X0246369Y0236549D01*
X0246237Y0236251D02*
X0247806Y0236251D01*
X0247677Y0235952D02*
X0246105Y0235952D01*
X0245973Y0235653D02*
X0247548Y0235653D01*
X0247419Y0235355D02*
X0245840Y0235355D01*
X0245708Y0235056D02*
X0247291Y0235056D01*
X0247162Y0234758D02*
X0245576Y0234758D01*
X0245444Y0234459D02*
X0247033Y0234459D01*
X0246904Y0234161D02*
X0245312Y0234161D01*
X0245180Y0233862D02*
X0246776Y0233862D01*
X0246647Y0233564D02*
X0245048Y0233564D01*
X0244916Y0233265D02*
X0246518Y0233265D01*
X0246389Y0232967D02*
X0244784Y0232967D01*
X0244652Y0232668D02*
X0246261Y0232668D01*
X0246132Y0232370D02*
X0244520Y0232370D01*
X0244388Y0232071D02*
X0246003Y0232071D01*
X0245874Y0231773D02*
X0244256Y0231773D01*
X0244124Y0231474D02*
X0245791Y0231474D01*
X0245791Y0231176D02*
X0243992Y0231176D01*
X0243860Y0230877D02*
X0245848Y0230877D01*
X0246094Y0230579D02*
X0242839Y0230579D01*
X0242839Y0230280D02*
X0247169Y0230280D01*
X0250909Y0230280D02*
X0254256Y0230280D01*
X0254256Y0230203D02*
X0254256Y0230596D01*
X0253272Y0230596D01*
X0252878Y0230793D01*
X0248350Y0235715D01*
X0248154Y0235321D01*
X0251894Y0231187D01*
X0251894Y0230793D01*
X0251697Y0230596D01*
X0250909Y0230596D01*
X0250909Y0230203D01*
X0254256Y0230203D01*
X0254256Y0230579D02*
X0250909Y0230579D01*
X0251894Y0230877D02*
X0252801Y0230877D01*
X0252526Y0231176D02*
X0251894Y0231176D01*
X0251634Y0231474D02*
X0252251Y0231474D01*
X0251977Y0231773D02*
X0251364Y0231773D01*
X0251094Y0232071D02*
X0251702Y0232071D01*
X0251428Y0232370D02*
X0250823Y0232370D01*
X0250553Y0232668D02*
X0251153Y0232668D01*
X0250878Y0232967D02*
X0250283Y0232967D01*
X0250013Y0233265D02*
X0250604Y0233265D01*
X0250329Y0233564D02*
X0249743Y0233564D01*
X0249473Y0233862D02*
X0250054Y0233862D01*
X0249780Y0234161D02*
X0249203Y0234161D01*
X0248933Y0234459D02*
X0249505Y0234459D01*
X0249230Y0234758D02*
X0248663Y0234758D01*
X0248393Y0235056D02*
X0248956Y0235056D01*
X0248681Y0235355D02*
X0248171Y0235355D01*
X0248320Y0235653D02*
X0248407Y0235653D01*
X0259425Y0237743D02*
X0261014Y0237743D01*
X0261072Y0237445D02*
X0259480Y0237445D01*
X0259535Y0237146D02*
X0261130Y0237146D01*
X0261189Y0236848D02*
X0259590Y0236848D01*
X0259644Y0236549D02*
X0261247Y0236549D01*
X0261305Y0236251D02*
X0259699Y0236251D01*
X0259754Y0235952D02*
X0261363Y0235952D01*
X0261422Y0235653D02*
X0259808Y0235653D01*
X0259863Y0235355D02*
X0261480Y0235355D01*
X0261538Y0235056D02*
X0259918Y0235056D01*
X0259973Y0234758D02*
X0261596Y0234758D01*
X0261655Y0234459D02*
X0260027Y0234459D01*
X0260082Y0234161D02*
X0261713Y0234161D01*
X0261933Y0234140D02*
X0263508Y0232368D01*
X0264689Y0231187D01*
X0265280Y0230990D01*
X0265870Y0230793D01*
X0266264Y0230990D01*
X0266657Y0231384D01*
X0266854Y0232762D01*
X0266461Y0234927D01*
X0265870Y0236502D01*
X0265280Y0237683D01*
X0264295Y0238470D01*
X0263705Y0238667D01*
X0262130Y0238667D01*
X0261343Y0238470D01*
X0260949Y0238077D01*
X0262524Y0230006D01*
X0259374Y0230006D01*
X0259374Y0230596D01*
X0260358Y0230596D01*
X0260555Y0230793D01*
X0260555Y0231581D01*
X0258390Y0243392D01*
X0261343Y0243392D01*
X0261539Y0242998D01*
X0260555Y0242998D01*
X0260161Y0242801D01*
X0259965Y0242604D01*
X0260555Y0239258D01*
X0260752Y0239061D01*
X0262130Y0239258D01*
X0263508Y0239061D01*
X0265083Y0238274D01*
X0266461Y0236896D01*
X0267248Y0235715D01*
X0267839Y0234337D01*
X0268232Y0232368D01*
X0268035Y0230990D01*
X0267445Y0230203D01*
X0267051Y0230006D01*
X0266461Y0230006D01*
X0265280Y0230400D01*
X0264098Y0231384D01*
X0262917Y0232565D01*
X0261933Y0234140D01*
X0261771Y0233862D02*
X0260137Y0233862D01*
X0260192Y0233564D02*
X0261829Y0233564D01*
X0261888Y0233265D02*
X0260246Y0233265D01*
X0260301Y0232967D02*
X0261946Y0232967D01*
X0262004Y0232668D02*
X0260356Y0232668D01*
X0260410Y0232370D02*
X0262062Y0232370D01*
X0262121Y0232071D02*
X0260465Y0232071D01*
X0260520Y0231773D02*
X0262179Y0231773D01*
X0262237Y0231474D02*
X0260555Y0231474D01*
X0260555Y0231176D02*
X0262295Y0231176D01*
X0262354Y0230877D02*
X0260555Y0230877D01*
X0259374Y0230579D02*
X0262412Y0230579D01*
X0262470Y0230280D02*
X0259374Y0230280D01*
X0262853Y0232668D02*
X0263241Y0232668D01*
X0263112Y0232370D02*
X0263506Y0232370D01*
X0263411Y0232071D02*
X0263805Y0232071D01*
X0263709Y0231773D02*
X0264103Y0231773D01*
X0264008Y0231474D02*
X0264402Y0231474D01*
X0264348Y0231176D02*
X0264723Y0231176D01*
X0264706Y0230877D02*
X0265618Y0230877D01*
X0266038Y0230877D02*
X0267951Y0230877D01*
X0268062Y0231176D02*
X0266449Y0231176D01*
X0266670Y0231474D02*
X0268105Y0231474D01*
X0268147Y0231773D02*
X0266713Y0231773D01*
X0266756Y0232071D02*
X0268190Y0232071D01*
X0268232Y0232370D02*
X0266798Y0232370D01*
X0266841Y0232668D02*
X0268172Y0232668D01*
X0268113Y0232967D02*
X0266817Y0232967D01*
X0266763Y0233265D02*
X0268053Y0233265D01*
X0267993Y0233564D02*
X0266708Y0233564D01*
X0266654Y0233862D02*
X0267933Y0233862D01*
X0267874Y0234161D02*
X0266600Y0234161D01*
X0266546Y0234459D02*
X0267786Y0234459D01*
X0267658Y0234758D02*
X0266491Y0234758D01*
X0266412Y0235056D02*
X0267530Y0235056D01*
X0267402Y0235355D02*
X0266300Y0235355D01*
X0266188Y0235653D02*
X0267274Y0235653D01*
X0267090Y0235952D02*
X0266076Y0235952D01*
X0265964Y0236251D02*
X0266891Y0236251D01*
X0266692Y0236549D02*
X0265847Y0236549D01*
X0265697Y0236848D02*
X0266493Y0236848D01*
X0266210Y0237146D02*
X0265548Y0237146D01*
X0265399Y0237445D02*
X0265912Y0237445D01*
X0265613Y0237743D02*
X0265205Y0237743D01*
X0265315Y0238042D02*
X0264831Y0238042D01*
X0264950Y0238340D02*
X0264458Y0238340D01*
X0264353Y0238639D02*
X0263791Y0238639D01*
X0263756Y0238937D02*
X0259206Y0238937D01*
X0259261Y0238639D02*
X0262015Y0238639D01*
X0261974Y0239236D02*
X0262286Y0239236D01*
X0261212Y0238340D02*
X0259316Y0238340D01*
X0259371Y0238042D02*
X0260956Y0238042D01*
X0260577Y0239236D02*
X0259152Y0239236D01*
X0259097Y0239534D02*
X0260506Y0239534D01*
X0260454Y0239833D02*
X0259042Y0239833D01*
X0258988Y0240131D02*
X0260401Y0240131D01*
X0260348Y0240430D02*
X0258933Y0240430D01*
X0258878Y0240728D02*
X0260296Y0240728D01*
X0260243Y0241027D02*
X0258823Y0241027D01*
X0258769Y0241325D02*
X0260190Y0241325D01*
X0260138Y0241624D02*
X0258714Y0241624D01*
X0258659Y0241922D02*
X0260085Y0241922D01*
X0260032Y0242221D02*
X0258604Y0242221D01*
X0258550Y0242519D02*
X0259980Y0242519D01*
X0260195Y0242818D02*
X0258495Y0242818D01*
X0258440Y0243116D02*
X0261480Y0243116D01*
X0268429Y0239258D02*
X0268823Y0237683D01*
X0270004Y0237683D01*
X0270988Y0237486D01*
X0271972Y0236699D01*
X0272760Y0235715D01*
X0273547Y0234730D01*
X0273744Y0234337D01*
X0274531Y0230203D01*
X0275909Y0230203D01*
X0274531Y0236896D01*
X0274531Y0238470D01*
X0274728Y0238667D01*
X0275122Y0238864D01*
X0275713Y0238864D01*
X0275516Y0239258D01*
X0272760Y0239258D01*
X0273350Y0235911D01*
X0273154Y0235715D01*
X0272563Y0236502D01*
X0271579Y0237683D01*
X0270398Y0238667D01*
X0269610Y0239061D01*
X0268429Y0239258D01*
X0268435Y0239236D02*
X0268563Y0239236D01*
X0268509Y0238937D02*
X0269858Y0238937D01*
X0270432Y0238639D02*
X0268584Y0238639D01*
X0268659Y0238340D02*
X0270790Y0238340D01*
X0271149Y0238042D02*
X0268733Y0238042D01*
X0268808Y0237743D02*
X0271507Y0237743D01*
X0271777Y0237445D02*
X0271040Y0237445D01*
X0271413Y0237146D02*
X0272026Y0237146D01*
X0271787Y0236848D02*
X0272275Y0236848D01*
X0272092Y0236549D02*
X0272524Y0236549D01*
X0272331Y0236251D02*
X0272752Y0236251D01*
X0272570Y0235952D02*
X0272975Y0235952D01*
X0272809Y0235653D02*
X0274787Y0235653D01*
X0274849Y0235355D02*
X0273048Y0235355D01*
X0273286Y0235056D02*
X0274910Y0235056D01*
X0274972Y0234758D02*
X0273525Y0234758D01*
X0273683Y0234459D02*
X0275033Y0234459D01*
X0275095Y0234161D02*
X0273778Y0234161D01*
X0273834Y0233862D02*
X0275156Y0233862D01*
X0275217Y0233564D02*
X0273891Y0233564D01*
X0273948Y0233265D02*
X0275279Y0233265D01*
X0275340Y0232967D02*
X0274005Y0232967D01*
X0274062Y0232668D02*
X0275402Y0232668D01*
X0275463Y0232370D02*
X0274119Y0232370D01*
X0274176Y0232071D02*
X0275525Y0232071D01*
X0275586Y0231773D02*
X0274232Y0231773D01*
X0274289Y0231474D02*
X0275648Y0231474D01*
X0275709Y0231176D02*
X0274346Y0231176D01*
X0274403Y0230877D02*
X0275771Y0230877D01*
X0275832Y0230579D02*
X0274460Y0230579D01*
X0274517Y0230280D02*
X0275893Y0230280D01*
X0277878Y0230596D02*
X0279256Y0230596D01*
X0279453Y0230793D01*
X0277878Y0239061D01*
X0277878Y0239258D01*
X0278272Y0239258D01*
X0279059Y0239061D01*
X0280831Y0239258D01*
X0282406Y0239061D01*
X0283587Y0238274D01*
X0284768Y0237093D01*
X0285752Y0235911D01*
X0286343Y0234337D01*
X0286736Y0232762D01*
X0286736Y0231581D01*
X0286539Y0230793D01*
X0286343Y0230400D01*
X0285949Y0230203D01*
X0285161Y0230006D01*
X0284374Y0230203D01*
X0283193Y0230793D01*
X0281815Y0232171D01*
X0280831Y0233549D01*
X0280240Y0234927D01*
X0281618Y0232959D01*
X0282996Y0231384D01*
X0284374Y0230990D01*
X0284965Y0231187D01*
X0285358Y0231581D01*
X0285358Y0233352D01*
X0285161Y0234337D01*
X0284768Y0235518D01*
X0283980Y0237289D01*
X0283390Y0238077D01*
X0282406Y0238667D01*
X0281421Y0238864D01*
X0280437Y0238667D01*
X0279846Y0238470D01*
X0279453Y0238274D01*
X0279453Y0237880D01*
X0281028Y0230596D01*
X0281028Y0230203D01*
X0278075Y0230203D01*
X0277878Y0230596D01*
X0277887Y0230579D02*
X0281028Y0230579D01*
X0281028Y0230280D02*
X0278036Y0230280D01*
X0279437Y0230877D02*
X0280967Y0230877D01*
X0280902Y0231176D02*
X0279380Y0231176D01*
X0279323Y0231474D02*
X0280838Y0231474D01*
X0280773Y0231773D02*
X0279266Y0231773D01*
X0279209Y0232071D02*
X0280709Y0232071D01*
X0280644Y0232370D02*
X0279152Y0232370D01*
X0279096Y0232668D02*
X0280580Y0232668D01*
X0280515Y0232967D02*
X0279039Y0232967D01*
X0278982Y0233265D02*
X0280450Y0233265D01*
X0280386Y0233564D02*
X0278925Y0233564D01*
X0278868Y0233862D02*
X0280321Y0233862D01*
X0280257Y0234161D02*
X0278811Y0234161D01*
X0278754Y0234459D02*
X0280192Y0234459D01*
X0280441Y0234459D02*
X0280568Y0234459D01*
X0280569Y0234161D02*
X0280777Y0234161D01*
X0280696Y0233862D02*
X0280985Y0233862D01*
X0280824Y0233564D02*
X0281194Y0233564D01*
X0281033Y0233265D02*
X0281403Y0233265D01*
X0281247Y0232967D02*
X0281612Y0232967D01*
X0281460Y0232668D02*
X0281872Y0232668D01*
X0281673Y0232370D02*
X0282133Y0232370D01*
X0281915Y0232071D02*
X0282395Y0232071D01*
X0282213Y0231773D02*
X0282656Y0231773D01*
X0282512Y0231474D02*
X0282917Y0231474D01*
X0282810Y0231176D02*
X0283724Y0231176D01*
X0283622Y0230579D02*
X0286432Y0230579D01*
X0286560Y0230877D02*
X0283109Y0230877D01*
X0284219Y0230280D02*
X0286104Y0230280D01*
X0286635Y0231176D02*
X0284931Y0231176D01*
X0285252Y0231474D02*
X0286710Y0231474D01*
X0286736Y0231773D02*
X0285358Y0231773D01*
X0285358Y0232071D02*
X0286736Y0232071D01*
X0286736Y0232370D02*
X0285358Y0232370D01*
X0285358Y0232668D02*
X0286736Y0232668D01*
X0286685Y0232967D02*
X0285358Y0232967D01*
X0285358Y0233265D02*
X0286610Y0233265D01*
X0286536Y0233564D02*
X0285316Y0233564D01*
X0285256Y0233862D02*
X0286461Y0233862D01*
X0286386Y0234161D02*
X0285197Y0234161D01*
X0285120Y0234459D02*
X0286296Y0234459D01*
X0286185Y0234758D02*
X0285021Y0234758D01*
X0284921Y0235056D02*
X0286073Y0235056D01*
X0285961Y0235355D02*
X0284822Y0235355D01*
X0284707Y0235653D02*
X0285849Y0235653D01*
X0285718Y0235952D02*
X0284575Y0235952D01*
X0284442Y0236251D02*
X0285469Y0236251D01*
X0285221Y0236549D02*
X0284309Y0236549D01*
X0284177Y0236848D02*
X0284972Y0236848D01*
X0284714Y0237146D02*
X0284044Y0237146D01*
X0283864Y0237445D02*
X0284416Y0237445D01*
X0284117Y0237743D02*
X0283640Y0237743D01*
X0283819Y0238042D02*
X0283416Y0238042D01*
X0283487Y0238340D02*
X0282951Y0238340D01*
X0283039Y0238639D02*
X0282453Y0238639D01*
X0282591Y0238937D02*
X0277902Y0238937D01*
X0277878Y0239236D02*
X0278361Y0239236D01*
X0277958Y0238639D02*
X0280351Y0238639D01*
X0280631Y0239236D02*
X0281009Y0239236D01*
X0279586Y0238340D02*
X0278015Y0238340D01*
X0278072Y0238042D02*
X0279453Y0238042D01*
X0279482Y0237743D02*
X0278129Y0237743D01*
X0278186Y0237445D02*
X0279547Y0237445D01*
X0279611Y0237146D02*
X0278243Y0237146D01*
X0278300Y0236848D02*
X0279676Y0236848D01*
X0279741Y0236549D02*
X0278356Y0236549D01*
X0278413Y0236251D02*
X0279805Y0236251D01*
X0279870Y0235952D02*
X0278470Y0235952D01*
X0278527Y0235653D02*
X0279934Y0235653D01*
X0279999Y0235355D02*
X0278584Y0235355D01*
X0278641Y0235056D02*
X0280063Y0235056D01*
X0280128Y0234758D02*
X0278698Y0234758D01*
X0280313Y0234758D02*
X0280359Y0234758D01*
X0274726Y0235952D02*
X0273343Y0235952D01*
X0273291Y0236251D02*
X0274664Y0236251D01*
X0274603Y0236549D02*
X0273238Y0236549D01*
X0273185Y0236848D02*
X0274541Y0236848D01*
X0274531Y0237146D02*
X0273133Y0237146D01*
X0273080Y0237445D02*
X0274531Y0237445D01*
X0274531Y0237743D02*
X0273027Y0237743D01*
X0272974Y0238042D02*
X0274531Y0238042D01*
X0274531Y0238340D02*
X0272922Y0238340D01*
X0272869Y0238639D02*
X0274700Y0238639D01*
X0275527Y0239236D02*
X0272764Y0239236D01*
X0272816Y0238937D02*
X0275676Y0238937D01*
X0267727Y0230579D02*
X0265064Y0230579D01*
X0265637Y0230280D02*
X0267503Y0230280D01*
X0262976Y0232967D02*
X0262666Y0232967D01*
X0262710Y0233265D02*
X0262480Y0233265D01*
X0262445Y0233564D02*
X0262293Y0233564D01*
X0262180Y0233862D02*
X0262106Y0233862D01*
X0288114Y0236108D02*
X0288311Y0234730D01*
X0288902Y0233352D01*
X0289492Y0232368D01*
X0290870Y0230990D01*
X0292248Y0230203D01*
X0293626Y0230006D01*
X0294807Y0230203D01*
X0295791Y0230793D01*
X0296185Y0231581D01*
X0296382Y0232565D01*
X0296382Y0233549D01*
X0295988Y0235321D01*
X0295004Y0237093D01*
X0293823Y0238274D01*
X0293232Y0238667D01*
X0292051Y0239061D01*
X0292051Y0238864D01*
X0292051Y0239061D01*
X0290870Y0239258D01*
X0289886Y0239061D01*
X0288902Y0238667D01*
X0288311Y0237683D01*
X0288114Y0236108D01*
X0288132Y0236251D02*
X0289689Y0236251D01*
X0289689Y0236549D02*
X0288169Y0236549D01*
X0288207Y0236848D02*
X0289689Y0236848D01*
X0289689Y0237146D02*
X0288244Y0237146D01*
X0288281Y0237445D02*
X0289689Y0237445D01*
X0289689Y0237683D02*
X0289689Y0234533D01*
X0290280Y0232762D01*
X0291264Y0231187D01*
X0292445Y0230400D01*
X0293626Y0230400D01*
X0294020Y0230596D01*
X0294610Y0231384D01*
X0295004Y0232565D01*
X0294807Y0234337D01*
X0294610Y0235124D01*
X0294217Y0236502D01*
X0293626Y0237683D01*
X0292642Y0238667D01*
X0292051Y0238864D01*
X0290476Y0238667D01*
X0290083Y0238274D01*
X0289689Y0237683D01*
X0289729Y0237743D02*
X0288347Y0237743D01*
X0288526Y0238042D02*
X0289928Y0238042D01*
X0290149Y0238340D02*
X0288705Y0238340D01*
X0288884Y0238639D02*
X0290448Y0238639D01*
X0290759Y0239236D02*
X0291004Y0239236D01*
X0292051Y0238937D02*
X0292423Y0238937D01*
X0292051Y0238937D02*
X0289576Y0238937D01*
X0289689Y0235952D02*
X0288137Y0235952D01*
X0288179Y0235653D02*
X0289689Y0235653D01*
X0289689Y0235355D02*
X0288222Y0235355D01*
X0288264Y0235056D02*
X0289689Y0235056D01*
X0289689Y0234758D02*
X0288307Y0234758D01*
X0288427Y0234459D02*
X0289714Y0234459D01*
X0289813Y0234161D02*
X0288555Y0234161D01*
X0288683Y0233862D02*
X0289913Y0233862D01*
X0290012Y0233564D02*
X0288811Y0233564D01*
X0288954Y0233265D02*
X0290112Y0233265D01*
X0290211Y0232967D02*
X0289133Y0232967D01*
X0289312Y0232668D02*
X0290338Y0232668D01*
X0290524Y0232370D02*
X0289491Y0232370D01*
X0289789Y0232071D02*
X0290711Y0232071D01*
X0290898Y0231773D02*
X0290087Y0231773D01*
X0290386Y0231474D02*
X0291084Y0231474D01*
X0291281Y0231176D02*
X0290684Y0231176D01*
X0291068Y0230877D02*
X0291728Y0230877D01*
X0291590Y0230579D02*
X0292176Y0230579D01*
X0292112Y0230280D02*
X0294936Y0230280D01*
X0295434Y0230579D02*
X0293984Y0230579D01*
X0294230Y0230877D02*
X0295833Y0230877D01*
X0295983Y0231176D02*
X0294454Y0231176D01*
X0294640Y0231474D02*
X0296132Y0231474D01*
X0296223Y0231773D02*
X0294740Y0231773D01*
X0294839Y0232071D02*
X0296283Y0232071D01*
X0296343Y0232370D02*
X0294939Y0232370D01*
X0294992Y0232668D02*
X0296382Y0232668D01*
X0296382Y0232967D02*
X0294959Y0232967D01*
X0294926Y0233265D02*
X0296382Y0233265D01*
X0296379Y0233564D02*
X0294893Y0233564D01*
X0294860Y0233862D02*
X0296312Y0233862D01*
X0296246Y0234161D02*
X0294827Y0234161D01*
X0294776Y0234459D02*
X0296180Y0234459D01*
X0296113Y0234758D02*
X0294702Y0234758D01*
X0294627Y0235056D02*
X0296047Y0235056D01*
X0295969Y0235355D02*
X0294544Y0235355D01*
X0294459Y0235653D02*
X0295803Y0235653D01*
X0295638Y0235952D02*
X0294374Y0235952D01*
X0294288Y0236251D02*
X0295472Y0236251D01*
X0295306Y0236549D02*
X0294193Y0236549D01*
X0294044Y0236848D02*
X0295140Y0236848D01*
X0294950Y0237146D02*
X0293895Y0237146D01*
X0293745Y0237445D02*
X0294652Y0237445D01*
X0294353Y0237743D02*
X0293566Y0237743D01*
X0293267Y0238042D02*
X0294055Y0238042D01*
X0293723Y0238340D02*
X0292969Y0238340D01*
X0292670Y0238639D02*
X0293275Y0238639D01*
X0297731Y0239236D02*
X0299147Y0239236D01*
X0299138Y0239258D02*
X0299138Y0240833D01*
X0299531Y0241423D01*
X0300319Y0242014D01*
X0302681Y0242014D01*
X0304650Y0231778D01*
X0304650Y0230793D01*
X0304256Y0230596D01*
X0302484Y0230596D01*
X0300909Y0231187D01*
X0300516Y0231581D01*
X0299925Y0232762D01*
X0299728Y0233746D01*
X0299925Y0234730D01*
X0300319Y0235518D01*
X0301106Y0236108D01*
X0302091Y0236305D01*
X0303469Y0236502D01*
X0301303Y0236502D01*
X0300122Y0236108D01*
X0299335Y0235715D01*
X0298744Y0235124D01*
X0298350Y0234337D01*
X0298350Y0232959D01*
X0298744Y0231974D01*
X0299728Y0230990D01*
X0300909Y0230400D01*
X0302878Y0230203D01*
X0307996Y0230203D01*
X0307799Y0230596D01*
X0306815Y0230596D01*
X0306224Y0230990D01*
X0304059Y0241620D01*
X0304453Y0242014D01*
X0305634Y0242211D01*
X0305634Y0242407D01*
X0300319Y0242407D01*
X0299138Y0242211D01*
X0298350Y0241817D01*
X0297957Y0241423D01*
X0297760Y0241030D01*
X0297563Y0240242D01*
X0297760Y0239061D01*
X0298154Y0238470D01*
X0299138Y0237486D01*
X0300319Y0236896D01*
X0300909Y0236699D01*
X0303469Y0236699D01*
X0301303Y0236896D01*
X0300122Y0237486D01*
X0299531Y0238274D01*
X0299138Y0239258D01*
X0299138Y0239534D02*
X0297681Y0239534D01*
X0297631Y0239833D02*
X0299138Y0239833D01*
X0299138Y0240131D02*
X0297581Y0240131D01*
X0297610Y0240430D02*
X0299138Y0240430D01*
X0299138Y0240728D02*
X0297685Y0240728D01*
X0297759Y0241027D02*
X0299267Y0241027D01*
X0299466Y0241325D02*
X0297908Y0241325D01*
X0298157Y0241624D02*
X0299799Y0241624D01*
X0300197Y0241922D02*
X0298561Y0241922D01*
X0299198Y0242221D02*
X0305634Y0242221D01*
X0304361Y0241922D02*
X0302699Y0241922D01*
X0302756Y0241624D02*
X0304063Y0241624D01*
X0304119Y0241325D02*
X0302814Y0241325D01*
X0302871Y0241027D02*
X0304180Y0241027D01*
X0304241Y0240728D02*
X0302928Y0240728D01*
X0302986Y0240430D02*
X0304302Y0240430D01*
X0304362Y0240131D02*
X0303043Y0240131D01*
X0303101Y0239833D02*
X0304423Y0239833D01*
X0304484Y0239534D02*
X0303158Y0239534D01*
X0303215Y0239236D02*
X0304545Y0239236D01*
X0304606Y0238937D02*
X0303273Y0238937D01*
X0303330Y0238639D02*
X0304666Y0238639D01*
X0304727Y0238340D02*
X0303388Y0238340D01*
X0303445Y0238042D02*
X0304788Y0238042D01*
X0304849Y0237743D02*
X0303502Y0237743D01*
X0303560Y0237445D02*
X0304910Y0237445D01*
X0304970Y0237146D02*
X0303617Y0237146D01*
X0303675Y0236848D02*
X0305031Y0236848D01*
X0305092Y0236549D02*
X0303732Y0236549D01*
X0303789Y0236251D02*
X0305153Y0236251D01*
X0305214Y0235952D02*
X0303847Y0235952D01*
X0303904Y0235653D02*
X0305274Y0235653D01*
X0305335Y0235355D02*
X0303962Y0235355D01*
X0304019Y0235056D02*
X0305396Y0235056D01*
X0305457Y0234758D02*
X0304076Y0234758D01*
X0304134Y0234459D02*
X0305518Y0234459D01*
X0305579Y0234161D02*
X0304191Y0234161D01*
X0304249Y0233862D02*
X0305639Y0233862D01*
X0305700Y0233564D02*
X0304306Y0233564D01*
X0304363Y0233265D02*
X0305761Y0233265D01*
X0305822Y0232967D02*
X0304421Y0232967D01*
X0304478Y0232668D02*
X0305883Y0232668D01*
X0305943Y0232370D02*
X0304536Y0232370D01*
X0304593Y0232071D02*
X0306004Y0232071D01*
X0306065Y0231773D02*
X0304650Y0231773D01*
X0304650Y0231474D02*
X0306126Y0231474D01*
X0306187Y0231176D02*
X0304650Y0231176D01*
X0304650Y0230877D02*
X0306394Y0230877D01*
X0307808Y0230579D02*
X0300551Y0230579D01*
X0299954Y0230877D02*
X0301735Y0230877D01*
X0302103Y0230280D02*
X0307957Y0230280D01*
X0309965Y0232368D02*
X0308783Y0234337D01*
X0308193Y0236502D01*
X0308193Y0238077D01*
X0308587Y0238864D01*
X0309571Y0239258D01*
X0310555Y0239061D01*
X0311343Y0238667D01*
X0313114Y0236896D01*
X0313902Y0235715D01*
X0314098Y0235124D01*
X0314295Y0235321D01*
X0313705Y0239258D01*
X0314689Y0239258D01*
X0316657Y0239061D01*
X0316657Y0238864D01*
X0315476Y0238864D01*
X0315476Y0237093D01*
X0317445Y0227053D01*
X0317642Y0226856D01*
X0316067Y0226856D01*
X0315476Y0230006D01*
X0315280Y0230203D01*
X0314098Y0230006D01*
X0312720Y0230203D01*
X0311343Y0230990D01*
X0309965Y0232368D01*
X0309964Y0232370D02*
X0310582Y0232370D01*
X0310455Y0232668D02*
X0309784Y0232668D01*
X0309605Y0232967D02*
X0310327Y0232967D01*
X0310199Y0233265D02*
X0309426Y0233265D01*
X0309247Y0233564D02*
X0310114Y0233564D01*
X0310161Y0233352D02*
X0310752Y0231974D01*
X0311343Y0231187D01*
X0311933Y0230793D01*
X0312327Y0230596D01*
X0313311Y0230400D01*
X0314295Y0230596D01*
X0315083Y0230793D01*
X0315280Y0230990D01*
X0314492Y0234730D01*
X0314098Y0235124D01*
X0313114Y0236502D01*
X0312327Y0237486D01*
X0311343Y0238274D01*
X0310161Y0238274D01*
X0309768Y0237880D01*
X0309571Y0236896D01*
X0309768Y0235124D01*
X0310161Y0233352D01*
X0310048Y0233862D02*
X0309068Y0233862D01*
X0308889Y0234161D02*
X0309982Y0234161D01*
X0309915Y0234459D02*
X0308750Y0234459D01*
X0308669Y0234758D02*
X0309849Y0234758D01*
X0309783Y0235056D02*
X0308587Y0235056D01*
X0308506Y0235355D02*
X0309742Y0235355D01*
X0309709Y0235653D02*
X0308424Y0235653D01*
X0308343Y0235952D02*
X0309676Y0235952D01*
X0309643Y0236251D02*
X0308261Y0236251D01*
X0308193Y0236549D02*
X0309609Y0236549D01*
X0309576Y0236848D02*
X0308193Y0236848D01*
X0308193Y0237146D02*
X0309621Y0237146D01*
X0309681Y0237445D02*
X0308193Y0237445D01*
X0308193Y0237743D02*
X0309740Y0237743D01*
X0309929Y0238042D02*
X0308193Y0238042D01*
X0308325Y0238340D02*
X0311670Y0238340D01*
X0311633Y0238042D02*
X0311968Y0238042D01*
X0312006Y0237743D02*
X0312267Y0237743D01*
X0312360Y0237445D02*
X0312565Y0237445D01*
X0312599Y0237146D02*
X0312864Y0237146D01*
X0312838Y0236848D02*
X0313146Y0236848D01*
X0313077Y0236549D02*
X0313345Y0236549D01*
X0313294Y0236251D02*
X0313544Y0236251D01*
X0313507Y0235952D02*
X0313743Y0235952D01*
X0313720Y0235653D02*
X0313922Y0235653D01*
X0313933Y0235355D02*
X0314021Y0235355D01*
X0314290Y0235355D02*
X0315817Y0235355D01*
X0315759Y0235653D02*
X0314245Y0235653D01*
X0314201Y0235952D02*
X0315700Y0235952D01*
X0315641Y0236251D02*
X0314156Y0236251D01*
X0314111Y0236549D02*
X0315583Y0236549D01*
X0315524Y0236848D02*
X0314066Y0236848D01*
X0314022Y0237146D02*
X0315476Y0237146D01*
X0315476Y0237445D02*
X0313977Y0237445D01*
X0313932Y0237743D02*
X0315476Y0237743D01*
X0315476Y0238042D02*
X0313887Y0238042D01*
X0313842Y0238340D02*
X0315476Y0238340D01*
X0315476Y0238639D02*
X0313798Y0238639D01*
X0313753Y0238937D02*
X0316657Y0238937D01*
X0314911Y0239236D02*
X0313708Y0239236D01*
X0311371Y0238639D02*
X0308474Y0238639D01*
X0308769Y0238937D02*
X0310803Y0238937D01*
X0309682Y0239236D02*
X0309515Y0239236D01*
X0314166Y0235056D02*
X0315876Y0235056D01*
X0315934Y0234758D02*
X0314464Y0234758D01*
X0314549Y0234459D02*
X0315993Y0234459D01*
X0316051Y0234161D02*
X0314612Y0234161D01*
X0314675Y0233862D02*
X0316110Y0233862D01*
X0316168Y0233564D02*
X0314738Y0233564D01*
X0314801Y0233265D02*
X0316227Y0233265D01*
X0316285Y0232967D02*
X0314863Y0232967D01*
X0314926Y0232668D02*
X0316344Y0232668D01*
X0316402Y0232370D02*
X0314989Y0232370D01*
X0315052Y0232071D02*
X0316461Y0232071D01*
X0316519Y0231773D02*
X0315115Y0231773D01*
X0315178Y0231474D02*
X0316578Y0231474D01*
X0316637Y0231176D02*
X0315240Y0231176D01*
X0315167Y0230877D02*
X0316695Y0230877D01*
X0316754Y0230579D02*
X0314207Y0230579D01*
X0315481Y0229982D02*
X0316871Y0229982D01*
X0316812Y0230280D02*
X0312585Y0230280D01*
X0312415Y0230579D02*
X0312062Y0230579D01*
X0311807Y0230877D02*
X0311540Y0230877D01*
X0311359Y0231176D02*
X0311157Y0231176D01*
X0311127Y0231474D02*
X0310858Y0231474D01*
X0310903Y0231773D02*
X0310560Y0231773D01*
X0310710Y0232071D02*
X0310261Y0232071D01*
X0315537Y0229683D02*
X0316929Y0229683D01*
X0316988Y0229385D02*
X0315593Y0229385D01*
X0315649Y0229086D02*
X0317046Y0229086D01*
X0317105Y0228788D02*
X0315705Y0228788D01*
X0315761Y0228489D02*
X0317163Y0228489D01*
X0317222Y0228191D02*
X0315817Y0228191D01*
X0315873Y0227892D02*
X0317280Y0227892D01*
X0317339Y0227594D02*
X0315929Y0227594D01*
X0315985Y0227295D02*
X0317397Y0227295D01*
X0317501Y0226997D02*
X0316041Y0226997D01*
X0318770Y0222397D02*
X0318770Y0221913D01*
X0318770Y0220946D02*
X0318770Y0219011D01*
X0319253Y0219011D02*
X0318286Y0219011D01*
X0317289Y0219494D02*
X0316805Y0219011D01*
X0315354Y0219011D01*
X0315354Y0218527D02*
X0315354Y0220946D01*
X0316805Y0220946D01*
X0317289Y0220462D01*
X0317289Y0219494D01*
X0316322Y0218043D02*
X0315838Y0218043D01*
X0315354Y0218527D01*
X0314343Y0219011D02*
X0314343Y0220946D01*
X0312891Y0220946D01*
X0312408Y0220462D01*
X0312408Y0219011D01*
X0311396Y0219494D02*
X0311396Y0220462D01*
X0310912Y0220946D01*
X0309945Y0220946D01*
X0309461Y0220462D01*
X0309461Y0219978D01*
X0311396Y0219978D01*
X0311396Y0219494D02*
X0310912Y0219011D01*
X0309945Y0219011D01*
X0308450Y0219494D02*
X0308450Y0220462D01*
X0307966Y0220946D01*
X0306515Y0220946D01*
X0306515Y0221913D02*
X0306515Y0219011D01*
X0307966Y0219011D01*
X0308450Y0219494D01*
X0306984Y0217113D02*
X0307467Y0216629D01*
X0307467Y0214694D01*
X0306984Y0214211D01*
X0306016Y0214211D01*
X0305532Y0214694D01*
X0304521Y0214211D02*
X0304521Y0217113D01*
X0304037Y0216146D02*
X0303070Y0216146D01*
X0302586Y0215662D01*
X0302586Y0214211D01*
X0301574Y0214211D02*
X0300607Y0214211D01*
X0301091Y0214211D02*
X0301091Y0216146D01*
X0301574Y0216146D01*
X0301091Y0217113D02*
X0301091Y0217597D01*
X0301105Y0219011D02*
X0300622Y0219494D01*
X0300622Y0220462D01*
X0301105Y0220946D01*
X0302556Y0220946D01*
X0302556Y0221913D02*
X0302556Y0219011D01*
X0301105Y0219011D01*
X0299610Y0219494D02*
X0299126Y0219011D01*
X0297675Y0219011D01*
X0297675Y0218527D02*
X0297675Y0220946D01*
X0296663Y0220946D02*
X0296663Y0220462D01*
X0296180Y0220462D01*
X0296180Y0220946D01*
X0296663Y0220946D01*
X0296663Y0219494D02*
X0296663Y0219011D01*
X0296180Y0219011D01*
X0296180Y0219494D01*
X0296663Y0219494D01*
X0297675Y0218527D02*
X0298159Y0218043D01*
X0298642Y0218043D01*
X0299610Y0219494D02*
X0299610Y0220946D01*
X0299610Y0216146D02*
X0297675Y0216146D01*
X0299610Y0214211D01*
X0297675Y0214211D01*
X0296663Y0214694D02*
X0296663Y0215662D01*
X0296180Y0216146D01*
X0295212Y0216146D01*
X0294728Y0215662D01*
X0294728Y0215178D01*
X0296663Y0215178D01*
X0296663Y0214694D02*
X0296180Y0214211D01*
X0295212Y0214211D01*
X0293717Y0214211D02*
X0293717Y0217113D01*
X0292266Y0216146D02*
X0293717Y0215178D01*
X0292266Y0214211D01*
X0293746Y0211346D02*
X0295198Y0211346D01*
X0295681Y0210862D01*
X0295681Y0209894D01*
X0295198Y0209411D01*
X0293746Y0209411D01*
X0293746Y0208927D02*
X0293746Y0211346D01*
X0293746Y0208927D02*
X0294230Y0208443D01*
X0294714Y0208443D01*
X0295703Y0206546D02*
X0295220Y0206062D01*
X0295220Y0204611D01*
X0297155Y0204611D02*
X0297155Y0206546D01*
X0295703Y0206546D01*
X0298166Y0206062D02*
X0298166Y0205578D01*
X0300101Y0205578D01*
X0300101Y0205094D02*
X0300101Y0206062D01*
X0299617Y0206546D01*
X0298650Y0206546D01*
X0298166Y0206062D01*
X0298650Y0204611D02*
X0299617Y0204611D01*
X0300101Y0205094D01*
X0301113Y0204611D02*
X0302564Y0204611D01*
X0303048Y0205094D01*
X0303048Y0206062D01*
X0302564Y0206546D01*
X0301113Y0206546D01*
X0301113Y0207513D02*
X0301113Y0204611D01*
X0304059Y0204611D02*
X0304059Y0207513D01*
X0304059Y0206546D02*
X0305510Y0206546D01*
X0305994Y0206062D01*
X0305994Y0205094D01*
X0305510Y0204611D01*
X0304059Y0204611D01*
X0306991Y0204611D02*
X0307958Y0204611D01*
X0307475Y0204611D02*
X0307475Y0206546D01*
X0307958Y0206546D01*
X0307475Y0207513D02*
X0307475Y0207997D01*
X0307497Y0209411D02*
X0307497Y0210862D01*
X0307980Y0211346D01*
X0309432Y0211346D01*
X0309432Y0209411D01*
X0310443Y0209894D02*
X0310443Y0210862D01*
X0310927Y0211346D01*
X0311895Y0211346D01*
X0312378Y0210862D01*
X0312378Y0209894D01*
X0311895Y0209411D01*
X0310927Y0209411D01*
X0310443Y0209894D01*
X0309923Y0207513D02*
X0309439Y0207513D01*
X0309439Y0204611D01*
X0309923Y0204611D02*
X0308955Y0204611D01*
X0310934Y0205094D02*
X0310934Y0206062D01*
X0311902Y0206062D01*
X0312869Y0207029D02*
X0312869Y0205094D01*
X0312386Y0204611D01*
X0311418Y0204611D01*
X0310934Y0205094D01*
X0310934Y0207029D02*
X0311418Y0207513D01*
X0312386Y0207513D01*
X0312869Y0207029D01*
X0313874Y0209411D02*
X0313390Y0209894D01*
X0313874Y0210378D01*
X0314841Y0210378D01*
X0315325Y0210862D01*
X0314841Y0211346D01*
X0313390Y0211346D01*
X0313874Y0209411D02*
X0315325Y0209411D01*
X0316322Y0209411D02*
X0317289Y0209411D01*
X0316805Y0209411D02*
X0316805Y0211346D01*
X0317289Y0211346D01*
X0318293Y0211346D02*
X0318777Y0211346D01*
X0319745Y0210378D01*
X0319745Y0209411D02*
X0319745Y0211346D01*
X0320749Y0211346D02*
X0321232Y0211346D01*
X0322200Y0210378D01*
X0322200Y0209411D02*
X0322200Y0211346D01*
X0323211Y0210862D02*
X0323211Y0209411D01*
X0324663Y0209411D01*
X0325146Y0209894D01*
X0324663Y0210378D01*
X0323211Y0210378D01*
X0323211Y0210862D02*
X0323695Y0211346D01*
X0324663Y0211346D01*
X0326158Y0210862D02*
X0328093Y0210862D01*
X0328093Y0209411D02*
X0328093Y0212313D01*
X0328093Y0214211D02*
X0328093Y0217113D01*
X0326642Y0217113D01*
X0326158Y0216629D01*
X0326158Y0215662D01*
X0326642Y0215178D01*
X0328093Y0215178D01*
X0325146Y0214694D02*
X0324663Y0215178D01*
X0323211Y0215178D01*
X0323211Y0215662D02*
X0323211Y0214211D01*
X0324663Y0214211D01*
X0325146Y0214694D01*
X0324663Y0216146D02*
X0323695Y0216146D01*
X0323211Y0215662D01*
X0322200Y0216146D02*
X0321232Y0216146D01*
X0321716Y0216629D02*
X0321716Y0214694D01*
X0321232Y0214211D01*
X0320236Y0214211D02*
X0320236Y0216146D01*
X0320236Y0215178D02*
X0319268Y0216146D01*
X0318784Y0216146D01*
X0317780Y0216146D02*
X0317296Y0216146D01*
X0317296Y0214211D01*
X0316813Y0214211D02*
X0317780Y0214211D01*
X0316805Y0212797D02*
X0316805Y0212313D01*
X0315332Y0214211D02*
X0313881Y0214211D01*
X0312869Y0214211D02*
X0312869Y0217113D01*
X0313881Y0216146D02*
X0315332Y0216146D01*
X0315816Y0215662D01*
X0315816Y0214694D01*
X0315332Y0214211D01*
X0312869Y0215178D02*
X0311418Y0216146D01*
X0312869Y0215178D02*
X0311418Y0214211D01*
X0306984Y0217113D02*
X0306016Y0217113D01*
X0305532Y0216629D01*
X0304521Y0215662D02*
X0304037Y0216146D01*
X0303539Y0212313D02*
X0303539Y0209411D01*
X0303539Y0210378D02*
X0301604Y0212313D01*
X0300592Y0211346D02*
X0300108Y0211346D01*
X0300108Y0209411D01*
X0299625Y0209411D02*
X0300592Y0209411D01*
X0301604Y0209411D02*
X0303055Y0210862D01*
X0300108Y0212313D02*
X0300108Y0212797D01*
X0298628Y0211346D02*
X0297177Y0211346D01*
X0296693Y0210862D01*
X0296693Y0209411D01*
X0298628Y0209411D02*
X0298628Y0211346D01*
X0308199Y0198413D02*
X0308199Y0197929D01*
X0310134Y0195994D01*
X0310134Y0195511D01*
X0311145Y0195511D02*
X0313080Y0195511D01*
X0312113Y0195511D02*
X0312113Y0198413D01*
X0313080Y0197446D01*
X0314092Y0197929D02*
X0316027Y0195994D01*
X0315543Y0195511D01*
X0314576Y0195511D01*
X0314092Y0195994D01*
X0314092Y0197929D01*
X0314576Y0198413D01*
X0315543Y0198413D01*
X0316027Y0197929D01*
X0316027Y0195994D01*
X0317038Y0195511D02*
X0318973Y0195511D01*
X0317038Y0197446D01*
X0317038Y0197929D01*
X0317522Y0198413D01*
X0318490Y0198413D01*
X0318973Y0197929D01*
X0319985Y0198413D02*
X0321920Y0195511D01*
X0322931Y0195994D02*
X0323415Y0195511D01*
X0324383Y0195511D01*
X0324866Y0195994D01*
X0322931Y0197929D01*
X0322931Y0195994D01*
X0322931Y0197929D02*
X0323415Y0198413D01*
X0324383Y0198413D01*
X0324866Y0197929D01*
X0324866Y0195994D01*
X0325878Y0195511D02*
X0327813Y0195511D01*
X0326846Y0195511D02*
X0326846Y0198413D01*
X0327813Y0197446D01*
X0328093Y0204611D02*
X0326642Y0204611D01*
X0326158Y0205094D01*
X0326158Y0205578D01*
X0326642Y0206062D01*
X0328093Y0206062D01*
X0328093Y0207513D02*
X0326642Y0207513D01*
X0326158Y0207029D01*
X0326158Y0206546D01*
X0326642Y0206062D01*
X0325146Y0206546D02*
X0325146Y0204611D01*
X0325146Y0205578D02*
X0324179Y0206546D01*
X0323695Y0206546D01*
X0322691Y0206062D02*
X0322207Y0206546D01*
X0321240Y0206546D01*
X0320756Y0206062D01*
X0320756Y0205578D01*
X0322691Y0205578D01*
X0322691Y0205094D02*
X0322691Y0206062D01*
X0322691Y0205094D02*
X0322207Y0204611D01*
X0321240Y0204611D01*
X0319261Y0205094D02*
X0318777Y0204611D01*
X0319261Y0205094D02*
X0319261Y0207029D01*
X0319745Y0206546D02*
X0318777Y0206546D01*
X0317780Y0206546D02*
X0316813Y0206546D01*
X0317296Y0207029D02*
X0317296Y0205094D01*
X0316813Y0204611D01*
X0310134Y0198413D02*
X0308199Y0198413D01*
X0328093Y0204611D02*
X0328093Y0207513D01*
X0326158Y0209411D02*
X0326158Y0212313D01*
X0326642Y0219011D02*
X0326158Y0219494D01*
X0326158Y0221429D01*
X0326642Y0221913D01*
X0328093Y0221913D01*
X0328093Y0219011D01*
X0326642Y0219011D01*
X0325146Y0219494D02*
X0325146Y0220462D01*
X0324663Y0220946D01*
X0323695Y0220946D01*
X0323211Y0220462D01*
X0323211Y0219978D01*
X0325146Y0219978D01*
X0325146Y0219494D02*
X0324663Y0219011D01*
X0323695Y0219011D01*
X0322200Y0219011D02*
X0320749Y0219011D01*
X0320265Y0219494D01*
X0320749Y0219978D01*
X0321716Y0219978D01*
X0322200Y0220462D01*
X0321716Y0220946D01*
X0320265Y0220946D01*
X0319253Y0220946D02*
X0318770Y0220946D01*
X0317296Y0217597D02*
X0317296Y0217113D01*
X0322760Y0230400D02*
X0321776Y0230990D01*
X0320791Y0232368D01*
X0320398Y0233352D01*
X0318823Y0241030D01*
X0318626Y0241620D01*
X0318035Y0242014D01*
X0317051Y0242211D01*
X0316854Y0242407D01*
X0320791Y0242407D01*
X0320791Y0242211D01*
X0319413Y0242014D01*
X0319413Y0241030D01*
X0320988Y0233352D01*
X0321579Y0232171D01*
X0321972Y0231581D01*
X0322760Y0230793D01*
X0324138Y0230203D01*
X0325122Y0230203D01*
X0325909Y0230400D01*
X0326894Y0230990D01*
X0327484Y0232565D01*
X0327287Y0233746D01*
X0325909Y0241226D01*
X0325713Y0241620D01*
X0325319Y0242014D01*
X0324138Y0242211D01*
X0324138Y0242407D01*
X0328665Y0242407D01*
X0328862Y0242211D01*
X0327681Y0242014D01*
X0327484Y0241817D01*
X0327287Y0241423D01*
X0328665Y0234533D01*
X0328862Y0232959D01*
X0328665Y0231778D01*
X0328075Y0230990D01*
X0326894Y0230203D01*
X0325909Y0230006D01*
X0323744Y0230006D01*
X0322760Y0230400D01*
X0323058Y0230280D02*
X0323957Y0230280D01*
X0323260Y0230579D02*
X0322461Y0230579D01*
X0322676Y0230877D02*
X0321964Y0230877D01*
X0321643Y0231176D02*
X0322377Y0231176D01*
X0322079Y0231474D02*
X0321430Y0231474D01*
X0321217Y0231773D02*
X0321844Y0231773D01*
X0321645Y0232071D02*
X0321003Y0232071D01*
X0320791Y0232370D02*
X0321479Y0232370D01*
X0321330Y0232668D02*
X0320671Y0232668D01*
X0320552Y0232967D02*
X0321181Y0232967D01*
X0321032Y0233265D02*
X0320432Y0233265D01*
X0320354Y0233564D02*
X0320945Y0233564D01*
X0320884Y0233862D02*
X0320293Y0233862D01*
X0320232Y0234161D02*
X0320822Y0234161D01*
X0320761Y0234459D02*
X0320171Y0234459D01*
X0320109Y0234758D02*
X0320700Y0234758D01*
X0320639Y0235056D02*
X0320048Y0235056D01*
X0319987Y0235355D02*
X0320577Y0235355D01*
X0320516Y0235653D02*
X0319926Y0235653D01*
X0319864Y0235952D02*
X0320455Y0235952D01*
X0320394Y0236251D02*
X0319803Y0236251D01*
X0319742Y0236549D02*
X0320332Y0236549D01*
X0320271Y0236848D02*
X0319681Y0236848D01*
X0319619Y0237146D02*
X0320210Y0237146D01*
X0320149Y0237445D02*
X0319558Y0237445D01*
X0319497Y0237743D02*
X0320088Y0237743D01*
X0320026Y0238042D02*
X0319436Y0238042D01*
X0319375Y0238340D02*
X0319965Y0238340D01*
X0319904Y0238639D02*
X0319313Y0238639D01*
X0319252Y0238937D02*
X0319843Y0238937D01*
X0319781Y0239236D02*
X0319191Y0239236D01*
X0319130Y0239534D02*
X0319720Y0239534D01*
X0319659Y0239833D02*
X0319068Y0239833D01*
X0319007Y0240131D02*
X0319598Y0240131D01*
X0319536Y0240430D02*
X0318946Y0240430D01*
X0318885Y0240728D02*
X0319475Y0240728D01*
X0319414Y0241027D02*
X0318823Y0241027D01*
X0318724Y0241325D02*
X0319413Y0241325D01*
X0319413Y0241624D02*
X0318621Y0241624D01*
X0318173Y0241922D02*
X0319413Y0241922D01*
X0320791Y0242221D02*
X0317041Y0242221D01*
X0324138Y0242221D02*
X0328852Y0242221D01*
X0327590Y0241922D02*
X0325410Y0241922D01*
X0325709Y0241624D02*
X0327388Y0241624D01*
X0327307Y0241325D02*
X0325860Y0241325D01*
X0325946Y0241027D02*
X0327367Y0241027D01*
X0327426Y0240728D02*
X0326001Y0240728D01*
X0326056Y0240430D02*
X0327486Y0240430D01*
X0327546Y0240131D02*
X0326111Y0240131D01*
X0326166Y0239833D02*
X0327606Y0239833D01*
X0327665Y0239534D02*
X0326221Y0239534D01*
X0326276Y0239236D02*
X0327725Y0239236D01*
X0327785Y0238937D02*
X0326331Y0238937D01*
X0326386Y0238639D02*
X0327844Y0238639D01*
X0327904Y0238340D02*
X0326441Y0238340D01*
X0326496Y0238042D02*
X0327964Y0238042D01*
X0328023Y0237743D02*
X0326551Y0237743D01*
X0326606Y0237445D02*
X0328083Y0237445D01*
X0328143Y0237146D02*
X0326661Y0237146D01*
X0326716Y0236848D02*
X0328203Y0236848D01*
X0328262Y0236549D02*
X0326771Y0236549D01*
X0326826Y0236251D02*
X0328322Y0236251D01*
X0328382Y0235952D02*
X0326881Y0235952D01*
X0326936Y0235653D02*
X0328441Y0235653D01*
X0328501Y0235355D02*
X0326991Y0235355D01*
X0327046Y0235056D02*
X0328561Y0235056D01*
X0328620Y0234758D02*
X0327101Y0234758D01*
X0327156Y0234459D02*
X0328675Y0234459D01*
X0328712Y0234161D02*
X0327211Y0234161D01*
X0327266Y0233862D02*
X0328749Y0233862D01*
X0328787Y0233564D02*
X0327318Y0233564D01*
X0327368Y0233265D02*
X0328824Y0233265D01*
X0328861Y0232967D02*
X0327417Y0232967D01*
X0327467Y0232668D02*
X0328814Y0232668D01*
X0328764Y0232370D02*
X0327411Y0232370D01*
X0327299Y0232071D02*
X0328714Y0232071D01*
X0328662Y0231773D02*
X0327187Y0231773D01*
X0327075Y0231474D02*
X0328438Y0231474D01*
X0328214Y0231176D02*
X0326963Y0231176D01*
X0326706Y0230877D02*
X0327906Y0230877D01*
X0327458Y0230579D02*
X0326208Y0230579D01*
X0325432Y0230280D02*
X0327010Y0230280D01*
X0301818Y0236251D02*
X0300549Y0236251D01*
X0300898Y0235952D02*
X0299810Y0235952D01*
X0299274Y0235653D02*
X0300500Y0235653D01*
X0300238Y0235355D02*
X0298975Y0235355D01*
X0298710Y0235056D02*
X0300088Y0235056D01*
X0299939Y0234758D02*
X0298561Y0234758D01*
X0298412Y0234459D02*
X0299871Y0234459D01*
X0299811Y0234161D02*
X0298350Y0234161D01*
X0298350Y0233862D02*
X0299752Y0233862D01*
X0299765Y0233564D02*
X0298350Y0233564D01*
X0298350Y0233265D02*
X0299824Y0233265D01*
X0299884Y0232967D02*
X0298350Y0232967D01*
X0298466Y0232668D02*
X0299972Y0232668D01*
X0300121Y0232370D02*
X0298586Y0232370D01*
X0298705Y0232071D02*
X0300270Y0232071D01*
X0300420Y0231773D02*
X0298946Y0231773D01*
X0299244Y0231474D02*
X0300622Y0231474D01*
X0300939Y0231176D02*
X0299543Y0231176D01*
X0300463Y0236848D02*
X0301833Y0236848D01*
X0300802Y0237146D02*
X0299818Y0237146D01*
X0300205Y0237445D02*
X0299221Y0237445D01*
X0298881Y0237743D02*
X0299929Y0237743D01*
X0299706Y0238042D02*
X0298582Y0238042D01*
X0298284Y0238340D02*
X0299505Y0238340D01*
X0299386Y0238639D02*
X0298041Y0238639D01*
X0297842Y0238937D02*
X0299266Y0238937D01*
X0321991Y0263714D02*
X0325594Y0263714D01*
X0325744Y0263117D02*
X0327259Y0263117D01*
X0327620Y0262818D02*
X0328092Y0262818D01*
X0326427Y0263415D02*
X0323868Y0263415D01*
X0323929Y0264311D02*
X0318238Y0264311D01*
X0316362Y0264609D02*
X0323096Y0264609D01*
X0322263Y0264908D02*
X0314486Y0264908D01*
X0312609Y0265206D02*
X0321431Y0265206D01*
X0320598Y0265505D02*
X0310733Y0265505D01*
X0308857Y0265803D02*
X0319765Y0265803D01*
X0318932Y0266102D02*
X0306980Y0266102D01*
X0305104Y0266400D02*
X0318100Y0266400D01*
X0320115Y0264012D02*
X0324761Y0264012D01*
X0141507Y0214768D02*
X0140540Y0215736D01*
X0140540Y0212833D01*
X0141507Y0212833D02*
X0139573Y0212833D01*
X0133633Y0212663D02*
X0133016Y0212046D01*
X0131782Y0212046D01*
X0131165Y0212663D01*
X0131165Y0213280D01*
X0131782Y0213897D01*
X0132399Y0213897D01*
X0131782Y0213897D02*
X0131165Y0214514D01*
X0131165Y0215132D01*
X0131782Y0215749D01*
X0133016Y0215749D01*
X0133633Y0215132D01*
X0129950Y0212663D02*
X0129950Y0212046D01*
X0129333Y0212046D01*
X0129333Y0212663D01*
X0129950Y0212663D01*
X0128109Y0212663D02*
X0127492Y0212046D01*
X0126257Y0212046D01*
X0125640Y0212663D01*
X0125640Y0213280D01*
X0126257Y0213897D01*
X0126874Y0213897D01*
X0126257Y0213897D02*
X0125640Y0214514D01*
X0125640Y0215132D01*
X0126257Y0215749D01*
X0127492Y0215749D01*
X0128109Y0215132D01*
X0124426Y0215749D02*
X0124426Y0213280D01*
X0123191Y0212046D01*
X0121957Y0213280D01*
X0121957Y0215749D01*
X0120222Y0221101D02*
X0118370Y0221101D01*
X0117753Y0221718D01*
X0117753Y0224187D01*
X0118370Y0224804D01*
X0120222Y0224804D01*
X0120222Y0221101D01*
X0121436Y0222952D02*
X0123905Y0222952D01*
X0125119Y0222952D02*
X0125119Y0221718D01*
X0125737Y0221101D01*
X0126971Y0221101D01*
X0127588Y0221718D01*
X0127588Y0222952D02*
X0126354Y0223570D01*
X0125737Y0223570D01*
X0125119Y0222952D01*
X0125119Y0224804D02*
X0127588Y0224804D01*
X0127588Y0222952D01*
X0128802Y0221101D02*
X0131271Y0221101D01*
X0130037Y0221101D02*
X0130037Y0224804D01*
X0131271Y0223570D01*
X0116539Y0223570D02*
X0115921Y0222952D01*
X0114687Y0222952D01*
X0114070Y0222335D01*
X0114070Y0221718D01*
X0114687Y0221101D01*
X0115921Y0221101D01*
X0116539Y0221718D01*
X0116539Y0223570D02*
X0116539Y0224187D01*
X0115921Y0224804D01*
X0114687Y0224804D01*
X0114070Y0224187D01*
X0112856Y0224804D02*
X0112856Y0221718D01*
X0112238Y0221101D01*
X0111004Y0221101D01*
X0110387Y0221718D01*
X0110387Y0224804D01*
X0109172Y0224804D02*
X0107321Y0224804D01*
X0106704Y0224187D01*
X0106704Y0223570D01*
X0107321Y0222952D01*
X0109172Y0222952D01*
X0107321Y0222952D02*
X0106704Y0222335D01*
X0106704Y0221718D01*
X0107321Y0221101D01*
X0109172Y0221101D01*
X0109172Y0224804D01*
X0101806Y0224804D02*
X0101806Y0221101D01*
X0101806Y0222335D02*
X0099955Y0222335D01*
X0099337Y0222952D01*
X0099337Y0224187D01*
X0099955Y0224804D01*
X0101806Y0224804D01*
X0098123Y0224804D02*
X0096889Y0224804D01*
X0097506Y0224804D02*
X0097506Y0221101D01*
X0098123Y0221101D02*
X0096889Y0221101D01*
X0095668Y0221101D02*
X0095668Y0224804D01*
X0093199Y0221101D01*
X0093199Y0224804D01*
X0091984Y0224187D02*
X0091984Y0221718D01*
X0091367Y0221101D01*
X0090133Y0221101D01*
X0089516Y0221718D01*
X0089516Y0224187D01*
X0090133Y0224804D01*
X0091367Y0224804D01*
X0091984Y0224187D01*
X0088301Y0224804D02*
X0088301Y0221718D01*
X0087684Y0221101D01*
X0086450Y0221101D01*
X0085832Y0221718D01*
X0085832Y0224804D01*
X0084618Y0224804D02*
X0082149Y0224804D01*
X0083384Y0224804D02*
X0083384Y0221101D01*
X0085269Y0215355D02*
X0084035Y0214121D01*
X0084035Y0211652D01*
X0084035Y0213504D02*
X0086503Y0213504D01*
X0086503Y0214121D02*
X0085269Y0215355D01*
X0086503Y0214121D02*
X0086503Y0211652D01*
X0087718Y0211035D02*
X0090187Y0211035D01*
X0091401Y0212269D02*
X0091401Y0214738D01*
X0092018Y0215355D01*
X0093870Y0215355D01*
X0093870Y0211652D01*
X0092018Y0211652D01*
X0091401Y0212269D01*
X0092018Y0207481D02*
X0093870Y0207481D01*
X0093870Y0203778D01*
X0092018Y0203778D01*
X0091401Y0204395D01*
X0091401Y0206864D01*
X0092018Y0207481D01*
X0090187Y0203161D02*
X0087718Y0203161D01*
X0086503Y0203778D02*
X0086503Y0207481D01*
X0084652Y0207481D01*
X0084035Y0206864D01*
X0084035Y0206247D01*
X0084652Y0205630D01*
X0086503Y0205630D01*
X0084652Y0205630D02*
X0084035Y0205012D01*
X0084035Y0204395D01*
X0084652Y0203778D01*
X0086503Y0203778D01*
X0085656Y0191733D02*
X0085656Y0188030D01*
X0088125Y0191733D01*
X0088125Y0188030D01*
X0089346Y0188030D02*
X0090580Y0188030D01*
X0089963Y0188030D02*
X0089963Y0191733D01*
X0090580Y0191733D02*
X0089346Y0191733D01*
X0091795Y0190499D02*
X0091795Y0188030D01*
X0091795Y0189881D02*
X0094263Y0189881D01*
X0094263Y0190499D02*
X0093029Y0191733D01*
X0091795Y0190499D01*
X0094263Y0190499D02*
X0094263Y0188030D01*
X0093029Y0183859D02*
X0091795Y0182625D01*
X0091795Y0180156D01*
X0090580Y0180156D02*
X0089346Y0180156D01*
X0089963Y0180156D02*
X0089963Y0183859D01*
X0090580Y0183859D02*
X0089346Y0183859D01*
X0088125Y0183859D02*
X0085656Y0180156D01*
X0085656Y0183859D01*
X0088125Y0183859D02*
X0088125Y0180156D01*
X0084442Y0179539D02*
X0081973Y0179539D01*
X0080759Y0180156D02*
X0078907Y0180156D01*
X0078290Y0180773D01*
X0078290Y0181390D01*
X0078907Y0182007D01*
X0080759Y0182007D01*
X0080759Y0180156D02*
X0080759Y0183859D01*
X0078907Y0183859D01*
X0078290Y0183242D01*
X0078290Y0182625D01*
X0078907Y0182007D01*
X0073397Y0182485D02*
X0072430Y0183452D01*
X0072430Y0180550D01*
X0073397Y0180550D02*
X0071462Y0180550D01*
X0070451Y0181033D02*
X0069967Y0180550D01*
X0068999Y0180550D01*
X0068516Y0181033D01*
X0068516Y0182001D01*
X0068999Y0182485D01*
X0069483Y0182485D01*
X0070451Y0182001D01*
X0070451Y0183452D01*
X0068516Y0183452D01*
X0078290Y0188030D02*
X0078290Y0190499D01*
X0079524Y0191733D01*
X0080759Y0190499D01*
X0080759Y0188030D01*
X0081973Y0187413D02*
X0084442Y0187413D01*
X0080759Y0189881D02*
X0078290Y0189881D01*
X0091795Y0182007D02*
X0094263Y0182007D01*
X0094263Y0182625D02*
X0093029Y0183859D01*
X0094263Y0182625D02*
X0094263Y0180156D01*
X0103720Y0180156D02*
X0106188Y0180156D01*
X0106188Y0183859D01*
X0107403Y0183242D02*
X0108020Y0183859D01*
X0109254Y0183859D01*
X0109872Y0183242D01*
X0109872Y0180773D01*
X0109254Y0180156D01*
X0108020Y0180156D01*
X0107403Y0180773D01*
X0111086Y0180773D02*
X0111703Y0180156D01*
X0112938Y0180156D01*
X0113555Y0180773D01*
X0112938Y0182007D02*
X0111703Y0182007D01*
X0111086Y0181390D01*
X0111086Y0180773D01*
X0112938Y0182007D02*
X0113555Y0182625D01*
X0113555Y0183242D01*
X0112938Y0183859D01*
X0111703Y0183859D01*
X0111086Y0183242D01*
X0111703Y0188030D02*
X0112938Y0188030D01*
X0113555Y0188647D01*
X0112938Y0189881D02*
X0111703Y0189881D01*
X0111086Y0189264D01*
X0111086Y0188647D01*
X0111703Y0188030D01*
X0109872Y0188030D02*
X0109872Y0191733D01*
X0108020Y0191733D01*
X0107403Y0191116D01*
X0107403Y0188647D01*
X0108020Y0188030D01*
X0109872Y0188030D01*
X0111086Y0191116D02*
X0111703Y0191733D01*
X0112938Y0191733D01*
X0113555Y0191116D01*
X0113555Y0190499D01*
X0112938Y0189881D01*
X0112938Y0195904D02*
X0113555Y0196521D01*
X0112938Y0195904D02*
X0111703Y0195904D01*
X0111086Y0196521D01*
X0111086Y0197138D01*
X0111703Y0197756D01*
X0112938Y0197756D01*
X0113555Y0198373D01*
X0113555Y0198990D01*
X0112938Y0199607D01*
X0111703Y0199607D01*
X0111086Y0198990D01*
X0109872Y0198990D02*
X0109254Y0199607D01*
X0108020Y0199607D01*
X0107403Y0198990D01*
X0106188Y0199607D02*
X0106188Y0195904D01*
X0106188Y0197138D02*
X0103720Y0199607D01*
X0105571Y0197756D02*
X0103720Y0195904D01*
X0107403Y0196521D02*
X0108020Y0195904D01*
X0109254Y0195904D01*
X0109872Y0196521D01*
X0109872Y0198990D01*
X0109254Y0203778D02*
X0108020Y0203778D01*
X0107403Y0204395D01*
X0107403Y0206864D01*
X0108020Y0207481D01*
X0109254Y0207481D01*
X0109872Y0206864D01*
X0109872Y0204395D01*
X0109254Y0203778D01*
X0111086Y0203778D02*
X0111086Y0207481D01*
X0112320Y0206247D01*
X0113555Y0207481D01*
X0113555Y0203778D01*
X0106188Y0204395D02*
X0105571Y0203778D01*
X0104337Y0203778D01*
X0103720Y0204395D01*
X0103720Y0205012D01*
X0104337Y0205630D01*
X0105571Y0205630D01*
X0106188Y0206247D01*
X0106188Y0206864D01*
X0105571Y0207481D01*
X0104337Y0207481D01*
X0103720Y0206864D01*
X0102505Y0207481D02*
X0101271Y0207481D01*
X0101888Y0207481D02*
X0101888Y0203778D01*
X0102505Y0203778D02*
X0101271Y0203778D01*
X0101881Y0211652D02*
X0101264Y0212269D01*
X0101264Y0214738D01*
X0101881Y0215355D01*
X0103116Y0215355D01*
X0103733Y0214738D01*
X0103733Y0212269D01*
X0103116Y0211652D01*
X0101881Y0211652D01*
X0104947Y0212269D02*
X0104947Y0212886D01*
X0105565Y0213504D01*
X0106799Y0213504D01*
X0107416Y0214121D01*
X0107416Y0214738D01*
X0106799Y0215355D01*
X0105565Y0215355D01*
X0104947Y0214738D01*
X0104947Y0212269D02*
X0105565Y0211652D01*
X0106799Y0211652D01*
X0107416Y0212269D01*
X0108637Y0211652D02*
X0109872Y0211652D01*
X0109254Y0211652D02*
X0109254Y0215355D01*
X0108637Y0215355D02*
X0109872Y0215355D01*
X0111086Y0215355D02*
X0111086Y0211652D01*
X0113555Y0211652D02*
X0113555Y0215355D01*
X0112320Y0214121D01*
X0111086Y0215355D01*
X0123798Y0206864D02*
X0123798Y0204395D01*
X0124416Y0203778D01*
X0126267Y0203778D01*
X0126267Y0207481D01*
X0124416Y0207481D01*
X0123798Y0206864D01*
X0127482Y0207481D02*
X0127482Y0203778D01*
X0129950Y0207481D01*
X0129950Y0203778D01*
X0131165Y0204395D02*
X0131165Y0205630D01*
X0132399Y0205630D01*
X0131165Y0206864D02*
X0131782Y0207481D01*
X0133016Y0207481D01*
X0133633Y0206864D01*
X0133633Y0204395D01*
X0133016Y0203778D01*
X0131782Y0203778D01*
X0131165Y0204395D01*
X0131165Y0200001D02*
X0131165Y0196298D01*
X0129950Y0197532D02*
X0129950Y0200001D01*
X0131165Y0198149D02*
X0133633Y0198149D01*
X0133633Y0196298D02*
X0133633Y0200001D01*
X0129950Y0197532D02*
X0128716Y0196298D01*
X0127482Y0197532D01*
X0127482Y0200001D01*
X0127482Y0192127D02*
X0129950Y0188424D01*
X0131165Y0188424D02*
X0132399Y0189658D01*
X0131782Y0189658D02*
X0133633Y0189658D01*
X0133633Y0188424D02*
X0133633Y0192127D01*
X0131782Y0192127D01*
X0131165Y0191510D01*
X0131165Y0190275D01*
X0131782Y0189658D01*
X0129950Y0192127D02*
X0127482Y0188424D01*
X0127875Y0184253D02*
X0130344Y0180550D01*
X0132793Y0180550D02*
X0132793Y0184253D01*
X0134027Y0184253D02*
X0131558Y0184253D01*
X0130344Y0184253D02*
X0127875Y0180550D01*
X0127504Y0161418D02*
X0126270Y0161418D01*
X0125653Y0160801D01*
X0125653Y0158332D01*
X0126270Y0157715D01*
X0127504Y0157715D01*
X0128122Y0158332D01*
X0127504Y0159567D02*
X0125653Y0159567D01*
X0124439Y0159567D02*
X0121970Y0159567D01*
X0120755Y0161418D02*
X0120755Y0157715D01*
X0118904Y0157715D01*
X0118287Y0158332D01*
X0118287Y0160801D01*
X0118904Y0161418D01*
X0120755Y0161418D01*
X0117072Y0160801D02*
X0117072Y0160184D01*
X0116455Y0159567D01*
X0115221Y0159567D01*
X0114603Y0158949D01*
X0114603Y0158332D01*
X0115221Y0157715D01*
X0116455Y0157715D01*
X0117072Y0158332D01*
X0117072Y0160801D02*
X0116455Y0161418D01*
X0115221Y0161418D01*
X0114603Y0160801D01*
X0113389Y0161418D02*
X0113389Y0158332D01*
X0112772Y0157715D01*
X0111537Y0157715D01*
X0110920Y0158332D01*
X0110920Y0161418D01*
X0109706Y0161418D02*
X0107854Y0161418D01*
X0107237Y0160801D01*
X0107237Y0160184D01*
X0107854Y0159567D01*
X0109706Y0159567D01*
X0109706Y0161418D02*
X0109706Y0157715D01*
X0107854Y0157715D01*
X0107237Y0158332D01*
X0107237Y0158949D01*
X0107854Y0159567D01*
X0102340Y0158949D02*
X0100488Y0158949D01*
X0099871Y0159567D01*
X0099871Y0160801D01*
X0100488Y0161418D01*
X0102340Y0161418D01*
X0102340Y0157715D01*
X0098656Y0157715D02*
X0097422Y0157715D01*
X0098039Y0157715D02*
X0098039Y0161418D01*
X0098656Y0161418D02*
X0097422Y0161418D01*
X0096201Y0161418D02*
X0093732Y0157715D01*
X0093732Y0161418D01*
X0092518Y0160801D02*
X0091901Y0161418D01*
X0090666Y0161418D01*
X0090049Y0160801D01*
X0090049Y0158332D01*
X0090666Y0157715D01*
X0091901Y0157715D01*
X0092518Y0158332D01*
X0092518Y0160801D01*
X0096201Y0161418D02*
X0096201Y0157715D01*
X0088835Y0158332D02*
X0088218Y0157715D01*
X0086983Y0157715D01*
X0086366Y0158332D01*
X0086366Y0161418D01*
X0085152Y0161418D02*
X0082683Y0161418D01*
X0083917Y0161418D02*
X0083917Y0157715D01*
X0088835Y0158332D02*
X0088835Y0161418D01*
X0087718Y0144883D02*
X0087718Y0141180D01*
X0090187Y0144883D01*
X0090187Y0141180D01*
X0091401Y0141797D02*
X0091401Y0143031D01*
X0092635Y0143031D01*
X0091401Y0141797D02*
X0092018Y0141180D01*
X0093252Y0141180D01*
X0093870Y0141797D01*
X0093870Y0144265D01*
X0093252Y0144883D01*
X0092018Y0144883D01*
X0091401Y0144265D01*
X0086503Y0144883D02*
X0086503Y0141180D01*
X0084652Y0141180D01*
X0084035Y0141797D01*
X0084035Y0144265D01*
X0084652Y0144883D01*
X0086503Y0144883D01*
X0087731Y0137009D02*
X0085262Y0133306D01*
X0085262Y0137009D01*
X0084048Y0137009D02*
X0081579Y0137009D01*
X0081579Y0136391D01*
X0084048Y0133923D01*
X0084048Y0133306D01*
X0087731Y0133306D02*
X0087731Y0137009D01*
X0088952Y0137009D02*
X0090187Y0137009D01*
X0089569Y0137009D02*
X0089569Y0133306D01*
X0088952Y0133306D02*
X0090187Y0133306D01*
X0091401Y0133306D02*
X0091401Y0135774D01*
X0092635Y0137009D01*
X0093870Y0135774D01*
X0093870Y0133306D01*
X0093870Y0135157D02*
X0091401Y0135157D01*
X0101264Y0134540D02*
X0101881Y0135157D01*
X0103733Y0135157D01*
X0103733Y0133923D01*
X0103116Y0133306D01*
X0101881Y0133306D01*
X0101264Y0133923D01*
X0101264Y0134540D01*
X0102499Y0136391D02*
X0103733Y0135157D01*
X0102499Y0136391D02*
X0101264Y0137009D01*
X0104947Y0137009D02*
X0104947Y0133306D01*
X0107416Y0137009D01*
X0107416Y0133306D01*
X0108637Y0133306D02*
X0109872Y0133306D01*
X0109254Y0133306D02*
X0109254Y0137009D01*
X0108637Y0137009D02*
X0109872Y0137009D01*
X0111086Y0135774D02*
X0111086Y0133306D01*
X0111086Y0135157D02*
X0113555Y0135157D01*
X0113555Y0135774D02*
X0112320Y0137009D01*
X0111086Y0135774D01*
X0113555Y0135774D02*
X0113555Y0133306D01*
X0128716Y0149054D02*
X0127482Y0150288D01*
X0127482Y0152757D01*
X0129950Y0152757D02*
X0129950Y0150288D01*
X0128716Y0149054D01*
X0131165Y0149054D02*
X0131165Y0152757D01*
X0131165Y0150905D02*
X0133633Y0150905D01*
X0133633Y0149054D02*
X0133633Y0152757D01*
X0137998Y0149054D02*
X0139933Y0149054D01*
X0138965Y0149054D02*
X0138965Y0151956D01*
X0139933Y0150989D01*
X0128122Y0160184D02*
X0127504Y0159567D01*
X0128122Y0160184D02*
X0128122Y0160801D01*
X0127504Y0161418D01*
X0106188Y0188030D02*
X0106188Y0190499D01*
X0104954Y0191733D01*
X0103720Y0190499D01*
X0103720Y0188030D01*
X0103720Y0189881D02*
X0106188Y0189881D01*
X0072914Y0135814D02*
X0073397Y0135331D01*
X0073397Y0134847D01*
X0072914Y0134363D01*
X0071462Y0134363D01*
X0071462Y0133396D02*
X0071462Y0135331D01*
X0071946Y0135814D01*
X0072914Y0135814D01*
X0073397Y0133396D02*
X0072914Y0132912D01*
X0071946Y0132912D01*
X0071462Y0133396D01*
D12*
X0076303Y0131187D02*
X0095988Y0131187D01*
X0095988Y0146935D01*
X0076303Y0146935D01*
X0076303Y0139061D01*
X0115673Y0139061D01*
X0135358Y0139061D01*
X0135358Y0131187D01*
X0115673Y0131187D01*
X0115673Y0139061D01*
X0115673Y0146935D01*
X0135358Y0146935D01*
X0135358Y0139061D01*
X0135358Y0146935D02*
X0135358Y0154809D01*
X0115673Y0154809D01*
X0115673Y0146935D01*
X0095988Y0146935D01*
X0095988Y0154809D01*
X0076303Y0154809D01*
X0076303Y0146935D01*
X0076303Y0139061D02*
X0076303Y0131187D01*
X0095988Y0131187D02*
X0115673Y0131187D01*
X0115673Y0154809D02*
X0095988Y0154809D01*
X0095988Y0178431D02*
X0076303Y0178431D01*
X0076303Y0186305D01*
X0115673Y0186305D01*
X0135358Y0186305D01*
X0135358Y0194179D01*
X0135358Y0202053D01*
X0115673Y0202053D01*
X0076303Y0202053D01*
X0076303Y0194179D01*
X0115673Y0194179D01*
X0135358Y0194179D01*
X0135358Y0202053D02*
X0135358Y0209927D01*
X0115673Y0209927D01*
X0076303Y0209927D01*
X0076303Y0202053D01*
X0076303Y0194179D02*
X0076303Y0186305D01*
X0095988Y0178431D02*
X0095988Y0217801D01*
X0076303Y0217801D01*
X0076303Y0209927D01*
X0095988Y0217801D02*
X0115673Y0217801D01*
X0135358Y0217801D01*
X0135358Y0209927D01*
X0115673Y0209927D02*
X0115673Y0202053D01*
X0115673Y0194179D01*
X0115673Y0186305D01*
X0115673Y0178431D01*
X0135358Y0178431D01*
X0135358Y0186305D01*
X0115673Y0178431D02*
X0095988Y0178431D01*
X0115673Y0209927D02*
X0115673Y0217801D01*
D13*
X0094707Y0198109D02*
X0093973Y0198843D01*
X0093239Y0198109D01*
X0093239Y0196641D01*
X0092497Y0196641D02*
X0092497Y0198843D01*
X0091396Y0198843D01*
X0091029Y0198476D01*
X0091029Y0197742D01*
X0091396Y0197375D01*
X0092497Y0197375D01*
X0091763Y0197375D02*
X0091029Y0196641D01*
X0090287Y0196641D02*
X0088819Y0196641D01*
X0088077Y0196641D02*
X0088077Y0198843D01*
X0086610Y0198843D01*
X0087343Y0197742D02*
X0088077Y0197742D01*
X0088819Y0198843D02*
X0090287Y0198843D01*
X0090287Y0196641D01*
X0090287Y0197742D02*
X0089553Y0197742D01*
X0093239Y0197742D02*
X0094707Y0197742D01*
X0094707Y0198109D02*
X0094707Y0196641D01*
X0085868Y0196641D02*
X0084400Y0198843D01*
X0083658Y0198843D02*
X0082557Y0198843D01*
X0082190Y0198476D01*
X0082190Y0197008D01*
X0082557Y0196641D01*
X0083658Y0196641D01*
X0083658Y0198843D01*
X0081448Y0196274D02*
X0079980Y0196274D01*
X0079238Y0197008D02*
X0078871Y0196641D01*
X0078137Y0196641D01*
X0077770Y0197008D01*
X0079238Y0197008D02*
X0079238Y0198476D01*
X0078871Y0198843D01*
X0078137Y0198843D01*
X0077770Y0198476D01*
X0079139Y0151599D02*
X0079139Y0149397D01*
X0079873Y0149397D02*
X0078405Y0149397D01*
X0079873Y0150865D02*
X0079139Y0151599D01*
X0080615Y0149030D02*
X0082083Y0149030D01*
X0083559Y0149397D02*
X0083559Y0151599D01*
X0084293Y0151599D02*
X0082825Y0151599D01*
X0085035Y0151599D02*
X0085035Y0149764D01*
X0085402Y0149397D01*
X0086136Y0149397D01*
X0086503Y0149764D01*
X0086503Y0151599D01*
X0087245Y0151232D02*
X0087612Y0151599D01*
X0088346Y0151599D01*
X0088713Y0151232D01*
X0088713Y0149764D01*
X0088346Y0149397D01*
X0087612Y0149397D01*
X0087245Y0149764D01*
X0087245Y0151232D01*
X0089454Y0151599D02*
X0089454Y0150131D01*
X0090188Y0149397D01*
X0090922Y0150131D01*
X0090922Y0151599D01*
X0091664Y0151599D02*
X0091664Y0149397D01*
X0091664Y0150498D02*
X0093132Y0150498D01*
X0093132Y0149397D02*
X0093132Y0151599D01*
X0098484Y0151232D02*
X0098484Y0149764D01*
X0098851Y0149397D01*
X0099585Y0149397D01*
X0099952Y0149764D01*
X0098484Y0151232D01*
X0098851Y0151599D01*
X0099585Y0151599D01*
X0099952Y0151232D01*
X0099952Y0149764D01*
X0100694Y0149030D02*
X0102162Y0149030D01*
X0103638Y0149397D02*
X0103638Y0151599D01*
X0104372Y0151599D02*
X0102904Y0151599D01*
X0105113Y0151599D02*
X0105113Y0149764D01*
X0105480Y0149397D01*
X0106214Y0149397D01*
X0106581Y0149764D01*
X0106581Y0151599D01*
X0107323Y0151232D02*
X0107323Y0149764D01*
X0107690Y0149397D01*
X0108424Y0149397D01*
X0108791Y0149764D01*
X0108791Y0151232D01*
X0108424Y0151599D01*
X0107690Y0151599D01*
X0107323Y0151232D01*
X0109533Y0151599D02*
X0109533Y0150131D01*
X0110267Y0149397D01*
X0111001Y0150131D01*
X0111001Y0151599D01*
X0111743Y0151599D02*
X0111743Y0149397D01*
X0111743Y0150498D02*
X0113211Y0150498D01*
X0113211Y0149397D02*
X0113211Y0151599D01*
X0113605Y0143725D02*
X0113605Y0141523D01*
X0113605Y0142624D02*
X0112137Y0142624D01*
X0111395Y0142257D02*
X0110661Y0141523D01*
X0109927Y0142257D01*
X0109927Y0143725D01*
X0109185Y0143358D02*
X0109185Y0141890D01*
X0108818Y0141523D01*
X0108084Y0141523D01*
X0107717Y0141890D01*
X0107717Y0143358D01*
X0108084Y0143725D01*
X0108818Y0143725D01*
X0109185Y0143358D01*
X0111395Y0143725D02*
X0111395Y0142257D01*
X0112137Y0141523D02*
X0112137Y0143725D01*
X0118169Y0143358D02*
X0118536Y0143725D01*
X0119270Y0143725D01*
X0119637Y0143358D01*
X0118169Y0143358D02*
X0118169Y0142991D01*
X0119637Y0141523D01*
X0118169Y0141523D01*
X0120379Y0141156D02*
X0121847Y0141156D01*
X0123323Y0141523D02*
X0123323Y0143725D01*
X0124057Y0143725D02*
X0122589Y0143725D01*
X0124799Y0143725D02*
X0124799Y0141890D01*
X0125165Y0141523D01*
X0125899Y0141523D01*
X0126266Y0141890D01*
X0126266Y0143725D01*
X0127008Y0143358D02*
X0127375Y0143725D01*
X0128109Y0143725D01*
X0128476Y0143358D01*
X0128476Y0141890D01*
X0128109Y0141523D01*
X0127375Y0141523D01*
X0127008Y0141890D01*
X0127008Y0143358D01*
X0129218Y0143725D02*
X0129218Y0142257D01*
X0129952Y0141523D01*
X0130686Y0142257D01*
X0130686Y0143725D01*
X0131428Y0143725D02*
X0131428Y0141523D01*
X0131428Y0142624D02*
X0132896Y0142624D01*
X0132896Y0141523D02*
X0132896Y0143725D01*
X0132162Y0136245D02*
X0131428Y0135511D01*
X0131428Y0134043D01*
X0130686Y0134043D02*
X0130686Y0136245D01*
X0129585Y0136245D01*
X0129218Y0135878D01*
X0129218Y0135144D01*
X0129585Y0134777D01*
X0130686Y0134777D01*
X0129952Y0134777D02*
X0129218Y0134043D01*
X0128476Y0134043D02*
X0127008Y0134043D01*
X0126266Y0134043D02*
X0126266Y0136245D01*
X0124799Y0136245D01*
X0125532Y0135144D02*
X0126266Y0135144D01*
X0127008Y0136245D02*
X0128476Y0136245D01*
X0128476Y0134043D01*
X0128476Y0135144D02*
X0127742Y0135144D01*
X0131428Y0135144D02*
X0132896Y0135144D01*
X0132896Y0135511D02*
X0132162Y0136245D01*
X0132896Y0135511D02*
X0132896Y0134043D01*
X0124057Y0134043D02*
X0122589Y0136245D01*
X0121847Y0136245D02*
X0120746Y0136245D01*
X0120379Y0135878D01*
X0120379Y0134410D01*
X0120746Y0134043D01*
X0121847Y0134043D01*
X0121847Y0136245D01*
X0119637Y0135878D02*
X0119637Y0135511D01*
X0119270Y0135144D01*
X0118169Y0135144D01*
X0118169Y0135878D02*
X0118536Y0136245D01*
X0119270Y0136245D01*
X0119637Y0135878D01*
X0119637Y0134410D02*
X0119270Y0134043D01*
X0118536Y0134043D01*
X0118169Y0134410D01*
X0118169Y0135878D01*
X0106975Y0141890D02*
X0106608Y0141523D01*
X0105874Y0141523D01*
X0105507Y0141890D01*
X0105507Y0143725D01*
X0104765Y0143725D02*
X0103297Y0143725D01*
X0104031Y0143725D02*
X0104031Y0141523D01*
X0102555Y0141156D02*
X0101087Y0141156D01*
X0100345Y0141890D02*
X0099978Y0141523D01*
X0099245Y0141523D01*
X0098878Y0141890D01*
X0098878Y0142257D01*
X0099245Y0142624D01*
X0099611Y0142624D01*
X0099245Y0142624D02*
X0098878Y0142991D01*
X0098878Y0143358D01*
X0099245Y0143725D01*
X0099978Y0143725D01*
X0100345Y0143358D01*
X0106975Y0143725D02*
X0106975Y0141890D01*
M02*
