G75*
%MOIN*%
%OFA0B0*%
%FSLAX25Y25*%
%IPPOS*%
%LPD*%
%AMOC8*
5,1,8,0,0,1.08239X$1,22.5*
%
%ADD10OC8,0.05906*%
%ADD11R,0.09449X0.09449*%
%ADD12OC8,0.06000*%
%ADD13R,0.04429X0.04429*%
%ADD14R,0.04724X0.04724*%
%ADD15OC8,0.08500*%
%ADD16R,0.05020X0.05020*%
%ADD17C,0.02178*%
%ADD18C,0.02375*%
%ADD19C,0.02657*%
%ADD20C,0.01000*%
%ADD21C,0.01981*%
%ADD22C,0.00787*%
%ADD23C,0.02400*%
%ADD24C,0.00800*%
%ADD25C,0.03543*%
%ADD26C,0.01600*%
%ADD27C,0.01200*%
D10*
X0046654Y0103974D03*
X0036654Y0108482D03*
X0046654Y0112990D03*
X0046654Y0122005D03*
X0036654Y0117498D03*
X0036654Y0126513D03*
X0046654Y0131021D03*
X0036654Y0135529D03*
X0036654Y0144545D03*
X0046654Y0140037D03*
X0056654Y0144545D03*
X0056654Y0135529D03*
X0056654Y0126513D03*
X0056654Y0117498D03*
X0056654Y0108482D03*
X0046500Y0237648D03*
X0036500Y0242156D03*
X0046500Y0246663D03*
X0036500Y0251171D03*
X0036500Y0260187D03*
X0046500Y0255679D03*
X0046500Y0264695D03*
X0036500Y0269203D03*
X0046500Y0273711D03*
X0036500Y0278219D03*
X0056500Y0278219D03*
X0056500Y0269203D03*
X0056500Y0260187D03*
X0056500Y0251171D03*
X0056500Y0242156D03*
X0339834Y0142233D03*
X0339834Y0133217D03*
X0339834Y0124201D03*
X0339834Y0115185D03*
X0339834Y0106170D03*
X0349834Y0110677D03*
X0359834Y0106170D03*
X0359834Y0115185D03*
X0349834Y0119693D03*
X0359834Y0124201D03*
X0349834Y0128709D03*
X0349834Y0137725D03*
X0359834Y0142233D03*
X0349834Y0146740D03*
X0359834Y0133217D03*
X0352278Y0237436D03*
X0363459Y0242908D03*
X0363459Y0253814D03*
X0352278Y0259247D03*
X0352278Y0248341D03*
X0363459Y0264719D03*
X0363459Y0275625D03*
X0352278Y0281058D03*
X0352278Y0270153D03*
D11*
X0354368Y0045328D03*
X0354368Y0020328D03*
D12*
X0139610Y0300974D03*
X0129610Y0300974D03*
X0119610Y0300974D03*
X0109610Y0300974D03*
X0099610Y0300974D03*
X0099610Y0310974D03*
X0109610Y0310974D03*
X0119610Y0310974D03*
X0129610Y0310974D03*
X0139610Y0310974D03*
D13*
X0265280Y0221722D03*
X0273154Y0221722D03*
X0273154Y0213848D03*
X0273154Y0205974D03*
X0265280Y0205974D03*
X0265280Y0213848D03*
D14*
X0255594Y0056368D03*
X0245594Y0056368D03*
X0235594Y0056368D03*
D15*
X0257406Y0016998D03*
D16*
X0127327Y0118100D03*
X0097406Y0118100D03*
D17*
X0084177Y0119360D03*
X0079846Y0138258D03*
X0103862Y0170541D03*
X0120004Y0183533D03*
X0138902Y0203612D03*
X0143232Y0203612D03*
X0166461Y0201644D03*
X0166440Y0198810D03*
X0168035Y0204006D03*
X0171579Y0203612D03*
X0184177Y0197707D03*
X0186146Y0199696D03*
X0182996Y0194951D03*
X0164865Y0183140D03*
X0158980Y0182352D03*
X0136539Y0150069D03*
X0202287Y0147707D03*
X0202287Y0157549D03*
X0202287Y0166604D03*
X0202287Y0176447D03*
X0234177Y0198867D03*
X0236146Y0200856D03*
X0232996Y0203042D03*
X0227484Y0212683D03*
X0262917Y0233140D03*
X0245594Y0254793D03*
X0258193Y0267392D03*
X0226697Y0255954D03*
X0224376Y0252390D03*
X0218429Y0252023D03*
X0210161Y0245344D03*
X0202287Y0246919D03*
X0183783Y0248929D03*
X0180634Y0246940D03*
X0174335Y0266211D03*
X0173969Y0269332D03*
X0170791Y0268967D03*
X0179059Y0266998D03*
X0157012Y0280778D03*
X0143232Y0265030D03*
X0139295Y0265030D03*
X0252287Y0174478D03*
X0249531Y0172904D03*
X0255437Y0175659D03*
X0254650Y0178415D03*
X0260555Y0175648D03*
X0259394Y0173022D03*
X0315673Y0159911D03*
X0320398Y0131171D03*
X0292839Y0101644D03*
X0288902Y0095738D03*
X0273154Y0095738D03*
X0273154Y0101644D03*
X0257406Y0103612D03*
X0241657Y0095738D03*
X0233783Y0109124D03*
X0225909Y0095738D03*
X0209768Y0095738D03*
X0206224Y0107549D03*
X0207746Y0056959D03*
X0156224Y0038652D03*
X0151894Y0035502D03*
X0143232Y0031565D03*
X0134177Y0037864D03*
X0108587Y0083140D03*
X0068429Y0099281D03*
X0048744Y0052431D03*
X0336146Y0285896D03*
X0340870Y0256987D03*
X0340870Y0243415D03*
X0340870Y0226339D03*
D18*
X0275122Y0237864D03*
X0263705Y0256368D03*
X0248744Y0237470D03*
X0242839Y0224478D03*
X0232602Y0246919D03*
X0202681Y0231171D03*
X0198744Y0230778D03*
X0201428Y0225981D03*
X0184177Y0211486D03*
X0181421Y0200069D03*
X0175122Y0201644D03*
X0185752Y0189045D03*
X0179846Y0184321D03*
X0195988Y0208337D03*
X0170791Y0225659D03*
X0174728Y0231171D03*
X0115673Y0182352D03*
X0072366Y0182352D03*
X0074335Y0144163D03*
X0165280Y0089045D03*
X0175122Y0108337D03*
X0171972Y0111486D03*
X0167248Y0115423D03*
X0167248Y0119360D03*
X0170004Y0122116D03*
X0171972Y0126841D03*
X0175122Y0135108D03*
X0229846Y0107549D03*
X0233783Y0127234D03*
X0269217Y0127234D03*
X0269610Y0118179D03*
X0276697Y0145344D03*
X0279059Y0154793D03*
X0282602Y0162667D03*
X0265673Y0184321D03*
X0261343Y0187470D03*
X0340083Y0158730D03*
X0243232Y0076841D03*
X0229846Y0063848D03*
X0197957Y0033927D03*
X0147563Y0016998D03*
X0081815Y0048100D03*
X0070004Y0048494D03*
X0021185Y0042982D03*
X0100713Y0222510D03*
X0100713Y0233140D03*
X0089689Y0227234D03*
X0088114Y0281959D03*
X0072760Y0287470D03*
X0145594Y0291801D03*
X0157799Y0296919D03*
X0170004Y0291801D03*
X0163311Y0280778D03*
X0198350Y0285502D03*
D19*
X0208193Y0259911D03*
X0198350Y0316211D03*
X0264492Y0316211D03*
X0329846Y0316211D03*
X0391264Y0316211D03*
X0391264Y0249281D03*
X0391264Y0182352D03*
X0391264Y0142982D03*
X0391264Y0076053D03*
X0391264Y0009124D03*
X0329846Y0009124D03*
X0264492Y0009124D03*
X0198350Y0009124D03*
X0132602Y0009124D03*
X0005437Y0009124D03*
X0005437Y0076053D03*
X0005437Y0142982D03*
X0005437Y0182352D03*
X0005437Y0249281D03*
X0005437Y0316211D03*
X0067248Y0316211D03*
D20*
X0003500Y0318163D02*
X0003500Y0007203D01*
X0393201Y0007203D01*
X0393201Y0318163D01*
X0003500Y0318163D01*
X0003900Y0318163D02*
X0003900Y0007203D01*
X0003500Y0007603D02*
X0393201Y0007603D01*
X0392700Y0007203D02*
X0392700Y0318163D01*
X0393201Y0317203D02*
X0003500Y0317203D01*
X0003500Y0314803D02*
X0040653Y0314803D01*
X0039900Y0314050D02*
X0039900Y0318163D01*
X0042300Y0318163D02*
X0042300Y0316026D01*
X0041576Y0315726D02*
X0039130Y0313280D01*
X0037807Y0310085D01*
X0037807Y0306627D01*
X0039130Y0303432D01*
X0041576Y0300987D01*
X0044771Y0299663D01*
X0048229Y0299663D01*
X0051424Y0300987D01*
X0053869Y0303432D01*
X0055193Y0306627D01*
X0055193Y0310085D01*
X0053869Y0313280D01*
X0051424Y0315726D01*
X0048229Y0317049D01*
X0044771Y0317049D01*
X0041576Y0315726D01*
X0044700Y0317020D02*
X0044700Y0318163D01*
X0047100Y0318163D02*
X0047100Y0317049D01*
X0049500Y0316523D02*
X0049500Y0318163D01*
X0051900Y0318163D02*
X0051900Y0315250D01*
X0052347Y0314803D02*
X0097075Y0314803D01*
X0097500Y0315228D02*
X0097500Y0318163D01*
X0095100Y0318163D02*
X0095100Y0270367D01*
X0092700Y0270367D02*
X0092700Y0318163D01*
X0090300Y0318163D02*
X0090300Y0270367D01*
X0087900Y0270367D02*
X0087900Y0318163D01*
X0085500Y0318163D02*
X0085500Y0270367D01*
X0083100Y0270367D02*
X0083100Y0318163D01*
X0080700Y0318163D02*
X0080700Y0270367D01*
X0078300Y0270367D02*
X0078300Y0318163D01*
X0075900Y0318163D02*
X0075900Y0270367D01*
X0073500Y0270367D02*
X0073500Y0318163D01*
X0071100Y0318163D02*
X0071100Y0272606D01*
X0072104Y0271603D02*
X0238161Y0271603D01*
X0239100Y0272542D02*
X0239100Y0308917D01*
X0239481Y0309299D02*
X0298558Y0309299D01*
X0301675Y0306182D01*
X0301675Y0204607D01*
X0302495Y0203787D01*
X0311124Y0195158D01*
X0311124Y0167715D01*
X0311062Y0168580D01*
X0311095Y0168631D01*
X0311040Y0168883D01*
X0311022Y0169139D01*
X0310976Y0169179D01*
X0310778Y0170085D01*
X0310804Y0170141D01*
X0310714Y0170382D01*
X0310659Y0170633D01*
X0310608Y0170666D01*
X0310284Y0171535D01*
X0310301Y0171593D01*
X0310178Y0171819D01*
X0310088Y0172060D01*
X0310033Y0172085D01*
X0309588Y0172899D01*
X0309597Y0172960D01*
X0309443Y0173165D01*
X0309320Y0173391D01*
X0309261Y0173408D01*
X0308705Y0174151D01*
X0308705Y0174212D01*
X0308523Y0174393D01*
X0308369Y0174599D01*
X0308309Y0174608D01*
X0307653Y0175264D01*
X0307644Y0175324D01*
X0307439Y0175478D01*
X0307257Y0175660D01*
X0307196Y0175660D01*
X0306453Y0176216D01*
X0306436Y0176274D01*
X0306211Y0176397D01*
X0306005Y0176551D01*
X0305944Y0176543D01*
X0305130Y0176987D01*
X0305105Y0177043D01*
X0304864Y0177133D01*
X0304639Y0177256D01*
X0304580Y0177239D01*
X0303711Y0177563D01*
X0303678Y0177614D01*
X0303427Y0177669D01*
X0303186Y0177759D01*
X0303130Y0177733D01*
X0302224Y0177930D01*
X0302184Y0177976D01*
X0301928Y0177995D01*
X0301677Y0178049D01*
X0301625Y0178016D01*
X0300700Y0178083D01*
X0300654Y0178123D01*
X0300398Y0178104D01*
X0300141Y0178123D01*
X0300095Y0178083D01*
X0299170Y0178016D01*
X0299119Y0178049D01*
X0298867Y0177995D01*
X0298611Y0177976D01*
X0298571Y0177930D01*
X0297665Y0177733D01*
X0297609Y0177759D01*
X0297368Y0177669D01*
X0297117Y0177614D01*
X0297084Y0177563D01*
X0296215Y0177239D01*
X0296157Y0177256D01*
X0295931Y0177133D01*
X0295690Y0177043D01*
X0295665Y0176987D01*
X0294851Y0176543D01*
X0294790Y0176551D01*
X0294585Y0176397D01*
X0294359Y0176274D01*
X0294342Y0176216D01*
X0293599Y0175660D01*
X0293538Y0175660D01*
X0293357Y0175478D01*
X0293151Y0175324D01*
X0293142Y0175264D01*
X0292486Y0174608D01*
X0292426Y0174599D01*
X0292272Y0174393D01*
X0292090Y0174212D01*
X0292090Y0174151D01*
X0291534Y0173408D01*
X0291476Y0173391D01*
X0291353Y0173165D01*
X0291199Y0172960D01*
X0291207Y0172899D01*
X0290763Y0172085D01*
X0290707Y0172060D01*
X0290617Y0171819D01*
X0290494Y0171593D01*
X0290511Y0171535D01*
X0290187Y0170666D01*
X0290136Y0170633D01*
X0290081Y0170382D01*
X0289991Y0170141D01*
X0290017Y0170085D01*
X0289820Y0169179D01*
X0289773Y0169139D01*
X0289755Y0168883D01*
X0289701Y0168631D01*
X0289734Y0168580D01*
X0289667Y0167655D01*
X0289627Y0167609D01*
X0289646Y0167352D01*
X0289627Y0167096D01*
X0289667Y0167050D01*
X0289734Y0166125D01*
X0289701Y0166073D01*
X0289755Y0165822D01*
X0289773Y0165566D01*
X0289820Y0165526D01*
X0290017Y0164620D01*
X0289991Y0164564D01*
X0290081Y0164323D01*
X0290136Y0164072D01*
X0290187Y0164039D01*
X0290511Y0163170D01*
X0290494Y0163111D01*
X0290617Y0162886D01*
X0290707Y0162645D01*
X0290763Y0162620D01*
X0291207Y0161806D01*
X0291199Y0161745D01*
X0291353Y0161539D01*
X0291476Y0161314D01*
X0291534Y0161297D01*
X0292090Y0160554D01*
X0292090Y0160493D01*
X0292272Y0160311D01*
X0292426Y0160106D01*
X0292486Y0160097D01*
X0293142Y0159441D01*
X0293151Y0159381D01*
X0293357Y0159227D01*
X0293538Y0159045D01*
X0293599Y0159045D01*
X0294342Y0158489D01*
X0294359Y0158430D01*
X0294585Y0158307D01*
X0294790Y0158153D01*
X0294851Y0158162D01*
X0295665Y0157717D01*
X0295690Y0157662D01*
X0295931Y0157572D01*
X0296157Y0157449D01*
X0296215Y0157466D01*
X0297084Y0157142D01*
X0297117Y0157091D01*
X0297368Y0157036D01*
X0297609Y0156946D01*
X0297665Y0156972D01*
X0298571Y0156774D01*
X0298611Y0156728D01*
X0298867Y0156710D01*
X0299119Y0156655D01*
X0299170Y0156688D01*
X0300095Y0156622D01*
X0300141Y0156582D01*
X0300398Y0156600D01*
X0300654Y0156582D01*
X0300700Y0156622D01*
X0301625Y0156688D01*
X0301677Y0156655D01*
X0301928Y0156710D01*
X0302184Y0156728D01*
X0302224Y0156774D01*
X0303130Y0156972D01*
X0303186Y0156946D01*
X0303427Y0157036D01*
X0303678Y0157091D01*
X0303711Y0157142D01*
X0304580Y0157466D01*
X0304639Y0157449D01*
X0304864Y0157572D01*
X0305105Y0157662D01*
X0305130Y0157717D01*
X0305944Y0158162D01*
X0306005Y0158153D01*
X0306211Y0158307D01*
X0306436Y0158430D01*
X0306453Y0158489D01*
X0307196Y0159045D01*
X0307257Y0159045D01*
X0307439Y0159227D01*
X0307644Y0159381D01*
X0307653Y0159441D01*
X0308309Y0160097D01*
X0308369Y0160106D01*
X0308523Y0160311D01*
X0308705Y0160493D01*
X0308705Y0160554D01*
X0309261Y0161297D01*
X0309320Y0161314D01*
X0309443Y0161539D01*
X0309597Y0161745D01*
X0309588Y0161806D01*
X0310033Y0162620D01*
X0310088Y0162645D01*
X0310178Y0162886D01*
X0310301Y0163111D01*
X0310284Y0163170D01*
X0310608Y0164039D01*
X0310659Y0164072D01*
X0310714Y0164323D01*
X0310804Y0164564D01*
X0310778Y0164620D01*
X0310976Y0165526D01*
X0311022Y0165566D01*
X0311040Y0165822D01*
X0311095Y0166073D01*
X0311062Y0166125D01*
X0311124Y0166990D01*
X0311124Y0154213D01*
X0311944Y0153393D01*
X0328209Y0137128D01*
X0328209Y0124033D01*
X0322574Y0118398D01*
X0290313Y0118398D01*
X0301686Y0129771D01*
X0318843Y0129771D01*
X0319390Y0129225D01*
X0317998Y0129225D01*
X0316832Y0128059D01*
X0316832Y0127256D01*
X0315636Y0127256D01*
X0314470Y0126090D01*
X0314470Y0124441D01*
X0315636Y0123275D01*
X0317285Y0123275D01*
X0318451Y0124441D01*
X0318451Y0125244D01*
X0319647Y0125244D01*
X0320813Y0126410D01*
X0320813Y0128059D01*
X0319790Y0129082D01*
X0321263Y0129082D01*
X0322487Y0130306D01*
X0322487Y0132037D01*
X0321263Y0133260D01*
X0319532Y0133260D01*
X0318843Y0132571D01*
X0300526Y0132571D01*
X0276904Y0108949D01*
X0276533Y0108949D01*
X0285544Y0117960D01*
X0286365Y0118780D01*
X0286365Y0120596D01*
X0288226Y0122457D01*
X0289046Y0123277D01*
X0289046Y0172782D01*
X0286567Y0175261D01*
X0286567Y0224773D01*
X0278609Y0232731D01*
X0278609Y0239309D01*
X0277859Y0240059D01*
X0277859Y0245396D01*
X0279561Y0247098D01*
X0280381Y0247918D01*
X0280381Y0250644D01*
X0279274Y0251752D01*
X0278454Y0252572D01*
X0232143Y0252572D01*
X0228786Y0255929D01*
X0228786Y0256819D01*
X0227562Y0258043D01*
X0225832Y0258043D01*
X0224608Y0256819D01*
X0224608Y0255089D01*
X0225217Y0254479D01*
X0223510Y0254479D01*
X0222287Y0253255D01*
X0222287Y0251525D01*
X0223030Y0250781D01*
X0220142Y0250781D01*
X0220518Y0251158D01*
X0220518Y0252889D01*
X0219294Y0254112D01*
X0217564Y0254112D01*
X0216340Y0252889D01*
X0216340Y0251158D01*
X0216717Y0250781D01*
X0187006Y0250781D01*
X0186149Y0251639D01*
X0185270Y0252518D01*
X0172212Y0252518D01*
X0181603Y0261909D01*
X0247410Y0261909D01*
X0256905Y0271404D01*
X0275775Y0271404D01*
X0276266Y0270913D01*
X0277915Y0270913D01*
X0279081Y0272079D01*
X0279081Y0273728D01*
X0277915Y0274894D01*
X0276266Y0274894D01*
X0275775Y0274404D01*
X0255662Y0274404D01*
X0246168Y0264909D01*
X0235710Y0264909D01*
X0265827Y0295026D01*
X0275775Y0295026D01*
X0276266Y0294535D01*
X0277915Y0294535D01*
X0279081Y0295701D01*
X0279081Y0297350D01*
X0277915Y0298516D01*
X0276266Y0298516D01*
X0275775Y0298026D01*
X0265379Y0298026D01*
X0265705Y0298812D01*
X0265705Y0302113D01*
X0264441Y0305164D01*
X0262107Y0307498D01*
X0259056Y0308762D01*
X0255755Y0308762D01*
X0252704Y0307498D01*
X0250370Y0305164D01*
X0249106Y0302113D01*
X0249106Y0298812D01*
X0250370Y0295761D01*
X0252704Y0293427D01*
X0255755Y0292163D01*
X0258722Y0292163D01*
X0232967Y0266409D01*
X0181148Y0266409D01*
X0181148Y0267863D01*
X0179924Y0269087D01*
X0178194Y0269087D01*
X0177505Y0268398D01*
X0177355Y0268398D01*
X0176228Y0267271D01*
X0175546Y0267954D01*
X0176058Y0268466D01*
X0176058Y0270197D01*
X0174835Y0271421D01*
X0173104Y0271421D01*
X0172198Y0270514D01*
X0171657Y0271055D01*
X0169926Y0271055D01*
X0169237Y0270367D01*
X0073340Y0270367D01*
X0064088Y0279618D01*
X0060453Y0279618D01*
X0060453Y0279856D01*
X0058137Y0282171D01*
X0054863Y0282171D01*
X0052547Y0279856D01*
X0052547Y0276581D01*
X0054863Y0274266D01*
X0058137Y0274266D01*
X0060453Y0276581D01*
X0060453Y0276819D01*
X0062928Y0276819D01*
X0070680Y0269067D01*
X0060453Y0269067D01*
X0060453Y0270840D01*
X0058137Y0273155D01*
X0054863Y0273155D01*
X0052547Y0270840D01*
X0052547Y0267565D01*
X0054863Y0265250D01*
X0058137Y0265250D01*
X0059154Y0266267D01*
X0137578Y0266267D01*
X0137206Y0265895D01*
X0137206Y0264164D01*
X0138430Y0262941D01*
X0140161Y0262941D01*
X0141264Y0264044D01*
X0142367Y0262941D01*
X0144098Y0262941D01*
X0145321Y0264164D01*
X0145321Y0265895D01*
X0144950Y0266267D01*
X0168699Y0266267D01*
X0168732Y0266233D01*
X0167605Y0266233D01*
X0166439Y0265067D01*
X0166439Y0263418D01*
X0167605Y0262252D01*
X0168396Y0262252D01*
X0126916Y0220772D01*
X0126916Y0259677D01*
X0127506Y0260268D01*
X0127506Y0261917D01*
X0126340Y0263083D01*
X0124691Y0263083D01*
X0123525Y0261917D01*
X0123525Y0260268D01*
X0124116Y0259677D01*
X0124116Y0219810D01*
X0123372Y0219067D01*
X0123372Y0255347D01*
X0123963Y0255937D01*
X0123963Y0257586D01*
X0122797Y0258752D01*
X0121148Y0258752D01*
X0119982Y0257586D01*
X0119982Y0255937D01*
X0120572Y0255347D01*
X0120572Y0218105D01*
X0119042Y0216575D01*
X0119042Y0253378D01*
X0119632Y0253969D01*
X0119632Y0255618D01*
X0118466Y0256784D01*
X0116817Y0256784D01*
X0115651Y0255618D01*
X0115651Y0253969D01*
X0116242Y0253378D01*
X0116242Y0215613D01*
X0115105Y0214476D01*
X0115105Y0259677D01*
X0115695Y0260268D01*
X0115695Y0261917D01*
X0114529Y0263083D01*
X0112880Y0263083D01*
X0111714Y0261917D01*
X0111714Y0260268D01*
X0112305Y0259677D01*
X0112305Y0213515D01*
X0053897Y0155107D01*
X0031326Y0155107D01*
X0026154Y0149935D01*
X0025334Y0149115D01*
X0025334Y0069190D01*
X0015848Y0059704D01*
X0015848Y0047941D01*
X0015257Y0047350D01*
X0015257Y0045701D01*
X0016424Y0044535D01*
X0018073Y0044535D01*
X0019239Y0045701D01*
X0019239Y0047350D01*
X0018648Y0047941D01*
X0018648Y0058544D01*
X0023327Y0063223D01*
X0024298Y0062252D01*
X0025947Y0062252D01*
X0027113Y0063418D01*
X0027113Y0064253D01*
X0028614Y0065754D01*
X0029434Y0066574D01*
X0029434Y0067793D01*
X0032974Y0064253D01*
X0032974Y0063418D01*
X0034140Y0062252D01*
X0035789Y0062252D01*
X0036955Y0063418D01*
X0036955Y0065067D01*
X0035789Y0066233D01*
X0034954Y0066233D01*
X0030734Y0070453D01*
X0030734Y0076335D01*
X0043407Y0063662D01*
X0043407Y0048680D01*
X0043243Y0048516D01*
X0042408Y0048516D01*
X0041242Y0047350D01*
X0041242Y0045701D01*
X0042408Y0044535D01*
X0044057Y0044535D01*
X0045223Y0045701D01*
X0045223Y0046536D01*
X0046207Y0047520D01*
X0046207Y0064822D01*
X0045387Y0065642D01*
X0042432Y0068597D01*
X0044925Y0067565D01*
X0048383Y0067565D01*
X0051578Y0068888D01*
X0054023Y0071333D01*
X0055347Y0074528D01*
X0055347Y0077987D01*
X0054023Y0081182D01*
X0051578Y0083627D01*
X0048383Y0084950D01*
X0044925Y0084950D01*
X0041730Y0083627D01*
X0039284Y0081182D01*
X0037961Y0077987D01*
X0037961Y0074528D01*
X0038993Y0072036D01*
X0032034Y0078995D01*
X0032034Y0146339D01*
X0034102Y0148407D01*
X0034926Y0148407D01*
X0032701Y0146182D01*
X0032701Y0142908D01*
X0035016Y0140592D01*
X0038291Y0140592D01*
X0040606Y0142908D01*
X0040606Y0146182D01*
X0038381Y0148407D01*
X0054926Y0148407D01*
X0052701Y0146182D01*
X0052701Y0142908D01*
X0055016Y0140592D01*
X0056170Y0140592D01*
X0056074Y0140496D01*
X0056074Y0140496D01*
X0055254Y0139676D01*
X0055254Y0139482D01*
X0055016Y0139482D01*
X0052701Y0137166D01*
X0052701Y0136013D01*
X0050460Y0138254D01*
X0050606Y0138400D01*
X0050606Y0141674D01*
X0048291Y0143990D01*
X0045016Y0143990D01*
X0042701Y0141674D01*
X0042701Y0138400D01*
X0045016Y0136084D01*
X0048291Y0136084D01*
X0048480Y0136274D01*
X0052978Y0131776D01*
X0051446Y0131776D01*
X0050801Y0132421D01*
X0050606Y0132421D01*
X0050606Y0132658D01*
X0048291Y0134974D01*
X0045016Y0134974D01*
X0042701Y0132658D01*
X0042701Y0129384D01*
X0045016Y0127068D01*
X0048291Y0127068D01*
X0050242Y0129020D01*
X0050286Y0128976D01*
X0053527Y0128976D01*
X0052701Y0128151D01*
X0052701Y0124876D01*
X0055016Y0122561D01*
X0058291Y0122561D01*
X0060606Y0124876D01*
X0060606Y0128151D01*
X0059574Y0129183D01*
X0060188Y0129796D01*
X0063686Y0133295D01*
X0063984Y0133592D01*
X0063984Y0072942D01*
X0048123Y0057081D01*
X0047244Y0056202D01*
X0047244Y0053885D01*
X0046655Y0053296D01*
X0046655Y0051566D01*
X0047879Y0050342D01*
X0049609Y0050342D01*
X0050833Y0051566D01*
X0050833Y0053296D01*
X0050244Y0053885D01*
X0050244Y0054959D01*
X0066984Y0071699D01*
X0066984Y0097772D01*
X0067564Y0097193D01*
X0069294Y0097193D01*
X0070518Y0098416D01*
X0070518Y0100147D01*
X0069294Y0101370D01*
X0067564Y0101370D01*
X0066984Y0100791D01*
X0066984Y0149243D01*
X0115402Y0197661D01*
X0142598Y0197661D01*
X0132659Y0187722D01*
X0114980Y0187722D01*
X0087369Y0160111D01*
X0087369Y0160111D01*
X0086314Y0159057D01*
X0086314Y0131917D01*
X0082377Y0127980D01*
X0082377Y0120514D01*
X0082088Y0120226D01*
X0082088Y0118495D01*
X0083312Y0117271D01*
X0085042Y0117271D01*
X0086266Y0118495D01*
X0086266Y0120226D01*
X0085977Y0120514D01*
X0085977Y0126489D01*
X0088860Y0129371D01*
X0089914Y0130426D01*
X0089914Y0157565D01*
X0101899Y0169550D01*
X0102462Y0168987D01*
X0102462Y0160824D01*
X0112408Y0150878D01*
X0111699Y0150878D01*
X0110533Y0149712D01*
X0110533Y0148063D01*
X0111699Y0146897D01*
X0113348Y0146897D01*
X0113683Y0147232D01*
X0113683Y0146095D01*
X0114849Y0144929D01*
X0115484Y0144929D01*
X0109790Y0139235D01*
X0109790Y0139870D01*
X0108624Y0141036D01*
X0107428Y0141036D01*
X0107428Y0142626D01*
X0106262Y0143792D01*
X0104612Y0143792D01*
X0103446Y0142626D01*
X0103446Y0140977D01*
X0104612Y0139811D01*
X0105809Y0139811D01*
X0105809Y0138221D01*
X0106975Y0137055D01*
X0107610Y0137055D01*
X0099189Y0128634D01*
X0091471Y0128634D01*
X0087534Y0124697D01*
X0086714Y0123877D01*
X0086714Y0103032D01*
X0087534Y0102212D01*
X0095408Y0094338D01*
X0095417Y0094338D01*
X0105210Y0084545D01*
X0106027Y0083729D01*
X0106498Y0083729D01*
X0106498Y0082274D01*
X0107721Y0081051D01*
X0108696Y0081051D01*
X0111156Y0078590D01*
X0111165Y0078590D01*
X0134781Y0054974D01*
X0194991Y0054974D01*
X0218606Y0078590D01*
X0218615Y0078590D01*
X0227309Y0087284D01*
X0227309Y0094184D01*
X0227998Y0094873D01*
X0227998Y0096603D01*
X0226775Y0097827D01*
X0226032Y0097827D01*
X0226487Y0098281D01*
X0237134Y0098281D01*
X0239569Y0095847D01*
X0239569Y0094873D01*
X0240792Y0093649D01*
X0242523Y0093649D01*
X0243746Y0094873D01*
X0243746Y0096603D01*
X0242523Y0097827D01*
X0241548Y0097827D01*
X0238300Y0101075D01*
X0237141Y0101075D01*
X0237134Y0101069D01*
X0225332Y0101069D01*
X0221395Y0097132D01*
X0220579Y0096315D01*
X0220579Y0086334D01*
X0216164Y0081920D01*
X0215348Y0081103D01*
X0215348Y0081094D01*
X0193303Y0059049D01*
X0136469Y0059049D01*
X0114424Y0081094D01*
X0114424Y0082078D01*
X0113607Y0082894D01*
X0109985Y0086516D01*
X0107181Y0086516D01*
X0097388Y0096309D01*
X0097388Y0096318D01*
X0089514Y0104192D01*
X0089514Y0122717D01*
X0092631Y0125834D01*
X0100349Y0125834D01*
X0101169Y0126654D01*
X0118144Y0143629D01*
X0118964Y0144449D01*
X0118964Y0148282D01*
X0105262Y0161984D01*
X0105262Y0168987D01*
X0105951Y0169676D01*
X0105951Y0171407D01*
X0104853Y0172505D01*
X0113640Y0181292D01*
X0114767Y0180165D01*
X0115598Y0180165D01*
X0165648Y0130115D01*
X0165648Y0120854D01*
X0165061Y0120266D01*
X0165061Y0118454D01*
X0166123Y0117392D01*
X0165061Y0116329D01*
X0165061Y0114517D01*
X0166342Y0113236D01*
X0168154Y0113236D01*
X0169435Y0114517D01*
X0169435Y0116329D01*
X0168373Y0117392D01*
X0169435Y0118454D01*
X0169435Y0119929D01*
X0170910Y0119929D01*
X0171622Y0120641D01*
X0171622Y0113674D01*
X0171066Y0113674D01*
X0169785Y0112392D01*
X0169785Y0110580D01*
X0171066Y0109299D01*
X0172878Y0109299D01*
X0173322Y0109742D01*
X0173322Y0109630D01*
X0172935Y0109243D01*
X0172935Y0107431D01*
X0174216Y0106149D01*
X0176028Y0106149D01*
X0177309Y0107431D01*
X0177309Y0109243D01*
X0176922Y0109630D01*
X0176922Y0133815D01*
X0177309Y0134202D01*
X0177309Y0136014D01*
X0176922Y0136402D01*
X0176922Y0200350D01*
X0177309Y0200738D01*
X0177309Y0202550D01*
X0176028Y0203831D01*
X0174216Y0203831D01*
X0173668Y0203283D01*
X0173668Y0204477D01*
X0172444Y0205701D01*
X0170713Y0205701D01*
X0170004Y0204992D01*
X0169096Y0205900D01*
X0176328Y0213132D01*
X0176328Y0229678D01*
X0176761Y0230111D01*
X0180382Y0226490D01*
X0198373Y0226490D01*
X0199241Y0225623D01*
X0199241Y0225075D01*
X0200522Y0223794D01*
X0201070Y0223794D01*
X0203887Y0220977D01*
X0204941Y0219922D01*
X0226413Y0219922D01*
X0225887Y0219397D01*
X0225887Y0217748D01*
X0227053Y0216582D01*
X0228702Y0216582D01*
X0229868Y0217748D01*
X0229868Y0219397D01*
X0229343Y0219922D01*
X0234549Y0219922D01*
X0234549Y0218536D01*
X0235715Y0217370D01*
X0237364Y0217370D01*
X0238530Y0218536D01*
X0238530Y0219922D01*
X0259757Y0219922D01*
X0262065Y0222230D01*
X0262065Y0219094D01*
X0262651Y0218508D01*
X0267908Y0218508D01*
X0268494Y0219094D01*
X0268494Y0222230D01*
X0269939Y0220785D01*
X0269939Y0219094D01*
X0270525Y0218508D01*
X0275782Y0218508D01*
X0276368Y0219094D01*
X0276368Y0224351D01*
X0275782Y0224937D01*
X0270878Y0224937D01*
X0268778Y0227037D01*
X0261781Y0227037D01*
X0258266Y0223522D01*
X0244976Y0223522D01*
X0245026Y0223572D01*
X0245026Y0225384D01*
X0243745Y0226666D01*
X0241933Y0226666D01*
X0240651Y0225384D01*
X0240651Y0223572D01*
X0240701Y0223522D01*
X0206432Y0223522D01*
X0203615Y0226339D01*
X0203615Y0226887D01*
X0202334Y0228168D01*
X0201786Y0228168D01*
X0200507Y0229447D01*
X0200931Y0229872D01*
X0200931Y0231684D01*
X0199650Y0232965D01*
X0197838Y0232965D01*
X0196557Y0231684D01*
X0196557Y0230090D01*
X0181873Y0230090D01*
X0177559Y0234404D01*
X0176504Y0235459D01*
X0172952Y0235459D01*
X0172827Y0235333D01*
X0170046Y0235333D01*
X0168991Y0234279D01*
X0146821Y0212109D01*
X0146821Y0217132D01*
X0165266Y0235577D01*
X0197035Y0235577D01*
X0197526Y0235086D01*
X0199175Y0235086D01*
X0200341Y0236252D01*
X0200341Y0237296D01*
X0208661Y0228975D01*
X0209540Y0228096D01*
X0275775Y0228096D01*
X0276266Y0227606D01*
X0277915Y0227606D01*
X0278845Y0228536D01*
X0283767Y0223614D01*
X0283767Y0174101D01*
X0286246Y0171622D01*
X0286246Y0124437D01*
X0283565Y0121756D01*
X0283565Y0119940D01*
X0274148Y0110524D01*
X0235338Y0110524D01*
X0234649Y0111213D01*
X0232918Y0111213D01*
X0231694Y0109989D01*
X0231694Y0108259D01*
X0232918Y0107035D01*
X0234649Y0107035D01*
X0235338Y0107724D01*
X0259537Y0107724D01*
X0257515Y0105701D01*
X0256540Y0105701D01*
X0255317Y0104477D01*
X0255317Y0102747D01*
X0256540Y0101523D01*
X0258271Y0101523D01*
X0259494Y0102747D01*
X0259494Y0103721D01*
X0261922Y0106149D01*
X0275679Y0106149D01*
X0273263Y0103733D01*
X0272288Y0103733D01*
X0271065Y0102509D01*
X0271065Y0100778D01*
X0272288Y0099555D01*
X0274019Y0099555D01*
X0275243Y0100778D01*
X0275243Y0101753D01*
X0278339Y0104849D01*
X0278603Y0104849D01*
X0289351Y0115598D01*
X0323733Y0115598D01*
X0324554Y0116418D01*
X0329509Y0121373D01*
X0329509Y0112605D01*
X0319948Y0103044D01*
X0294393Y0103044D01*
X0293704Y0103733D01*
X0291973Y0103733D01*
X0290750Y0102509D01*
X0290750Y0100778D01*
X0291973Y0099555D01*
X0293704Y0099555D01*
X0294393Y0100244D01*
X0318986Y0100244D01*
X0315881Y0097138D01*
X0290456Y0097138D01*
X0289767Y0097827D01*
X0288036Y0097827D01*
X0286813Y0096603D01*
X0286813Y0094873D01*
X0288036Y0093649D01*
X0289767Y0093649D01*
X0290456Y0094338D01*
X0317041Y0094338D01*
X0332789Y0110086D01*
X0333609Y0110906D01*
X0333609Y0201851D01*
X0350899Y0219141D01*
X0365466Y0219141D01*
X0372946Y0226622D01*
X0373766Y0227442D01*
X0373766Y0256392D01*
X0367244Y0262914D01*
X0367412Y0263082D01*
X0367412Y0266357D01*
X0365097Y0268672D01*
X0361822Y0268672D01*
X0359507Y0266357D01*
X0359507Y0263082D01*
X0361822Y0260767D01*
X0365097Y0260767D01*
X0365264Y0260934D01*
X0370966Y0255233D01*
X0370966Y0228602D01*
X0364306Y0221941D01*
X0349739Y0221941D01*
X0348919Y0221121D01*
X0330809Y0203011D01*
X0330809Y0146756D01*
X0317762Y0159802D01*
X0317762Y0160777D01*
X0316539Y0162000D01*
X0314808Y0162000D01*
X0313924Y0161116D01*
X0313924Y0196318D01*
X0304475Y0205767D01*
X0304475Y0307342D01*
X0300538Y0311279D01*
X0299718Y0312099D01*
X0238322Y0312099D01*
X0237502Y0311279D01*
X0206313Y0280090D01*
X0173176Y0280090D01*
X0173176Y0281090D01*
X0173510Y0280756D01*
X0175159Y0280756D01*
X0176325Y0281922D01*
X0176325Y0283571D01*
X0175159Y0284737D01*
X0173510Y0284737D01*
X0172344Y0283571D01*
X0172344Y0282434D01*
X0172010Y0282768D01*
X0170361Y0282768D01*
X0169194Y0281602D01*
X0169194Y0280090D01*
X0165498Y0280090D01*
X0165498Y0281684D01*
X0164217Y0282965D01*
X0162405Y0282965D01*
X0161124Y0281684D01*
X0161124Y0280090D01*
X0159679Y0280090D01*
X0159101Y0280668D01*
X0159101Y0281643D01*
X0157877Y0282867D01*
X0156147Y0282867D01*
X0154923Y0281643D01*
X0154923Y0279912D01*
X0156147Y0278689D01*
X0157121Y0278689D01*
X0157699Y0278110D01*
X0158519Y0277290D01*
X0207473Y0277290D01*
X0208293Y0278110D01*
X0239481Y0309299D01*
X0241500Y0309299D02*
X0241500Y0274942D01*
X0240561Y0274003D02*
X0069704Y0274003D01*
X0068700Y0275006D02*
X0068700Y0318163D01*
X0066300Y0318163D02*
X0066300Y0277406D01*
X0067304Y0276403D02*
X0242961Y0276403D01*
X0243900Y0277342D02*
X0243900Y0309299D01*
X0246300Y0309299D02*
X0246300Y0279742D01*
X0245361Y0278803D02*
X0208985Y0278803D01*
X0207900Y0277717D02*
X0207900Y0266409D01*
X0205500Y0266409D02*
X0205500Y0277290D01*
X0203100Y0277290D02*
X0203100Y0266409D01*
X0200700Y0266409D02*
X0200700Y0277290D01*
X0198300Y0277290D02*
X0198300Y0266409D01*
X0195900Y0266409D02*
X0195900Y0277290D01*
X0193500Y0277290D02*
X0193500Y0266409D01*
X0191100Y0266409D02*
X0191100Y0277290D01*
X0188700Y0277290D02*
X0188700Y0266409D01*
X0186300Y0266409D02*
X0186300Y0277290D01*
X0183900Y0277290D02*
X0183900Y0266409D01*
X0181500Y0266409D02*
X0181500Y0277290D01*
X0179100Y0277290D02*
X0179100Y0269087D01*
X0176700Y0267743D02*
X0176700Y0277290D01*
X0174300Y0277290D02*
X0174300Y0271421D01*
X0171900Y0270812D02*
X0171900Y0277290D01*
X0169500Y0277290D02*
X0169500Y0270629D01*
X0167100Y0270367D02*
X0167100Y0277290D01*
X0164700Y0277290D02*
X0164700Y0270367D01*
X0162300Y0270367D02*
X0162300Y0277290D01*
X0159900Y0277290D02*
X0159900Y0270367D01*
X0157500Y0270367D02*
X0157500Y0278309D01*
X0156032Y0278803D02*
X0151947Y0278803D01*
X0151931Y0278787D02*
X0153097Y0279953D01*
X0153097Y0281602D01*
X0151931Y0282768D01*
X0150282Y0282768D01*
X0149116Y0281602D01*
X0149116Y0279953D01*
X0150282Y0278787D01*
X0151931Y0278787D01*
X0152700Y0279556D02*
X0152700Y0270367D01*
X0150300Y0270367D02*
X0150300Y0278787D01*
X0150266Y0278803D02*
X0064904Y0278803D01*
X0063900Y0279618D02*
X0063900Y0318163D01*
X0061500Y0318163D02*
X0061500Y0279618D01*
X0061500Y0276819D02*
X0061500Y0269067D01*
X0060453Y0269203D02*
X0070544Y0269203D01*
X0068700Y0269067D02*
X0068700Y0271046D01*
X0068144Y0271603D02*
X0059690Y0271603D01*
X0059100Y0272193D02*
X0059100Y0275228D01*
X0060274Y0276403D02*
X0063344Y0276403D01*
X0063900Y0275846D02*
X0063900Y0269067D01*
X0066300Y0269067D02*
X0066300Y0273446D01*
X0065744Y0274003D02*
X0050453Y0274003D01*
X0050453Y0275348D02*
X0048137Y0277663D01*
X0044863Y0277663D01*
X0042547Y0275348D01*
X0042547Y0272073D01*
X0044863Y0269758D01*
X0048137Y0269758D01*
X0050453Y0272073D01*
X0050453Y0275348D01*
X0049500Y0276301D02*
X0049500Y0300190D01*
X0050014Y0300403D02*
X0095610Y0300403D01*
X0095610Y0299318D02*
X0097953Y0296974D01*
X0101267Y0296974D01*
X0103610Y0299318D01*
X0103610Y0302631D01*
X0101267Y0304974D01*
X0097953Y0304974D01*
X0095610Y0302631D01*
X0095610Y0299318D01*
X0096925Y0298003D02*
X0003500Y0298003D01*
X0003500Y0300403D02*
X0042986Y0300403D01*
X0042300Y0300687D02*
X0042300Y0217601D01*
X0041576Y0217301D02*
X0039130Y0214855D01*
X0037807Y0211660D01*
X0037807Y0208202D01*
X0039130Y0205007D01*
X0041576Y0202562D01*
X0044771Y0201238D01*
X0048229Y0201238D01*
X0051424Y0202562D01*
X0053869Y0205007D01*
X0055193Y0208202D01*
X0055193Y0211660D01*
X0053869Y0214855D01*
X0051424Y0217301D01*
X0048229Y0218624D01*
X0044771Y0218624D01*
X0041576Y0217301D01*
X0040678Y0216403D02*
X0003500Y0216403D01*
X0003500Y0218803D02*
X0112305Y0218803D01*
X0112305Y0221203D02*
X0003500Y0221203D01*
X0003500Y0223603D02*
X0112305Y0223603D01*
X0112305Y0226003D02*
X0091551Y0226003D01*
X0091876Y0226328D02*
X0090595Y0225047D01*
X0088783Y0225047D01*
X0087502Y0226328D01*
X0087502Y0228140D01*
X0088783Y0229422D01*
X0090595Y0229422D01*
X0091876Y0228140D01*
X0091876Y0226328D01*
X0090300Y0225047D02*
X0090300Y0191510D01*
X0091193Y0192403D02*
X0003500Y0192403D01*
X0003500Y0194803D02*
X0093593Y0194803D01*
X0092700Y0193910D02*
X0092700Y0266267D01*
X0095100Y0266267D02*
X0095100Y0196310D01*
X0095993Y0197203D02*
X0003500Y0197203D01*
X0003500Y0199603D02*
X0098393Y0199603D01*
X0097500Y0198710D02*
X0097500Y0266267D01*
X0099900Y0266267D02*
X0099900Y0249315D01*
X0100282Y0249697D02*
X0099116Y0248531D01*
X0099116Y0246882D01*
X0100282Y0245716D01*
X0101931Y0245716D01*
X0103097Y0246882D01*
X0103097Y0248531D01*
X0101931Y0249697D01*
X0100282Y0249697D01*
X0102300Y0249328D02*
X0102300Y0266267D01*
X0104700Y0266267D02*
X0104700Y0205910D01*
X0105593Y0206803D02*
X0054613Y0206803D01*
X0054300Y0206046D02*
X0054300Y0178938D01*
X0054023Y0179607D02*
X0051578Y0182052D01*
X0048383Y0183376D01*
X0044925Y0183376D01*
X0041730Y0182052D01*
X0039284Y0179607D01*
X0037961Y0176412D01*
X0037961Y0172953D01*
X0039284Y0169758D01*
X0041730Y0167313D01*
X0044925Y0165990D01*
X0048383Y0165990D01*
X0051578Y0167313D01*
X0054023Y0169758D01*
X0055347Y0172953D01*
X0055347Y0176412D01*
X0054023Y0179607D01*
X0053227Y0180403D02*
X0071222Y0180403D01*
X0071100Y0180525D02*
X0071100Y0172310D01*
X0071993Y0173203D02*
X0055347Y0173203D01*
X0055347Y0175603D02*
X0074393Y0175603D01*
X0073500Y0174710D02*
X0073500Y0180393D01*
X0073510Y0180403D02*
X0079193Y0180403D01*
X0078300Y0179510D02*
X0078300Y0266267D01*
X0075900Y0266267D02*
X0075900Y0177110D01*
X0076793Y0178003D02*
X0054688Y0178003D01*
X0051900Y0181730D02*
X0051900Y0203037D01*
X0053265Y0204403D02*
X0103193Y0204403D01*
X0102300Y0203510D02*
X0102300Y0246085D01*
X0103097Y0247603D02*
X0112305Y0247603D01*
X0112305Y0250003D02*
X0060953Y0250003D01*
X0060953Y0249327D02*
X0060953Y0250687D01*
X0056984Y0250687D01*
X0056984Y0246719D01*
X0058344Y0246719D01*
X0060953Y0249327D01*
X0059100Y0250687D02*
X0059100Y0251656D01*
X0060953Y0251656D02*
X0056984Y0251656D01*
X0056016Y0251656D01*
X0056016Y0255624D01*
X0054656Y0255624D01*
X0052047Y0253016D01*
X0052047Y0251656D01*
X0056016Y0251656D01*
X0056016Y0250687D01*
X0056984Y0250687D01*
X0056984Y0251656D01*
X0056984Y0255624D01*
X0058344Y0255624D01*
X0060953Y0253016D01*
X0060953Y0251656D01*
X0060953Y0252403D02*
X0112305Y0252403D01*
X0112305Y0254803D02*
X0059166Y0254803D01*
X0059100Y0254868D02*
X0059100Y0257197D01*
X0059106Y0257203D02*
X0112305Y0257203D01*
X0112305Y0259603D02*
X0060453Y0259603D01*
X0060453Y0258550D02*
X0058137Y0256234D01*
X0054863Y0256234D01*
X0052547Y0258550D01*
X0052547Y0261824D01*
X0054863Y0264140D01*
X0058137Y0264140D01*
X0060453Y0261824D01*
X0060453Y0258550D01*
X0060274Y0262003D02*
X0111800Y0262003D01*
X0111900Y0262103D02*
X0111900Y0266267D01*
X0114300Y0266267D02*
X0114300Y0263083D01*
X0115610Y0262003D02*
X0123611Y0262003D01*
X0123900Y0262292D02*
X0123900Y0266267D01*
X0126300Y0266267D02*
X0126300Y0263083D01*
X0127421Y0262003D02*
X0168147Y0262003D01*
X0167100Y0262756D02*
X0167100Y0260956D01*
X0165747Y0259603D02*
X0126916Y0259603D01*
X0126916Y0257203D02*
X0147945Y0257203D01*
X0147900Y0257158D02*
X0147900Y0266267D01*
X0150300Y0266267D02*
X0150300Y0257965D01*
X0150356Y0257965D02*
X0148707Y0257965D01*
X0147541Y0256799D01*
X0147541Y0255150D01*
X0148707Y0253984D01*
X0149116Y0253984D01*
X0149116Y0252394D01*
X0150282Y0251228D01*
X0151931Y0251228D01*
X0153097Y0252394D01*
X0153097Y0254043D01*
X0151931Y0255209D01*
X0151522Y0255209D01*
X0151522Y0256799D01*
X0150356Y0257965D01*
X0151118Y0257203D02*
X0163347Y0257203D01*
X0162300Y0256156D02*
X0162300Y0266267D01*
X0159900Y0266267D02*
X0159900Y0253756D01*
X0160947Y0254803D02*
X0152337Y0254803D01*
X0152700Y0254440D02*
X0152700Y0266267D01*
X0155100Y0266267D02*
X0155100Y0248956D01*
X0156147Y0250003D02*
X0126916Y0250003D01*
X0128628Y0249304D02*
X0127462Y0248137D01*
X0127462Y0246488D01*
X0128606Y0245344D01*
X0127462Y0244200D01*
X0127462Y0242551D01*
X0128628Y0241385D01*
X0130277Y0241385D01*
X0131443Y0242551D01*
X0131443Y0244200D01*
X0130299Y0245344D01*
X0131443Y0246488D01*
X0131443Y0248137D01*
X0130277Y0249304D01*
X0128628Y0249304D01*
X0128700Y0249304D02*
X0128700Y0266267D01*
X0131100Y0266267D02*
X0131100Y0248481D01*
X0131443Y0247603D02*
X0153747Y0247603D01*
X0152700Y0246556D02*
X0152700Y0251997D01*
X0153097Y0252403D02*
X0158547Y0252403D01*
X0157500Y0251356D02*
X0157500Y0266267D01*
X0155100Y0270367D02*
X0155100Y0279735D01*
X0154923Y0281203D02*
X0153097Y0281203D01*
X0152700Y0281999D02*
X0152700Y0318163D01*
X0150300Y0318163D02*
X0150300Y0282768D01*
X0149116Y0281203D02*
X0146404Y0281203D01*
X0146404Y0281996D02*
X0145238Y0283162D01*
X0143589Y0283162D01*
X0142423Y0281996D01*
X0142423Y0280347D01*
X0143589Y0279181D01*
X0145238Y0279181D01*
X0146404Y0280347D01*
X0146404Y0281996D01*
X0145500Y0282900D02*
X0145500Y0318163D01*
X0143100Y0318163D02*
X0143100Y0313141D01*
X0143610Y0312631D02*
X0141267Y0314974D01*
X0137953Y0314974D01*
X0135610Y0312631D01*
X0135610Y0309318D01*
X0137953Y0306974D01*
X0141267Y0306974D01*
X0143610Y0309318D01*
X0143610Y0312631D01*
X0143610Y0312403D02*
X0350839Y0312403D01*
X0351083Y0312993D02*
X0349865Y0310052D01*
X0349865Y0306868D01*
X0351083Y0303926D01*
X0353335Y0301674D01*
X0356277Y0300456D01*
X0359461Y0300456D01*
X0362403Y0301674D01*
X0364654Y0303926D01*
X0365873Y0306868D01*
X0365873Y0310052D01*
X0364654Y0312993D01*
X0362403Y0315245D01*
X0359461Y0316464D01*
X0356277Y0316464D01*
X0353335Y0315245D01*
X0351083Y0312993D01*
X0351900Y0313810D02*
X0351900Y0318163D01*
X0349500Y0318163D02*
X0349500Y0283870D01*
X0349233Y0283603D02*
X0304475Y0283603D01*
X0304475Y0286003D02*
X0334057Y0286003D01*
X0334057Y0286761D02*
X0334057Y0285030D01*
X0335280Y0283807D01*
X0337011Y0283807D01*
X0338235Y0285030D01*
X0338235Y0286761D01*
X0337011Y0287985D01*
X0335280Y0287985D01*
X0334057Y0286761D01*
X0335100Y0287804D02*
X0335100Y0318163D01*
X0332700Y0318163D02*
X0332700Y0204902D01*
X0332200Y0204403D02*
X0305839Y0204403D01*
X0306300Y0203942D02*
X0306300Y0318163D01*
X0308700Y0318163D02*
X0308700Y0201542D01*
X0308239Y0202003D02*
X0330809Y0202003D01*
X0330809Y0199603D02*
X0310639Y0199603D01*
X0311100Y0199142D02*
X0311100Y0318163D01*
X0313500Y0318163D02*
X0313500Y0196742D01*
X0313039Y0197203D02*
X0330809Y0197203D01*
X0330809Y0194803D02*
X0313924Y0194803D01*
X0313924Y0192403D02*
X0330809Y0192403D01*
X0330809Y0190003D02*
X0313924Y0190003D01*
X0313924Y0187603D02*
X0330809Y0187603D01*
X0330809Y0185203D02*
X0313924Y0185203D01*
X0313924Y0182803D02*
X0330809Y0182803D01*
X0330809Y0180403D02*
X0313924Y0180403D01*
X0313924Y0178003D02*
X0330809Y0178003D01*
X0330809Y0175603D02*
X0313924Y0175603D01*
X0313924Y0173203D02*
X0330809Y0173203D01*
X0330809Y0170803D02*
X0313924Y0170803D01*
X0313924Y0168403D02*
X0330809Y0168403D01*
X0330809Y0166003D02*
X0313924Y0166003D01*
X0313924Y0163603D02*
X0330809Y0163603D01*
X0330809Y0161203D02*
X0317336Y0161203D01*
X0315900Y0162000D02*
X0315900Y0318163D01*
X0318300Y0318163D02*
X0318300Y0159265D01*
X0318762Y0158803D02*
X0330809Y0158803D01*
X0330809Y0156403D02*
X0321162Y0156403D01*
X0320700Y0156865D02*
X0320700Y0318163D01*
X0323100Y0318163D02*
X0323100Y0154465D01*
X0323562Y0154003D02*
X0330809Y0154003D01*
X0330809Y0151603D02*
X0325962Y0151603D01*
X0325500Y0152065D02*
X0325500Y0318163D01*
X0327900Y0318163D02*
X0327900Y0149665D01*
X0328362Y0149203D02*
X0330809Y0149203D01*
X0330300Y0147265D02*
X0330300Y0318163D01*
X0337500Y0318163D02*
X0337500Y0287496D01*
X0338235Y0286003D02*
X0393201Y0286003D01*
X0393201Y0288403D02*
X0304475Y0288403D01*
X0304475Y0290803D02*
X0393201Y0290803D01*
X0393201Y0293203D02*
X0304475Y0293203D01*
X0304475Y0295603D02*
X0393201Y0295603D01*
X0393201Y0298003D02*
X0304475Y0298003D01*
X0304475Y0300403D02*
X0393201Y0300403D01*
X0393201Y0302803D02*
X0363531Y0302803D01*
X0363900Y0303172D02*
X0363900Y0276109D01*
X0363944Y0276109D02*
X0362975Y0276109D01*
X0362975Y0275141D01*
X0359007Y0275141D01*
X0359007Y0273781D01*
X0361615Y0271172D01*
X0362975Y0271172D01*
X0362975Y0275141D01*
X0363944Y0275141D01*
X0363944Y0276109D01*
X0367912Y0276109D01*
X0367912Y0277469D01*
X0365304Y0280078D01*
X0363944Y0280078D01*
X0363944Y0276109D01*
X0363944Y0276403D02*
X0362975Y0276403D01*
X0362975Y0276109D02*
X0362975Y0280078D01*
X0361615Y0280078D01*
X0359007Y0277469D01*
X0359007Y0276109D01*
X0362975Y0276109D01*
X0363900Y0275141D02*
X0363900Y0268672D01*
X0361500Y0268350D02*
X0361500Y0271287D01*
X0361184Y0271603D02*
X0356231Y0271603D01*
X0356231Y0271790D02*
X0353915Y0274105D01*
X0350641Y0274105D01*
X0348325Y0271790D01*
X0348325Y0268515D01*
X0350641Y0266200D01*
X0353915Y0266200D01*
X0356231Y0268515D01*
X0356231Y0271790D01*
X0356231Y0269203D02*
X0393201Y0269203D01*
X0393201Y0271603D02*
X0365734Y0271603D01*
X0365304Y0271172D02*
X0367912Y0273781D01*
X0367912Y0275141D01*
X0363944Y0275141D01*
X0363944Y0271172D01*
X0365304Y0271172D01*
X0366300Y0272169D02*
X0366300Y0267469D01*
X0366966Y0266803D02*
X0393201Y0266803D01*
X0393201Y0264403D02*
X0367412Y0264403D01*
X0368156Y0262003D02*
X0393201Y0262003D01*
X0393201Y0259603D02*
X0370556Y0259603D01*
X0371100Y0259059D02*
X0371100Y0318163D01*
X0368700Y0318163D02*
X0368700Y0261459D01*
X0366596Y0259603D02*
X0356231Y0259603D01*
X0356231Y0260884D02*
X0356231Y0257610D01*
X0353915Y0255294D01*
X0350641Y0255294D01*
X0348325Y0257610D01*
X0348325Y0260884D01*
X0350641Y0263200D01*
X0353915Y0263200D01*
X0356231Y0260884D01*
X0355112Y0262003D02*
X0360586Y0262003D01*
X0361500Y0261089D02*
X0361500Y0257445D01*
X0361258Y0257203D02*
X0355824Y0257203D01*
X0354300Y0255679D02*
X0354300Y0251910D01*
X0353915Y0252294D02*
X0350641Y0252294D01*
X0348325Y0249979D01*
X0348325Y0246704D01*
X0350641Y0244389D01*
X0353915Y0244389D01*
X0356231Y0246704D01*
X0356231Y0249979D01*
X0353915Y0252294D01*
X0351900Y0252294D02*
X0351900Y0255294D01*
X0349500Y0256435D02*
X0349500Y0251153D01*
X0348349Y0250003D02*
X0304475Y0250003D01*
X0304475Y0252403D02*
X0359507Y0252403D01*
X0359507Y0252177D02*
X0361822Y0249861D01*
X0365097Y0249861D01*
X0367412Y0252177D01*
X0367412Y0255451D01*
X0365097Y0257767D01*
X0361822Y0257767D01*
X0359507Y0255451D01*
X0359507Y0252177D01*
X0359507Y0254803D02*
X0304475Y0254803D01*
X0304475Y0257203D02*
X0338781Y0257203D01*
X0338781Y0257852D02*
X0338781Y0256121D01*
X0340005Y0254898D01*
X0341735Y0254898D01*
X0342959Y0256121D01*
X0342959Y0257852D01*
X0341735Y0259075D01*
X0340005Y0259075D01*
X0338781Y0257852D01*
X0339900Y0258971D02*
X0339900Y0318163D01*
X0342300Y0318163D02*
X0342300Y0258511D01*
X0342959Y0257203D02*
X0348732Y0257203D01*
X0348325Y0259603D02*
X0304475Y0259603D01*
X0304475Y0262003D02*
X0349444Y0262003D01*
X0349500Y0262059D02*
X0349500Y0267341D01*
X0350038Y0266803D02*
X0304475Y0266803D01*
X0304475Y0269203D02*
X0348325Y0269203D01*
X0348325Y0271603D02*
X0304475Y0271603D01*
X0304475Y0274003D02*
X0350538Y0274003D01*
X0351900Y0274105D02*
X0351900Y0277105D01*
X0350641Y0277105D02*
X0353915Y0277105D01*
X0356231Y0279421D01*
X0356231Y0282695D01*
X0353915Y0285011D01*
X0350641Y0285011D01*
X0348325Y0282695D01*
X0348325Y0279421D01*
X0350641Y0277105D01*
X0349500Y0278246D02*
X0349500Y0272964D01*
X0354018Y0274003D02*
X0359007Y0274003D01*
X0359100Y0273687D02*
X0359100Y0221941D01*
X0356700Y0221941D02*
X0356700Y0300456D01*
X0359100Y0300456D02*
X0359100Y0277563D01*
X0359007Y0276403D02*
X0304475Y0276403D01*
X0304475Y0278803D02*
X0348943Y0278803D01*
X0348325Y0281203D02*
X0304475Y0281203D01*
X0301675Y0281203D02*
X0252004Y0281203D01*
X0251100Y0280299D02*
X0251100Y0269841D01*
X0250461Y0269203D02*
X0240004Y0269203D01*
X0239100Y0268299D02*
X0239100Y0264909D01*
X0241500Y0264909D02*
X0241500Y0270699D01*
X0242404Y0271603D02*
X0252861Y0271603D01*
X0253500Y0272241D02*
X0253500Y0282699D01*
X0254404Y0283603D02*
X0301675Y0283603D01*
X0301675Y0286003D02*
X0256804Y0286003D01*
X0255900Y0285099D02*
X0255900Y0274404D01*
X0255261Y0274003D02*
X0244804Y0274003D01*
X0243900Y0273099D02*
X0243900Y0264909D01*
X0246300Y0265041D02*
X0246300Y0275499D01*
X0247204Y0276403D02*
X0301675Y0276403D01*
X0301675Y0278803D02*
X0249604Y0278803D01*
X0248700Y0277899D02*
X0248700Y0267441D01*
X0248061Y0266803D02*
X0237604Y0266803D01*
X0236700Y0265899D02*
X0236700Y0264909D01*
X0236700Y0261909D02*
X0236700Y0252572D01*
X0234300Y0252572D02*
X0234300Y0261909D01*
X0231900Y0261909D02*
X0231900Y0252815D01*
X0231421Y0251172D02*
X0226697Y0255896D01*
X0226697Y0255954D01*
X0228402Y0257203D02*
X0245741Y0257203D01*
X0245421Y0256882D02*
X0244729Y0256882D01*
X0243506Y0255659D01*
X0243506Y0253928D01*
X0244729Y0252704D01*
X0246460Y0252704D01*
X0247683Y0253928D01*
X0247683Y0254620D01*
X0258367Y0265303D01*
X0259058Y0265303D01*
X0260282Y0266526D01*
X0260282Y0268257D01*
X0259058Y0269481D01*
X0257328Y0269481D01*
X0256104Y0268257D01*
X0256104Y0267565D01*
X0245421Y0256882D01*
X0246300Y0257762D02*
X0246300Y0261909D01*
X0247504Y0262003D02*
X0250541Y0262003D01*
X0251100Y0262562D02*
X0251100Y0265599D01*
X0249904Y0264403D02*
X0252941Y0264403D01*
X0253500Y0264962D02*
X0253500Y0267999D01*
X0252304Y0266803D02*
X0255341Y0266803D01*
X0255900Y0267362D02*
X0255900Y0270399D01*
X0257050Y0269203D02*
X0254704Y0269203D01*
X0258300Y0269481D02*
X0258300Y0271404D01*
X0260700Y0271404D02*
X0260700Y0252572D01*
X0258300Y0252572D02*
X0258300Y0265236D01*
X0257467Y0264403D02*
X0301675Y0264403D01*
X0301675Y0266803D02*
X0260282Y0266803D01*
X0259336Y0269203D02*
X0301675Y0269203D01*
X0301675Y0271603D02*
X0278605Y0271603D01*
X0277500Y0270913D02*
X0277500Y0252572D01*
X0278623Y0252403D02*
X0301675Y0252403D01*
X0301675Y0254803D02*
X0265233Y0254803D01*
X0265500Y0255070D02*
X0265500Y0252572D01*
X0264611Y0254181D02*
X0265892Y0255462D01*
X0265892Y0257274D01*
X0264611Y0258555D01*
X0262799Y0258555D01*
X0261517Y0257274D01*
X0261517Y0255462D01*
X0262799Y0254181D01*
X0264611Y0254181D01*
X0263100Y0254181D02*
X0263100Y0252572D01*
X0262177Y0254803D02*
X0247867Y0254803D01*
X0248700Y0255636D02*
X0248700Y0252572D01*
X0246300Y0252572D02*
X0246300Y0252704D01*
X0243900Y0252572D02*
X0243900Y0253534D01*
X0243506Y0254803D02*
X0229912Y0254803D01*
X0229500Y0255215D02*
X0229500Y0261909D01*
X0227100Y0261909D02*
X0227100Y0258043D01*
X0224991Y0257203D02*
X0176897Y0257203D01*
X0176700Y0257006D02*
X0176700Y0252518D01*
X0174300Y0252518D02*
X0174300Y0254606D01*
X0174497Y0254803D02*
X0224894Y0254803D01*
X0224700Y0254997D02*
X0224700Y0254479D01*
X0224700Y0256911D02*
X0224700Y0261909D01*
X0222300Y0261909D02*
X0222300Y0253269D01*
X0222287Y0252403D02*
X0220518Y0252403D01*
X0219900Y0253507D02*
X0219900Y0261909D01*
X0217500Y0261909D02*
X0217500Y0254048D01*
X0216340Y0252403D02*
X0185385Y0252403D01*
X0186300Y0251488D02*
X0186300Y0261909D01*
X0183900Y0261909D02*
X0183900Y0252518D01*
X0184649Y0251018D02*
X0172528Y0251018D01*
X0137327Y0215817D01*
X0137327Y0219754D02*
X0180982Y0263409D01*
X0246789Y0263409D01*
X0256284Y0272904D01*
X0277091Y0272904D01*
X0277500Y0274894D02*
X0277500Y0294535D01*
X0278983Y0295603D02*
X0301675Y0295603D01*
X0301675Y0298003D02*
X0278428Y0298003D01*
X0277500Y0298516D02*
X0277500Y0309299D01*
X0275100Y0309299D02*
X0275100Y0298026D01*
X0272700Y0298026D02*
X0272700Y0309299D01*
X0270300Y0309299D02*
X0270300Y0298026D01*
X0267900Y0298026D02*
X0267900Y0309299D01*
X0265500Y0309299D02*
X0265500Y0302608D01*
X0265419Y0302803D02*
X0301675Y0302803D01*
X0301675Y0305203D02*
X0264402Y0305203D01*
X0263100Y0306505D02*
X0263100Y0309299D01*
X0261855Y0307603D02*
X0300254Y0307603D01*
X0299100Y0308757D02*
X0299100Y0178045D01*
X0298904Y0178003D02*
X0286567Y0178003D01*
X0286567Y0180403D02*
X0311124Y0180403D01*
X0311124Y0182803D02*
X0286567Y0182803D01*
X0286567Y0185203D02*
X0311124Y0185203D01*
X0311124Y0187603D02*
X0286567Y0187603D01*
X0286567Y0190003D02*
X0311124Y0190003D01*
X0311124Y0192403D02*
X0286567Y0192403D01*
X0286567Y0194803D02*
X0311124Y0194803D01*
X0311100Y0195182D02*
X0311100Y0168045D01*
X0311074Y0168403D02*
X0311124Y0168403D01*
X0311100Y0166660D02*
X0311100Y0132571D01*
X0308700Y0132571D02*
X0308700Y0160488D01*
X0309191Y0161203D02*
X0311124Y0161203D01*
X0311124Y0163603D02*
X0310445Y0163603D01*
X0311079Y0166003D02*
X0311124Y0166003D01*
X0313924Y0161203D02*
X0314010Y0161203D01*
X0311124Y0158803D02*
X0306872Y0158803D01*
X0306300Y0158356D02*
X0306300Y0132571D01*
X0303900Y0132571D02*
X0303900Y0157212D01*
X0301500Y0156679D02*
X0301500Y0132571D01*
X0300358Y0132403D02*
X0289046Y0132403D01*
X0289046Y0134803D02*
X0328209Y0134803D01*
X0328209Y0132403D02*
X0322120Y0132403D01*
X0320700Y0133260D02*
X0320700Y0144637D01*
X0320934Y0144403D02*
X0289046Y0144403D01*
X0289046Y0146803D02*
X0318534Y0146803D01*
X0318300Y0147037D02*
X0318300Y0132571D01*
X0315900Y0132571D02*
X0315900Y0149437D01*
X0316134Y0149203D02*
X0289046Y0149203D01*
X0289046Y0151603D02*
X0313734Y0151603D01*
X0313500Y0151837D02*
X0313500Y0132571D01*
X0313500Y0129771D02*
X0313500Y0118398D01*
X0315900Y0118398D02*
X0315900Y0123275D01*
X0314470Y0125203D02*
X0297118Y0125203D01*
X0296700Y0124785D02*
X0296700Y0118398D01*
X0294300Y0118398D02*
X0294300Y0122385D01*
X0294718Y0122803D02*
X0326978Y0122803D01*
X0327900Y0123724D02*
X0327900Y0137437D01*
X0328134Y0137203D02*
X0289046Y0137203D01*
X0289046Y0139603D02*
X0325734Y0139603D01*
X0325500Y0139837D02*
X0325500Y0121324D01*
X0324578Y0120403D02*
X0292318Y0120403D01*
X0291900Y0119985D02*
X0291900Y0118398D01*
X0291900Y0115598D02*
X0291900Y0103659D01*
X0291843Y0103603D02*
X0277092Y0103603D01*
X0277500Y0104010D02*
X0277500Y0093372D01*
X0277670Y0093201D02*
X0275243Y0095629D01*
X0275243Y0096603D01*
X0274019Y0097827D01*
X0272288Y0097827D01*
X0271065Y0096603D01*
X0271065Y0094873D01*
X0272288Y0093649D01*
X0273263Y0093649D01*
X0275691Y0091221D01*
X0276511Y0090401D01*
X0344600Y0090401D01*
X0355623Y0101425D01*
X0356443Y0102245D01*
X0356443Y0103971D01*
X0358197Y0102217D01*
X0361472Y0102217D01*
X0363787Y0104532D01*
X0363787Y0107807D01*
X0361472Y0110122D01*
X0358197Y0110122D01*
X0356443Y0108368D01*
X0356443Y0112987D01*
X0358197Y0111233D01*
X0361472Y0111233D01*
X0363787Y0113548D01*
X0363787Y0116823D01*
X0361472Y0119138D01*
X0358197Y0119138D01*
X0356443Y0117384D01*
X0356443Y0118830D01*
X0358029Y0120416D01*
X0358197Y0120248D01*
X0361472Y0120248D01*
X0363787Y0122564D01*
X0363787Y0125838D01*
X0361472Y0128154D01*
X0358197Y0128154D01*
X0355882Y0125838D01*
X0355882Y0122564D01*
X0356050Y0122396D01*
X0353787Y0120134D01*
X0353787Y0121331D01*
X0351472Y0123646D01*
X0348197Y0123646D01*
X0345882Y0121331D01*
X0345882Y0118056D01*
X0348197Y0115740D01*
X0351472Y0115740D01*
X0353643Y0117912D01*
X0353643Y0112459D01*
X0351472Y0114630D01*
X0348197Y0114630D01*
X0345882Y0112315D01*
X0345882Y0109040D01*
X0348197Y0106725D01*
X0351472Y0106725D01*
X0353643Y0108896D01*
X0353643Y0103405D01*
X0343440Y0093201D01*
X0277670Y0093201D01*
X0276869Y0094003D02*
X0287683Y0094003D01*
X0287100Y0094585D02*
X0287100Y0093201D01*
X0289500Y0093201D02*
X0289500Y0093649D01*
X0290120Y0094003D02*
X0344241Y0094003D01*
X0344700Y0094461D02*
X0344700Y0167298D01*
X0344910Y0167088D02*
X0342465Y0169533D01*
X0341142Y0172728D01*
X0341142Y0176186D01*
X0342465Y0179381D01*
X0344910Y0181827D01*
X0348105Y0183150D01*
X0351564Y0183150D01*
X0354759Y0181827D01*
X0357204Y0179381D01*
X0358527Y0176186D01*
X0358527Y0172728D01*
X0357204Y0169533D01*
X0354759Y0167088D01*
X0351564Y0165764D01*
X0348105Y0165764D01*
X0344910Y0167088D01*
X0343595Y0168403D02*
X0333609Y0168403D01*
X0333609Y0170803D02*
X0341939Y0170803D01*
X0342300Y0169931D02*
X0342300Y0145357D01*
X0341472Y0146185D02*
X0338197Y0146185D01*
X0335882Y0143870D01*
X0335882Y0140595D01*
X0338197Y0138280D01*
X0341472Y0138280D01*
X0343787Y0140595D01*
X0343787Y0143870D01*
X0341472Y0146185D01*
X0339900Y0146185D02*
X0339900Y0156543D01*
X0339177Y0156543D02*
X0340989Y0156543D01*
X0342270Y0157824D01*
X0342270Y0159636D01*
X0340989Y0160918D01*
X0339177Y0160918D01*
X0337895Y0159636D01*
X0337895Y0157824D01*
X0339177Y0156543D01*
X0337895Y0158803D02*
X0333609Y0158803D01*
X0333609Y0161203D02*
X0393201Y0161203D01*
X0393201Y0163603D02*
X0333609Y0163603D01*
X0333609Y0166003D02*
X0347529Y0166003D01*
X0347100Y0166181D02*
X0347100Y0149596D01*
X0346707Y0149203D02*
X0333609Y0149203D01*
X0333609Y0151603D02*
X0393201Y0151603D01*
X0393201Y0154003D02*
X0333609Y0154003D01*
X0333609Y0156403D02*
X0393201Y0156403D01*
X0393201Y0158803D02*
X0342270Y0158803D01*
X0339900Y0160918D02*
X0339900Y0208143D01*
X0340960Y0209203D02*
X0349865Y0209203D01*
X0349865Y0208442D02*
X0349865Y0211626D01*
X0351083Y0214568D01*
X0353335Y0216820D01*
X0356277Y0218038D01*
X0359461Y0218038D01*
X0362403Y0216820D01*
X0364654Y0214568D01*
X0365873Y0211626D01*
X0365873Y0208442D01*
X0364654Y0205501D01*
X0362403Y0203249D01*
X0359461Y0202030D01*
X0356277Y0202030D01*
X0353335Y0203249D01*
X0351083Y0205501D01*
X0349865Y0208442D01*
X0350544Y0206803D02*
X0338560Y0206803D01*
X0337500Y0205743D02*
X0337500Y0145488D01*
X0336415Y0144403D02*
X0333609Y0144403D01*
X0333609Y0146803D02*
X0345882Y0146803D01*
X0345882Y0148378D02*
X0345882Y0145103D01*
X0348197Y0142788D01*
X0351472Y0142788D01*
X0353787Y0145103D01*
X0353787Y0148378D01*
X0351472Y0150693D01*
X0348197Y0150693D01*
X0345882Y0148378D01*
X0349500Y0150693D02*
X0349500Y0165764D01*
X0351900Y0165903D02*
X0351900Y0150265D01*
X0352962Y0149203D02*
X0393201Y0149203D01*
X0393201Y0146803D02*
X0353787Y0146803D01*
X0353087Y0144403D02*
X0356415Y0144403D01*
X0356700Y0144688D02*
X0356700Y0169029D01*
X0356074Y0168403D02*
X0393201Y0168403D01*
X0393201Y0170803D02*
X0357730Y0170803D01*
X0358527Y0173203D02*
X0393201Y0173203D01*
X0393201Y0175603D02*
X0358527Y0175603D01*
X0357775Y0178003D02*
X0393201Y0178003D01*
X0393201Y0180403D02*
X0356182Y0180403D01*
X0356700Y0179885D02*
X0356700Y0202030D01*
X0359100Y0202030D02*
X0359100Y0146185D01*
X0358197Y0146185D02*
X0355882Y0143870D01*
X0355882Y0140595D01*
X0358197Y0138280D01*
X0361472Y0138280D01*
X0363787Y0140595D01*
X0363787Y0143870D01*
X0361472Y0146185D01*
X0358197Y0146185D01*
X0361500Y0146157D02*
X0361500Y0202875D01*
X0363556Y0204403D02*
X0393201Y0204403D01*
X0393201Y0206803D02*
X0365194Y0206803D01*
X0363900Y0204746D02*
X0363900Y0007203D01*
X0361500Y0007203D02*
X0361500Y0102245D01*
X0362858Y0103603D02*
X0393201Y0103603D01*
X0393201Y0106003D02*
X0363787Y0106003D01*
X0363191Y0108403D02*
X0393201Y0108403D01*
X0393201Y0110803D02*
X0356443Y0110803D01*
X0356700Y0112730D02*
X0356700Y0108625D01*
X0356478Y0108403D02*
X0356443Y0108403D01*
X0353643Y0108403D02*
X0353150Y0108403D01*
X0351900Y0107153D02*
X0351900Y0101661D01*
X0351441Y0101203D02*
X0323905Y0101203D01*
X0323100Y0100398D02*
X0323100Y0093201D01*
X0320700Y0093201D02*
X0320700Y0097998D01*
X0321505Y0098803D02*
X0349041Y0098803D01*
X0349500Y0099261D02*
X0349500Y0106725D01*
X0347100Y0107822D02*
X0347100Y0096861D01*
X0346641Y0096403D02*
X0319105Y0096403D01*
X0318300Y0095598D02*
X0318300Y0093201D01*
X0315900Y0093201D02*
X0315900Y0094338D01*
X0313500Y0094338D02*
X0313500Y0093201D01*
X0311100Y0093201D02*
X0311100Y0094338D01*
X0308700Y0094338D02*
X0308700Y0093201D01*
X0306300Y0093201D02*
X0306300Y0094338D01*
X0303900Y0094338D02*
X0303900Y0093201D01*
X0301500Y0093201D02*
X0301500Y0094338D01*
X0299100Y0094338D02*
X0299100Y0093201D01*
X0296700Y0093201D02*
X0296700Y0094338D01*
X0294300Y0094338D02*
X0294300Y0093201D01*
X0291900Y0093201D02*
X0291900Y0094338D01*
X0291900Y0097138D02*
X0291900Y0099628D01*
X0290750Y0101203D02*
X0275243Y0101203D01*
X0275100Y0100636D02*
X0275100Y0096746D01*
X0275243Y0096403D02*
X0286813Y0096403D01*
X0287100Y0096891D02*
X0287100Y0113347D01*
X0286956Y0113203D02*
X0329509Y0113203D01*
X0329509Y0115603D02*
X0323738Y0115603D01*
X0323100Y0115598D02*
X0323100Y0106196D01*
X0322907Y0106003D02*
X0279756Y0106003D01*
X0279900Y0106147D02*
X0279900Y0093201D01*
X0282300Y0093201D02*
X0282300Y0108547D01*
X0282156Y0108403D02*
X0325307Y0108403D01*
X0325500Y0108596D02*
X0325500Y0117365D01*
X0326138Y0118003D02*
X0329509Y0118003D01*
X0327900Y0119765D02*
X0327900Y0110996D01*
X0327707Y0110803D02*
X0284556Y0110803D01*
X0284700Y0110947D02*
X0284700Y0093201D01*
X0284700Y0090401D02*
X0284700Y0007203D01*
X0282300Y0007203D02*
X0282300Y0090401D01*
X0279900Y0090401D02*
X0279900Y0007203D01*
X0277500Y0007203D02*
X0277500Y0090401D01*
X0275309Y0091603D02*
X0227309Y0091603D01*
X0227309Y0094003D02*
X0240439Y0094003D01*
X0241500Y0093649D02*
X0241500Y0078202D01*
X0241045Y0077747D02*
X0241045Y0075934D01*
X0242326Y0074653D01*
X0244138Y0074653D01*
X0245420Y0075934D01*
X0245420Y0077747D01*
X0244138Y0079028D01*
X0242326Y0079028D01*
X0241045Y0077747D01*
X0241045Y0077203D02*
X0217219Y0077203D01*
X0217500Y0077484D02*
X0217500Y0007203D01*
X0215100Y0007203D02*
X0215100Y0075084D01*
X0214819Y0074803D02*
X0242177Y0074803D01*
X0241500Y0075479D02*
X0241500Y0007203D01*
X0239100Y0007203D02*
X0239100Y0096316D01*
X0239013Y0096403D02*
X0227998Y0096403D01*
X0227100Y0097502D02*
X0227100Y0098281D01*
X0229500Y0098281D02*
X0229500Y0066036D01*
X0228940Y0066036D02*
X0227659Y0064754D01*
X0227659Y0062942D01*
X0228940Y0061661D01*
X0230752Y0061661D01*
X0232034Y0062942D01*
X0232034Y0064754D01*
X0230752Y0066036D01*
X0228940Y0066036D01*
X0228107Y0065203D02*
X0205219Y0065203D01*
X0205500Y0065484D02*
X0205500Y0007203D01*
X0203100Y0007203D02*
X0203100Y0063084D01*
X0202819Y0062803D02*
X0227799Y0062803D01*
X0229500Y0061661D02*
X0229500Y0007203D01*
X0227100Y0007203D02*
X0227100Y0087075D01*
X0226828Y0086803D02*
X0393201Y0086803D01*
X0393201Y0089203D02*
X0227309Y0089203D01*
X0224700Y0084675D02*
X0224700Y0007203D01*
X0222300Y0007203D02*
X0222300Y0037851D01*
X0222361Y0037877D02*
X0223141Y0038656D01*
X0223563Y0039675D01*
X0223563Y0040778D01*
X0223141Y0041796D01*
X0222361Y0042576D01*
X0221343Y0042998D01*
X0220240Y0042998D01*
X0219221Y0042576D01*
X0218442Y0041796D01*
X0218020Y0040778D01*
X0218020Y0039675D01*
X0218442Y0038656D01*
X0219221Y0037877D01*
X0220240Y0037455D01*
X0221343Y0037455D01*
X0222361Y0037877D01*
X0223202Y0038803D02*
X0393201Y0038803D01*
X0393201Y0041203D02*
X0360093Y0041203D01*
X0360093Y0040189D02*
X0360093Y0050467D01*
X0359507Y0051053D01*
X0349230Y0051053D01*
X0348644Y0050467D01*
X0348644Y0040189D01*
X0349230Y0039604D01*
X0359507Y0039604D01*
X0360093Y0040189D01*
X0359100Y0039604D02*
X0359100Y0026553D01*
X0359290Y0026553D02*
X0354868Y0026553D01*
X0354868Y0020828D01*
X0353868Y0020828D01*
X0353868Y0019828D01*
X0348144Y0019828D01*
X0348144Y0015406D01*
X0348246Y0015025D01*
X0348443Y0014683D01*
X0348723Y0014403D01*
X0349065Y0014206D01*
X0349446Y0014104D01*
X0353868Y0014104D01*
X0353868Y0019828D01*
X0354868Y0019828D01*
X0354868Y0014104D01*
X0359290Y0014104D01*
X0359672Y0014206D01*
X0360014Y0014403D01*
X0360293Y0014683D01*
X0360490Y0015025D01*
X0360593Y0015406D01*
X0360593Y0019828D01*
X0354868Y0019828D01*
X0354868Y0020828D01*
X0360593Y0020828D01*
X0360593Y0025250D01*
X0360490Y0025631D01*
X0360293Y0025974D01*
X0360014Y0026253D01*
X0359672Y0026450D01*
X0359290Y0026553D01*
X0360593Y0024403D02*
X0393201Y0024403D01*
X0393201Y0026803D02*
X0098506Y0026803D01*
X0098400Y0026908D02*
X0096942Y0027513D01*
X0095363Y0027513D01*
X0093904Y0026908D01*
X0092788Y0025792D01*
X0092184Y0024333D01*
X0092184Y0022755D01*
X0092788Y0021296D01*
X0093904Y0020180D01*
X0095363Y0019576D01*
X0096942Y0019576D01*
X0098400Y0020180D01*
X0099517Y0021296D01*
X0100121Y0022755D01*
X0100121Y0024333D01*
X0099517Y0025792D01*
X0098400Y0026908D01*
X0097500Y0027281D02*
X0097500Y0092255D01*
X0098153Y0091603D02*
X0066984Y0091603D01*
X0066984Y0094003D02*
X0095753Y0094003D01*
X0095100Y0094646D02*
X0095100Y0027404D01*
X0093799Y0026803D02*
X0081183Y0026803D01*
X0081078Y0026908D02*
X0079619Y0027513D01*
X0078040Y0027513D01*
X0076582Y0026908D01*
X0075465Y0025792D01*
X0074861Y0024333D01*
X0074861Y0022755D01*
X0075465Y0021296D01*
X0076582Y0020180D01*
X0078040Y0019576D01*
X0079619Y0019576D01*
X0081078Y0020180D01*
X0082194Y0021296D01*
X0082798Y0022755D01*
X0082798Y0024333D01*
X0082194Y0025792D01*
X0081078Y0026908D01*
X0080700Y0027065D02*
X0080700Y0046122D01*
X0080819Y0046003D02*
X0045223Y0046003D01*
X0044700Y0045178D02*
X0044700Y0025867D01*
X0045022Y0025545D02*
X0043905Y0026662D01*
X0042447Y0027266D01*
X0040868Y0027266D01*
X0039409Y0026662D01*
X0038293Y0025545D01*
X0037689Y0024087D01*
X0037689Y0022508D01*
X0038293Y0021049D01*
X0039409Y0019933D01*
X0040868Y0019329D01*
X0042447Y0019329D01*
X0043905Y0019933D01*
X0045022Y0021049D01*
X0045626Y0022508D01*
X0045626Y0024087D01*
X0045022Y0025545D01*
X0045495Y0024403D02*
X0074890Y0024403D01*
X0075900Y0026227D02*
X0075900Y0142635D01*
X0076522Y0143257D02*
X0075241Y0141976D01*
X0073429Y0141976D01*
X0072147Y0143257D01*
X0072147Y0145069D01*
X0073429Y0146351D01*
X0075241Y0146351D01*
X0076522Y0145069D01*
X0076522Y0143257D01*
X0076522Y0144403D02*
X0086314Y0144403D01*
X0086314Y0146803D02*
X0066984Y0146803D01*
X0066984Y0149203D02*
X0086314Y0149203D01*
X0086314Y0151603D02*
X0069344Y0151603D01*
X0068700Y0150959D02*
X0068700Y0101370D01*
X0069462Y0101203D02*
X0088544Y0101203D01*
X0087900Y0101846D02*
X0087900Y0081981D01*
X0087290Y0081981D02*
X0086124Y0080815D01*
X0086124Y0079166D01*
X0087290Y0078000D01*
X0088939Y0078000D01*
X0090105Y0079166D01*
X0090105Y0080815D01*
X0088939Y0081981D01*
X0087290Y0081981D01*
X0086124Y0079603D02*
X0066984Y0079603D01*
X0066984Y0082003D02*
X0106769Y0082003D01*
X0107100Y0081672D02*
X0107100Y0072541D01*
X0106148Y0072541D02*
X0103098Y0071278D01*
X0100763Y0068943D01*
X0099500Y0065893D01*
X0099500Y0062591D01*
X0100763Y0059541D01*
X0103098Y0057206D01*
X0106148Y0055943D01*
X0109450Y0055943D01*
X0112500Y0057206D01*
X0114835Y0059541D01*
X0116098Y0062591D01*
X0116098Y0065893D01*
X0114835Y0068943D01*
X0112500Y0071278D01*
X0109450Y0072541D01*
X0106148Y0072541D01*
X0105814Y0072403D02*
X0066984Y0072403D01*
X0065484Y0072321D02*
X0048744Y0055581D01*
X0048744Y0052431D01*
X0047418Y0050803D02*
X0046207Y0050803D01*
X0047100Y0051121D02*
X0047100Y0007203D01*
X0044700Y0007203D02*
X0044700Y0020727D01*
X0045417Y0022003D02*
X0075173Y0022003D01*
X0075900Y0020861D02*
X0075900Y0007203D01*
X0078300Y0007203D02*
X0078300Y0019576D01*
X0077974Y0019603D02*
X0043108Y0019603D01*
X0042300Y0019329D02*
X0042300Y0007203D01*
X0039900Y0007203D02*
X0039900Y0019730D01*
X0040207Y0019603D02*
X0025786Y0019603D01*
X0025500Y0019484D02*
X0025500Y0007203D01*
X0023100Y0007203D02*
X0023100Y0019513D01*
X0022884Y0019603D02*
X0003500Y0019603D01*
X0003500Y0022003D02*
X0020575Y0022003D01*
X0020700Y0021702D02*
X0020700Y0007203D01*
X0018300Y0007203D02*
X0018300Y0044762D01*
X0018998Y0043888D02*
X0018998Y0042076D01*
X0020279Y0040795D01*
X0022091Y0040795D01*
X0023372Y0042076D01*
X0023372Y0043888D01*
X0022091Y0045170D01*
X0020279Y0045170D01*
X0018998Y0043888D01*
X0018998Y0043603D02*
X0003500Y0043603D01*
X0003500Y0046003D02*
X0015257Y0046003D01*
X0015900Y0045059D02*
X0015900Y0007203D01*
X0013500Y0007203D02*
X0013500Y0318163D01*
X0011100Y0318163D02*
X0011100Y0007203D01*
X0008700Y0007203D02*
X0008700Y0318163D01*
X0006300Y0318163D02*
X0006300Y0007203D01*
X0003500Y0010003D02*
X0393201Y0010003D01*
X0393201Y0012403D02*
X0260942Y0012403D01*
X0260700Y0012161D02*
X0260700Y0007203D01*
X0258300Y0007203D02*
X0258300Y0011248D01*
X0257905Y0011248D02*
X0259787Y0011248D01*
X0263155Y0014616D01*
X0263155Y0016498D01*
X0257906Y0016498D01*
X0257906Y0017498D01*
X0263155Y0017498D01*
X0263155Y0019380D01*
X0259787Y0022748D01*
X0257905Y0022748D01*
X0257905Y0017498D01*
X0256906Y0017498D01*
X0256906Y0022748D01*
X0255024Y0022748D01*
X0251656Y0019380D01*
X0251655Y0017498D01*
X0256905Y0017498D01*
X0256905Y0016498D01*
X0251656Y0016498D01*
X0251656Y0014616D01*
X0255024Y0011248D01*
X0256906Y0011248D01*
X0256906Y0016498D01*
X0257905Y0016498D01*
X0257905Y0011248D01*
X0257905Y0012403D02*
X0256906Y0012403D01*
X0255900Y0011248D02*
X0255900Y0007203D01*
X0253500Y0007203D02*
X0253500Y0012772D01*
X0253869Y0012403D02*
X0003500Y0012403D01*
X0003500Y0014803D02*
X0251656Y0014803D01*
X0253500Y0016498D02*
X0253500Y0017498D01*
X0255900Y0017498D02*
X0255900Y0016498D01*
X0256905Y0017203D02*
X0149750Y0017203D01*
X0149750Y0017904D02*
X0148469Y0019185D01*
X0146657Y0019185D01*
X0145376Y0017904D01*
X0145376Y0016092D01*
X0146657Y0014811D01*
X0148469Y0014811D01*
X0149750Y0016092D01*
X0149750Y0017904D01*
X0147900Y0019185D02*
X0147900Y0054974D01*
X0150300Y0054974D02*
X0150300Y0036863D01*
X0149840Y0036403D02*
X0135670Y0036403D01*
X0135900Y0036633D02*
X0135900Y0007203D01*
X0138300Y0007203D02*
X0138300Y0054974D01*
X0135900Y0054974D02*
X0135900Y0039096D01*
X0136193Y0038803D02*
X0154135Y0038803D01*
X0154135Y0039517D02*
X0154135Y0037786D01*
X0155359Y0036563D01*
X0157090Y0036563D01*
X0158313Y0037786D01*
X0158313Y0039517D01*
X0157090Y0040741D01*
X0155359Y0040741D01*
X0154135Y0039517D01*
X0155100Y0040481D02*
X0155100Y0054974D01*
X0157500Y0054974D02*
X0157500Y0040330D01*
X0158313Y0038803D02*
X0218381Y0038803D01*
X0219900Y0037596D02*
X0219900Y0007203D01*
X0212700Y0007203D02*
X0212700Y0072684D01*
X0212419Y0072403D02*
X0341929Y0072403D01*
X0342300Y0071506D02*
X0342300Y0007203D01*
X0344700Y0007203D02*
X0344700Y0068873D01*
X0344910Y0068662D02*
X0348105Y0067339D01*
X0351564Y0067339D01*
X0354759Y0068662D01*
X0357204Y0071108D01*
X0358527Y0074303D01*
X0358527Y0077761D01*
X0357204Y0080956D01*
X0354759Y0083401D01*
X0351564Y0084725D01*
X0348105Y0084725D01*
X0344910Y0083401D01*
X0342465Y0080956D01*
X0341142Y0077761D01*
X0341142Y0074303D01*
X0342465Y0071108D01*
X0344910Y0068662D01*
X0343570Y0070003D02*
X0298872Y0070003D01*
X0299100Y0069774D02*
X0299100Y0090401D01*
X0296700Y0090401D02*
X0296700Y0070951D01*
X0296224Y0070951D02*
X0295206Y0070529D01*
X0294426Y0069749D01*
X0294004Y0068730D01*
X0294004Y0067628D01*
X0294426Y0066609D01*
X0295206Y0065829D01*
X0296224Y0065407D01*
X0297327Y0065407D01*
X0298346Y0065829D01*
X0299125Y0066609D01*
X0299547Y0067628D01*
X0299547Y0068730D01*
X0299125Y0069749D01*
X0298346Y0070529D01*
X0297327Y0070951D01*
X0296224Y0070951D01*
X0294680Y0070003D02*
X0210019Y0070003D01*
X0210300Y0070284D02*
X0210300Y0007203D01*
X0207900Y0007203D02*
X0207900Y0054870D01*
X0208611Y0054870D02*
X0209835Y0056093D01*
X0209835Y0057824D01*
X0208611Y0059048D01*
X0206880Y0059048D01*
X0205657Y0057824D01*
X0205657Y0056093D01*
X0206880Y0054870D01*
X0208611Y0054870D01*
X0209344Y0055603D02*
X0232232Y0055603D01*
X0232232Y0053592D02*
X0232818Y0053006D01*
X0238371Y0053006D01*
X0238957Y0053592D01*
X0238957Y0059145D01*
X0238371Y0059730D01*
X0232818Y0059730D01*
X0232232Y0059145D01*
X0232232Y0053592D01*
X0232621Y0053203D02*
X0050833Y0053203D01*
X0050887Y0055603D02*
X0134153Y0055603D01*
X0133500Y0056255D02*
X0133500Y0039953D01*
X0133312Y0039953D02*
X0132088Y0038729D01*
X0132088Y0036999D01*
X0133312Y0035775D01*
X0135042Y0035775D01*
X0136266Y0036999D01*
X0136266Y0038729D01*
X0135042Y0039953D01*
X0133312Y0039953D01*
X0132161Y0038803D02*
X0003500Y0038803D01*
X0003500Y0041203D02*
X0019871Y0041203D01*
X0020700Y0040795D02*
X0020700Y0024893D01*
X0020497Y0024403D02*
X0003500Y0024403D01*
X0003500Y0026803D02*
X0022428Y0026803D01*
X0022087Y0026662D02*
X0020970Y0025545D01*
X0020366Y0024087D01*
X0020366Y0022508D01*
X0020970Y0021049D01*
X0022087Y0019933D01*
X0023545Y0019329D01*
X0025124Y0019329D01*
X0026583Y0019933D01*
X0027699Y0021049D01*
X0028303Y0022508D01*
X0028303Y0024087D01*
X0027699Y0025545D01*
X0026583Y0026662D01*
X0025124Y0027266D01*
X0023545Y0027266D01*
X0022087Y0026662D01*
X0023100Y0027081D02*
X0023100Y0041804D01*
X0022499Y0041203D02*
X0218196Y0041203D01*
X0219900Y0042857D02*
X0219900Y0079875D01*
X0219628Y0079603D02*
X0341904Y0079603D01*
X0342300Y0080558D02*
X0342300Y0090401D01*
X0339900Y0090401D02*
X0339900Y0007203D01*
X0337500Y0007203D02*
X0337500Y0090401D01*
X0335100Y0090401D02*
X0335100Y0007203D01*
X0332700Y0007203D02*
X0332700Y0090401D01*
X0330300Y0090401D02*
X0330300Y0007203D01*
X0327900Y0007203D02*
X0327900Y0090401D01*
X0325500Y0090401D02*
X0325500Y0007203D01*
X0323100Y0007203D02*
X0323100Y0051271D01*
X0323496Y0051667D02*
X0324760Y0054717D01*
X0324760Y0058019D01*
X0323496Y0061069D01*
X0321162Y0063404D01*
X0318111Y0064667D01*
X0314810Y0064667D01*
X0311759Y0063404D01*
X0309425Y0061069D01*
X0308161Y0058019D01*
X0308161Y0054717D01*
X0309425Y0051667D01*
X0311759Y0049332D01*
X0314810Y0048069D01*
X0318111Y0048069D01*
X0321162Y0049332D01*
X0323496Y0051667D01*
X0322632Y0050803D02*
X0348980Y0050803D01*
X0349500Y0051053D02*
X0349500Y0067339D01*
X0347468Y0067603D02*
X0299537Y0067603D01*
X0299100Y0066584D02*
X0299100Y0007203D01*
X0296700Y0007203D02*
X0296700Y0065407D01*
X0294300Y0066913D02*
X0294300Y0007203D01*
X0291900Y0007203D02*
X0291900Y0090401D01*
X0289500Y0090401D02*
X0289500Y0007203D01*
X0287100Y0007203D02*
X0287100Y0090401D01*
X0294300Y0090401D02*
X0294300Y0069445D01*
X0294014Y0067603D02*
X0207619Y0067603D01*
X0207900Y0067884D02*
X0207900Y0059048D01*
X0209656Y0058003D02*
X0232232Y0058003D01*
X0234300Y0059730D02*
X0234300Y0098281D01*
X0236700Y0098281D02*
X0236700Y0059730D01*
X0238957Y0058003D02*
X0241732Y0058003D01*
X0241732Y0058928D02*
X0241732Y0056656D01*
X0245307Y0056656D01*
X0245307Y0060230D01*
X0243035Y0060230D01*
X0242653Y0060128D01*
X0242311Y0059931D01*
X0242032Y0059651D01*
X0241835Y0059309D01*
X0241732Y0058928D01*
X0243900Y0060230D02*
X0243900Y0074653D01*
X0244288Y0074803D02*
X0341142Y0074803D01*
X0341142Y0077203D02*
X0245420Y0077203D01*
X0243900Y0079028D02*
X0243900Y0107724D01*
X0241500Y0107724D02*
X0241500Y0097876D01*
X0240573Y0098803D02*
X0317545Y0098803D01*
X0318300Y0099557D02*
X0318300Y0100244D01*
X0315900Y0100244D02*
X0315900Y0097157D01*
X0313500Y0097138D02*
X0313500Y0100244D01*
X0311100Y0100244D02*
X0311100Y0097138D01*
X0308700Y0097138D02*
X0308700Y0100244D01*
X0306300Y0100244D02*
X0306300Y0097138D01*
X0303900Y0097138D02*
X0303900Y0100244D01*
X0301500Y0100244D02*
X0301500Y0097138D01*
X0299100Y0097138D02*
X0299100Y0100244D01*
X0296700Y0100244D02*
X0296700Y0097138D01*
X0294300Y0097138D02*
X0294300Y0100151D01*
X0294300Y0103137D02*
X0294300Y0115598D01*
X0296700Y0115598D02*
X0296700Y0103044D01*
X0299100Y0103044D02*
X0299100Y0115598D01*
X0301500Y0115598D02*
X0301500Y0103044D01*
X0303900Y0103044D02*
X0303900Y0115598D01*
X0306300Y0115598D02*
X0306300Y0103044D01*
X0308700Y0103044D02*
X0308700Y0115598D01*
X0311100Y0115598D02*
X0311100Y0103044D01*
X0313500Y0103044D02*
X0313500Y0115598D01*
X0315900Y0115598D02*
X0315900Y0103044D01*
X0318300Y0103044D02*
X0318300Y0115598D01*
X0320700Y0115598D02*
X0320700Y0103796D01*
X0320507Y0103603D02*
X0293834Y0103603D01*
X0289500Y0097827D02*
X0289500Y0115598D01*
X0285958Y0118003D02*
X0285587Y0118003D01*
X0284700Y0117116D02*
X0284700Y0116745D01*
X0283558Y0115603D02*
X0283187Y0115603D01*
X0282300Y0114716D02*
X0282300Y0114345D01*
X0281158Y0113203D02*
X0280787Y0113203D01*
X0279900Y0112316D02*
X0279900Y0111945D01*
X0278758Y0110803D02*
X0278387Y0110803D01*
X0277500Y0109916D02*
X0277500Y0109545D01*
X0275100Y0111476D02*
X0275100Y0120558D01*
X0274945Y0120403D02*
X0283565Y0120403D01*
X0282300Y0118676D02*
X0282300Y0160480D01*
X0281696Y0160480D02*
X0283508Y0160480D01*
X0284790Y0161761D01*
X0284790Y0163573D01*
X0283508Y0164855D01*
X0281696Y0164855D01*
X0280415Y0163573D01*
X0280415Y0161761D01*
X0281696Y0160480D01*
X0280973Y0161203D02*
X0176922Y0161203D01*
X0176922Y0163603D02*
X0280444Y0163603D01*
X0282300Y0164855D02*
X0282300Y0225081D01*
X0281378Y0226003D02*
X0269812Y0226003D01*
X0270300Y0225515D02*
X0270300Y0228096D01*
X0272700Y0228096D02*
X0272700Y0224937D01*
X0275100Y0224937D02*
X0275100Y0228096D01*
X0277500Y0227606D02*
X0277500Y0156328D01*
X0277575Y0156403D02*
X0176922Y0156403D01*
X0176922Y0158803D02*
X0286246Y0158803D01*
X0286246Y0161203D02*
X0284231Y0161203D01*
X0284700Y0161672D02*
X0284700Y0122891D01*
X0284612Y0122803D02*
X0277345Y0122803D01*
X0277500Y0122958D02*
X0277500Y0113876D01*
X0276827Y0113203D02*
X0176922Y0113203D01*
X0176922Y0115603D02*
X0279227Y0115603D01*
X0279900Y0116276D02*
X0279900Y0152606D01*
X0279965Y0152606D02*
X0281246Y0153887D01*
X0281246Y0155699D01*
X0279965Y0156981D01*
X0278153Y0156981D01*
X0276872Y0155699D01*
X0276872Y0153887D01*
X0278153Y0152606D01*
X0279965Y0152606D01*
X0281246Y0154003D02*
X0286246Y0154003D01*
X0286246Y0156403D02*
X0280543Y0156403D01*
X0279900Y0156981D02*
X0279900Y0227481D01*
X0278978Y0228403D02*
X0278712Y0228403D01*
X0277091Y0229596D02*
X0210161Y0229596D01*
X0200713Y0239045D01*
X0200700Y0240545D02*
X0200700Y0245552D01*
X0201050Y0245203D02*
X0181851Y0245203D01*
X0181500Y0244852D02*
X0181500Y0240367D01*
X0179100Y0240367D02*
X0179100Y0245519D01*
X0179417Y0245203D02*
X0168834Y0245203D01*
X0169500Y0245869D02*
X0169500Y0240367D01*
X0167100Y0240367D02*
X0167100Y0243469D01*
X0166434Y0242803D02*
X0275059Y0242803D01*
X0275059Y0245203D02*
X0228976Y0245203D01*
X0229475Y0245701D02*
X0229475Y0247350D01*
X0229043Y0247781D01*
X0275775Y0247781D01*
X0276030Y0247527D01*
X0275879Y0247376D01*
X0275059Y0246556D01*
X0275059Y0240052D01*
X0274216Y0240052D01*
X0272935Y0238770D01*
X0272935Y0236958D01*
X0274216Y0235677D01*
X0275809Y0235677D01*
X0275809Y0231571D01*
X0276030Y0231351D01*
X0275775Y0231096D01*
X0210783Y0231096D01*
X0201334Y0240545D01*
X0200091Y0240545D01*
X0199913Y0240367D01*
X0165291Y0240367D01*
X0165113Y0240545D01*
X0164176Y0240545D01*
X0173149Y0249518D01*
X0181694Y0249518D01*
X0181694Y0248833D01*
X0181499Y0249029D01*
X0179769Y0249029D01*
X0178545Y0247805D01*
X0178545Y0246074D01*
X0179769Y0244851D01*
X0181499Y0244851D01*
X0182723Y0246074D01*
X0182723Y0247035D01*
X0182918Y0246840D01*
X0184649Y0246840D01*
X0185677Y0247868D01*
X0185764Y0247781D01*
X0200198Y0247781D01*
X0200198Y0246054D01*
X0201422Y0244830D01*
X0203153Y0244830D01*
X0204376Y0246054D01*
X0204376Y0247781D01*
X0222382Y0247781D01*
X0222344Y0247744D01*
X0222344Y0246095D01*
X0223510Y0244929D01*
X0225159Y0244929D01*
X0225713Y0245482D01*
X0226660Y0244535D01*
X0228309Y0244535D01*
X0229475Y0245701D01*
X0229222Y0247603D02*
X0275954Y0247603D01*
X0275879Y0247376D02*
X0275879Y0247376D01*
X0275100Y0247781D02*
X0275100Y0246597D01*
X0272700Y0247781D02*
X0272700Y0231096D01*
X0270300Y0231096D02*
X0270300Y0247781D01*
X0267900Y0247781D02*
X0267900Y0231096D01*
X0265500Y0231096D02*
X0265500Y0247781D01*
X0263100Y0247781D02*
X0263100Y0231096D01*
X0260700Y0231096D02*
X0260700Y0247781D01*
X0258300Y0247781D02*
X0258300Y0231096D01*
X0255900Y0231096D02*
X0255900Y0247781D01*
X0253500Y0247781D02*
X0253500Y0231096D01*
X0251100Y0231096D02*
X0251100Y0247781D01*
X0248700Y0247781D02*
X0248700Y0239658D01*
X0247838Y0239658D02*
X0246557Y0238377D01*
X0246557Y0236564D01*
X0247838Y0235283D01*
X0249650Y0235283D01*
X0250931Y0236564D01*
X0250931Y0238377D01*
X0249650Y0239658D01*
X0247838Y0239658D01*
X0246557Y0238003D02*
X0203876Y0238003D01*
X0203100Y0238779D02*
X0203100Y0244830D01*
X0203525Y0245203D02*
X0208072Y0245203D01*
X0208072Y0244479D02*
X0209296Y0243256D01*
X0211027Y0243256D01*
X0212250Y0244479D01*
X0212250Y0246210D01*
X0211027Y0247433D01*
X0209296Y0247433D01*
X0208072Y0246210D01*
X0208072Y0244479D01*
X0210300Y0243256D02*
X0210300Y0231579D01*
X0208676Y0233203D02*
X0243604Y0233203D01*
X0243604Y0232709D02*
X0244770Y0231543D01*
X0246419Y0231543D01*
X0247585Y0232709D01*
X0247585Y0234358D01*
X0246419Y0235524D01*
X0244770Y0235524D01*
X0243604Y0234358D01*
X0243604Y0232709D01*
X0243900Y0232413D02*
X0243900Y0231096D01*
X0241500Y0231096D02*
X0241500Y0238575D01*
X0241620Y0238455D02*
X0243269Y0238455D01*
X0244435Y0239621D01*
X0244435Y0241270D01*
X0243269Y0242436D01*
X0241620Y0242436D01*
X0240454Y0241270D01*
X0240454Y0239621D01*
X0241620Y0238455D01*
X0240454Y0240403D02*
X0201476Y0240403D01*
X0199949Y0240403D02*
X0165256Y0240403D01*
X0164700Y0240545D02*
X0164700Y0241069D01*
X0164492Y0239045D02*
X0162917Y0237470D01*
X0137327Y0211880D01*
X0145321Y0217753D02*
X0164645Y0237077D01*
X0198350Y0237077D01*
X0198300Y0235086D02*
X0198300Y0232965D01*
X0200700Y0231915D02*
X0200700Y0236937D01*
X0199691Y0235603D02*
X0202034Y0235603D01*
X0203100Y0234537D02*
X0203100Y0227402D01*
X0203952Y0226003D02*
X0241270Y0226003D01*
X0241500Y0226233D02*
X0241500Y0228096D01*
X0239100Y0228096D02*
X0239100Y0223522D01*
X0240651Y0223603D02*
X0206352Y0223603D01*
X0205500Y0224455D02*
X0205500Y0232137D01*
X0204434Y0233203D02*
X0178760Y0233203D01*
X0179100Y0232863D02*
X0179100Y0235577D01*
X0177559Y0234404D02*
X0177559Y0234404D01*
X0176700Y0235263D02*
X0176700Y0235577D01*
X0174300Y0235577D02*
X0174300Y0235459D01*
X0171900Y0235577D02*
X0171900Y0235333D01*
X0169500Y0235577D02*
X0169500Y0234788D01*
X0168991Y0234279D02*
X0168991Y0234279D01*
X0167915Y0233203D02*
X0162892Y0233203D01*
X0162300Y0232610D02*
X0162300Y0227588D01*
X0163115Y0228403D02*
X0158092Y0228403D01*
X0157500Y0227810D02*
X0157500Y0222788D01*
X0158315Y0223603D02*
X0153292Y0223603D01*
X0152700Y0223010D02*
X0152700Y0217988D01*
X0153515Y0218803D02*
X0148492Y0218803D01*
X0147900Y0218210D02*
X0147900Y0213188D01*
X0148715Y0214003D02*
X0146821Y0214003D01*
X0146821Y0216403D02*
X0151115Y0216403D01*
X0150300Y0215588D02*
X0150300Y0220610D01*
X0150892Y0221203D02*
X0155915Y0221203D01*
X0155100Y0220388D02*
X0155100Y0225410D01*
X0155692Y0226003D02*
X0160715Y0226003D01*
X0159900Y0225188D02*
X0159900Y0230210D01*
X0160492Y0230803D02*
X0165515Y0230803D01*
X0164700Y0229988D02*
X0164700Y0235010D01*
X0167100Y0235577D02*
X0167100Y0232388D01*
X0171900Y0240367D02*
X0171900Y0248269D01*
X0171234Y0247603D02*
X0178545Y0247603D01*
X0179100Y0248360D02*
X0179100Y0249518D01*
X0181500Y0249518D02*
X0181500Y0249028D01*
X0183900Y0246840D02*
X0183900Y0240367D01*
X0186300Y0240367D02*
X0186300Y0247781D01*
X0185412Y0247603D02*
X0200198Y0247603D01*
X0198300Y0247781D02*
X0198300Y0240367D01*
X0195900Y0240367D02*
X0195900Y0247781D01*
X0193500Y0247781D02*
X0193500Y0240367D01*
X0191100Y0240367D02*
X0191100Y0247781D01*
X0188700Y0247781D02*
X0188700Y0240367D01*
X0188700Y0235577D02*
X0188700Y0230090D01*
X0186300Y0230090D02*
X0186300Y0235577D01*
X0183900Y0235577D02*
X0183900Y0230090D01*
X0181500Y0230463D02*
X0181500Y0235577D01*
X0176700Y0240367D02*
X0176700Y0249518D01*
X0174300Y0249518D02*
X0174300Y0240367D01*
X0176700Y0230049D02*
X0176700Y0203159D01*
X0177309Y0202003D02*
X0196360Y0202003D01*
X0196360Y0201213D02*
X0197526Y0200047D01*
X0199175Y0200047D01*
X0200341Y0201213D01*
X0200341Y0202862D01*
X0199197Y0204006D01*
X0200341Y0205150D01*
X0200341Y0206799D01*
X0199175Y0207965D01*
X0198176Y0207965D01*
X0198176Y0209243D01*
X0196894Y0210524D01*
X0195082Y0210524D01*
X0193801Y0209243D01*
X0193801Y0207431D01*
X0195082Y0206149D01*
X0196360Y0206149D01*
X0196360Y0205150D01*
X0197504Y0204006D01*
X0196360Y0202862D01*
X0196360Y0201213D01*
X0198300Y0200047D02*
X0198300Y0189364D01*
X0195900Y0189364D02*
X0195900Y0206149D01*
X0194429Y0206803D02*
X0169999Y0206803D01*
X0169500Y0206303D02*
X0169500Y0205496D01*
X0171900Y0205701D02*
X0171900Y0208703D01*
X0172399Y0209203D02*
X0193801Y0209203D01*
X0195900Y0210524D02*
X0195900Y0226490D01*
X0198300Y0226490D02*
X0198300Y0207965D01*
X0198176Y0209203D02*
X0269831Y0209203D01*
X0269739Y0209110D02*
X0270018Y0209389D01*
X0270360Y0209587D01*
X0270741Y0209689D01*
X0272915Y0209689D01*
X0272915Y0206213D01*
X0273392Y0206213D01*
X0273392Y0209689D01*
X0275566Y0209689D01*
X0275947Y0209587D01*
X0276289Y0209389D01*
X0276568Y0209110D01*
X0276766Y0208768D01*
X0276868Y0208386D01*
X0276868Y0206213D01*
X0273392Y0206213D01*
X0273392Y0205736D01*
X0276868Y0205736D01*
X0276868Y0203562D01*
X0276766Y0203181D01*
X0276568Y0202839D01*
X0276289Y0202560D01*
X0275947Y0202362D01*
X0275566Y0202260D01*
X0273392Y0202260D01*
X0273392Y0205736D01*
X0272915Y0205736D01*
X0269439Y0205736D01*
X0269439Y0203562D01*
X0269541Y0203181D01*
X0269739Y0202839D01*
X0270018Y0202560D01*
X0270360Y0202362D01*
X0270741Y0202260D01*
X0272915Y0202260D01*
X0272915Y0205736D01*
X0272915Y0206213D01*
X0269439Y0206213D01*
X0269439Y0208386D01*
X0269541Y0208768D01*
X0269739Y0209110D01*
X0270300Y0209552D02*
X0270300Y0210859D01*
X0270525Y0210634D02*
X0275782Y0210634D01*
X0276368Y0211220D01*
X0276368Y0216477D01*
X0275782Y0217063D01*
X0270525Y0217063D01*
X0269939Y0216477D01*
X0269939Y0211220D01*
X0270525Y0210634D01*
X0269939Y0211603D02*
X0268494Y0211603D01*
X0268494Y0211220D02*
X0268494Y0216477D01*
X0267908Y0217063D01*
X0262651Y0217063D01*
X0262065Y0216477D01*
X0262065Y0211220D01*
X0262651Y0210634D01*
X0267908Y0210634D01*
X0268494Y0211220D01*
X0267900Y0210634D02*
X0267900Y0209189D01*
X0267908Y0209189D02*
X0268494Y0208603D01*
X0268494Y0203346D01*
X0267908Y0202760D01*
X0262651Y0202760D01*
X0262065Y0203346D01*
X0262065Y0208603D01*
X0262651Y0209189D01*
X0267908Y0209189D01*
X0265500Y0209189D02*
X0265500Y0210634D01*
X0263100Y0210634D02*
X0263100Y0209189D01*
X0262065Y0206803D02*
X0243644Y0206803D01*
X0243648Y0206799D02*
X0242482Y0207965D01*
X0240833Y0207965D01*
X0239667Y0206799D01*
X0239667Y0205150D01*
X0240833Y0203984D01*
X0242482Y0203984D01*
X0243648Y0205150D01*
X0243648Y0206799D01*
X0241500Y0207965D02*
X0241500Y0219922D01*
X0239100Y0219922D02*
X0239100Y0189364D01*
X0237349Y0190583D02*
X0237349Y0192232D01*
X0236752Y0192829D01*
X0236752Y0198264D01*
X0236266Y0198749D01*
X0236266Y0198767D01*
X0237011Y0198767D01*
X0238235Y0199991D01*
X0238235Y0201722D01*
X0237011Y0202945D01*
X0235280Y0202945D01*
X0235085Y0202750D01*
X0235085Y0203907D01*
X0233861Y0205131D01*
X0232131Y0205131D01*
X0230907Y0203907D01*
X0230907Y0202193D01*
X0229513Y0200799D01*
X0229513Y0198951D01*
X0227665Y0197103D01*
X0227665Y0192829D01*
X0227069Y0192232D01*
X0227069Y0190583D01*
X0228235Y0189417D01*
X0229884Y0189417D01*
X0230627Y0190160D01*
X0231370Y0189417D01*
X0233019Y0189417D01*
X0233776Y0190174D01*
X0234534Y0189417D01*
X0236183Y0189417D01*
X0237349Y0190583D01*
X0236769Y0190003D02*
X0283767Y0190003D01*
X0283767Y0192403D02*
X0237178Y0192403D01*
X0236752Y0194803D02*
X0283767Y0194803D01*
X0283767Y0197203D02*
X0236752Y0197203D01*
X0236700Y0198315D02*
X0236700Y0198767D01*
X0237846Y0199603D02*
X0283767Y0199603D01*
X0283767Y0202003D02*
X0237953Y0202003D01*
X0236700Y0202945D02*
X0236700Y0217370D01*
X0235619Y0216403D02*
X0262065Y0216403D01*
X0263100Y0217063D02*
X0263100Y0218508D01*
X0262356Y0218803D02*
X0238530Y0218803D01*
X0235395Y0216626D02*
X0233746Y0216626D01*
X0232580Y0215460D01*
X0232580Y0213811D01*
X0233746Y0212645D01*
X0235395Y0212645D01*
X0236561Y0213811D01*
X0236561Y0215460D01*
X0235395Y0216626D01*
X0234300Y0216626D02*
X0234300Y0219922D01*
X0234549Y0218803D02*
X0229868Y0218803D01*
X0229500Y0219766D02*
X0229500Y0219922D01*
X0231900Y0219922D02*
X0231900Y0204900D01*
X0231402Y0204403D02*
X0199594Y0204403D01*
X0197107Y0204403D02*
X0173668Y0204403D01*
X0174300Y0203831D02*
X0174300Y0211103D01*
X0174799Y0211603D02*
X0181990Y0211603D01*
X0181990Y0212392D02*
X0181990Y0210580D01*
X0183271Y0209299D01*
X0185083Y0209299D01*
X0186365Y0210580D01*
X0186365Y0212392D01*
X0185083Y0213674D01*
X0183271Y0213674D01*
X0181990Y0212392D01*
X0183900Y0213674D02*
X0183900Y0226490D01*
X0186300Y0226490D02*
X0186300Y0212457D01*
X0186365Y0211603D02*
X0201084Y0211603D01*
X0201084Y0211055D02*
X0202250Y0209889D01*
X0203899Y0209889D01*
X0205065Y0211055D01*
X0205065Y0212704D01*
X0203899Y0213870D01*
X0202369Y0213870D01*
X0203097Y0214599D01*
X0203097Y0216248D01*
X0201931Y0217414D01*
X0200282Y0217414D01*
X0199116Y0216248D01*
X0199116Y0214599D01*
X0200282Y0213433D01*
X0201813Y0213433D01*
X0201084Y0212704D01*
X0201084Y0211055D01*
X0203100Y0209889D02*
X0203100Y0189364D01*
X0204234Y0190189D02*
X0205059Y0189364D01*
X0187939Y0189364D01*
X0187939Y0189951D01*
X0186658Y0191233D01*
X0184846Y0191233D01*
X0183565Y0189951D01*
X0183565Y0188139D01*
X0184846Y0186858D01*
X0185818Y0186858D01*
X0186312Y0186364D01*
X0259355Y0186364D01*
X0259899Y0185821D01*
X0181440Y0185821D01*
X0180752Y0186508D01*
X0178940Y0186508D01*
X0177659Y0185227D01*
X0177659Y0183415D01*
X0178940Y0182133D01*
X0180752Y0182133D01*
X0181440Y0182821D01*
X0264080Y0182821D01*
X0264767Y0182133D01*
X0266579Y0182133D01*
X0267861Y0183415D01*
X0267861Y0185227D01*
X0266579Y0186508D01*
X0264767Y0186508D01*
X0264080Y0185821D01*
X0262786Y0185821D01*
X0263530Y0186564D01*
X0263530Y0188377D01*
X0262249Y0189658D01*
X0260436Y0189658D01*
X0260143Y0189364D01*
X0223138Y0189364D01*
X0223963Y0190189D01*
X0223963Y0191838D01*
X0222797Y0193004D01*
X0221148Y0193004D01*
X0219982Y0191838D01*
X0219982Y0190189D01*
X0220807Y0189364D01*
X0217232Y0189364D01*
X0218057Y0190189D01*
X0218057Y0191838D01*
X0216891Y0193004D01*
X0215242Y0193004D01*
X0214076Y0191838D01*
X0214076Y0190189D01*
X0214901Y0189364D01*
X0211327Y0189364D01*
X0212152Y0190189D01*
X0212152Y0191838D01*
X0210986Y0193004D01*
X0209337Y0193004D01*
X0208193Y0191860D01*
X0207049Y0193004D01*
X0205400Y0193004D01*
X0204234Y0191838D01*
X0204234Y0190189D01*
X0204420Y0190003D02*
X0187888Y0190003D01*
X0188700Y0189364D02*
X0188700Y0226490D01*
X0191100Y0226490D02*
X0191100Y0189364D01*
X0193500Y0189364D02*
X0193500Y0226490D01*
X0193500Y0230090D02*
X0193500Y0235577D01*
X0191100Y0235577D02*
X0191100Y0230090D01*
X0195900Y0230090D02*
X0195900Y0235577D01*
X0196557Y0230803D02*
X0181160Y0230803D01*
X0178469Y0228403D02*
X0176328Y0228403D01*
X0176328Y0226003D02*
X0198861Y0226003D01*
X0200700Y0223794D02*
X0200700Y0217414D01*
X0199271Y0216403D02*
X0176328Y0216403D01*
X0176328Y0218803D02*
X0225887Y0218803D01*
X0224700Y0219922D02*
X0224700Y0189364D01*
X0223776Y0190003D02*
X0227649Y0190003D01*
X0227100Y0190551D02*
X0227100Y0189364D01*
X0229500Y0189364D02*
X0229500Y0189417D01*
X0230469Y0190003D02*
X0230784Y0190003D01*
X0231900Y0189417D02*
X0231900Y0189364D01*
X0233605Y0190003D02*
X0233948Y0190003D01*
X0234300Y0189651D02*
X0234300Y0189364D01*
X0236700Y0189364D02*
X0236700Y0189934D01*
X0241500Y0189364D02*
X0241500Y0203984D01*
X0240414Y0204403D02*
X0234590Y0204403D01*
X0234300Y0204692D02*
X0234300Y0212645D01*
X0232580Y0214003D02*
X0229119Y0214003D01*
X0229500Y0213622D02*
X0229500Y0217380D01*
X0227100Y0216582D02*
X0227100Y0214772D01*
X0226619Y0214772D02*
X0225395Y0213548D01*
X0225395Y0211818D01*
X0226619Y0210594D01*
X0228350Y0210594D01*
X0229573Y0211818D01*
X0229573Y0213548D01*
X0228350Y0214772D01*
X0226619Y0214772D01*
X0225850Y0214003D02*
X0202501Y0214003D01*
X0203100Y0213870D02*
X0203100Y0221763D01*
X0203661Y0221203D02*
X0176328Y0221203D01*
X0176328Y0223603D02*
X0201261Y0223603D01*
X0205500Y0219922D02*
X0205500Y0193004D01*
X0204798Y0192403D02*
X0176922Y0192403D01*
X0176922Y0194803D02*
X0180907Y0194803D01*
X0180907Y0194085D02*
X0182131Y0192862D01*
X0183861Y0192862D01*
X0185085Y0194085D01*
X0185085Y0195660D01*
X0186266Y0196841D01*
X0186266Y0197607D01*
X0187011Y0197607D01*
X0188235Y0198830D01*
X0188235Y0200561D01*
X0187011Y0201785D01*
X0185280Y0201785D01*
X0184057Y0200561D01*
X0184057Y0199796D01*
X0183312Y0199796D01*
X0182088Y0198572D01*
X0182088Y0196997D01*
X0180907Y0195816D01*
X0180907Y0194085D01*
X0181500Y0193493D02*
X0181500Y0185821D01*
X0179846Y0184321D02*
X0265673Y0184321D01*
X0264098Y0182803D02*
X0181422Y0182803D01*
X0181500Y0182821D02*
X0181500Y0103398D01*
X0181476Y0103391D02*
X0181353Y0103165D01*
X0181199Y0102960D01*
X0181207Y0102899D01*
X0180763Y0102085D01*
X0180707Y0102060D01*
X0180617Y0101819D01*
X0180494Y0101593D01*
X0180511Y0101535D01*
X0180187Y0100666D01*
X0180136Y0100633D01*
X0180081Y0100382D01*
X0179991Y0100141D01*
X0180017Y0100085D01*
X0179820Y0099179D01*
X0179773Y0099139D01*
X0179755Y0098883D01*
X0179701Y0098631D01*
X0179734Y0098580D01*
X0179667Y0097655D01*
X0179627Y0097609D01*
X0179646Y0097352D01*
X0179627Y0097096D01*
X0179667Y0097050D01*
X0179734Y0096125D01*
X0179701Y0096073D01*
X0179755Y0095822D01*
X0179773Y0095566D01*
X0179820Y0095526D01*
X0180017Y0094620D01*
X0179991Y0094564D01*
X0180081Y0094323D01*
X0180136Y0094072D01*
X0180187Y0094039D01*
X0180511Y0093170D01*
X0180494Y0093111D01*
X0180617Y0092886D01*
X0180707Y0092645D01*
X0180763Y0092620D01*
X0181207Y0091806D01*
X0181199Y0091745D01*
X0181353Y0091539D01*
X0181476Y0091314D01*
X0181534Y0091297D01*
X0182090Y0090554D01*
X0182090Y0090493D01*
X0182272Y0090311D01*
X0182426Y0090106D01*
X0182486Y0090097D01*
X0183142Y0089441D01*
X0183151Y0089381D01*
X0183357Y0089227D01*
X0183538Y0089045D01*
X0183599Y0089045D01*
X0184342Y0088489D01*
X0184359Y0088430D01*
X0184585Y0088307D01*
X0184790Y0088153D01*
X0184851Y0088162D01*
X0185665Y0087717D01*
X0185690Y0087662D01*
X0185931Y0087572D01*
X0186157Y0087449D01*
X0186215Y0087466D01*
X0187084Y0087142D01*
X0187117Y0087091D01*
X0187368Y0087036D01*
X0187609Y0086946D01*
X0187665Y0086972D01*
X0188571Y0086774D01*
X0188611Y0086728D01*
X0188867Y0086710D01*
X0189119Y0086655D01*
X0189170Y0086688D01*
X0190095Y0086622D01*
X0190141Y0086582D01*
X0190398Y0086600D01*
X0190654Y0086582D01*
X0190700Y0086622D01*
X0191625Y0086688D01*
X0191677Y0086655D01*
X0191928Y0086710D01*
X0192184Y0086728D01*
X0192224Y0086774D01*
X0193130Y0086972D01*
X0193186Y0086946D01*
X0193427Y0087036D01*
X0193678Y0087091D01*
X0193711Y0087142D01*
X0194580Y0087466D01*
X0194639Y0087449D01*
X0194864Y0087572D01*
X0195105Y0087662D01*
X0195130Y0087717D01*
X0195944Y0088162D01*
X0196005Y0088153D01*
X0196211Y0088307D01*
X0196436Y0088430D01*
X0196453Y0088489D01*
X0197196Y0089045D01*
X0197257Y0089045D01*
X0197439Y0089227D01*
X0197644Y0089381D01*
X0197653Y0089441D01*
X0198309Y0090097D01*
X0198369Y0090106D01*
X0198523Y0090311D01*
X0198705Y0090493D01*
X0198705Y0090554D01*
X0199261Y0091297D01*
X0199320Y0091314D01*
X0199443Y0091539D01*
X0199597Y0091745D01*
X0199588Y0091806D01*
X0200033Y0092620D01*
X0200088Y0092645D01*
X0200178Y0092886D01*
X0200301Y0093111D01*
X0200284Y0093170D01*
X0200608Y0094039D01*
X0200659Y0094072D01*
X0200714Y0094323D01*
X0200804Y0094564D01*
X0200778Y0094620D01*
X0200976Y0095526D01*
X0201022Y0095566D01*
X0201040Y0095822D01*
X0201095Y0096073D01*
X0201062Y0096125D01*
X0201128Y0097050D01*
X0201168Y0097096D01*
X0201150Y0097352D01*
X0201168Y0097609D01*
X0201128Y0097655D01*
X0201062Y0098580D01*
X0201095Y0098631D01*
X0201040Y0098883D01*
X0201022Y0099139D01*
X0200976Y0099179D01*
X0200778Y0100085D01*
X0200804Y0100141D01*
X0200714Y0100382D01*
X0200659Y0100633D01*
X0200608Y0100666D01*
X0200284Y0101535D01*
X0200301Y0101593D01*
X0200178Y0101819D01*
X0200088Y0102060D01*
X0200033Y0102085D01*
X0199588Y0102899D01*
X0199597Y0102960D01*
X0199443Y0103165D01*
X0199320Y0103391D01*
X0199261Y0103408D01*
X0198705Y0104151D01*
X0198705Y0104212D01*
X0198523Y0104393D01*
X0198369Y0104599D01*
X0198309Y0104608D01*
X0197653Y0105264D01*
X0197644Y0105324D01*
X0197439Y0105478D01*
X0197257Y0105660D01*
X0197196Y0105660D01*
X0196453Y0106216D01*
X0196436Y0106274D01*
X0196211Y0106397D01*
X0196005Y0106551D01*
X0195944Y0106543D01*
X0195130Y0106987D01*
X0195105Y0107043D01*
X0194864Y0107133D01*
X0194639Y0107256D01*
X0194580Y0107239D01*
X0193711Y0107563D01*
X0193678Y0107614D01*
X0193427Y0107669D01*
X0193186Y0107759D01*
X0193130Y0107733D01*
X0192224Y0107930D01*
X0192184Y0107976D01*
X0191928Y0107995D01*
X0191677Y0108049D01*
X0191625Y0108016D01*
X0190700Y0108083D01*
X0190654Y0108123D01*
X0190398Y0108104D01*
X0190141Y0108123D01*
X0190095Y0108083D01*
X0189170Y0108016D01*
X0189119Y0108049D01*
X0188867Y0107995D01*
X0188611Y0107976D01*
X0188571Y0107930D01*
X0187665Y0107733D01*
X0187609Y0107759D01*
X0187368Y0107669D01*
X0187117Y0107614D01*
X0187084Y0107563D01*
X0186215Y0107239D01*
X0186157Y0107256D01*
X0185931Y0107133D01*
X0185690Y0107043D01*
X0185665Y0106987D01*
X0184851Y0106543D01*
X0184790Y0106551D01*
X0184585Y0106397D01*
X0184359Y0106274D01*
X0184342Y0106216D01*
X0183599Y0105660D01*
X0183538Y0105660D01*
X0183357Y0105478D01*
X0183151Y0105324D01*
X0183142Y0105264D01*
X0182486Y0104608D01*
X0182426Y0104599D01*
X0182272Y0104393D01*
X0182090Y0104212D01*
X0182090Y0104151D01*
X0181534Y0103408D01*
X0181476Y0103391D01*
X0181680Y0103603D02*
X0090104Y0103603D01*
X0090300Y0103406D02*
X0090300Y0123503D01*
X0089600Y0122803D02*
X0165648Y0122803D01*
X0165648Y0125203D02*
X0092000Y0125203D01*
X0092700Y0125834D02*
X0092700Y0101006D01*
X0092504Y0101203D02*
X0180388Y0101203D01*
X0179738Y0098803D02*
X0094904Y0098803D01*
X0095100Y0098606D02*
X0095100Y0114591D01*
X0094481Y0114591D02*
X0093896Y0115176D01*
X0093896Y0121024D01*
X0094481Y0121610D01*
X0100330Y0121610D01*
X0100915Y0121024D01*
X0100915Y0115176D01*
X0100330Y0114591D01*
X0094481Y0114591D01*
X0093896Y0115603D02*
X0089514Y0115603D01*
X0089514Y0118003D02*
X0093896Y0118003D01*
X0093896Y0120403D02*
X0089514Y0120403D01*
X0086714Y0120403D02*
X0086089Y0120403D01*
X0085977Y0122803D02*
X0086714Y0122803D01*
X0085977Y0125203D02*
X0088040Y0125203D01*
X0087900Y0125063D02*
X0087900Y0128412D01*
X0087091Y0127603D02*
X0090440Y0127603D01*
X0090300Y0127463D02*
X0090300Y0157951D01*
X0091151Y0158803D02*
X0104484Y0158803D01*
X0104700Y0158586D02*
X0104700Y0143792D01*
X0103446Y0142003D02*
X0089914Y0142003D01*
X0089914Y0144403D02*
X0114958Y0144403D01*
X0114300Y0143745D02*
X0114300Y0145477D01*
X0113683Y0146803D02*
X0089914Y0146803D01*
X0089914Y0149203D02*
X0110533Y0149203D01*
X0111900Y0150878D02*
X0111900Y0151386D01*
X0111684Y0151603D02*
X0089914Y0151603D01*
X0089914Y0154003D02*
X0109284Y0154003D01*
X0109500Y0153786D02*
X0109500Y0140160D01*
X0109790Y0139603D02*
X0110158Y0139603D01*
X0111900Y0141345D02*
X0111900Y0146897D01*
X0112558Y0142003D02*
X0107428Y0142003D01*
X0107100Y0142953D02*
X0107100Y0156186D01*
X0106884Y0156403D02*
X0089914Y0156403D01*
X0086314Y0156403D02*
X0074144Y0156403D01*
X0073500Y0155759D02*
X0073500Y0146351D01*
X0072147Y0144403D02*
X0066984Y0144403D01*
X0066984Y0142003D02*
X0073402Y0142003D01*
X0073500Y0141976D02*
X0073500Y0007203D01*
X0071100Y0007203D02*
X0071100Y0046497D01*
X0070910Y0046307D02*
X0072191Y0047588D01*
X0072191Y0049400D01*
X0070910Y0050681D01*
X0069098Y0050681D01*
X0067817Y0049400D01*
X0067817Y0047588D01*
X0069098Y0046307D01*
X0070910Y0046307D01*
X0068700Y0046705D02*
X0068700Y0007203D01*
X0066300Y0007203D02*
X0066300Y0071015D01*
X0065287Y0070003D02*
X0101823Y0070003D01*
X0102300Y0070480D02*
X0102300Y0087455D01*
X0102953Y0086803D02*
X0066984Y0086803D01*
X0066984Y0089203D02*
X0100553Y0089203D01*
X0099900Y0089855D02*
X0099900Y0066859D01*
X0100208Y0067603D02*
X0062887Y0067603D01*
X0063900Y0068615D02*
X0063900Y0007203D01*
X0061500Y0007203D02*
X0061500Y0066215D01*
X0060487Y0065203D02*
X0099500Y0065203D01*
X0099500Y0062803D02*
X0058087Y0062803D01*
X0059100Y0063815D02*
X0059100Y0007203D01*
X0056700Y0007203D02*
X0056700Y0061415D01*
X0055687Y0060403D02*
X0100407Y0060403D01*
X0099900Y0061626D02*
X0099900Y0024867D01*
X0100092Y0024403D02*
X0348144Y0024403D01*
X0348144Y0025250D02*
X0348144Y0020828D01*
X0353868Y0020828D01*
X0353868Y0026553D01*
X0349446Y0026553D01*
X0349065Y0026450D01*
X0348723Y0026253D01*
X0348443Y0025974D01*
X0348246Y0025631D01*
X0348144Y0025250D01*
X0349500Y0026553D02*
X0349500Y0039604D01*
X0348644Y0041203D02*
X0223387Y0041203D01*
X0222300Y0042601D02*
X0222300Y0082275D01*
X0222028Y0082003D02*
X0343512Y0082003D01*
X0344700Y0083191D02*
X0344700Y0090502D01*
X0345801Y0091603D02*
X0393201Y0091603D01*
X0393201Y0094003D02*
X0348201Y0094003D01*
X0347100Y0092902D02*
X0347100Y0084308D01*
X0347328Y0084403D02*
X0224428Y0084403D01*
X0220579Y0086803D02*
X0192355Y0086803D01*
X0193500Y0087052D02*
X0193500Y0059246D01*
X0194656Y0060403D02*
X0135115Y0060403D01*
X0135900Y0059618D02*
X0135900Y0147980D01*
X0135674Y0147980D02*
X0137405Y0147980D01*
X0138628Y0149204D01*
X0138628Y0150934D01*
X0137405Y0152158D01*
X0135674Y0152158D01*
X0134450Y0150934D01*
X0134450Y0149204D01*
X0135674Y0147980D01*
X0134451Y0149203D02*
X0118043Y0149203D01*
X0116700Y0150546D02*
X0116700Y0179063D01*
X0117760Y0178003D02*
X0110351Y0178003D01*
X0109500Y0177151D02*
X0109500Y0157746D01*
X0108443Y0158803D02*
X0136960Y0158803D01*
X0135900Y0159863D02*
X0135900Y0152158D01*
X0135119Y0151603D02*
X0115643Y0151603D01*
X0114300Y0152946D02*
X0114300Y0180632D01*
X0114529Y0180403D02*
X0112751Y0180403D01*
X0111900Y0179551D02*
X0111900Y0155346D01*
X0110843Y0156403D02*
X0139360Y0156403D01*
X0138300Y0157463D02*
X0138300Y0151263D01*
X0137960Y0151603D02*
X0144160Y0151603D01*
X0143100Y0152663D02*
X0143100Y0059049D01*
X0145500Y0059049D02*
X0145500Y0150263D01*
X0146560Y0149203D02*
X0138627Y0149203D01*
X0138300Y0148875D02*
X0138300Y0059049D01*
X0140700Y0059049D02*
X0140700Y0155063D01*
X0141760Y0154003D02*
X0113243Y0154003D01*
X0107100Y0160146D02*
X0107100Y0174751D01*
X0107951Y0175603D02*
X0120160Y0175603D01*
X0119100Y0176663D02*
X0119100Y0076418D01*
X0118315Y0077203D02*
X0211456Y0077203D01*
X0210300Y0076046D02*
X0210300Y0093649D01*
X0210633Y0093649D02*
X0211857Y0094873D01*
X0211857Y0096603D01*
X0210633Y0097827D01*
X0208902Y0097827D01*
X0207679Y0096603D01*
X0207679Y0094873D01*
X0208902Y0093649D01*
X0210633Y0093649D01*
X0210987Y0094003D02*
X0220579Y0094003D01*
X0220579Y0091603D02*
X0199490Y0091603D01*
X0198300Y0090088D02*
X0198300Y0064046D01*
X0199456Y0065203D02*
X0130315Y0065203D01*
X0131100Y0064418D02*
X0131100Y0164663D01*
X0132160Y0163603D02*
X0105262Y0163603D01*
X0105262Y0166003D02*
X0129760Y0166003D01*
X0128700Y0167063D02*
X0128700Y0121610D01*
X0130251Y0121610D02*
X0124403Y0121610D01*
X0123817Y0121024D01*
X0123817Y0115176D01*
X0124403Y0114591D01*
X0130251Y0114591D01*
X0130837Y0115176D01*
X0130837Y0121024D01*
X0130251Y0121610D01*
X0130837Y0120403D02*
X0165197Y0120403D01*
X0165512Y0118003D02*
X0130837Y0118003D01*
X0130837Y0115603D02*
X0165061Y0115603D01*
X0167100Y0113236D02*
X0167100Y0090318D01*
X0167467Y0089951D02*
X0166186Y0091233D01*
X0164373Y0091233D01*
X0163092Y0089951D01*
X0163092Y0088139D01*
X0164373Y0086858D01*
X0166186Y0086858D01*
X0167467Y0088139D01*
X0167467Y0089951D01*
X0167467Y0089203D02*
X0183380Y0089203D01*
X0183900Y0088820D02*
X0183900Y0059049D01*
X0186300Y0059049D02*
X0186300Y0087434D01*
X0188441Y0086803D02*
X0106895Y0086803D01*
X0107100Y0086597D02*
X0107100Y0132585D01*
X0106918Y0132403D02*
X0163360Y0132403D01*
X0162300Y0133463D02*
X0162300Y0059049D01*
X0159900Y0059049D02*
X0159900Y0135863D01*
X0160960Y0134803D02*
X0109318Y0134803D01*
X0109500Y0134985D02*
X0109500Y0086516D01*
X0111900Y0084601D02*
X0111900Y0137385D01*
X0111718Y0137203D02*
X0158560Y0137203D01*
X0157500Y0138263D02*
X0157500Y0059049D01*
X0155100Y0059049D02*
X0155100Y0140663D01*
X0156160Y0139603D02*
X0114118Y0139603D01*
X0114300Y0139785D02*
X0114300Y0082201D01*
X0114424Y0082003D02*
X0216247Y0082003D01*
X0215100Y0080846D02*
X0215100Y0182821D01*
X0217500Y0182821D02*
X0217500Y0083255D01*
X0218647Y0084403D02*
X0112099Y0084403D01*
X0109500Y0080246D02*
X0109500Y0072521D01*
X0109785Y0072403D02*
X0117353Y0072403D01*
X0116700Y0073055D02*
X0116700Y0007203D01*
X0114300Y0007203D02*
X0114300Y0059006D01*
X0113297Y0058003D02*
X0131753Y0058003D01*
X0131100Y0058655D02*
X0131100Y0007203D01*
X0133500Y0007203D02*
X0133500Y0035775D01*
X0132684Y0036403D02*
X0003500Y0036403D01*
X0003500Y0034003D02*
X0150439Y0034003D01*
X0150300Y0034141D02*
X0150300Y0007203D01*
X0147900Y0007203D02*
X0147900Y0014811D01*
X0145500Y0015968D02*
X0145500Y0007203D01*
X0143100Y0007203D02*
X0143100Y0029476D01*
X0142367Y0029476D02*
X0144098Y0029476D01*
X0145321Y0030700D01*
X0145321Y0032430D01*
X0144098Y0033654D01*
X0142367Y0033654D01*
X0141143Y0032430D01*
X0141143Y0030700D01*
X0142367Y0029476D01*
X0141143Y0031603D02*
X0003500Y0031603D01*
X0003500Y0029203D02*
X0393201Y0029203D01*
X0393201Y0031603D02*
X0145321Y0031603D01*
X0143100Y0033654D02*
X0143100Y0054974D01*
X0145500Y0054974D02*
X0145500Y0018028D01*
X0145376Y0017203D02*
X0003500Y0017203D01*
X0025500Y0027110D02*
X0025500Y0062252D01*
X0026498Y0062803D02*
X0033589Y0062803D01*
X0035100Y0062252D02*
X0035100Y0007203D01*
X0032700Y0007203D02*
X0032700Y0064527D01*
X0032024Y0065203D02*
X0028063Y0065203D01*
X0027900Y0065040D02*
X0027900Y0025060D01*
X0028172Y0024403D02*
X0037820Y0024403D01*
X0037898Y0022003D02*
X0028094Y0022003D01*
X0027900Y0021535D02*
X0027900Y0007203D01*
X0030300Y0007203D02*
X0030300Y0066927D01*
X0029624Y0067603D02*
X0029434Y0067603D01*
X0031184Y0070003D02*
X0037067Y0070003D01*
X0037500Y0069569D02*
X0037500Y0007203D01*
X0049500Y0007203D02*
X0049500Y0050342D01*
X0050070Y0050803D02*
X0310289Y0050803D01*
X0311100Y0049992D02*
X0311100Y0007203D01*
X0308700Y0007203D02*
X0308700Y0053417D01*
X0308789Y0053203D02*
X0258568Y0053203D01*
X0258371Y0053006D02*
X0258957Y0053592D01*
X0258957Y0059145D01*
X0258371Y0059730D01*
X0252818Y0059730D01*
X0252232Y0059145D01*
X0252232Y0053592D01*
X0252818Y0053006D01*
X0258371Y0053006D01*
X0258300Y0053006D02*
X0258300Y0022748D01*
X0257905Y0022003D02*
X0256906Y0022003D01*
X0255900Y0022748D02*
X0255900Y0053006D01*
X0253500Y0053006D02*
X0253500Y0021224D01*
X0254279Y0022003D02*
X0099809Y0022003D01*
X0099900Y0022221D02*
X0099900Y0007203D01*
X0102300Y0007203D02*
X0102300Y0058004D01*
X0102302Y0058003D02*
X0053287Y0058003D01*
X0054300Y0059015D02*
X0054300Y0007203D01*
X0051900Y0007203D02*
X0051900Y0056615D01*
X0049500Y0058458D02*
X0049500Y0068027D01*
X0048475Y0067603D02*
X0058645Y0067603D01*
X0059100Y0068058D02*
X0059100Y0105338D01*
X0059765Y0106003D02*
X0063984Y0106003D01*
X0063984Y0108403D02*
X0060606Y0108403D01*
X0060606Y0106845D02*
X0058291Y0104529D01*
X0055016Y0104529D01*
X0052701Y0106845D01*
X0052701Y0110119D01*
X0055016Y0112435D01*
X0058291Y0112435D01*
X0060606Y0110119D01*
X0060606Y0106845D01*
X0059923Y0110803D02*
X0063984Y0110803D01*
X0063984Y0113203D02*
X0058656Y0113203D01*
X0058498Y0113045D02*
X0061106Y0115653D01*
X0061106Y0117013D01*
X0057138Y0117013D01*
X0057138Y0113045D01*
X0058498Y0113045D01*
X0059100Y0113647D02*
X0059100Y0111626D01*
X0057138Y0113203D02*
X0056169Y0113203D01*
X0056169Y0113045D02*
X0056169Y0117013D01*
X0052201Y0117013D01*
X0052201Y0115653D01*
X0054809Y0113045D01*
X0056169Y0113045D01*
X0056700Y0112435D02*
X0056700Y0117013D01*
X0057138Y0117013D02*
X0056169Y0117013D01*
X0056169Y0117982D01*
X0052201Y0117982D01*
X0052201Y0119342D01*
X0054809Y0121950D01*
X0056169Y0121950D01*
X0056169Y0117982D01*
X0057138Y0117982D01*
X0057138Y0121950D01*
X0058498Y0121950D01*
X0061106Y0119342D01*
X0061106Y0117982D01*
X0057138Y0117982D01*
X0057138Y0117013D01*
X0057138Y0118003D02*
X0056169Y0118003D01*
X0056700Y0117982D02*
X0056700Y0122561D01*
X0058533Y0122803D02*
X0063984Y0122803D01*
X0063984Y0125203D02*
X0060606Y0125203D01*
X0059100Y0123370D02*
X0059100Y0121348D01*
X0060046Y0120403D02*
X0063984Y0120403D01*
X0063984Y0118003D02*
X0061106Y0118003D01*
X0059100Y0117982D02*
X0059100Y0117013D01*
X0061056Y0115603D02*
X0063984Y0115603D01*
X0066984Y0115603D02*
X0086714Y0115603D01*
X0086714Y0118003D02*
X0085774Y0118003D01*
X0085500Y0117729D02*
X0085500Y0007203D01*
X0083100Y0007203D02*
X0083100Y0046292D01*
X0082811Y0046003D02*
X0348644Y0046003D01*
X0348644Y0048403D02*
X0318917Y0048403D01*
X0318300Y0048147D02*
X0318300Y0007203D01*
X0320700Y0007203D02*
X0320700Y0049141D01*
X0315900Y0048069D02*
X0315900Y0007203D01*
X0313500Y0007203D02*
X0313500Y0048611D01*
X0314004Y0048403D02*
X0084002Y0048403D01*
X0084002Y0049006D02*
X0082721Y0050288D01*
X0080909Y0050288D01*
X0079628Y0049006D01*
X0079628Y0047194D01*
X0080909Y0045913D01*
X0082721Y0045913D01*
X0084002Y0047194D01*
X0084002Y0049006D01*
X0083100Y0049909D02*
X0083100Y0117483D01*
X0082580Y0118003D02*
X0066984Y0118003D01*
X0066984Y0120403D02*
X0082265Y0120403D01*
X0082377Y0122803D02*
X0066984Y0122803D01*
X0066984Y0125203D02*
X0082377Y0125203D01*
X0082377Y0127603D02*
X0066984Y0127603D01*
X0066984Y0130003D02*
X0084400Y0130003D01*
X0085500Y0131103D02*
X0085500Y0167759D01*
X0086144Y0168403D02*
X0095660Y0168403D01*
X0095100Y0167842D02*
X0095100Y0177359D01*
X0095744Y0178003D02*
X0105260Y0178003D01*
X0104700Y0177442D02*
X0104700Y0186959D01*
X0105344Y0187603D02*
X0114860Y0187603D01*
X0114300Y0187042D02*
X0114300Y0196559D01*
X0114944Y0197203D02*
X0142139Y0197203D01*
X0140700Y0197661D02*
X0140700Y0195763D01*
X0139739Y0194803D02*
X0112544Y0194803D01*
X0111900Y0194159D02*
X0111900Y0184642D01*
X0112460Y0185203D02*
X0102944Y0185203D01*
X0102300Y0184559D02*
X0102300Y0175042D01*
X0102860Y0175603D02*
X0093344Y0175603D01*
X0092700Y0174959D02*
X0092700Y0165442D01*
X0093260Y0166003D02*
X0083744Y0166003D01*
X0083100Y0165359D02*
X0083100Y0128703D01*
X0086314Y0132403D02*
X0066984Y0132403D01*
X0066984Y0134803D02*
X0086314Y0134803D01*
X0086314Y0137203D02*
X0081746Y0137203D01*
X0081935Y0137393D02*
X0080712Y0136169D01*
X0078981Y0136169D01*
X0077757Y0137393D01*
X0077757Y0139123D01*
X0078981Y0140347D01*
X0080712Y0140347D01*
X0081935Y0139123D01*
X0081935Y0137393D01*
X0080700Y0136169D02*
X0080700Y0050079D01*
X0079628Y0048403D02*
X0072191Y0048403D01*
X0071100Y0050491D02*
X0071100Y0153359D01*
X0071744Y0154003D02*
X0086314Y0154003D01*
X0086314Y0158803D02*
X0076544Y0158803D01*
X0075900Y0158159D02*
X0075900Y0145691D01*
X0075267Y0142003D02*
X0086314Y0142003D01*
X0086314Y0139603D02*
X0081456Y0139603D01*
X0080700Y0140347D02*
X0080700Y0162959D01*
X0081344Y0163603D02*
X0090860Y0163603D01*
X0090300Y0163042D02*
X0090300Y0172559D01*
X0090944Y0173203D02*
X0100460Y0173203D01*
X0099900Y0172642D02*
X0099900Y0182159D01*
X0100544Y0182803D02*
X0110060Y0182803D01*
X0109500Y0182242D02*
X0109500Y0191759D01*
X0110144Y0192403D02*
X0137339Y0192403D01*
X0138300Y0193363D02*
X0138300Y0197661D01*
X0135900Y0197661D02*
X0135900Y0190963D01*
X0134939Y0190003D02*
X0107744Y0190003D01*
X0107100Y0189359D02*
X0107100Y0179842D01*
X0107660Y0180403D02*
X0098144Y0180403D01*
X0097500Y0179759D02*
X0097500Y0170242D01*
X0098060Y0170803D02*
X0088544Y0170803D01*
X0087900Y0170159D02*
X0087900Y0160642D01*
X0088460Y0161203D02*
X0078944Y0161203D01*
X0078300Y0160559D02*
X0078300Y0139666D01*
X0078237Y0139603D02*
X0066984Y0139603D01*
X0066984Y0137203D02*
X0077947Y0137203D01*
X0078300Y0136850D02*
X0078300Y0027513D01*
X0076476Y0026803D02*
X0043565Y0026803D01*
X0042300Y0027266D02*
X0042300Y0044643D01*
X0041242Y0046003D02*
X0019239Y0046003D01*
X0020700Y0045170D02*
X0020700Y0060596D01*
X0020507Y0060403D02*
X0043407Y0060403D01*
X0043407Y0062803D02*
X0036340Y0062803D01*
X0036819Y0065203D02*
X0041867Y0065203D01*
X0042300Y0064769D02*
X0042300Y0048408D01*
X0042294Y0048403D02*
X0018648Y0048403D01*
X0018648Y0050803D02*
X0043407Y0050803D01*
X0043407Y0053203D02*
X0018648Y0053203D01*
X0018648Y0055603D02*
X0043407Y0055603D01*
X0043407Y0058003D02*
X0018648Y0058003D01*
X0015848Y0058003D02*
X0003500Y0058003D01*
X0003500Y0060403D02*
X0016547Y0060403D01*
X0015900Y0059756D02*
X0015900Y0318163D01*
X0018300Y0318163D02*
X0018300Y0062156D01*
X0018947Y0062803D02*
X0003500Y0062803D01*
X0003500Y0065203D02*
X0021347Y0065203D01*
X0020700Y0064556D02*
X0020700Y0318163D01*
X0023100Y0318163D02*
X0023100Y0066956D01*
X0023747Y0067603D02*
X0003500Y0067603D01*
X0003500Y0070003D02*
X0025334Y0070003D01*
X0025334Y0072403D02*
X0003500Y0072403D01*
X0003500Y0074803D02*
X0025334Y0074803D01*
X0025334Y0077203D02*
X0003500Y0077203D01*
X0003500Y0079603D02*
X0025334Y0079603D01*
X0025334Y0082003D02*
X0003500Y0082003D01*
X0003500Y0084403D02*
X0025334Y0084403D01*
X0025334Y0086803D02*
X0003500Y0086803D01*
X0003500Y0089203D02*
X0025334Y0089203D01*
X0025334Y0091603D02*
X0003500Y0091603D01*
X0003500Y0094003D02*
X0025334Y0094003D01*
X0025334Y0096403D02*
X0003500Y0096403D01*
X0003500Y0098803D02*
X0025334Y0098803D01*
X0025334Y0101203D02*
X0003500Y0101203D01*
X0003500Y0103603D02*
X0025334Y0103603D01*
X0025334Y0106003D02*
X0003500Y0106003D01*
X0003500Y0108403D02*
X0025334Y0108403D01*
X0025334Y0110803D02*
X0003500Y0110803D01*
X0003500Y0113203D02*
X0025334Y0113203D01*
X0025334Y0115603D02*
X0003500Y0115603D01*
X0003500Y0118003D02*
X0025334Y0118003D01*
X0025334Y0120403D02*
X0003500Y0120403D01*
X0003500Y0122803D02*
X0025334Y0122803D01*
X0025334Y0125203D02*
X0003500Y0125203D01*
X0003500Y0127603D02*
X0025334Y0127603D01*
X0025334Y0130003D02*
X0003500Y0130003D01*
X0003500Y0132403D02*
X0025334Y0132403D01*
X0025334Y0134803D02*
X0003500Y0134803D01*
X0003500Y0137203D02*
X0025334Y0137203D01*
X0025334Y0139603D02*
X0003500Y0139603D01*
X0003500Y0142003D02*
X0025334Y0142003D01*
X0025334Y0144403D02*
X0003500Y0144403D01*
X0003500Y0146803D02*
X0025334Y0146803D01*
X0025422Y0149203D02*
X0003500Y0149203D01*
X0003500Y0151603D02*
X0027822Y0151603D01*
X0027900Y0151681D02*
X0027900Y0318163D01*
X0030300Y0318163D02*
X0030300Y0154081D01*
X0030222Y0154003D02*
X0003500Y0154003D01*
X0003500Y0156403D02*
X0055193Y0156403D01*
X0054300Y0155510D02*
X0054300Y0170427D01*
X0054456Y0170803D02*
X0069593Y0170803D01*
X0068700Y0169910D02*
X0068700Y0266267D01*
X0071100Y0266267D02*
X0071100Y0184180D01*
X0071460Y0184540D02*
X0070179Y0183258D01*
X0070179Y0181446D01*
X0071460Y0180165D01*
X0073272Y0180165D01*
X0074554Y0181446D01*
X0074554Y0183258D01*
X0073272Y0184540D01*
X0071460Y0184540D01*
X0073500Y0184312D02*
X0073500Y0266267D01*
X0066300Y0266267D02*
X0066300Y0167510D01*
X0067193Y0168403D02*
X0052667Y0168403D01*
X0051900Y0167635D02*
X0051900Y0155107D01*
X0049500Y0155107D02*
X0049500Y0166452D01*
X0048414Y0166003D02*
X0064793Y0166003D01*
X0063900Y0165110D02*
X0063900Y0266267D01*
X0061500Y0266267D02*
X0061500Y0162710D01*
X0062393Y0163603D02*
X0003500Y0163603D01*
X0003500Y0166003D02*
X0044893Y0166003D01*
X0044700Y0166083D02*
X0044700Y0155107D01*
X0047100Y0155107D02*
X0047100Y0165990D01*
X0042300Y0167077D02*
X0042300Y0155107D01*
X0039900Y0155107D02*
X0039900Y0169143D01*
X0040640Y0168403D02*
X0003500Y0168403D01*
X0003500Y0170803D02*
X0038852Y0170803D01*
X0037961Y0173203D02*
X0003500Y0173203D01*
X0003500Y0175603D02*
X0037961Y0175603D01*
X0038620Y0178003D02*
X0003500Y0178003D01*
X0003500Y0180403D02*
X0040080Y0180403D01*
X0039900Y0180223D02*
X0039900Y0204237D01*
X0039735Y0204403D02*
X0003500Y0204403D01*
X0003500Y0206803D02*
X0038387Y0206803D01*
X0037807Y0209203D02*
X0003500Y0209203D01*
X0003500Y0211603D02*
X0037807Y0211603D01*
X0038777Y0214003D02*
X0003500Y0214003D01*
X0003500Y0226003D02*
X0087827Y0226003D01*
X0087900Y0225930D02*
X0087900Y0189110D01*
X0088793Y0190003D02*
X0003500Y0190003D01*
X0003500Y0187603D02*
X0086393Y0187603D01*
X0085500Y0186710D02*
X0085500Y0266267D01*
X0083100Y0266267D02*
X0083100Y0184310D01*
X0083993Y0185203D02*
X0003500Y0185203D01*
X0003500Y0182803D02*
X0043542Y0182803D01*
X0044700Y0183283D02*
X0044700Y0201268D01*
X0042925Y0202003D02*
X0003500Y0202003D01*
X0003500Y0228403D02*
X0087764Y0228403D01*
X0087900Y0228539D02*
X0087900Y0266267D01*
X0090300Y0266267D02*
X0090300Y0229422D01*
X0091614Y0228403D02*
X0112305Y0228403D01*
X0112305Y0230803D02*
X0003500Y0230803D01*
X0003500Y0233203D02*
X0112305Y0233203D01*
X0112305Y0235603D02*
X0050045Y0235603D01*
X0050453Y0236010D02*
X0048137Y0233695D01*
X0044863Y0233695D01*
X0042547Y0236010D01*
X0042547Y0239285D01*
X0044863Y0241600D01*
X0048137Y0241600D01*
X0050453Y0239285D01*
X0050453Y0236010D01*
X0049500Y0235058D02*
X0049500Y0218098D01*
X0047100Y0218624D02*
X0047100Y0233695D01*
X0044700Y0233858D02*
X0044700Y0218595D01*
X0039900Y0215625D02*
X0039900Y0239965D01*
X0040337Y0240403D02*
X0043665Y0240403D01*
X0044700Y0241438D02*
X0044700Y0242873D01*
X0044771Y0242803D02*
X0040453Y0242803D01*
X0040453Y0243793D02*
X0038137Y0246108D01*
X0034863Y0246108D01*
X0032547Y0243793D01*
X0032547Y0240518D01*
X0034863Y0238203D01*
X0038137Y0238203D01*
X0040453Y0240518D01*
X0040453Y0243793D01*
X0039900Y0244346D02*
X0039900Y0248981D01*
X0040453Y0249534D02*
X0038137Y0247219D01*
X0034863Y0247219D01*
X0032547Y0249534D01*
X0032547Y0252809D01*
X0034863Y0255124D01*
X0038137Y0255124D01*
X0040453Y0252809D01*
X0040453Y0249534D01*
X0040453Y0250003D02*
X0044249Y0250003D01*
X0044700Y0250453D02*
X0044700Y0251889D01*
X0044863Y0251726D02*
X0048137Y0251726D01*
X0050453Y0254042D01*
X0050453Y0257316D01*
X0048137Y0259632D01*
X0044863Y0259632D01*
X0042547Y0257316D01*
X0042547Y0254042D01*
X0044863Y0251726D01*
X0044186Y0252403D02*
X0040453Y0252403D01*
X0039900Y0253361D02*
X0039900Y0257997D01*
X0040453Y0258550D02*
X0038137Y0256234D01*
X0034863Y0256234D01*
X0032547Y0258550D01*
X0032547Y0261824D01*
X0034863Y0264140D01*
X0038137Y0264140D01*
X0040453Y0261824D01*
X0040453Y0258550D01*
X0040453Y0259603D02*
X0044834Y0259603D01*
X0044700Y0259469D02*
X0044700Y0260905D01*
X0044863Y0260742D02*
X0048137Y0260742D01*
X0050453Y0263058D01*
X0050453Y0266332D01*
X0048137Y0268648D01*
X0044863Y0268648D01*
X0042547Y0266332D01*
X0042547Y0263058D01*
X0044863Y0260742D01*
X0043602Y0262003D02*
X0040274Y0262003D01*
X0039900Y0262377D02*
X0039900Y0267013D01*
X0039690Y0266803D02*
X0043018Y0266803D01*
X0044700Y0268485D02*
X0044700Y0269921D01*
X0043018Y0271603D02*
X0039690Y0271603D01*
X0039900Y0271393D02*
X0039900Y0276028D01*
X0040274Y0276403D02*
X0043602Y0276403D01*
X0044700Y0277501D02*
X0044700Y0299693D01*
X0047100Y0299663D02*
X0047100Y0277663D01*
X0049398Y0276403D02*
X0052726Y0276403D01*
X0054300Y0274828D02*
X0054300Y0272593D01*
X0053310Y0271603D02*
X0049982Y0271603D01*
X0049500Y0271121D02*
X0049500Y0267285D01*
X0049982Y0266803D02*
X0053310Y0266803D01*
X0054300Y0265813D02*
X0054300Y0263577D01*
X0052726Y0262003D02*
X0049398Y0262003D01*
X0049500Y0262105D02*
X0049500Y0258269D01*
X0050453Y0257203D02*
X0053894Y0257203D01*
X0054300Y0256797D02*
X0054300Y0255268D01*
X0053834Y0254803D02*
X0050453Y0254803D01*
X0049500Y0253089D02*
X0049500Y0249253D01*
X0048751Y0250003D02*
X0052047Y0250003D01*
X0052047Y0249327D02*
X0054656Y0246719D01*
X0056016Y0246719D01*
X0056016Y0250687D01*
X0052047Y0250687D01*
X0052047Y0249327D01*
X0050453Y0248301D02*
X0050453Y0245026D01*
X0048137Y0242711D01*
X0044863Y0242711D01*
X0042547Y0245026D01*
X0042547Y0248301D01*
X0044863Y0250616D01*
X0048137Y0250616D01*
X0050453Y0248301D01*
X0050453Y0247603D02*
X0053771Y0247603D01*
X0054300Y0247074D02*
X0054300Y0245546D01*
X0053957Y0245203D02*
X0050453Y0245203D01*
X0049500Y0244073D02*
X0049500Y0240238D01*
X0049335Y0240403D02*
X0052663Y0240403D01*
X0052547Y0240518D02*
X0054863Y0238203D01*
X0058137Y0238203D01*
X0060453Y0240518D01*
X0060453Y0243793D01*
X0058137Y0246108D01*
X0054863Y0246108D01*
X0052547Y0243793D01*
X0052547Y0240518D01*
X0052547Y0242803D02*
X0048229Y0242803D01*
X0047100Y0242711D02*
X0047100Y0241600D01*
X0042547Y0245203D02*
X0039043Y0245203D01*
X0037500Y0246108D02*
X0037500Y0247219D01*
X0038522Y0247603D02*
X0042547Y0247603D01*
X0047100Y0250616D02*
X0047100Y0251726D01*
X0048814Y0252403D02*
X0052047Y0252403D01*
X0054300Y0251656D02*
X0054300Y0250687D01*
X0056016Y0250003D02*
X0056984Y0250003D01*
X0056700Y0250687D02*
X0056700Y0246108D01*
X0056984Y0247603D02*
X0056016Y0247603D01*
X0059100Y0247474D02*
X0059100Y0245146D01*
X0059043Y0245203D02*
X0112305Y0245203D01*
X0112305Y0242803D02*
X0060453Y0242803D01*
X0060337Y0240403D02*
X0112305Y0240403D01*
X0112305Y0238003D02*
X0050453Y0238003D01*
X0054300Y0238765D02*
X0054300Y0213816D01*
X0054223Y0214003D02*
X0112305Y0214003D01*
X0111900Y0213110D02*
X0111900Y0260082D01*
X0115105Y0259603D02*
X0124116Y0259603D01*
X0123900Y0259893D02*
X0123900Y0257649D01*
X0123963Y0257203D02*
X0124116Y0257203D01*
X0123900Y0255874D02*
X0123900Y0219594D01*
X0124116Y0221203D02*
X0123372Y0221203D01*
X0123372Y0223603D02*
X0124116Y0223603D01*
X0124116Y0226003D02*
X0123372Y0226003D01*
X0123372Y0228403D02*
X0124116Y0228403D01*
X0124116Y0230803D02*
X0123372Y0230803D01*
X0123372Y0233203D02*
X0124116Y0233203D01*
X0124116Y0235603D02*
X0123372Y0235603D01*
X0123372Y0238003D02*
X0124116Y0238003D01*
X0124116Y0240403D02*
X0123372Y0240403D01*
X0123372Y0242803D02*
X0124116Y0242803D01*
X0124116Y0245203D02*
X0123372Y0245203D01*
X0123372Y0247603D02*
X0124116Y0247603D01*
X0124116Y0250003D02*
X0123372Y0250003D01*
X0123372Y0252403D02*
X0124116Y0252403D01*
X0124116Y0254803D02*
X0123372Y0254803D01*
X0120572Y0254803D02*
X0119632Y0254803D01*
X0119100Y0256150D02*
X0119100Y0266267D01*
X0121500Y0266267D02*
X0121500Y0258752D01*
X0119982Y0257203D02*
X0115105Y0257203D01*
X0116700Y0256667D02*
X0116700Y0266267D01*
X0116700Y0270367D02*
X0116700Y0298228D01*
X0116925Y0298003D02*
X0112295Y0298003D01*
X0111900Y0297607D02*
X0111900Y0270367D01*
X0114300Y0270367D02*
X0114300Y0318163D01*
X0111900Y0318163D02*
X0111900Y0314341D01*
X0111439Y0314803D02*
X0117075Y0314803D01*
X0116700Y0314428D02*
X0116700Y0318163D01*
X0119100Y0318163D02*
X0119100Y0315474D01*
X0119110Y0315474D02*
X0117746Y0315474D01*
X0115110Y0312838D01*
X0115110Y0311474D01*
X0119110Y0311474D01*
X0119110Y0310474D01*
X0120110Y0310474D01*
X0120110Y0306474D01*
X0121474Y0306474D01*
X0124110Y0309110D01*
X0124110Y0310474D01*
X0120110Y0310474D01*
X0120110Y0311474D01*
X0124110Y0311474D01*
X0124110Y0312838D01*
X0121474Y0315474D01*
X0120110Y0315474D01*
X0120110Y0311474D01*
X0119110Y0311474D01*
X0119110Y0315474D01*
X0119110Y0314803D02*
X0120110Y0314803D01*
X0121500Y0315449D02*
X0121500Y0318163D01*
X0123900Y0318163D02*
X0123900Y0313049D01*
X0124110Y0312403D02*
X0125110Y0312403D01*
X0125110Y0312838D02*
X0125110Y0311474D01*
X0129110Y0311474D01*
X0129110Y0310474D01*
X0130110Y0310474D01*
X0130110Y0306474D01*
X0131474Y0306474D01*
X0134110Y0309110D01*
X0134110Y0310474D01*
X0130110Y0310474D01*
X0130110Y0311474D01*
X0134110Y0311474D01*
X0134110Y0312838D01*
X0131474Y0315474D01*
X0130110Y0315474D01*
X0130110Y0311474D01*
X0129110Y0311474D01*
X0129110Y0315474D01*
X0127746Y0315474D01*
X0125110Y0312838D01*
X0126300Y0314028D02*
X0126300Y0318163D01*
X0128700Y0318163D02*
X0128700Y0315474D01*
X0129110Y0314803D02*
X0130110Y0314803D01*
X0131100Y0315474D02*
X0131100Y0318163D01*
X0133500Y0318163D02*
X0133500Y0313449D01*
X0134110Y0312403D02*
X0135610Y0312403D01*
X0135900Y0312921D02*
X0135900Y0318163D01*
X0138300Y0318163D02*
X0138300Y0314974D01*
X0137782Y0314803D02*
X0132146Y0314803D01*
X0130110Y0312403D02*
X0129110Y0312403D01*
X0128700Y0311474D02*
X0128700Y0310474D01*
X0129110Y0310474D02*
X0125110Y0310474D01*
X0125110Y0309110D01*
X0127746Y0306474D01*
X0129110Y0306474D01*
X0129110Y0310474D01*
X0129110Y0310003D02*
X0130110Y0310003D01*
X0131100Y0310474D02*
X0131100Y0311474D01*
X0133500Y0311474D02*
X0133500Y0310474D01*
X0134110Y0310003D02*
X0135610Y0310003D01*
X0135900Y0309028D02*
X0135900Y0302921D01*
X0135782Y0302803D02*
X0133439Y0302803D01*
X0133500Y0302741D02*
X0133500Y0308500D01*
X0132603Y0307603D02*
X0137325Y0307603D01*
X0138300Y0306974D02*
X0138300Y0304974D01*
X0137953Y0304974D02*
X0135610Y0302631D01*
X0135610Y0299318D01*
X0137953Y0296974D01*
X0141267Y0296974D01*
X0143610Y0299318D01*
X0143610Y0302631D01*
X0141267Y0304974D01*
X0137953Y0304974D01*
X0140700Y0304974D02*
X0140700Y0306974D01*
X0141895Y0307603D02*
X0233826Y0307603D01*
X0234300Y0308077D02*
X0234300Y0318163D01*
X0236700Y0318163D02*
X0236700Y0310477D01*
X0236226Y0310003D02*
X0143610Y0310003D01*
X0143100Y0308807D02*
X0143100Y0303141D01*
X0143439Y0302803D02*
X0229026Y0302803D01*
X0229500Y0303277D02*
X0229500Y0318163D01*
X0227100Y0318163D02*
X0227100Y0300877D01*
X0226626Y0300403D02*
X0143610Y0300403D01*
X0143100Y0298807D02*
X0143100Y0282673D01*
X0142423Y0281203D02*
X0138924Y0281203D01*
X0138924Y0281134D02*
X0138924Y0282783D01*
X0138370Y0283337D01*
X0138924Y0283890D01*
X0138924Y0285539D01*
X0137758Y0286705D01*
X0136109Y0286705D01*
X0134943Y0285539D01*
X0134943Y0283890D01*
X0135496Y0283337D01*
X0134943Y0282783D01*
X0134943Y0281134D01*
X0136109Y0279968D01*
X0137758Y0279968D01*
X0138924Y0281134D01*
X0138300Y0280511D02*
X0138300Y0270367D01*
X0135900Y0270367D02*
X0135900Y0280177D01*
X0134943Y0281203D02*
X0059106Y0281203D01*
X0059100Y0281209D02*
X0059100Y0318163D01*
X0056700Y0318163D02*
X0056700Y0282171D01*
X0054300Y0281609D02*
X0054300Y0304471D01*
X0054603Y0305203D02*
X0231426Y0305203D01*
X0231900Y0305677D02*
X0231900Y0318163D01*
X0239100Y0318163D02*
X0239100Y0312099D01*
X0241500Y0312099D02*
X0241500Y0318163D01*
X0243900Y0318163D02*
X0243900Y0312099D01*
X0246300Y0312099D02*
X0246300Y0318163D01*
X0248700Y0318163D02*
X0248700Y0312099D01*
X0251100Y0312099D02*
X0251100Y0318163D01*
X0253500Y0318163D02*
X0253500Y0312099D01*
X0255900Y0312099D02*
X0255900Y0318163D01*
X0258300Y0318163D02*
X0258300Y0312099D01*
X0260700Y0312099D02*
X0260700Y0318163D01*
X0263100Y0318163D02*
X0263100Y0312099D01*
X0265500Y0312099D02*
X0265500Y0318163D01*
X0267900Y0318163D02*
X0267900Y0312099D01*
X0270300Y0312099D02*
X0270300Y0318163D01*
X0272700Y0318163D02*
X0272700Y0312099D01*
X0275100Y0312099D02*
X0275100Y0318163D01*
X0277500Y0318163D02*
X0277500Y0312099D01*
X0279900Y0312099D02*
X0279900Y0318163D01*
X0282300Y0318163D02*
X0282300Y0312099D01*
X0284700Y0312099D02*
X0284700Y0318163D01*
X0287100Y0318163D02*
X0287100Y0312099D01*
X0289500Y0312099D02*
X0289500Y0318163D01*
X0291900Y0318163D02*
X0291900Y0312099D01*
X0294300Y0312099D02*
X0294300Y0318163D01*
X0296700Y0318163D02*
X0296700Y0312099D01*
X0299100Y0312099D02*
X0299100Y0318163D01*
X0301500Y0318163D02*
X0301500Y0310316D01*
X0301814Y0310003D02*
X0349865Y0310003D01*
X0349865Y0307603D02*
X0304214Y0307603D01*
X0303900Y0307916D02*
X0303900Y0318163D01*
X0296700Y0309299D02*
X0296700Y0177419D01*
X0294300Y0176184D02*
X0294300Y0309299D01*
X0291900Y0309299D02*
X0291900Y0173897D01*
X0291373Y0173203D02*
X0288625Y0173203D01*
X0287100Y0174728D02*
X0287100Y0309299D01*
X0289500Y0309299D02*
X0289500Y0121545D01*
X0288571Y0122803D02*
X0290758Y0122803D01*
X0291900Y0123945D02*
X0291900Y0160808D01*
X0291605Y0161203D02*
X0289046Y0161203D01*
X0289046Y0163603D02*
X0290350Y0163603D01*
X0289716Y0166003D02*
X0289046Y0166003D01*
X0289046Y0168403D02*
X0289721Y0168403D01*
X0290238Y0170803D02*
X0289046Y0170803D01*
X0286246Y0170803D02*
X0275044Y0170803D01*
X0275080Y0170788D02*
X0273983Y0171242D01*
X0272796Y0171242D01*
X0271699Y0170788D01*
X0270860Y0169948D01*
X0270406Y0168851D01*
X0270406Y0167664D01*
X0270860Y0166567D01*
X0271699Y0165728D01*
X0272796Y0165274D01*
X0273983Y0165274D01*
X0275080Y0165728D01*
X0275920Y0166567D01*
X0276374Y0167664D01*
X0276374Y0168851D01*
X0275920Y0169948D01*
X0275080Y0170788D01*
X0275100Y0170768D02*
X0275100Y0202260D01*
X0272700Y0202260D02*
X0272700Y0171202D01*
X0271735Y0170803D02*
X0249060Y0170803D01*
X0249031Y0170815D02*
X0250397Y0170815D01*
X0251620Y0172038D01*
X0251620Y0172389D01*
X0253153Y0172389D01*
X0254376Y0173613D01*
X0254376Y0173766D01*
X0254572Y0173570D01*
X0256302Y0173570D01*
X0257526Y0174794D01*
X0257526Y0176525D01*
X0256620Y0177431D01*
X0256739Y0177550D01*
X0256739Y0179281D01*
X0255515Y0180504D01*
X0253784Y0180504D01*
X0252561Y0179281D01*
X0252561Y0177550D01*
X0253467Y0176644D01*
X0253348Y0176525D01*
X0253348Y0176372D01*
X0253153Y0176567D01*
X0251422Y0176567D01*
X0250198Y0175344D01*
X0250198Y0174993D01*
X0248666Y0174993D01*
X0247443Y0173769D01*
X0247443Y0172038D01*
X0248408Y0171073D01*
X0247999Y0171242D01*
X0246812Y0171242D01*
X0245715Y0170788D01*
X0244876Y0169948D01*
X0244421Y0168851D01*
X0244421Y0167664D01*
X0244876Y0166567D01*
X0245715Y0165728D01*
X0246812Y0165274D01*
X0247999Y0165274D01*
X0249096Y0165728D01*
X0249935Y0166567D01*
X0250390Y0167664D01*
X0250390Y0168851D01*
X0249935Y0169948D01*
X0249096Y0170788D01*
X0249031Y0170815D01*
X0251100Y0171518D02*
X0251100Y0148910D01*
X0250675Y0148910D02*
X0249509Y0147744D01*
X0249509Y0146095D01*
X0250675Y0144929D01*
X0252325Y0144929D01*
X0253469Y0146073D01*
X0254612Y0144929D01*
X0256262Y0144929D01*
X0257405Y0146073D01*
X0258549Y0144929D01*
X0260199Y0144929D01*
X0261365Y0146095D01*
X0261365Y0147744D01*
X0260199Y0148910D01*
X0258549Y0148910D01*
X0257405Y0147766D01*
X0256262Y0148910D01*
X0254612Y0148910D01*
X0253469Y0147766D01*
X0252325Y0148910D01*
X0250675Y0148910D01*
X0251478Y0150032D02*
X0252644Y0148866D01*
X0254293Y0148866D01*
X0255437Y0150010D01*
X0256581Y0148866D01*
X0258230Y0148866D01*
X0259396Y0150032D01*
X0259396Y0151681D01*
X0258230Y0152847D01*
X0256581Y0152847D01*
X0255437Y0151703D01*
X0254293Y0152847D01*
X0252644Y0152847D01*
X0251478Y0151681D01*
X0251478Y0150032D01*
X0252307Y0149203D02*
X0176922Y0149203D01*
X0176922Y0151603D02*
X0251478Y0151603D01*
X0253500Y0152847D02*
X0253500Y0172737D01*
X0253966Y0173203D02*
X0257306Y0173203D01*
X0257306Y0173887D02*
X0257306Y0172156D01*
X0258529Y0170933D01*
X0260260Y0170933D01*
X0261483Y0172156D01*
X0261483Y0173622D01*
X0262644Y0174783D01*
X0262644Y0176514D01*
X0261420Y0177737D01*
X0259690Y0177737D01*
X0258466Y0176514D01*
X0258466Y0175048D01*
X0257306Y0173887D01*
X0258300Y0174881D02*
X0258300Y0182821D01*
X0260700Y0182821D02*
X0260700Y0177737D01*
X0262644Y0175603D02*
X0283767Y0175603D01*
X0283767Y0178003D02*
X0256739Y0178003D01*
X0255900Y0180119D02*
X0255900Y0182821D01*
X0253500Y0182821D02*
X0253500Y0180220D01*
X0253683Y0180403D02*
X0176922Y0180403D01*
X0176922Y0182803D02*
X0178271Y0182803D01*
X0179100Y0182133D02*
X0179100Y0059049D01*
X0181500Y0059049D02*
X0181500Y0091307D01*
X0181305Y0091603D02*
X0102095Y0091603D01*
X0102300Y0091397D02*
X0102300Y0127785D01*
X0102118Y0127603D02*
X0165648Y0127603D01*
X0165648Y0130003D02*
X0104518Y0130003D01*
X0104700Y0130185D02*
X0104700Y0088997D01*
X0104495Y0089203D02*
X0163092Y0089203D01*
X0164700Y0091233D02*
X0164700Y0131063D01*
X0169500Y0119929D02*
X0169500Y0059049D01*
X0167100Y0059049D02*
X0167100Y0087772D01*
X0164700Y0086858D02*
X0164700Y0059049D01*
X0164700Y0054974D02*
X0164700Y0007203D01*
X0162300Y0007203D02*
X0162300Y0054974D01*
X0159900Y0054974D02*
X0159900Y0007203D01*
X0157500Y0007203D02*
X0157500Y0036973D01*
X0155100Y0036822D02*
X0155100Y0007203D01*
X0152700Y0007203D02*
X0152700Y0033413D01*
X0152759Y0033413D02*
X0153983Y0034637D01*
X0153983Y0036367D01*
X0152759Y0037591D01*
X0151028Y0037591D01*
X0149805Y0036367D01*
X0149805Y0034637D01*
X0151028Y0033413D01*
X0152759Y0033413D01*
X0153349Y0034003D02*
X0195769Y0034003D01*
X0195769Y0034833D02*
X0195769Y0033021D01*
X0197051Y0031740D01*
X0198863Y0031740D01*
X0200144Y0033021D01*
X0200144Y0034833D01*
X0198863Y0036115D01*
X0197051Y0036115D01*
X0195769Y0034833D01*
X0195900Y0034964D02*
X0195900Y0055884D01*
X0195619Y0055603D02*
X0206147Y0055603D01*
X0205836Y0058003D02*
X0198019Y0058003D01*
X0198300Y0058284D02*
X0198300Y0036115D01*
X0200144Y0034003D02*
X0393201Y0034003D01*
X0393201Y0036403D02*
X0153947Y0036403D01*
X0152700Y0037591D02*
X0152700Y0054974D01*
X0152700Y0059049D02*
X0152700Y0143063D01*
X0153760Y0142003D02*
X0116518Y0142003D01*
X0116700Y0142185D02*
X0116700Y0078818D01*
X0115915Y0079603D02*
X0213856Y0079603D01*
X0212700Y0078446D02*
X0212700Y0182821D01*
X0210300Y0182821D02*
X0210300Y0097827D01*
X0211857Y0096403D02*
X0220666Y0096403D01*
X0222300Y0098037D02*
X0222300Y0182821D01*
X0224700Y0182821D02*
X0224700Y0100437D01*
X0223066Y0098803D02*
X0201057Y0098803D01*
X0200700Y0100446D02*
X0200700Y0182821D01*
X0198300Y0182821D02*
X0198300Y0104617D01*
X0199115Y0103603D02*
X0255317Y0103603D01*
X0255900Y0102163D02*
X0255900Y0059730D01*
X0253500Y0059730D02*
X0253500Y0107724D01*
X0251100Y0107724D02*
X0251100Y0007203D01*
X0248700Y0007203D02*
X0248700Y0052703D01*
X0248536Y0052608D02*
X0248878Y0052806D01*
X0249157Y0053085D01*
X0249354Y0053427D01*
X0249457Y0053808D01*
X0249457Y0056081D01*
X0245882Y0056081D01*
X0245882Y0056656D01*
X0245307Y0056656D01*
X0245307Y0056081D01*
X0241732Y0056081D01*
X0241732Y0053808D01*
X0241835Y0053427D01*
X0242032Y0053085D01*
X0242311Y0052806D01*
X0242653Y0052608D01*
X0243035Y0052506D01*
X0245307Y0052506D01*
X0245307Y0056081D01*
X0245882Y0056081D01*
X0245882Y0052506D01*
X0248154Y0052506D01*
X0248536Y0052608D01*
X0249225Y0053203D02*
X0252621Y0053203D01*
X0252232Y0055603D02*
X0249457Y0055603D01*
X0248700Y0056081D02*
X0248700Y0056656D01*
X0249457Y0056656D02*
X0249457Y0058928D01*
X0249354Y0059309D01*
X0249157Y0059651D01*
X0248878Y0059931D01*
X0248536Y0060128D01*
X0248154Y0060230D01*
X0245882Y0060230D01*
X0245882Y0056656D01*
X0249457Y0056656D01*
X0249457Y0058003D02*
X0252232Y0058003D01*
X0248700Y0060033D02*
X0248700Y0107724D01*
X0246300Y0107724D02*
X0246300Y0060230D01*
X0245882Y0058003D02*
X0245307Y0058003D01*
X0246300Y0056656D02*
X0246300Y0056081D01*
X0245882Y0055603D02*
X0245307Y0055603D01*
X0243900Y0056081D02*
X0243900Y0056656D01*
X0241732Y0055603D02*
X0238957Y0055603D01*
X0238568Y0053203D02*
X0241964Y0053203D01*
X0243900Y0052506D02*
X0243900Y0007203D01*
X0246300Y0007203D02*
X0246300Y0052506D01*
X0245882Y0053203D02*
X0245307Y0053203D01*
X0236700Y0053006D02*
X0236700Y0007203D01*
X0234300Y0007203D02*
X0234300Y0053006D01*
X0231894Y0062803D02*
X0311158Y0062803D01*
X0311100Y0062744D02*
X0311100Y0090401D01*
X0308700Y0090401D02*
X0308700Y0059319D01*
X0309149Y0060403D02*
X0200419Y0060403D01*
X0200700Y0060684D02*
X0200700Y0007203D01*
X0198300Y0007203D02*
X0198300Y0031740D01*
X0195900Y0032890D02*
X0195900Y0007203D01*
X0193500Y0007203D02*
X0193500Y0054974D01*
X0191100Y0054974D02*
X0191100Y0007203D01*
X0188700Y0007203D02*
X0188700Y0054974D01*
X0186300Y0054974D02*
X0186300Y0007203D01*
X0183900Y0007203D02*
X0183900Y0054974D01*
X0181500Y0054974D02*
X0181500Y0007203D01*
X0179100Y0007203D02*
X0179100Y0054974D01*
X0176700Y0054974D02*
X0176700Y0007203D01*
X0174300Y0007203D02*
X0174300Y0054974D01*
X0171900Y0054974D02*
X0171900Y0007203D01*
X0169500Y0007203D02*
X0169500Y0054974D01*
X0167100Y0054974D02*
X0167100Y0007203D01*
X0140700Y0007203D02*
X0140700Y0054974D01*
X0147900Y0059049D02*
X0147900Y0147863D01*
X0148960Y0146803D02*
X0118964Y0146803D01*
X0118918Y0144403D02*
X0151360Y0144403D01*
X0150300Y0145463D02*
X0150300Y0059049D01*
X0133500Y0062018D02*
X0133500Y0162263D01*
X0134560Y0161203D02*
X0106043Y0161203D01*
X0102462Y0161203D02*
X0093551Y0161203D01*
X0092700Y0160351D02*
X0092700Y0128634D01*
X0095100Y0128634D02*
X0095100Y0162751D01*
X0095951Y0163603D02*
X0102462Y0163603D01*
X0102462Y0166003D02*
X0098351Y0166003D01*
X0097500Y0165151D02*
X0097500Y0128634D01*
X0099900Y0129345D02*
X0099900Y0167551D01*
X0100751Y0168403D02*
X0102462Y0168403D01*
X0102300Y0169149D02*
X0102300Y0131745D01*
X0102958Y0132403D02*
X0089914Y0132403D01*
X0089914Y0134803D02*
X0105358Y0134803D01*
X0104700Y0134145D02*
X0104700Y0139811D01*
X0105809Y0139603D02*
X0089914Y0139603D01*
X0089914Y0137203D02*
X0106827Y0137203D01*
X0107100Y0137055D02*
X0107100Y0136545D01*
X0100558Y0130003D02*
X0089491Y0130003D01*
X0095100Y0125834D02*
X0095100Y0121610D01*
X0097500Y0121610D02*
X0097500Y0125834D01*
X0099900Y0125834D02*
X0099900Y0121610D01*
X0100915Y0120403D02*
X0123817Y0120403D01*
X0123900Y0121108D02*
X0123900Y0171863D01*
X0124960Y0170803D02*
X0105951Y0170803D01*
X0105551Y0173203D02*
X0122560Y0173203D01*
X0121500Y0174263D02*
X0121500Y0074018D01*
X0120715Y0074803D02*
X0209056Y0074803D01*
X0207900Y0073646D02*
X0207900Y0094652D01*
X0208549Y0094003D02*
X0200594Y0094003D01*
X0200700Y0094259D02*
X0200700Y0066446D01*
X0201856Y0067603D02*
X0127915Y0067603D01*
X0128700Y0066818D02*
X0128700Y0114591D01*
X0126300Y0114591D02*
X0126300Y0069218D01*
X0125515Y0070003D02*
X0204256Y0070003D01*
X0203100Y0068846D02*
X0203100Y0182821D01*
X0205500Y0182821D02*
X0205500Y0109638D01*
X0205359Y0109638D02*
X0204135Y0108414D01*
X0204135Y0106684D01*
X0205359Y0105460D01*
X0207090Y0105460D01*
X0208313Y0106684D01*
X0208313Y0108414D01*
X0207090Y0109638D01*
X0205359Y0109638D01*
X0204135Y0108403D02*
X0177309Y0108403D01*
X0176700Y0106821D02*
X0176700Y0059049D01*
X0174300Y0059049D02*
X0174300Y0106149D01*
X0172935Y0108403D02*
X0089514Y0108403D01*
X0089514Y0110803D02*
X0169785Y0110803D01*
X0170596Y0113203D02*
X0089514Y0113203D01*
X0086714Y0113203D02*
X0066984Y0113203D01*
X0066984Y0110803D02*
X0086714Y0110803D01*
X0086714Y0108403D02*
X0066984Y0108403D01*
X0066984Y0106003D02*
X0086714Y0106003D01*
X0086714Y0103603D02*
X0066984Y0103603D01*
X0066984Y0101203D02*
X0067396Y0101203D01*
X0063984Y0101203D02*
X0049473Y0101203D01*
X0049500Y0101230D02*
X0049500Y0084488D01*
X0049705Y0084403D02*
X0063984Y0084403D01*
X0063984Y0086803D02*
X0032034Y0086803D01*
X0032034Y0089203D02*
X0063984Y0089203D01*
X0063984Y0091603D02*
X0032034Y0091603D01*
X0032034Y0094003D02*
X0063984Y0094003D01*
X0063984Y0096403D02*
X0032034Y0096403D01*
X0032034Y0098803D02*
X0063984Y0098803D01*
X0066984Y0096403D02*
X0093344Y0096403D01*
X0092700Y0097046D02*
X0092700Y0078044D01*
X0092876Y0078044D02*
X0091227Y0078044D01*
X0090061Y0076878D01*
X0090061Y0075229D01*
X0091227Y0074063D01*
X0092876Y0074063D01*
X0094042Y0075229D01*
X0094042Y0076878D01*
X0092876Y0078044D01*
X0093717Y0077203D02*
X0112553Y0077203D01*
X0111900Y0077855D02*
X0111900Y0071527D01*
X0113775Y0070003D02*
X0119753Y0070003D01*
X0119100Y0070655D02*
X0119100Y0007203D01*
X0121500Y0007203D02*
X0121500Y0068255D01*
X0122153Y0067603D02*
X0115390Y0067603D01*
X0114300Y0069478D02*
X0114300Y0075455D01*
X0114953Y0074803D02*
X0093616Y0074803D01*
X0092700Y0074063D02*
X0092700Y0025579D01*
X0092213Y0024403D02*
X0082769Y0024403D01*
X0082487Y0022003D02*
X0092495Y0022003D01*
X0092700Y0021509D02*
X0092700Y0007203D01*
X0095100Y0007203D02*
X0095100Y0019684D01*
X0095297Y0019603D02*
X0079685Y0019603D01*
X0080700Y0020023D02*
X0080700Y0007203D01*
X0087900Y0007203D02*
X0087900Y0078000D01*
X0090300Y0077117D02*
X0090300Y0099446D01*
X0090944Y0098803D02*
X0070518Y0098803D01*
X0068700Y0097193D02*
X0068700Y0050284D01*
X0067817Y0048403D02*
X0046207Y0048403D01*
X0046207Y0053203D02*
X0046655Y0053203D01*
X0047100Y0053741D02*
X0047100Y0067565D01*
X0044832Y0067603D02*
X0043426Y0067603D01*
X0044700Y0067658D02*
X0044700Y0066329D01*
X0045826Y0065203D02*
X0056245Y0065203D01*
X0056700Y0065658D02*
X0056700Y0104529D01*
X0054300Y0105245D02*
X0054300Y0080513D01*
X0054677Y0079603D02*
X0063984Y0079603D01*
X0063984Y0082003D02*
X0053202Y0082003D01*
X0051900Y0083305D02*
X0051900Y0128976D01*
X0052701Y0127603D02*
X0048825Y0127603D01*
X0049500Y0128277D02*
X0049500Y0124749D01*
X0049046Y0125203D02*
X0052701Y0125203D01*
X0054300Y0123277D02*
X0054300Y0121441D01*
X0054774Y0122803D02*
X0050606Y0122803D01*
X0050606Y0123643D02*
X0048291Y0125958D01*
X0045016Y0125958D01*
X0042701Y0123643D01*
X0042701Y0120368D01*
X0045016Y0118053D01*
X0048291Y0118053D01*
X0050606Y0120368D01*
X0050606Y0123643D01*
X0050606Y0120403D02*
X0053262Y0120403D01*
X0052201Y0118003D02*
X0040606Y0118003D01*
X0040606Y0119135D02*
X0040606Y0115860D01*
X0038291Y0113545D01*
X0035016Y0113545D01*
X0032701Y0115860D01*
X0032701Y0119135D01*
X0035016Y0121450D01*
X0038291Y0121450D01*
X0040606Y0119135D01*
X0039900Y0119841D02*
X0039900Y0124170D01*
X0040606Y0124876D02*
X0038291Y0122561D01*
X0035016Y0122561D01*
X0032701Y0124876D01*
X0032701Y0128151D01*
X0035016Y0130466D01*
X0038291Y0130466D01*
X0040606Y0128151D01*
X0040606Y0124876D01*
X0040606Y0125203D02*
X0044261Y0125203D01*
X0044700Y0125642D02*
X0044700Y0127385D01*
X0044482Y0127603D02*
X0040606Y0127603D01*
X0039900Y0128857D02*
X0039900Y0133185D01*
X0040606Y0133892D02*
X0038291Y0131576D01*
X0035016Y0131576D01*
X0032701Y0133892D01*
X0032701Y0137166D01*
X0035016Y0139482D01*
X0038291Y0139482D01*
X0040606Y0137166D01*
X0040606Y0133892D01*
X0040606Y0134803D02*
X0044845Y0134803D01*
X0044700Y0134658D02*
X0044700Y0136401D01*
X0043898Y0137203D02*
X0040570Y0137203D01*
X0039900Y0137873D02*
X0039900Y0142201D01*
X0039702Y0142003D02*
X0043029Y0142003D01*
X0044700Y0143673D02*
X0044700Y0148407D01*
X0047100Y0148407D02*
X0047100Y0143990D01*
X0049500Y0142781D02*
X0049500Y0148407D01*
X0051900Y0148407D02*
X0051900Y0136814D01*
X0051511Y0137203D02*
X0052737Y0137203D01*
X0054300Y0138765D02*
X0054300Y0141308D01*
X0053606Y0142003D02*
X0050278Y0142003D01*
X0050606Y0139603D02*
X0055254Y0139603D01*
X0052701Y0144403D02*
X0040606Y0144403D01*
X0039986Y0146803D02*
X0053322Y0146803D01*
X0054300Y0147781D02*
X0054300Y0148407D01*
X0056700Y0157910D02*
X0056700Y0238203D01*
X0059100Y0239165D02*
X0059100Y0160310D01*
X0059993Y0161203D02*
X0003500Y0161203D01*
X0003500Y0158803D02*
X0057593Y0158803D01*
X0065484Y0149864D02*
X0065484Y0072321D01*
X0063900Y0072858D02*
X0063900Y0133508D01*
X0063984Y0132403D02*
X0062794Y0132403D01*
X0061500Y0131108D02*
X0061500Y0070458D01*
X0061045Y0070003D02*
X0052693Y0070003D01*
X0051900Y0069210D02*
X0051900Y0060858D01*
X0051445Y0060403D02*
X0046207Y0060403D01*
X0046207Y0062803D02*
X0053845Y0062803D01*
X0054300Y0063258D02*
X0054300Y0072002D01*
X0054466Y0072403D02*
X0063445Y0072403D01*
X0063984Y0074803D02*
X0055347Y0074803D01*
X0055347Y0077203D02*
X0063984Y0077203D01*
X0066984Y0077203D02*
X0090386Y0077203D01*
X0090300Y0074989D02*
X0090300Y0007203D01*
X0097500Y0007203D02*
X0097500Y0019807D01*
X0097008Y0019603D02*
X0251879Y0019603D01*
X0256906Y0019603D02*
X0257905Y0019603D01*
X0258300Y0017498D02*
X0258300Y0016498D01*
X0257906Y0017203D02*
X0348144Y0017203D01*
X0348144Y0019603D02*
X0262932Y0019603D01*
X0263100Y0019435D02*
X0263100Y0106149D01*
X0261776Y0106003D02*
X0275533Y0106003D01*
X0275100Y0106149D02*
X0275100Y0105570D01*
X0272700Y0106149D02*
X0272700Y0103733D01*
X0272158Y0103603D02*
X0259494Y0103603D01*
X0260700Y0104927D02*
X0260700Y0021835D01*
X0260532Y0022003D02*
X0348144Y0022003D01*
X0349500Y0020828D02*
X0349500Y0019828D01*
X0351900Y0019828D02*
X0351900Y0020828D01*
X0353868Y0022003D02*
X0354868Y0022003D01*
X0354300Y0020828D02*
X0354300Y0039604D01*
X0356700Y0039604D02*
X0356700Y0026553D01*
X0354868Y0024403D02*
X0353868Y0024403D01*
X0351900Y0026553D02*
X0351900Y0039604D01*
X0348644Y0043603D02*
X0023372Y0043603D01*
X0023100Y0044161D02*
X0023100Y0062996D01*
X0022907Y0062803D02*
X0023746Y0062803D01*
X0015848Y0055603D02*
X0003500Y0055603D01*
X0003500Y0053203D02*
X0015848Y0053203D01*
X0015848Y0050803D02*
X0003500Y0050803D01*
X0003500Y0048403D02*
X0015848Y0048403D01*
X0035100Y0066233D02*
X0035100Y0071969D01*
X0034667Y0072403D02*
X0030734Y0072403D01*
X0030734Y0074803D02*
X0032267Y0074803D01*
X0032700Y0074369D02*
X0032700Y0068487D01*
X0033584Y0067603D02*
X0039467Y0067603D01*
X0039900Y0067169D02*
X0039900Y0026865D01*
X0039750Y0026803D02*
X0026242Y0026803D01*
X0046207Y0055603D02*
X0047244Y0055603D01*
X0046207Y0058003D02*
X0049045Y0058003D01*
X0038841Y0072403D02*
X0038626Y0072403D01*
X0037500Y0073529D02*
X0037500Y0104529D01*
X0038291Y0104529D02*
X0040606Y0106845D01*
X0040606Y0110119D01*
X0038291Y0112435D01*
X0035016Y0112435D01*
X0032701Y0110119D01*
X0032701Y0106845D01*
X0035016Y0104529D01*
X0038291Y0104529D01*
X0039765Y0106003D02*
X0043092Y0106003D01*
X0042701Y0105611D02*
X0042701Y0102337D01*
X0045016Y0100021D01*
X0048291Y0100021D01*
X0050606Y0102337D01*
X0050606Y0105611D01*
X0048291Y0107927D01*
X0045016Y0107927D01*
X0042701Y0105611D01*
X0042701Y0103603D02*
X0032034Y0103603D01*
X0032034Y0106003D02*
X0033543Y0106003D01*
X0035100Y0104529D02*
X0035100Y0075929D01*
X0036226Y0074803D02*
X0037961Y0074803D01*
X0037961Y0077203D02*
X0033826Y0077203D01*
X0032700Y0078329D02*
X0032700Y0147006D01*
X0032497Y0146803D02*
X0033322Y0146803D01*
X0032701Y0144403D02*
X0032034Y0144403D01*
X0032034Y0142003D02*
X0033606Y0142003D01*
X0035100Y0140592D02*
X0035100Y0139482D01*
X0037500Y0139482D02*
X0037500Y0140592D01*
X0042701Y0139603D02*
X0032034Y0139603D01*
X0032034Y0137203D02*
X0032737Y0137203D01*
X0032701Y0134803D02*
X0032034Y0134803D01*
X0032034Y0132403D02*
X0034190Y0132403D01*
X0035100Y0131576D02*
X0035100Y0130466D01*
X0034553Y0130003D02*
X0032034Y0130003D01*
X0032034Y0127603D02*
X0032701Y0127603D01*
X0032701Y0125203D02*
X0032034Y0125203D01*
X0032034Y0122803D02*
X0034774Y0122803D01*
X0035100Y0122561D02*
X0035100Y0121450D01*
X0033969Y0120403D02*
X0032034Y0120403D01*
X0032034Y0118003D02*
X0032701Y0118003D01*
X0032958Y0115603D02*
X0032034Y0115603D01*
X0032034Y0113203D02*
X0042701Y0113203D01*
X0042701Y0114627D02*
X0042701Y0111352D01*
X0045016Y0109037D01*
X0048291Y0109037D01*
X0050606Y0111352D01*
X0050606Y0114627D01*
X0048291Y0116942D01*
X0045016Y0116942D01*
X0042701Y0114627D01*
X0043677Y0115603D02*
X0040349Y0115603D01*
X0039900Y0115154D02*
X0039900Y0110826D01*
X0039923Y0110803D02*
X0043251Y0110803D01*
X0044700Y0109353D02*
X0044700Y0107610D01*
X0047100Y0107927D02*
X0047100Y0109037D01*
X0049500Y0110246D02*
X0049500Y0106718D01*
X0050215Y0106003D02*
X0053543Y0106003D01*
X0052701Y0108403D02*
X0040606Y0108403D01*
X0039900Y0106138D02*
X0039900Y0081797D01*
X0040105Y0082003D02*
X0032034Y0082003D01*
X0032034Y0084403D02*
X0043603Y0084403D01*
X0044700Y0084857D02*
X0044700Y0100338D01*
X0043835Y0101203D02*
X0032034Y0101203D01*
X0032034Y0108403D02*
X0032701Y0108403D01*
X0032034Y0110803D02*
X0033385Y0110803D01*
X0035100Y0112435D02*
X0035100Y0113545D01*
X0037500Y0113545D02*
X0037500Y0112435D01*
X0044700Y0116626D02*
X0044700Y0118369D01*
X0047100Y0118053D02*
X0047100Y0116942D01*
X0049500Y0115733D02*
X0049500Y0119262D01*
X0054300Y0117982D02*
X0054300Y0117013D01*
X0056169Y0115603D02*
X0057138Y0115603D01*
X0054651Y0113203D02*
X0050606Y0113203D01*
X0050057Y0110803D02*
X0053385Y0110803D01*
X0054300Y0111718D02*
X0054300Y0113554D01*
X0052251Y0115603D02*
X0049631Y0115603D01*
X0056169Y0120403D02*
X0057138Y0120403D01*
X0060606Y0127603D02*
X0063984Y0127603D01*
X0063984Y0130003D02*
X0060394Y0130003D01*
X0052351Y0132403D02*
X0050819Y0132403D01*
X0051900Y0132854D02*
X0051900Y0131776D01*
X0049500Y0133765D02*
X0049500Y0135254D01*
X0049951Y0134803D02*
X0048462Y0134803D01*
X0047100Y0134974D02*
X0047100Y0136084D01*
X0042701Y0132403D02*
X0039117Y0132403D01*
X0037500Y0131576D02*
X0037500Y0130466D01*
X0038754Y0130003D02*
X0042701Y0130003D01*
X0047100Y0127068D02*
X0047100Y0125958D01*
X0042701Y0122803D02*
X0038533Y0122803D01*
X0037500Y0122561D02*
X0037500Y0121450D01*
X0039339Y0120403D02*
X0042701Y0120403D01*
X0050606Y0103603D02*
X0063984Y0103603D01*
X0047100Y0100021D02*
X0047100Y0084950D01*
X0042300Y0083863D02*
X0042300Y0148407D01*
X0039900Y0148407D02*
X0039900Y0146889D01*
X0037500Y0155107D02*
X0037500Y0238203D01*
X0035100Y0238203D02*
X0035100Y0155107D01*
X0032700Y0155107D02*
X0032700Y0240365D01*
X0032663Y0240403D02*
X0003500Y0240403D01*
X0003500Y0242803D02*
X0032547Y0242803D01*
X0032700Y0243946D02*
X0032700Y0249381D01*
X0032547Y0250003D02*
X0003500Y0250003D01*
X0003500Y0252403D02*
X0032547Y0252403D01*
X0032700Y0252961D02*
X0032700Y0258397D01*
X0032547Y0259603D02*
X0003500Y0259603D01*
X0003500Y0262003D02*
X0032726Y0262003D01*
X0032700Y0261977D02*
X0032700Y0267413D01*
X0032547Y0267565D02*
X0034863Y0265250D01*
X0038137Y0265250D01*
X0040453Y0267565D01*
X0040453Y0270840D01*
X0038137Y0273155D01*
X0034863Y0273155D01*
X0032547Y0270840D01*
X0032547Y0267565D01*
X0033310Y0266803D02*
X0003500Y0266803D01*
X0003500Y0269203D02*
X0032547Y0269203D01*
X0032700Y0270993D02*
X0032700Y0276428D01*
X0032726Y0276403D02*
X0003500Y0276403D01*
X0003500Y0278803D02*
X0032547Y0278803D01*
X0032547Y0279856D02*
X0032547Y0276581D01*
X0034863Y0274266D01*
X0038137Y0274266D01*
X0040453Y0276581D01*
X0040453Y0279856D01*
X0038137Y0282171D01*
X0034863Y0282171D01*
X0032547Y0279856D01*
X0032700Y0280009D02*
X0032700Y0318163D01*
X0035100Y0318163D02*
X0035100Y0282171D01*
X0033894Y0281203D02*
X0003500Y0281203D01*
X0003500Y0283603D02*
X0135230Y0283603D01*
X0135406Y0286003D02*
X0003500Y0286003D01*
X0003500Y0288403D02*
X0214626Y0288403D01*
X0215100Y0288877D02*
X0215100Y0318163D01*
X0217500Y0318163D02*
X0217500Y0291277D01*
X0217026Y0290803D02*
X0172099Y0290803D01*
X0172191Y0290895D02*
X0170910Y0289614D01*
X0169098Y0289614D01*
X0167817Y0290895D01*
X0167817Y0292707D01*
X0169098Y0293989D01*
X0170910Y0293989D01*
X0172191Y0292707D01*
X0172191Y0290895D01*
X0171900Y0290604D02*
X0171900Y0282768D01*
X0172376Y0283603D02*
X0138636Y0283603D01*
X0138460Y0286003D02*
X0196163Y0286003D01*
X0196163Y0286408D02*
X0196163Y0284596D01*
X0197444Y0283315D01*
X0199256Y0283315D01*
X0200538Y0284596D01*
X0200538Y0286408D01*
X0199256Y0287689D01*
X0197444Y0287689D01*
X0196163Y0286408D01*
X0198300Y0287689D02*
X0198300Y0318163D01*
X0195900Y0318163D02*
X0195900Y0280090D01*
X0198300Y0280090D02*
X0198300Y0283315D01*
X0197156Y0283603D02*
X0176293Y0283603D01*
X0174300Y0284737D02*
X0174300Y0318163D01*
X0171900Y0318163D02*
X0171900Y0292999D01*
X0171696Y0293203D02*
X0219426Y0293203D01*
X0219900Y0293677D02*
X0219900Y0318163D01*
X0222300Y0318163D02*
X0222300Y0296077D01*
X0221826Y0295603D02*
X0159576Y0295603D01*
X0159900Y0295927D02*
X0159900Y0280090D01*
X0159101Y0281203D02*
X0161124Y0281203D01*
X0162300Y0282860D02*
X0162300Y0318163D01*
X0159900Y0318163D02*
X0159900Y0297912D01*
X0159987Y0297825D02*
X0158705Y0299107D01*
X0156893Y0299107D01*
X0155612Y0297825D01*
X0155612Y0296013D01*
X0156893Y0294732D01*
X0158705Y0294732D01*
X0159987Y0296013D01*
X0159987Y0297825D01*
X0159809Y0298003D02*
X0224226Y0298003D01*
X0224700Y0298477D02*
X0224700Y0318163D01*
X0212700Y0318163D02*
X0212700Y0286477D01*
X0212226Y0286003D02*
X0200538Y0286003D01*
X0199545Y0283603D02*
X0209826Y0283603D01*
X0210300Y0284077D02*
X0210300Y0318163D01*
X0207900Y0318163D02*
X0207900Y0281677D01*
X0207426Y0281203D02*
X0175606Y0281203D01*
X0174300Y0280756D02*
X0174300Y0280090D01*
X0176700Y0280090D02*
X0176700Y0318163D01*
X0179100Y0318163D02*
X0179100Y0280090D01*
X0181500Y0280090D02*
X0181500Y0318163D01*
X0183900Y0318163D02*
X0183900Y0280090D01*
X0186300Y0280090D02*
X0186300Y0318163D01*
X0188700Y0318163D02*
X0188700Y0280090D01*
X0191100Y0280090D02*
X0191100Y0318163D01*
X0193500Y0318163D02*
X0193500Y0280090D01*
X0200700Y0280090D02*
X0200700Y0318163D01*
X0203100Y0318163D02*
X0203100Y0280090D01*
X0205500Y0280090D02*
X0205500Y0318163D01*
X0227100Y0296917D02*
X0227100Y0266409D01*
X0229500Y0266409D02*
X0229500Y0299317D01*
X0230585Y0300403D02*
X0249106Y0300403D01*
X0249392Y0302803D02*
X0232985Y0302803D01*
X0231900Y0301717D02*
X0231900Y0266409D01*
X0233361Y0266803D02*
X0181148Y0266803D01*
X0178939Y0264909D02*
X0137720Y0223691D01*
X0133500Y0227356D02*
X0133500Y0266267D01*
X0135900Y0266267D02*
X0135900Y0229756D01*
X0136947Y0230803D02*
X0126916Y0230803D01*
X0126916Y0233203D02*
X0139347Y0233203D01*
X0138300Y0232156D02*
X0138300Y0263071D01*
X0137206Y0264403D02*
X0050453Y0264403D01*
X0047100Y0260742D02*
X0047100Y0259632D01*
X0048166Y0259603D02*
X0052547Y0259603D01*
X0056700Y0256234D02*
X0056700Y0251656D01*
X0056984Y0252403D02*
X0056016Y0252403D01*
X0056016Y0254803D02*
X0056984Y0254803D01*
X0059100Y0263177D02*
X0059100Y0266213D01*
X0056700Y0265250D02*
X0056700Y0264140D01*
X0052547Y0269203D02*
X0040453Y0269203D01*
X0037500Y0273155D02*
X0037500Y0274266D01*
X0035100Y0274266D02*
X0035100Y0273155D01*
X0033310Y0271603D02*
X0003500Y0271603D01*
X0003500Y0274003D02*
X0042547Y0274003D01*
X0040453Y0278803D02*
X0052547Y0278803D01*
X0053894Y0281203D02*
X0039106Y0281203D01*
X0039900Y0280409D02*
X0039900Y0302663D01*
X0039760Y0302803D02*
X0003500Y0302803D01*
X0003500Y0305203D02*
X0038397Y0305203D01*
X0037807Y0307603D02*
X0003500Y0307603D01*
X0003500Y0310003D02*
X0037807Y0310003D01*
X0038767Y0312403D02*
X0003500Y0312403D01*
X0003500Y0295603D02*
X0132801Y0295603D01*
X0132580Y0295382D02*
X0132580Y0293733D01*
X0133746Y0292567D01*
X0135395Y0292567D01*
X0136561Y0293733D01*
X0136561Y0295382D01*
X0135395Y0296548D01*
X0133746Y0296548D01*
X0132580Y0295382D01*
X0133500Y0296301D02*
X0133500Y0299207D01*
X0133610Y0299318D02*
X0131267Y0296974D01*
X0127953Y0296974D01*
X0125610Y0299318D01*
X0125610Y0302631D01*
X0127953Y0304974D01*
X0131267Y0304974D01*
X0133610Y0302631D01*
X0133610Y0299318D01*
X0133610Y0300403D02*
X0135610Y0300403D01*
X0135900Y0299028D02*
X0135900Y0296043D01*
X0136340Y0295603D02*
X0156022Y0295603D01*
X0157500Y0294732D02*
X0157500Y0282867D01*
X0155100Y0281820D02*
X0155100Y0318163D01*
X0157500Y0318163D02*
X0157500Y0299107D01*
X0155789Y0298003D02*
X0142295Y0298003D01*
X0140700Y0296974D02*
X0140700Y0270367D01*
X0143100Y0270367D02*
X0143100Y0279670D01*
X0145500Y0279443D02*
X0145500Y0270367D01*
X0147900Y0270367D02*
X0147900Y0318163D01*
X0140700Y0318163D02*
X0140700Y0314974D01*
X0141439Y0314803D02*
X0352893Y0314803D01*
X0354300Y0315645D02*
X0354300Y0318163D01*
X0356700Y0318163D02*
X0356700Y0316464D01*
X0359100Y0316464D02*
X0359100Y0318163D01*
X0361500Y0318163D02*
X0361500Y0315619D01*
X0362845Y0314803D02*
X0393201Y0314803D01*
X0393201Y0312403D02*
X0364899Y0312403D01*
X0363900Y0313748D02*
X0363900Y0318163D01*
X0366300Y0318163D02*
X0366300Y0279081D01*
X0366579Y0278803D02*
X0393201Y0278803D01*
X0393201Y0281203D02*
X0356231Y0281203D01*
X0355613Y0278803D02*
X0360340Y0278803D01*
X0361500Y0279963D02*
X0361500Y0301300D01*
X0365183Y0305203D02*
X0393201Y0305203D01*
X0393201Y0307603D02*
X0365873Y0307603D01*
X0365873Y0310003D02*
X0393201Y0310003D01*
X0390300Y0318163D02*
X0390300Y0007203D01*
X0387900Y0007203D02*
X0387900Y0318163D01*
X0385500Y0318163D02*
X0385500Y0007203D01*
X0383100Y0007203D02*
X0383100Y0318163D01*
X0380700Y0318163D02*
X0380700Y0007203D01*
X0378300Y0007203D02*
X0378300Y0318163D01*
X0375900Y0318163D02*
X0375900Y0007203D01*
X0373500Y0007203D02*
X0373500Y0227176D01*
X0373766Y0228403D02*
X0393201Y0228403D01*
X0393201Y0230803D02*
X0373766Y0230803D01*
X0373766Y0233203D02*
X0393201Y0233203D01*
X0393201Y0235603D02*
X0373766Y0235603D01*
X0373766Y0238003D02*
X0393201Y0238003D01*
X0393201Y0240403D02*
X0373766Y0240403D01*
X0373766Y0242803D02*
X0393201Y0242803D01*
X0393201Y0245203D02*
X0373766Y0245203D01*
X0373766Y0247603D02*
X0393201Y0247603D01*
X0393201Y0250003D02*
X0373766Y0250003D01*
X0373766Y0252403D02*
X0393201Y0252403D01*
X0393201Y0254803D02*
X0373766Y0254803D01*
X0373500Y0256659D02*
X0373500Y0318163D01*
X0354300Y0301274D02*
X0354300Y0284626D01*
X0355323Y0283603D02*
X0393201Y0283603D01*
X0393201Y0276403D02*
X0367912Y0276403D01*
X0366300Y0276109D02*
X0366300Y0275141D01*
X0367912Y0274003D02*
X0393201Y0274003D01*
X0393201Y0257203D02*
X0372956Y0257203D01*
X0370966Y0254803D02*
X0367412Y0254803D01*
X0366300Y0256563D02*
X0366300Y0259899D01*
X0363900Y0260767D02*
X0363900Y0257767D01*
X0365660Y0257203D02*
X0368996Y0257203D01*
X0368700Y0257499D02*
X0368700Y0226335D01*
X0368367Y0226003D02*
X0342959Y0226003D01*
X0342959Y0225474D02*
X0341735Y0224250D01*
X0340005Y0224250D01*
X0338781Y0225474D01*
X0338781Y0227204D01*
X0340005Y0228428D01*
X0341735Y0228428D01*
X0342959Y0227204D01*
X0342959Y0225474D01*
X0342300Y0224815D02*
X0342300Y0214502D01*
X0341800Y0214003D02*
X0304475Y0214003D01*
X0304475Y0216403D02*
X0344200Y0216403D01*
X0344700Y0216902D02*
X0344700Y0318163D01*
X0347100Y0318163D02*
X0347100Y0219302D01*
X0346600Y0218803D02*
X0304475Y0218803D01*
X0304475Y0221203D02*
X0349000Y0221203D01*
X0349500Y0221702D02*
X0349500Y0234624D01*
X0348521Y0235603D02*
X0304475Y0235603D01*
X0304475Y0238003D02*
X0348325Y0238003D01*
X0348325Y0239073D02*
X0348325Y0235799D01*
X0350641Y0233483D01*
X0353915Y0233483D01*
X0356231Y0235799D01*
X0356231Y0239073D01*
X0353915Y0241389D01*
X0350641Y0241389D01*
X0348325Y0239073D01*
X0349500Y0240248D02*
X0349500Y0245530D01*
X0349827Y0245203D02*
X0342037Y0245203D01*
X0342300Y0244940D02*
X0342300Y0255462D01*
X0339900Y0255002D02*
X0339900Y0245400D01*
X0340005Y0245504D02*
X0338781Y0244281D01*
X0338781Y0242550D01*
X0340005Y0241326D01*
X0341735Y0241326D01*
X0342959Y0242550D01*
X0342959Y0244281D01*
X0341735Y0245504D01*
X0340005Y0245504D01*
X0339703Y0245203D02*
X0304475Y0245203D01*
X0304475Y0247603D02*
X0348325Y0247603D01*
X0351900Y0244389D02*
X0351900Y0241389D01*
X0354300Y0241004D02*
X0354300Y0244773D01*
X0354729Y0245203D02*
X0360164Y0245203D01*
X0359507Y0244546D02*
X0359507Y0241271D01*
X0361822Y0238956D01*
X0365097Y0238956D01*
X0367412Y0241271D01*
X0367412Y0244546D01*
X0365097Y0246861D01*
X0361822Y0246861D01*
X0359507Y0244546D01*
X0359507Y0242803D02*
X0342959Y0242803D01*
X0342300Y0241891D02*
X0342300Y0227863D01*
X0341761Y0228403D02*
X0370767Y0228403D01*
X0370966Y0230803D02*
X0304475Y0230803D01*
X0304475Y0233203D02*
X0370966Y0233203D01*
X0370966Y0235603D02*
X0356035Y0235603D01*
X0356231Y0238003D02*
X0370966Y0238003D01*
X0370966Y0240403D02*
X0366544Y0240403D01*
X0366300Y0240159D02*
X0366300Y0223935D01*
X0365967Y0223603D02*
X0304475Y0223603D01*
X0304475Y0226003D02*
X0338781Y0226003D01*
X0339900Y0224355D02*
X0339900Y0212102D01*
X0339400Y0211603D02*
X0304475Y0211603D01*
X0304475Y0209203D02*
X0337000Y0209203D01*
X0337500Y0209702D02*
X0337500Y0284296D01*
X0335100Y0283987D02*
X0335100Y0207302D01*
X0334600Y0206803D02*
X0304475Y0206803D01*
X0301675Y0206803D02*
X0286567Y0206803D01*
X0286567Y0209203D02*
X0301675Y0209203D01*
X0301675Y0211603D02*
X0286567Y0211603D01*
X0286567Y0214003D02*
X0301675Y0214003D01*
X0301675Y0216403D02*
X0286567Y0216403D01*
X0286567Y0218803D02*
X0301675Y0218803D01*
X0301675Y0221203D02*
X0286567Y0221203D01*
X0286567Y0223603D02*
X0301675Y0223603D01*
X0301675Y0226003D02*
X0285338Y0226003D01*
X0284700Y0226641D02*
X0284700Y0309299D01*
X0282300Y0309299D02*
X0282300Y0229041D01*
X0282938Y0228403D02*
X0301675Y0228403D01*
X0301675Y0230803D02*
X0280538Y0230803D01*
X0279900Y0231441D02*
X0279900Y0247437D01*
X0280065Y0247603D02*
X0301675Y0247603D01*
X0301675Y0250003D02*
X0280381Y0250003D01*
X0279900Y0251126D02*
X0279900Y0309299D01*
X0277091Y0296526D02*
X0265205Y0296526D01*
X0233589Y0264909D01*
X0178939Y0264909D01*
X0181500Y0261806D02*
X0181500Y0252518D01*
X0179100Y0252518D02*
X0179100Y0259406D01*
X0179297Y0259603D02*
X0248141Y0259603D01*
X0248700Y0260162D02*
X0248700Y0263199D01*
X0243900Y0261909D02*
X0243900Y0256053D01*
X0241500Y0252572D02*
X0241500Y0261909D01*
X0239100Y0261909D02*
X0239100Y0252572D01*
X0239100Y0247781D02*
X0239100Y0231096D01*
X0236700Y0231096D02*
X0236700Y0247781D01*
X0234300Y0247781D02*
X0234300Y0231096D01*
X0231900Y0231096D02*
X0231900Y0247781D01*
X0229500Y0247781D02*
X0229500Y0231096D01*
X0227100Y0231096D02*
X0227100Y0244535D01*
X0225992Y0245203D02*
X0225433Y0245203D01*
X0224700Y0244929D02*
X0224700Y0231096D01*
X0222300Y0231096D02*
X0222300Y0247781D01*
X0222344Y0247603D02*
X0204376Y0247603D01*
X0205500Y0247781D02*
X0205500Y0236379D01*
X0206276Y0235603D02*
X0247518Y0235603D01*
X0246300Y0235524D02*
X0246300Y0247781D01*
X0243900Y0247781D02*
X0243900Y0241805D01*
X0244435Y0240403D02*
X0275059Y0240403D01*
X0277859Y0240403D02*
X0301675Y0240403D01*
X0301675Y0242803D02*
X0277859Y0242803D01*
X0277859Y0245203D02*
X0301675Y0245203D01*
X0304475Y0242803D02*
X0338781Y0242803D01*
X0339900Y0241431D02*
X0339900Y0228323D01*
X0339980Y0228403D02*
X0304475Y0228403D01*
X0301675Y0233203D02*
X0278609Y0233203D01*
X0278609Y0235603D02*
X0301675Y0235603D01*
X0301675Y0238003D02*
X0278609Y0238003D01*
X0275809Y0235603D02*
X0249970Y0235603D01*
X0248700Y0235283D02*
X0248700Y0231096D01*
X0247585Y0233203D02*
X0275809Y0233203D01*
X0275100Y0231096D02*
X0275100Y0235677D01*
X0272935Y0238003D02*
X0250931Y0238003D01*
X0243900Y0239085D02*
X0243900Y0234654D01*
X0246300Y0231543D02*
X0246300Y0231096D01*
X0246300Y0228096D02*
X0246300Y0223522D01*
X0245026Y0223603D02*
X0258347Y0223603D01*
X0258300Y0223556D02*
X0258300Y0228096D01*
X0260700Y0228096D02*
X0260700Y0225956D01*
X0260747Y0226003D02*
X0244408Y0226003D01*
X0243900Y0226510D02*
X0243900Y0228096D01*
X0248700Y0228096D02*
X0248700Y0223522D01*
X0251100Y0223522D02*
X0251100Y0228096D01*
X0253500Y0228096D02*
X0253500Y0223522D01*
X0255900Y0223522D02*
X0255900Y0228096D01*
X0263100Y0228096D02*
X0263100Y0227037D01*
X0265500Y0227037D02*
X0265500Y0228096D01*
X0267900Y0228096D02*
X0267900Y0227037D01*
X0268494Y0221203D02*
X0269521Y0221203D01*
X0270230Y0218803D02*
X0268203Y0218803D01*
X0267900Y0218508D02*
X0267900Y0217063D01*
X0268494Y0216403D02*
X0269939Y0216403D01*
X0270300Y0216838D02*
X0270300Y0218733D01*
X0272700Y0218508D02*
X0272700Y0217063D01*
X0275100Y0217063D02*
X0275100Y0218508D01*
X0276077Y0218803D02*
X0283767Y0218803D01*
X0283767Y0221203D02*
X0276368Y0221203D01*
X0276368Y0223603D02*
X0283767Y0223603D01*
X0283767Y0216403D02*
X0276368Y0216403D01*
X0276368Y0214003D02*
X0283767Y0214003D01*
X0283767Y0211603D02*
X0276368Y0211603D01*
X0275100Y0210634D02*
X0275100Y0209689D01*
X0276476Y0209203D02*
X0283767Y0209203D01*
X0283767Y0206803D02*
X0276868Y0206803D01*
X0275100Y0206213D02*
X0275100Y0205736D01*
X0273392Y0206803D02*
X0272915Y0206803D01*
X0272700Y0206213D02*
X0272700Y0205736D01*
X0272915Y0204403D02*
X0273392Y0204403D01*
X0270300Y0205736D02*
X0270300Y0206213D01*
X0269439Y0206803D02*
X0268494Y0206803D01*
X0268494Y0204403D02*
X0269439Y0204403D01*
X0270300Y0202397D02*
X0270300Y0129244D01*
X0270123Y0129422D02*
X0268310Y0129422D01*
X0267029Y0128140D01*
X0267029Y0126328D01*
X0268310Y0125047D01*
X0270123Y0125047D01*
X0271404Y0126328D01*
X0271404Y0128140D01*
X0270123Y0129422D01*
X0271404Y0127603D02*
X0274497Y0127603D01*
X0274497Y0126177D02*
X0267410Y0119090D01*
X0267410Y0117268D01*
X0268699Y0115979D01*
X0270522Y0115979D01*
X0278897Y0124354D01*
X0278897Y0126177D01*
X0278897Y0146256D01*
X0277608Y0147544D01*
X0275786Y0147544D01*
X0274497Y0146256D01*
X0274497Y0126177D01*
X0273523Y0125203D02*
X0270278Y0125203D01*
X0270300Y0125224D02*
X0270300Y0121980D01*
X0271123Y0122803D02*
X0176922Y0122803D01*
X0176922Y0125203D02*
X0232722Y0125203D01*
X0232877Y0125047D02*
X0234690Y0125047D01*
X0235971Y0126328D01*
X0235971Y0128140D01*
X0234690Y0129422D01*
X0232877Y0129422D01*
X0231596Y0128140D01*
X0231596Y0126328D01*
X0232877Y0125047D01*
X0231900Y0126024D02*
X0231900Y0110195D01*
X0232508Y0110803D02*
X0176922Y0110803D01*
X0171900Y0109299D02*
X0171900Y0059049D01*
X0188700Y0059049D02*
X0188700Y0086722D01*
X0191100Y0086651D02*
X0191100Y0059049D01*
X0195900Y0061646D02*
X0195900Y0088138D01*
X0197415Y0089203D02*
X0220579Y0089203D01*
X0219900Y0085655D02*
X0219900Y0182821D01*
X0219900Y0185821D02*
X0219900Y0186364D01*
X0217500Y0186364D02*
X0217500Y0185821D01*
X0215100Y0185821D02*
X0215100Y0186364D01*
X0212700Y0186364D02*
X0212700Y0185821D01*
X0210300Y0185821D02*
X0210300Y0186364D01*
X0207900Y0186364D02*
X0207900Y0185821D01*
X0205500Y0185821D02*
X0205500Y0186364D01*
X0203100Y0186364D02*
X0203100Y0185821D01*
X0200700Y0185821D02*
X0200700Y0186364D01*
X0198300Y0186364D02*
X0198300Y0185821D01*
X0195900Y0185821D02*
X0195900Y0186364D01*
X0193500Y0186364D02*
X0193500Y0185821D01*
X0191100Y0185821D02*
X0191100Y0186364D01*
X0188700Y0186364D02*
X0188700Y0185821D01*
X0186300Y0185821D02*
X0186300Y0186376D01*
X0186933Y0187864D02*
X0185752Y0189045D01*
X0186933Y0187864D02*
X0260949Y0187864D01*
X0261343Y0187470D01*
X0263530Y0187603D02*
X0283767Y0187603D01*
X0283767Y0185203D02*
X0267861Y0185203D01*
X0267249Y0182803D02*
X0283767Y0182803D01*
X0283767Y0180403D02*
X0255616Y0180403D01*
X0252561Y0178003D02*
X0176922Y0178003D01*
X0176922Y0175603D02*
X0250458Y0175603D01*
X0251100Y0176245D02*
X0251100Y0182821D01*
X0248700Y0182821D02*
X0248700Y0174993D01*
X0247443Y0173203D02*
X0176922Y0173203D01*
X0176922Y0170803D02*
X0245751Y0170803D01*
X0246300Y0171030D02*
X0246300Y0182821D01*
X0243900Y0182821D02*
X0243900Y0110524D01*
X0241500Y0110524D02*
X0241500Y0182821D01*
X0239100Y0182821D02*
X0239100Y0110524D01*
X0236700Y0110524D02*
X0236700Y0182821D01*
X0234300Y0182821D02*
X0234300Y0129422D01*
X0235971Y0127603D02*
X0267029Y0127603D01*
X0267900Y0129011D02*
X0267900Y0144439D01*
X0267864Y0144403D02*
X0274497Y0144403D01*
X0274497Y0142003D02*
X0176922Y0142003D01*
X0176922Y0144403D02*
X0264270Y0144403D01*
X0264497Y0144176D02*
X0265516Y0143754D01*
X0266618Y0143754D01*
X0267637Y0144176D01*
X0268417Y0144956D01*
X0268839Y0145974D01*
X0268839Y0147077D01*
X0268417Y0148096D01*
X0267637Y0148875D01*
X0266618Y0149297D01*
X0265516Y0149297D01*
X0264497Y0148875D01*
X0263717Y0148096D01*
X0263295Y0147077D01*
X0263295Y0145974D01*
X0263717Y0144956D01*
X0264497Y0144176D01*
X0265500Y0143760D02*
X0265500Y0110524D01*
X0263100Y0110524D02*
X0263100Y0182821D01*
X0265500Y0182133D02*
X0265500Y0149291D01*
X0265288Y0149203D02*
X0258567Y0149203D01*
X0258300Y0148936D02*
X0258300Y0148660D01*
X0256244Y0149203D02*
X0254630Y0149203D01*
X0253500Y0148866D02*
X0253500Y0147797D01*
X0253500Y0146041D02*
X0253500Y0110524D01*
X0251100Y0110524D02*
X0251100Y0144929D01*
X0249509Y0146803D02*
X0176922Y0146803D01*
X0176922Y0154003D02*
X0276872Y0154003D01*
X0277500Y0153259D02*
X0277500Y0147544D01*
X0278350Y0146803D02*
X0286246Y0146803D01*
X0286246Y0149203D02*
X0266846Y0149203D01*
X0267900Y0148612D02*
X0267900Y0202760D01*
X0265500Y0202760D02*
X0265500Y0186508D01*
X0263100Y0186135D02*
X0263100Y0185821D01*
X0263100Y0188806D02*
X0263100Y0202760D01*
X0262065Y0204403D02*
X0242901Y0204403D01*
X0239671Y0206803D02*
X0200337Y0206803D01*
X0205065Y0211603D02*
X0225610Y0211603D01*
X0227100Y0210594D02*
X0227100Y0192263D01*
X0227239Y0192403D02*
X0223399Y0192403D01*
X0222300Y0193004D02*
X0222300Y0219922D01*
X0219900Y0219922D02*
X0219900Y0189364D01*
X0220168Y0190003D02*
X0217871Y0190003D01*
X0217500Y0189632D02*
X0217500Y0189364D01*
X0217500Y0192396D02*
X0217500Y0219922D01*
X0215100Y0219922D02*
X0215100Y0192862D01*
X0214641Y0192403D02*
X0211587Y0192403D01*
X0210300Y0193004D02*
X0210300Y0219922D01*
X0212700Y0219922D02*
X0212700Y0189364D01*
X0211965Y0190003D02*
X0214263Y0190003D01*
X0217493Y0192403D02*
X0220546Y0192403D01*
X0222300Y0186364D02*
X0222300Y0185821D01*
X0224700Y0185821D02*
X0224700Y0186364D01*
X0227100Y0186364D02*
X0227100Y0185821D01*
X0229500Y0185821D02*
X0229500Y0186364D01*
X0231900Y0186364D02*
X0231900Y0185821D01*
X0234300Y0185821D02*
X0234300Y0186364D01*
X0236700Y0186364D02*
X0236700Y0185821D01*
X0239100Y0185821D02*
X0239100Y0186364D01*
X0241500Y0186364D02*
X0241500Y0185821D01*
X0243900Y0185821D02*
X0243900Y0186364D01*
X0246300Y0186364D02*
X0246300Y0185821D01*
X0248700Y0185821D02*
X0248700Y0186364D01*
X0251100Y0186364D02*
X0251100Y0185821D01*
X0253500Y0185821D02*
X0253500Y0186364D01*
X0255900Y0186364D02*
X0255900Y0185821D01*
X0258300Y0185821D02*
X0258300Y0186364D01*
X0258300Y0189364D02*
X0258300Y0219922D01*
X0255900Y0219922D02*
X0255900Y0189364D01*
X0253500Y0189364D02*
X0253500Y0219922D01*
X0251100Y0219922D02*
X0251100Y0189364D01*
X0248700Y0189364D02*
X0248700Y0219922D01*
X0246300Y0219922D02*
X0246300Y0189364D01*
X0243900Y0189364D02*
X0243900Y0219922D01*
X0236700Y0223522D02*
X0236700Y0228096D01*
X0234300Y0228096D02*
X0234300Y0223522D01*
X0231900Y0223522D02*
X0231900Y0228096D01*
X0229500Y0228096D02*
X0229500Y0223522D01*
X0227100Y0223522D02*
X0227100Y0228096D01*
X0224700Y0228096D02*
X0224700Y0223522D01*
X0222300Y0223522D02*
X0222300Y0228096D01*
X0219900Y0228096D02*
X0219900Y0223522D01*
X0217500Y0223522D02*
X0217500Y0228096D01*
X0215100Y0228096D02*
X0215100Y0223522D01*
X0212700Y0223522D02*
X0212700Y0228096D01*
X0210300Y0228096D02*
X0210300Y0223522D01*
X0207900Y0223522D02*
X0207900Y0229737D01*
X0206834Y0230803D02*
X0200931Y0230803D01*
X0200700Y0229640D02*
X0200700Y0229255D01*
X0201552Y0228403D02*
X0209234Y0228403D01*
X0212700Y0231096D02*
X0212700Y0247781D01*
X0210300Y0247781D02*
X0210300Y0247433D01*
X0207900Y0247781D02*
X0207900Y0233979D01*
X0215100Y0231096D02*
X0215100Y0247781D01*
X0217500Y0247781D02*
X0217500Y0231096D01*
X0219900Y0231096D02*
X0219900Y0247781D01*
X0222300Y0250781D02*
X0222300Y0251511D01*
X0223236Y0245203D02*
X0212250Y0245203D01*
X0212700Y0250781D02*
X0212700Y0261909D01*
X0210300Y0261909D02*
X0210300Y0250781D01*
X0207900Y0250781D02*
X0207900Y0261909D01*
X0205500Y0261909D02*
X0205500Y0250781D01*
X0203100Y0250781D02*
X0203100Y0261909D01*
X0200700Y0261909D02*
X0200700Y0250781D01*
X0198300Y0250781D02*
X0198300Y0261909D01*
X0195900Y0261909D02*
X0195900Y0250781D01*
X0193500Y0250781D02*
X0193500Y0261909D01*
X0191100Y0261909D02*
X0191100Y0250781D01*
X0188700Y0250781D02*
X0188700Y0261909D01*
X0184649Y0251018D02*
X0186385Y0249281D01*
X0277091Y0249281D01*
X0279561Y0247098D02*
X0279561Y0247098D01*
X0275100Y0252572D02*
X0275100Y0271404D01*
X0272700Y0271404D02*
X0272700Y0252572D01*
X0270300Y0252572D02*
X0270300Y0271404D01*
X0267900Y0271404D02*
X0267900Y0252572D01*
X0265892Y0257203D02*
X0301675Y0257203D01*
X0301675Y0259603D02*
X0252667Y0259603D01*
X0253500Y0260436D02*
X0253500Y0252572D01*
X0251100Y0252572D02*
X0251100Y0258036D01*
X0250267Y0257203D02*
X0261517Y0257203D01*
X0263100Y0258555D02*
X0263100Y0271404D01*
X0265500Y0271404D02*
X0265500Y0257666D01*
X0255900Y0252572D02*
X0255900Y0262836D01*
X0255067Y0262003D02*
X0301675Y0262003D01*
X0304475Y0264403D02*
X0359507Y0264403D01*
X0359953Y0266803D02*
X0354518Y0266803D01*
X0354300Y0266584D02*
X0354300Y0262815D01*
X0351900Y0263200D02*
X0351900Y0266200D01*
X0354300Y0273721D02*
X0354300Y0277490D01*
X0359100Y0276109D02*
X0359100Y0275141D01*
X0361500Y0275141D02*
X0361500Y0276109D01*
X0362975Y0274003D02*
X0363944Y0274003D01*
X0363944Y0271603D02*
X0362975Y0271603D01*
X0362975Y0278803D02*
X0363944Y0278803D01*
X0351900Y0285011D02*
X0351900Y0303109D01*
X0352206Y0302803D02*
X0304475Y0302803D01*
X0304475Y0305203D02*
X0350554Y0305203D01*
X0301500Y0306357D02*
X0301500Y0178025D01*
X0301891Y0178003D02*
X0311124Y0178003D01*
X0311124Y0175603D02*
X0307314Y0175603D01*
X0306300Y0176349D02*
X0306300Y0199982D01*
X0306679Y0199603D02*
X0286567Y0199603D01*
X0286567Y0202003D02*
X0304279Y0202003D01*
X0303900Y0202382D02*
X0303900Y0177492D01*
X0308700Y0174217D02*
X0308700Y0197582D01*
X0309079Y0197203D02*
X0286567Y0197203D01*
X0286567Y0204403D02*
X0301879Y0204403D01*
X0283767Y0204403D02*
X0276868Y0204403D01*
X0273392Y0209203D02*
X0272915Y0209203D01*
X0272700Y0209689D02*
X0272700Y0210634D01*
X0269939Y0214003D02*
X0268494Y0214003D01*
X0265500Y0217063D02*
X0265500Y0218508D01*
X0262065Y0221203D02*
X0261038Y0221203D01*
X0260700Y0220865D02*
X0260700Y0189658D01*
X0258466Y0175603D02*
X0257526Y0175603D01*
X0255900Y0173570D02*
X0255900Y0152166D01*
X0258300Y0152777D02*
X0258300Y0171162D01*
X0260700Y0171373D02*
X0260700Y0148408D01*
X0261365Y0146803D02*
X0263295Y0146803D01*
X0260700Y0145430D02*
X0260700Y0110524D01*
X0258300Y0110524D02*
X0258300Y0145178D01*
X0255900Y0144929D02*
X0255900Y0110524D01*
X0255900Y0107724D02*
X0255900Y0105061D01*
X0257816Y0106003D02*
X0207632Y0106003D01*
X0207900Y0106271D02*
X0207900Y0096825D01*
X0207679Y0096403D02*
X0201082Y0096403D01*
X0200408Y0101203D02*
X0271065Y0101203D01*
X0272700Y0099555D02*
X0272700Y0097827D01*
X0271065Y0096403D02*
X0243746Y0096403D01*
X0242876Y0094003D02*
X0271935Y0094003D01*
X0272700Y0093649D02*
X0272700Y0007203D01*
X0270300Y0007203D02*
X0270300Y0106149D01*
X0267900Y0106149D02*
X0267900Y0007203D01*
X0265500Y0007203D02*
X0265500Y0106149D01*
X0267900Y0110524D02*
X0267900Y0116778D01*
X0267410Y0118003D02*
X0176922Y0118003D01*
X0176922Y0120403D02*
X0268723Y0120403D01*
X0267900Y0119580D02*
X0267900Y0125457D01*
X0268155Y0125203D02*
X0234845Y0125203D01*
X0234300Y0125047D02*
X0234300Y0111213D01*
X0235059Y0110803D02*
X0274427Y0110803D01*
X0272700Y0110524D02*
X0272700Y0118158D01*
X0272545Y0118003D02*
X0281627Y0118003D01*
X0286365Y0120403D02*
X0288358Y0120403D01*
X0287100Y0121331D02*
X0287100Y0119145D01*
X0286246Y0125203D02*
X0278897Y0125203D01*
X0278897Y0127603D02*
X0286246Y0127603D01*
X0286246Y0130003D02*
X0278897Y0130003D01*
X0278897Y0132403D02*
X0286246Y0132403D01*
X0286246Y0134803D02*
X0278897Y0134803D01*
X0278897Y0137203D02*
X0286246Y0137203D01*
X0286246Y0139603D02*
X0278897Y0139603D01*
X0278897Y0142003D02*
X0286246Y0142003D01*
X0286246Y0144403D02*
X0278897Y0144403D01*
X0275100Y0146859D02*
X0275100Y0165748D01*
X0275355Y0166003D02*
X0286246Y0166003D01*
X0286246Y0168403D02*
X0276374Y0168403D01*
X0272700Y0165313D02*
X0272700Y0124380D01*
X0274497Y0130003D02*
X0176922Y0130003D01*
X0176922Y0132403D02*
X0274497Y0132403D01*
X0274497Y0134803D02*
X0177309Y0134803D01*
X0176922Y0137203D02*
X0274497Y0137203D01*
X0274497Y0139603D02*
X0176922Y0139603D01*
X0176922Y0127603D02*
X0231596Y0127603D01*
X0231900Y0128444D02*
X0231900Y0182821D01*
X0229500Y0182821D02*
X0229500Y0101069D01*
X0227100Y0101069D02*
X0227100Y0182821D01*
X0227665Y0194803D02*
X0185085Y0194803D01*
X0183900Y0192900D02*
X0183900Y0190287D01*
X0183616Y0190003D02*
X0176922Y0190003D01*
X0176922Y0187603D02*
X0184101Y0187603D01*
X0183900Y0187804D02*
X0183900Y0185821D01*
X0183900Y0182821D02*
X0183900Y0105885D01*
X0184057Y0106003D02*
X0089514Y0106003D01*
X0097500Y0114591D02*
X0097500Y0096197D01*
X0097304Y0096403D02*
X0179714Y0096403D01*
X0180201Y0094003D02*
X0099695Y0094003D01*
X0099900Y0093797D02*
X0099900Y0114591D01*
X0100915Y0115603D02*
X0123817Y0115603D01*
X0123900Y0115093D02*
X0123900Y0071618D01*
X0123115Y0072403D02*
X0206656Y0072403D01*
X0205500Y0071246D02*
X0205500Y0105460D01*
X0204817Y0106003D02*
X0196738Y0106003D01*
X0195900Y0106567D02*
X0195900Y0182821D01*
X0193500Y0182821D02*
X0193500Y0107653D01*
X0191100Y0108054D02*
X0191100Y0182821D01*
X0188700Y0182821D02*
X0188700Y0107983D01*
X0186300Y0107270D02*
X0186300Y0182821D01*
X0179100Y0186508D02*
X0179100Y0227772D01*
X0181500Y0226490D02*
X0181500Y0196409D01*
X0182088Y0197203D02*
X0176922Y0197203D01*
X0176922Y0199603D02*
X0183119Y0199603D01*
X0183900Y0199796D02*
X0183900Y0209299D01*
X0186300Y0210516D02*
X0186300Y0201785D01*
X0188235Y0199603D02*
X0229513Y0199603D01*
X0229500Y0198938D02*
X0229500Y0211745D01*
X0229358Y0211603D02*
X0262065Y0211603D01*
X0262065Y0214003D02*
X0236561Y0214003D01*
X0233523Y0216403D02*
X0202942Y0216403D01*
X0200700Y0213433D02*
X0200700Y0189364D01*
X0207650Y0192403D02*
X0208735Y0192403D01*
X0207900Y0192153D02*
X0207900Y0219922D01*
X0199712Y0214003D02*
X0176328Y0214003D01*
X0186300Y0197607D02*
X0186300Y0191233D01*
X0186266Y0197203D02*
X0227765Y0197203D01*
X0230717Y0202003D02*
X0200341Y0202003D01*
X0207900Y0182821D02*
X0207900Y0108828D01*
X0208313Y0108403D02*
X0231694Y0108403D01*
X0231900Y0108053D02*
X0231900Y0101069D01*
X0234300Y0101069D02*
X0234300Y0107035D01*
X0236700Y0107724D02*
X0236700Y0101069D01*
X0239100Y0100276D02*
X0239100Y0107724D01*
X0246300Y0110524D02*
X0246300Y0165486D01*
X0245440Y0166003D02*
X0176922Y0166003D01*
X0176922Y0168403D02*
X0244421Y0168403D01*
X0248700Y0165564D02*
X0248700Y0110524D01*
X0258300Y0107724D02*
X0258300Y0106487D01*
X0258300Y0101552D02*
X0258300Y0059730D01*
X0258957Y0058003D02*
X0308161Y0058003D01*
X0308161Y0055603D02*
X0258957Y0055603D01*
X0231900Y0062809D02*
X0231900Y0007203D01*
X0256906Y0014803D02*
X0257905Y0014803D01*
X0260700Y0016498D02*
X0260700Y0017498D01*
X0263100Y0017498D02*
X0263100Y0016498D01*
X0263155Y0014803D02*
X0348374Y0014803D01*
X0349500Y0014104D02*
X0349500Y0007203D01*
X0351900Y0007203D02*
X0351900Y0014104D01*
X0353868Y0014803D02*
X0354868Y0014803D01*
X0356700Y0014104D02*
X0356700Y0007203D01*
X0354300Y0007203D02*
X0354300Y0019828D01*
X0353868Y0019603D02*
X0354868Y0019603D01*
X0356700Y0019828D02*
X0356700Y0020828D01*
X0359100Y0020828D02*
X0359100Y0019828D01*
X0360593Y0019603D02*
X0393201Y0019603D01*
X0393201Y0022003D02*
X0360593Y0022003D01*
X0360593Y0017203D02*
X0393201Y0017203D01*
X0393201Y0014803D02*
X0360362Y0014803D01*
X0359100Y0014104D02*
X0359100Y0007203D01*
X0366300Y0007203D02*
X0366300Y0219976D01*
X0367527Y0221203D02*
X0393201Y0221203D01*
X0393201Y0223603D02*
X0369927Y0223603D01*
X0371100Y0224776D02*
X0371100Y0007203D01*
X0368700Y0007203D02*
X0368700Y0222376D01*
X0363900Y0221941D02*
X0363900Y0238956D01*
X0361500Y0239278D02*
X0361500Y0221941D01*
X0361500Y0219141D02*
X0361500Y0217194D01*
X0362820Y0216403D02*
X0393201Y0216403D01*
X0393201Y0218803D02*
X0350560Y0218803D01*
X0351900Y0219141D02*
X0351900Y0215385D01*
X0352918Y0216403D02*
X0348160Y0216403D01*
X0347100Y0215343D02*
X0347100Y0182733D01*
X0347267Y0182803D02*
X0333609Y0182803D01*
X0333609Y0185203D02*
X0393201Y0185203D01*
X0393201Y0187603D02*
X0333609Y0187603D01*
X0333609Y0190003D02*
X0393201Y0190003D01*
X0393201Y0192403D02*
X0333609Y0192403D01*
X0333609Y0194803D02*
X0393201Y0194803D01*
X0393201Y0197203D02*
X0333609Y0197203D01*
X0333609Y0199603D02*
X0393201Y0199603D01*
X0393201Y0202003D02*
X0333760Y0202003D01*
X0335100Y0203343D02*
X0335100Y0093201D01*
X0332700Y0093201D02*
X0332700Y0109998D01*
X0333505Y0110803D02*
X0345882Y0110803D01*
X0346519Y0108403D02*
X0343191Y0108403D01*
X0343787Y0107807D02*
X0341472Y0110122D01*
X0338197Y0110122D01*
X0335882Y0107807D01*
X0335882Y0104532D01*
X0338197Y0102217D01*
X0341472Y0102217D01*
X0343787Y0104532D01*
X0343787Y0107807D01*
X0343787Y0106003D02*
X0353643Y0106003D01*
X0353643Y0103603D02*
X0342858Y0103603D01*
X0342300Y0103045D02*
X0342300Y0093201D01*
X0339900Y0093201D02*
X0339900Y0102217D01*
X0337500Y0102914D02*
X0337500Y0093201D01*
X0330300Y0093201D02*
X0330300Y0107598D01*
X0331105Y0108403D02*
X0336478Y0108403D01*
X0337500Y0109425D02*
X0337500Y0111930D01*
X0338197Y0111233D02*
X0341472Y0111233D01*
X0343787Y0113548D01*
X0343787Y0116823D01*
X0341472Y0119138D01*
X0338197Y0119138D01*
X0335882Y0116823D01*
X0335882Y0113548D01*
X0338197Y0111233D01*
X0339900Y0111233D02*
X0339900Y0110122D01*
X0342300Y0109294D02*
X0342300Y0112061D01*
X0343442Y0113203D02*
X0346770Y0113203D01*
X0347100Y0113533D02*
X0347100Y0116838D01*
X0345935Y0118003D02*
X0342607Y0118003D01*
X0342300Y0118310D02*
X0342300Y0121077D01*
X0341626Y0120403D02*
X0345882Y0120403D01*
X0347100Y0122549D02*
X0347100Y0125853D01*
X0347751Y0125203D02*
X0343787Y0125203D01*
X0343787Y0125838D02*
X0343787Y0122564D01*
X0341472Y0120248D01*
X0338197Y0120248D01*
X0335882Y0122564D01*
X0335882Y0125838D01*
X0338197Y0128154D01*
X0341472Y0128154D01*
X0343787Y0125838D01*
X0342300Y0127326D02*
X0342300Y0129385D01*
X0342918Y0130003D02*
X0345882Y0130003D01*
X0345882Y0130346D02*
X0345882Y0127072D01*
X0348197Y0124756D01*
X0351472Y0124756D01*
X0353787Y0127072D01*
X0353787Y0130346D01*
X0351472Y0132662D01*
X0348197Y0132662D01*
X0345882Y0130346D01*
X0347100Y0131565D02*
X0347100Y0134869D01*
X0347166Y0134803D02*
X0344287Y0134803D01*
X0344287Y0135061D02*
X0341679Y0137670D01*
X0340319Y0137670D01*
X0340319Y0133701D01*
X0344287Y0133701D01*
X0344287Y0135061D01*
X0345882Y0136087D02*
X0348197Y0133772D01*
X0351472Y0133772D01*
X0353787Y0136087D01*
X0353787Y0139362D01*
X0351472Y0141677D01*
X0348197Y0141677D01*
X0345882Y0139362D01*
X0345882Y0136087D01*
X0345882Y0137203D02*
X0342146Y0137203D01*
X0342300Y0137048D02*
X0342300Y0139108D01*
X0342795Y0139603D02*
X0346122Y0139603D01*
X0347100Y0140580D02*
X0347100Y0143885D01*
X0346582Y0144403D02*
X0343254Y0144403D01*
X0343787Y0142003D02*
X0355882Y0142003D01*
X0356700Y0139777D02*
X0356700Y0135672D01*
X0355882Y0134854D02*
X0355882Y0131580D01*
X0358197Y0129264D01*
X0361472Y0129264D01*
X0363787Y0131580D01*
X0363787Y0134854D01*
X0361472Y0137170D01*
X0358197Y0137170D01*
X0355882Y0134854D01*
X0355882Y0134803D02*
X0352503Y0134803D01*
X0351900Y0134200D02*
X0351900Y0132233D01*
X0351731Y0132403D02*
X0355882Y0132403D01*
X0356700Y0130761D02*
X0356700Y0126657D01*
X0357646Y0127603D02*
X0353787Y0127603D01*
X0353787Y0130003D02*
X0357459Y0130003D01*
X0359100Y0129264D02*
X0359100Y0128154D01*
X0361500Y0128126D02*
X0361500Y0129292D01*
X0362210Y0130003D02*
X0393201Y0130003D01*
X0393201Y0132403D02*
X0363787Y0132403D01*
X0363787Y0134803D02*
X0393201Y0134803D01*
X0393201Y0137203D02*
X0353787Y0137203D01*
X0353546Y0139603D02*
X0356874Y0139603D01*
X0359100Y0138280D02*
X0359100Y0137170D01*
X0361500Y0137141D02*
X0361500Y0138308D01*
X0362795Y0139603D02*
X0393201Y0139603D01*
X0393201Y0142003D02*
X0363787Y0142003D01*
X0363254Y0144403D02*
X0393201Y0144403D01*
X0393201Y0127603D02*
X0362023Y0127603D01*
X0363787Y0125203D02*
X0393201Y0125203D01*
X0393201Y0122803D02*
X0363787Y0122803D01*
X0361626Y0120403D02*
X0393201Y0120403D01*
X0393201Y0118003D02*
X0362607Y0118003D01*
X0361500Y0119110D02*
X0361500Y0120277D01*
X0359100Y0120248D02*
X0359100Y0119138D01*
X0358043Y0120403D02*
X0358016Y0120403D01*
X0356700Y0119087D02*
X0356700Y0117641D01*
X0356443Y0118003D02*
X0357062Y0118003D01*
X0354300Y0120647D02*
X0354300Y0166898D01*
X0352140Y0166003D02*
X0393201Y0166003D01*
X0393201Y0182803D02*
X0352402Y0182803D01*
X0351900Y0183011D02*
X0351900Y0204684D01*
X0352181Y0204403D02*
X0336160Y0204403D01*
X0342300Y0210543D02*
X0342300Y0178983D01*
X0341894Y0178003D02*
X0333609Y0178003D01*
X0333609Y0180403D02*
X0343487Y0180403D01*
X0344700Y0181616D02*
X0344700Y0212943D01*
X0345760Y0214003D02*
X0350849Y0214003D01*
X0349865Y0211603D02*
X0343360Y0211603D01*
X0349500Y0217743D02*
X0349500Y0183150D01*
X0354300Y0182016D02*
X0354300Y0202849D01*
X0365873Y0209203D02*
X0393201Y0209203D01*
X0393201Y0211603D02*
X0365873Y0211603D01*
X0364888Y0214003D02*
X0393201Y0214003D01*
X0393201Y0226003D02*
X0372327Y0226003D01*
X0363900Y0219141D02*
X0363900Y0215322D01*
X0359100Y0218038D02*
X0359100Y0219141D01*
X0356700Y0219141D02*
X0356700Y0218038D01*
X0354300Y0217220D02*
X0354300Y0219141D01*
X0354300Y0221941D02*
X0354300Y0233868D01*
X0351900Y0233483D02*
X0351900Y0221941D01*
X0349655Y0240403D02*
X0304475Y0240403D01*
X0301675Y0274003D02*
X0278806Y0274003D01*
X0275100Y0274404D02*
X0275100Y0295026D01*
X0272700Y0295026D02*
X0272700Y0274404D01*
X0270300Y0274404D02*
X0270300Y0295026D01*
X0267900Y0295026D02*
X0267900Y0274404D01*
X0265500Y0274404D02*
X0265500Y0294699D01*
X0264004Y0293203D02*
X0301675Y0293203D01*
X0301675Y0290803D02*
X0261604Y0290803D01*
X0260700Y0289899D02*
X0260700Y0274404D01*
X0258300Y0274404D02*
X0258300Y0287499D01*
X0259204Y0288403D02*
X0301675Y0288403D01*
X0301675Y0300403D02*
X0265705Y0300403D01*
X0265500Y0298318D02*
X0265500Y0298026D01*
X0263100Y0292299D02*
X0263100Y0274404D01*
X0252561Y0286003D02*
X0216185Y0286003D01*
X0215100Y0284917D02*
X0215100Y0266409D01*
X0217500Y0266409D02*
X0217500Y0287317D01*
X0218585Y0288403D02*
X0254961Y0288403D01*
X0255900Y0289342D02*
X0255900Y0292163D01*
X0257361Y0290803D02*
X0220985Y0290803D01*
X0219900Y0289717D02*
X0219900Y0266409D01*
X0222300Y0266409D02*
X0222300Y0292117D01*
X0223385Y0293203D02*
X0253245Y0293203D01*
X0253500Y0293097D02*
X0253500Y0286942D01*
X0251100Y0284542D02*
X0251100Y0295031D01*
X0250528Y0295603D02*
X0225785Y0295603D01*
X0224700Y0294517D02*
X0224700Y0266409D01*
X0215100Y0261909D02*
X0215100Y0250781D01*
X0212700Y0266409D02*
X0212700Y0282517D01*
X0213785Y0283603D02*
X0250161Y0283603D01*
X0248700Y0282142D02*
X0248700Y0309299D01*
X0251100Y0309299D02*
X0251100Y0305894D01*
X0250409Y0305203D02*
X0235385Y0305203D01*
X0234300Y0304117D02*
X0234300Y0267742D01*
X0235761Y0269203D02*
X0176058Y0269203D01*
X0167100Y0266267D02*
X0167100Y0265728D01*
X0166439Y0264403D02*
X0145321Y0264403D01*
X0145500Y0266267D02*
X0145500Y0239356D01*
X0146547Y0240403D02*
X0126916Y0240403D01*
X0128700Y0241385D02*
X0128700Y0222556D01*
X0129747Y0223603D02*
X0126916Y0223603D01*
X0126916Y0226003D02*
X0132147Y0226003D01*
X0131100Y0224956D02*
X0131100Y0242208D01*
X0131443Y0242803D02*
X0148947Y0242803D01*
X0147900Y0241756D02*
X0147900Y0254791D01*
X0147888Y0254803D02*
X0126916Y0254803D01*
X0126916Y0252403D02*
X0149116Y0252403D01*
X0150300Y0251228D02*
X0150300Y0244156D01*
X0151347Y0245203D02*
X0130441Y0245203D01*
X0131100Y0244544D02*
X0131100Y0246145D01*
X0128464Y0245203D02*
X0126916Y0245203D01*
X0126916Y0247603D02*
X0127462Y0247603D01*
X0127462Y0242803D02*
X0126916Y0242803D01*
X0120572Y0242803D02*
X0119042Y0242803D01*
X0119042Y0245203D02*
X0120572Y0245203D01*
X0120572Y0247603D02*
X0119042Y0247603D01*
X0119042Y0250003D02*
X0120572Y0250003D01*
X0120572Y0252403D02*
X0119042Y0252403D01*
X0119100Y0253437D02*
X0119100Y0216633D01*
X0119042Y0218803D02*
X0120572Y0218803D01*
X0120572Y0221203D02*
X0119042Y0221203D01*
X0119042Y0223603D02*
X0120572Y0223603D01*
X0120572Y0226003D02*
X0119042Y0226003D01*
X0119042Y0228403D02*
X0120572Y0228403D01*
X0120572Y0230803D02*
X0119042Y0230803D01*
X0119042Y0233203D02*
X0120572Y0233203D01*
X0120572Y0235603D02*
X0119042Y0235603D01*
X0119042Y0238003D02*
X0120572Y0238003D01*
X0120572Y0240403D02*
X0119042Y0240403D01*
X0116242Y0240403D02*
X0115105Y0240403D01*
X0115105Y0242803D02*
X0116242Y0242803D01*
X0116242Y0245203D02*
X0115105Y0245203D01*
X0115105Y0247603D02*
X0116242Y0247603D01*
X0116242Y0250003D02*
X0115105Y0250003D01*
X0115105Y0252403D02*
X0116242Y0252403D01*
X0115651Y0254803D02*
X0115105Y0254803D01*
X0109500Y0266267D02*
X0109500Y0210710D01*
X0110393Y0211603D02*
X0055193Y0211603D01*
X0055193Y0209203D02*
X0107993Y0209203D01*
X0107100Y0208310D02*
X0107100Y0266267D01*
X0107100Y0270367D02*
X0107100Y0297828D01*
X0106925Y0298003D02*
X0102295Y0298003D01*
X0102300Y0298007D02*
X0102300Y0270367D01*
X0099900Y0270367D02*
X0099900Y0296974D01*
X0097500Y0297428D02*
X0097500Y0270367D01*
X0104700Y0270367D02*
X0104700Y0318163D01*
X0107100Y0318163D02*
X0107100Y0314121D01*
X0107782Y0314803D02*
X0102146Y0314803D01*
X0102300Y0314649D02*
X0102300Y0318163D01*
X0099900Y0318163D02*
X0099900Y0311474D01*
X0100110Y0311474D02*
X0099110Y0311474D01*
X0099110Y0310474D01*
X0100110Y0310474D01*
X0100110Y0306474D01*
X0101474Y0306474D01*
X0104110Y0309110D01*
X0104110Y0310474D01*
X0100110Y0310474D01*
X0100110Y0311474D01*
X0104110Y0311474D01*
X0104110Y0312838D01*
X0101474Y0315474D01*
X0100110Y0315474D01*
X0100110Y0311474D01*
X0100110Y0312403D02*
X0099110Y0312403D01*
X0099110Y0311474D02*
X0099110Y0315474D01*
X0097746Y0315474D01*
X0095110Y0312838D01*
X0095110Y0311474D01*
X0099110Y0311474D01*
X0099110Y0310474D02*
X0095110Y0310474D01*
X0095110Y0309110D01*
X0097746Y0306474D01*
X0099110Y0306474D01*
X0099110Y0310474D01*
X0099110Y0310003D02*
X0100110Y0310003D01*
X0099900Y0310474D02*
X0099900Y0304974D01*
X0097500Y0304521D02*
X0097500Y0306721D01*
X0096618Y0307603D02*
X0055193Y0307603D01*
X0055193Y0310003D02*
X0095110Y0310003D01*
X0095110Y0312403D02*
X0054233Y0312403D01*
X0054300Y0312241D02*
X0054300Y0318163D01*
X0053240Y0302803D02*
X0095782Y0302803D01*
X0099110Y0307603D02*
X0100110Y0307603D01*
X0102300Y0307300D02*
X0102300Y0303941D01*
X0103439Y0302803D02*
X0105782Y0302803D01*
X0105610Y0302631D02*
X0105610Y0299318D01*
X0107953Y0296974D01*
X0111267Y0296974D01*
X0113610Y0299318D01*
X0113610Y0302631D01*
X0111267Y0304974D01*
X0107953Y0304974D01*
X0105610Y0302631D01*
X0107100Y0304121D02*
X0107100Y0307828D01*
X0107325Y0307603D02*
X0102603Y0307603D01*
X0104110Y0310003D02*
X0105610Y0310003D01*
X0105610Y0309318D02*
X0107953Y0306974D01*
X0111267Y0306974D01*
X0113610Y0309318D01*
X0113610Y0312631D01*
X0111267Y0314974D01*
X0107953Y0314974D01*
X0105610Y0312631D01*
X0105610Y0309318D01*
X0105610Y0312403D02*
X0104110Y0312403D01*
X0102300Y0311474D02*
X0102300Y0310474D01*
X0097500Y0310474D02*
X0097500Y0311474D01*
X0099110Y0314803D02*
X0100110Y0314803D01*
X0109500Y0314974D02*
X0109500Y0318163D01*
X0113610Y0312403D02*
X0115110Y0312403D01*
X0116700Y0311474D02*
X0116700Y0310474D01*
X0115110Y0310474D02*
X0115110Y0309110D01*
X0117746Y0306474D01*
X0119110Y0306474D01*
X0119110Y0310474D01*
X0115110Y0310474D01*
X0115110Y0310003D02*
X0113610Y0310003D01*
X0111900Y0307607D02*
X0111900Y0304341D01*
X0113439Y0302803D02*
X0115782Y0302803D01*
X0115610Y0302631D02*
X0115610Y0299318D01*
X0117953Y0296974D01*
X0121267Y0296974D01*
X0123610Y0299318D01*
X0123610Y0302631D01*
X0121267Y0304974D01*
X0117953Y0304974D01*
X0115610Y0302631D01*
X0116700Y0303721D02*
X0116700Y0307521D01*
X0116618Y0307603D02*
X0111895Y0307603D01*
X0109500Y0306974D02*
X0109500Y0304974D01*
X0105610Y0300403D02*
X0103610Y0300403D01*
X0109500Y0296974D02*
X0109500Y0270367D01*
X0119100Y0270367D02*
X0119100Y0296974D01*
X0121500Y0297207D02*
X0121500Y0270367D01*
X0123900Y0270367D02*
X0123900Y0308900D01*
X0124110Y0310003D02*
X0125110Y0310003D01*
X0126300Y0310474D02*
X0126300Y0311474D01*
X0123900Y0311474D02*
X0123900Y0310474D01*
X0121500Y0310474D02*
X0121500Y0311474D01*
X0120110Y0312403D02*
X0119110Y0312403D01*
X0119100Y0311474D02*
X0119100Y0310474D01*
X0119110Y0310003D02*
X0120110Y0310003D01*
X0120110Y0307603D02*
X0119110Y0307603D01*
X0119100Y0306474D02*
X0119100Y0304974D01*
X0121500Y0304741D02*
X0121500Y0306500D01*
X0122603Y0307603D02*
X0126618Y0307603D01*
X0126300Y0307921D02*
X0126300Y0303321D01*
X0125782Y0302803D02*
X0123439Y0302803D01*
X0123610Y0300403D02*
X0125610Y0300403D01*
X0126300Y0298628D02*
X0126300Y0270367D01*
X0128700Y0270367D02*
X0128700Y0296974D01*
X0126925Y0298003D02*
X0122295Y0298003D01*
X0115610Y0300403D02*
X0113610Y0300403D01*
X0128700Y0304974D02*
X0128700Y0306474D01*
X0129110Y0307603D02*
X0130110Y0307603D01*
X0131100Y0306474D02*
X0131100Y0304974D01*
X0132295Y0298003D02*
X0136925Y0298003D01*
X0138300Y0296974D02*
X0138300Y0286163D01*
X0135900Y0286497D02*
X0135900Y0293071D01*
X0136032Y0293203D02*
X0168312Y0293203D01*
X0169500Y0293989D02*
X0169500Y0318163D01*
X0167100Y0318163D02*
X0167100Y0280090D01*
X0165498Y0281203D02*
X0169194Y0281203D01*
X0169500Y0281908D02*
X0169500Y0289614D01*
X0167909Y0290803D02*
X0003500Y0290803D01*
X0003500Y0293203D02*
X0133110Y0293203D01*
X0133500Y0292813D02*
X0133500Y0270367D01*
X0131100Y0270367D02*
X0131100Y0296974D01*
X0127075Y0314803D02*
X0122146Y0314803D01*
X0164700Y0318163D02*
X0164700Y0282482D01*
X0164700Y0266267D02*
X0164700Y0258556D01*
X0143100Y0262941D02*
X0143100Y0236956D01*
X0144147Y0238003D02*
X0126916Y0238003D01*
X0126916Y0235603D02*
X0141747Y0235603D01*
X0140700Y0234556D02*
X0140700Y0263480D01*
X0116242Y0238003D02*
X0115105Y0238003D01*
X0115105Y0235603D02*
X0116242Y0235603D01*
X0116242Y0233203D02*
X0115105Y0233203D01*
X0115105Y0230803D02*
X0116242Y0230803D01*
X0116242Y0228403D02*
X0115105Y0228403D01*
X0115105Y0226003D02*
X0116242Y0226003D01*
X0116242Y0223603D02*
X0115105Y0223603D01*
X0115105Y0221203D02*
X0116242Y0221203D01*
X0116242Y0218803D02*
X0115105Y0218803D01*
X0115105Y0216403D02*
X0116242Y0216403D01*
X0112305Y0216403D02*
X0052322Y0216403D01*
X0051900Y0216825D02*
X0051900Y0301463D01*
X0037500Y0318163D02*
X0037500Y0282171D01*
X0047100Y0269758D02*
X0047100Y0268648D01*
X0042547Y0264403D02*
X0003500Y0264403D01*
X0003500Y0257203D02*
X0033894Y0257203D01*
X0035100Y0256234D02*
X0035100Y0255124D01*
X0034541Y0254803D02*
X0003500Y0254803D01*
X0003500Y0247603D02*
X0034478Y0247603D01*
X0035100Y0247219D02*
X0035100Y0246108D01*
X0033957Y0245203D02*
X0003500Y0245203D01*
X0003500Y0238003D02*
X0042547Y0238003D01*
X0042955Y0235603D02*
X0003500Y0235603D01*
X0037500Y0255124D02*
X0037500Y0256234D01*
X0038459Y0254803D02*
X0042547Y0254803D01*
X0042547Y0257203D02*
X0039106Y0257203D01*
X0037500Y0264140D02*
X0037500Y0265250D01*
X0035100Y0265250D02*
X0035100Y0264140D01*
X0056700Y0273155D02*
X0056700Y0274266D01*
X0080700Y0266267D02*
X0080700Y0181910D01*
X0081593Y0182803D02*
X0074554Y0182803D01*
X0070179Y0182803D02*
X0049766Y0182803D01*
X0049500Y0182913D02*
X0049500Y0201765D01*
X0050075Y0202003D02*
X0100793Y0202003D01*
X0099900Y0201110D02*
X0099900Y0246098D01*
X0099116Y0247603D02*
X0059229Y0247603D01*
X0047100Y0201238D02*
X0047100Y0183376D01*
X0042300Y0182288D02*
X0042300Y0202262D01*
X0026154Y0149935D02*
X0026154Y0149935D01*
X0025500Y0149281D02*
X0025500Y0318163D01*
X0126916Y0228403D02*
X0134547Y0228403D01*
X0127347Y0221203D02*
X0126916Y0221203D01*
X0145321Y0217753D02*
X0145321Y0200385D01*
X0144098Y0199161D01*
X0114780Y0199161D01*
X0065484Y0149864D01*
X0105262Y0168403D02*
X0127360Y0168403D01*
X0126300Y0169463D02*
X0126300Y0121610D01*
X0123817Y0118003D02*
X0100915Y0118003D01*
X0118144Y0143629D02*
X0118144Y0143629D01*
X0168984Y0118003D02*
X0171622Y0118003D01*
X0171622Y0120403D02*
X0171384Y0120403D01*
X0171622Y0115603D02*
X0169435Y0115603D01*
X0123900Y0065855D02*
X0123900Y0007203D01*
X0126300Y0007203D02*
X0126300Y0063455D01*
X0126953Y0062803D02*
X0116098Y0062803D01*
X0116098Y0065203D02*
X0124553Y0065203D01*
X0128700Y0061055D02*
X0128700Y0007203D01*
X0111900Y0007203D02*
X0111900Y0056958D01*
X0109500Y0055964D02*
X0109500Y0007203D01*
X0107100Y0007203D02*
X0107100Y0055943D01*
X0104700Y0056543D02*
X0104700Y0007203D01*
X0115192Y0060403D02*
X0129353Y0060403D01*
X0132715Y0062803D02*
X0197056Y0062803D01*
X0231586Y0065203D02*
X0393201Y0065203D01*
X0393201Y0067603D02*
X0352201Y0067603D01*
X0351900Y0067478D02*
X0351900Y0051053D01*
X0354300Y0051053D02*
X0354300Y0068472D01*
X0356099Y0070003D02*
X0393201Y0070003D01*
X0393201Y0072403D02*
X0357740Y0072403D01*
X0356700Y0070604D02*
X0356700Y0051053D01*
X0359100Y0051053D02*
X0359100Y0102217D01*
X0356811Y0103603D02*
X0356443Y0103603D01*
X0356700Y0103714D02*
X0356700Y0081460D01*
X0356157Y0082003D02*
X0393201Y0082003D01*
X0393201Y0084403D02*
X0352341Y0084403D01*
X0351900Y0084585D02*
X0351900Y0097702D01*
X0353001Y0098803D02*
X0393201Y0098803D01*
X0393201Y0101203D02*
X0355401Y0101203D01*
X0354300Y0100102D02*
X0354300Y0083591D01*
X0349500Y0084725D02*
X0349500Y0095302D01*
X0350601Y0096403D02*
X0393201Y0096403D01*
X0393201Y0079603D02*
X0357764Y0079603D01*
X0358527Y0077203D02*
X0393201Y0077203D01*
X0393201Y0074803D02*
X0358527Y0074803D01*
X0347100Y0067755D02*
X0347100Y0007203D01*
X0353868Y0017203D02*
X0354868Y0017203D01*
X0360093Y0043603D02*
X0393201Y0043603D01*
X0393201Y0046003D02*
X0360093Y0046003D01*
X0360093Y0048403D02*
X0393201Y0048403D01*
X0393201Y0050803D02*
X0359757Y0050803D01*
X0393201Y0053203D02*
X0324132Y0053203D01*
X0324760Y0055603D02*
X0393201Y0055603D01*
X0393201Y0058003D02*
X0324760Y0058003D01*
X0323772Y0060403D02*
X0393201Y0060403D01*
X0393201Y0062803D02*
X0321763Y0062803D01*
X0320700Y0063595D02*
X0320700Y0090401D01*
X0318300Y0090401D02*
X0318300Y0064589D01*
X0315900Y0064667D02*
X0315900Y0090401D01*
X0313500Y0090401D02*
X0313500Y0064125D01*
X0323100Y0061466D02*
X0323100Y0090401D01*
X0325500Y0093201D02*
X0325500Y0102798D01*
X0326305Y0103603D02*
X0336811Y0103603D01*
X0335882Y0106003D02*
X0328705Y0106003D01*
X0327900Y0105198D02*
X0327900Y0093201D01*
X0306300Y0090401D02*
X0306300Y0007203D01*
X0303900Y0007203D02*
X0303900Y0090401D01*
X0301500Y0090401D02*
X0301500Y0007203D01*
X0275100Y0007203D02*
X0275100Y0091812D01*
X0270300Y0110524D02*
X0270300Y0115979D01*
X0289046Y0125203D02*
X0293158Y0125203D01*
X0294300Y0126345D02*
X0294300Y0158520D01*
X0293923Y0158803D02*
X0289046Y0158803D01*
X0289046Y0156403D02*
X0311124Y0156403D01*
X0311334Y0154003D02*
X0289046Y0154003D01*
X0286246Y0151603D02*
X0259396Y0151603D01*
X0255900Y0149547D02*
X0255900Y0148910D01*
X0268839Y0146803D02*
X0275044Y0146803D01*
X0289046Y0142003D02*
X0323334Y0142003D01*
X0323100Y0142237D02*
X0323100Y0118924D01*
X0320700Y0118398D02*
X0320700Y0126296D01*
X0320813Y0127603D02*
X0328209Y0127603D01*
X0328209Y0130003D02*
X0322183Y0130003D01*
X0320700Y0129082D02*
X0320700Y0128172D01*
X0318300Y0129225D02*
X0318300Y0129771D01*
X0315900Y0129771D02*
X0315900Y0127256D01*
X0316832Y0127603D02*
X0299518Y0127603D01*
X0299100Y0127185D02*
X0299100Y0118398D01*
X0301500Y0118398D02*
X0301500Y0129585D01*
X0303900Y0129771D02*
X0303900Y0118398D01*
X0306300Y0118398D02*
X0306300Y0129771D01*
X0308700Y0129771D02*
X0308700Y0118398D01*
X0311100Y0118398D02*
X0311100Y0129771D01*
X0318451Y0125203D02*
X0328209Y0125203D01*
X0328538Y0120403D02*
X0329509Y0120403D01*
X0333609Y0120403D02*
X0338043Y0120403D01*
X0337500Y0120946D02*
X0337500Y0118441D01*
X0337062Y0118003D02*
X0333609Y0118003D01*
X0333609Y0115603D02*
X0335882Y0115603D01*
X0336227Y0113203D02*
X0333609Y0113203D01*
X0339900Y0119138D02*
X0339900Y0120248D01*
X0343787Y0122803D02*
X0347354Y0122803D01*
X0349500Y0123646D02*
X0349500Y0124756D01*
X0351900Y0125184D02*
X0351900Y0123218D01*
X0352315Y0122803D02*
X0355882Y0122803D01*
X0355882Y0125203D02*
X0351918Y0125203D01*
X0353787Y0120403D02*
X0354056Y0120403D01*
X0351900Y0116169D02*
X0351900Y0114202D01*
X0352899Y0113203D02*
X0353643Y0113203D01*
X0353643Y0115603D02*
X0343787Y0115603D01*
X0349500Y0115740D02*
X0349500Y0114630D01*
X0359100Y0111233D02*
X0359100Y0110122D01*
X0361500Y0110094D02*
X0361500Y0111261D01*
X0363442Y0113203D02*
X0393201Y0113203D01*
X0393201Y0115603D02*
X0363787Y0115603D01*
X0345882Y0127603D02*
X0342023Y0127603D01*
X0341679Y0128764D02*
X0340319Y0128764D01*
X0340319Y0132733D01*
X0340319Y0133701D01*
X0339350Y0133701D01*
X0339350Y0132733D01*
X0335382Y0132733D01*
X0335382Y0131372D01*
X0337990Y0128764D01*
X0339350Y0128764D01*
X0339350Y0132733D01*
X0340319Y0132733D01*
X0344287Y0132733D01*
X0344287Y0131372D01*
X0341679Y0128764D01*
X0340319Y0130003D02*
X0339350Y0130003D01*
X0339900Y0128154D02*
X0339900Y0132733D01*
X0340319Y0132403D02*
X0339350Y0132403D01*
X0339350Y0133701D02*
X0335382Y0133701D01*
X0335382Y0135061D01*
X0337990Y0137670D01*
X0339350Y0137670D01*
X0339350Y0133701D01*
X0339900Y0133701D02*
X0339900Y0138280D01*
X0340319Y0137203D02*
X0339350Y0137203D01*
X0337523Y0137203D02*
X0333609Y0137203D01*
X0333609Y0139603D02*
X0336874Y0139603D01*
X0337500Y0138977D02*
X0337500Y0137180D01*
X0339350Y0134803D02*
X0340319Y0134803D01*
X0342300Y0133701D02*
X0342300Y0132733D01*
X0344287Y0132403D02*
X0347938Y0132403D01*
X0349500Y0132662D02*
X0349500Y0133772D01*
X0351900Y0141249D02*
X0351900Y0143216D01*
X0349500Y0142788D02*
X0349500Y0141677D01*
X0337500Y0133701D02*
X0337500Y0132733D01*
X0335382Y0132403D02*
X0333609Y0132403D01*
X0333609Y0134803D02*
X0335382Y0134803D01*
X0336751Y0130003D02*
X0333609Y0130003D01*
X0333609Y0127603D02*
X0337646Y0127603D01*
X0337500Y0127457D02*
X0337500Y0129254D01*
X0335882Y0125203D02*
X0333609Y0125203D01*
X0333609Y0122803D02*
X0335882Y0122803D01*
X0324554Y0116418D02*
X0324554Y0116418D01*
X0318300Y0118398D02*
X0318300Y0124290D01*
X0299100Y0131145D02*
X0299100Y0156659D01*
X0296700Y0157285D02*
X0296700Y0128745D01*
X0295558Y0127603D02*
X0289046Y0127603D01*
X0289046Y0130003D02*
X0297958Y0130003D01*
X0330762Y0146803D02*
X0330809Y0146803D01*
X0333609Y0142003D02*
X0335882Y0142003D01*
X0333609Y0173203D02*
X0341142Y0173203D01*
X0341142Y0175603D02*
X0333609Y0175603D01*
X0311124Y0173203D02*
X0309422Y0173203D01*
X0310557Y0170803D02*
X0311124Y0170803D01*
X0293481Y0175603D02*
X0286567Y0175603D01*
X0284665Y0173203D02*
X0261483Y0173203D01*
X0270406Y0168403D02*
X0250390Y0168403D01*
X0249371Y0166003D02*
X0271424Y0166003D01*
X0284700Y0163663D02*
X0284700Y0173168D01*
X0284760Y0163603D02*
X0286246Y0163603D01*
X0231900Y0098281D02*
X0231900Y0064888D01*
X0263100Y0014561D02*
X0263100Y0007203D01*
X0110144Y0079603D02*
X0090105Y0079603D01*
X0090487Y0074803D02*
X0066984Y0074803D01*
X0066984Y0084403D02*
X0105353Y0084403D01*
X0105210Y0084545D02*
X0105210Y0084545D01*
X0104700Y0085055D02*
X0104700Y0071941D01*
X0038630Y0079603D02*
X0032034Y0079603D01*
X0116700Y0187722D02*
X0116700Y0197661D01*
X0119100Y0197661D02*
X0119100Y0187722D01*
X0121500Y0187722D02*
X0121500Y0197661D01*
X0123900Y0197661D02*
X0123900Y0187722D01*
X0126300Y0187722D02*
X0126300Y0197661D01*
X0128700Y0197661D02*
X0128700Y0187722D01*
X0131100Y0187722D02*
X0131100Y0197661D01*
X0133500Y0197661D02*
X0133500Y0188563D01*
X0176922Y0185203D02*
X0177659Y0185203D01*
X0241500Y0242315D02*
X0241500Y0247781D01*
X0236700Y0270142D02*
X0236700Y0306517D01*
X0237785Y0307603D02*
X0252956Y0307603D01*
X0253500Y0307828D02*
X0253500Y0309299D01*
X0255900Y0309299D02*
X0255900Y0308762D01*
X0258300Y0308762D02*
X0258300Y0309299D01*
X0260700Y0309299D02*
X0260700Y0308081D01*
X0249441Y0298003D02*
X0228185Y0298003D01*
X0211385Y0281203D02*
X0247761Y0281203D01*
X0258300Y0291742D02*
X0258300Y0292163D01*
X0210300Y0280117D02*
X0210300Y0266409D01*
X0356207Y0250003D02*
X0361680Y0250003D01*
X0361500Y0250183D02*
X0361500Y0246539D01*
X0363900Y0246861D02*
X0363900Y0249861D01*
X0365238Y0250003D02*
X0370966Y0250003D01*
X0370966Y0252403D02*
X0367412Y0252403D01*
X0366300Y0251065D02*
X0366300Y0245658D01*
X0366755Y0245203D02*
X0370966Y0245203D01*
X0370966Y0247603D02*
X0356231Y0247603D01*
X0354901Y0240403D02*
X0360375Y0240403D01*
X0367412Y0242803D02*
X0370966Y0242803D01*
D21*
X0277091Y0249281D03*
X0277091Y0229596D03*
X0245594Y0233533D03*
X0242445Y0240445D03*
X0227484Y0246526D03*
X0224335Y0246919D03*
X0198350Y0237077D03*
X0201106Y0215423D03*
X0203075Y0211880D03*
X0198350Y0205974D03*
X0198350Y0202037D03*
X0206224Y0191014D03*
X0210161Y0191014D03*
X0216067Y0191014D03*
X0221972Y0191014D03*
X0229059Y0191407D03*
X0232194Y0191407D03*
X0235358Y0191407D03*
X0241657Y0205974D03*
X0234571Y0214636D03*
X0236539Y0219360D03*
X0227878Y0218573D03*
X0168429Y0264242D03*
X0151106Y0253219D03*
X0149531Y0255974D03*
X0129453Y0247313D03*
X0129453Y0243376D03*
X0121972Y0256762D03*
X0117642Y0254793D03*
X0113705Y0261093D03*
X0125516Y0261093D03*
X0136933Y0281959D03*
X0136933Y0284715D03*
X0144413Y0281171D03*
X0151106Y0280778D03*
X0171185Y0280778D03*
X0174335Y0282746D03*
X0134571Y0294557D03*
X0101106Y0247707D03*
X0137720Y0223691D03*
X0137327Y0219754D03*
X0137327Y0215817D03*
X0137327Y0211880D03*
X0112524Y0148888D03*
X0115673Y0146919D03*
X0107799Y0139045D03*
X0105437Y0141801D03*
X0088114Y0079990D03*
X0092051Y0076053D03*
X0043232Y0046526D03*
X0034965Y0064242D03*
X0025122Y0064242D03*
X0017248Y0046526D03*
X0251500Y0146919D03*
X0255437Y0146919D03*
X0259374Y0146919D03*
X0257406Y0150856D03*
X0253469Y0150856D03*
X0316461Y0125266D03*
X0318823Y0127234D03*
X0277091Y0272904D03*
X0277091Y0296526D03*
D22*
X0232996Y0203042D02*
X0232996Y0202311D01*
X0230907Y0200222D01*
X0230907Y0198374D01*
X0229059Y0196526D01*
X0229059Y0191407D01*
X0232194Y0191407D02*
X0232209Y0191407D01*
X0232194Y0191407D02*
X0232194Y0199689D01*
X0233356Y0200850D01*
X0236139Y0200850D01*
X0236146Y0200856D01*
X0234177Y0198867D02*
X0235358Y0197686D01*
X0235358Y0191407D01*
X0143232Y0203612D02*
X0143232Y0206368D01*
X0225909Y0099675D02*
X0221972Y0095738D01*
X0221972Y0085757D01*
X0216742Y0080526D01*
X0216742Y0080517D01*
X0193880Y0057656D01*
X0135892Y0057656D01*
X0113030Y0080517D01*
X0113030Y0081500D01*
X0109408Y0085122D01*
X0106604Y0085122D01*
X0095988Y0095738D01*
X0111736Y0079990D02*
X0135358Y0056368D01*
X0194413Y0056368D01*
X0218035Y0079990D01*
X0225909Y0099675D02*
X0237720Y0099675D01*
D23*
X0269610Y0118179D02*
X0276697Y0125266D01*
X0276697Y0145344D01*
D24*
X0301106Y0131171D02*
X0277484Y0107549D01*
X0261343Y0107549D01*
X0257406Y0103612D01*
X0273154Y0101644D02*
X0277759Y0106249D01*
X0278023Y0106249D01*
X0288772Y0116998D01*
X0323154Y0116998D01*
X0329609Y0123453D01*
X0329609Y0137708D01*
X0312524Y0154793D01*
X0312524Y0195738D01*
X0303075Y0205187D01*
X0303075Y0306762D01*
X0299138Y0310699D01*
X0238902Y0310699D01*
X0206893Y0278690D01*
X0159099Y0278690D01*
X0157012Y0280778D01*
X0169278Y0267667D02*
X0058036Y0267667D01*
X0056500Y0269203D01*
X0056500Y0278219D02*
X0063508Y0278219D01*
X0072760Y0268967D01*
X0170791Y0268967D01*
X0169278Y0267667D02*
X0169967Y0266978D01*
X0171615Y0266978D01*
X0173969Y0269332D01*
X0173969Y0269332D01*
X0174335Y0266211D02*
X0056654Y0148530D01*
X0056654Y0144545D01*
X0060506Y0142949D02*
X0056654Y0139096D01*
X0056654Y0135529D01*
X0058250Y0131676D02*
X0061807Y0135233D01*
X0061807Y0150006D01*
X0120661Y0208860D01*
X0140740Y0208860D01*
X0143232Y0206368D01*
X0138902Y0203612D02*
X0134953Y0207560D01*
X0121200Y0207560D01*
X0063107Y0149467D01*
X0063107Y0134695D01*
X0058788Y0130376D01*
X0050866Y0130376D01*
X0050221Y0131021D01*
X0046654Y0131021D01*
X0055058Y0131676D02*
X0046697Y0140037D01*
X0046654Y0140037D01*
X0055058Y0131676D02*
X0058250Y0131676D01*
X0060506Y0142949D02*
X0060506Y0150544D01*
X0174184Y0264222D01*
X0175159Y0264222D01*
X0177935Y0266998D01*
X0179059Y0266998D01*
X0164556Y0238967D02*
X0200635Y0238967D01*
X0200713Y0239045D01*
X0231421Y0251172D02*
X0277874Y0251172D01*
X0278981Y0250065D01*
X0278981Y0248498D01*
X0276459Y0245976D01*
X0276459Y0239479D01*
X0277209Y0238729D01*
X0277209Y0232151D01*
X0285167Y0224194D01*
X0285167Y0174681D01*
X0287646Y0172202D01*
X0287646Y0123857D01*
X0284965Y0121176D01*
X0284965Y0119360D01*
X0274728Y0109124D01*
X0233783Y0109124D01*
X0237720Y0099675D02*
X0241657Y0095738D01*
X0225909Y0095738D02*
X0225909Y0087864D01*
X0218035Y0079990D01*
X0273154Y0095738D02*
X0277091Y0091801D01*
X0344020Y0091801D01*
X0355043Y0102825D01*
X0355043Y0119410D01*
X0359834Y0124201D01*
X0332209Y0111486D02*
X0332209Y0202431D01*
X0350319Y0220541D01*
X0364886Y0220541D01*
X0372366Y0228022D01*
X0372366Y0255813D01*
X0363459Y0264719D01*
X0315673Y0159911D02*
X0330909Y0144676D01*
X0330909Y0112025D01*
X0320528Y0101644D01*
X0292839Y0101644D01*
X0288902Y0095738D02*
X0316461Y0095738D01*
X0332209Y0111486D01*
X0320398Y0131171D02*
X0301106Y0131171D01*
X0164556Y0238967D02*
X0163059Y0237470D01*
X0162917Y0237470D01*
X0125516Y0219230D02*
X0056093Y0149807D01*
X0033522Y0149807D01*
X0030634Y0146919D01*
X0030634Y0078415D01*
X0044807Y0064242D01*
X0044807Y0048100D01*
X0043232Y0046526D01*
X0034965Y0064242D02*
X0029334Y0069873D01*
X0029334Y0147458D01*
X0032222Y0150346D01*
X0032983Y0151107D01*
X0055554Y0151107D01*
X0121972Y0217525D01*
X0121972Y0256762D01*
X0117642Y0254793D02*
X0117642Y0215033D01*
X0055016Y0152407D01*
X0032445Y0152407D01*
X0028034Y0147996D01*
X0028034Y0067154D01*
X0025122Y0064242D01*
X0026734Y0068610D02*
X0026734Y0148535D01*
X0031906Y0153707D01*
X0054477Y0153707D01*
X0113705Y0212935D01*
X0113705Y0261093D01*
X0125516Y0261093D02*
X0125516Y0219230D01*
X0103862Y0170541D02*
X0103862Y0161404D01*
X0117564Y0147702D01*
X0117564Y0145029D01*
X0099769Y0127234D01*
X0092051Y0127234D01*
X0088114Y0123297D01*
X0088114Y0103612D01*
X0095988Y0095738D01*
X0108587Y0083140D02*
X0111736Y0079990D01*
X0026734Y0068610D02*
X0017248Y0059124D01*
X0017248Y0046526D01*
X0032222Y0150346D02*
X0032222Y0150346D01*
D25*
X0220791Y0040226D03*
X0296776Y0068179D03*
X0266067Y0146526D03*
D26*
X0271547Y0221722D02*
X0268033Y0225237D01*
X0262526Y0225237D01*
X0259012Y0221722D01*
X0205687Y0221722D01*
X0201428Y0225981D01*
X0199119Y0228290D01*
X0181127Y0228290D01*
X0175759Y0233659D01*
X0173698Y0233659D01*
X0173573Y0233533D01*
X0170791Y0233533D01*
X0147121Y0209863D01*
X0147121Y0199639D01*
X0133405Y0185922D01*
X0115726Y0185922D01*
X0088114Y0158311D01*
X0088114Y0131171D01*
X0084177Y0127234D01*
X0084177Y0119360D01*
X0175122Y0108337D02*
X0175122Y0135108D01*
X0175122Y0201644D01*
X0271547Y0221722D02*
X0273154Y0221722D01*
D27*
X0245594Y0254793D02*
X0258193Y0267392D01*
X0174728Y0231171D02*
X0174728Y0213795D01*
X0164251Y0203317D01*
X0164251Y0197904D01*
X0173222Y0188933D01*
X0173222Y0136752D01*
X0171972Y0135502D01*
X0171972Y0126841D01*
X0169685Y0125893D02*
X0173222Y0122356D01*
X0173222Y0112736D01*
X0171972Y0111486D01*
X0167248Y0119360D02*
X0167248Y0130778D01*
X0115673Y0182352D01*
X0162551Y0197199D02*
X0171522Y0188229D01*
X0171522Y0137456D01*
X0169685Y0135619D01*
X0169685Y0125893D01*
X0162551Y0197199D02*
X0162551Y0204022D01*
X0170791Y0212262D01*
X0170791Y0225659D01*
M02*
