G75*
%MOIN*%
%OFA0B0*%
%FSLAX25Y25*%
%IPPOS*%
%LPD*%
%AMOC8*
5,1,8,0,0,1.08239X$1,22.5*
%
%ADD10C,0.13098*%
%ADD11C,0.04437*%
%ADD12OC8,0.06406*%
%ADD13C,0.13886*%
%ADD14C,0.12508*%
%ADD15R,0.09949X0.09949*%
%ADD16OC8,0.06500*%
%ADD17R,0.04929X0.04929*%
%ADD18R,0.05224X0.05224*%
%ADD19OC8,0.09000*%
%ADD20C,0.02469*%
%ADD21R,0.05520X0.05520*%
%ADD22C,0.02678*%
%ADD23C,0.02875*%
%ADD24C,0.02481*%
%ADD25C,0.04043*%
D10*
X0107799Y0064242D03*
X0190398Y0097352D03*
X0300398Y0167352D03*
X0316461Y0056368D03*
X0257406Y0300463D03*
D11*
X0024335Y0023297D03*
X0041657Y0023297D03*
X0078830Y0023544D03*
X0096152Y0023544D03*
D12*
X0046654Y0103974D03*
X0036654Y0108482D03*
X0046654Y0112990D03*
X0046654Y0122005D03*
X0036654Y0117498D03*
X0036654Y0126513D03*
X0046654Y0131021D03*
X0036654Y0135529D03*
X0036654Y0144545D03*
X0046654Y0140037D03*
X0056654Y0144545D03*
X0056654Y0135529D03*
X0056654Y0126513D03*
X0056654Y0117498D03*
X0056654Y0108482D03*
X0046500Y0237648D03*
X0036500Y0242156D03*
X0046500Y0246663D03*
X0036500Y0251171D03*
X0036500Y0260187D03*
X0046500Y0255679D03*
X0046500Y0264695D03*
X0036500Y0269203D03*
X0046500Y0273711D03*
X0036500Y0278219D03*
X0056500Y0278219D03*
X0056500Y0269203D03*
X0056500Y0260187D03*
X0056500Y0251171D03*
X0056500Y0242156D03*
X0339834Y0142233D03*
X0339834Y0133217D03*
X0339834Y0124201D03*
X0339834Y0115185D03*
X0339834Y0106170D03*
X0349834Y0110677D03*
X0359834Y0106170D03*
X0359834Y0115185D03*
X0349834Y0119693D03*
X0359834Y0124201D03*
X0349834Y0128709D03*
X0349834Y0137725D03*
X0359834Y0142233D03*
X0349834Y0146740D03*
X0359834Y0133217D03*
X0352278Y0237436D03*
X0363459Y0242908D03*
X0363459Y0253814D03*
X0352278Y0259247D03*
X0352278Y0248341D03*
X0363459Y0264719D03*
X0363459Y0275625D03*
X0352278Y0281058D03*
X0352278Y0270153D03*
D13*
X0349834Y0174457D03*
X0349834Y0076032D03*
X0046654Y0076257D03*
X0046654Y0174683D03*
X0046500Y0209931D03*
X0046500Y0308356D03*
D14*
X0357869Y0308460D03*
X0357869Y0210034D03*
D15*
X0354368Y0045328D03*
X0354368Y0020328D03*
D16*
X0139610Y0300974D03*
X0129610Y0300974D03*
X0119610Y0300974D03*
X0109610Y0300974D03*
X0099610Y0300974D03*
X0099610Y0310974D03*
X0109610Y0310974D03*
X0119610Y0310974D03*
X0129610Y0310974D03*
X0139610Y0310974D03*
D17*
X0265280Y0221722D03*
X0273154Y0221722D03*
X0273154Y0213848D03*
X0273154Y0205974D03*
X0265280Y0205974D03*
X0265280Y0213848D03*
D18*
X0255594Y0056368D03*
X0245594Y0056368D03*
X0235594Y0056368D03*
D19*
X0257406Y0016998D03*
D20*
X0247406Y0168258D03*
X0273390Y0168258D03*
D21*
X0127327Y0118100D03*
X0097406Y0118100D03*
D22*
X0084177Y0119360D03*
X0068429Y0099281D03*
X0108587Y0083140D03*
X0156224Y0038652D03*
X0151894Y0035502D03*
X0143232Y0031565D03*
X0134177Y0037864D03*
X0207746Y0056959D03*
X0209768Y0095738D03*
X0206224Y0107549D03*
X0225909Y0095738D03*
X0233783Y0109124D03*
X0241657Y0095738D03*
X0257406Y0103612D03*
X0273154Y0101644D03*
X0273154Y0095738D03*
X0288902Y0095738D03*
X0292839Y0101644D03*
X0320398Y0131171D03*
X0315673Y0159911D03*
X0260555Y0175648D03*
X0259394Y0173022D03*
X0255437Y0175659D03*
X0254650Y0178415D03*
X0252287Y0174478D03*
X0249531Y0172904D03*
X0234177Y0198867D03*
X0236146Y0200856D03*
X0232996Y0203042D03*
X0202287Y0176447D03*
X0202287Y0166604D03*
X0202287Y0157549D03*
X0202287Y0147707D03*
X0164865Y0183140D03*
X0158980Y0182352D03*
X0166440Y0198810D03*
X0166461Y0201644D03*
X0168035Y0204006D03*
X0171579Y0203612D03*
X0184177Y0197707D03*
X0186146Y0199696D03*
X0182996Y0194951D03*
X0143232Y0203612D03*
X0138902Y0203612D03*
X0103862Y0170541D03*
X0180634Y0246940D03*
X0183783Y0248929D03*
X0202287Y0246919D03*
X0210161Y0245344D03*
X0179059Y0266998D03*
X0174335Y0266211D03*
X0173969Y0269332D03*
X0170791Y0268967D03*
X0157012Y0280778D03*
X0143232Y0265030D03*
X0139295Y0265030D03*
X0340870Y0256987D03*
X0340870Y0243415D03*
X0340870Y0226339D03*
X0048744Y0052431D03*
D23*
X0070004Y0048494D03*
X0081815Y0048100D03*
X0021185Y0042982D03*
X0147563Y0016998D03*
X0197957Y0033927D03*
X0229846Y0063848D03*
X0243232Y0076841D03*
X0229846Y0107549D03*
X0233783Y0127234D03*
X0269217Y0127234D03*
X0269610Y0118179D03*
X0276697Y0145344D03*
X0279059Y0154793D03*
X0282602Y0162667D03*
X0340083Y0158730D03*
X0242839Y0224478D03*
X0202681Y0231171D03*
X0198744Y0230778D03*
X0201428Y0225981D03*
X0184177Y0211486D03*
X0181421Y0200069D03*
X0175122Y0201644D03*
X0185752Y0189045D03*
X0179846Y0184321D03*
X0195988Y0208337D03*
X0170791Y0225659D03*
X0174728Y0231171D03*
X0163311Y0280778D03*
X0170004Y0291801D03*
X0157799Y0296919D03*
X0145594Y0291801D03*
X0100713Y0233140D03*
X0072366Y0182352D03*
X0167248Y0119360D03*
X0170004Y0122116D03*
X0171972Y0126841D03*
X0175122Y0135108D03*
X0167248Y0115423D03*
X0171972Y0111486D03*
X0175122Y0108337D03*
X0165280Y0089045D03*
D24*
X0092051Y0076053D03*
X0088114Y0079990D03*
X0043232Y0046526D03*
X0034965Y0064242D03*
X0025122Y0064242D03*
X0017248Y0046526D03*
X0206224Y0191014D03*
X0210161Y0191014D03*
X0216067Y0191014D03*
X0221972Y0191014D03*
X0229059Y0191407D03*
X0232194Y0191407D03*
X0235358Y0191407D03*
X0241657Y0205974D03*
X0234571Y0214636D03*
X0236539Y0219360D03*
X0227878Y0218573D03*
X0203075Y0211880D03*
X0201106Y0215423D03*
X0198350Y0205974D03*
X0198350Y0202037D03*
X0198350Y0237077D03*
X0168429Y0264242D03*
X0151106Y0253219D03*
X0149531Y0255974D03*
X0129453Y0247313D03*
X0129453Y0243376D03*
X0121972Y0256762D03*
X0117642Y0254793D03*
X0113705Y0261093D03*
X0125516Y0261093D03*
X0144413Y0281171D03*
X0151106Y0280778D03*
X0171185Y0280778D03*
X0174335Y0282746D03*
X0134571Y0294557D03*
X0101106Y0247707D03*
X0137720Y0223691D03*
X0137327Y0219754D03*
X0137327Y0215817D03*
X0137327Y0211880D03*
X0253469Y0150856D03*
X0257406Y0150856D03*
X0259374Y0146919D03*
X0255437Y0146919D03*
X0251500Y0146919D03*
X0316461Y0125266D03*
X0318823Y0127234D03*
X0277091Y0296526D03*
D25*
X0266067Y0146526D03*
X0296776Y0068179D03*
X0220791Y0040226D03*
M02*
