%
M48
M72
T01C0.0118
T02C0.0138
T03C0.0157
T04C0.0177
T05C0.0197
T06C0.0236
T07C0.0295
T08C0.0315
T09C0.0335
T10C0.0394
T11C0.0400
T12C0.0630
T13C0.1201
T14C0.1260
T15C0.1339
%
T01
X1725Y4653
X2512Y6424
X3496Y6424
X4323Y4653
X8811Y7999
X9205Y7605
X10780Y13905
X10544Y14180
X11252Y14889
X11567Y14692
X13733Y21188
X13733Y21582
X13733Y21975
X13772Y22369
X12945Y24338
X12945Y24731
X12197Y25676
X11764Y25479
X11370Y26109
X12552Y26109
X13693Y28196
X13693Y28471
X14441Y28117
X15111Y28078
X17119Y28078
X17433Y28275
X16843Y26424
X15111Y25322
X14953Y25597
X13457Y29456
X10111Y24771
X19835Y23708
X20111Y21542
X20307Y21188
X19835Y20597
X19835Y20204
X20622Y19101
X21016Y19101
X21607Y19101
X22197Y19101
X22906Y19141
X23219Y19141
X23536Y19141
X24166Y20597
X23457Y21464
X23654Y21936
X22788Y21857
X24559Y23353
X24244Y24045
X22748Y24653
X22433Y24692
X27709Y24928
X27709Y22960
X27709Y27290
X27709Y29653
X25741Y15086
X25347Y15086
X25544Y14692
X25937Y14692
X25150Y14692
X31646Y12527
X31882Y12723
T02
X32040Y13117
X31567Y15991
X26056Y17565
X25939Y17302
X25544Y17566
X25465Y17842
X25229Y17448
X24953Y17290
X23418Y19887
X23615Y20086
X23300Y20304
X22748Y21268
X26292Y23314
X24559Y25479
X25819Y26739
X22670Y25595
X22438Y25239
X21843Y25202
X21016Y24534
X20229Y24692
X18378Y24893
X18063Y24694
X17433Y26621
X17397Y26933
X17079Y26897
X17906Y26700
X15701Y28078
X14323Y26503
X13930Y26503
X13890Y20361
X14323Y20361
X16646Y20164
X16644Y19881
X16804Y20401
X17158Y20361
X18418Y19771
X18615Y19970
X18300Y19495
X16487Y18314
X15898Y18235
X12000Y18353
X10386Y17054
X13654Y15007
X8418Y11936
X7985Y13826
X6843Y9928
X10859Y8314
X15622Y3865
X15189Y3550
X14323Y3156
X13418Y3786
X20775Y5696
X20977Y9574
X20622Y10755
X22591Y9574
X23378Y10912
X24166Y9574
X25741Y10361
X27315Y10164
X27315Y9574
X28890Y9574
X29284Y10164
X20229Y14771
X20229Y15755
X20229Y16660
X20229Y17645
X33615Y28590
X34087Y25699
X34087Y24342
X34087Y22634
X4874Y5243
T03
X7000Y4849
X8181Y4810
X2119Y4298
X7433Y14416
X7237Y18235
X11567Y18235
X10071Y22251
X10071Y23314
X8969Y22723
X8811Y28196
X7276Y28747
X14559Y29180
X15780Y29692
X17000Y29180
X16331Y28078
X19835Y28550
X23260Y24692
X24874Y23747
X24284Y22448
X27512Y23786
X26370Y25637
X20268Y23117
X19874Y23078
X20143Y22598
X18418Y21149
X18142Y20007
X17512Y20164
X18575Y18905
X17985Y18432
X19599Y20834
X17079Y22566
X17473Y23117
X26134Y18747
X26567Y18432
X28260Y16267
X27906Y15479
X27670Y14534
X26922Y12723
X26961Y11818
X23378Y12723
X22985Y10755
X24323Y7684
X22985Y6385
X19796Y3393
X14756Y1700
X16528Y8905
X17512Y10834
X17197Y11149
X16725Y11542
X16725Y11936
X17000Y12212
X17197Y12684
X17512Y13511
X34008Y15873
T04
X544Y912
X544Y7605
X544Y14298
X544Y18235
X544Y24928
X544Y31621
X6725Y31621
X19835Y31621
X26449Y31621
X32985Y31621
X39126Y31621
X39126Y24928
X39126Y18235
X39126Y14298
X39126Y7605
X39126Y912
X32985Y912
X26449Y912
X19835Y912
X13260Y912
X20819Y25991
T05
X24741Y16826
X27339Y16826
T06
X26607Y14653
X29678Y6818
X22079Y4023
T07
X26528Y20597
X27315Y20597
X27315Y21385
X26528Y21385
X26528Y22172
X27315Y22172
T08
X25559Y5637
X24559Y5637
X23559Y5637
T09
X12733Y11810
X9741Y11810
T10
X5665Y11750
X5665Y12651
X5665Y13553
X5665Y14454
X4665Y14004
X3665Y14454
X3665Y13553
X4665Y13102
X3665Y12651
X4665Y12201
X4665Y11299
X3665Y11750
X3665Y10848
X4665Y10397
X5665Y10848
X4166Y2330
X2433Y2330
X7883Y2354
X9615Y2354
X33983Y10617
X33983Y11519
X33983Y12420
X33983Y13322
X33983Y14223
X34983Y13772
X34983Y12871
X35983Y13322
X35983Y14223
X34983Y14674
X35983Y12420
X34983Y11969
X35983Y11519
X35983Y10617
X34983Y11068
X35228Y23744
X36346Y24291
X36346Y25381
X35228Y25925
X35228Y27015
X36346Y26472
X36346Y27562
X35228Y28106
X35228Y24834
X5650Y25117
X5650Y26019
X5650Y26920
X5650Y27822
X4650Y27371
X3650Y26920
X4650Y26469
X3650Y26019
X3650Y25117
X4650Y24666
X3650Y24216
X4650Y23765
X5650Y24216
X4650Y25568
X3650Y27822
T11
X9961Y30097
X10961Y30097
X11961Y30097
X12961Y30097
X13961Y30097
X13961Y31097
X12961Y31097
X11961Y31097
X10961Y31097
X9961Y31097
X25741Y1700
T12
X35437Y2033
X35437Y4533
T13
X35787Y21003
X35787Y30846
T14
X25741Y30046
X30040Y16735
X19040Y9735
X10780Y6424
X31646Y5637
T15
X34983Y7603
X34983Y17446
X4665Y17468
X4650Y20993
X4650Y30836
X4665Y7626
M30
