G75*
%MOIN*%
%OFA0B0*%
%FSLAX25Y25*%
%IPPOS*%
%LPD*%
%AMOC8*
5,1,8,0,0,1.08239X$1,22.5*
%
%ADD10C,0.13098*%
%ADD11R,0.08374X0.09949*%
%ADD12R,0.02469X0.09587*%
%ADD13C,0.04437*%
%ADD14R,0.01366X0.06406*%
%ADD15R,0.06406X0.01366*%
%ADD16R,0.03650X0.06406*%
%ADD17R,0.06012X0.07980*%
%ADD18R,0.07587X0.06012*%
%ADD19OC8,0.06406*%
%ADD20C,0.13886*%
%ADD21C,0.12508*%
%ADD22R,0.09949X0.09949*%
%ADD23R,0.04831X0.04437*%
%ADD24R,0.04437X0.04831*%
%ADD25R,0.06500X0.02900*%
%ADD26R,0.04437X0.02862*%
%ADD27R,0.03650X0.07193*%
%ADD28R,0.01484X0.02469*%
%ADD29R,0.02469X0.01484*%
%ADD30R,0.14673X0.14673*%
%ADD31R,0.06012X0.03256*%
%ADD32R,0.05224X0.04831*%
%ADD33OC8,0.06500*%
%ADD34R,0.04929X0.04929*%
%ADD35R,0.20500X0.07500*%
%ADD36R,0.03650X0.06012*%
%ADD37C,0.06375*%
%ADD38R,0.03937X0.06299*%
%ADD39R,0.05224X0.05224*%
%ADD40OC8,0.09000*%
%ADD41R,0.06406X0.05618*%
%ADD42R,0.04043X0.03256*%
%ADD43R,0.02862X0.04437*%
%ADD44R,0.03650X0.03256*%
%ADD45R,0.03256X0.03650*%
%ADD46R,0.08177X0.06406*%
%ADD47R,0.03256X0.04043*%
%ADD48R,0.04437X0.04437*%
%ADD49R,0.01484X0.02075*%
%ADD50C,0.02469*%
%ADD51R,0.02469X0.06406*%
%ADD52R,0.06012X0.04437*%
%ADD53R,0.02075X0.02469*%
%ADD54R,0.03937X0.02362*%
%ADD55R,0.06800X0.05100*%
%ADD56R,0.05520X0.05520*%
%ADD57R,0.07980X0.06012*%
%ADD58C,0.02678*%
%ADD59C,0.02875*%
%ADD60C,0.02481*%
%ADD61C,0.04043*%
D10*
X0107799Y0064242D03*
X0190398Y0097352D03*
X0300398Y0167352D03*
X0316461Y0056368D03*
X0257406Y0300463D03*
D11*
X0015673Y0011486D03*
X0015673Y0033140D03*
X0050319Y0033140D03*
X0070168Y0033387D03*
X0070168Y0011733D03*
X0050319Y0011486D03*
X0104814Y0011733D03*
X0104814Y0033387D03*
D12*
X0093790Y0035607D03*
X0090641Y0035607D03*
X0087491Y0035607D03*
X0084341Y0035607D03*
X0081192Y0035607D03*
X0039295Y0035360D03*
X0036146Y0035360D03*
X0032996Y0035360D03*
X0029846Y0035360D03*
X0026697Y0035360D03*
D13*
X0024335Y0023297D03*
X0041657Y0023297D03*
X0078830Y0023544D03*
X0096152Y0023544D03*
D14*
X0114029Y0189850D03*
X0115998Y0189850D03*
X0117966Y0189850D03*
X0119935Y0189850D03*
X0121903Y0189850D03*
X0123872Y0189850D03*
X0125840Y0189850D03*
X0127809Y0189850D03*
X0129777Y0189850D03*
X0131746Y0189850D03*
X0133714Y0189850D03*
X0135683Y0189850D03*
X0137651Y0189850D03*
X0139620Y0189850D03*
X0141588Y0189850D03*
X0143557Y0189850D03*
X0145525Y0189850D03*
X0147494Y0189850D03*
X0149462Y0189850D03*
X0151431Y0189850D03*
X0153399Y0189850D03*
X0155368Y0189850D03*
X0157336Y0189850D03*
X0159305Y0189850D03*
X0161273Y0189850D03*
X0163242Y0189850D03*
X0165210Y0189850D03*
X0167179Y0189850D03*
X0169147Y0189850D03*
X0171116Y0189850D03*
X0173084Y0189850D03*
X0175053Y0189850D03*
X0177021Y0189850D03*
X0178990Y0189850D03*
X0180958Y0189850D03*
X0182927Y0189850D03*
X0182927Y0274496D03*
X0180958Y0274496D03*
X0178990Y0274496D03*
X0177021Y0274496D03*
X0175053Y0274496D03*
X0173084Y0274496D03*
X0171116Y0274496D03*
X0169147Y0274496D03*
X0167179Y0274496D03*
X0165210Y0274496D03*
X0163242Y0274496D03*
X0161273Y0274496D03*
X0159305Y0274496D03*
X0157336Y0274496D03*
X0155368Y0274496D03*
X0153399Y0274496D03*
X0151431Y0274496D03*
X0149462Y0274496D03*
X0147494Y0274496D03*
X0145525Y0274496D03*
X0143557Y0274496D03*
X0141588Y0274496D03*
X0139620Y0274496D03*
X0137651Y0274496D03*
X0135683Y0274496D03*
X0133714Y0274496D03*
X0131746Y0274496D03*
X0129777Y0274496D03*
X0127809Y0274496D03*
X0125840Y0274496D03*
X0123872Y0274496D03*
X0121903Y0274496D03*
X0119935Y0274496D03*
X0117966Y0274496D03*
X0115998Y0274496D03*
X0114029Y0274496D03*
D15*
X0106155Y0266622D03*
X0106155Y0264653D03*
X0106155Y0262685D03*
X0106155Y0260716D03*
X0106155Y0258748D03*
X0106155Y0256779D03*
X0106155Y0254811D03*
X0106155Y0252842D03*
X0106155Y0250874D03*
X0106155Y0248905D03*
X0106155Y0246937D03*
X0106155Y0244968D03*
X0106155Y0243000D03*
X0106155Y0241031D03*
X0106155Y0239063D03*
X0106155Y0237094D03*
X0106155Y0235126D03*
X0106155Y0233157D03*
X0106155Y0231189D03*
X0106155Y0229220D03*
X0106155Y0227252D03*
X0106155Y0225283D03*
X0106155Y0223314D03*
X0106155Y0221346D03*
X0106155Y0219377D03*
X0106155Y0217409D03*
X0106155Y0215440D03*
X0106155Y0213472D03*
X0106155Y0211503D03*
X0106155Y0209535D03*
X0106155Y0207566D03*
X0106155Y0205598D03*
X0106155Y0203629D03*
X0106155Y0201661D03*
X0106155Y0199692D03*
X0106155Y0197724D03*
X0190801Y0197724D03*
X0190801Y0199692D03*
X0190801Y0201661D03*
X0190801Y0203629D03*
X0190801Y0205598D03*
X0190801Y0207566D03*
X0190801Y0209535D03*
X0190801Y0211503D03*
X0190801Y0213472D03*
X0190801Y0215440D03*
X0190801Y0217409D03*
X0190801Y0219377D03*
X0190801Y0221346D03*
X0190801Y0223314D03*
X0190801Y0225283D03*
X0190801Y0227252D03*
X0190801Y0229220D03*
X0190801Y0231189D03*
X0190801Y0233157D03*
X0190801Y0235126D03*
X0190801Y0237094D03*
X0190801Y0239063D03*
X0190801Y0241031D03*
X0190801Y0243000D03*
X0190801Y0244968D03*
X0190801Y0246937D03*
X0190801Y0248905D03*
X0190801Y0250874D03*
X0190801Y0252842D03*
X0190801Y0254811D03*
X0190801Y0256779D03*
X0190801Y0258748D03*
X0190801Y0260716D03*
X0190801Y0262685D03*
X0190801Y0264653D03*
X0190801Y0266622D03*
D16*
X0156188Y0027987D03*
X0160519Y0026412D03*
X0151857Y0026412D03*
X0147526Y0025625D03*
X0143196Y0026412D03*
X0138865Y0025625D03*
X0134534Y0026412D03*
X0130204Y0026412D03*
D17*
X0127093Y0015192D03*
X0178865Y0011255D03*
D18*
X0155834Y0066373D03*
X0133393Y0066373D03*
D19*
X0056654Y0108482D03*
X0056654Y0117498D03*
X0056654Y0126513D03*
X0056654Y0135529D03*
X0056654Y0144545D03*
X0046654Y0140037D03*
X0036654Y0144545D03*
X0036654Y0135529D03*
X0046654Y0131021D03*
X0036654Y0126513D03*
X0046654Y0122005D03*
X0046654Y0112990D03*
X0036654Y0117498D03*
X0036654Y0108482D03*
X0046654Y0103974D03*
X0046500Y0237648D03*
X0036500Y0242156D03*
X0046500Y0246663D03*
X0036500Y0251171D03*
X0036500Y0260187D03*
X0046500Y0255679D03*
X0046500Y0264695D03*
X0036500Y0269203D03*
X0046500Y0273711D03*
X0036500Y0278219D03*
X0056500Y0278219D03*
X0056500Y0269203D03*
X0056500Y0260187D03*
X0056500Y0251171D03*
X0056500Y0242156D03*
X0339834Y0142233D03*
X0339834Y0133217D03*
X0339834Y0124201D03*
X0339834Y0115185D03*
X0339834Y0106170D03*
X0349834Y0110677D03*
X0359834Y0106170D03*
X0359834Y0115185D03*
X0349834Y0119693D03*
X0359834Y0124201D03*
X0349834Y0128709D03*
X0349834Y0137725D03*
X0359834Y0142233D03*
X0349834Y0146740D03*
X0359834Y0133217D03*
X0352278Y0237436D03*
X0363459Y0242908D03*
X0363459Y0253814D03*
X0352278Y0259247D03*
X0352278Y0248341D03*
X0363459Y0264719D03*
X0363459Y0275625D03*
X0352278Y0281058D03*
X0352278Y0270153D03*
D20*
X0349834Y0174457D03*
X0349834Y0076032D03*
X0046654Y0076257D03*
X0046654Y0174683D03*
X0046500Y0209931D03*
X0046500Y0308356D03*
D21*
X0357869Y0308460D03*
X0357869Y0210034D03*
D22*
X0354368Y0045328D03*
X0354368Y0020328D03*
D23*
X0229846Y0069951D03*
X0229846Y0076644D03*
X0158980Y0143573D03*
X0158980Y0150266D03*
X0147169Y0150266D03*
X0147169Y0143573D03*
X0097563Y0180974D03*
X0097563Y0187667D03*
X0079650Y0233533D03*
X0072957Y0233533D03*
X0072957Y0257156D03*
X0079650Y0257156D03*
X0089886Y0257156D03*
X0096579Y0257156D03*
X0079650Y0272904D03*
X0072957Y0272904D03*
X0072957Y0296526D03*
X0079650Y0296526D03*
X0151106Y0291998D03*
X0151106Y0285305D03*
X0269217Y0244754D03*
X0269217Y0238061D03*
X0284965Y0232943D03*
X0284965Y0226250D03*
X0284965Y0249872D03*
X0284965Y0256565D03*
X0284965Y0273494D03*
X0284965Y0280187D03*
X0284965Y0297116D03*
X0284965Y0303809D03*
X0131421Y0087274D03*
X0131421Y0080581D03*
X0080240Y0059715D03*
X0080240Y0053022D03*
X0068429Y0053022D03*
X0068429Y0059715D03*
X0035401Y0058869D03*
X0035401Y0052176D03*
X0025009Y0052176D03*
X0025009Y0058869D03*
D24*
X0124138Y0155581D03*
X0130831Y0155581D03*
X0079650Y0190226D03*
X0072957Y0190226D03*
X0089886Y0268573D03*
X0096579Y0268573D03*
X0162917Y0285305D03*
X0162917Y0291998D03*
X0214098Y0291998D03*
X0214098Y0285305D03*
X0214689Y0276841D03*
X0221382Y0276841D03*
X0225909Y0285305D03*
X0225909Y0291998D03*
X0210161Y0240817D03*
X0210161Y0234124D03*
X0246185Y0205974D03*
X0252878Y0205974D03*
X0213508Y0179203D03*
X0206815Y0179203D03*
X0206815Y0170935D03*
X0213508Y0170935D03*
X0213508Y0162667D03*
X0206815Y0162667D03*
X0206815Y0154400D03*
X0213508Y0154400D03*
X0213508Y0146132D03*
X0206815Y0146132D03*
X0197760Y0146919D03*
X0191067Y0146919D03*
X0191067Y0156762D03*
X0197760Y0156762D03*
X0197760Y0166604D03*
X0191067Y0166604D03*
X0191067Y0176447D03*
X0197760Y0176447D03*
X0197760Y0186289D03*
X0191067Y0186289D03*
X0238311Y0127234D03*
X0245004Y0127234D03*
X0257996Y0127234D03*
X0264689Y0127234D03*
X0262917Y0076644D03*
X0262917Y0069951D03*
X0202287Y0063652D03*
X0202287Y0056959D03*
X0328862Y0221722D03*
X0335555Y0221722D03*
X0335555Y0245344D03*
X0328862Y0245344D03*
X0328862Y0268967D03*
X0335555Y0268967D03*
X0335555Y0292589D03*
X0328862Y0292589D03*
D25*
X0315450Y0292963D03*
X0315450Y0297963D03*
X0315450Y0302963D03*
X0315450Y0307963D03*
X0293850Y0307963D03*
X0293850Y0302963D03*
X0293850Y0297963D03*
X0293850Y0292963D03*
X0293850Y0284341D03*
X0293850Y0279341D03*
X0293850Y0274341D03*
X0293850Y0269341D03*
X0293850Y0260719D03*
X0293850Y0255719D03*
X0293850Y0250719D03*
X0293850Y0245719D03*
X0293850Y0237096D03*
X0293850Y0232096D03*
X0293850Y0227096D03*
X0293850Y0222096D03*
X0315450Y0222096D03*
X0315450Y0227096D03*
X0315450Y0232096D03*
X0315450Y0237096D03*
X0315450Y0245719D03*
X0315450Y0250719D03*
X0315450Y0255719D03*
X0315450Y0260719D03*
X0315450Y0269341D03*
X0315450Y0274341D03*
X0315450Y0279341D03*
X0315450Y0284341D03*
D26*
X0323941Y0280778D03*
X0332602Y0280778D03*
X0332602Y0304400D03*
X0323941Y0304400D03*
X0323941Y0257156D03*
X0332602Y0257156D03*
X0332602Y0233533D03*
X0323941Y0233533D03*
X0080634Y0095738D03*
X0071972Y0095738D03*
D27*
X0175909Y0292589D03*
X0189295Y0292589D03*
X0189295Y0308337D03*
X0175909Y0308337D03*
D28*
X0222957Y0242785D03*
X0224925Y0242785D03*
X0226894Y0242785D03*
X0228862Y0242785D03*
X0230831Y0242785D03*
X0232799Y0242785D03*
X0234768Y0242785D03*
X0236736Y0242785D03*
X0236736Y0224281D03*
X0234768Y0224281D03*
X0232799Y0224281D03*
X0230831Y0224281D03*
X0228862Y0224281D03*
X0226894Y0224281D03*
X0224925Y0224281D03*
X0222957Y0224281D03*
D29*
X0220594Y0226644D03*
X0220594Y0228612D03*
X0220594Y0230581D03*
X0220594Y0232549D03*
X0220594Y0234518D03*
X0220594Y0236486D03*
X0220594Y0238455D03*
X0220594Y0240423D03*
X0239098Y0240423D03*
X0239098Y0238455D03*
X0239098Y0236486D03*
X0239098Y0234518D03*
X0239098Y0232549D03*
X0239098Y0230581D03*
X0239098Y0228612D03*
X0239098Y0226644D03*
D30*
X0229846Y0233533D03*
D31*
X0080240Y0241998D03*
X0080240Y0248691D03*
D32*
X0077091Y0281959D03*
X0077091Y0287470D03*
X0083390Y0287470D03*
X0083390Y0281959D03*
D33*
X0099610Y0300974D03*
X0109610Y0300974D03*
X0119610Y0300974D03*
X0129610Y0300974D03*
X0139610Y0300974D03*
X0139610Y0310974D03*
X0129610Y0310974D03*
X0119610Y0310974D03*
X0109610Y0310974D03*
X0099610Y0310974D03*
D34*
X0265280Y0221722D03*
X0273154Y0221722D03*
X0273154Y0213848D03*
X0273154Y0205974D03*
X0265280Y0205974D03*
X0265280Y0213848D03*
D35*
X0285358Y0045746D03*
X0285358Y0019746D03*
D36*
X0286929Y0075978D03*
X0275126Y0075978D03*
D37*
X0279965Y0068726D02*
X0282091Y0068726D01*
X0282091Y0060230D01*
X0279965Y0060230D01*
X0279965Y0068726D01*
X0279965Y0066604D02*
X0282091Y0066604D01*
D38*
X0281028Y0075974D03*
D39*
X0255594Y0056368D03*
X0245594Y0056368D03*
X0235594Y0056368D03*
X0197366Y0074478D03*
X0189098Y0074478D03*
X0284768Y0194163D03*
X0293035Y0194163D03*
X0293035Y0205974D03*
X0284768Y0205974D03*
X0088311Y0202037D03*
X0080043Y0202037D03*
D40*
X0257406Y0016998D03*
D41*
X0214098Y0056565D03*
X0214098Y0064045D03*
X0249531Y0069557D03*
X0249531Y0077037D03*
D42*
X0140476Y0283730D03*
X0140476Y0288848D03*
X0133390Y0288848D03*
X0133390Y0283730D03*
X0198350Y0290030D03*
X0198350Y0295148D03*
X0198350Y0305778D03*
X0198350Y0310896D03*
D43*
X0198350Y0048888D03*
X0206224Y0048888D03*
X0214098Y0048888D03*
X0214098Y0040226D03*
X0206224Y0040226D03*
X0198350Y0040226D03*
D44*
X0076303Y0209518D03*
X0072563Y0218179D03*
X0080043Y0218179D03*
D45*
X0071972Y0130974D03*
X0071972Y0123494D03*
X0080634Y0127234D03*
D46*
X0149630Y0127234D03*
X0149630Y0119360D03*
X0149630Y0111486D03*
X0153567Y0103612D03*
X0160457Y0111486D03*
X0164394Y0103612D03*
X0164394Y0095738D03*
X0153567Y0095738D03*
X0160457Y0119360D03*
X0160457Y0127234D03*
D47*
X0178469Y0129990D03*
X0183587Y0129990D03*
X0183587Y0122904D03*
X0178469Y0122904D03*
X0178469Y0115423D03*
X0183587Y0115423D03*
X0250909Y0233533D03*
X0256028Y0233533D03*
D48*
X0076303Y0076053D03*
X0076303Y0068179D03*
X0068429Y0068179D03*
X0068429Y0076053D03*
X0056618Y0060305D03*
X0056618Y0052431D03*
X0043232Y0052431D03*
X0043232Y0060305D03*
X0017248Y0060305D03*
X0017248Y0052431D03*
D49*
X0251539Y0154085D03*
X0253508Y0154085D03*
X0255476Y0154085D03*
X0257445Y0154085D03*
X0259413Y0154085D03*
X0261382Y0154085D03*
X0263350Y0154085D03*
X0265319Y0154085D03*
X0267287Y0154085D03*
X0269256Y0154085D03*
X0269256Y0170620D03*
X0267287Y0170620D03*
X0265319Y0170620D03*
X0263350Y0170620D03*
X0261382Y0170620D03*
X0259413Y0170620D03*
X0257445Y0170620D03*
X0255476Y0170620D03*
X0253508Y0170620D03*
X0251539Y0170620D03*
D50*
X0247406Y0168258D03*
X0273390Y0168258D03*
D51*
X0275358Y0162352D03*
X0245437Y0162352D03*
D52*
X0257799Y0241604D03*
X0257799Y0249085D03*
X0249138Y0245344D03*
D53*
X0246382Y0118179D03*
X0243232Y0118179D03*
X0240083Y0118179D03*
X0236933Y0118179D03*
X0236933Y0112667D03*
X0240083Y0112667D03*
X0243232Y0112667D03*
X0246382Y0112667D03*
X0252681Y0112667D03*
X0255831Y0112667D03*
X0258980Y0112667D03*
X0262130Y0112667D03*
X0262130Y0118179D03*
X0258980Y0118179D03*
X0255831Y0118179D03*
X0252681Y0118179D03*
X0230634Y0118179D03*
X0227484Y0118179D03*
X0224335Y0118179D03*
X0221185Y0118179D03*
X0221185Y0112667D03*
X0224335Y0112667D03*
X0227484Y0112667D03*
X0230634Y0112667D03*
X0214886Y0112667D03*
X0211736Y0112667D03*
X0208587Y0112667D03*
X0205437Y0112667D03*
X0205437Y0118179D03*
X0208587Y0118179D03*
X0211736Y0118179D03*
X0214886Y0118179D03*
D54*
X0214689Y0203234D03*
X0214689Y0206384D03*
X0214689Y0209533D03*
X0214689Y0212683D03*
X0220988Y0212683D03*
X0220988Y0209533D03*
X0220988Y0206384D03*
X0220988Y0203234D03*
X0164492Y0300856D03*
X0164492Y0304006D03*
X0164492Y0307156D03*
X0164492Y0310305D03*
X0158193Y0310305D03*
X0158193Y0307156D03*
X0158193Y0304006D03*
X0158193Y0300856D03*
D55*
X0218035Y0101738D03*
X0218035Y0095738D03*
X0218035Y0089738D03*
X0233783Y0089738D03*
X0233783Y0095738D03*
X0233783Y0101738D03*
X0249531Y0101738D03*
X0249531Y0095738D03*
X0249531Y0089738D03*
X0265280Y0089738D03*
X0265280Y0095738D03*
X0265280Y0101738D03*
X0281028Y0101738D03*
X0281028Y0095738D03*
X0281028Y0089738D03*
D56*
X0127327Y0118100D03*
X0097406Y0118100D03*
D57*
X0200713Y0256368D03*
X0200713Y0265817D03*
X0219610Y0265817D03*
X0219610Y0256368D03*
D58*
X0210161Y0245344D03*
X0202287Y0246919D03*
X0183783Y0248929D03*
X0180634Y0246940D03*
X0174335Y0266211D03*
X0173969Y0269332D03*
X0170791Y0268967D03*
X0179059Y0266998D03*
X0157012Y0280778D03*
X0143232Y0265030D03*
X0139295Y0265030D03*
X0138902Y0203612D03*
X0143232Y0203612D03*
X0166461Y0201644D03*
X0166440Y0198810D03*
X0168035Y0204006D03*
X0171579Y0203612D03*
X0184177Y0197707D03*
X0186146Y0199696D03*
X0182996Y0194951D03*
X0164865Y0183140D03*
X0158980Y0182352D03*
X0202287Y0176447D03*
X0202287Y0166604D03*
X0202287Y0157549D03*
X0202287Y0147707D03*
X0206224Y0107549D03*
X0209768Y0095738D03*
X0225909Y0095738D03*
X0233783Y0109124D03*
X0241657Y0095738D03*
X0257406Y0103612D03*
X0273154Y0101644D03*
X0273154Y0095738D03*
X0288902Y0095738D03*
X0292839Y0101644D03*
X0320398Y0131171D03*
X0315673Y0159911D03*
X0260555Y0175648D03*
X0259394Y0173022D03*
X0255437Y0175659D03*
X0254650Y0178415D03*
X0252287Y0174478D03*
X0249531Y0172904D03*
X0234177Y0198867D03*
X0236146Y0200856D03*
X0232996Y0203042D03*
X0340870Y0226339D03*
X0340870Y0243415D03*
X0340870Y0256987D03*
X0108587Y0083140D03*
X0068429Y0099281D03*
X0084177Y0119360D03*
X0103862Y0170541D03*
X0207746Y0056959D03*
X0156224Y0038652D03*
X0151894Y0035502D03*
X0143232Y0031565D03*
X0134177Y0037864D03*
X0048744Y0052431D03*
D59*
X0070004Y0048494D03*
X0081815Y0048100D03*
X0021185Y0042982D03*
X0147563Y0016998D03*
X0197957Y0033927D03*
X0229846Y0063848D03*
X0243232Y0076841D03*
X0229846Y0107549D03*
X0233783Y0127234D03*
X0269217Y0127234D03*
X0269610Y0118179D03*
X0276697Y0145344D03*
X0279059Y0154793D03*
X0282602Y0162667D03*
X0340083Y0158730D03*
X0242839Y0224478D03*
X0202681Y0231171D03*
X0198744Y0230778D03*
X0201428Y0225981D03*
X0184177Y0211486D03*
X0181421Y0200069D03*
X0175122Y0201644D03*
X0185752Y0189045D03*
X0179846Y0184321D03*
X0195988Y0208337D03*
X0170791Y0225659D03*
X0174728Y0231171D03*
X0163311Y0280778D03*
X0170004Y0291801D03*
X0157799Y0296919D03*
X0145594Y0291801D03*
X0100713Y0233140D03*
X0072366Y0182352D03*
X0167248Y0119360D03*
X0170004Y0122116D03*
X0171972Y0126841D03*
X0175122Y0135108D03*
X0167248Y0115423D03*
X0171972Y0111486D03*
X0175122Y0108337D03*
X0165280Y0089045D03*
D60*
X0092051Y0076053D03*
X0088114Y0079990D03*
X0043232Y0046526D03*
X0034965Y0064242D03*
X0025122Y0064242D03*
X0017248Y0046526D03*
X0206224Y0191014D03*
X0210161Y0191014D03*
X0216067Y0191014D03*
X0221972Y0191014D03*
X0229059Y0191407D03*
X0232194Y0191407D03*
X0235358Y0191407D03*
X0241657Y0205974D03*
X0234571Y0214636D03*
X0236539Y0219360D03*
X0227878Y0218573D03*
X0203075Y0211880D03*
X0201106Y0215423D03*
X0198350Y0205974D03*
X0198350Y0202037D03*
X0198350Y0237077D03*
X0168429Y0264242D03*
X0151106Y0253219D03*
X0149531Y0255974D03*
X0129453Y0247313D03*
X0129453Y0243376D03*
X0121972Y0256762D03*
X0117642Y0254793D03*
X0113705Y0261093D03*
X0125516Y0261093D03*
X0144413Y0281171D03*
X0151106Y0280778D03*
X0171185Y0280778D03*
X0174335Y0282746D03*
X0134571Y0294557D03*
X0101106Y0247707D03*
X0137720Y0223691D03*
X0137327Y0219754D03*
X0137327Y0215817D03*
X0137327Y0211880D03*
X0253469Y0150856D03*
X0257406Y0150856D03*
X0259374Y0146919D03*
X0255437Y0146919D03*
X0251500Y0146919D03*
X0316461Y0125266D03*
X0318823Y0127234D03*
X0277091Y0296526D03*
D61*
X0266067Y0146526D03*
X0296776Y0068179D03*
X0220791Y0040226D03*
M02*
