G04 #@! TF.GenerationSoftware,KiCad,Pcbnew,(5.0.0-rc2-dev-311-g1dd4af297)*
G04 #@! TF.CreationDate,2018-03-29T11:26:03-07:00*
G04 #@! TF.ProjectId,Lupo_Testing,4C75706F5F54657374696E672E6B6963,rev?*
G04 #@! TF.SameCoordinates,Original*
G04 #@! TF.FileFunction,Legend,Bot*
G04 #@! TF.FilePolarity,Positive*
%FSLAX46Y46*%
G04 Gerber Fmt 4.6, Leading zero omitted, Abs format (unit mm)*
G04 Created by KiCad (PCBNEW (5.0.0-rc2-dev-311-g1dd4af297)) date 03/29/18 11:26:03*
%MOMM*%
%LPD*%
G01*
G04 APERTURE LIST*
%ADD10C,0.120000*%
%ADD11C,0.150000*%
G04 APERTURE END LIST*
D10*
X215560000Y-98733000D02*
X219178000Y-98733000D01*
X215560000Y-97023000D02*
X215560000Y-98733000D01*
X222022700Y-103233000D02*
X237717300Y-103233000D01*
X244180000Y-97023000D02*
X244180000Y-98733000D01*
X240562000Y-98733000D02*
X244180000Y-98733000D01*
X244180000Y-91513000D02*
X240562000Y-91513000D01*
X244180000Y-93223000D02*
X244180000Y-91513000D01*
X237717300Y-87013000D02*
X233730000Y-87013000D01*
X231530000Y-89213000D02*
X233730000Y-87013000D01*
X231530000Y-89213000D02*
X228210000Y-89213000D01*
X228210000Y-89213000D02*
X226010000Y-87013000D01*
X226010000Y-87013000D02*
X222022700Y-87013000D01*
X219178000Y-91513000D02*
X215560000Y-91513000D01*
X215560000Y-93223000D02*
X215560000Y-91513000D01*
X222024630Y-103234789D02*
G75*
G02X219178000Y-98733000I7845370J8111789D01*
G01*
X237715370Y-87011211D02*
G75*
G02X240562000Y-91513000I-7845370J-8111789D01*
G01*
X237715370Y-103234789D02*
G75*
G03X240562000Y-98733000I-7845370J8111789D01*
G01*
X222024630Y-87011211D02*
G75*
G03X219178000Y-91513000I7845370J-8111789D01*
G01*
D11*
X230203333Y-86955380D02*
X230203333Y-87669666D01*
X230250952Y-87812523D01*
X230346190Y-87907761D01*
X230489047Y-87955380D01*
X230584285Y-87955380D01*
X229822380Y-86955380D02*
X229203333Y-86955380D01*
X229536666Y-87336333D01*
X229393809Y-87336333D01*
X229298571Y-87383952D01*
X229250952Y-87431571D01*
X229203333Y-87526809D01*
X229203333Y-87764904D01*
X229250952Y-87860142D01*
X229298571Y-87907761D01*
X229393809Y-87955380D01*
X229679523Y-87955380D01*
X229774761Y-87907761D01*
X229822380Y-87860142D01*
M02*
