%
M48
M72
T01C0.01378
T02C0.04000
%
T01
X6000Y6250
X6000Y20250
X6000Y34250
X6000Y48250
X6000Y62250
X6000Y76250
X6000Y90250
X6000Y104250
X6000Y118250
X6000Y132250
X6000Y146250
X6000Y160250
X6000Y174250
X6000Y188250
X6000Y202250
X6000Y216250
X6000Y230250
X6000Y244250
X6000Y258250
X6000Y272250
X6000Y286250
X6000Y300250
X36500Y300250
X67000Y300250
X97500Y300250
X128000Y300250
X158500Y300250
X189000Y300250
X219500Y300250
X250000Y300250
X250000Y286250
X250000Y272250
X250000Y258250
X250000Y244250
X250000Y230250
X250000Y216250
X250000Y202250
X250000Y188250
X250000Y174250
X250000Y160250
X250000Y146250
X250000Y132250
X250000Y118250
X250000Y104250
X250000Y90250
X250000Y76250
X250000Y62250
X250000Y48250
X250000Y34250
X250000Y20250
X250000Y6250
X219500Y6250
X214000Y30850
X220000Y36850
X203700Y30750
X198000Y36750
X197000Y44200
X203000Y54250
X196000Y61250
X181000Y54250
X174000Y47250
X171000Y41250
X171000Y25250
X177000Y19250
X183000Y25250
X189000Y6250
X158500Y6250
X128000Y6250
X97500Y6250
X67000Y6250
X36500Y6250
X36000Y80250
X36000Y97250
X36000Y121250
X36000Y145250
X36000Y168250
X36000Y192250
X36000Y209250
X57000Y209250
X79000Y209250
X102000Y209250
X122000Y193250
X125000Y196250
X128000Y199250
X125000Y209250
X131000Y209250
X108000Y180250
X114000Y165250
X132000Y157250
X143000Y158250
X150000Y165250
X143000Y178250
X158000Y191250
X161000Y194250
X164000Y197250
X172000Y209250
X193000Y186250
X197000Y174250
X196000Y163250
X196000Y153250
X190000Y147250
X182000Y127250
X172000Y120250
X157000Y125250
X143000Y125250
X135000Y134250
X131000Y134250
X131000Y138250
X119000Y113250
X114000Y107250
X109000Y117250
X124500Y96750
X132000Y101250
X143000Y103250
X152000Y80250
X175000Y80250
X178000Y91250
X184000Y91250
X199000Y80250
X219000Y80250
X219000Y98250
X219000Y121250
X219000Y145250
X219000Y169250
X219000Y192250
X219000Y209250
X198000Y209250
X172000Y180250
X172000Y175250
X182000Y169250
X128000Y80250
X104000Y80250
X80000Y80250
X57000Y80250
T02
X83000Y223250
X83000Y233250
X83000Y243250
X83000Y253250
X93000Y253250
X93000Y243250
X93000Y233250
X93000Y223250
X103000Y223250
X103000Y233250
X103000Y243250
X103000Y253250
X113000Y253250
X113000Y243250
X113000Y233250
X113000Y223250
X123000Y223250
X123000Y233250
X123000Y243250
X123000Y253250
X133000Y253250
X133000Y243250
X133000Y233250
X133000Y223250
X143000Y223250
X143000Y233250
X143000Y243250
X143000Y253250
X153000Y253250
X153000Y243250
X153000Y233250
X153000Y223250
X163000Y223250
X163000Y233250
X163000Y243250
X163000Y253250
X173000Y253250
X173000Y243250
X173000Y233250
X173000Y223250
M30
