G75*
%MOIN*%
%OFA0B0*%
%FSLAX25Y25*%
%IPPOS*%
%LPD*%
%AMOC8*
5,1,8,0,0,1.08239X$1,22.5*
%
%ADD10OC8,0.06000*%
%ADD11OC8,0.07087*%
%ADD12C,0.00600*%
%ADD13C,0.04000*%
%ADD14C,0.01200*%
D10*
X0060788Y0130158D03*
X0070788Y0130158D03*
X0080788Y0130158D03*
X0090788Y0130158D03*
X0100788Y0130158D03*
X0110788Y0130158D03*
X0120788Y0130158D03*
X0130788Y0130158D03*
X0130788Y0140158D03*
X0120788Y0140158D03*
X0110788Y0140158D03*
X0100788Y0140158D03*
X0090788Y0140158D03*
X0080788Y0140158D03*
X0070788Y0140158D03*
X0060788Y0140158D03*
D11*
X0078741Y0068111D03*
X0087757Y0068111D03*
X0096772Y0068111D03*
X0105788Y0068111D03*
X0114804Y0068111D03*
X0110316Y0058111D03*
X0101300Y0058111D03*
X0092284Y0058111D03*
X0083269Y0058111D03*
X0074253Y0058111D03*
X0078741Y0048111D03*
X0087757Y0048111D03*
X0096772Y0048111D03*
X0105788Y0048111D03*
X0114804Y0048111D03*
D12*
X0034596Y0014911D02*
X0034596Y0153043D01*
X0156980Y0153043D01*
X0156980Y0014911D01*
X0034596Y0014911D01*
X0034596Y0015505D02*
X0156980Y0015505D01*
X0156980Y0016104D02*
X0034596Y0016104D01*
X0034596Y0016702D02*
X0156980Y0016702D01*
X0156980Y0017301D02*
X0034596Y0017301D01*
X0034596Y0017899D02*
X0156980Y0017899D01*
X0156980Y0018498D02*
X0034596Y0018498D01*
X0034596Y0019096D02*
X0156980Y0019096D01*
X0156980Y0019695D02*
X0034596Y0019695D01*
X0034596Y0020293D02*
X0156980Y0020293D01*
X0156980Y0020892D02*
X0034596Y0020892D01*
X0034596Y0021490D02*
X0156980Y0021490D01*
X0156980Y0022089D02*
X0034596Y0022089D01*
X0034596Y0022687D02*
X0156980Y0022687D01*
X0156980Y0023286D02*
X0034596Y0023286D01*
X0034596Y0023884D02*
X0156980Y0023884D01*
X0156980Y0024483D02*
X0034596Y0024483D01*
X0034596Y0025081D02*
X0156980Y0025081D01*
X0156980Y0025680D02*
X0034596Y0025680D01*
X0034596Y0026278D02*
X0156980Y0026278D01*
X0156980Y0026877D02*
X0034596Y0026877D01*
X0034596Y0027475D02*
X0156980Y0027475D01*
X0156980Y0028074D02*
X0034596Y0028074D01*
X0034596Y0028672D02*
X0156980Y0028672D01*
X0156980Y0029271D02*
X0034596Y0029271D01*
X0034596Y0029869D02*
X0156980Y0029869D01*
X0156980Y0030468D02*
X0034596Y0030468D01*
X0034596Y0031066D02*
X0156980Y0031066D01*
X0156980Y0031665D02*
X0034596Y0031665D01*
X0034596Y0032263D02*
X0156980Y0032263D01*
X0156980Y0032862D02*
X0034596Y0032862D01*
X0034596Y0033460D02*
X0156980Y0033460D01*
X0156980Y0034059D02*
X0034596Y0034059D01*
X0034596Y0034657D02*
X0156980Y0034657D01*
X0156980Y0035256D02*
X0034596Y0035256D01*
X0034596Y0035854D02*
X0156980Y0035854D01*
X0156980Y0036453D02*
X0034596Y0036453D01*
X0034596Y0037051D02*
X0156980Y0037051D01*
X0156980Y0037650D02*
X0034596Y0037650D01*
X0034596Y0038248D02*
X0156980Y0038248D01*
X0156980Y0038847D02*
X0034596Y0038847D01*
X0034596Y0039446D02*
X0156980Y0039446D01*
X0156980Y0040044D02*
X0034596Y0040044D01*
X0034596Y0040643D02*
X0156980Y0040643D01*
X0156980Y0041241D02*
X0034596Y0041241D01*
X0034596Y0041840D02*
X0156980Y0041840D01*
X0156980Y0042438D02*
X0034596Y0042438D01*
X0034596Y0043037D02*
X0156980Y0043037D01*
X0156980Y0043635D02*
X0090130Y0043635D01*
X0089763Y0043268D02*
X0092547Y0046052D01*
X0094932Y0043668D01*
X0098613Y0043668D01*
X0101216Y0046271D01*
X0101216Y0049951D01*
X0098613Y0052554D01*
X0094932Y0052554D01*
X0092547Y0050170D01*
X0089763Y0052954D01*
X0088057Y0052954D01*
X0088057Y0048411D01*
X0087457Y0048411D01*
X0087457Y0052954D01*
X0085751Y0052954D01*
X0082966Y0050170D01*
X0080581Y0052554D01*
X0076900Y0052554D01*
X0075357Y0051011D01*
X0073997Y0051011D01*
X0065696Y0059312D01*
X0065696Y0071910D01*
X0073247Y0079460D01*
X0073688Y0080526D01*
X0073688Y0127543D01*
X0074688Y0128543D01*
X0074688Y0131774D01*
X0072404Y0134058D01*
X0069173Y0134058D01*
X0066888Y0131774D01*
X0066888Y0128543D01*
X0067888Y0127543D01*
X0067888Y0082304D01*
X0060338Y0074754D01*
X0059896Y0073688D01*
X0059896Y0057534D01*
X0060338Y0056468D01*
X0061153Y0055653D01*
X0071153Y0045653D01*
X0072219Y0045211D01*
X0075357Y0045211D01*
X0076900Y0043668D01*
X0080581Y0043668D01*
X0082966Y0046052D01*
X0085751Y0043268D01*
X0087457Y0043268D01*
X0087457Y0047811D01*
X0088057Y0047811D01*
X0088057Y0043268D01*
X0089763Y0043268D01*
X0090729Y0044234D02*
X0094366Y0044234D01*
X0093768Y0044832D02*
X0091327Y0044832D01*
X0091926Y0045431D02*
X0093169Y0045431D01*
X0092571Y0046029D02*
X0092524Y0046029D01*
X0088057Y0046029D02*
X0087457Y0046029D01*
X0087457Y0045431D02*
X0088057Y0045431D01*
X0088057Y0044832D02*
X0087457Y0044832D01*
X0087457Y0044234D02*
X0088057Y0044234D01*
X0088057Y0043635D02*
X0087457Y0043635D01*
X0085383Y0043635D02*
X0034596Y0043635D01*
X0034596Y0044234D02*
X0076335Y0044234D01*
X0075736Y0044832D02*
X0034596Y0044832D01*
X0034596Y0045431D02*
X0071689Y0045431D01*
X0070777Y0046029D02*
X0034596Y0046029D01*
X0034596Y0046628D02*
X0070178Y0046628D01*
X0069580Y0047226D02*
X0034596Y0047226D01*
X0034596Y0047825D02*
X0068981Y0047825D01*
X0068383Y0048423D02*
X0034596Y0048423D01*
X0034596Y0049022D02*
X0067784Y0049022D01*
X0067186Y0049620D02*
X0034596Y0049620D01*
X0034596Y0050219D02*
X0044999Y0050219D01*
X0045023Y0050209D02*
X0048167Y0050209D01*
X0051072Y0051412D01*
X0053295Y0053635D01*
X0054498Y0056539D01*
X0054498Y0059683D01*
X0053295Y0062587D01*
X0051072Y0064810D01*
X0048167Y0066013D01*
X0045023Y0066013D01*
X0042119Y0064810D01*
X0039896Y0062587D01*
X0038693Y0059683D01*
X0038693Y0056539D01*
X0039896Y0053635D01*
X0042119Y0051412D01*
X0045023Y0050209D01*
X0043554Y0050817D02*
X0034596Y0050817D01*
X0034596Y0051416D02*
X0042115Y0051416D01*
X0041516Y0052014D02*
X0034596Y0052014D01*
X0034596Y0052613D02*
X0040918Y0052613D01*
X0040319Y0053211D02*
X0034596Y0053211D01*
X0034596Y0053810D02*
X0039823Y0053810D01*
X0039576Y0054408D02*
X0034596Y0054408D01*
X0034596Y0055007D02*
X0039328Y0055007D01*
X0039080Y0055605D02*
X0034596Y0055605D01*
X0034596Y0056204D02*
X0038832Y0056204D01*
X0038693Y0056802D02*
X0034596Y0056802D01*
X0034596Y0057401D02*
X0038693Y0057401D01*
X0038693Y0057999D02*
X0034596Y0057999D01*
X0034596Y0058598D02*
X0038693Y0058598D01*
X0038693Y0059196D02*
X0034596Y0059196D01*
X0034596Y0059795D02*
X0038739Y0059795D01*
X0038987Y0060393D02*
X0034596Y0060393D01*
X0034596Y0060992D02*
X0039235Y0060992D01*
X0039483Y0061590D02*
X0034596Y0061590D01*
X0034596Y0062189D02*
X0039731Y0062189D01*
X0040096Y0062787D02*
X0034596Y0062787D01*
X0034596Y0063386D02*
X0040695Y0063386D01*
X0041293Y0063984D02*
X0034596Y0063984D01*
X0034596Y0064583D02*
X0041892Y0064583D01*
X0043015Y0065182D02*
X0034596Y0065182D01*
X0034596Y0065780D02*
X0044460Y0065780D01*
X0048731Y0065780D02*
X0059896Y0065780D01*
X0059896Y0065182D02*
X0050175Y0065182D01*
X0051299Y0064583D02*
X0059896Y0064583D01*
X0059896Y0063984D02*
X0051897Y0063984D01*
X0052496Y0063386D02*
X0059896Y0063386D01*
X0059896Y0062787D02*
X0053094Y0062787D01*
X0053460Y0062189D02*
X0059896Y0062189D01*
X0059896Y0061590D02*
X0053708Y0061590D01*
X0053955Y0060992D02*
X0059896Y0060992D01*
X0059896Y0060393D02*
X0054203Y0060393D01*
X0054451Y0059795D02*
X0059896Y0059795D01*
X0059896Y0059196D02*
X0054498Y0059196D01*
X0054498Y0058598D02*
X0059896Y0058598D01*
X0059896Y0057999D02*
X0054498Y0057999D01*
X0054498Y0057401D02*
X0059951Y0057401D01*
X0060199Y0056802D02*
X0054498Y0056802D01*
X0054359Y0056204D02*
X0060602Y0056204D01*
X0061201Y0055605D02*
X0054111Y0055605D01*
X0053863Y0055007D02*
X0061799Y0055007D01*
X0062398Y0054408D02*
X0053615Y0054408D01*
X0053367Y0053810D02*
X0062996Y0053810D01*
X0063595Y0053211D02*
X0052871Y0053211D01*
X0052273Y0052613D02*
X0064193Y0052613D01*
X0064792Y0052014D02*
X0051674Y0052014D01*
X0051076Y0051416D02*
X0065390Y0051416D01*
X0065989Y0050817D02*
X0049636Y0050817D01*
X0048191Y0050219D02*
X0066587Y0050219D01*
X0070600Y0054408D02*
X0071672Y0054408D01*
X0071198Y0053810D02*
X0072270Y0053810D01*
X0072412Y0053668D02*
X0076093Y0053668D01*
X0078696Y0056271D01*
X0078696Y0059951D01*
X0076093Y0062554D01*
X0072412Y0062554D01*
X0069809Y0059951D01*
X0069809Y0056271D01*
X0072412Y0053668D01*
X0071797Y0053211D02*
X0113304Y0053211D01*
X0113304Y0052613D02*
X0090104Y0052613D01*
X0090703Y0052014D02*
X0094392Y0052014D01*
X0093793Y0051416D02*
X0091301Y0051416D01*
X0091900Y0050817D02*
X0093195Y0050817D01*
X0092596Y0050219D02*
X0092498Y0050219D01*
X0094125Y0053668D02*
X0090444Y0053668D01*
X0087841Y0056271D01*
X0087841Y0059951D01*
X0090444Y0062554D01*
X0094125Y0062554D01*
X0096728Y0059951D01*
X0096728Y0056271D01*
X0094125Y0053668D01*
X0094267Y0053810D02*
X0099317Y0053810D01*
X0099460Y0053668D02*
X0103140Y0053668D01*
X0105743Y0056271D01*
X0105743Y0059951D01*
X0103140Y0062554D01*
X0099460Y0062554D01*
X0096857Y0059951D01*
X0096857Y0056271D01*
X0099460Y0053668D01*
X0098719Y0054408D02*
X0094865Y0054408D01*
X0095464Y0055007D02*
X0098120Y0055007D01*
X0097522Y0055605D02*
X0096062Y0055605D01*
X0096661Y0056204D02*
X0096923Y0056204D01*
X0096857Y0056802D02*
X0096728Y0056802D01*
X0096728Y0057401D02*
X0096857Y0057401D01*
X0096857Y0057999D02*
X0096728Y0057999D01*
X0096728Y0058598D02*
X0096857Y0058598D01*
X0096857Y0059196D02*
X0096728Y0059196D01*
X0096728Y0059795D02*
X0096857Y0059795D01*
X0097299Y0060393D02*
X0096286Y0060393D01*
X0095687Y0060992D02*
X0097897Y0060992D01*
X0098496Y0061590D02*
X0095089Y0061590D01*
X0094490Y0062189D02*
X0099094Y0062189D01*
X0098613Y0063668D02*
X0101216Y0066271D01*
X0101216Y0069951D01*
X0100975Y0070192D01*
X0125077Y0094294D01*
X0125956Y0095173D01*
X0125956Y0103537D01*
X0132288Y0109869D01*
X0132288Y0126258D01*
X0132404Y0126258D01*
X0134688Y0128543D01*
X0134688Y0130077D01*
X0144361Y0120404D01*
X0144361Y0093081D01*
X0119247Y0067968D01*
X0119247Y0069951D01*
X0116644Y0072554D01*
X0112963Y0072554D01*
X0110361Y0069951D01*
X0110361Y0066271D01*
X0112963Y0063668D01*
X0113751Y0063668D01*
X0112397Y0062314D01*
X0112156Y0062554D01*
X0108475Y0062554D01*
X0105872Y0059951D01*
X0105872Y0056271D01*
X0108475Y0053668D01*
X0112156Y0053668D01*
X0113304Y0054815D01*
X0113304Y0052554D01*
X0112963Y0052554D01*
X0110361Y0049951D01*
X0110361Y0046271D01*
X0112963Y0043668D01*
X0116644Y0043668D01*
X0119247Y0046271D01*
X0119247Y0049951D01*
X0116644Y0052554D01*
X0116304Y0052554D01*
X0116304Y0055270D01*
X0149161Y0088127D01*
X0149161Y0129847D01*
X0134028Y0144980D01*
X0133149Y0145858D01*
X0128427Y0145858D01*
X0125088Y0142519D01*
X0125088Y0136580D01*
X0122485Y0133977D01*
X0122404Y0134058D01*
X0119173Y0134058D01*
X0116888Y0131774D01*
X0116888Y0128543D01*
X0119173Y0126258D01*
X0122404Y0126258D01*
X0124688Y0128543D01*
X0124688Y0131774D01*
X0124607Y0131855D01*
X0125088Y0132337D01*
X0125088Y0127524D01*
X0117175Y0119611D01*
X0113417Y0119611D01*
X0109296Y0123732D01*
X0109296Y0126258D01*
X0112404Y0126258D01*
X0114688Y0128543D01*
X0114688Y0131774D01*
X0112404Y0134058D01*
X0109173Y0134058D01*
X0108088Y0132974D01*
X0108088Y0135337D01*
X0109091Y0136340D01*
X0109173Y0136258D01*
X0112404Y0136258D01*
X0114688Y0138543D01*
X0114688Y0141774D01*
X0112404Y0144058D01*
X0109173Y0144058D01*
X0106888Y0141774D01*
X0106888Y0138543D01*
X0106970Y0138461D01*
X0105967Y0137458D01*
X0105088Y0136580D01*
X0105088Y0127797D01*
X0105967Y0126919D01*
X0106296Y0126589D01*
X0106296Y0122490D01*
X0107175Y0121611D01*
X0112175Y0116611D01*
X0118417Y0116611D01*
X0119296Y0117490D01*
X0127210Y0125403D01*
X0128088Y0126282D01*
X0128088Y0127343D01*
X0129173Y0126258D01*
X0129288Y0126258D01*
X0129288Y0111112D01*
X0122956Y0104780D01*
X0122956Y0096416D01*
X0098854Y0072314D01*
X0098613Y0072554D01*
X0094932Y0072554D01*
X0092329Y0069951D01*
X0092329Y0066271D01*
X0094932Y0063668D01*
X0098613Y0063668D01*
X0098930Y0063984D02*
X0103631Y0063984D01*
X0103948Y0063668D02*
X0101345Y0066271D01*
X0101345Y0069951D01*
X0103948Y0072554D01*
X0107629Y0072554D01*
X0110231Y0069951D01*
X0110231Y0066271D01*
X0107629Y0063668D01*
X0103948Y0063668D01*
X0103032Y0064583D02*
X0099528Y0064583D01*
X0100127Y0065182D02*
X0102434Y0065182D01*
X0101835Y0065780D02*
X0100725Y0065780D01*
X0101216Y0066379D02*
X0101345Y0066379D01*
X0101345Y0066977D02*
X0101216Y0066977D01*
X0101216Y0067576D02*
X0101345Y0067576D01*
X0101345Y0068174D02*
X0101216Y0068174D01*
X0101216Y0068773D02*
X0101345Y0068773D01*
X0101345Y0069371D02*
X0101216Y0069371D01*
X0101198Y0069970D02*
X0101363Y0069970D01*
X0101351Y0070568D02*
X0101962Y0070568D01*
X0101949Y0071167D02*
X0102560Y0071167D01*
X0102548Y0071765D02*
X0103159Y0071765D01*
X0103146Y0072364D02*
X0103757Y0072364D01*
X0103745Y0072962D02*
X0124242Y0072962D01*
X0124840Y0073561D02*
X0104343Y0073561D01*
X0104942Y0074159D02*
X0125439Y0074159D01*
X0126037Y0074758D02*
X0105540Y0074758D01*
X0106139Y0075356D02*
X0126636Y0075356D01*
X0127234Y0075955D02*
X0106737Y0075955D01*
X0107336Y0076553D02*
X0127833Y0076553D01*
X0128431Y0077152D02*
X0107934Y0077152D01*
X0108533Y0077750D02*
X0129030Y0077750D01*
X0129628Y0078349D02*
X0109131Y0078349D01*
X0109730Y0078947D02*
X0130227Y0078947D01*
X0130825Y0079546D02*
X0110329Y0079546D01*
X0110927Y0080144D02*
X0131424Y0080144D01*
X0132022Y0080743D02*
X0111526Y0080743D01*
X0112124Y0081341D02*
X0132621Y0081341D01*
X0133220Y0081940D02*
X0112723Y0081940D01*
X0113321Y0082538D02*
X0133818Y0082538D01*
X0134417Y0083137D02*
X0113920Y0083137D01*
X0114518Y0083735D02*
X0135015Y0083735D01*
X0135614Y0084334D02*
X0115117Y0084334D01*
X0115715Y0084932D02*
X0136212Y0084932D01*
X0136811Y0085531D02*
X0116314Y0085531D01*
X0116912Y0086129D02*
X0137409Y0086129D01*
X0138008Y0086728D02*
X0117511Y0086728D01*
X0118109Y0087326D02*
X0138606Y0087326D01*
X0139205Y0087925D02*
X0118708Y0087925D01*
X0119306Y0088523D02*
X0139803Y0088523D01*
X0140402Y0089122D02*
X0119905Y0089122D01*
X0120503Y0089720D02*
X0141000Y0089720D01*
X0141599Y0090319D02*
X0121102Y0090319D01*
X0121700Y0090917D02*
X0142197Y0090917D01*
X0142796Y0091516D02*
X0122299Y0091516D01*
X0122897Y0092115D02*
X0132882Y0092115D01*
X0133586Y0091823D02*
X0136730Y0091823D01*
X0139635Y0093026D01*
X0141858Y0095249D01*
X0143061Y0098153D01*
X0143061Y0101297D01*
X0141858Y0104202D01*
X0139635Y0106424D01*
X0136730Y0107628D01*
X0133586Y0107628D01*
X0130682Y0106424D01*
X0128459Y0104202D01*
X0127256Y0101297D01*
X0127256Y0098153D01*
X0128459Y0095249D01*
X0130682Y0093026D01*
X0133586Y0091823D01*
X0131437Y0092713D02*
X0123496Y0092713D01*
X0124094Y0093312D02*
X0130396Y0093312D01*
X0129798Y0093910D02*
X0124693Y0093910D01*
X0125291Y0094509D02*
X0129199Y0094509D01*
X0128601Y0095107D02*
X0125890Y0095107D01*
X0125956Y0095706D02*
X0128270Y0095706D01*
X0128022Y0096304D02*
X0125956Y0096304D01*
X0125956Y0096903D02*
X0127774Y0096903D01*
X0127526Y0097501D02*
X0125956Y0097501D01*
X0125956Y0098100D02*
X0127278Y0098100D01*
X0127256Y0098698D02*
X0125956Y0098698D01*
X0125956Y0099297D02*
X0127256Y0099297D01*
X0127256Y0099895D02*
X0125956Y0099895D01*
X0125956Y0100494D02*
X0127256Y0100494D01*
X0127256Y0101092D02*
X0125956Y0101092D01*
X0125956Y0101691D02*
X0127419Y0101691D01*
X0127667Y0102289D02*
X0125956Y0102289D01*
X0125956Y0102888D02*
X0127915Y0102888D01*
X0128163Y0103486D02*
X0125956Y0103486D01*
X0126504Y0104085D02*
X0128411Y0104085D01*
X0128941Y0104683D02*
X0127102Y0104683D01*
X0127701Y0105282D02*
X0129539Y0105282D01*
X0130138Y0105880D02*
X0128299Y0105880D01*
X0128898Y0106479D02*
X0130813Y0106479D01*
X0130095Y0107676D02*
X0144361Y0107676D01*
X0144361Y0108274D02*
X0130693Y0108274D01*
X0131292Y0108873D02*
X0144361Y0108873D01*
X0144361Y0109471D02*
X0131890Y0109471D01*
X0132288Y0110070D02*
X0144361Y0110070D01*
X0144361Y0110668D02*
X0132288Y0110668D01*
X0132288Y0111267D02*
X0144361Y0111267D01*
X0144361Y0111865D02*
X0132288Y0111865D01*
X0132288Y0112464D02*
X0144361Y0112464D01*
X0144361Y0113062D02*
X0132288Y0113062D01*
X0132288Y0113661D02*
X0144361Y0113661D01*
X0144361Y0114259D02*
X0132288Y0114259D01*
X0132288Y0114858D02*
X0144361Y0114858D01*
X0144361Y0115456D02*
X0132288Y0115456D01*
X0132288Y0116055D02*
X0144361Y0116055D01*
X0144361Y0116653D02*
X0132288Y0116653D01*
X0132288Y0117252D02*
X0144361Y0117252D01*
X0144361Y0117851D02*
X0132288Y0117851D01*
X0132288Y0118449D02*
X0144361Y0118449D01*
X0144361Y0119048D02*
X0132288Y0119048D01*
X0132288Y0119646D02*
X0144361Y0119646D01*
X0144361Y0120245D02*
X0132288Y0120245D01*
X0132288Y0120843D02*
X0143922Y0120843D01*
X0143323Y0121442D02*
X0132288Y0121442D01*
X0132288Y0122040D02*
X0142725Y0122040D01*
X0142126Y0122639D02*
X0132288Y0122639D01*
X0132288Y0123237D02*
X0141528Y0123237D01*
X0140929Y0123836D02*
X0132288Y0123836D01*
X0132288Y0124434D02*
X0140331Y0124434D01*
X0139732Y0125033D02*
X0132288Y0125033D01*
X0132288Y0125631D02*
X0139134Y0125631D01*
X0138535Y0126230D02*
X0132288Y0126230D01*
X0132974Y0126828D02*
X0137937Y0126828D01*
X0137338Y0127427D02*
X0133572Y0127427D01*
X0134171Y0128025D02*
X0136740Y0128025D01*
X0136141Y0128624D02*
X0134688Y0128624D01*
X0134688Y0129222D02*
X0135543Y0129222D01*
X0134944Y0129821D02*
X0134688Y0129821D01*
X0129288Y0126230D02*
X0128036Y0126230D01*
X0128088Y0126828D02*
X0128603Y0126828D01*
X0129288Y0125631D02*
X0127438Y0125631D01*
X0126839Y0125033D02*
X0129288Y0125033D01*
X0129288Y0124434D02*
X0126240Y0124434D01*
X0125642Y0123836D02*
X0129288Y0123836D01*
X0129288Y0123237D02*
X0125043Y0123237D01*
X0124445Y0122639D02*
X0129288Y0122639D01*
X0129288Y0122040D02*
X0123846Y0122040D01*
X0123248Y0121442D02*
X0129288Y0121442D01*
X0129288Y0120843D02*
X0122649Y0120843D01*
X0122051Y0120245D02*
X0129288Y0120245D01*
X0129288Y0119646D02*
X0121452Y0119646D01*
X0120854Y0119048D02*
X0129288Y0119048D01*
X0129288Y0118449D02*
X0120255Y0118449D01*
X0119657Y0117851D02*
X0129288Y0117851D01*
X0129288Y0117252D02*
X0119058Y0117252D01*
X0118460Y0116653D02*
X0129288Y0116653D01*
X0129288Y0116055D02*
X0080241Y0116055D01*
X0080241Y0116653D02*
X0112132Y0116653D01*
X0111534Y0117252D02*
X0080241Y0117252D01*
X0080241Y0117490D02*
X0089091Y0126340D01*
X0089173Y0126258D01*
X0092404Y0126258D01*
X0094688Y0128543D01*
X0094688Y0131774D01*
X0092404Y0134058D01*
X0089173Y0134058D01*
X0086888Y0131774D01*
X0086888Y0128543D01*
X0086970Y0128461D01*
X0077241Y0118732D01*
X0077241Y0072554D01*
X0076900Y0072554D01*
X0074298Y0069951D01*
X0074298Y0066271D01*
X0076900Y0063668D01*
X0080581Y0063668D01*
X0083184Y0066271D01*
X0083184Y0069951D01*
X0080581Y0072554D01*
X0080241Y0072554D01*
X0080241Y0117490D01*
X0080602Y0117851D02*
X0110935Y0117851D01*
X0110337Y0118449D02*
X0081200Y0118449D01*
X0081799Y0119048D02*
X0109738Y0119048D01*
X0109140Y0119646D02*
X0082397Y0119646D01*
X0082996Y0120245D02*
X0108541Y0120245D01*
X0107943Y0120843D02*
X0083594Y0120843D01*
X0084193Y0121442D02*
X0107344Y0121442D01*
X0106746Y0122040D02*
X0084791Y0122040D01*
X0085390Y0122639D02*
X0106296Y0122639D01*
X0106296Y0123237D02*
X0085988Y0123237D01*
X0086587Y0123836D02*
X0106296Y0123836D01*
X0106296Y0124434D02*
X0087185Y0124434D01*
X0087784Y0125033D02*
X0106296Y0125033D01*
X0106296Y0125631D02*
X0088382Y0125631D01*
X0088981Y0126230D02*
X0106296Y0126230D01*
X0106057Y0126828D02*
X0102974Y0126828D01*
X0102404Y0126258D02*
X0104688Y0128543D01*
X0104688Y0131774D01*
X0102404Y0134058D01*
X0099173Y0134058D01*
X0096888Y0131774D01*
X0096888Y0128543D01*
X0099173Y0126258D01*
X0102404Y0126258D01*
X0103572Y0127427D02*
X0105459Y0127427D01*
X0105088Y0128025D02*
X0104171Y0128025D01*
X0104688Y0128624D02*
X0105088Y0128624D01*
X0105088Y0129222D02*
X0104688Y0129222D01*
X0104688Y0129821D02*
X0105088Y0129821D01*
X0105088Y0130419D02*
X0104688Y0130419D01*
X0104688Y0131018D02*
X0105088Y0131018D01*
X0105088Y0131616D02*
X0104688Y0131616D01*
X0105088Y0132215D02*
X0104247Y0132215D01*
X0103649Y0132813D02*
X0105088Y0132813D01*
X0105088Y0133412D02*
X0103050Y0133412D01*
X0102452Y0134010D02*
X0105088Y0134010D01*
X0105088Y0134609D02*
X0034596Y0134609D01*
X0034596Y0135207D02*
X0105088Y0135207D01*
X0105088Y0135806D02*
X0034596Y0135806D01*
X0034596Y0136404D02*
X0058461Y0136404D01*
X0059007Y0135858D02*
X0060488Y0135858D01*
X0060488Y0139858D01*
X0061088Y0139858D01*
X0061088Y0135858D01*
X0062569Y0135858D01*
X0065088Y0138377D01*
X0065088Y0139858D01*
X0061088Y0139858D01*
X0061088Y0140458D01*
X0065088Y0140458D01*
X0065088Y0141939D01*
X0062569Y0144458D01*
X0061088Y0144458D01*
X0061088Y0140458D01*
X0060488Y0140458D01*
X0060488Y0139858D01*
X0056488Y0139858D01*
X0056488Y0138377D01*
X0059007Y0135858D01*
X0060488Y0136404D02*
X0061088Y0136404D01*
X0061088Y0137003D02*
X0060488Y0137003D01*
X0060488Y0137601D02*
X0061088Y0137601D01*
X0061088Y0138200D02*
X0060488Y0138200D01*
X0060488Y0138798D02*
X0061088Y0138798D01*
X0061088Y0139397D02*
X0060488Y0139397D01*
X0060488Y0139995D02*
X0034596Y0139995D01*
X0034596Y0139397D02*
X0056488Y0139397D01*
X0056488Y0138798D02*
X0034596Y0138798D01*
X0034596Y0138200D02*
X0056665Y0138200D01*
X0057264Y0137601D02*
X0034596Y0137601D01*
X0034596Y0137003D02*
X0057862Y0137003D01*
X0059173Y0134058D02*
X0056888Y0131774D01*
X0056888Y0128543D01*
X0059173Y0126258D01*
X0062404Y0126258D01*
X0064688Y0128543D01*
X0064688Y0131774D01*
X0062404Y0134058D01*
X0059173Y0134058D01*
X0059125Y0134010D02*
X0034596Y0134010D01*
X0034596Y0133412D02*
X0058526Y0133412D01*
X0057928Y0132813D02*
X0034596Y0132813D01*
X0034596Y0132215D02*
X0057329Y0132215D01*
X0056888Y0131616D02*
X0034596Y0131616D01*
X0034596Y0131018D02*
X0056888Y0131018D01*
X0056888Y0130419D02*
X0034596Y0130419D01*
X0034596Y0129821D02*
X0056888Y0129821D01*
X0056888Y0129222D02*
X0034596Y0129222D01*
X0034596Y0128624D02*
X0056888Y0128624D01*
X0057406Y0128025D02*
X0034596Y0128025D01*
X0034596Y0127427D02*
X0058004Y0127427D01*
X0058603Y0126828D02*
X0034596Y0126828D01*
X0034596Y0126230D02*
X0067888Y0126230D01*
X0067888Y0126828D02*
X0062974Y0126828D01*
X0063572Y0127427D02*
X0067888Y0127427D01*
X0067406Y0128025D02*
X0064171Y0128025D01*
X0064688Y0128624D02*
X0066888Y0128624D01*
X0066888Y0129222D02*
X0064688Y0129222D01*
X0064688Y0129821D02*
X0066888Y0129821D01*
X0066888Y0130419D02*
X0064688Y0130419D01*
X0064688Y0131018D02*
X0066888Y0131018D01*
X0066888Y0131616D02*
X0064688Y0131616D01*
X0064247Y0132215D02*
X0067329Y0132215D01*
X0067928Y0132813D02*
X0063649Y0132813D01*
X0063050Y0133412D02*
X0068526Y0133412D01*
X0069125Y0134010D02*
X0062452Y0134010D01*
X0063115Y0136404D02*
X0069027Y0136404D01*
X0069173Y0136258D02*
X0072404Y0136258D01*
X0074688Y0138543D01*
X0074688Y0141774D01*
X0072404Y0144058D01*
X0069173Y0144058D01*
X0066888Y0141774D01*
X0066888Y0138543D01*
X0069173Y0136258D01*
X0068428Y0137003D02*
X0063714Y0137003D01*
X0064312Y0137601D02*
X0067830Y0137601D01*
X0067231Y0138200D02*
X0064911Y0138200D01*
X0065088Y0138798D02*
X0066888Y0138798D01*
X0066888Y0139397D02*
X0065088Y0139397D01*
X0065088Y0140594D02*
X0066888Y0140594D01*
X0066888Y0141192D02*
X0065088Y0141192D01*
X0065088Y0141791D02*
X0066905Y0141791D01*
X0067504Y0142389D02*
X0064638Y0142389D01*
X0064040Y0142988D02*
X0068102Y0142988D01*
X0068701Y0143586D02*
X0063441Y0143586D01*
X0062843Y0144185D02*
X0126754Y0144185D01*
X0127352Y0144784D02*
X0034596Y0144784D01*
X0034596Y0145382D02*
X0127951Y0145382D01*
X0126155Y0143586D02*
X0122875Y0143586D01*
X0122404Y0144058D02*
X0119173Y0144058D01*
X0116888Y0141774D01*
X0116888Y0138543D01*
X0119173Y0136258D01*
X0122404Y0136258D01*
X0124688Y0138543D01*
X0124688Y0141774D01*
X0122404Y0144058D01*
X0123474Y0142988D02*
X0125557Y0142988D01*
X0125088Y0142389D02*
X0124072Y0142389D01*
X0124671Y0141791D02*
X0125088Y0141791D01*
X0125088Y0141192D02*
X0124688Y0141192D01*
X0124688Y0140594D02*
X0125088Y0140594D01*
X0125088Y0139995D02*
X0124688Y0139995D01*
X0124688Y0139397D02*
X0125088Y0139397D01*
X0125088Y0138798D02*
X0124688Y0138798D01*
X0124345Y0138200D02*
X0125088Y0138200D01*
X0125088Y0137601D02*
X0123747Y0137601D01*
X0123148Y0137003D02*
X0125088Y0137003D01*
X0124913Y0136404D02*
X0122550Y0136404D01*
X0123716Y0135207D02*
X0108088Y0135207D01*
X0108088Y0134609D02*
X0123117Y0134609D01*
X0122519Y0134010D02*
X0122452Y0134010D01*
X0124966Y0132215D02*
X0125088Y0132215D01*
X0125088Y0131616D02*
X0124688Y0131616D01*
X0124688Y0131018D02*
X0125088Y0131018D01*
X0125088Y0130419D02*
X0124688Y0130419D01*
X0124688Y0129821D02*
X0125088Y0129821D01*
X0125088Y0129222D02*
X0124688Y0129222D01*
X0124688Y0128624D02*
X0125088Y0128624D01*
X0125088Y0128025D02*
X0124171Y0128025D01*
X0123572Y0127427D02*
X0124990Y0127427D01*
X0124392Y0126828D02*
X0122974Y0126828D01*
X0123793Y0126230D02*
X0109296Y0126230D01*
X0109296Y0125631D02*
X0123195Y0125631D01*
X0122596Y0125033D02*
X0109296Y0125033D01*
X0109296Y0124434D02*
X0121998Y0124434D01*
X0121399Y0123836D02*
X0109296Y0123836D01*
X0109791Y0123237D02*
X0120801Y0123237D01*
X0120202Y0122639D02*
X0110390Y0122639D01*
X0110988Y0122040D02*
X0119604Y0122040D01*
X0119005Y0121442D02*
X0111587Y0121442D01*
X0112185Y0120843D02*
X0118407Y0120843D01*
X0117808Y0120245D02*
X0112784Y0120245D01*
X0113382Y0119646D02*
X0117210Y0119646D01*
X0118603Y0126828D02*
X0112974Y0126828D01*
X0113572Y0127427D02*
X0118004Y0127427D01*
X0117406Y0128025D02*
X0114171Y0128025D01*
X0114688Y0128624D02*
X0116888Y0128624D01*
X0116888Y0129222D02*
X0114688Y0129222D01*
X0114688Y0129821D02*
X0116888Y0129821D01*
X0116888Y0130419D02*
X0114688Y0130419D01*
X0114688Y0131018D02*
X0116888Y0131018D01*
X0116888Y0131616D02*
X0114688Y0131616D01*
X0114247Y0132215D02*
X0117329Y0132215D01*
X0117928Y0132813D02*
X0113649Y0132813D01*
X0113050Y0133412D02*
X0118526Y0133412D01*
X0119125Y0134010D02*
X0112452Y0134010D01*
X0112550Y0136404D02*
X0119027Y0136404D01*
X0118428Y0137003D02*
X0113148Y0137003D01*
X0113747Y0137601D02*
X0117830Y0137601D01*
X0117231Y0138200D02*
X0114345Y0138200D01*
X0114688Y0138798D02*
X0116888Y0138798D01*
X0116888Y0139397D02*
X0114688Y0139397D01*
X0114688Y0139995D02*
X0116888Y0139995D01*
X0116888Y0140594D02*
X0114688Y0140594D01*
X0114688Y0141192D02*
X0116888Y0141192D01*
X0116905Y0141791D02*
X0114671Y0141791D01*
X0114072Y0142389D02*
X0117504Y0142389D01*
X0118102Y0142988D02*
X0113474Y0142988D01*
X0112875Y0143586D02*
X0118701Y0143586D01*
X0124314Y0135806D02*
X0108557Y0135806D01*
X0106708Y0138200D02*
X0104345Y0138200D01*
X0104688Y0138543D02*
X0102404Y0136258D01*
X0099173Y0136258D01*
X0096888Y0138543D01*
X0096888Y0141774D01*
X0099173Y0144058D01*
X0102404Y0144058D01*
X0104688Y0141774D01*
X0104688Y0138543D01*
X0104688Y0138798D02*
X0106888Y0138798D01*
X0106888Y0139397D02*
X0104688Y0139397D01*
X0104688Y0139995D02*
X0106888Y0139995D01*
X0106888Y0140594D02*
X0104688Y0140594D01*
X0104688Y0141192D02*
X0106888Y0141192D01*
X0106905Y0141791D02*
X0104671Y0141791D01*
X0104072Y0142389D02*
X0107504Y0142389D01*
X0108102Y0142988D02*
X0103474Y0142988D01*
X0102875Y0143586D02*
X0108701Y0143586D01*
X0106110Y0137601D02*
X0103747Y0137601D01*
X0103148Y0137003D02*
X0105511Y0137003D01*
X0105088Y0136404D02*
X0102550Y0136404D01*
X0099027Y0136404D02*
X0092550Y0136404D01*
X0092404Y0136258D02*
X0094688Y0138543D01*
X0094688Y0141774D01*
X0092404Y0144058D01*
X0089173Y0144058D01*
X0086888Y0141774D01*
X0086888Y0138543D01*
X0089173Y0136258D01*
X0092404Y0136258D01*
X0093148Y0137003D02*
X0098428Y0137003D01*
X0097830Y0137601D02*
X0093747Y0137601D01*
X0094345Y0138200D02*
X0097231Y0138200D01*
X0096888Y0138798D02*
X0094688Y0138798D01*
X0094688Y0139397D02*
X0096888Y0139397D01*
X0096888Y0139995D02*
X0094688Y0139995D01*
X0094688Y0140594D02*
X0096888Y0140594D01*
X0096888Y0141192D02*
X0094688Y0141192D01*
X0094671Y0141791D02*
X0096905Y0141791D01*
X0097504Y0142389D02*
X0094072Y0142389D01*
X0093474Y0142988D02*
X0098102Y0142988D01*
X0098701Y0143586D02*
X0092875Y0143586D01*
X0088701Y0143586D02*
X0082875Y0143586D01*
X0082404Y0144058D02*
X0079173Y0144058D01*
X0076888Y0141774D01*
X0076888Y0138543D01*
X0079173Y0136258D01*
X0082404Y0136258D01*
X0084688Y0138543D01*
X0084688Y0141774D01*
X0082404Y0144058D01*
X0083474Y0142988D02*
X0088102Y0142988D01*
X0087504Y0142389D02*
X0084072Y0142389D01*
X0084671Y0141791D02*
X0086905Y0141791D01*
X0086888Y0141192D02*
X0084688Y0141192D01*
X0084688Y0140594D02*
X0086888Y0140594D01*
X0086888Y0139995D02*
X0084688Y0139995D01*
X0084688Y0139397D02*
X0086888Y0139397D01*
X0086888Y0138798D02*
X0084688Y0138798D01*
X0084345Y0138200D02*
X0087231Y0138200D01*
X0087830Y0137601D02*
X0083747Y0137601D01*
X0083148Y0137003D02*
X0088428Y0137003D01*
X0089027Y0136404D02*
X0082550Y0136404D01*
X0082404Y0134058D02*
X0079173Y0134058D01*
X0076888Y0131774D01*
X0076888Y0128543D01*
X0079173Y0126258D01*
X0082404Y0126258D01*
X0084688Y0128543D01*
X0084688Y0131774D01*
X0082404Y0134058D01*
X0082452Y0134010D02*
X0089125Y0134010D01*
X0088526Y0133412D02*
X0083050Y0133412D01*
X0083649Y0132813D02*
X0087928Y0132813D01*
X0087329Y0132215D02*
X0084247Y0132215D01*
X0084688Y0131616D02*
X0086888Y0131616D01*
X0086888Y0131018D02*
X0084688Y0131018D01*
X0084688Y0130419D02*
X0086888Y0130419D01*
X0086888Y0129821D02*
X0084688Y0129821D01*
X0084688Y0129222D02*
X0086888Y0129222D01*
X0086888Y0128624D02*
X0084688Y0128624D01*
X0084171Y0128025D02*
X0086534Y0128025D01*
X0085935Y0127427D02*
X0083572Y0127427D01*
X0082974Y0126828D02*
X0085337Y0126828D01*
X0084738Y0126230D02*
X0073688Y0126230D01*
X0073688Y0126828D02*
X0078603Y0126828D01*
X0078004Y0127427D02*
X0073688Y0127427D01*
X0074171Y0128025D02*
X0077406Y0128025D01*
X0076888Y0128624D02*
X0074688Y0128624D01*
X0074688Y0129222D02*
X0076888Y0129222D01*
X0076888Y0129821D02*
X0074688Y0129821D01*
X0074688Y0130419D02*
X0076888Y0130419D01*
X0076888Y0131018D02*
X0074688Y0131018D01*
X0074688Y0131616D02*
X0076888Y0131616D01*
X0077329Y0132215D02*
X0074247Y0132215D01*
X0073649Y0132813D02*
X0077928Y0132813D01*
X0078526Y0133412D02*
X0073050Y0133412D01*
X0072452Y0134010D02*
X0079125Y0134010D01*
X0079027Y0136404D02*
X0072550Y0136404D01*
X0073148Y0137003D02*
X0078428Y0137003D01*
X0077830Y0137601D02*
X0073747Y0137601D01*
X0074345Y0138200D02*
X0077231Y0138200D01*
X0076888Y0138798D02*
X0074688Y0138798D01*
X0074688Y0139397D02*
X0076888Y0139397D01*
X0076888Y0139995D02*
X0074688Y0139995D01*
X0074688Y0140594D02*
X0076888Y0140594D01*
X0076888Y0141192D02*
X0074688Y0141192D01*
X0074671Y0141791D02*
X0076905Y0141791D01*
X0077504Y0142389D02*
X0074072Y0142389D01*
X0073474Y0142988D02*
X0078102Y0142988D01*
X0078701Y0143586D02*
X0072875Y0143586D01*
X0066888Y0139995D02*
X0061088Y0139995D01*
X0061088Y0140594D02*
X0060488Y0140594D01*
X0060488Y0140458D02*
X0060488Y0144458D01*
X0059007Y0144458D01*
X0056488Y0141939D01*
X0056488Y0140458D01*
X0060488Y0140458D01*
X0060488Y0141192D02*
X0061088Y0141192D01*
X0061088Y0141791D02*
X0060488Y0141791D01*
X0060488Y0142389D02*
X0061088Y0142389D01*
X0061088Y0142988D02*
X0060488Y0142988D01*
X0060488Y0143586D02*
X0061088Y0143586D01*
X0061088Y0144185D02*
X0060488Y0144185D01*
X0058734Y0144185D02*
X0034596Y0144185D01*
X0034596Y0143586D02*
X0058135Y0143586D01*
X0057537Y0142988D02*
X0034596Y0142988D01*
X0034596Y0142389D02*
X0056938Y0142389D01*
X0056488Y0141791D02*
X0034596Y0141791D01*
X0034596Y0141192D02*
X0056488Y0141192D01*
X0056488Y0140594D02*
X0034596Y0140594D01*
X0034596Y0145981D02*
X0156980Y0145981D01*
X0156980Y0146579D02*
X0034596Y0146579D01*
X0034596Y0147178D02*
X0156980Y0147178D01*
X0156980Y0147776D02*
X0034596Y0147776D01*
X0034596Y0148375D02*
X0156980Y0148375D01*
X0156980Y0148973D02*
X0034596Y0148973D01*
X0034596Y0149572D02*
X0156980Y0149572D01*
X0156980Y0150170D02*
X0034596Y0150170D01*
X0034596Y0150769D02*
X0156980Y0150769D01*
X0156980Y0151367D02*
X0034596Y0151367D01*
X0034596Y0151966D02*
X0156980Y0151966D01*
X0156980Y0152564D02*
X0034596Y0152564D01*
X0034596Y0125631D02*
X0067888Y0125631D01*
X0067888Y0125033D02*
X0034596Y0125033D01*
X0034596Y0124434D02*
X0067888Y0124434D01*
X0067888Y0123836D02*
X0034596Y0123836D01*
X0034596Y0123237D02*
X0067888Y0123237D01*
X0067888Y0122639D02*
X0034596Y0122639D01*
X0034596Y0122040D02*
X0067888Y0122040D01*
X0067888Y0121442D02*
X0034596Y0121442D01*
X0034596Y0120843D02*
X0067888Y0120843D01*
X0067888Y0120245D02*
X0034596Y0120245D01*
X0034596Y0119646D02*
X0067888Y0119646D01*
X0067888Y0119048D02*
X0034596Y0119048D01*
X0034596Y0118449D02*
X0067888Y0118449D01*
X0067888Y0117851D02*
X0034596Y0117851D01*
X0034596Y0117252D02*
X0067888Y0117252D01*
X0067888Y0116653D02*
X0034596Y0116653D01*
X0034596Y0116055D02*
X0067888Y0116055D01*
X0067888Y0115456D02*
X0034596Y0115456D01*
X0034596Y0114858D02*
X0067888Y0114858D01*
X0067888Y0114259D02*
X0034596Y0114259D01*
X0034596Y0113661D02*
X0067888Y0113661D01*
X0067888Y0113062D02*
X0034596Y0113062D01*
X0034596Y0112464D02*
X0067888Y0112464D01*
X0067888Y0111865D02*
X0034596Y0111865D01*
X0034596Y0111267D02*
X0067888Y0111267D01*
X0067888Y0110668D02*
X0034596Y0110668D01*
X0034596Y0110070D02*
X0067888Y0110070D01*
X0067888Y0109471D02*
X0034596Y0109471D01*
X0034596Y0108873D02*
X0067888Y0108873D01*
X0067888Y0108274D02*
X0034596Y0108274D01*
X0034596Y0107676D02*
X0067888Y0107676D01*
X0067888Y0107077D02*
X0059318Y0107077D01*
X0057990Y0107628D02*
X0054846Y0107628D01*
X0051942Y0106424D01*
X0049719Y0104202D01*
X0048516Y0101297D01*
X0048516Y0098153D01*
X0049719Y0095249D01*
X0051942Y0093026D01*
X0054846Y0091823D01*
X0057990Y0091823D01*
X0060894Y0093026D01*
X0063117Y0095249D01*
X0064320Y0098153D01*
X0064320Y0101297D01*
X0063117Y0104202D01*
X0060894Y0106424D01*
X0057990Y0107628D01*
X0060763Y0106479D02*
X0067888Y0106479D01*
X0067888Y0105880D02*
X0061439Y0105880D01*
X0062037Y0105282D02*
X0067888Y0105282D01*
X0067888Y0104683D02*
X0062636Y0104683D01*
X0063166Y0104085D02*
X0067888Y0104085D01*
X0067888Y0103486D02*
X0063414Y0103486D01*
X0063662Y0102888D02*
X0067888Y0102888D01*
X0067888Y0102289D02*
X0063910Y0102289D01*
X0064157Y0101691D02*
X0067888Y0101691D01*
X0067888Y0101092D02*
X0064320Y0101092D01*
X0064320Y0100494D02*
X0067888Y0100494D01*
X0067888Y0099895D02*
X0064320Y0099895D01*
X0064320Y0099297D02*
X0067888Y0099297D01*
X0067888Y0098698D02*
X0064320Y0098698D01*
X0064298Y0098100D02*
X0067888Y0098100D01*
X0067888Y0097501D02*
X0064050Y0097501D01*
X0063802Y0096903D02*
X0067888Y0096903D01*
X0067888Y0096304D02*
X0063554Y0096304D01*
X0063307Y0095706D02*
X0067888Y0095706D01*
X0067888Y0095107D02*
X0062976Y0095107D01*
X0062377Y0094509D02*
X0067888Y0094509D01*
X0067888Y0093910D02*
X0061779Y0093910D01*
X0061180Y0093312D02*
X0067888Y0093312D01*
X0067888Y0092713D02*
X0060139Y0092713D01*
X0058694Y0092115D02*
X0067888Y0092115D01*
X0067888Y0091516D02*
X0034596Y0091516D01*
X0034596Y0090917D02*
X0067888Y0090917D01*
X0067888Y0090319D02*
X0034596Y0090319D01*
X0034596Y0089720D02*
X0067888Y0089720D01*
X0067888Y0089122D02*
X0034596Y0089122D01*
X0034596Y0088523D02*
X0067888Y0088523D01*
X0067888Y0087925D02*
X0034596Y0087925D01*
X0034596Y0087326D02*
X0067888Y0087326D01*
X0067888Y0086728D02*
X0034596Y0086728D01*
X0034596Y0086129D02*
X0067888Y0086129D01*
X0067888Y0085531D02*
X0034596Y0085531D01*
X0034596Y0084932D02*
X0067888Y0084932D01*
X0067888Y0084334D02*
X0034596Y0084334D01*
X0034596Y0083735D02*
X0067888Y0083735D01*
X0067888Y0083137D02*
X0034596Y0083137D01*
X0034596Y0082538D02*
X0067888Y0082538D01*
X0067524Y0081940D02*
X0034596Y0081940D01*
X0034596Y0081341D02*
X0066925Y0081341D01*
X0066327Y0080743D02*
X0034596Y0080743D01*
X0034596Y0080144D02*
X0065728Y0080144D01*
X0065130Y0079546D02*
X0034596Y0079546D01*
X0034596Y0078947D02*
X0064531Y0078947D01*
X0063933Y0078349D02*
X0034596Y0078349D01*
X0034596Y0077750D02*
X0063334Y0077750D01*
X0062736Y0077152D02*
X0034596Y0077152D01*
X0034596Y0076553D02*
X0062137Y0076553D01*
X0061539Y0075955D02*
X0034596Y0075955D01*
X0034596Y0075356D02*
X0060940Y0075356D01*
X0060342Y0074758D02*
X0034596Y0074758D01*
X0034596Y0074159D02*
X0060091Y0074159D01*
X0059896Y0073561D02*
X0034596Y0073561D01*
X0034596Y0072962D02*
X0059896Y0072962D01*
X0059896Y0072364D02*
X0034596Y0072364D01*
X0034596Y0071765D02*
X0059896Y0071765D01*
X0059896Y0071167D02*
X0034596Y0071167D01*
X0034596Y0070568D02*
X0059896Y0070568D01*
X0059896Y0069970D02*
X0034596Y0069970D01*
X0034596Y0069371D02*
X0059896Y0069371D01*
X0059896Y0068773D02*
X0034596Y0068773D01*
X0034596Y0068174D02*
X0059896Y0068174D01*
X0059896Y0067576D02*
X0034596Y0067576D01*
X0034596Y0066977D02*
X0059896Y0066977D01*
X0059896Y0066379D02*
X0034596Y0066379D01*
X0034596Y0092115D02*
X0054142Y0092115D01*
X0052697Y0092713D02*
X0034596Y0092713D01*
X0034596Y0093312D02*
X0051656Y0093312D01*
X0051058Y0093910D02*
X0034596Y0093910D01*
X0034596Y0094509D02*
X0050459Y0094509D01*
X0049861Y0095107D02*
X0034596Y0095107D01*
X0034596Y0095706D02*
X0049530Y0095706D01*
X0049282Y0096304D02*
X0034596Y0096304D01*
X0034596Y0096903D02*
X0049034Y0096903D01*
X0048786Y0097501D02*
X0034596Y0097501D01*
X0034596Y0098100D02*
X0048538Y0098100D01*
X0048516Y0098698D02*
X0034596Y0098698D01*
X0034596Y0099297D02*
X0048516Y0099297D01*
X0048516Y0099895D02*
X0034596Y0099895D01*
X0034596Y0100494D02*
X0048516Y0100494D01*
X0048516Y0101092D02*
X0034596Y0101092D01*
X0034596Y0101691D02*
X0048679Y0101691D01*
X0048927Y0102289D02*
X0034596Y0102289D01*
X0034596Y0102888D02*
X0049175Y0102888D01*
X0049423Y0103486D02*
X0034596Y0103486D01*
X0034596Y0104085D02*
X0049670Y0104085D01*
X0050201Y0104683D02*
X0034596Y0104683D01*
X0034596Y0105282D02*
X0050799Y0105282D01*
X0051398Y0105880D02*
X0034596Y0105880D01*
X0034596Y0106479D02*
X0052073Y0106479D01*
X0053518Y0107077D02*
X0034596Y0107077D01*
X0069741Y0075955D02*
X0077241Y0075955D01*
X0077241Y0076553D02*
X0070339Y0076553D01*
X0070938Y0077152D02*
X0077241Y0077152D01*
X0077241Y0077750D02*
X0071537Y0077750D01*
X0072135Y0078349D02*
X0077241Y0078349D01*
X0077241Y0078947D02*
X0072734Y0078947D01*
X0073282Y0079546D02*
X0077241Y0079546D01*
X0077241Y0080144D02*
X0073530Y0080144D01*
X0073688Y0080743D02*
X0077241Y0080743D01*
X0077241Y0081341D02*
X0073688Y0081341D01*
X0073688Y0081940D02*
X0077241Y0081940D01*
X0077241Y0082538D02*
X0073688Y0082538D01*
X0073688Y0083137D02*
X0077241Y0083137D01*
X0077241Y0083735D02*
X0073688Y0083735D01*
X0073688Y0084334D02*
X0077241Y0084334D01*
X0077241Y0084932D02*
X0073688Y0084932D01*
X0073688Y0085531D02*
X0077241Y0085531D01*
X0077241Y0086129D02*
X0073688Y0086129D01*
X0073688Y0086728D02*
X0077241Y0086728D01*
X0077241Y0087326D02*
X0073688Y0087326D01*
X0073688Y0087925D02*
X0077241Y0087925D01*
X0077241Y0088523D02*
X0073688Y0088523D01*
X0073688Y0089122D02*
X0077241Y0089122D01*
X0077241Y0089720D02*
X0073688Y0089720D01*
X0073688Y0090319D02*
X0077241Y0090319D01*
X0077241Y0090917D02*
X0073688Y0090917D01*
X0073688Y0091516D02*
X0077241Y0091516D01*
X0077241Y0092115D02*
X0073688Y0092115D01*
X0073688Y0092713D02*
X0077241Y0092713D01*
X0077241Y0093312D02*
X0073688Y0093312D01*
X0073688Y0093910D02*
X0077241Y0093910D01*
X0077241Y0094509D02*
X0073688Y0094509D01*
X0073688Y0095107D02*
X0077241Y0095107D01*
X0077241Y0095706D02*
X0073688Y0095706D01*
X0073688Y0096304D02*
X0077241Y0096304D01*
X0077241Y0096903D02*
X0073688Y0096903D01*
X0073688Y0097501D02*
X0077241Y0097501D01*
X0077241Y0098100D02*
X0073688Y0098100D01*
X0073688Y0098698D02*
X0077241Y0098698D01*
X0077241Y0099297D02*
X0073688Y0099297D01*
X0073688Y0099895D02*
X0077241Y0099895D01*
X0077241Y0100494D02*
X0073688Y0100494D01*
X0073688Y0101092D02*
X0077241Y0101092D01*
X0077241Y0101691D02*
X0073688Y0101691D01*
X0073688Y0102289D02*
X0077241Y0102289D01*
X0077241Y0102888D02*
X0073688Y0102888D01*
X0073688Y0103486D02*
X0077241Y0103486D01*
X0077241Y0104085D02*
X0073688Y0104085D01*
X0073688Y0104683D02*
X0077241Y0104683D01*
X0077241Y0105282D02*
X0073688Y0105282D01*
X0073688Y0105880D02*
X0077241Y0105880D01*
X0077241Y0106479D02*
X0073688Y0106479D01*
X0073688Y0107077D02*
X0077241Y0107077D01*
X0077241Y0107676D02*
X0073688Y0107676D01*
X0073688Y0108274D02*
X0077241Y0108274D01*
X0077241Y0108873D02*
X0073688Y0108873D01*
X0073688Y0109471D02*
X0077241Y0109471D01*
X0077241Y0110070D02*
X0073688Y0110070D01*
X0073688Y0110668D02*
X0077241Y0110668D01*
X0077241Y0111267D02*
X0073688Y0111267D01*
X0073688Y0111865D02*
X0077241Y0111865D01*
X0077241Y0112464D02*
X0073688Y0112464D01*
X0073688Y0113062D02*
X0077241Y0113062D01*
X0077241Y0113661D02*
X0073688Y0113661D01*
X0073688Y0114259D02*
X0077241Y0114259D01*
X0077241Y0114858D02*
X0073688Y0114858D01*
X0073688Y0115456D02*
X0077241Y0115456D01*
X0077241Y0116055D02*
X0073688Y0116055D01*
X0073688Y0116653D02*
X0077241Y0116653D01*
X0077241Y0117252D02*
X0073688Y0117252D01*
X0073688Y0117851D02*
X0077241Y0117851D01*
X0077241Y0118449D02*
X0073688Y0118449D01*
X0073688Y0119048D02*
X0077556Y0119048D01*
X0078155Y0119646D02*
X0073688Y0119646D01*
X0073688Y0120245D02*
X0078753Y0120245D01*
X0079352Y0120843D02*
X0073688Y0120843D01*
X0073688Y0121442D02*
X0079950Y0121442D01*
X0080549Y0122040D02*
X0073688Y0122040D01*
X0073688Y0122639D02*
X0081147Y0122639D01*
X0081746Y0123237D02*
X0073688Y0123237D01*
X0073688Y0123836D02*
X0082344Y0123836D01*
X0082943Y0124434D02*
X0073688Y0124434D01*
X0073688Y0125033D02*
X0083541Y0125033D01*
X0084140Y0125631D02*
X0073688Y0125631D01*
X0080241Y0115456D02*
X0129288Y0115456D01*
X0129288Y0114858D02*
X0080241Y0114858D01*
X0080241Y0114259D02*
X0129288Y0114259D01*
X0129288Y0113661D02*
X0080241Y0113661D01*
X0080241Y0113062D02*
X0129288Y0113062D01*
X0129288Y0112464D02*
X0080241Y0112464D01*
X0080241Y0111865D02*
X0129288Y0111865D01*
X0129288Y0111267D02*
X0080241Y0111267D01*
X0080241Y0110668D02*
X0128845Y0110668D01*
X0128246Y0110070D02*
X0080241Y0110070D01*
X0080241Y0109471D02*
X0127648Y0109471D01*
X0127049Y0108873D02*
X0080241Y0108873D01*
X0080241Y0108274D02*
X0126451Y0108274D01*
X0125852Y0107676D02*
X0080241Y0107676D01*
X0080241Y0107077D02*
X0125254Y0107077D01*
X0124655Y0106479D02*
X0080241Y0106479D01*
X0080241Y0105880D02*
X0124057Y0105880D01*
X0123458Y0105282D02*
X0080241Y0105282D01*
X0080241Y0104683D02*
X0122956Y0104683D01*
X0122956Y0104085D02*
X0080241Y0104085D01*
X0080241Y0103486D02*
X0122956Y0103486D01*
X0122956Y0102888D02*
X0080241Y0102888D01*
X0080241Y0102289D02*
X0122956Y0102289D01*
X0122956Y0101691D02*
X0080241Y0101691D01*
X0080241Y0101092D02*
X0122956Y0101092D01*
X0122956Y0100494D02*
X0080241Y0100494D01*
X0080241Y0099895D02*
X0122956Y0099895D01*
X0122956Y0099297D02*
X0080241Y0099297D01*
X0080241Y0098698D02*
X0122956Y0098698D01*
X0122956Y0098100D02*
X0080241Y0098100D01*
X0080241Y0097501D02*
X0122956Y0097501D01*
X0122956Y0096903D02*
X0080241Y0096903D01*
X0080241Y0096304D02*
X0122844Y0096304D01*
X0122246Y0095706D02*
X0080241Y0095706D01*
X0080241Y0095107D02*
X0121647Y0095107D01*
X0121049Y0094509D02*
X0080241Y0094509D01*
X0080241Y0093910D02*
X0120450Y0093910D01*
X0119852Y0093312D02*
X0080241Y0093312D01*
X0080241Y0092713D02*
X0119253Y0092713D01*
X0118655Y0092115D02*
X0080241Y0092115D01*
X0080241Y0091516D02*
X0118056Y0091516D01*
X0117458Y0090917D02*
X0080241Y0090917D01*
X0080241Y0090319D02*
X0116859Y0090319D01*
X0116261Y0089720D02*
X0080241Y0089720D01*
X0080241Y0089122D02*
X0115662Y0089122D01*
X0115064Y0088523D02*
X0080241Y0088523D01*
X0080241Y0087925D02*
X0114465Y0087925D01*
X0113867Y0087326D02*
X0080241Y0087326D01*
X0080241Y0086728D02*
X0113268Y0086728D01*
X0112670Y0086129D02*
X0080241Y0086129D01*
X0080241Y0085531D02*
X0112071Y0085531D01*
X0111472Y0084932D02*
X0080241Y0084932D01*
X0080241Y0084334D02*
X0110874Y0084334D01*
X0110275Y0083735D02*
X0080241Y0083735D01*
X0080241Y0083137D02*
X0109677Y0083137D01*
X0109078Y0082538D02*
X0080241Y0082538D01*
X0080241Y0081940D02*
X0108480Y0081940D01*
X0107881Y0081341D02*
X0080241Y0081341D01*
X0080241Y0080743D02*
X0107283Y0080743D01*
X0106684Y0080144D02*
X0080241Y0080144D01*
X0080241Y0079546D02*
X0106086Y0079546D01*
X0105487Y0078947D02*
X0080241Y0078947D01*
X0080241Y0078349D02*
X0104889Y0078349D01*
X0104290Y0077750D02*
X0080241Y0077750D01*
X0080241Y0077152D02*
X0103692Y0077152D01*
X0103093Y0076553D02*
X0080241Y0076553D01*
X0080241Y0075955D02*
X0102495Y0075955D01*
X0101896Y0075356D02*
X0080241Y0075356D01*
X0080241Y0074758D02*
X0101298Y0074758D01*
X0100699Y0074159D02*
X0080241Y0074159D01*
X0080241Y0073561D02*
X0100101Y0073561D01*
X0099502Y0072962D02*
X0080241Y0072962D01*
X0080772Y0072364D02*
X0085726Y0072364D01*
X0085916Y0072554D02*
X0083313Y0069951D01*
X0083313Y0066271D01*
X0085916Y0063668D01*
X0089597Y0063668D01*
X0092200Y0066271D01*
X0092200Y0069951D01*
X0089597Y0072554D01*
X0085916Y0072554D01*
X0085127Y0071765D02*
X0081371Y0071765D01*
X0081969Y0071167D02*
X0084529Y0071167D01*
X0083930Y0070568D02*
X0082568Y0070568D01*
X0083166Y0069970D02*
X0083331Y0069970D01*
X0083313Y0069371D02*
X0083184Y0069371D01*
X0083184Y0068773D02*
X0083313Y0068773D01*
X0083313Y0068174D02*
X0083184Y0068174D01*
X0083184Y0067576D02*
X0083313Y0067576D01*
X0083313Y0066977D02*
X0083184Y0066977D01*
X0083184Y0066379D02*
X0083313Y0066379D01*
X0083804Y0065780D02*
X0082694Y0065780D01*
X0082095Y0065182D02*
X0084402Y0065182D01*
X0085001Y0064583D02*
X0081497Y0064583D01*
X0080898Y0063984D02*
X0085599Y0063984D01*
X0085109Y0062554D02*
X0081428Y0062554D01*
X0078825Y0059951D01*
X0078825Y0056271D01*
X0081428Y0053668D01*
X0085109Y0053668D01*
X0087712Y0056271D01*
X0087712Y0059951D01*
X0085109Y0062554D01*
X0085474Y0062189D02*
X0090078Y0062189D01*
X0089480Y0061590D02*
X0086073Y0061590D01*
X0086671Y0060992D02*
X0088881Y0060992D01*
X0088283Y0060393D02*
X0087270Y0060393D01*
X0087712Y0059795D02*
X0087841Y0059795D01*
X0087841Y0059196D02*
X0087712Y0059196D01*
X0087712Y0058598D02*
X0087841Y0058598D01*
X0087841Y0057999D02*
X0087712Y0057999D01*
X0087712Y0057401D02*
X0087841Y0057401D01*
X0087841Y0056802D02*
X0087712Y0056802D01*
X0087645Y0056204D02*
X0087908Y0056204D01*
X0088506Y0055605D02*
X0087047Y0055605D01*
X0086448Y0055007D02*
X0089105Y0055007D01*
X0089703Y0054408D02*
X0085850Y0054408D01*
X0085251Y0053810D02*
X0090302Y0053810D01*
X0088057Y0052613D02*
X0087457Y0052613D01*
X0087457Y0052014D02*
X0088057Y0052014D01*
X0088057Y0051416D02*
X0087457Y0051416D01*
X0087457Y0050817D02*
X0088057Y0050817D01*
X0088057Y0050219D02*
X0087457Y0050219D01*
X0087457Y0049620D02*
X0088057Y0049620D01*
X0088057Y0049022D02*
X0087457Y0049022D01*
X0087457Y0048423D02*
X0088057Y0048423D01*
X0088057Y0047226D02*
X0087457Y0047226D01*
X0087457Y0046628D02*
X0088057Y0046628D01*
X0084785Y0044234D02*
X0081147Y0044234D01*
X0081746Y0044832D02*
X0084186Y0044832D01*
X0083588Y0045431D02*
X0082344Y0045431D01*
X0082943Y0046029D02*
X0082989Y0046029D01*
X0082917Y0050219D02*
X0083015Y0050219D01*
X0083613Y0050817D02*
X0082318Y0050817D01*
X0081720Y0051416D02*
X0084212Y0051416D01*
X0084810Y0052014D02*
X0081121Y0052014D01*
X0081286Y0053810D02*
X0076235Y0053810D01*
X0076834Y0054408D02*
X0080687Y0054408D01*
X0080089Y0055007D02*
X0077432Y0055007D01*
X0078031Y0055605D02*
X0079490Y0055605D01*
X0078892Y0056204D02*
X0078629Y0056204D01*
X0078696Y0056802D02*
X0078825Y0056802D01*
X0078825Y0057401D02*
X0078696Y0057401D01*
X0078696Y0057999D02*
X0078825Y0057999D01*
X0078825Y0058598D02*
X0078696Y0058598D01*
X0078696Y0059196D02*
X0078825Y0059196D01*
X0078825Y0059795D02*
X0078696Y0059795D01*
X0078254Y0060393D02*
X0079267Y0060393D01*
X0079866Y0060992D02*
X0077656Y0060992D01*
X0077057Y0061590D02*
X0080464Y0061590D01*
X0081063Y0062189D02*
X0076459Y0062189D01*
X0076584Y0063984D02*
X0065696Y0063984D01*
X0065696Y0063386D02*
X0113469Y0063386D01*
X0112871Y0062787D02*
X0065696Y0062787D01*
X0065696Y0062189D02*
X0072047Y0062189D01*
X0071448Y0061590D02*
X0065696Y0061590D01*
X0065696Y0060992D02*
X0070850Y0060992D01*
X0070251Y0060393D02*
X0065696Y0060393D01*
X0065696Y0059795D02*
X0069809Y0059795D01*
X0069809Y0059196D02*
X0065812Y0059196D01*
X0066410Y0058598D02*
X0069809Y0058598D01*
X0069809Y0057999D02*
X0067009Y0057999D01*
X0067607Y0057401D02*
X0069809Y0057401D01*
X0069809Y0056802D02*
X0068206Y0056802D01*
X0068804Y0056204D02*
X0069876Y0056204D01*
X0069403Y0055605D02*
X0070475Y0055605D01*
X0070001Y0055007D02*
X0071073Y0055007D01*
X0072396Y0052613D02*
X0085409Y0052613D01*
X0076360Y0052014D02*
X0072994Y0052014D01*
X0073593Y0051416D02*
X0075762Y0051416D01*
X0075985Y0064583D02*
X0065696Y0064583D01*
X0065696Y0065182D02*
X0075387Y0065182D01*
X0074788Y0065780D02*
X0065696Y0065780D01*
X0065696Y0066379D02*
X0074298Y0066379D01*
X0074298Y0066977D02*
X0065696Y0066977D01*
X0065696Y0067576D02*
X0074298Y0067576D01*
X0074298Y0068174D02*
X0065696Y0068174D01*
X0065696Y0068773D02*
X0074298Y0068773D01*
X0074298Y0069371D02*
X0065696Y0069371D01*
X0065696Y0069970D02*
X0074316Y0069970D01*
X0074914Y0070568D02*
X0065696Y0070568D01*
X0065696Y0071167D02*
X0075513Y0071167D01*
X0076111Y0071765D02*
X0065696Y0071765D01*
X0066150Y0072364D02*
X0076710Y0072364D01*
X0077241Y0072962D02*
X0066748Y0072962D01*
X0067347Y0073561D02*
X0077241Y0073561D01*
X0077241Y0074159D02*
X0067945Y0074159D01*
X0068544Y0074758D02*
X0077241Y0074758D01*
X0077241Y0075356D02*
X0069142Y0075356D01*
X0089788Y0072364D02*
X0094741Y0072364D01*
X0094143Y0071765D02*
X0090386Y0071765D01*
X0090985Y0071167D02*
X0093544Y0071167D01*
X0092946Y0070568D02*
X0091583Y0070568D01*
X0092182Y0069970D02*
X0092347Y0069970D01*
X0092329Y0069371D02*
X0092200Y0069371D01*
X0092200Y0068773D02*
X0092329Y0068773D01*
X0092329Y0068174D02*
X0092200Y0068174D01*
X0092200Y0067576D02*
X0092329Y0067576D01*
X0092329Y0066977D02*
X0092200Y0066977D01*
X0092200Y0066379D02*
X0092329Y0066379D01*
X0092820Y0065780D02*
X0091709Y0065780D01*
X0091111Y0065182D02*
X0093418Y0065182D01*
X0094017Y0064583D02*
X0090512Y0064583D01*
X0089914Y0063984D02*
X0094615Y0063984D01*
X0103506Y0062189D02*
X0108110Y0062189D01*
X0107511Y0061590D02*
X0104104Y0061590D01*
X0104703Y0060992D02*
X0106913Y0060992D01*
X0106314Y0060393D02*
X0105301Y0060393D01*
X0105743Y0059795D02*
X0105872Y0059795D01*
X0105872Y0059196D02*
X0105743Y0059196D01*
X0105743Y0058598D02*
X0105872Y0058598D01*
X0105872Y0057999D02*
X0105743Y0057999D01*
X0105743Y0057401D02*
X0105872Y0057401D01*
X0105872Y0056802D02*
X0105743Y0056802D01*
X0105677Y0056204D02*
X0105939Y0056204D01*
X0106538Y0055605D02*
X0105078Y0055605D01*
X0104480Y0055007D02*
X0107136Y0055007D01*
X0107735Y0054408D02*
X0103881Y0054408D01*
X0103283Y0053810D02*
X0108333Y0053810D01*
X0107629Y0052554D02*
X0103948Y0052554D01*
X0101345Y0049951D01*
X0101345Y0046271D01*
X0103948Y0043668D01*
X0107629Y0043668D01*
X0110231Y0046271D01*
X0110231Y0049951D01*
X0107629Y0052554D01*
X0108169Y0052014D02*
X0112423Y0052014D01*
X0111825Y0051416D02*
X0108767Y0051416D01*
X0109366Y0050817D02*
X0111226Y0050817D01*
X0110628Y0050219D02*
X0109964Y0050219D01*
X0110231Y0049620D02*
X0110361Y0049620D01*
X0110361Y0049022D02*
X0110231Y0049022D01*
X0110231Y0048423D02*
X0110361Y0048423D01*
X0110361Y0047825D02*
X0110231Y0047825D01*
X0110231Y0047226D02*
X0110361Y0047226D01*
X0110361Y0046628D02*
X0110231Y0046628D01*
X0109990Y0046029D02*
X0110602Y0046029D01*
X0111201Y0045431D02*
X0109392Y0045431D01*
X0108793Y0044832D02*
X0111799Y0044832D01*
X0112398Y0044234D02*
X0108195Y0044234D01*
X0103382Y0044234D02*
X0099179Y0044234D01*
X0099777Y0044832D02*
X0102783Y0044832D01*
X0102185Y0045431D02*
X0100376Y0045431D01*
X0100974Y0046029D02*
X0101586Y0046029D01*
X0101345Y0046628D02*
X0101216Y0046628D01*
X0101216Y0047226D02*
X0101345Y0047226D01*
X0101345Y0047825D02*
X0101216Y0047825D01*
X0101216Y0048423D02*
X0101345Y0048423D01*
X0101345Y0049022D02*
X0101216Y0049022D01*
X0101216Y0049620D02*
X0101345Y0049620D01*
X0101612Y0050219D02*
X0100948Y0050219D01*
X0100350Y0050817D02*
X0102211Y0050817D01*
X0102809Y0051416D02*
X0099751Y0051416D01*
X0099153Y0052014D02*
X0103408Y0052014D01*
X0112298Y0053810D02*
X0113304Y0053810D01*
X0113304Y0054408D02*
X0112897Y0054408D01*
X0116304Y0054408D02*
X0137961Y0054408D01*
X0138209Y0053810D02*
X0116304Y0053810D01*
X0116304Y0053211D02*
X0138705Y0053211D01*
X0138282Y0053635D02*
X0140505Y0051412D01*
X0143409Y0050209D01*
X0146553Y0050209D01*
X0149457Y0051412D01*
X0151680Y0053635D01*
X0152883Y0056539D01*
X0152883Y0059683D01*
X0151680Y0062587D01*
X0149457Y0064810D01*
X0146553Y0066013D01*
X0143409Y0066013D01*
X0140505Y0064810D01*
X0138282Y0062587D01*
X0137079Y0059683D01*
X0137079Y0056539D01*
X0138282Y0053635D01*
X0139304Y0052613D02*
X0116304Y0052613D01*
X0117184Y0052014D02*
X0139902Y0052014D01*
X0140501Y0051416D02*
X0117783Y0051416D01*
X0118381Y0050817D02*
X0141940Y0050817D01*
X0143385Y0050219D02*
X0118980Y0050219D01*
X0119247Y0049620D02*
X0156980Y0049620D01*
X0156980Y0049022D02*
X0119247Y0049022D01*
X0119247Y0048423D02*
X0156980Y0048423D01*
X0156980Y0047825D02*
X0119247Y0047825D01*
X0119247Y0047226D02*
X0156980Y0047226D01*
X0156980Y0046628D02*
X0119247Y0046628D01*
X0119006Y0046029D02*
X0156980Y0046029D01*
X0156980Y0045431D02*
X0118407Y0045431D01*
X0117809Y0044832D02*
X0156980Y0044832D01*
X0156980Y0044234D02*
X0117210Y0044234D01*
X0116304Y0055007D02*
X0137713Y0055007D01*
X0137466Y0055605D02*
X0116639Y0055605D01*
X0117238Y0056204D02*
X0137218Y0056204D01*
X0137079Y0056802D02*
X0117836Y0056802D01*
X0118435Y0057401D02*
X0137079Y0057401D01*
X0137079Y0057999D02*
X0119033Y0057999D01*
X0119632Y0058598D02*
X0137079Y0058598D01*
X0137079Y0059196D02*
X0120231Y0059196D01*
X0120829Y0059795D02*
X0137125Y0059795D01*
X0137373Y0060393D02*
X0121428Y0060393D01*
X0122026Y0060992D02*
X0137621Y0060992D01*
X0137869Y0061590D02*
X0122625Y0061590D01*
X0123223Y0062189D02*
X0138117Y0062189D01*
X0138482Y0062787D02*
X0123822Y0062787D01*
X0124420Y0063386D02*
X0139080Y0063386D01*
X0139679Y0063984D02*
X0125019Y0063984D01*
X0125617Y0064583D02*
X0140277Y0064583D01*
X0141401Y0065182D02*
X0126216Y0065182D01*
X0126814Y0065780D02*
X0142846Y0065780D01*
X0147116Y0065780D02*
X0156980Y0065780D01*
X0156980Y0065182D02*
X0148561Y0065182D01*
X0149685Y0064583D02*
X0156980Y0064583D01*
X0156980Y0063984D02*
X0150283Y0063984D01*
X0150882Y0063386D02*
X0156980Y0063386D01*
X0156980Y0062787D02*
X0151480Y0062787D01*
X0151845Y0062189D02*
X0156980Y0062189D01*
X0156980Y0061590D02*
X0152093Y0061590D01*
X0152341Y0060992D02*
X0156980Y0060992D01*
X0156980Y0060393D02*
X0152589Y0060393D01*
X0152837Y0059795D02*
X0156980Y0059795D01*
X0156980Y0059196D02*
X0152883Y0059196D01*
X0152883Y0058598D02*
X0156980Y0058598D01*
X0156980Y0057999D02*
X0152883Y0057999D01*
X0152883Y0057401D02*
X0156980Y0057401D01*
X0156980Y0056802D02*
X0152883Y0056802D01*
X0152745Y0056204D02*
X0156980Y0056204D01*
X0156980Y0055605D02*
X0152497Y0055605D01*
X0152249Y0055007D02*
X0156980Y0055007D01*
X0156980Y0054408D02*
X0152001Y0054408D01*
X0151753Y0053810D02*
X0156980Y0053810D01*
X0156980Y0053211D02*
X0151257Y0053211D01*
X0150658Y0052613D02*
X0156980Y0052613D01*
X0156980Y0052014D02*
X0150060Y0052014D01*
X0149461Y0051416D02*
X0156980Y0051416D01*
X0156980Y0050817D02*
X0148022Y0050817D01*
X0146577Y0050219D02*
X0156980Y0050219D01*
X0156980Y0066379D02*
X0127413Y0066379D01*
X0128011Y0066977D02*
X0156980Y0066977D01*
X0156980Y0067576D02*
X0128610Y0067576D01*
X0129208Y0068174D02*
X0156980Y0068174D01*
X0156980Y0068773D02*
X0129807Y0068773D01*
X0130405Y0069371D02*
X0156980Y0069371D01*
X0156980Y0069970D02*
X0131004Y0069970D01*
X0131602Y0070568D02*
X0156980Y0070568D01*
X0156980Y0071167D02*
X0132201Y0071167D01*
X0132799Y0071765D02*
X0156980Y0071765D01*
X0156980Y0072364D02*
X0133398Y0072364D01*
X0133996Y0072962D02*
X0156980Y0072962D01*
X0156980Y0073561D02*
X0134595Y0073561D01*
X0135193Y0074159D02*
X0156980Y0074159D01*
X0156980Y0074758D02*
X0135792Y0074758D01*
X0136390Y0075356D02*
X0156980Y0075356D01*
X0156980Y0075955D02*
X0136989Y0075955D01*
X0137587Y0076553D02*
X0156980Y0076553D01*
X0156980Y0077152D02*
X0138186Y0077152D01*
X0138784Y0077750D02*
X0156980Y0077750D01*
X0156980Y0078349D02*
X0139383Y0078349D01*
X0139981Y0078947D02*
X0156980Y0078947D01*
X0156980Y0079546D02*
X0140580Y0079546D01*
X0141178Y0080144D02*
X0156980Y0080144D01*
X0156980Y0080743D02*
X0141777Y0080743D01*
X0142375Y0081341D02*
X0156980Y0081341D01*
X0156980Y0081940D02*
X0142974Y0081940D01*
X0143572Y0082538D02*
X0156980Y0082538D01*
X0156980Y0083137D02*
X0144171Y0083137D01*
X0144769Y0083735D02*
X0156980Y0083735D01*
X0156980Y0084334D02*
X0145368Y0084334D01*
X0145966Y0084932D02*
X0156980Y0084932D01*
X0156980Y0085531D02*
X0146565Y0085531D01*
X0147164Y0086129D02*
X0156980Y0086129D01*
X0156980Y0086728D02*
X0147762Y0086728D01*
X0148361Y0087326D02*
X0156980Y0087326D01*
X0156980Y0087925D02*
X0148959Y0087925D01*
X0149161Y0088523D02*
X0156980Y0088523D01*
X0156980Y0089122D02*
X0149161Y0089122D01*
X0149161Y0089720D02*
X0156980Y0089720D01*
X0156980Y0090319D02*
X0149161Y0090319D01*
X0149161Y0090917D02*
X0156980Y0090917D01*
X0156980Y0091516D02*
X0149161Y0091516D01*
X0149161Y0092115D02*
X0156980Y0092115D01*
X0156980Y0092713D02*
X0149161Y0092713D01*
X0149161Y0093312D02*
X0156980Y0093312D01*
X0156980Y0093910D02*
X0149161Y0093910D01*
X0149161Y0094509D02*
X0156980Y0094509D01*
X0156980Y0095107D02*
X0149161Y0095107D01*
X0149161Y0095706D02*
X0156980Y0095706D01*
X0156980Y0096304D02*
X0149161Y0096304D01*
X0149161Y0096903D02*
X0156980Y0096903D01*
X0156980Y0097501D02*
X0149161Y0097501D01*
X0149161Y0098100D02*
X0156980Y0098100D01*
X0156980Y0098698D02*
X0149161Y0098698D01*
X0149161Y0099297D02*
X0156980Y0099297D01*
X0156980Y0099895D02*
X0149161Y0099895D01*
X0149161Y0100494D02*
X0156980Y0100494D01*
X0156980Y0101092D02*
X0149161Y0101092D01*
X0149161Y0101691D02*
X0156980Y0101691D01*
X0156980Y0102289D02*
X0149161Y0102289D01*
X0149161Y0102888D02*
X0156980Y0102888D01*
X0156980Y0103486D02*
X0149161Y0103486D01*
X0149161Y0104085D02*
X0156980Y0104085D01*
X0156980Y0104683D02*
X0149161Y0104683D01*
X0149161Y0105282D02*
X0156980Y0105282D01*
X0156980Y0105880D02*
X0149161Y0105880D01*
X0149161Y0106479D02*
X0156980Y0106479D01*
X0156980Y0107077D02*
X0149161Y0107077D01*
X0149161Y0107676D02*
X0156980Y0107676D01*
X0156980Y0108274D02*
X0149161Y0108274D01*
X0149161Y0108873D02*
X0156980Y0108873D01*
X0156980Y0109471D02*
X0149161Y0109471D01*
X0149161Y0110070D02*
X0156980Y0110070D01*
X0156980Y0110668D02*
X0149161Y0110668D01*
X0149161Y0111267D02*
X0156980Y0111267D01*
X0156980Y0111865D02*
X0149161Y0111865D01*
X0149161Y0112464D02*
X0156980Y0112464D01*
X0156980Y0113062D02*
X0149161Y0113062D01*
X0149161Y0113661D02*
X0156980Y0113661D01*
X0156980Y0114259D02*
X0149161Y0114259D01*
X0149161Y0114858D02*
X0156980Y0114858D01*
X0156980Y0115456D02*
X0149161Y0115456D01*
X0149161Y0116055D02*
X0156980Y0116055D01*
X0156980Y0116653D02*
X0149161Y0116653D01*
X0149161Y0117252D02*
X0156980Y0117252D01*
X0156980Y0117851D02*
X0149161Y0117851D01*
X0149161Y0118449D02*
X0156980Y0118449D01*
X0156980Y0119048D02*
X0149161Y0119048D01*
X0149161Y0119646D02*
X0156980Y0119646D01*
X0156980Y0120245D02*
X0149161Y0120245D01*
X0149161Y0120843D02*
X0156980Y0120843D01*
X0156980Y0121442D02*
X0149161Y0121442D01*
X0149161Y0122040D02*
X0156980Y0122040D01*
X0156980Y0122639D02*
X0149161Y0122639D01*
X0149161Y0123237D02*
X0156980Y0123237D01*
X0156980Y0123836D02*
X0149161Y0123836D01*
X0149161Y0124434D02*
X0156980Y0124434D01*
X0156980Y0125033D02*
X0149161Y0125033D01*
X0149161Y0125631D02*
X0156980Y0125631D01*
X0156980Y0126230D02*
X0149161Y0126230D01*
X0149161Y0126828D02*
X0156980Y0126828D01*
X0156980Y0127427D02*
X0149161Y0127427D01*
X0149161Y0128025D02*
X0156980Y0128025D01*
X0156980Y0128624D02*
X0149161Y0128624D01*
X0149161Y0129222D02*
X0156980Y0129222D01*
X0156980Y0129821D02*
X0149161Y0129821D01*
X0148588Y0130419D02*
X0156980Y0130419D01*
X0156980Y0131018D02*
X0147990Y0131018D01*
X0147391Y0131616D02*
X0156980Y0131616D01*
X0156980Y0132215D02*
X0146793Y0132215D01*
X0146194Y0132813D02*
X0156980Y0132813D01*
X0156980Y0133412D02*
X0145596Y0133412D01*
X0144997Y0134010D02*
X0156980Y0134010D01*
X0156980Y0134609D02*
X0144399Y0134609D01*
X0143800Y0135207D02*
X0156980Y0135207D01*
X0156980Y0135806D02*
X0143202Y0135806D01*
X0142603Y0136404D02*
X0156980Y0136404D01*
X0156980Y0137003D02*
X0142005Y0137003D01*
X0141406Y0137601D02*
X0156980Y0137601D01*
X0156980Y0138200D02*
X0140808Y0138200D01*
X0140209Y0138798D02*
X0156980Y0138798D01*
X0156980Y0139397D02*
X0139611Y0139397D01*
X0139012Y0139995D02*
X0156980Y0139995D01*
X0156980Y0140594D02*
X0138414Y0140594D01*
X0137815Y0141192D02*
X0156980Y0141192D01*
X0156980Y0141791D02*
X0137217Y0141791D01*
X0136618Y0142389D02*
X0156980Y0142389D01*
X0156980Y0142988D02*
X0136020Y0142988D01*
X0135421Y0143586D02*
X0156980Y0143586D01*
X0156980Y0144185D02*
X0134822Y0144185D01*
X0134224Y0144784D02*
X0156980Y0144784D01*
X0156980Y0145382D02*
X0133625Y0145382D01*
X0134028Y0144980D02*
X0134028Y0144980D01*
X0109125Y0134010D02*
X0108088Y0134010D01*
X0108088Y0133412D02*
X0108526Y0133412D01*
X0099125Y0134010D02*
X0092452Y0134010D01*
X0093050Y0133412D02*
X0098526Y0133412D01*
X0097928Y0132813D02*
X0093649Y0132813D01*
X0094247Y0132215D02*
X0097329Y0132215D01*
X0096888Y0131616D02*
X0094688Y0131616D01*
X0094688Y0131018D02*
X0096888Y0131018D01*
X0096888Y0130419D02*
X0094688Y0130419D01*
X0094688Y0129821D02*
X0096888Y0129821D01*
X0096888Y0129222D02*
X0094688Y0129222D01*
X0094688Y0128624D02*
X0096888Y0128624D01*
X0097406Y0128025D02*
X0094171Y0128025D01*
X0093572Y0127427D02*
X0098004Y0127427D01*
X0098603Y0126828D02*
X0092974Y0126828D01*
X0129496Y0107077D02*
X0132258Y0107077D01*
X0138059Y0107077D02*
X0144361Y0107077D01*
X0144361Y0106479D02*
X0139503Y0106479D01*
X0140179Y0105880D02*
X0144361Y0105880D01*
X0144361Y0105282D02*
X0140777Y0105282D01*
X0141376Y0104683D02*
X0144361Y0104683D01*
X0144361Y0104085D02*
X0141906Y0104085D01*
X0142154Y0103486D02*
X0144361Y0103486D01*
X0144361Y0102888D02*
X0142402Y0102888D01*
X0142650Y0102289D02*
X0144361Y0102289D01*
X0144361Y0101691D02*
X0142898Y0101691D01*
X0143061Y0101092D02*
X0144361Y0101092D01*
X0144361Y0100494D02*
X0143061Y0100494D01*
X0143061Y0099895D02*
X0144361Y0099895D01*
X0144361Y0099297D02*
X0143061Y0099297D01*
X0143061Y0098698D02*
X0144361Y0098698D01*
X0144361Y0098100D02*
X0143038Y0098100D01*
X0142790Y0097501D02*
X0144361Y0097501D01*
X0144361Y0096903D02*
X0142543Y0096903D01*
X0142295Y0096304D02*
X0144361Y0096304D01*
X0144361Y0095706D02*
X0142047Y0095706D01*
X0141716Y0095107D02*
X0144361Y0095107D01*
X0144361Y0094509D02*
X0141117Y0094509D01*
X0140519Y0093910D02*
X0144361Y0093910D01*
X0144361Y0093312D02*
X0139920Y0093312D01*
X0138879Y0092713D02*
X0143993Y0092713D01*
X0143394Y0092115D02*
X0137434Y0092115D01*
X0123643Y0072364D02*
X0116835Y0072364D01*
X0117434Y0071765D02*
X0123045Y0071765D01*
X0122446Y0071167D02*
X0118032Y0071167D01*
X0118631Y0070568D02*
X0121848Y0070568D01*
X0121249Y0069970D02*
X0119229Y0069970D01*
X0119247Y0069371D02*
X0120651Y0069371D01*
X0120052Y0068773D02*
X0119247Y0068773D01*
X0119247Y0068174D02*
X0119454Y0068174D01*
X0112773Y0072364D02*
X0107819Y0072364D01*
X0108418Y0071765D02*
X0112174Y0071765D01*
X0111576Y0071167D02*
X0109016Y0071167D01*
X0109615Y0070568D02*
X0110977Y0070568D01*
X0110379Y0069970D02*
X0110213Y0069970D01*
X0110231Y0069371D02*
X0110361Y0069371D01*
X0110361Y0068773D02*
X0110231Y0068773D01*
X0110231Y0068174D02*
X0110361Y0068174D01*
X0110361Y0067576D02*
X0110231Y0067576D01*
X0110231Y0066977D02*
X0110361Y0066977D01*
X0110361Y0066379D02*
X0110231Y0066379D01*
X0109741Y0065780D02*
X0110851Y0065780D01*
X0111450Y0065182D02*
X0109142Y0065182D01*
X0108544Y0064583D02*
X0112048Y0064583D01*
X0112647Y0063984D02*
X0107945Y0063984D01*
X0098904Y0072364D02*
X0098804Y0072364D01*
D13*
X0070788Y0081103D02*
X0062796Y0073111D01*
X0062796Y0058111D01*
X0072796Y0048111D01*
X0078741Y0048111D01*
X0070788Y0081103D02*
X0070788Y0130158D01*
D14*
X0078741Y0118111D02*
X0090788Y0130158D01*
X0078741Y0118111D02*
X0078741Y0068111D01*
X0096772Y0068111D02*
X0124456Y0095794D01*
X0124456Y0104158D01*
X0130788Y0110491D01*
X0130788Y0130158D01*
X0126588Y0131898D02*
X0126588Y0126903D01*
X0117796Y0118111D01*
X0112796Y0118111D01*
X0107796Y0123111D01*
X0107796Y0127211D01*
X0106588Y0128419D01*
X0106588Y0135958D01*
X0110788Y0140158D01*
X0120788Y0130158D02*
X0126588Y0135958D01*
X0126588Y0138111D01*
X0126588Y0137848D01*
X0126588Y0138111D02*
X0126588Y0141898D01*
X0129048Y0144358D01*
X0132528Y0144358D01*
X0147661Y0129226D01*
X0147661Y0088748D01*
X0114804Y0055891D01*
X0114804Y0048111D01*
X0110316Y0058111D02*
X0115572Y0063368D01*
X0116769Y0063368D01*
X0145861Y0092460D01*
X0145861Y0121026D01*
X0132528Y0134358D01*
X0129048Y0134358D01*
X0126588Y0131898D01*
M02*
