G75*
%MOIN*%
%OFA0B0*%
%FSLAX25Y25*%
%IPPOS*%
%LPD*%
%AMOC8*
5,1,8,0,0,1.08239X$1,22.5*
%
%ADD10R,0.07874X0.09449*%
%ADD11R,0.01969X0.09087*%
%ADD12R,0.00866X0.05906*%
%ADD13R,0.05906X0.00866*%
%ADD14R,0.03150X0.05906*%
%ADD15R,0.05512X0.07480*%
%ADD16R,0.07087X0.05512*%
%ADD17R,0.04331X0.03937*%
%ADD18R,0.03937X0.04331*%
%ADD19R,0.06000X0.02400*%
%ADD20R,0.03937X0.02362*%
%ADD21R,0.03150X0.06693*%
%ADD22R,0.00984X0.01969*%
%ADD23R,0.01969X0.00984*%
%ADD24R,0.14173X0.14173*%
%ADD25R,0.05512X0.02756*%
%ADD26R,0.04724X0.04331*%
%ADD27R,0.20000X0.07000*%
%ADD28R,0.03150X0.05512*%
%ADD29C,0.06000*%
%ADD30R,0.05906X0.05118*%
%ADD31R,0.03543X0.02756*%
%ADD32R,0.02362X0.03937*%
%ADD33R,0.03150X0.02756*%
%ADD34R,0.02756X0.03150*%
%ADD35R,0.04724X0.04724*%
%ADD36R,0.07677X0.05906*%
%ADD37R,0.02756X0.03543*%
%ADD38R,0.03937X0.03937*%
%ADD39R,0.00984X0.01575*%
%ADD40R,0.01969X0.05906*%
%ADD41R,0.05512X0.03937*%
%ADD42R,0.01575X0.01969*%
%ADD43R,0.03543X0.01969*%
%ADD44R,0.06300X0.04600*%
%ADD45R,0.07480X0.05512*%
D10*
X0015673Y0011486D03*
X0015673Y0033140D03*
X0050319Y0033140D03*
X0070168Y0033387D03*
X0070168Y0011733D03*
X0050319Y0011486D03*
X0104814Y0011733D03*
X0104814Y0033387D03*
D11*
X0093790Y0035607D03*
X0090641Y0035607D03*
X0087491Y0035607D03*
X0084341Y0035607D03*
X0081192Y0035607D03*
X0039295Y0035360D03*
X0036146Y0035360D03*
X0032996Y0035360D03*
X0029846Y0035360D03*
X0026697Y0035360D03*
D12*
X0114029Y0189850D03*
X0115998Y0189850D03*
X0117966Y0189850D03*
X0119935Y0189850D03*
X0121903Y0189850D03*
X0123872Y0189850D03*
X0125840Y0189850D03*
X0127809Y0189850D03*
X0129777Y0189850D03*
X0131746Y0189850D03*
X0133714Y0189850D03*
X0135683Y0189850D03*
X0137651Y0189850D03*
X0139620Y0189850D03*
X0141588Y0189850D03*
X0143557Y0189850D03*
X0145525Y0189850D03*
X0147494Y0189850D03*
X0149462Y0189850D03*
X0151431Y0189850D03*
X0153399Y0189850D03*
X0155368Y0189850D03*
X0157336Y0189850D03*
X0159305Y0189850D03*
X0161273Y0189850D03*
X0163242Y0189850D03*
X0165210Y0189850D03*
X0167179Y0189850D03*
X0169147Y0189850D03*
X0171116Y0189850D03*
X0173084Y0189850D03*
X0175053Y0189850D03*
X0177021Y0189850D03*
X0178990Y0189850D03*
X0180958Y0189850D03*
X0182927Y0189850D03*
X0182927Y0274496D03*
X0180958Y0274496D03*
X0178990Y0274496D03*
X0177021Y0274496D03*
X0175053Y0274496D03*
X0173084Y0274496D03*
X0171116Y0274496D03*
X0169147Y0274496D03*
X0167179Y0274496D03*
X0165210Y0274496D03*
X0163242Y0274496D03*
X0161273Y0274496D03*
X0159305Y0274496D03*
X0157336Y0274496D03*
X0155368Y0274496D03*
X0153399Y0274496D03*
X0151431Y0274496D03*
X0149462Y0274496D03*
X0147494Y0274496D03*
X0145525Y0274496D03*
X0143557Y0274496D03*
X0141588Y0274496D03*
X0139620Y0274496D03*
X0137651Y0274496D03*
X0135683Y0274496D03*
X0133714Y0274496D03*
X0131746Y0274496D03*
X0129777Y0274496D03*
X0127809Y0274496D03*
X0125840Y0274496D03*
X0123872Y0274496D03*
X0121903Y0274496D03*
X0119935Y0274496D03*
X0117966Y0274496D03*
X0115998Y0274496D03*
X0114029Y0274496D03*
D13*
X0106155Y0266622D03*
X0106155Y0264653D03*
X0106155Y0262685D03*
X0106155Y0260716D03*
X0106155Y0258748D03*
X0106155Y0256779D03*
X0106155Y0254811D03*
X0106155Y0252842D03*
X0106155Y0250874D03*
X0106155Y0248905D03*
X0106155Y0246937D03*
X0106155Y0244968D03*
X0106155Y0243000D03*
X0106155Y0241031D03*
X0106155Y0239063D03*
X0106155Y0237094D03*
X0106155Y0235126D03*
X0106155Y0233157D03*
X0106155Y0231189D03*
X0106155Y0229220D03*
X0106155Y0227252D03*
X0106155Y0225283D03*
X0106155Y0223314D03*
X0106155Y0221346D03*
X0106155Y0219377D03*
X0106155Y0217409D03*
X0106155Y0215440D03*
X0106155Y0213472D03*
X0106155Y0211503D03*
X0106155Y0209535D03*
X0106155Y0207566D03*
X0106155Y0205598D03*
X0106155Y0203629D03*
X0106155Y0201661D03*
X0106155Y0199692D03*
X0106155Y0197724D03*
X0190801Y0197724D03*
X0190801Y0199692D03*
X0190801Y0201661D03*
X0190801Y0203629D03*
X0190801Y0205598D03*
X0190801Y0207566D03*
X0190801Y0209535D03*
X0190801Y0211503D03*
X0190801Y0213472D03*
X0190801Y0215440D03*
X0190801Y0217409D03*
X0190801Y0219377D03*
X0190801Y0221346D03*
X0190801Y0223314D03*
X0190801Y0225283D03*
X0190801Y0227252D03*
X0190801Y0229220D03*
X0190801Y0231189D03*
X0190801Y0233157D03*
X0190801Y0235126D03*
X0190801Y0237094D03*
X0190801Y0239063D03*
X0190801Y0241031D03*
X0190801Y0243000D03*
X0190801Y0244968D03*
X0190801Y0246937D03*
X0190801Y0248905D03*
X0190801Y0250874D03*
X0190801Y0252842D03*
X0190801Y0254811D03*
X0190801Y0256779D03*
X0190801Y0258748D03*
X0190801Y0260716D03*
X0190801Y0262685D03*
X0190801Y0264653D03*
X0190801Y0266622D03*
D14*
X0156188Y0027987D03*
X0160519Y0026412D03*
X0151857Y0026412D03*
X0147526Y0025625D03*
X0143196Y0026412D03*
X0138865Y0025625D03*
X0134534Y0026412D03*
X0130204Y0026412D03*
D15*
X0127093Y0015192D03*
X0178865Y0011255D03*
D16*
X0155834Y0066373D03*
X0133393Y0066373D03*
D17*
X0131421Y0080581D03*
X0131421Y0087274D03*
X0080240Y0059715D03*
X0080240Y0053022D03*
X0068429Y0053022D03*
X0068429Y0059715D03*
X0035401Y0058869D03*
X0035401Y0052176D03*
X0025009Y0052176D03*
X0025009Y0058869D03*
X0147169Y0143573D03*
X0147169Y0150266D03*
X0158980Y0150266D03*
X0158980Y0143573D03*
X0097563Y0180974D03*
X0097563Y0187667D03*
X0079650Y0233533D03*
X0072957Y0233533D03*
X0072957Y0257156D03*
X0079650Y0257156D03*
X0089886Y0257156D03*
X0096579Y0257156D03*
X0079650Y0272904D03*
X0072957Y0272904D03*
X0072957Y0296526D03*
X0079650Y0296526D03*
X0151106Y0291998D03*
X0151106Y0285305D03*
X0269217Y0244754D03*
X0269217Y0238061D03*
X0284965Y0232943D03*
X0284965Y0226250D03*
X0284965Y0249872D03*
X0284965Y0256565D03*
X0284965Y0273494D03*
X0284965Y0280187D03*
X0284965Y0297116D03*
X0284965Y0303809D03*
X0229846Y0076644D03*
X0229846Y0069951D03*
D18*
X0202287Y0063652D03*
X0202287Y0056959D03*
X0262917Y0069951D03*
X0262917Y0076644D03*
X0264689Y0127234D03*
X0257996Y0127234D03*
X0245004Y0127234D03*
X0238311Y0127234D03*
X0213508Y0146132D03*
X0206815Y0146132D03*
X0206815Y0154400D03*
X0213508Y0154400D03*
X0213508Y0162667D03*
X0206815Y0162667D03*
X0206815Y0170935D03*
X0213508Y0170935D03*
X0213508Y0179203D03*
X0206815Y0179203D03*
X0197760Y0176447D03*
X0191067Y0176447D03*
X0191067Y0186289D03*
X0197760Y0186289D03*
X0197760Y0166604D03*
X0191067Y0166604D03*
X0191067Y0156762D03*
X0197760Y0156762D03*
X0197760Y0146919D03*
X0191067Y0146919D03*
X0130831Y0155581D03*
X0124138Y0155581D03*
X0079650Y0190226D03*
X0072957Y0190226D03*
X0089886Y0268573D03*
X0096579Y0268573D03*
X0162917Y0285305D03*
X0162917Y0291998D03*
X0214098Y0291998D03*
X0214098Y0285305D03*
X0214689Y0276841D03*
X0221382Y0276841D03*
X0225909Y0285305D03*
X0225909Y0291998D03*
X0210161Y0240817D03*
X0210161Y0234124D03*
X0246185Y0205974D03*
X0252878Y0205974D03*
X0328862Y0221722D03*
X0335555Y0221722D03*
X0335555Y0245344D03*
X0328862Y0245344D03*
X0328862Y0268967D03*
X0335555Y0268967D03*
X0335555Y0292589D03*
X0328862Y0292589D03*
D19*
X0315450Y0292963D03*
X0315450Y0297963D03*
X0315450Y0302963D03*
X0315450Y0307963D03*
X0293850Y0307963D03*
X0293850Y0302963D03*
X0293850Y0297963D03*
X0293850Y0292963D03*
X0293850Y0284341D03*
X0293850Y0279341D03*
X0293850Y0274341D03*
X0293850Y0269341D03*
X0293850Y0260719D03*
X0293850Y0255719D03*
X0293850Y0250719D03*
X0293850Y0245719D03*
X0293850Y0237096D03*
X0293850Y0232096D03*
X0293850Y0227096D03*
X0293850Y0222096D03*
X0315450Y0222096D03*
X0315450Y0227096D03*
X0315450Y0232096D03*
X0315450Y0237096D03*
X0315450Y0245719D03*
X0315450Y0250719D03*
X0315450Y0255719D03*
X0315450Y0260719D03*
X0315450Y0269341D03*
X0315450Y0274341D03*
X0315450Y0279341D03*
X0315450Y0284341D03*
D20*
X0323941Y0280778D03*
X0332602Y0280778D03*
X0332602Y0304400D03*
X0323941Y0304400D03*
X0323941Y0257156D03*
X0332602Y0257156D03*
X0332602Y0233533D03*
X0323941Y0233533D03*
X0080634Y0095738D03*
X0071972Y0095738D03*
D21*
X0175909Y0292589D03*
X0189295Y0292589D03*
X0189295Y0308337D03*
X0175909Y0308337D03*
D22*
X0222957Y0242785D03*
X0224925Y0242785D03*
X0226894Y0242785D03*
X0228862Y0242785D03*
X0230831Y0242785D03*
X0232799Y0242785D03*
X0234768Y0242785D03*
X0236736Y0242785D03*
X0236736Y0224281D03*
X0234768Y0224281D03*
X0232799Y0224281D03*
X0230831Y0224281D03*
X0228862Y0224281D03*
X0226894Y0224281D03*
X0224925Y0224281D03*
X0222957Y0224281D03*
D23*
X0220594Y0226644D03*
X0220594Y0228612D03*
X0220594Y0230581D03*
X0220594Y0232549D03*
X0220594Y0234518D03*
X0220594Y0236486D03*
X0220594Y0238455D03*
X0220594Y0240423D03*
X0239098Y0240423D03*
X0239098Y0238455D03*
X0239098Y0236486D03*
X0239098Y0234518D03*
X0239098Y0232549D03*
X0239098Y0230581D03*
X0239098Y0228612D03*
X0239098Y0226644D03*
D24*
X0229846Y0233533D03*
D25*
X0080240Y0241998D03*
X0080240Y0248691D03*
D26*
X0077091Y0281959D03*
X0077091Y0287470D03*
X0083390Y0287470D03*
X0083390Y0281959D03*
D27*
X0285358Y0045746D03*
X0285358Y0019746D03*
D28*
X0286929Y0075978D03*
X0281028Y0075974D03*
X0275126Y0075978D03*
D29*
X0280028Y0068663D02*
X0282028Y0068663D01*
X0282028Y0060293D01*
X0280028Y0060293D01*
X0280028Y0068663D01*
X0280028Y0066292D02*
X0282028Y0066292D01*
D30*
X0249531Y0069557D03*
X0249531Y0077037D03*
X0214098Y0064045D03*
X0214098Y0056565D03*
D31*
X0140476Y0283730D03*
X0140476Y0288848D03*
X0133390Y0288848D03*
X0133390Y0283730D03*
X0198350Y0290030D03*
X0198350Y0295148D03*
X0198350Y0305778D03*
X0198350Y0310896D03*
D32*
X0198350Y0048888D03*
X0206224Y0048888D03*
X0214098Y0048888D03*
X0214098Y0040226D03*
X0206224Y0040226D03*
X0198350Y0040226D03*
D33*
X0076303Y0209518D03*
X0072563Y0218179D03*
X0080043Y0218179D03*
D34*
X0071972Y0130974D03*
X0071972Y0123494D03*
X0080634Y0127234D03*
D35*
X0080043Y0202037D03*
X0088311Y0202037D03*
X0189098Y0074478D03*
X0197366Y0074478D03*
X0284768Y0194163D03*
X0293035Y0194163D03*
X0293035Y0205974D03*
X0284768Y0205974D03*
D36*
X0160457Y0127234D03*
X0160457Y0119360D03*
X0160457Y0111486D03*
X0164394Y0103612D03*
X0164394Y0095738D03*
X0153567Y0095738D03*
X0153567Y0103612D03*
X0149630Y0111486D03*
X0149630Y0119360D03*
X0149630Y0127234D03*
D37*
X0178469Y0129990D03*
X0183587Y0129990D03*
X0183587Y0122904D03*
X0178469Y0122904D03*
X0178469Y0115423D03*
X0183587Y0115423D03*
X0250909Y0233533D03*
X0256028Y0233533D03*
D38*
X0076303Y0076053D03*
X0076303Y0068179D03*
X0068429Y0068179D03*
X0068429Y0076053D03*
X0056618Y0060305D03*
X0056618Y0052431D03*
X0043232Y0052431D03*
X0043232Y0060305D03*
X0017248Y0060305D03*
X0017248Y0052431D03*
D39*
X0251539Y0154085D03*
X0253508Y0154085D03*
X0255476Y0154085D03*
X0257445Y0154085D03*
X0259413Y0154085D03*
X0261382Y0154085D03*
X0263350Y0154085D03*
X0265319Y0154085D03*
X0267287Y0154085D03*
X0269256Y0154085D03*
X0269256Y0170620D03*
X0267287Y0170620D03*
X0265319Y0170620D03*
X0263350Y0170620D03*
X0261382Y0170620D03*
X0259413Y0170620D03*
X0257445Y0170620D03*
X0255476Y0170620D03*
X0253508Y0170620D03*
X0251539Y0170620D03*
D40*
X0245437Y0162352D03*
X0275358Y0162352D03*
D41*
X0257799Y0241604D03*
X0257799Y0249085D03*
X0249138Y0245344D03*
D42*
X0246382Y0118179D03*
X0243232Y0118179D03*
X0240083Y0118179D03*
X0236933Y0118179D03*
X0236933Y0112667D03*
X0240083Y0112667D03*
X0243232Y0112667D03*
X0246382Y0112667D03*
X0252681Y0112667D03*
X0255831Y0112667D03*
X0258980Y0112667D03*
X0262130Y0112667D03*
X0262130Y0118179D03*
X0258980Y0118179D03*
X0255831Y0118179D03*
X0252681Y0118179D03*
X0230634Y0118179D03*
X0227484Y0118179D03*
X0224335Y0118179D03*
X0221185Y0118179D03*
X0221185Y0112667D03*
X0224335Y0112667D03*
X0227484Y0112667D03*
X0230634Y0112667D03*
X0214886Y0112667D03*
X0211736Y0112667D03*
X0208587Y0112667D03*
X0205437Y0112667D03*
X0205437Y0118179D03*
X0208587Y0118179D03*
X0211736Y0118179D03*
X0214886Y0118179D03*
D43*
X0214689Y0203234D03*
X0214689Y0206384D03*
X0214689Y0209533D03*
X0214689Y0212683D03*
X0220988Y0212683D03*
X0220988Y0209533D03*
X0220988Y0206384D03*
X0220988Y0203234D03*
X0164492Y0300856D03*
X0164492Y0304006D03*
X0164492Y0307156D03*
X0164492Y0310305D03*
X0158193Y0310305D03*
X0158193Y0307156D03*
X0158193Y0304006D03*
X0158193Y0300856D03*
D44*
X0218035Y0101738D03*
X0218035Y0095738D03*
X0218035Y0089738D03*
X0233783Y0089738D03*
X0233783Y0095738D03*
X0233783Y0101738D03*
X0249531Y0101738D03*
X0249531Y0095738D03*
X0249531Y0089738D03*
X0265280Y0089738D03*
X0265280Y0095738D03*
X0265280Y0101738D03*
X0281028Y0101738D03*
X0281028Y0095738D03*
X0281028Y0089738D03*
D45*
X0219610Y0256368D03*
X0219610Y0265817D03*
X0200713Y0265817D03*
X0200713Y0256368D03*
M02*
