%
M48
M72
T01C0.04000
T02C0.04724
T03C0.12205
%
T01
X60788Y130158
X70788Y130158
X80788Y130158
X90788Y130158
X100788Y130158
X110788Y130158
X120788Y130158
X130788Y130158
X130788Y140158
X120788Y140158
X110788Y140158
X100788Y140158
X90788Y140158
X80788Y140158
X70788Y140158
X60788Y140158
T02
X78741Y68111
X87757Y68111
X96772Y68111
X105788Y68111
X114804Y68111
X110316Y58111
X101300Y58111
X92284Y58111
X83269Y58111
X74253Y58111
X78741Y48111
X87757Y48111
X96772Y48111
X105788Y48111
X114804Y48111
T03
X46595Y58111
X56418Y99725
X135158Y99725
X144981Y58111
M30
