G75*
%MOIN*%
%OFA0B0*%
%FSLAX25Y25*%
%IPPOS*%
%LPD*%
%AMOC8*
5,1,8,0,0,1.08239X$1,22.5*
%
%ADD10C,0.00000*%
%ADD11C,0.00500*%
%ADD12C,0.00600*%
%ADD13C,0.01000*%
%ADD14R,0.15748X0.03150*%
D10*
X0026300Y0016300D02*
X0026300Y0158032D01*
X0152284Y0158032D01*
X0152284Y0016300D01*
X0026300Y0016300D01*
X0033997Y0061300D02*
X0033999Y0061456D01*
X0034005Y0061612D01*
X0034015Y0061767D01*
X0034029Y0061922D01*
X0034047Y0062077D01*
X0034069Y0062231D01*
X0034094Y0062385D01*
X0034124Y0062538D01*
X0034158Y0062690D01*
X0034195Y0062842D01*
X0034236Y0062992D01*
X0034281Y0063141D01*
X0034330Y0063289D01*
X0034383Y0063436D01*
X0034439Y0063581D01*
X0034499Y0063725D01*
X0034563Y0063867D01*
X0034631Y0064008D01*
X0034702Y0064146D01*
X0034776Y0064283D01*
X0034854Y0064418D01*
X0034935Y0064551D01*
X0035020Y0064682D01*
X0035108Y0064811D01*
X0035199Y0064937D01*
X0035294Y0065061D01*
X0035391Y0065182D01*
X0035492Y0065301D01*
X0035596Y0065418D01*
X0035702Y0065531D01*
X0035812Y0065642D01*
X0035924Y0065750D01*
X0036039Y0065855D01*
X0036157Y0065958D01*
X0036277Y0066057D01*
X0036400Y0066153D01*
X0036525Y0066246D01*
X0036652Y0066335D01*
X0036782Y0066422D01*
X0036914Y0066505D01*
X0037048Y0066584D01*
X0037184Y0066661D01*
X0037322Y0066733D01*
X0037461Y0066803D01*
X0037603Y0066868D01*
X0037746Y0066930D01*
X0037890Y0066988D01*
X0038036Y0067043D01*
X0038184Y0067094D01*
X0038332Y0067141D01*
X0038482Y0067184D01*
X0038633Y0067223D01*
X0038785Y0067259D01*
X0038937Y0067290D01*
X0039091Y0067318D01*
X0039245Y0067342D01*
X0039399Y0067362D01*
X0039554Y0067378D01*
X0039710Y0067390D01*
X0039865Y0067398D01*
X0040021Y0067402D01*
X0040177Y0067402D01*
X0040333Y0067398D01*
X0040488Y0067390D01*
X0040644Y0067378D01*
X0040799Y0067362D01*
X0040953Y0067342D01*
X0041107Y0067318D01*
X0041261Y0067290D01*
X0041413Y0067259D01*
X0041565Y0067223D01*
X0041716Y0067184D01*
X0041866Y0067141D01*
X0042014Y0067094D01*
X0042162Y0067043D01*
X0042308Y0066988D01*
X0042452Y0066930D01*
X0042595Y0066868D01*
X0042737Y0066803D01*
X0042876Y0066733D01*
X0043014Y0066661D01*
X0043150Y0066584D01*
X0043284Y0066505D01*
X0043416Y0066422D01*
X0043546Y0066335D01*
X0043673Y0066246D01*
X0043798Y0066153D01*
X0043921Y0066057D01*
X0044041Y0065958D01*
X0044159Y0065855D01*
X0044274Y0065750D01*
X0044386Y0065642D01*
X0044496Y0065531D01*
X0044602Y0065418D01*
X0044706Y0065301D01*
X0044807Y0065182D01*
X0044904Y0065061D01*
X0044999Y0064937D01*
X0045090Y0064811D01*
X0045178Y0064682D01*
X0045263Y0064551D01*
X0045344Y0064418D01*
X0045422Y0064283D01*
X0045496Y0064146D01*
X0045567Y0064008D01*
X0045635Y0063867D01*
X0045699Y0063725D01*
X0045759Y0063581D01*
X0045815Y0063436D01*
X0045868Y0063289D01*
X0045917Y0063141D01*
X0045962Y0062992D01*
X0046003Y0062842D01*
X0046040Y0062690D01*
X0046074Y0062538D01*
X0046104Y0062385D01*
X0046129Y0062231D01*
X0046151Y0062077D01*
X0046169Y0061922D01*
X0046183Y0061767D01*
X0046193Y0061612D01*
X0046199Y0061456D01*
X0046201Y0061300D01*
X0046199Y0061144D01*
X0046193Y0060988D01*
X0046183Y0060833D01*
X0046169Y0060678D01*
X0046151Y0060523D01*
X0046129Y0060369D01*
X0046104Y0060215D01*
X0046074Y0060062D01*
X0046040Y0059910D01*
X0046003Y0059758D01*
X0045962Y0059608D01*
X0045917Y0059459D01*
X0045868Y0059311D01*
X0045815Y0059164D01*
X0045759Y0059019D01*
X0045699Y0058875D01*
X0045635Y0058733D01*
X0045567Y0058592D01*
X0045496Y0058454D01*
X0045422Y0058317D01*
X0045344Y0058182D01*
X0045263Y0058049D01*
X0045178Y0057918D01*
X0045090Y0057789D01*
X0044999Y0057663D01*
X0044904Y0057539D01*
X0044807Y0057418D01*
X0044706Y0057299D01*
X0044602Y0057182D01*
X0044496Y0057069D01*
X0044386Y0056958D01*
X0044274Y0056850D01*
X0044159Y0056745D01*
X0044041Y0056642D01*
X0043921Y0056543D01*
X0043798Y0056447D01*
X0043673Y0056354D01*
X0043546Y0056265D01*
X0043416Y0056178D01*
X0043284Y0056095D01*
X0043150Y0056016D01*
X0043014Y0055939D01*
X0042876Y0055867D01*
X0042737Y0055797D01*
X0042595Y0055732D01*
X0042452Y0055670D01*
X0042308Y0055612D01*
X0042162Y0055557D01*
X0042014Y0055506D01*
X0041866Y0055459D01*
X0041716Y0055416D01*
X0041565Y0055377D01*
X0041413Y0055341D01*
X0041261Y0055310D01*
X0041107Y0055282D01*
X0040953Y0055258D01*
X0040799Y0055238D01*
X0040644Y0055222D01*
X0040488Y0055210D01*
X0040333Y0055202D01*
X0040177Y0055198D01*
X0040021Y0055198D01*
X0039865Y0055202D01*
X0039710Y0055210D01*
X0039554Y0055222D01*
X0039399Y0055238D01*
X0039245Y0055258D01*
X0039091Y0055282D01*
X0038937Y0055310D01*
X0038785Y0055341D01*
X0038633Y0055377D01*
X0038482Y0055416D01*
X0038332Y0055459D01*
X0038184Y0055506D01*
X0038036Y0055557D01*
X0037890Y0055612D01*
X0037746Y0055670D01*
X0037603Y0055732D01*
X0037461Y0055797D01*
X0037322Y0055867D01*
X0037184Y0055939D01*
X0037048Y0056016D01*
X0036914Y0056095D01*
X0036782Y0056178D01*
X0036652Y0056265D01*
X0036525Y0056354D01*
X0036400Y0056447D01*
X0036277Y0056543D01*
X0036157Y0056642D01*
X0036039Y0056745D01*
X0035924Y0056850D01*
X0035812Y0056958D01*
X0035702Y0057069D01*
X0035596Y0057182D01*
X0035492Y0057299D01*
X0035391Y0057418D01*
X0035294Y0057539D01*
X0035199Y0057663D01*
X0035108Y0057789D01*
X0035020Y0057918D01*
X0034935Y0058049D01*
X0034854Y0058182D01*
X0034776Y0058317D01*
X0034702Y0058454D01*
X0034631Y0058592D01*
X0034563Y0058733D01*
X0034499Y0058875D01*
X0034439Y0059019D01*
X0034383Y0059164D01*
X0034330Y0059311D01*
X0034281Y0059459D01*
X0034236Y0059608D01*
X0034195Y0059758D01*
X0034158Y0059910D01*
X0034124Y0060062D01*
X0034094Y0060215D01*
X0034069Y0060369D01*
X0034047Y0060523D01*
X0034029Y0060678D01*
X0034015Y0060833D01*
X0034005Y0060988D01*
X0033999Y0061144D01*
X0033997Y0061300D01*
X0043820Y0102914D02*
X0043822Y0103070D01*
X0043828Y0103226D01*
X0043838Y0103381D01*
X0043852Y0103536D01*
X0043870Y0103691D01*
X0043892Y0103845D01*
X0043917Y0103999D01*
X0043947Y0104152D01*
X0043981Y0104304D01*
X0044018Y0104456D01*
X0044059Y0104606D01*
X0044104Y0104755D01*
X0044153Y0104903D01*
X0044206Y0105050D01*
X0044262Y0105195D01*
X0044322Y0105339D01*
X0044386Y0105481D01*
X0044454Y0105622D01*
X0044525Y0105760D01*
X0044599Y0105897D01*
X0044677Y0106032D01*
X0044758Y0106165D01*
X0044843Y0106296D01*
X0044931Y0106425D01*
X0045022Y0106551D01*
X0045117Y0106675D01*
X0045214Y0106796D01*
X0045315Y0106915D01*
X0045419Y0107032D01*
X0045525Y0107145D01*
X0045635Y0107256D01*
X0045747Y0107364D01*
X0045862Y0107469D01*
X0045980Y0107572D01*
X0046100Y0107671D01*
X0046223Y0107767D01*
X0046348Y0107860D01*
X0046475Y0107949D01*
X0046605Y0108036D01*
X0046737Y0108119D01*
X0046871Y0108198D01*
X0047007Y0108275D01*
X0047145Y0108347D01*
X0047284Y0108417D01*
X0047426Y0108482D01*
X0047569Y0108544D01*
X0047713Y0108602D01*
X0047859Y0108657D01*
X0048007Y0108708D01*
X0048155Y0108755D01*
X0048305Y0108798D01*
X0048456Y0108837D01*
X0048608Y0108873D01*
X0048760Y0108904D01*
X0048914Y0108932D01*
X0049068Y0108956D01*
X0049222Y0108976D01*
X0049377Y0108992D01*
X0049533Y0109004D01*
X0049688Y0109012D01*
X0049844Y0109016D01*
X0050000Y0109016D01*
X0050156Y0109012D01*
X0050311Y0109004D01*
X0050467Y0108992D01*
X0050622Y0108976D01*
X0050776Y0108956D01*
X0050930Y0108932D01*
X0051084Y0108904D01*
X0051236Y0108873D01*
X0051388Y0108837D01*
X0051539Y0108798D01*
X0051689Y0108755D01*
X0051837Y0108708D01*
X0051985Y0108657D01*
X0052131Y0108602D01*
X0052275Y0108544D01*
X0052418Y0108482D01*
X0052560Y0108417D01*
X0052699Y0108347D01*
X0052837Y0108275D01*
X0052973Y0108198D01*
X0053107Y0108119D01*
X0053239Y0108036D01*
X0053369Y0107949D01*
X0053496Y0107860D01*
X0053621Y0107767D01*
X0053744Y0107671D01*
X0053864Y0107572D01*
X0053982Y0107469D01*
X0054097Y0107364D01*
X0054209Y0107256D01*
X0054319Y0107145D01*
X0054425Y0107032D01*
X0054529Y0106915D01*
X0054630Y0106796D01*
X0054727Y0106675D01*
X0054822Y0106551D01*
X0054913Y0106425D01*
X0055001Y0106296D01*
X0055086Y0106165D01*
X0055167Y0106032D01*
X0055245Y0105897D01*
X0055319Y0105760D01*
X0055390Y0105622D01*
X0055458Y0105481D01*
X0055522Y0105339D01*
X0055582Y0105195D01*
X0055638Y0105050D01*
X0055691Y0104903D01*
X0055740Y0104755D01*
X0055785Y0104606D01*
X0055826Y0104456D01*
X0055863Y0104304D01*
X0055897Y0104152D01*
X0055927Y0103999D01*
X0055952Y0103845D01*
X0055974Y0103691D01*
X0055992Y0103536D01*
X0056006Y0103381D01*
X0056016Y0103226D01*
X0056022Y0103070D01*
X0056024Y0102914D01*
X0056022Y0102758D01*
X0056016Y0102602D01*
X0056006Y0102447D01*
X0055992Y0102292D01*
X0055974Y0102137D01*
X0055952Y0101983D01*
X0055927Y0101829D01*
X0055897Y0101676D01*
X0055863Y0101524D01*
X0055826Y0101372D01*
X0055785Y0101222D01*
X0055740Y0101073D01*
X0055691Y0100925D01*
X0055638Y0100778D01*
X0055582Y0100633D01*
X0055522Y0100489D01*
X0055458Y0100347D01*
X0055390Y0100206D01*
X0055319Y0100068D01*
X0055245Y0099931D01*
X0055167Y0099796D01*
X0055086Y0099663D01*
X0055001Y0099532D01*
X0054913Y0099403D01*
X0054822Y0099277D01*
X0054727Y0099153D01*
X0054630Y0099032D01*
X0054529Y0098913D01*
X0054425Y0098796D01*
X0054319Y0098683D01*
X0054209Y0098572D01*
X0054097Y0098464D01*
X0053982Y0098359D01*
X0053864Y0098256D01*
X0053744Y0098157D01*
X0053621Y0098061D01*
X0053496Y0097968D01*
X0053369Y0097879D01*
X0053239Y0097792D01*
X0053107Y0097709D01*
X0052973Y0097630D01*
X0052837Y0097553D01*
X0052699Y0097481D01*
X0052560Y0097411D01*
X0052418Y0097346D01*
X0052275Y0097284D01*
X0052131Y0097226D01*
X0051985Y0097171D01*
X0051837Y0097120D01*
X0051689Y0097073D01*
X0051539Y0097030D01*
X0051388Y0096991D01*
X0051236Y0096955D01*
X0051084Y0096924D01*
X0050930Y0096896D01*
X0050776Y0096872D01*
X0050622Y0096852D01*
X0050467Y0096836D01*
X0050311Y0096824D01*
X0050156Y0096816D01*
X0050000Y0096812D01*
X0049844Y0096812D01*
X0049688Y0096816D01*
X0049533Y0096824D01*
X0049377Y0096836D01*
X0049222Y0096852D01*
X0049068Y0096872D01*
X0048914Y0096896D01*
X0048760Y0096924D01*
X0048608Y0096955D01*
X0048456Y0096991D01*
X0048305Y0097030D01*
X0048155Y0097073D01*
X0048007Y0097120D01*
X0047859Y0097171D01*
X0047713Y0097226D01*
X0047569Y0097284D01*
X0047426Y0097346D01*
X0047284Y0097411D01*
X0047145Y0097481D01*
X0047007Y0097553D01*
X0046871Y0097630D01*
X0046737Y0097709D01*
X0046605Y0097792D01*
X0046475Y0097879D01*
X0046348Y0097968D01*
X0046223Y0098061D01*
X0046100Y0098157D01*
X0045980Y0098256D01*
X0045862Y0098359D01*
X0045747Y0098464D01*
X0045635Y0098572D01*
X0045525Y0098683D01*
X0045419Y0098796D01*
X0045315Y0098913D01*
X0045214Y0099032D01*
X0045117Y0099153D01*
X0045022Y0099277D01*
X0044931Y0099403D01*
X0044843Y0099532D01*
X0044758Y0099663D01*
X0044677Y0099796D01*
X0044599Y0099931D01*
X0044525Y0100068D01*
X0044454Y0100206D01*
X0044386Y0100347D01*
X0044322Y0100489D01*
X0044262Y0100633D01*
X0044206Y0100778D01*
X0044153Y0100925D01*
X0044104Y0101073D01*
X0044059Y0101222D01*
X0044018Y0101372D01*
X0043981Y0101524D01*
X0043947Y0101676D01*
X0043917Y0101829D01*
X0043892Y0101983D01*
X0043870Y0102137D01*
X0043852Y0102292D01*
X0043838Y0102447D01*
X0043828Y0102602D01*
X0043822Y0102758D01*
X0043820Y0102914D01*
X0122560Y0102914D02*
X0122562Y0103070D01*
X0122568Y0103226D01*
X0122578Y0103381D01*
X0122592Y0103536D01*
X0122610Y0103691D01*
X0122632Y0103845D01*
X0122657Y0103999D01*
X0122687Y0104152D01*
X0122721Y0104304D01*
X0122758Y0104456D01*
X0122799Y0104606D01*
X0122844Y0104755D01*
X0122893Y0104903D01*
X0122946Y0105050D01*
X0123002Y0105195D01*
X0123062Y0105339D01*
X0123126Y0105481D01*
X0123194Y0105622D01*
X0123265Y0105760D01*
X0123339Y0105897D01*
X0123417Y0106032D01*
X0123498Y0106165D01*
X0123583Y0106296D01*
X0123671Y0106425D01*
X0123762Y0106551D01*
X0123857Y0106675D01*
X0123954Y0106796D01*
X0124055Y0106915D01*
X0124159Y0107032D01*
X0124265Y0107145D01*
X0124375Y0107256D01*
X0124487Y0107364D01*
X0124602Y0107469D01*
X0124720Y0107572D01*
X0124840Y0107671D01*
X0124963Y0107767D01*
X0125088Y0107860D01*
X0125215Y0107949D01*
X0125345Y0108036D01*
X0125477Y0108119D01*
X0125611Y0108198D01*
X0125747Y0108275D01*
X0125885Y0108347D01*
X0126024Y0108417D01*
X0126166Y0108482D01*
X0126309Y0108544D01*
X0126453Y0108602D01*
X0126599Y0108657D01*
X0126747Y0108708D01*
X0126895Y0108755D01*
X0127045Y0108798D01*
X0127196Y0108837D01*
X0127348Y0108873D01*
X0127500Y0108904D01*
X0127654Y0108932D01*
X0127808Y0108956D01*
X0127962Y0108976D01*
X0128117Y0108992D01*
X0128273Y0109004D01*
X0128428Y0109012D01*
X0128584Y0109016D01*
X0128740Y0109016D01*
X0128896Y0109012D01*
X0129051Y0109004D01*
X0129207Y0108992D01*
X0129362Y0108976D01*
X0129516Y0108956D01*
X0129670Y0108932D01*
X0129824Y0108904D01*
X0129976Y0108873D01*
X0130128Y0108837D01*
X0130279Y0108798D01*
X0130429Y0108755D01*
X0130577Y0108708D01*
X0130725Y0108657D01*
X0130871Y0108602D01*
X0131015Y0108544D01*
X0131158Y0108482D01*
X0131300Y0108417D01*
X0131439Y0108347D01*
X0131577Y0108275D01*
X0131713Y0108198D01*
X0131847Y0108119D01*
X0131979Y0108036D01*
X0132109Y0107949D01*
X0132236Y0107860D01*
X0132361Y0107767D01*
X0132484Y0107671D01*
X0132604Y0107572D01*
X0132722Y0107469D01*
X0132837Y0107364D01*
X0132949Y0107256D01*
X0133059Y0107145D01*
X0133165Y0107032D01*
X0133269Y0106915D01*
X0133370Y0106796D01*
X0133467Y0106675D01*
X0133562Y0106551D01*
X0133653Y0106425D01*
X0133741Y0106296D01*
X0133826Y0106165D01*
X0133907Y0106032D01*
X0133985Y0105897D01*
X0134059Y0105760D01*
X0134130Y0105622D01*
X0134198Y0105481D01*
X0134262Y0105339D01*
X0134322Y0105195D01*
X0134378Y0105050D01*
X0134431Y0104903D01*
X0134480Y0104755D01*
X0134525Y0104606D01*
X0134566Y0104456D01*
X0134603Y0104304D01*
X0134637Y0104152D01*
X0134667Y0103999D01*
X0134692Y0103845D01*
X0134714Y0103691D01*
X0134732Y0103536D01*
X0134746Y0103381D01*
X0134756Y0103226D01*
X0134762Y0103070D01*
X0134764Y0102914D01*
X0134762Y0102758D01*
X0134756Y0102602D01*
X0134746Y0102447D01*
X0134732Y0102292D01*
X0134714Y0102137D01*
X0134692Y0101983D01*
X0134667Y0101829D01*
X0134637Y0101676D01*
X0134603Y0101524D01*
X0134566Y0101372D01*
X0134525Y0101222D01*
X0134480Y0101073D01*
X0134431Y0100925D01*
X0134378Y0100778D01*
X0134322Y0100633D01*
X0134262Y0100489D01*
X0134198Y0100347D01*
X0134130Y0100206D01*
X0134059Y0100068D01*
X0133985Y0099931D01*
X0133907Y0099796D01*
X0133826Y0099663D01*
X0133741Y0099532D01*
X0133653Y0099403D01*
X0133562Y0099277D01*
X0133467Y0099153D01*
X0133370Y0099032D01*
X0133269Y0098913D01*
X0133165Y0098796D01*
X0133059Y0098683D01*
X0132949Y0098572D01*
X0132837Y0098464D01*
X0132722Y0098359D01*
X0132604Y0098256D01*
X0132484Y0098157D01*
X0132361Y0098061D01*
X0132236Y0097968D01*
X0132109Y0097879D01*
X0131979Y0097792D01*
X0131847Y0097709D01*
X0131713Y0097630D01*
X0131577Y0097553D01*
X0131439Y0097481D01*
X0131300Y0097411D01*
X0131158Y0097346D01*
X0131015Y0097284D01*
X0130871Y0097226D01*
X0130725Y0097171D01*
X0130577Y0097120D01*
X0130429Y0097073D01*
X0130279Y0097030D01*
X0130128Y0096991D01*
X0129976Y0096955D01*
X0129824Y0096924D01*
X0129670Y0096896D01*
X0129516Y0096872D01*
X0129362Y0096852D01*
X0129207Y0096836D01*
X0129051Y0096824D01*
X0128896Y0096816D01*
X0128740Y0096812D01*
X0128584Y0096812D01*
X0128428Y0096816D01*
X0128273Y0096824D01*
X0128117Y0096836D01*
X0127962Y0096852D01*
X0127808Y0096872D01*
X0127654Y0096896D01*
X0127500Y0096924D01*
X0127348Y0096955D01*
X0127196Y0096991D01*
X0127045Y0097030D01*
X0126895Y0097073D01*
X0126747Y0097120D01*
X0126599Y0097171D01*
X0126453Y0097226D01*
X0126309Y0097284D01*
X0126166Y0097346D01*
X0126024Y0097411D01*
X0125885Y0097481D01*
X0125747Y0097553D01*
X0125611Y0097630D01*
X0125477Y0097709D01*
X0125345Y0097792D01*
X0125215Y0097879D01*
X0125088Y0097968D01*
X0124963Y0098061D01*
X0124840Y0098157D01*
X0124720Y0098256D01*
X0124602Y0098359D01*
X0124487Y0098464D01*
X0124375Y0098572D01*
X0124265Y0098683D01*
X0124159Y0098796D01*
X0124055Y0098913D01*
X0123954Y0099032D01*
X0123857Y0099153D01*
X0123762Y0099277D01*
X0123671Y0099403D01*
X0123583Y0099532D01*
X0123498Y0099663D01*
X0123417Y0099796D01*
X0123339Y0099931D01*
X0123265Y0100068D01*
X0123194Y0100206D01*
X0123126Y0100347D01*
X0123062Y0100489D01*
X0123002Y0100633D01*
X0122946Y0100778D01*
X0122893Y0100925D01*
X0122844Y0101073D01*
X0122799Y0101222D01*
X0122758Y0101372D01*
X0122721Y0101524D01*
X0122687Y0101676D01*
X0122657Y0101829D01*
X0122632Y0101983D01*
X0122610Y0102137D01*
X0122592Y0102292D01*
X0122578Y0102447D01*
X0122568Y0102602D01*
X0122562Y0102758D01*
X0122560Y0102914D01*
X0132383Y0061300D02*
X0132385Y0061456D01*
X0132391Y0061612D01*
X0132401Y0061767D01*
X0132415Y0061922D01*
X0132433Y0062077D01*
X0132455Y0062231D01*
X0132480Y0062385D01*
X0132510Y0062538D01*
X0132544Y0062690D01*
X0132581Y0062842D01*
X0132622Y0062992D01*
X0132667Y0063141D01*
X0132716Y0063289D01*
X0132769Y0063436D01*
X0132825Y0063581D01*
X0132885Y0063725D01*
X0132949Y0063867D01*
X0133017Y0064008D01*
X0133088Y0064146D01*
X0133162Y0064283D01*
X0133240Y0064418D01*
X0133321Y0064551D01*
X0133406Y0064682D01*
X0133494Y0064811D01*
X0133585Y0064937D01*
X0133680Y0065061D01*
X0133777Y0065182D01*
X0133878Y0065301D01*
X0133982Y0065418D01*
X0134088Y0065531D01*
X0134198Y0065642D01*
X0134310Y0065750D01*
X0134425Y0065855D01*
X0134543Y0065958D01*
X0134663Y0066057D01*
X0134786Y0066153D01*
X0134911Y0066246D01*
X0135038Y0066335D01*
X0135168Y0066422D01*
X0135300Y0066505D01*
X0135434Y0066584D01*
X0135570Y0066661D01*
X0135708Y0066733D01*
X0135847Y0066803D01*
X0135989Y0066868D01*
X0136132Y0066930D01*
X0136276Y0066988D01*
X0136422Y0067043D01*
X0136570Y0067094D01*
X0136718Y0067141D01*
X0136868Y0067184D01*
X0137019Y0067223D01*
X0137171Y0067259D01*
X0137323Y0067290D01*
X0137477Y0067318D01*
X0137631Y0067342D01*
X0137785Y0067362D01*
X0137940Y0067378D01*
X0138096Y0067390D01*
X0138251Y0067398D01*
X0138407Y0067402D01*
X0138563Y0067402D01*
X0138719Y0067398D01*
X0138874Y0067390D01*
X0139030Y0067378D01*
X0139185Y0067362D01*
X0139339Y0067342D01*
X0139493Y0067318D01*
X0139647Y0067290D01*
X0139799Y0067259D01*
X0139951Y0067223D01*
X0140102Y0067184D01*
X0140252Y0067141D01*
X0140400Y0067094D01*
X0140548Y0067043D01*
X0140694Y0066988D01*
X0140838Y0066930D01*
X0140981Y0066868D01*
X0141123Y0066803D01*
X0141262Y0066733D01*
X0141400Y0066661D01*
X0141536Y0066584D01*
X0141670Y0066505D01*
X0141802Y0066422D01*
X0141932Y0066335D01*
X0142059Y0066246D01*
X0142184Y0066153D01*
X0142307Y0066057D01*
X0142427Y0065958D01*
X0142545Y0065855D01*
X0142660Y0065750D01*
X0142772Y0065642D01*
X0142882Y0065531D01*
X0142988Y0065418D01*
X0143092Y0065301D01*
X0143193Y0065182D01*
X0143290Y0065061D01*
X0143385Y0064937D01*
X0143476Y0064811D01*
X0143564Y0064682D01*
X0143649Y0064551D01*
X0143730Y0064418D01*
X0143808Y0064283D01*
X0143882Y0064146D01*
X0143953Y0064008D01*
X0144021Y0063867D01*
X0144085Y0063725D01*
X0144145Y0063581D01*
X0144201Y0063436D01*
X0144254Y0063289D01*
X0144303Y0063141D01*
X0144348Y0062992D01*
X0144389Y0062842D01*
X0144426Y0062690D01*
X0144460Y0062538D01*
X0144490Y0062385D01*
X0144515Y0062231D01*
X0144537Y0062077D01*
X0144555Y0061922D01*
X0144569Y0061767D01*
X0144579Y0061612D01*
X0144585Y0061456D01*
X0144587Y0061300D01*
X0144585Y0061144D01*
X0144579Y0060988D01*
X0144569Y0060833D01*
X0144555Y0060678D01*
X0144537Y0060523D01*
X0144515Y0060369D01*
X0144490Y0060215D01*
X0144460Y0060062D01*
X0144426Y0059910D01*
X0144389Y0059758D01*
X0144348Y0059608D01*
X0144303Y0059459D01*
X0144254Y0059311D01*
X0144201Y0059164D01*
X0144145Y0059019D01*
X0144085Y0058875D01*
X0144021Y0058733D01*
X0143953Y0058592D01*
X0143882Y0058454D01*
X0143808Y0058317D01*
X0143730Y0058182D01*
X0143649Y0058049D01*
X0143564Y0057918D01*
X0143476Y0057789D01*
X0143385Y0057663D01*
X0143290Y0057539D01*
X0143193Y0057418D01*
X0143092Y0057299D01*
X0142988Y0057182D01*
X0142882Y0057069D01*
X0142772Y0056958D01*
X0142660Y0056850D01*
X0142545Y0056745D01*
X0142427Y0056642D01*
X0142307Y0056543D01*
X0142184Y0056447D01*
X0142059Y0056354D01*
X0141932Y0056265D01*
X0141802Y0056178D01*
X0141670Y0056095D01*
X0141536Y0056016D01*
X0141400Y0055939D01*
X0141262Y0055867D01*
X0141123Y0055797D01*
X0140981Y0055732D01*
X0140838Y0055670D01*
X0140694Y0055612D01*
X0140548Y0055557D01*
X0140400Y0055506D01*
X0140252Y0055459D01*
X0140102Y0055416D01*
X0139951Y0055377D01*
X0139799Y0055341D01*
X0139647Y0055310D01*
X0139493Y0055282D01*
X0139339Y0055258D01*
X0139185Y0055238D01*
X0139030Y0055222D01*
X0138874Y0055210D01*
X0138719Y0055202D01*
X0138563Y0055198D01*
X0138407Y0055198D01*
X0138251Y0055202D01*
X0138096Y0055210D01*
X0137940Y0055222D01*
X0137785Y0055238D01*
X0137631Y0055258D01*
X0137477Y0055282D01*
X0137323Y0055310D01*
X0137171Y0055341D01*
X0137019Y0055377D01*
X0136868Y0055416D01*
X0136718Y0055459D01*
X0136570Y0055506D01*
X0136422Y0055557D01*
X0136276Y0055612D01*
X0136132Y0055670D01*
X0135989Y0055732D01*
X0135847Y0055797D01*
X0135708Y0055867D01*
X0135570Y0055939D01*
X0135434Y0056016D01*
X0135300Y0056095D01*
X0135168Y0056178D01*
X0135038Y0056265D01*
X0134911Y0056354D01*
X0134786Y0056447D01*
X0134663Y0056543D01*
X0134543Y0056642D01*
X0134425Y0056745D01*
X0134310Y0056850D01*
X0134198Y0056958D01*
X0134088Y0057069D01*
X0133982Y0057182D01*
X0133878Y0057299D01*
X0133777Y0057418D01*
X0133680Y0057539D01*
X0133585Y0057663D01*
X0133494Y0057789D01*
X0133406Y0057918D01*
X0133321Y0058049D01*
X0133240Y0058182D01*
X0133162Y0058317D01*
X0133088Y0058454D01*
X0133017Y0058592D01*
X0132949Y0058733D01*
X0132885Y0058875D01*
X0132825Y0059019D01*
X0132769Y0059164D01*
X0132716Y0059311D01*
X0132667Y0059459D01*
X0132622Y0059608D01*
X0132581Y0059758D01*
X0132544Y0059910D01*
X0132510Y0060062D01*
X0132480Y0060215D01*
X0132455Y0060369D01*
X0132433Y0060523D01*
X0132415Y0060678D01*
X0132401Y0060833D01*
X0132391Y0060988D01*
X0132385Y0061144D01*
X0132383Y0061300D01*
D11*
X0128662Y0053426D02*
X0124725Y0049489D01*
X0120788Y0053426D01*
X0149942Y0036595D02*
X0028643Y0036595D01*
X0028643Y0086005D01*
X0149942Y0086005D01*
X0149942Y0036595D01*
X0111539Y0109050D02*
X0110317Y0111494D01*
X0110012Y0111494D02*
X0108484Y0111494D01*
X0110012Y0111494D02*
X0110089Y0111496D01*
X0110167Y0111502D01*
X0110243Y0111512D01*
X0110320Y0111525D01*
X0110395Y0111543D01*
X0110469Y0111564D01*
X0110543Y0111589D01*
X0110615Y0111618D01*
X0110685Y0111650D01*
X0110754Y0111686D01*
X0110820Y0111725D01*
X0110885Y0111768D01*
X0110947Y0111814D01*
X0111007Y0111863D01*
X0111065Y0111915D01*
X0111119Y0111969D01*
X0111171Y0112027D01*
X0111220Y0112087D01*
X0111266Y0112149D01*
X0111309Y0112214D01*
X0111348Y0112280D01*
X0111384Y0112349D01*
X0111416Y0112419D01*
X0111445Y0112491D01*
X0111470Y0112565D01*
X0111491Y0112639D01*
X0111509Y0112714D01*
X0111522Y0112791D01*
X0111532Y0112867D01*
X0111538Y0112945D01*
X0111540Y0113022D01*
X0111538Y0113099D01*
X0111532Y0113177D01*
X0111522Y0113253D01*
X0111509Y0113330D01*
X0111491Y0113405D01*
X0111470Y0113479D01*
X0111445Y0113553D01*
X0111416Y0113625D01*
X0111384Y0113695D01*
X0111348Y0113764D01*
X0111309Y0113830D01*
X0111266Y0113895D01*
X0111220Y0113957D01*
X0111171Y0114017D01*
X0111119Y0114075D01*
X0111065Y0114129D01*
X0111007Y0114181D01*
X0110947Y0114230D01*
X0110885Y0114276D01*
X0110820Y0114319D01*
X0110754Y0114358D01*
X0110685Y0114394D01*
X0110615Y0114426D01*
X0110543Y0114455D01*
X0110469Y0114480D01*
X0110395Y0114501D01*
X0110320Y0114519D01*
X0110243Y0114532D01*
X0110167Y0114542D01*
X0110089Y0114548D01*
X0110012Y0114550D01*
X0108484Y0114550D01*
X0108484Y0109050D01*
X0106233Y0109050D02*
X0103789Y0109050D01*
X0103789Y0114550D01*
X0106233Y0114550D01*
X0105622Y0112106D02*
X0103789Y0112106D01*
X0101624Y0114550D02*
X0098569Y0114550D01*
X0100096Y0114550D02*
X0100096Y0109050D01*
X0095327Y0111494D02*
X0093799Y0111494D01*
X0095327Y0111494D02*
X0095404Y0111496D01*
X0095482Y0111502D01*
X0095558Y0111512D01*
X0095635Y0111525D01*
X0095710Y0111543D01*
X0095784Y0111564D01*
X0095858Y0111589D01*
X0095930Y0111618D01*
X0096000Y0111650D01*
X0096069Y0111686D01*
X0096135Y0111725D01*
X0096200Y0111768D01*
X0096262Y0111814D01*
X0096322Y0111863D01*
X0096380Y0111915D01*
X0096434Y0111969D01*
X0096486Y0112027D01*
X0096535Y0112087D01*
X0096581Y0112149D01*
X0096624Y0112214D01*
X0096663Y0112280D01*
X0096699Y0112349D01*
X0096731Y0112419D01*
X0096760Y0112491D01*
X0096785Y0112565D01*
X0096806Y0112639D01*
X0096824Y0112714D01*
X0096837Y0112791D01*
X0096847Y0112867D01*
X0096853Y0112945D01*
X0096855Y0113022D01*
X0096853Y0113099D01*
X0096847Y0113177D01*
X0096837Y0113253D01*
X0096824Y0113330D01*
X0096806Y0113405D01*
X0096785Y0113479D01*
X0096760Y0113553D01*
X0096731Y0113625D01*
X0096699Y0113695D01*
X0096663Y0113764D01*
X0096624Y0113830D01*
X0096581Y0113895D01*
X0096535Y0113957D01*
X0096486Y0114017D01*
X0096434Y0114075D01*
X0096380Y0114129D01*
X0096322Y0114181D01*
X0096262Y0114230D01*
X0096200Y0114276D01*
X0096135Y0114319D01*
X0096069Y0114358D01*
X0096000Y0114394D01*
X0095930Y0114426D01*
X0095858Y0114455D01*
X0095784Y0114480D01*
X0095710Y0114501D01*
X0095635Y0114519D01*
X0095558Y0114532D01*
X0095482Y0114542D01*
X0095404Y0114548D01*
X0095327Y0114550D01*
X0093799Y0114550D01*
X0093799Y0109050D01*
X0091511Y0109050D02*
X0089677Y0114550D01*
X0087844Y0109050D01*
X0088302Y0110425D02*
X0091052Y0110425D01*
X0085636Y0110578D02*
X0085636Y0113022D01*
X0085634Y0113099D01*
X0085628Y0113177D01*
X0085618Y0113253D01*
X0085605Y0113330D01*
X0085587Y0113405D01*
X0085566Y0113479D01*
X0085541Y0113553D01*
X0085512Y0113625D01*
X0085480Y0113695D01*
X0085444Y0113764D01*
X0085405Y0113830D01*
X0085362Y0113895D01*
X0085316Y0113957D01*
X0085267Y0114017D01*
X0085215Y0114075D01*
X0085161Y0114129D01*
X0085103Y0114181D01*
X0085043Y0114230D01*
X0084981Y0114276D01*
X0084916Y0114319D01*
X0084850Y0114358D01*
X0084781Y0114394D01*
X0084711Y0114426D01*
X0084639Y0114455D01*
X0084565Y0114480D01*
X0084491Y0114501D01*
X0084416Y0114519D01*
X0084339Y0114532D01*
X0084263Y0114542D01*
X0084185Y0114548D01*
X0084108Y0114550D01*
X0082581Y0114550D01*
X0082581Y0109050D01*
X0084108Y0109050D01*
X0084185Y0109052D01*
X0084263Y0109058D01*
X0084339Y0109068D01*
X0084416Y0109081D01*
X0084491Y0109099D01*
X0084565Y0109120D01*
X0084639Y0109145D01*
X0084711Y0109174D01*
X0084781Y0109206D01*
X0084850Y0109242D01*
X0084916Y0109281D01*
X0084981Y0109324D01*
X0085043Y0109370D01*
X0085103Y0109419D01*
X0085161Y0109471D01*
X0085215Y0109525D01*
X0085267Y0109583D01*
X0085316Y0109643D01*
X0085362Y0109705D01*
X0085405Y0109770D01*
X0085444Y0109836D01*
X0085480Y0109905D01*
X0085512Y0109975D01*
X0085541Y0110047D01*
X0085566Y0110121D01*
X0085587Y0110195D01*
X0085605Y0110270D01*
X0085618Y0110347D01*
X0085628Y0110423D01*
X0085634Y0110501D01*
X0085636Y0110578D01*
X0080373Y0109050D02*
X0078540Y0114550D01*
X0076706Y0109050D01*
X0077165Y0110425D02*
X0079915Y0110425D01*
X0074624Y0111189D02*
X0070958Y0111189D01*
X0068606Y0109050D02*
X0067383Y0111494D01*
X0067078Y0111494D02*
X0065550Y0111494D01*
X0067078Y0111494D02*
X0067155Y0111496D01*
X0067233Y0111502D01*
X0067309Y0111512D01*
X0067386Y0111525D01*
X0067461Y0111543D01*
X0067535Y0111564D01*
X0067609Y0111589D01*
X0067681Y0111618D01*
X0067751Y0111650D01*
X0067820Y0111686D01*
X0067886Y0111725D01*
X0067951Y0111768D01*
X0068013Y0111814D01*
X0068073Y0111863D01*
X0068131Y0111915D01*
X0068185Y0111969D01*
X0068237Y0112027D01*
X0068286Y0112087D01*
X0068332Y0112149D01*
X0068375Y0112214D01*
X0068414Y0112280D01*
X0068450Y0112349D01*
X0068482Y0112419D01*
X0068511Y0112491D01*
X0068536Y0112565D01*
X0068557Y0112639D01*
X0068575Y0112714D01*
X0068588Y0112791D01*
X0068598Y0112867D01*
X0068604Y0112945D01*
X0068606Y0113022D01*
X0068604Y0113099D01*
X0068598Y0113177D01*
X0068588Y0113253D01*
X0068575Y0113330D01*
X0068557Y0113405D01*
X0068536Y0113479D01*
X0068511Y0113553D01*
X0068482Y0113625D01*
X0068450Y0113695D01*
X0068414Y0113764D01*
X0068375Y0113830D01*
X0068332Y0113895D01*
X0068286Y0113957D01*
X0068237Y0114017D01*
X0068185Y0114075D01*
X0068131Y0114129D01*
X0068073Y0114181D01*
X0068013Y0114230D01*
X0067951Y0114276D01*
X0067886Y0114319D01*
X0067820Y0114358D01*
X0067751Y0114394D01*
X0067681Y0114426D01*
X0067609Y0114455D01*
X0067535Y0114480D01*
X0067461Y0114501D01*
X0067386Y0114519D01*
X0067309Y0114532D01*
X0067233Y0114542D01*
X0067155Y0114548D01*
X0067078Y0114550D01*
X0065550Y0114550D01*
X0065550Y0109050D01*
D12*
X0066792Y0127245D02*
X0061792Y0127245D01*
X0059292Y0129745D01*
X0059292Y0144745D01*
X0061792Y0147245D01*
X0066792Y0147245D01*
X0069292Y0144745D01*
X0069292Y0129745D01*
X0071792Y0127245D01*
X0076792Y0127245D01*
X0079292Y0129745D01*
X0079292Y0144745D01*
X0081792Y0147245D01*
X0086792Y0147245D01*
X0089292Y0144745D01*
X0089292Y0129745D01*
X0091792Y0127245D01*
X0096792Y0127245D01*
X0099292Y0129745D01*
X0099292Y0144745D01*
X0101792Y0147245D01*
X0106792Y0147245D01*
X0109292Y0144745D01*
X0109292Y0129745D01*
X0111792Y0127245D01*
X0116792Y0127245D01*
X0119292Y0129745D01*
X0121792Y0127245D01*
X0126792Y0127245D01*
X0129292Y0129745D01*
X0129292Y0144745D01*
X0126792Y0147245D01*
X0121792Y0147245D01*
X0119292Y0144745D01*
X0119292Y0129745D01*
X0109292Y0129745D02*
X0106792Y0127245D01*
X0101792Y0127245D01*
X0099292Y0129745D01*
X0089292Y0129745D02*
X0086792Y0127245D01*
X0081792Y0127245D01*
X0079292Y0129745D01*
X0069292Y0129745D02*
X0066792Y0127245D01*
X0059292Y0129745D02*
X0056792Y0127245D01*
X0051792Y0127245D01*
X0049292Y0129745D01*
X0049292Y0144745D01*
X0051792Y0147245D01*
X0056792Y0147245D01*
X0059292Y0144745D01*
X0069292Y0144745D02*
X0071792Y0147245D01*
X0076792Y0147245D01*
X0079292Y0144745D01*
X0089292Y0144745D02*
X0091792Y0147245D01*
X0096792Y0147245D01*
X0099292Y0144745D01*
X0109292Y0144745D02*
X0111792Y0147245D01*
X0116792Y0147245D01*
X0119292Y0144745D01*
D13*
X0144410Y0149843D02*
X0144410Y0124646D01*
X0034174Y0124646D01*
X0034174Y0149843D01*
X0144410Y0149843D01*
X0149135Y0154961D02*
X0149135Y0119528D01*
X0029450Y0119528D01*
X0029450Y0154961D01*
X0149135Y0154961D01*
D14*
X0089292Y0123072D03*
M02*
