%
M48
M72
T01C0.04000
T02C0.04724
T03C0.12205
%
T01
X54292Y132245
X54292Y142245
X64292Y142245
X64292Y132245
X74292Y132245
X74292Y142245
X84292Y142245
X84292Y132245
X94292Y132245
X94292Y142245
X104292Y142245
X104292Y132245
X114292Y132245
X114292Y142245
X124292Y142245
X124292Y132245
T02
X108308Y71300
X99292Y71300
X90276Y71300
X81261Y71300
X72245Y71300
X67757Y61300
X76772Y61300
X85788Y61300
X94804Y61300
X103820Y61300
X108308Y51300
X99292Y51300
X90276Y51300
X81261Y51300
X72245Y51300
T03
X40099Y61300
X49922Y102914
X128662Y102914
X138485Y61300
M30
