%
M48
M72
T01C0.01181
T02C0.01200
T03C0.01378
T04C0.01575
T05C0.01600
T06C0.01969
T07C0.03346
T08C0.03937
T09C0.04000
T10C0.06299
T11C0.12500
T12C0.12598
%
T01
X142000Y46000
X159000Y105000
X161600Y110600
X161700Y120336
T02
X159500Y128250
X157625Y133250
X173250Y129500
X175125Y137625
X183875Y140125
X187000Y140125
X168875Y145750
X142000Y124500
X135750Y111375
X140125Y105125
X127625Y116375
X127000Y129500
X124500Y137000
X116375Y140125
X112625Y136375
X114500Y131375
X95750Y152625
X77625Y157625
X81375Y173250
X77000Y180750
X77625Y188250
X74500Y190750
X80125Y193250
X74500Y200125
X64500Y207625
X59375Y203250
X60750Y213250
X61375Y217000
X50750Y219875
X47625Y226375
X44500Y226375
X42625Y233875
X36375Y231375
X14500Y255125
X23875Y257625
X31375Y267625
X42000Y262625
X64500Y237625
X64500Y231375
X73875Y242625
X82625Y225125
X74500Y217625
X51375Y190125
X57625Y188000
X57000Y182000
X58875Y172625
X55750Y170125
X42625Y180750
X36375Y183875
X12000Y173250
X66375Y136375
X70750Y137625
X36375Y116375
X36375Y106375
X43875Y88250
X127000Y27625
X130125Y29500
X183250Y55750
X173250Y78875
X177000Y83250
X182000Y81375
X161375Y98875
X161375Y102000
X174500Y109500
X173875Y116375
X173250Y120125
X197625Y105125
X202625Y102625
X210750Y113875
X214500Y127625
X234375Y134500
X252625Y138250
X257625Y137000
X259500Y131375
X245125Y110750
X245125Y99500
X252000Y84500
X253875Y78875
X230125Y81375
X235500Y56375
X223875Y48875
X223250Y29500
X231375Y29500
X158250Y77000
X235750Y163250
X237000Y189500
X259500Y188875
X291375Y183250
X295750Y185750
X303250Y171375
X305125Y162625
X273875Y153250
X310125Y126375
X314500Y115750
X322000Y118250
X302625Y100750
X293250Y118250
X295750Y120750
X339500Y48875
X193875Y169500
X182000Y168250
X172625Y172625
X167000Y178250
X166375Y190125
X149500Y187000
X149500Y183875
X144500Y185750
X140125Y190125
X142625Y193250
X149500Y202625
X128250Y190750
X126375Y193250
X128250Y187625
X132000Y167625
X138250Y167625
X194500Y218250
X185750Y225125
X189375Y232750
X172075Y225125
X166000Y223500
X149500Y229500
X149500Y235750
X159375Y245000
X134500Y242625
X120125Y225125
X206375Y215750
X228250Y213875
X237625Y228250
X240125Y248250
X243250Y254500
X237000Y267000
X233250Y264500
X227000Y262625
X229500Y260750
X293250Y209500
X295750Y212000
X299500Y209500
X308875Y209500
X304500Y225750
X209500Y193250
T03
X205500Y190000
X186000Y169000
X175500Y144000
X162000Y142000
X142000Y132000
X148500Y122000
X141500Y116500
X120800Y125500
X118000Y127000
X114500Y111500
X92000Y112000
X84000Y112000
X78500Y123500
X80000Y134289
X74000Y135500
X74500Y145500
X75000Y150000
X79500Y150500
X83000Y158000
X91500Y149500
X93000Y131000
X110000Y141000
X104000Y169500
X99000Y176000
X93000Y170000
X118500Y194000
X134500Y196500
X135500Y207000
X129000Y210000
X129000Y227000
X126022Y234000
X129000Y234411
X122000Y233000
X121000Y239500
X122000Y242478
X115000Y240000
X109000Y232000
X91000Y228000
X77631Y232869
X74400Y234500
X76750Y222625
X92000Y212000
X83000Y206000
X82500Y199500
X75000Y205500
X63000Y200000
X62500Y196625
X63000Y188000
X49000Y177000
X46000Y192000
X42503Y208039
X46000Y211500
X40585Y222085
X34164Y225961
X45000Y231500
X45000Y244000
X51980Y255000
X63500Y250000
X65500Y258500
X76000Y258500
X82000Y272000
X106721Y252111
X109699Y252111
X124143Y252111
X137248Y241252
X136500Y228500
X148000Y216000
X159500Y206500
X168500Y199000
X176500Y211000
X170500Y215000
X168000Y219000
X174092Y228855
X173500Y233848
X168000Y236500
X163290Y240053
X161500Y236500
X156093Y241907
X153211Y245500
X162819Y249681
X181000Y248500
X191500Y245000
X195500Y248000
X204000Y252500
X217500Y272000
X196164Y233000
X192424Y222536
X190125Y220625
X188493Y223782
X182500Y221000
X189500Y214000
X184500Y211500
X142000Y177000
X131000Y173000
X126500Y178500
X102000Y212000
X37500Y161000
X61500Y108500
X57000Y98000
X41095Y97092
X63500Y83000
X38000Y71000
X106500Y36000
X137000Y33000
X139978Y31789
X139000Y27000
X145500Y26500
X155000Y19500
X162000Y12000
X172000Y21000
X177000Y22000
X182000Y22000
X172000Y32000
X187000Y48000
X202000Y32000
X220500Y36500
X216000Y48000
X242000Y19000
X220000Y15000
X182000Y12000
X175750Y8250
X150111Y35611
X182000Y72000
X162000Y82000
X152000Y82000
X152000Y92000
X200500Y143000
X207000Y143000
X213000Y133000
X226000Y142000
X230000Y139000
X233000Y137625
X229000Y135500
X232237Y132263
X245000Y134000
X250000Y144000
X247500Y152000
X233000Y155000
X229000Y162000
X224000Y162000
X214000Y162000
X242000Y204500
X252000Y204500
X252000Y222000
X243000Y222000
X314000Y157000
X314000Y151000
X314000Y140000
X313000Y137000
X314000Y134000
X332000Y142000
X332000Y152000
X332000Y162000
X292000Y142000
X282000Y142000
X272000Y142000
X272000Y108986
X267500Y108500
X255500Y109000
X236000Y109000
X229000Y104500
X224000Y105500
X216000Y110000
X117000Y272000
X52000Y272000
T04
X201500Y179000
X149000Y140000
X138000Y138000
T05
X120125Y115750
X138250Y113875
X165750Y139500
X171375Y143875
X181375Y145125
X164500Y162625
X166375Y167625
X163875Y170125
X159500Y172625
X167000Y187000
X190750Y187625
X201375Y168875
X217125Y193750
X205125Y220750
X207000Y230750
X235750Y258250
X252000Y236375
X265750Y194500
X270750Y192000
X302000Y216375
X313250Y204500
X348875Y208250
X244625Y163250
X219500Y145125
X251750Y107375
X259500Y106375
X264500Y111375
X275125Y103250
X268875Y97000
X278250Y87000
X305125Y60125
X264500Y32000
X232375Y53875
X208250Y60125
X206375Y88875
X211375Y88875
X215750Y95750
X211375Y102625
X232500Y105375
X233250Y92625
X231375Y89500
X173250Y95125
X143875Y51375
X160750Y42000
X40750Y91375
X38250Y93875
X36375Y99500
X42000Y105125
X41375Y112000
X10000Y88250
X11375Y60750
X61375Y148875
X66375Y148875
X55125Y153875
X50125Y158875
X56375Y167000
X61375Y163250
X63875Y165750
X75750Y174500
X78250Y168250
X104500Y157625
X119500Y169500
X143250Y170125
X148875Y211375
X135125Y235750
X155125Y252000
X132625Y255750
X127625Y253250
X113875Y222625
X90750Y242625
X87000Y242625
X82000Y240750
X77000Y242000
X76625Y238750
X87000Y235750
X93875Y255750
X39500Y265125
X35750Y234500
X34250Y204750
X44500Y198250
X42625Y188875
X34250Y194125
X56250Y203125
X58500Y200125
X36375Y154500
X319500Y103250
T06
X246803Y126843
X220819Y126843
T07
X273811Y199480
X273811Y229402
T08
X73969Y94992
X73969Y84992
X73969Y74992
T09
X27000Y76000
X27000Y86000
X27000Y96000
X27000Y106000
X17000Y106000
X17000Y96000
X17000Y86000
X17000Y76000
X17000Y66000
X17000Y56000
X27000Y56000
X27000Y66000
X27000Y116000
X27000Y126000
X17000Y126000
X17000Y116000
X17000Y178000
X17000Y188000
X27000Y188000
X27000Y178000
X27000Y198000
X27000Y208000
X27000Y218000
X17000Y218000
X17000Y208000
X17000Y198000
X17000Y228000
X17000Y238000
X17000Y248000
X27000Y248000
X27000Y238000
X27000Y228000
X93331Y139512
X171000Y182000
X181000Y182000
X222661Y185228
X222661Y175228
X232661Y175228
X232661Y185228
X232661Y195228
X222661Y195228
X222661Y211055
X222661Y221055
X232661Y221055
X232661Y211055
X232661Y231055
X222661Y231055
X222661Y241055
X222661Y251055
X232661Y251055
X232661Y241055
X327315Y238000
X337315Y238000
X337315Y228000
X327315Y228000
X327315Y218000
X337315Y218000
X337315Y208000
X337315Y198000
X327315Y198000
X327315Y208000
X327315Y188000
X337315Y188000
X337315Y178000
X327315Y178000
X327000Y126000
X327000Y116000
X337000Y116000
X337000Y126000
X337000Y106000
X337000Y96000
X337000Y86000
X337000Y76000
X327000Y76000
X327000Y86000
X327000Y96000
X327000Y106000
X327000Y66000
X327000Y56000
X337000Y56000
X337000Y66000
X337315Y248000
X327315Y248000
T10
X82138Y42787
X57138Y42787
T11
X22000Y17000
X332000Y17000
X332000Y287000
X22000Y287000
T12
X273811Y125937
X163811Y55937
M30
