G04 #@! TF.GenerationSoftware,KiCad,Pcbnew,(5.0.0-rc2-dev-311-g1dd4af297)*
G04 #@! TF.CreationDate,2018-03-29T11:26:02-07:00*
G04 #@! TF.ProjectId,Lupo_Testing,4C75706F5F54657374696E672E6B6963,rev?*
G04 #@! TF.SameCoordinates,Original*
G04 #@! TF.FileFunction,Paste,Top*
G04 #@! TF.FilePolarity,Positive*
%FSLAX46Y46*%
G04 Gerber Fmt 4.6, Leading zero omitted, Abs format (unit mm)*
G04 Created by KiCad (PCBNEW (5.0.0-rc2-dev-311-g1dd4af297)) date 03/29/18 11:26:02*
%MOMM*%
%LPD*%
G01*
G04 APERTURE LIST*
%ADD10R,0.250000X0.704800*%
%ADD11R,0.704800X0.250000*%
%ADD12R,4.600001X4.600001*%
%ADD13R,0.950000X0.550000*%
%ADD14R,1.500000X0.400000*%
%ADD15R,1.700000X0.650000*%
%ADD16R,1.889999X0.319999*%
%ADD17R,0.240000X0.599999*%
%ADD18R,0.599999X0.240000*%
%ADD19R,0.820000X0.820000*%
%ADD20R,0.850000X0.280000*%
%ADD21R,0.280000X0.850000*%
%ADD22R,0.230000X0.350000*%
%ADD23R,0.350000X0.230000*%
%ADD24R,0.750000X0.750000*%
%ADD25R,0.300000X0.730000*%
%ADD26R,0.730000X0.300000*%
%ADD27R,1.035000X1.035000*%
%ADD28R,0.250000X0.700000*%
%ADD29R,0.700000X0.250000*%
%ADD30R,0.750000X1.200000*%
%ADD31R,1.200000X0.750000*%
%ADD32R,1.500000X1.250000*%
%ADD33R,1.250000X1.500000*%
%ADD34R,5.080000X1.500000*%
%ADD35R,0.900000X1.200000*%
%ADD36R,1.200000X0.900000*%
%ADD37R,3.700000X0.980000*%
%ADD38R,1.300000X1.500000*%
%ADD39R,3.325000X2.400000*%
%ADD40R,1.800000X2.000000*%
G04 APERTURE END LIST*
D10*
X237140999Y-104425402D03*
X237641000Y-104425402D03*
X238140999Y-104425402D03*
X238641001Y-104425402D03*
X239141000Y-104425402D03*
X239640999Y-104425402D03*
X240141001Y-104425402D03*
X240641000Y-104425402D03*
X241141001Y-104425402D03*
D11*
X242093402Y-103473001D03*
X242093402Y-102973000D03*
X242093402Y-102473001D03*
X242093402Y-101972999D03*
X242093402Y-101473000D03*
X242093402Y-100973001D03*
X242093402Y-100472999D03*
X242093402Y-99973000D03*
X242093402Y-99472999D03*
D10*
X241141001Y-98520598D03*
X240641000Y-98520598D03*
X240141001Y-98520598D03*
X239640999Y-98520598D03*
X239141000Y-98520598D03*
X238641001Y-98520598D03*
X238140999Y-98520598D03*
X237641000Y-98520598D03*
X237140999Y-98520598D03*
D11*
X236188598Y-99472999D03*
X236188598Y-99973000D03*
X236188598Y-100472999D03*
X236188598Y-100973001D03*
X236188598Y-101473000D03*
X236188598Y-101972999D03*
X236188598Y-102473001D03*
X236188598Y-102973000D03*
X236188598Y-103473001D03*
D12*
X239141000Y-101473000D03*
D13*
X230310000Y-82647000D03*
X230310000Y-81397000D03*
X230310000Y-80147000D03*
X230310000Y-78897000D03*
X228160000Y-81397000D03*
X228160000Y-80147000D03*
X228160000Y-78897000D03*
X228160000Y-82647000D03*
D14*
X259521000Y-96632000D03*
X259521000Y-97282000D03*
X259521000Y-97932000D03*
X256861000Y-97932000D03*
X256861000Y-97282000D03*
X256861000Y-96632000D03*
D15*
X252951000Y-83312000D03*
X252951000Y-84582000D03*
X252951000Y-85852000D03*
X252951000Y-87122000D03*
X245651000Y-87122000D03*
X245651000Y-85852000D03*
X245651000Y-84582000D03*
X245651000Y-83312000D03*
D16*
X237871000Y-83584001D03*
X237871000Y-84074000D03*
X237871000Y-84563999D03*
D17*
X237675999Y-85474000D03*
X238176000Y-85474000D03*
X238676000Y-85474000D03*
X239176001Y-85474000D03*
D18*
X239576000Y-84573999D03*
X239576000Y-84074000D03*
X239576000Y-83574001D03*
D17*
X239176001Y-82674000D03*
X238676000Y-82674000D03*
X238176000Y-82674000D03*
X237675999Y-82674000D03*
D19*
X246633000Y-105700000D03*
X246633000Y-104580000D03*
X245513000Y-104580000D03*
X245513000Y-105700000D03*
D20*
X247798000Y-105890000D03*
D21*
X247073000Y-106865000D03*
X246573000Y-106865000D03*
X246073000Y-106865000D03*
X245573000Y-106865000D03*
X245073000Y-106865000D03*
D20*
X244348000Y-105890000D03*
X244348000Y-104390000D03*
D21*
X245073000Y-103415000D03*
X245573000Y-103415000D03*
X246073000Y-103415000D03*
X246573000Y-103415000D03*
X247073000Y-103415000D03*
D20*
X247798000Y-104390000D03*
D22*
X220961000Y-85807000D03*
X220531000Y-85807000D03*
X220101000Y-85807000D03*
X219671000Y-85807000D03*
X219241000Y-85807000D03*
X218811000Y-85807000D03*
X218381000Y-85807000D03*
X217951000Y-85807000D03*
X220961000Y-83357000D03*
X220531000Y-83357000D03*
X220101000Y-83357000D03*
X219671000Y-83357000D03*
X219241000Y-83357000D03*
X218811000Y-83357000D03*
X218381000Y-83357000D03*
D23*
X220931000Y-85227000D03*
X217981000Y-85227000D03*
X220931000Y-84797000D03*
X217981000Y-84797000D03*
X220931000Y-84367000D03*
X217981000Y-84367000D03*
X220931000Y-83937000D03*
X217981000Y-83937000D03*
D22*
X217951000Y-83357000D03*
D24*
X206365000Y-97780000D03*
X206365000Y-96530000D03*
X205115000Y-97780000D03*
X205115000Y-96530000D03*
D25*
X206740000Y-99120000D03*
X206240000Y-99120000D03*
X205740000Y-99120000D03*
X205240000Y-99120000D03*
X204740000Y-99120000D03*
D26*
X203775000Y-98155000D03*
X203775000Y-97655000D03*
X203775000Y-97155000D03*
X203775000Y-96655000D03*
X203775000Y-96155000D03*
D25*
X204740000Y-95190000D03*
X205240000Y-95190000D03*
X205740000Y-95190000D03*
X206240000Y-95190000D03*
X206740000Y-95190000D03*
D26*
X207705000Y-96155000D03*
X207705000Y-96655000D03*
X207705000Y-97155000D03*
X207705000Y-97655000D03*
X207705000Y-98155000D03*
D27*
X217932000Y-98425000D03*
X217932000Y-100150000D03*
X219657000Y-98425000D03*
X219657000Y-100150000D03*
D28*
X217044500Y-96887500D03*
X217544500Y-96887500D03*
X218044500Y-96887500D03*
X218544500Y-96887500D03*
X219044500Y-96887500D03*
X219544500Y-96887500D03*
X220044500Y-96887500D03*
X220544500Y-96887500D03*
D29*
X221194500Y-97537500D03*
X221194500Y-98037500D03*
X221194500Y-98537500D03*
X221194500Y-99037500D03*
X221194500Y-99537500D03*
X221194500Y-100037500D03*
X221194500Y-100537500D03*
X221194500Y-101037500D03*
D28*
X220544500Y-101687500D03*
X220044500Y-101687500D03*
X219544500Y-101687500D03*
X219044500Y-101687500D03*
X218544500Y-101687500D03*
X218044500Y-101687500D03*
X217544500Y-101687500D03*
X217044500Y-101687500D03*
D29*
X216394500Y-101037500D03*
X216394500Y-100537500D03*
X216394500Y-100037500D03*
X216394500Y-99537500D03*
X216394500Y-99037500D03*
X216394500Y-98537500D03*
X216394500Y-98037500D03*
X216394500Y-97537500D03*
D30*
X238125000Y-106685000D03*
X238125000Y-108585000D03*
X236347000Y-106619000D03*
X236347000Y-108519000D03*
X242443000Y-108011000D03*
X242443000Y-106111000D03*
X239776000Y-108646000D03*
X239776000Y-106746000D03*
D31*
X226248000Y-80137000D03*
X224348000Y-80137000D03*
X224348000Y-82677000D03*
X226248000Y-82677000D03*
D30*
X220472000Y-81595000D03*
X220472000Y-79695000D03*
D32*
X226167000Y-78359000D03*
X223667000Y-78359000D03*
D31*
X224348000Y-84201000D03*
X226248000Y-84201000D03*
D30*
X218440000Y-79695000D03*
X218440000Y-81595000D03*
D31*
X203774000Y-102489000D03*
X205674000Y-102489000D03*
X207584000Y-100965000D03*
X209484000Y-100965000D03*
X205674000Y-100965000D03*
X203774000Y-100965000D03*
X216088000Y-85852000D03*
X214188000Y-85852000D03*
X231460000Y-100838000D03*
X233360000Y-100838000D03*
D32*
X213507000Y-87503000D03*
X216007000Y-87503000D03*
D30*
X235204000Y-94173000D03*
X235204000Y-96073000D03*
X236855000Y-94112000D03*
X236855000Y-96012000D03*
D31*
X197800000Y-93599000D03*
X195900000Y-93599000D03*
D30*
X216662000Y-79761000D03*
X216662000Y-81661000D03*
X233553000Y-96073000D03*
X233553000Y-94173000D03*
X210566000Y-91755000D03*
X210566000Y-89855000D03*
D33*
X238633000Y-93472000D03*
X238633000Y-95972000D03*
D31*
X195900000Y-95377000D03*
X197800000Y-95377000D03*
D30*
X198882000Y-91755000D03*
X198882000Y-89855000D03*
D31*
X233421000Y-98425000D03*
X231521000Y-98425000D03*
D30*
X240538000Y-96134000D03*
X240538000Y-94234000D03*
D31*
X193868000Y-97917000D03*
X195768000Y-97917000D03*
D32*
X240919000Y-87122000D03*
X238419000Y-87122000D03*
D30*
X192024000Y-97851000D03*
X192024000Y-95951000D03*
D31*
X252542000Y-97917000D03*
X254442000Y-97917000D03*
D32*
X264521000Y-88646000D03*
X262021000Y-88646000D03*
D31*
X266126000Y-96266000D03*
X264226000Y-96266000D03*
X263840000Y-90297000D03*
X261940000Y-90297000D03*
X250251000Y-81280000D03*
X248351000Y-81280000D03*
D32*
X240665000Y-81026000D03*
X238165000Y-81026000D03*
D31*
X263840000Y-91694000D03*
X261940000Y-91694000D03*
D32*
X238145000Y-78994000D03*
X240645000Y-78994000D03*
D30*
X221488000Y-94803000D03*
X221488000Y-92903000D03*
D32*
X216769000Y-104902000D03*
X214269000Y-104902000D03*
D31*
X214950000Y-103251000D03*
X216850000Y-103251000D03*
X218308000Y-92583000D03*
X216408000Y-92583000D03*
D32*
X215666000Y-90932000D03*
X218166000Y-90932000D03*
D31*
X244414000Y-99441000D03*
X246314000Y-99441000D03*
D30*
X246380000Y-95824000D03*
X246380000Y-97724000D03*
D31*
X248224000Y-97790000D03*
X250124000Y-97790000D03*
X250124000Y-95758000D03*
X248224000Y-95758000D03*
X232410000Y-110490000D03*
X230510000Y-110490000D03*
D34*
X187960000Y-97917000D03*
X187960000Y-102167000D03*
X187960000Y-93667000D03*
D35*
X201930000Y-98255000D03*
X201930000Y-96055000D03*
X199898000Y-93853000D03*
X199898000Y-96053000D03*
D36*
X197782000Y-97917000D03*
X199982000Y-97917000D03*
D37*
X233807000Y-82889000D03*
X233807000Y-85259000D03*
D38*
X262001000Y-96219000D03*
X262001000Y-93519000D03*
D35*
X244348000Y-95590000D03*
X244348000Y-97790000D03*
X201930000Y-103335000D03*
X201930000Y-101135000D03*
D36*
X240624000Y-91948000D03*
X242824000Y-91948000D03*
X251503000Y-104140000D03*
X253703000Y-104140000D03*
X242824000Y-90043000D03*
X240624000Y-90043000D03*
D35*
X249682000Y-104183000D03*
X249682000Y-106383000D03*
D36*
X206078000Y-93599000D03*
X203878000Y-93599000D03*
X235415000Y-92329000D03*
X233215000Y-92329000D03*
X248328000Y-89027000D03*
X250528000Y-89027000D03*
X259672000Y-88646000D03*
X257472000Y-88646000D03*
D35*
X255397000Y-84285000D03*
X255397000Y-82085000D03*
X218694000Y-107145000D03*
X218694000Y-104945000D03*
X220345000Y-104945000D03*
X220345000Y-107145000D03*
X219964000Y-94742000D03*
X219964000Y-92542000D03*
D36*
X248201000Y-99441000D03*
X250401000Y-99441000D03*
D39*
X201961500Y-90805000D03*
X207486500Y-90805000D03*
D40*
X226949000Y-104077000D03*
X232029000Y-104077000D03*
X232029000Y-108077000D03*
X226949000Y-108077000D03*
M02*
