G04 #@! TF.GenerationSoftware,KiCad,Pcbnew,(5.0.0-rc2-dev-311-g1dd4af297)*
G04 #@! TF.CreationDate,2018-06-18T13:27:12-07:00*
G04 #@! TF.ProjectId,beacon_pll,626561636F6E5F706C6C2E6B69636164,rev?*
G04 #@! TF.SameCoordinates,Original*
G04 #@! TF.FileFunction,Paste,Top*
G04 #@! TF.FilePolarity,Positive*
%FSLAX46Y46*%
G04 Gerber Fmt 4.6, Leading zero omitted, Abs format (unit mm)*
G04 Created by KiCad (PCBNEW (5.0.0-rc2-dev-311-g1dd4af297)) date 06/18/18 13:27:12*
%MOMM*%
%LPD*%
G01*
G04 APERTURE LIST*
%ADD10R,1.500000X1.300000*%
%ADD11R,2.000000X1.500000*%
%ADD12R,2.000000X3.800000*%
%ADD13R,2.000000X1.600000*%
%ADD14R,3.500000X1.800000*%
%ADD15R,2.600000X1.800000*%
%ADD16R,1.500000X1.250000*%
%ADD17R,1.250000X1.500000*%
%ADD18R,1.300000X1.500000*%
%ADD19R,5.080000X1.500000*%
%ADD20R,2.438400X2.438400*%
%ADD21R,0.304800X0.812800*%
%ADD22R,0.812800X0.304800*%
%ADD23R,1.500000X0.400000*%
%ADD24R,1.300000X1.100000*%
%ADD25R,1.500000X0.600000*%
G04 APERTURE END LIST*
D10*
X170274000Y-70739000D03*
X172974000Y-70739000D03*
D11*
X176555000Y-66153000D03*
X176555000Y-70753000D03*
X176555000Y-68453000D03*
D12*
X182855000Y-68453000D03*
D13*
X180594000Y-74041000D03*
X176594000Y-74041000D03*
D14*
X165561000Y-65913000D03*
X170561000Y-65913000D03*
D15*
X184912000Y-74041000D03*
X188312000Y-74041000D03*
D16*
X194437000Y-80010000D03*
X196937000Y-80010000D03*
D17*
X196088000Y-67564000D03*
X196088000Y-70064000D03*
X205359000Y-89829000D03*
X205359000Y-92329000D03*
D16*
X194477000Y-73914000D03*
X196977000Y-73914000D03*
D17*
X202966000Y-85451000D03*
X202966000Y-82951000D03*
X204978000Y-82971000D03*
X204978000Y-85471000D03*
X212725000Y-78125000D03*
X212725000Y-80625000D03*
X210693000Y-80625000D03*
X210693000Y-78125000D03*
X212852000Y-69997000D03*
X212852000Y-72497000D03*
D16*
X224663000Y-76200000D03*
X227163000Y-76200000D03*
D17*
X210693000Y-70017000D03*
X210693000Y-72517000D03*
D16*
X219369000Y-76200000D03*
X221869000Y-76200000D03*
X219329000Y-74168000D03*
X221829000Y-74168000D03*
X210586000Y-83439000D03*
X213086000Y-83439000D03*
D17*
X216154000Y-85979000D03*
X216154000Y-83479000D03*
X227203000Y-68921000D03*
X227203000Y-66421000D03*
D16*
X233152000Y-68453000D03*
X230652000Y-68453000D03*
X230632000Y-70612000D03*
X233132000Y-70612000D03*
X235966000Y-74930000D03*
X238466000Y-74930000D03*
D17*
X208407000Y-67457000D03*
X208407000Y-69957000D03*
D18*
X188341000Y-77310000D03*
X188341000Y-80010000D03*
D19*
X244856000Y-74930000D03*
X244856000Y-70680000D03*
X244856000Y-79180000D03*
D10*
X216455000Y-78359000D03*
X219155000Y-78359000D03*
D18*
X202819000Y-67277000D03*
X202819000Y-69977000D03*
D10*
X219075000Y-72136000D03*
X216375000Y-72136000D03*
D18*
X198374000Y-70010000D03*
X198374000Y-67310000D03*
D10*
X233172000Y-72771000D03*
X235872000Y-72771000D03*
X185580000Y-80010000D03*
X182880000Y-80010000D03*
X219362000Y-89789000D03*
X216662000Y-89789000D03*
X210947000Y-92456000D03*
X208247000Y-92456000D03*
D18*
X213741000Y-92409000D03*
X213741000Y-89709000D03*
X193802000Y-67404000D03*
X193802000Y-70104000D03*
X202946000Y-92489000D03*
X202946000Y-89789000D03*
X205105000Y-70010000D03*
X205105000Y-67310000D03*
X200533000Y-67310000D03*
X200533000Y-70010000D03*
D10*
X221836000Y-66294000D03*
X224536000Y-66294000D03*
D18*
X224536000Y-73533000D03*
X224536000Y-70833000D03*
D10*
X210406000Y-85979000D03*
X213106000Y-85979000D03*
X214663000Y-66294000D03*
X211963000Y-66294000D03*
D20*
X205359000Y-75819000D03*
D21*
X206609000Y-77711300D03*
X206109001Y-77711300D03*
X205609000Y-77711300D03*
X205109000Y-77711300D03*
X204608999Y-77711300D03*
X204109000Y-77711300D03*
D22*
X203466700Y-77069000D03*
X203466700Y-76569001D03*
X203466700Y-76069000D03*
X203466700Y-75569000D03*
X203466700Y-75068999D03*
X203466700Y-74569000D03*
D21*
X204109000Y-73926700D03*
X204608999Y-73926700D03*
X205109000Y-73926700D03*
X205609000Y-73926700D03*
X206109001Y-73926700D03*
X206609000Y-73926700D03*
D22*
X207251300Y-74569000D03*
X207251300Y-75068999D03*
X207251300Y-75569000D03*
X207251300Y-76069000D03*
X207251300Y-76569001D03*
X207251300Y-77069000D03*
D23*
X232784000Y-74915000D03*
X232784000Y-75565000D03*
X232784000Y-76215000D03*
X230124000Y-76215000D03*
X230124000Y-75565000D03*
X230124000Y-74915000D03*
D24*
X194911000Y-76010000D03*
X197011000Y-76010000D03*
X197011000Y-77660000D03*
X194911000Y-77660000D03*
D16*
X192405000Y-94615000D03*
X189905000Y-94615000D03*
X184638000Y-94615000D03*
X182138000Y-94615000D03*
D10*
X181516000Y-84201000D03*
X178816000Y-84201000D03*
D25*
X184625000Y-91821000D03*
X184625000Y-90551000D03*
X184625000Y-89281000D03*
X184625000Y-88011000D03*
X184625000Y-86741000D03*
X184625000Y-85471000D03*
X184625000Y-84201000D03*
X190025000Y-84201000D03*
X190025000Y-85471000D03*
X190025000Y-86741000D03*
X190025000Y-88011000D03*
X190025000Y-89281000D03*
X190025000Y-90551000D03*
X190025000Y-91821000D03*
M02*
