G04 #@! TF.GenerationSoftware,KiCad,Pcbnew,(5.0.0-rc2-dev-311-g1dd4af297)*
G04 #@! TF.CreationDate,2018-06-18T13:27:12-07:00*
G04 #@! TF.ProjectId,beacon_pll,626561636F6E5F706C6C2E6B69636164,rev?*
G04 #@! TF.SameCoordinates,Original*
G04 #@! TF.FileFunction,Legend,Top*
G04 #@! TF.FilePolarity,Positive*
%FSLAX46Y46*%
G04 Gerber Fmt 4.6, Leading zero omitted, Abs format (unit mm)*
G04 Created by KiCad (PCBNEW (5.0.0-rc2-dev-311-g1dd4af297)) date 06/18/18 13:27:12*
%MOMM*%
%LPD*%
G01*
G04 APERTURE LIST*
%ADD10C,0.300000*%
%ADD11C,0.120000*%
%ADD12C,0.152400*%
%ADD13C,0.150000*%
G04 APERTURE END LIST*
D10*
X223746714Y-90283000D02*
X224461000Y-90283000D01*
X223603857Y-90711571D02*
X224103857Y-89211571D01*
X224603857Y-90711571D01*
X225103857Y-90711571D02*
X225103857Y-89211571D01*
X225461000Y-89211571D01*
X225675285Y-89283000D01*
X225818142Y-89425857D01*
X225889571Y-89568714D01*
X225961000Y-89854428D01*
X225961000Y-90068714D01*
X225889571Y-90354428D01*
X225818142Y-90497285D01*
X225675285Y-90640142D01*
X225461000Y-90711571D01*
X225103857Y-90711571D01*
X227103857Y-89925857D02*
X226603857Y-89925857D01*
X226603857Y-90711571D02*
X226603857Y-89211571D01*
X227318142Y-89211571D01*
X228532428Y-89711571D02*
X228532428Y-90711571D01*
X228175285Y-89140142D02*
X227818142Y-90211571D01*
X228746714Y-90211571D01*
X229175285Y-89211571D02*
X230103857Y-89211571D01*
X229603857Y-89783000D01*
X229818142Y-89783000D01*
X229961000Y-89854428D01*
X230032428Y-89925857D01*
X230103857Y-90068714D01*
X230103857Y-90425857D01*
X230032428Y-90568714D01*
X229961000Y-90640142D01*
X229818142Y-90711571D01*
X229389571Y-90711571D01*
X229246714Y-90640142D01*
X229175285Y-90568714D01*
X231389571Y-89211571D02*
X231103857Y-89211571D01*
X230961000Y-89283000D01*
X230889571Y-89354428D01*
X230746714Y-89568714D01*
X230675285Y-89854428D01*
X230675285Y-90425857D01*
X230746714Y-90568714D01*
X230818142Y-90640142D01*
X230961000Y-90711571D01*
X231246714Y-90711571D01*
X231389571Y-90640142D01*
X231461000Y-90568714D01*
X231532428Y-90425857D01*
X231532428Y-90068714D01*
X231461000Y-89925857D01*
X231389571Y-89854428D01*
X231246714Y-89783000D01*
X230961000Y-89783000D01*
X230818142Y-89854428D01*
X230746714Y-89925857D01*
X230675285Y-90068714D01*
X232461000Y-89211571D02*
X232603857Y-89211571D01*
X232746714Y-89283000D01*
X232818142Y-89354428D01*
X232889571Y-89497285D01*
X232961000Y-89783000D01*
X232961000Y-90140142D01*
X232889571Y-90425857D01*
X232818142Y-90568714D01*
X232746714Y-90640142D01*
X232603857Y-90711571D01*
X232461000Y-90711571D01*
X232318142Y-90640142D01*
X232246714Y-90568714D01*
X232175285Y-90425857D01*
X232103857Y-90140142D01*
X232103857Y-89783000D01*
X232175285Y-89497285D01*
X232246714Y-89354428D01*
X232318142Y-89283000D01*
X232461000Y-89211571D01*
X233603857Y-90140142D02*
X234746714Y-90140142D01*
X235675285Y-89854428D02*
X235532428Y-89783000D01*
X235461000Y-89711571D01*
X235389571Y-89568714D01*
X235389571Y-89497285D01*
X235461000Y-89354428D01*
X235532428Y-89283000D01*
X235675285Y-89211571D01*
X235961000Y-89211571D01*
X236103857Y-89283000D01*
X236175285Y-89354428D01*
X236246714Y-89497285D01*
X236246714Y-89568714D01*
X236175285Y-89711571D01*
X236103857Y-89783000D01*
X235961000Y-89854428D01*
X235675285Y-89854428D01*
X235532428Y-89925857D01*
X235461000Y-89997285D01*
X235389571Y-90140142D01*
X235389571Y-90425857D01*
X235461000Y-90568714D01*
X235532428Y-90640142D01*
X235675285Y-90711571D01*
X235961000Y-90711571D01*
X236103857Y-90640142D01*
X236175285Y-90568714D01*
X236246714Y-90425857D01*
X236246714Y-90140142D01*
X236175285Y-89997285D01*
X236103857Y-89925857D01*
X235961000Y-89854428D01*
X224318142Y-92475857D02*
X224532428Y-92547285D01*
X224603857Y-92618714D01*
X224675285Y-92761571D01*
X224675285Y-92975857D01*
X224603857Y-93118714D01*
X224532428Y-93190142D01*
X224389571Y-93261571D01*
X223818142Y-93261571D01*
X223818142Y-91761571D01*
X224318142Y-91761571D01*
X224461000Y-91833000D01*
X224532428Y-91904428D01*
X224603857Y-92047285D01*
X224603857Y-92190142D01*
X224532428Y-92333000D01*
X224461000Y-92404428D01*
X224318142Y-92475857D01*
X223818142Y-92475857D01*
X225889571Y-93190142D02*
X225746714Y-93261571D01*
X225461000Y-93261571D01*
X225318142Y-93190142D01*
X225246714Y-93047285D01*
X225246714Y-92475857D01*
X225318142Y-92333000D01*
X225461000Y-92261571D01*
X225746714Y-92261571D01*
X225889571Y-92333000D01*
X225961000Y-92475857D01*
X225961000Y-92618714D01*
X225246714Y-92761571D01*
X227246714Y-93261571D02*
X227246714Y-92475857D01*
X227175285Y-92333000D01*
X227032428Y-92261571D01*
X226746714Y-92261571D01*
X226603857Y-92333000D01*
X227246714Y-93190142D02*
X227103857Y-93261571D01*
X226746714Y-93261571D01*
X226603857Y-93190142D01*
X226532428Y-93047285D01*
X226532428Y-92904428D01*
X226603857Y-92761571D01*
X226746714Y-92690142D01*
X227103857Y-92690142D01*
X227246714Y-92618714D01*
X228603857Y-93190142D02*
X228461000Y-93261571D01*
X228175285Y-93261571D01*
X228032428Y-93190142D01*
X227961000Y-93118714D01*
X227889571Y-92975857D01*
X227889571Y-92547285D01*
X227961000Y-92404428D01*
X228032428Y-92333000D01*
X228175285Y-92261571D01*
X228461000Y-92261571D01*
X228603857Y-92333000D01*
X229461000Y-93261571D02*
X229318142Y-93190142D01*
X229246714Y-93118714D01*
X229175285Y-92975857D01*
X229175285Y-92547285D01*
X229246714Y-92404428D01*
X229318142Y-92333000D01*
X229461000Y-92261571D01*
X229675285Y-92261571D01*
X229818142Y-92333000D01*
X229889571Y-92404428D01*
X229961000Y-92547285D01*
X229961000Y-92975857D01*
X229889571Y-93118714D01*
X229818142Y-93190142D01*
X229675285Y-93261571D01*
X229461000Y-93261571D01*
X230603857Y-92261571D02*
X230603857Y-93261571D01*
X230603857Y-92404428D02*
X230675285Y-92333000D01*
X230818142Y-92261571D01*
X231032428Y-92261571D01*
X231175285Y-92333000D01*
X231246714Y-92475857D01*
X231246714Y-93261571D01*
X233603857Y-92475857D02*
X233818142Y-92547285D01*
X233889571Y-92618714D01*
X233961000Y-92761571D01*
X233961000Y-92975857D01*
X233889571Y-93118714D01*
X233818142Y-93190142D01*
X233675285Y-93261571D01*
X233103857Y-93261571D01*
X233103857Y-91761571D01*
X233603857Y-91761571D01*
X233746714Y-91833000D01*
X233818142Y-91904428D01*
X233889571Y-92047285D01*
X233889571Y-92190142D01*
X233818142Y-92333000D01*
X233746714Y-92404428D01*
X233603857Y-92475857D01*
X233103857Y-92475857D01*
X234603857Y-93261571D02*
X234603857Y-92261571D01*
X234603857Y-92547285D02*
X234675285Y-92404428D01*
X234746714Y-92333000D01*
X234889571Y-92261571D01*
X235032428Y-92261571D01*
X236103857Y-93190142D02*
X235961000Y-93261571D01*
X235675285Y-93261571D01*
X235532428Y-93190142D01*
X235461000Y-93047285D01*
X235461000Y-92475857D01*
X235532428Y-92333000D01*
X235675285Y-92261571D01*
X235961000Y-92261571D01*
X236103857Y-92333000D01*
X236175285Y-92475857D01*
X236175285Y-92618714D01*
X235461000Y-92761571D01*
X237461000Y-93261571D02*
X237461000Y-92475857D01*
X237389571Y-92333000D01*
X237246714Y-92261571D01*
X236961000Y-92261571D01*
X236818142Y-92333000D01*
X237461000Y-93190142D02*
X237318142Y-93261571D01*
X236961000Y-93261571D01*
X236818142Y-93190142D01*
X236746714Y-93047285D01*
X236746714Y-92904428D01*
X236818142Y-92761571D01*
X236961000Y-92690142D01*
X237318142Y-92690142D01*
X237461000Y-92618714D01*
X238175285Y-93261571D02*
X238175285Y-91761571D01*
X238318142Y-92690142D02*
X238746714Y-93261571D01*
X238746714Y-92261571D02*
X238175285Y-92833000D01*
X239603857Y-93261571D02*
X239461000Y-93190142D01*
X239389571Y-93118714D01*
X239318142Y-92975857D01*
X239318142Y-92547285D01*
X239389571Y-92404428D01*
X239461000Y-92333000D01*
X239603857Y-92261571D01*
X239818142Y-92261571D01*
X239961000Y-92333000D01*
X240032428Y-92404428D01*
X240103857Y-92547285D01*
X240103857Y-92975857D01*
X240032428Y-93118714D01*
X239961000Y-93190142D01*
X239818142Y-93261571D01*
X239603857Y-93261571D01*
X241389571Y-92261571D02*
X241389571Y-93261571D01*
X240746714Y-92261571D02*
X240746714Y-93047285D01*
X240818142Y-93190142D01*
X240961000Y-93261571D01*
X241175285Y-93261571D01*
X241318142Y-93190142D01*
X241389571Y-93118714D01*
X241889571Y-92261571D02*
X242461000Y-92261571D01*
X242103857Y-91761571D02*
X242103857Y-93047285D01*
X242175285Y-93190142D01*
X242318142Y-93261571D01*
X242461000Y-93261571D01*
X223746714Y-94454428D02*
X223818142Y-94383000D01*
X223961000Y-94311571D01*
X224318142Y-94311571D01*
X224461000Y-94383000D01*
X224532428Y-94454428D01*
X224603857Y-94597285D01*
X224603857Y-94740142D01*
X224532428Y-94954428D01*
X223675285Y-95811571D01*
X224603857Y-95811571D01*
X225175285Y-94454428D02*
X225246714Y-94383000D01*
X225389571Y-94311571D01*
X225746714Y-94311571D01*
X225889571Y-94383000D01*
X225961000Y-94454428D01*
X226032428Y-94597285D01*
X226032428Y-94740142D01*
X225961000Y-94954428D01*
X225103857Y-95811571D01*
X226032428Y-95811571D01*
X226603857Y-94454428D02*
X226675285Y-94383000D01*
X226818142Y-94311571D01*
X227175285Y-94311571D01*
X227318142Y-94383000D01*
X227389571Y-94454428D01*
X227461000Y-94597285D01*
X227461000Y-94740142D01*
X227389571Y-94954428D01*
X226532428Y-95811571D01*
X227461000Y-95811571D01*
X228103857Y-95668714D02*
X228175285Y-95740142D01*
X228103857Y-95811571D01*
X228032428Y-95740142D01*
X228103857Y-95668714D01*
X228103857Y-95811571D01*
X228746714Y-94454428D02*
X228818142Y-94383000D01*
X228961000Y-94311571D01*
X229318142Y-94311571D01*
X229461000Y-94383000D01*
X229532428Y-94454428D01*
X229603857Y-94597285D01*
X229603857Y-94740142D01*
X229532428Y-94954428D01*
X228675285Y-95811571D01*
X229603857Y-95811571D01*
X230961000Y-94311571D02*
X230246714Y-94311571D01*
X230175285Y-95025857D01*
X230246714Y-94954428D01*
X230389571Y-94883000D01*
X230746714Y-94883000D01*
X230889571Y-94954428D01*
X230961000Y-95025857D01*
X231032428Y-95168714D01*
X231032428Y-95525857D01*
X230961000Y-95668714D01*
X230889571Y-95740142D01*
X230746714Y-95811571D01*
X230389571Y-95811571D01*
X230246714Y-95740142D01*
X230175285Y-95668714D01*
X231675285Y-95240142D02*
X232818142Y-95240142D01*
X233461000Y-94454428D02*
X233532428Y-94383000D01*
X233675285Y-94311571D01*
X234032428Y-94311571D01*
X234175285Y-94383000D01*
X234246714Y-94454428D01*
X234318142Y-94597285D01*
X234318142Y-94740142D01*
X234246714Y-94954428D01*
X233389571Y-95811571D01*
X234318142Y-95811571D01*
X234889571Y-94454428D02*
X234961000Y-94383000D01*
X235103857Y-94311571D01*
X235461000Y-94311571D01*
X235603857Y-94383000D01*
X235675285Y-94454428D01*
X235746714Y-94597285D01*
X235746714Y-94740142D01*
X235675285Y-94954428D01*
X234818142Y-95811571D01*
X235746714Y-95811571D01*
X236246714Y-94311571D02*
X237175285Y-94311571D01*
X236675285Y-94883000D01*
X236889571Y-94883000D01*
X237032428Y-94954428D01*
X237103857Y-95025857D01*
X237175285Y-95168714D01*
X237175285Y-95525857D01*
X237103857Y-95668714D01*
X237032428Y-95740142D01*
X236889571Y-95811571D01*
X236461000Y-95811571D01*
X236318142Y-95740142D01*
X236246714Y-95668714D01*
X237818142Y-95668714D02*
X237889571Y-95740142D01*
X237818142Y-95811571D01*
X237746714Y-95740142D01*
X237818142Y-95668714D01*
X237818142Y-95811571D01*
X238461000Y-94454428D02*
X238532428Y-94383000D01*
X238675285Y-94311571D01*
X239032428Y-94311571D01*
X239175285Y-94383000D01*
X239246714Y-94454428D01*
X239318142Y-94597285D01*
X239318142Y-94740142D01*
X239246714Y-94954428D01*
X238389571Y-95811571D01*
X239318142Y-95811571D01*
X240032428Y-95811571D02*
X240318142Y-95811571D01*
X240461000Y-95740142D01*
X240532428Y-95668714D01*
X240675285Y-95454428D01*
X240746714Y-95168714D01*
X240746714Y-94597285D01*
X240675285Y-94454428D01*
X240603857Y-94383000D01*
X240461000Y-94311571D01*
X240175285Y-94311571D01*
X240032428Y-94383000D01*
X239961000Y-94454428D01*
X239889571Y-94597285D01*
X239889571Y-94954428D01*
X239961000Y-95097285D01*
X240032428Y-95168714D01*
X240175285Y-95240142D01*
X240461000Y-95240142D01*
X240603857Y-95168714D01*
X240675285Y-95097285D01*
X240746714Y-94954428D01*
X242532428Y-95811571D02*
X242532428Y-94311571D01*
X243032428Y-95383000D01*
X243532428Y-94311571D01*
X243532428Y-95811571D01*
X244246714Y-95811571D02*
X244246714Y-94311571D01*
X244246714Y-95025857D02*
X245103857Y-95025857D01*
X245103857Y-95811571D02*
X245103857Y-94311571D01*
X245675285Y-94811571D02*
X246461000Y-94811571D01*
X245675285Y-95811571D01*
X246461000Y-95811571D01*
X159544000Y-92523571D02*
X160044000Y-94023571D01*
X160544000Y-92523571D01*
X161044000Y-94023571D02*
X161044000Y-92523571D01*
X161401142Y-92523571D01*
X161615428Y-92595000D01*
X161758285Y-92737857D01*
X161829714Y-92880714D01*
X161901142Y-93166428D01*
X161901142Y-93380714D01*
X161829714Y-93666428D01*
X161758285Y-93809285D01*
X161615428Y-93952142D01*
X161401142Y-94023571D01*
X161044000Y-94023571D01*
X162544000Y-94023571D02*
X162544000Y-92523571D01*
X162901142Y-92523571D01*
X163115428Y-92595000D01*
X163258285Y-92737857D01*
X163329714Y-92880714D01*
X163401142Y-93166428D01*
X163401142Y-93380714D01*
X163329714Y-93666428D01*
X163258285Y-93809285D01*
X163115428Y-93952142D01*
X162901142Y-94023571D01*
X162544000Y-94023571D01*
X160274142Y-90055000D02*
X160131285Y-89983571D01*
X159917000Y-89983571D01*
X159702714Y-90055000D01*
X159559857Y-90197857D01*
X159488428Y-90340714D01*
X159417000Y-90626428D01*
X159417000Y-90840714D01*
X159488428Y-91126428D01*
X159559857Y-91269285D01*
X159702714Y-91412142D01*
X159917000Y-91483571D01*
X160059857Y-91483571D01*
X160274142Y-91412142D01*
X160345571Y-91340714D01*
X160345571Y-90840714D01*
X160059857Y-90840714D01*
X160988428Y-91483571D02*
X160988428Y-89983571D01*
X161845571Y-91483571D01*
X161845571Y-89983571D01*
X162559857Y-91483571D02*
X162559857Y-89983571D01*
X162917000Y-89983571D01*
X163131285Y-90055000D01*
X163274142Y-90197857D01*
X163345571Y-90340714D01*
X163417000Y-90626428D01*
X163417000Y-90840714D01*
X163345571Y-91126428D01*
X163274142Y-91269285D01*
X163131285Y-91412142D01*
X162917000Y-91483571D01*
X162559857Y-91483571D01*
X160274142Y-87515000D02*
X160131285Y-87443571D01*
X159917000Y-87443571D01*
X159702714Y-87515000D01*
X159559857Y-87657857D01*
X159488428Y-87800714D01*
X159417000Y-88086428D01*
X159417000Y-88300714D01*
X159488428Y-88586428D01*
X159559857Y-88729285D01*
X159702714Y-88872142D01*
X159917000Y-88943571D01*
X160059857Y-88943571D01*
X160274142Y-88872142D01*
X160345571Y-88800714D01*
X160345571Y-88300714D01*
X160059857Y-88300714D01*
X160988428Y-88943571D02*
X160988428Y-87443571D01*
X161845571Y-88943571D01*
X161845571Y-87443571D01*
X162559857Y-88943571D02*
X162559857Y-87443571D01*
X162917000Y-87443571D01*
X163131285Y-87515000D01*
X163274142Y-87657857D01*
X163345571Y-87800714D01*
X163417000Y-88086428D01*
X163417000Y-88300714D01*
X163345571Y-88586428D01*
X163274142Y-88729285D01*
X163131285Y-88872142D01*
X162917000Y-88943571D01*
X162559857Y-88943571D01*
X160274142Y-84975000D02*
X160131285Y-84903571D01*
X159917000Y-84903571D01*
X159702714Y-84975000D01*
X159559857Y-85117857D01*
X159488428Y-85260714D01*
X159417000Y-85546428D01*
X159417000Y-85760714D01*
X159488428Y-86046428D01*
X159559857Y-86189285D01*
X159702714Y-86332142D01*
X159917000Y-86403571D01*
X160059857Y-86403571D01*
X160274142Y-86332142D01*
X160345571Y-86260714D01*
X160345571Y-85760714D01*
X160059857Y-85760714D01*
X160988428Y-86403571D02*
X160988428Y-84903571D01*
X161845571Y-86403571D01*
X161845571Y-84903571D01*
X162559857Y-86403571D02*
X162559857Y-84903571D01*
X162917000Y-84903571D01*
X163131285Y-84975000D01*
X163274142Y-85117857D01*
X163345571Y-85260714D01*
X163417000Y-85546428D01*
X163417000Y-85760714D01*
X163345571Y-86046428D01*
X163274142Y-86189285D01*
X163131285Y-86332142D01*
X162917000Y-86403571D01*
X162559857Y-86403571D01*
X160274142Y-82435000D02*
X160131285Y-82363571D01*
X159917000Y-82363571D01*
X159702714Y-82435000D01*
X159559857Y-82577857D01*
X159488428Y-82720714D01*
X159417000Y-83006428D01*
X159417000Y-83220714D01*
X159488428Y-83506428D01*
X159559857Y-83649285D01*
X159702714Y-83792142D01*
X159917000Y-83863571D01*
X160059857Y-83863571D01*
X160274142Y-83792142D01*
X160345571Y-83720714D01*
X160345571Y-83220714D01*
X160059857Y-83220714D01*
X160988428Y-83863571D02*
X160988428Y-82363571D01*
X161845571Y-83863571D01*
X161845571Y-82363571D01*
X162559857Y-83863571D02*
X162559857Y-82363571D01*
X162917000Y-82363571D01*
X163131285Y-82435000D01*
X163274142Y-82577857D01*
X163345571Y-82720714D01*
X163417000Y-83006428D01*
X163417000Y-83220714D01*
X163345571Y-83506428D01*
X163274142Y-83649285D01*
X163131285Y-83792142D01*
X162917000Y-83863571D01*
X162559857Y-83863571D01*
X160155142Y-79823571D02*
X160655142Y-81323571D01*
X161155142Y-79823571D01*
X161655142Y-81323571D02*
X161655142Y-79823571D01*
X162369428Y-81323571D02*
X162369428Y-79823571D01*
X163226571Y-81323571D01*
X163226571Y-79823571D01*
X170736142Y-94023571D02*
X170736142Y-92523571D01*
X171236142Y-93595000D01*
X171736142Y-92523571D01*
X171736142Y-94023571D01*
X172450428Y-92523571D02*
X172450428Y-93737857D01*
X172521857Y-93880714D01*
X172593285Y-93952142D01*
X172736142Y-94023571D01*
X173021857Y-94023571D01*
X173164714Y-93952142D01*
X173236142Y-93880714D01*
X173307571Y-93737857D01*
X173307571Y-92523571D01*
X173879000Y-92523571D02*
X174879000Y-94023571D01*
X174879000Y-92523571D02*
X173879000Y-94023571D01*
X175736142Y-92523571D02*
X176021857Y-92523571D01*
X176164714Y-92595000D01*
X176307571Y-92737857D01*
X176379000Y-93023571D01*
X176379000Y-93523571D01*
X176307571Y-93809285D01*
X176164714Y-93952142D01*
X176021857Y-94023571D01*
X175736142Y-94023571D01*
X175593285Y-93952142D01*
X175450428Y-93809285D01*
X175379000Y-93523571D01*
X175379000Y-93023571D01*
X175450428Y-92737857D01*
X175593285Y-92595000D01*
X175736142Y-92523571D01*
X177021857Y-92523571D02*
X177021857Y-93737857D01*
X177093285Y-93880714D01*
X177164714Y-93952142D01*
X177307571Y-94023571D01*
X177593285Y-94023571D01*
X177736142Y-93952142D01*
X177807571Y-93880714D01*
X177879000Y-93737857D01*
X177879000Y-92523571D01*
X178379000Y-92523571D02*
X179236142Y-92523571D01*
X178807571Y-94023571D02*
X178807571Y-92523571D01*
X171450142Y-90055000D02*
X171307285Y-89983571D01*
X171093000Y-89983571D01*
X170878714Y-90055000D01*
X170735857Y-90197857D01*
X170664428Y-90340714D01*
X170593000Y-90626428D01*
X170593000Y-90840714D01*
X170664428Y-91126428D01*
X170735857Y-91269285D01*
X170878714Y-91412142D01*
X171093000Y-91483571D01*
X171235857Y-91483571D01*
X171450142Y-91412142D01*
X171521571Y-91340714D01*
X171521571Y-90840714D01*
X171235857Y-90840714D01*
X172164428Y-91483571D02*
X172164428Y-89983571D01*
X173021571Y-91483571D01*
X173021571Y-89983571D01*
X173735857Y-91483571D02*
X173735857Y-89983571D01*
X174093000Y-89983571D01*
X174307285Y-90055000D01*
X174450142Y-90197857D01*
X174521571Y-90340714D01*
X174593000Y-90626428D01*
X174593000Y-90840714D01*
X174521571Y-91126428D01*
X174450142Y-91269285D01*
X174307285Y-91412142D01*
X174093000Y-91483571D01*
X173735857Y-91483571D01*
X170712285Y-88157857D02*
X171212285Y-88157857D01*
X171426571Y-88943571D02*
X170712285Y-88943571D01*
X170712285Y-87443571D01*
X171426571Y-87443571D01*
X172069428Y-88943571D02*
X172069428Y-87443571D01*
X172926571Y-88943571D01*
X172926571Y-87443571D01*
X173569428Y-88515000D02*
X174283714Y-88515000D01*
X173426571Y-88943571D02*
X173926571Y-87443571D01*
X174426571Y-88943571D01*
X175426571Y-88157857D02*
X175640857Y-88229285D01*
X175712285Y-88300714D01*
X175783714Y-88443571D01*
X175783714Y-88657857D01*
X175712285Y-88800714D01*
X175640857Y-88872142D01*
X175498000Y-88943571D01*
X174926571Y-88943571D01*
X174926571Y-87443571D01*
X175426571Y-87443571D01*
X175569428Y-87515000D01*
X175640857Y-87586428D01*
X175712285Y-87729285D01*
X175712285Y-87872142D01*
X175640857Y-88015000D01*
X175569428Y-88086428D01*
X175426571Y-88157857D01*
X174926571Y-88157857D01*
X177140857Y-88943571D02*
X176426571Y-88943571D01*
X176426571Y-87443571D01*
X177640857Y-88157857D02*
X178140857Y-88157857D01*
X178355142Y-88943571D02*
X177640857Y-88943571D01*
X177640857Y-87443571D01*
X178355142Y-87443571D01*
X171581000Y-86260714D02*
X171509571Y-86332142D01*
X171295285Y-86403571D01*
X171152428Y-86403571D01*
X170938142Y-86332142D01*
X170795285Y-86189285D01*
X170723857Y-86046428D01*
X170652428Y-85760714D01*
X170652428Y-85546428D01*
X170723857Y-85260714D01*
X170795285Y-85117857D01*
X170938142Y-84975000D01*
X171152428Y-84903571D01*
X171295285Y-84903571D01*
X171509571Y-84975000D01*
X171581000Y-85046428D01*
X172152428Y-86332142D02*
X172366714Y-86403571D01*
X172723857Y-86403571D01*
X172866714Y-86332142D01*
X172938142Y-86260714D01*
X173009571Y-86117857D01*
X173009571Y-85975000D01*
X172938142Y-85832142D01*
X172866714Y-85760714D01*
X172723857Y-85689285D01*
X172438142Y-85617857D01*
X172295285Y-85546428D01*
X172223857Y-85475000D01*
X172152428Y-85332142D01*
X172152428Y-85189285D01*
X172223857Y-85046428D01*
X172295285Y-84975000D01*
X172438142Y-84903571D01*
X172795285Y-84903571D01*
X173009571Y-84975000D01*
X170743857Y-83736571D02*
X170743857Y-82236571D01*
X171243857Y-83308000D01*
X171743857Y-82236571D01*
X171743857Y-83736571D01*
X172743857Y-82236571D02*
X173029571Y-82236571D01*
X173172428Y-82308000D01*
X173315285Y-82450857D01*
X173386714Y-82736571D01*
X173386714Y-83236571D01*
X173315285Y-83522285D01*
X173172428Y-83665142D01*
X173029571Y-83736571D01*
X172743857Y-83736571D01*
X172601000Y-83665142D01*
X172458142Y-83522285D01*
X172386714Y-83236571D01*
X172386714Y-82736571D01*
X172458142Y-82450857D01*
X172601000Y-82308000D01*
X172743857Y-82236571D01*
X173958142Y-83665142D02*
X174172428Y-83736571D01*
X174529571Y-83736571D01*
X174672428Y-83665142D01*
X174743857Y-83593714D01*
X174815285Y-83450857D01*
X174815285Y-83308000D01*
X174743857Y-83165142D01*
X174672428Y-83093714D01*
X174529571Y-83022285D01*
X174243857Y-82950857D01*
X174101000Y-82879428D01*
X174029571Y-82808000D01*
X173958142Y-82665142D01*
X173958142Y-82522285D01*
X174029571Y-82379428D01*
X174101000Y-82308000D01*
X174243857Y-82236571D01*
X174601000Y-82236571D01*
X174815285Y-82308000D01*
X175458142Y-83736571D02*
X175458142Y-82236571D01*
X170692285Y-81125142D02*
X170906571Y-81196571D01*
X171263714Y-81196571D01*
X171406571Y-81125142D01*
X171478000Y-81053714D01*
X171549428Y-80910857D01*
X171549428Y-80768000D01*
X171478000Y-80625142D01*
X171406571Y-80553714D01*
X171263714Y-80482285D01*
X170978000Y-80410857D01*
X170835142Y-80339428D01*
X170763714Y-80268000D01*
X170692285Y-80125142D01*
X170692285Y-79982285D01*
X170763714Y-79839428D01*
X170835142Y-79768000D01*
X170978000Y-79696571D01*
X171335142Y-79696571D01*
X171549428Y-79768000D01*
X173049428Y-81053714D02*
X172978000Y-81125142D01*
X172763714Y-81196571D01*
X172620857Y-81196571D01*
X172406571Y-81125142D01*
X172263714Y-80982285D01*
X172192285Y-80839428D01*
X172120857Y-80553714D01*
X172120857Y-80339428D01*
X172192285Y-80053714D01*
X172263714Y-79910857D01*
X172406571Y-79768000D01*
X172620857Y-79696571D01*
X172763714Y-79696571D01*
X172978000Y-79768000D01*
X173049428Y-79839428D01*
X174406571Y-81196571D02*
X173692285Y-81196571D01*
X173692285Y-79696571D01*
X174906571Y-81196571D02*
X174906571Y-79696571D01*
X175763714Y-81196571D02*
X175120857Y-80339428D01*
X175763714Y-79696571D02*
X174906571Y-80553714D01*
D11*
X172224000Y-71619000D02*
X171024000Y-71619000D01*
X171024000Y-69859000D02*
X172224000Y-69859000D01*
X175605000Y-65043000D02*
X181615000Y-65043000D01*
X177855000Y-71863000D02*
X181615000Y-71863000D01*
X181615000Y-65043000D02*
X181615000Y-66303000D01*
X181615000Y-71863000D02*
X181615000Y-70603000D01*
X177594000Y-75061000D02*
X179594000Y-75061000D01*
X179594000Y-73021000D02*
X177594000Y-73021000D01*
X172461000Y-67563000D02*
X165561000Y-67563000D01*
X172461000Y-64263000D02*
X165561000Y-64263000D01*
X172461000Y-67563000D02*
X172461000Y-64263000D01*
X189912000Y-75191000D02*
X189912000Y-72891000D01*
X189912000Y-72891000D02*
X185612000Y-72891000D01*
X189912000Y-75191000D02*
X185612000Y-75191000D01*
X196187000Y-79160000D02*
X195187000Y-79160000D01*
X195187000Y-80860000D02*
X196187000Y-80860000D01*
X196938000Y-69314000D02*
X196938000Y-68314000D01*
X195238000Y-68314000D02*
X195238000Y-69314000D01*
X206209000Y-91579000D02*
X206209000Y-90579000D01*
X204509000Y-90579000D02*
X204509000Y-91579000D01*
X196227000Y-73064000D02*
X195227000Y-73064000D01*
X195227000Y-74764000D02*
X196227000Y-74764000D01*
X202116000Y-83701000D02*
X202116000Y-84701000D01*
X203816000Y-84701000D02*
X203816000Y-83701000D01*
X205828000Y-84721000D02*
X205828000Y-83721000D01*
X204128000Y-83721000D02*
X204128000Y-84721000D01*
X213575000Y-79875000D02*
X213575000Y-78875000D01*
X211875000Y-78875000D02*
X211875000Y-79875000D01*
X209843000Y-78875000D02*
X209843000Y-79875000D01*
X211543000Y-79875000D02*
X211543000Y-78875000D01*
X213702000Y-71747000D02*
X213702000Y-70747000D01*
X212002000Y-70747000D02*
X212002000Y-71747000D01*
X226413000Y-75350000D02*
X225413000Y-75350000D01*
X225413000Y-77050000D02*
X226413000Y-77050000D01*
X211543000Y-71767000D02*
X211543000Y-70767000D01*
X209843000Y-70767000D02*
X209843000Y-71767000D01*
X221119000Y-75350000D02*
X220119000Y-75350000D01*
X220119000Y-77050000D02*
X221119000Y-77050000D01*
X221079000Y-73318000D02*
X220079000Y-73318000D01*
X220079000Y-75018000D02*
X221079000Y-75018000D01*
X212336000Y-82589000D02*
X211336000Y-82589000D01*
X211336000Y-84289000D02*
X212336000Y-84289000D01*
X215304000Y-84229000D02*
X215304000Y-85229000D01*
X217004000Y-85229000D02*
X217004000Y-84229000D01*
X226353000Y-67171000D02*
X226353000Y-68171000D01*
X228053000Y-68171000D02*
X228053000Y-67171000D01*
X231402000Y-69303000D02*
X232402000Y-69303000D01*
X232402000Y-67603000D02*
X231402000Y-67603000D01*
X232382000Y-69762000D02*
X231382000Y-69762000D01*
X231382000Y-71462000D02*
X232382000Y-71462000D01*
X237716000Y-74080000D02*
X236716000Y-74080000D01*
X236716000Y-75780000D02*
X237716000Y-75780000D01*
X209257000Y-69207000D02*
X209257000Y-68207000D01*
X207557000Y-68207000D02*
X207557000Y-69207000D01*
X187591000Y-80860000D02*
X189091000Y-80860000D01*
X187591000Y-80860000D02*
X187591000Y-77660000D01*
X189091000Y-77660000D02*
X189091000Y-80860000D01*
X218405000Y-79239000D02*
X217205000Y-79239000D01*
X217205000Y-77479000D02*
X218405000Y-77479000D01*
X201939000Y-69227000D02*
X201939000Y-68027000D01*
X203699000Y-68027000D02*
X203699000Y-69227000D01*
X217125000Y-71256000D02*
X218325000Y-71256000D01*
X218325000Y-73016000D02*
X217125000Y-73016000D01*
X199254000Y-68060000D02*
X199254000Y-69260000D01*
X197494000Y-69260000D02*
X197494000Y-68060000D01*
X235122000Y-73651000D02*
X233922000Y-73651000D01*
X233922000Y-71891000D02*
X235122000Y-71891000D01*
X183630000Y-79130000D02*
X184830000Y-79130000D01*
X184830000Y-80890000D02*
X183630000Y-80890000D01*
X217412000Y-88909000D02*
X218612000Y-88909000D01*
X218612000Y-90669000D02*
X217412000Y-90669000D01*
X208997000Y-91576000D02*
X210197000Y-91576000D01*
X210197000Y-93336000D02*
X208997000Y-93336000D01*
X214621000Y-90459000D02*
X214621000Y-91659000D01*
X212861000Y-91659000D02*
X212861000Y-90459000D01*
X192922000Y-69354000D02*
X192922000Y-68154000D01*
X194682000Y-68154000D02*
X194682000Y-69354000D01*
X203826000Y-90539000D02*
X203826000Y-91739000D01*
X202066000Y-91739000D02*
X202066000Y-90539000D01*
X205985000Y-68060000D02*
X205985000Y-69260000D01*
X204225000Y-69260000D02*
X204225000Y-68060000D01*
X199653000Y-69260000D02*
X199653000Y-68060000D01*
X201413000Y-68060000D02*
X201413000Y-69260000D01*
X223786000Y-67174000D02*
X222586000Y-67174000D01*
X222586000Y-65414000D02*
X223786000Y-65414000D01*
X225416000Y-71583000D02*
X225416000Y-72783000D01*
X223656000Y-72783000D02*
X223656000Y-71583000D01*
X212356000Y-86859000D02*
X211156000Y-86859000D01*
X211156000Y-85099000D02*
X212356000Y-85099000D01*
X212713000Y-65414000D02*
X213913000Y-65414000D01*
X213913000Y-67174000D02*
X212713000Y-67174000D01*
D12*
X207094140Y-77939900D02*
X207479900Y-77939900D01*
X203238100Y-77554140D02*
X203238100Y-77939900D01*
X203623860Y-73698100D02*
X203238100Y-73698100D01*
X207479900Y-74083860D02*
X207479900Y-73698100D01*
X207479900Y-77939900D02*
X207479900Y-77554140D01*
X203238100Y-77939900D02*
X203623860Y-77939900D01*
X203238100Y-73698100D02*
X203238100Y-74083860D01*
X207479900Y-73698100D02*
X207094140Y-73698100D01*
D11*
X230754000Y-76725000D02*
X232154000Y-76725000D01*
X232154000Y-74405000D02*
X230254000Y-74405000D01*
X194061000Y-78410000D02*
X197861000Y-78410000D01*
X194061000Y-75260000D02*
X194061000Y-78410000D01*
X190655000Y-95465000D02*
X191655000Y-95465000D01*
X191655000Y-93765000D02*
X190655000Y-93765000D01*
X182888000Y-95465000D02*
X183888000Y-95465000D01*
X183888000Y-93765000D02*
X182888000Y-93765000D01*
X164151000Y-79188000D02*
X165481000Y-79188000D01*
X164151000Y-80518000D02*
X164151000Y-79188000D01*
X166751000Y-79188000D02*
X169351000Y-79188000D01*
X166751000Y-81788000D02*
X166751000Y-79188000D01*
X164151000Y-81788000D02*
X166751000Y-81788000D01*
X169351000Y-79188000D02*
X169351000Y-94548000D01*
X164151000Y-81788000D02*
X164151000Y-94548000D01*
X164151000Y-94548000D02*
X169351000Y-94548000D01*
X179566000Y-83321000D02*
X180766000Y-83321000D01*
X180766000Y-85081000D02*
X179566000Y-85081000D01*
D13*
X189400000Y-92436000D02*
X190775000Y-92436000D01*
X189400000Y-83561000D02*
X185250000Y-83561000D01*
X189400000Y-92461000D02*
X185250000Y-92461000D01*
X189400000Y-83561000D02*
X189400000Y-83676000D01*
X185250000Y-83561000D02*
X185250000Y-83676000D01*
X185250000Y-92461000D02*
X185250000Y-92346000D01*
X189400000Y-92461000D02*
X189400000Y-92436000D01*
X171457333Y-73291380D02*
X170981142Y-73291380D01*
X170981142Y-72291380D01*
X172314476Y-73291380D02*
X171743047Y-73291380D01*
X172028761Y-73291380D02*
X172028761Y-72291380D01*
X171933523Y-72434238D01*
X171838285Y-72529476D01*
X171743047Y-72577095D01*
X178943095Y-63405380D02*
X178943095Y-64214904D01*
X178990714Y-64310142D01*
X179038333Y-64357761D01*
X179133571Y-64405380D01*
X179324047Y-64405380D01*
X179419285Y-64357761D01*
X179466904Y-64310142D01*
X179514523Y-64214904D01*
X179514523Y-63405380D01*
X180514523Y-64405380D02*
X179943095Y-64405380D01*
X180228809Y-64405380D02*
X180228809Y-63405380D01*
X180133571Y-63548238D01*
X180038333Y-63643476D01*
X179943095Y-63691095D01*
X178427333Y-76303142D02*
X178379714Y-76350761D01*
X178236857Y-76398380D01*
X178141619Y-76398380D01*
X177998761Y-76350761D01*
X177903523Y-76255523D01*
X177855904Y-76160285D01*
X177808285Y-75969809D01*
X177808285Y-75826952D01*
X177855904Y-75636476D01*
X177903523Y-75541238D01*
X177998761Y-75446000D01*
X178141619Y-75398380D01*
X178236857Y-75398380D01*
X178379714Y-75446000D01*
X178427333Y-75493619D01*
X179379714Y-76398380D02*
X178808285Y-76398380D01*
X179094000Y-76398380D02*
X179094000Y-75398380D01*
X178998761Y-75541238D01*
X178903523Y-75636476D01*
X178808285Y-75684095D01*
X167322904Y-68865380D02*
X167322904Y-67865380D01*
X167561000Y-67865380D01*
X167703857Y-67913000D01*
X167799095Y-68008238D01*
X167846714Y-68103476D01*
X167894333Y-68293952D01*
X167894333Y-68436809D01*
X167846714Y-68627285D01*
X167799095Y-68722523D01*
X167703857Y-68817761D01*
X167561000Y-68865380D01*
X167322904Y-68865380D01*
X168846714Y-68865380D02*
X168275285Y-68865380D01*
X168561000Y-68865380D02*
X168561000Y-67865380D01*
X168465761Y-68008238D01*
X168370523Y-68103476D01*
X168275285Y-68151095D01*
X186269333Y-76557142D02*
X186221714Y-76604761D01*
X186078857Y-76652380D01*
X185983619Y-76652380D01*
X185840761Y-76604761D01*
X185745523Y-76509523D01*
X185697904Y-76414285D01*
X185650285Y-76223809D01*
X185650285Y-76080952D01*
X185697904Y-75890476D01*
X185745523Y-75795238D01*
X185840761Y-75700000D01*
X185983619Y-75652380D01*
X186078857Y-75652380D01*
X186221714Y-75700000D01*
X186269333Y-75747619D01*
X186650285Y-75747619D02*
X186697904Y-75700000D01*
X186793142Y-75652380D01*
X187031238Y-75652380D01*
X187126476Y-75700000D01*
X187174095Y-75747619D01*
X187221714Y-75842857D01*
X187221714Y-75938095D01*
X187174095Y-76080952D01*
X186602666Y-76652380D01*
X187221714Y-76652380D01*
X195393333Y-82018142D02*
X195345714Y-82065761D01*
X195202857Y-82113380D01*
X195107619Y-82113380D01*
X194964761Y-82065761D01*
X194869523Y-81970523D01*
X194821904Y-81875285D01*
X194774285Y-81684809D01*
X194774285Y-81541952D01*
X194821904Y-81351476D01*
X194869523Y-81256238D01*
X194964761Y-81161000D01*
X195107619Y-81113380D01*
X195202857Y-81113380D01*
X195345714Y-81161000D01*
X195393333Y-81208619D01*
X195726666Y-81113380D02*
X196393333Y-81113380D01*
X195964761Y-82113380D01*
X196445142Y-64174666D02*
X196492761Y-64222285D01*
X196540380Y-64365142D01*
X196540380Y-64460380D01*
X196492761Y-64603238D01*
X196397523Y-64698476D01*
X196302285Y-64746095D01*
X196111809Y-64793714D01*
X195968952Y-64793714D01*
X195778476Y-64746095D01*
X195683238Y-64698476D01*
X195588000Y-64603238D01*
X195540380Y-64460380D01*
X195540380Y-64365142D01*
X195588000Y-64222285D01*
X195635619Y-64174666D01*
X195968952Y-63603238D02*
X195921333Y-63698476D01*
X195873714Y-63746095D01*
X195778476Y-63793714D01*
X195730857Y-63793714D01*
X195635619Y-63746095D01*
X195588000Y-63698476D01*
X195540380Y-63603238D01*
X195540380Y-63412761D01*
X195588000Y-63317523D01*
X195635619Y-63269904D01*
X195730857Y-63222285D01*
X195778476Y-63222285D01*
X195873714Y-63269904D01*
X195921333Y-63317523D01*
X195968952Y-63412761D01*
X195968952Y-63603238D01*
X196016571Y-63698476D01*
X196064190Y-63746095D01*
X196159428Y-63793714D01*
X196349904Y-63793714D01*
X196445142Y-63746095D01*
X196492761Y-63698476D01*
X196540380Y-63603238D01*
X196540380Y-63412761D01*
X196492761Y-63317523D01*
X196445142Y-63269904D01*
X196349904Y-63222285D01*
X196159428Y-63222285D01*
X196064190Y-63269904D01*
X196016571Y-63317523D01*
X195968952Y-63412761D01*
X207494142Y-90844666D02*
X207541761Y-90892285D01*
X207589380Y-91035142D01*
X207589380Y-91130380D01*
X207541761Y-91273238D01*
X207446523Y-91368476D01*
X207351285Y-91416095D01*
X207160809Y-91463714D01*
X207017952Y-91463714D01*
X206827476Y-91416095D01*
X206732238Y-91368476D01*
X206637000Y-91273238D01*
X206589380Y-91130380D01*
X206589380Y-91035142D01*
X206637000Y-90892285D01*
X206684619Y-90844666D01*
X207589380Y-90368476D02*
X207589380Y-90178000D01*
X207541761Y-90082761D01*
X207494142Y-90035142D01*
X207351285Y-89939904D01*
X207160809Y-89892285D01*
X206779857Y-89892285D01*
X206684619Y-89939904D01*
X206637000Y-89987523D01*
X206589380Y-90082761D01*
X206589380Y-90273238D01*
X206637000Y-90368476D01*
X206684619Y-90416095D01*
X206779857Y-90463714D01*
X207017952Y-90463714D01*
X207113190Y-90416095D01*
X207160809Y-90368476D01*
X207208428Y-90273238D01*
X207208428Y-90082761D01*
X207160809Y-89987523D01*
X207113190Y-89939904D01*
X207017952Y-89892285D01*
X195084142Y-72521142D02*
X195036523Y-72568761D01*
X194893666Y-72616380D01*
X194798428Y-72616380D01*
X194655571Y-72568761D01*
X194560333Y-72473523D01*
X194512714Y-72378285D01*
X194465095Y-72187809D01*
X194465095Y-72044952D01*
X194512714Y-71854476D01*
X194560333Y-71759238D01*
X194655571Y-71664000D01*
X194798428Y-71616380D01*
X194893666Y-71616380D01*
X195036523Y-71664000D01*
X195084142Y-71711619D01*
X196036523Y-72616380D02*
X195465095Y-72616380D01*
X195750809Y-72616380D02*
X195750809Y-71616380D01*
X195655571Y-71759238D01*
X195560333Y-71854476D01*
X195465095Y-71902095D01*
X196988904Y-72616380D02*
X196417476Y-72616380D01*
X196703190Y-72616380D02*
X196703190Y-71616380D01*
X196607952Y-71759238D01*
X196512714Y-71854476D01*
X196417476Y-71902095D01*
X201652142Y-84843857D02*
X201699761Y-84891476D01*
X201747380Y-85034333D01*
X201747380Y-85129571D01*
X201699761Y-85272428D01*
X201604523Y-85367666D01*
X201509285Y-85415285D01*
X201318809Y-85462904D01*
X201175952Y-85462904D01*
X200985476Y-85415285D01*
X200890238Y-85367666D01*
X200795000Y-85272428D01*
X200747380Y-85129571D01*
X200747380Y-85034333D01*
X200795000Y-84891476D01*
X200842619Y-84843857D01*
X201747380Y-83891476D02*
X201747380Y-84462904D01*
X201747380Y-84177190D02*
X200747380Y-84177190D01*
X200890238Y-84272428D01*
X200985476Y-84367666D01*
X201033095Y-84462904D01*
X200842619Y-83510523D02*
X200795000Y-83462904D01*
X200747380Y-83367666D01*
X200747380Y-83129571D01*
X200795000Y-83034333D01*
X200842619Y-82986714D01*
X200937857Y-82939095D01*
X201033095Y-82939095D01*
X201175952Y-82986714D01*
X201747380Y-83558142D01*
X201747380Y-82939095D01*
X206986142Y-84843857D02*
X207033761Y-84891476D01*
X207081380Y-85034333D01*
X207081380Y-85129571D01*
X207033761Y-85272428D01*
X206938523Y-85367666D01*
X206843285Y-85415285D01*
X206652809Y-85462904D01*
X206509952Y-85462904D01*
X206319476Y-85415285D01*
X206224238Y-85367666D01*
X206129000Y-85272428D01*
X206081380Y-85129571D01*
X206081380Y-85034333D01*
X206129000Y-84891476D01*
X206176619Y-84843857D01*
X207081380Y-83891476D02*
X207081380Y-84462904D01*
X207081380Y-84177190D02*
X206081380Y-84177190D01*
X206224238Y-84272428D01*
X206319476Y-84367666D01*
X206367095Y-84462904D01*
X206081380Y-83558142D02*
X206081380Y-82939095D01*
X206462333Y-83272428D01*
X206462333Y-83129571D01*
X206509952Y-83034333D01*
X206557571Y-82986714D01*
X206652809Y-82939095D01*
X206890904Y-82939095D01*
X206986142Y-82986714D01*
X207033761Y-83034333D01*
X207081380Y-83129571D01*
X207081380Y-83415285D01*
X207033761Y-83510523D01*
X206986142Y-83558142D01*
X212844142Y-76811142D02*
X212796523Y-76858761D01*
X212653666Y-76906380D01*
X212558428Y-76906380D01*
X212415571Y-76858761D01*
X212320333Y-76763523D01*
X212272714Y-76668285D01*
X212225095Y-76477809D01*
X212225095Y-76334952D01*
X212272714Y-76144476D01*
X212320333Y-76049238D01*
X212415571Y-75954000D01*
X212558428Y-75906380D01*
X212653666Y-75906380D01*
X212796523Y-75954000D01*
X212844142Y-76001619D01*
X213796523Y-76906380D02*
X213225095Y-76906380D01*
X213510809Y-76906380D02*
X213510809Y-75906380D01*
X213415571Y-76049238D01*
X213320333Y-76144476D01*
X213225095Y-76192095D01*
X214653666Y-76239714D02*
X214653666Y-76906380D01*
X214415571Y-75858761D02*
X214177476Y-76573047D01*
X214796523Y-76573047D01*
X209669142Y-76811142D02*
X209621523Y-76858761D01*
X209478666Y-76906380D01*
X209383428Y-76906380D01*
X209240571Y-76858761D01*
X209145333Y-76763523D01*
X209097714Y-76668285D01*
X209050095Y-76477809D01*
X209050095Y-76334952D01*
X209097714Y-76144476D01*
X209145333Y-76049238D01*
X209240571Y-75954000D01*
X209383428Y-75906380D01*
X209478666Y-75906380D01*
X209621523Y-75954000D01*
X209669142Y-76001619D01*
X210621523Y-76906380D02*
X210050095Y-76906380D01*
X210335809Y-76906380D02*
X210335809Y-75906380D01*
X210240571Y-76049238D01*
X210145333Y-76144476D01*
X210050095Y-76192095D01*
X211526285Y-75906380D02*
X211050095Y-75906380D01*
X211002476Y-76382571D01*
X211050095Y-76334952D01*
X211145333Y-76287333D01*
X211383428Y-76287333D01*
X211478666Y-76334952D01*
X211526285Y-76382571D01*
X211573904Y-76477809D01*
X211573904Y-76715904D01*
X211526285Y-76811142D01*
X211478666Y-76858761D01*
X211383428Y-76906380D01*
X211145333Y-76906380D01*
X211050095Y-76858761D01*
X211002476Y-76811142D01*
X212844142Y-74652142D02*
X212796523Y-74699761D01*
X212653666Y-74747380D01*
X212558428Y-74747380D01*
X212415571Y-74699761D01*
X212320333Y-74604523D01*
X212272714Y-74509285D01*
X212225095Y-74318809D01*
X212225095Y-74175952D01*
X212272714Y-73985476D01*
X212320333Y-73890238D01*
X212415571Y-73795000D01*
X212558428Y-73747380D01*
X212653666Y-73747380D01*
X212796523Y-73795000D01*
X212844142Y-73842619D01*
X213796523Y-74747380D02*
X213225095Y-74747380D01*
X213510809Y-74747380D02*
X213510809Y-73747380D01*
X213415571Y-73890238D01*
X213320333Y-73985476D01*
X213225095Y-74033095D01*
X214653666Y-73747380D02*
X214463190Y-73747380D01*
X214367952Y-73795000D01*
X214320333Y-73842619D01*
X214225095Y-73985476D01*
X214177476Y-74175952D01*
X214177476Y-74556904D01*
X214225095Y-74652142D01*
X214272714Y-74699761D01*
X214367952Y-74747380D01*
X214558428Y-74747380D01*
X214653666Y-74699761D01*
X214701285Y-74652142D01*
X214748904Y-74556904D01*
X214748904Y-74318809D01*
X214701285Y-74223571D01*
X214653666Y-74175952D01*
X214558428Y-74128333D01*
X214367952Y-74128333D01*
X214272714Y-74175952D01*
X214225095Y-74223571D01*
X214177476Y-74318809D01*
X225270142Y-78307142D02*
X225222523Y-78354761D01*
X225079666Y-78402380D01*
X224984428Y-78402380D01*
X224841571Y-78354761D01*
X224746333Y-78259523D01*
X224698714Y-78164285D01*
X224651095Y-77973809D01*
X224651095Y-77830952D01*
X224698714Y-77640476D01*
X224746333Y-77545238D01*
X224841571Y-77450000D01*
X224984428Y-77402380D01*
X225079666Y-77402380D01*
X225222523Y-77450000D01*
X225270142Y-77497619D01*
X226222523Y-78402380D02*
X225651095Y-78402380D01*
X225936809Y-78402380D02*
X225936809Y-77402380D01*
X225841571Y-77545238D01*
X225746333Y-77640476D01*
X225651095Y-77688095D01*
X226555857Y-77402380D02*
X227222523Y-77402380D01*
X226793952Y-78402380D01*
X209415142Y-74652142D02*
X209367523Y-74699761D01*
X209224666Y-74747380D01*
X209129428Y-74747380D01*
X208986571Y-74699761D01*
X208891333Y-74604523D01*
X208843714Y-74509285D01*
X208796095Y-74318809D01*
X208796095Y-74175952D01*
X208843714Y-73985476D01*
X208891333Y-73890238D01*
X208986571Y-73795000D01*
X209129428Y-73747380D01*
X209224666Y-73747380D01*
X209367523Y-73795000D01*
X209415142Y-73842619D01*
X210367523Y-74747380D02*
X209796095Y-74747380D01*
X210081809Y-74747380D02*
X210081809Y-73747380D01*
X209986571Y-73890238D01*
X209891333Y-73985476D01*
X209796095Y-74033095D01*
X210938952Y-74175952D02*
X210843714Y-74128333D01*
X210796095Y-74080714D01*
X210748476Y-73985476D01*
X210748476Y-73937857D01*
X210796095Y-73842619D01*
X210843714Y-73795000D01*
X210938952Y-73747380D01*
X211129428Y-73747380D01*
X211224666Y-73795000D01*
X211272285Y-73842619D01*
X211319904Y-73937857D01*
X211319904Y-73985476D01*
X211272285Y-74080714D01*
X211224666Y-74128333D01*
X211129428Y-74175952D01*
X210938952Y-74175952D01*
X210843714Y-74223571D01*
X210796095Y-74271190D01*
X210748476Y-74366428D01*
X210748476Y-74556904D01*
X210796095Y-74652142D01*
X210843714Y-74699761D01*
X210938952Y-74747380D01*
X211129428Y-74747380D01*
X211224666Y-74699761D01*
X211272285Y-74652142D01*
X211319904Y-74556904D01*
X211319904Y-74366428D01*
X211272285Y-74271190D01*
X211224666Y-74223571D01*
X211129428Y-74175952D01*
X216146142Y-76684142D02*
X216098523Y-76731761D01*
X215955666Y-76779380D01*
X215860428Y-76779380D01*
X215717571Y-76731761D01*
X215622333Y-76636523D01*
X215574714Y-76541285D01*
X215527095Y-76350809D01*
X215527095Y-76207952D01*
X215574714Y-76017476D01*
X215622333Y-75922238D01*
X215717571Y-75827000D01*
X215860428Y-75779380D01*
X215955666Y-75779380D01*
X216098523Y-75827000D01*
X216146142Y-75874619D01*
X217098523Y-76779380D02*
X216527095Y-76779380D01*
X216812809Y-76779380D02*
X216812809Y-75779380D01*
X216717571Y-75922238D01*
X216622333Y-76017476D01*
X216527095Y-76065095D01*
X217574714Y-76779380D02*
X217765190Y-76779380D01*
X217860428Y-76731761D01*
X217908047Y-76684142D01*
X218003285Y-76541285D01*
X218050904Y-76350809D01*
X218050904Y-75969857D01*
X218003285Y-75874619D01*
X217955666Y-75827000D01*
X217860428Y-75779380D01*
X217669952Y-75779380D01*
X217574714Y-75827000D01*
X217527095Y-75874619D01*
X217479476Y-75969857D01*
X217479476Y-76207952D01*
X217527095Y-76303190D01*
X217574714Y-76350809D01*
X217669952Y-76398428D01*
X217860428Y-76398428D01*
X217955666Y-76350809D01*
X218003285Y-76303190D01*
X218050904Y-76207952D01*
X216146142Y-74652142D02*
X216098523Y-74699761D01*
X215955666Y-74747380D01*
X215860428Y-74747380D01*
X215717571Y-74699761D01*
X215622333Y-74604523D01*
X215574714Y-74509285D01*
X215527095Y-74318809D01*
X215527095Y-74175952D01*
X215574714Y-73985476D01*
X215622333Y-73890238D01*
X215717571Y-73795000D01*
X215860428Y-73747380D01*
X215955666Y-73747380D01*
X216098523Y-73795000D01*
X216146142Y-73842619D01*
X216527095Y-73842619D02*
X216574714Y-73795000D01*
X216669952Y-73747380D01*
X216908047Y-73747380D01*
X217003285Y-73795000D01*
X217050904Y-73842619D01*
X217098523Y-73937857D01*
X217098523Y-74033095D01*
X217050904Y-74175952D01*
X216479476Y-74747380D01*
X217098523Y-74747380D01*
X217717571Y-73747380D02*
X217812809Y-73747380D01*
X217908047Y-73795000D01*
X217955666Y-73842619D01*
X218003285Y-73937857D01*
X218050904Y-74128333D01*
X218050904Y-74366428D01*
X218003285Y-74556904D01*
X217955666Y-74652142D01*
X217908047Y-74699761D01*
X217812809Y-74747380D01*
X217717571Y-74747380D01*
X217622333Y-74699761D01*
X217574714Y-74652142D01*
X217527095Y-74556904D01*
X217479476Y-74366428D01*
X217479476Y-74128333D01*
X217527095Y-73937857D01*
X217574714Y-73842619D01*
X217622333Y-73795000D01*
X217717571Y-73747380D01*
X209145142Y-83954857D02*
X209192761Y-84002476D01*
X209240380Y-84145333D01*
X209240380Y-84240571D01*
X209192761Y-84383428D01*
X209097523Y-84478666D01*
X209002285Y-84526285D01*
X208811809Y-84573904D01*
X208668952Y-84573904D01*
X208478476Y-84526285D01*
X208383238Y-84478666D01*
X208288000Y-84383428D01*
X208240380Y-84240571D01*
X208240380Y-84145333D01*
X208288000Y-84002476D01*
X208335619Y-83954857D01*
X208335619Y-83573904D02*
X208288000Y-83526285D01*
X208240380Y-83431047D01*
X208240380Y-83192952D01*
X208288000Y-83097714D01*
X208335619Y-83050095D01*
X208430857Y-83002476D01*
X208526095Y-83002476D01*
X208668952Y-83050095D01*
X209240380Y-83621523D01*
X209240380Y-83002476D01*
X209240380Y-82050095D02*
X209240380Y-82621523D01*
X209240380Y-82335809D02*
X208240380Y-82335809D01*
X208383238Y-82431047D01*
X208478476Y-82526285D01*
X208526095Y-82621523D01*
X218162142Y-85371857D02*
X218209761Y-85419476D01*
X218257380Y-85562333D01*
X218257380Y-85657571D01*
X218209761Y-85800428D01*
X218114523Y-85895666D01*
X218019285Y-85943285D01*
X217828809Y-85990904D01*
X217685952Y-85990904D01*
X217495476Y-85943285D01*
X217400238Y-85895666D01*
X217305000Y-85800428D01*
X217257380Y-85657571D01*
X217257380Y-85562333D01*
X217305000Y-85419476D01*
X217352619Y-85371857D01*
X217352619Y-84990904D02*
X217305000Y-84943285D01*
X217257380Y-84848047D01*
X217257380Y-84609952D01*
X217305000Y-84514714D01*
X217352619Y-84467095D01*
X217447857Y-84419476D01*
X217543095Y-84419476D01*
X217685952Y-84467095D01*
X218257380Y-85038523D01*
X218257380Y-84419476D01*
X217352619Y-84038523D02*
X217305000Y-83990904D01*
X217257380Y-83895666D01*
X217257380Y-83657571D01*
X217305000Y-83562333D01*
X217352619Y-83514714D01*
X217447857Y-83467095D01*
X217543095Y-83467095D01*
X217685952Y-83514714D01*
X218257380Y-84086142D01*
X218257380Y-83467095D01*
X227687142Y-64483857D02*
X227734761Y-64531476D01*
X227782380Y-64674333D01*
X227782380Y-64769571D01*
X227734761Y-64912428D01*
X227639523Y-65007666D01*
X227544285Y-65055285D01*
X227353809Y-65102904D01*
X227210952Y-65102904D01*
X227020476Y-65055285D01*
X226925238Y-65007666D01*
X226830000Y-64912428D01*
X226782380Y-64769571D01*
X226782380Y-64674333D01*
X226830000Y-64531476D01*
X226877619Y-64483857D01*
X226877619Y-64102904D02*
X226830000Y-64055285D01*
X226782380Y-63960047D01*
X226782380Y-63721952D01*
X226830000Y-63626714D01*
X226877619Y-63579095D01*
X226972857Y-63531476D01*
X227068095Y-63531476D01*
X227210952Y-63579095D01*
X227782380Y-64150523D01*
X227782380Y-63531476D01*
X226782380Y-63198142D02*
X226782380Y-62579095D01*
X227163333Y-62912428D01*
X227163333Y-62769571D01*
X227210952Y-62674333D01*
X227258571Y-62626714D01*
X227353809Y-62579095D01*
X227591904Y-62579095D01*
X227687142Y-62626714D01*
X227734761Y-62674333D01*
X227782380Y-62769571D01*
X227782380Y-63055285D01*
X227734761Y-63150523D01*
X227687142Y-63198142D01*
X235049142Y-68810142D02*
X235001523Y-68857761D01*
X234858666Y-68905380D01*
X234763428Y-68905380D01*
X234620571Y-68857761D01*
X234525333Y-68762523D01*
X234477714Y-68667285D01*
X234430095Y-68476809D01*
X234430095Y-68333952D01*
X234477714Y-68143476D01*
X234525333Y-68048238D01*
X234620571Y-67953000D01*
X234763428Y-67905380D01*
X234858666Y-67905380D01*
X235001523Y-67953000D01*
X235049142Y-68000619D01*
X235430095Y-68000619D02*
X235477714Y-67953000D01*
X235572952Y-67905380D01*
X235811047Y-67905380D01*
X235906285Y-67953000D01*
X235953904Y-68000619D01*
X236001523Y-68095857D01*
X236001523Y-68191095D01*
X235953904Y-68333952D01*
X235382476Y-68905380D01*
X236001523Y-68905380D01*
X236858666Y-68238714D02*
X236858666Y-68905380D01*
X236620571Y-67857761D02*
X236382476Y-68572047D01*
X237001523Y-68572047D01*
X235069142Y-70969142D02*
X235021523Y-71016761D01*
X234878666Y-71064380D01*
X234783428Y-71064380D01*
X234640571Y-71016761D01*
X234545333Y-70921523D01*
X234497714Y-70826285D01*
X234450095Y-70635809D01*
X234450095Y-70492952D01*
X234497714Y-70302476D01*
X234545333Y-70207238D01*
X234640571Y-70112000D01*
X234783428Y-70064380D01*
X234878666Y-70064380D01*
X235021523Y-70112000D01*
X235069142Y-70159619D01*
X235450095Y-70159619D02*
X235497714Y-70112000D01*
X235592952Y-70064380D01*
X235831047Y-70064380D01*
X235926285Y-70112000D01*
X235973904Y-70159619D01*
X236021523Y-70254857D01*
X236021523Y-70350095D01*
X235973904Y-70492952D01*
X235402476Y-71064380D01*
X236021523Y-71064380D01*
X236926285Y-70064380D02*
X236450095Y-70064380D01*
X236402476Y-70540571D01*
X236450095Y-70492952D01*
X236545333Y-70445333D01*
X236783428Y-70445333D01*
X236878666Y-70492952D01*
X236926285Y-70540571D01*
X236973904Y-70635809D01*
X236973904Y-70873904D01*
X236926285Y-70969142D01*
X236878666Y-71016761D01*
X236783428Y-71064380D01*
X236545333Y-71064380D01*
X236450095Y-71016761D01*
X236402476Y-70969142D01*
X236573142Y-77037142D02*
X236525523Y-77084761D01*
X236382666Y-77132380D01*
X236287428Y-77132380D01*
X236144571Y-77084761D01*
X236049333Y-76989523D01*
X236001714Y-76894285D01*
X235954095Y-76703809D01*
X235954095Y-76560952D01*
X236001714Y-76370476D01*
X236049333Y-76275238D01*
X236144571Y-76180000D01*
X236287428Y-76132380D01*
X236382666Y-76132380D01*
X236525523Y-76180000D01*
X236573142Y-76227619D01*
X236954095Y-76227619D02*
X237001714Y-76180000D01*
X237096952Y-76132380D01*
X237335047Y-76132380D01*
X237430285Y-76180000D01*
X237477904Y-76227619D01*
X237525523Y-76322857D01*
X237525523Y-76418095D01*
X237477904Y-76560952D01*
X236906476Y-77132380D01*
X237525523Y-77132380D01*
X238382666Y-76132380D02*
X238192190Y-76132380D01*
X238096952Y-76180000D01*
X238049333Y-76227619D01*
X237954095Y-76370476D01*
X237906476Y-76560952D01*
X237906476Y-76941904D01*
X237954095Y-77037142D01*
X238001714Y-77084761D01*
X238096952Y-77132380D01*
X238287428Y-77132380D01*
X238382666Y-77084761D01*
X238430285Y-77037142D01*
X238477904Y-76941904D01*
X238477904Y-76703809D01*
X238430285Y-76608571D01*
X238382666Y-76560952D01*
X238287428Y-76513333D01*
X238096952Y-76513333D01*
X238001714Y-76560952D01*
X237954095Y-76608571D01*
X237906476Y-76703809D01*
X208764142Y-65539857D02*
X208811761Y-65587476D01*
X208859380Y-65730333D01*
X208859380Y-65825571D01*
X208811761Y-65968428D01*
X208716523Y-66063666D01*
X208621285Y-66111285D01*
X208430809Y-66158904D01*
X208287952Y-66158904D01*
X208097476Y-66111285D01*
X208002238Y-66063666D01*
X207907000Y-65968428D01*
X207859380Y-65825571D01*
X207859380Y-65730333D01*
X207907000Y-65587476D01*
X207954619Y-65539857D01*
X207954619Y-65158904D02*
X207907000Y-65111285D01*
X207859380Y-65016047D01*
X207859380Y-64777952D01*
X207907000Y-64682714D01*
X207954619Y-64635095D01*
X208049857Y-64587476D01*
X208145095Y-64587476D01*
X208287952Y-64635095D01*
X208859380Y-65206523D01*
X208859380Y-64587476D01*
X207859380Y-64254142D02*
X207859380Y-63587476D01*
X208859380Y-64016047D01*
X190444380Y-79478095D02*
X189444380Y-79478095D01*
X189444380Y-79240000D01*
X189492000Y-79097142D01*
X189587238Y-79001904D01*
X189682476Y-78954285D01*
X189872952Y-78906666D01*
X190015809Y-78906666D01*
X190206285Y-78954285D01*
X190301523Y-79001904D01*
X190396761Y-79097142D01*
X190444380Y-79240000D01*
X190444380Y-79478095D01*
X189444380Y-78573333D02*
X189444380Y-77954285D01*
X189825333Y-78287619D01*
X189825333Y-78144761D01*
X189872952Y-78049523D01*
X189920571Y-78001904D01*
X190015809Y-77954285D01*
X190253904Y-77954285D01*
X190349142Y-78001904D01*
X190396761Y-78049523D01*
X190444380Y-78144761D01*
X190444380Y-78430476D01*
X190396761Y-78525714D01*
X190349142Y-78573333D01*
X240498380Y-78438333D02*
X241212666Y-78438333D01*
X241355523Y-78485952D01*
X241450761Y-78581190D01*
X241498380Y-78724047D01*
X241498380Y-78819285D01*
X240831714Y-77533571D02*
X241498380Y-77533571D01*
X240450761Y-77771666D02*
X241165047Y-78009761D01*
X241165047Y-77390714D01*
X217638333Y-80716380D02*
X217162142Y-80716380D01*
X217162142Y-79716380D01*
X217924047Y-79811619D02*
X217971666Y-79764000D01*
X218066904Y-79716380D01*
X218305000Y-79716380D01*
X218400238Y-79764000D01*
X218447857Y-79811619D01*
X218495476Y-79906857D01*
X218495476Y-80002095D01*
X218447857Y-80144952D01*
X217876428Y-80716380D01*
X218495476Y-80716380D01*
X203271380Y-64301666D02*
X203271380Y-64777857D01*
X202271380Y-64777857D01*
X202271380Y-64063571D02*
X202271380Y-63444523D01*
X202652333Y-63777857D01*
X202652333Y-63635000D01*
X202699952Y-63539761D01*
X202747571Y-63492142D01*
X202842809Y-63444523D01*
X203080904Y-63444523D01*
X203176142Y-63492142D01*
X203223761Y-63539761D01*
X203271380Y-63635000D01*
X203271380Y-63920714D01*
X203223761Y-64015952D01*
X203176142Y-64063571D01*
X217558333Y-70810380D02*
X217082142Y-70810380D01*
X217082142Y-69810380D01*
X218320238Y-70143714D02*
X218320238Y-70810380D01*
X218082142Y-69762761D02*
X217844047Y-70477047D01*
X218463095Y-70477047D01*
X198953380Y-64174666D02*
X198953380Y-64650857D01*
X197953380Y-64650857D01*
X197953380Y-63365142D02*
X197953380Y-63841333D01*
X198429571Y-63888952D01*
X198381952Y-63841333D01*
X198334333Y-63746095D01*
X198334333Y-63508000D01*
X198381952Y-63412761D01*
X198429571Y-63365142D01*
X198524809Y-63317523D01*
X198762904Y-63317523D01*
X198858142Y-63365142D01*
X198905761Y-63412761D01*
X198953380Y-63508000D01*
X198953380Y-63746095D01*
X198905761Y-63841333D01*
X198858142Y-63888952D01*
X237831333Y-73223380D02*
X237355142Y-73223380D01*
X237355142Y-72223380D01*
X238593238Y-72223380D02*
X238402761Y-72223380D01*
X238307523Y-72271000D01*
X238259904Y-72318619D01*
X238164666Y-72461476D01*
X238117047Y-72651952D01*
X238117047Y-73032904D01*
X238164666Y-73128142D01*
X238212285Y-73175761D01*
X238307523Y-73223380D01*
X238498000Y-73223380D01*
X238593238Y-73175761D01*
X238640857Y-73128142D01*
X238688476Y-73032904D01*
X238688476Y-72794809D01*
X238640857Y-72699571D01*
X238593238Y-72651952D01*
X238498000Y-72604333D01*
X238307523Y-72604333D01*
X238212285Y-72651952D01*
X238164666Y-72699571D01*
X238117047Y-72794809D01*
X184063333Y-82162380D02*
X183730000Y-81686190D01*
X183491904Y-82162380D02*
X183491904Y-81162380D01*
X183872857Y-81162380D01*
X183968095Y-81210000D01*
X184015714Y-81257619D01*
X184063333Y-81352857D01*
X184063333Y-81495714D01*
X184015714Y-81590952D01*
X183968095Y-81638571D01*
X183872857Y-81686190D01*
X183491904Y-81686190D01*
X184920476Y-81495714D02*
X184920476Y-82162380D01*
X184682380Y-81114761D02*
X184444285Y-81829047D01*
X185063333Y-81829047D01*
X217845333Y-88541380D02*
X217512000Y-88065190D01*
X217273904Y-88541380D02*
X217273904Y-87541380D01*
X217654857Y-87541380D01*
X217750095Y-87589000D01*
X217797714Y-87636619D01*
X217845333Y-87731857D01*
X217845333Y-87874714D01*
X217797714Y-87969952D01*
X217750095Y-88017571D01*
X217654857Y-88065190D01*
X217273904Y-88065190D01*
X218178666Y-87541380D02*
X218845333Y-87541380D01*
X218416761Y-88541380D01*
X209430333Y-94608380D02*
X209097000Y-94132190D01*
X208858904Y-94608380D02*
X208858904Y-93608380D01*
X209239857Y-93608380D01*
X209335095Y-93656000D01*
X209382714Y-93703619D01*
X209430333Y-93798857D01*
X209430333Y-93941714D01*
X209382714Y-94036952D01*
X209335095Y-94084571D01*
X209239857Y-94132190D01*
X208858904Y-94132190D01*
X210001761Y-94036952D02*
X209906523Y-93989333D01*
X209858904Y-93941714D01*
X209811285Y-93846476D01*
X209811285Y-93798857D01*
X209858904Y-93703619D01*
X209906523Y-93656000D01*
X210001761Y-93608380D01*
X210192238Y-93608380D01*
X210287476Y-93656000D01*
X210335095Y-93703619D01*
X210382714Y-93798857D01*
X210382714Y-93846476D01*
X210335095Y-93941714D01*
X210287476Y-93989333D01*
X210192238Y-94036952D01*
X210001761Y-94036952D01*
X209906523Y-94084571D01*
X209858904Y-94132190D01*
X209811285Y-94227428D01*
X209811285Y-94417904D01*
X209858904Y-94513142D01*
X209906523Y-94560761D01*
X210001761Y-94608380D01*
X210192238Y-94608380D01*
X210287476Y-94560761D01*
X210335095Y-94513142D01*
X210382714Y-94417904D01*
X210382714Y-94227428D01*
X210335095Y-94132190D01*
X210287476Y-94084571D01*
X210192238Y-94036952D01*
X212493380Y-90717666D02*
X212017190Y-91051000D01*
X212493380Y-91289095D02*
X211493380Y-91289095D01*
X211493380Y-90908142D01*
X211541000Y-90812904D01*
X211588619Y-90765285D01*
X211683857Y-90717666D01*
X211826714Y-90717666D01*
X211921952Y-90765285D01*
X211969571Y-90812904D01*
X212017190Y-90908142D01*
X212017190Y-91289095D01*
X212493380Y-90241476D02*
X212493380Y-90051000D01*
X212445761Y-89955761D01*
X212398142Y-89908142D01*
X212255285Y-89812904D01*
X212064809Y-89765285D01*
X211683857Y-89765285D01*
X211588619Y-89812904D01*
X211541000Y-89860523D01*
X211493380Y-89955761D01*
X211493380Y-90146238D01*
X211541000Y-90241476D01*
X211588619Y-90289095D01*
X211683857Y-90336714D01*
X211921952Y-90336714D01*
X212017190Y-90289095D01*
X212064809Y-90241476D01*
X212112428Y-90146238D01*
X212112428Y-89955761D01*
X212064809Y-89860523D01*
X212017190Y-89812904D01*
X211921952Y-89765285D01*
X194254380Y-64269857D02*
X193778190Y-64603190D01*
X194254380Y-64841285D02*
X193254380Y-64841285D01*
X193254380Y-64460333D01*
X193302000Y-64365095D01*
X193349619Y-64317476D01*
X193444857Y-64269857D01*
X193587714Y-64269857D01*
X193682952Y-64317476D01*
X193730571Y-64365095D01*
X193778190Y-64460333D01*
X193778190Y-64841285D01*
X194254380Y-63317476D02*
X194254380Y-63888904D01*
X194254380Y-63603190D02*
X193254380Y-63603190D01*
X193397238Y-63698428D01*
X193492476Y-63793666D01*
X193540095Y-63888904D01*
X193254380Y-62698428D02*
X193254380Y-62603190D01*
X193302000Y-62507952D01*
X193349619Y-62460333D01*
X193444857Y-62412714D01*
X193635333Y-62365095D01*
X193873428Y-62365095D01*
X194063904Y-62412714D01*
X194159142Y-62460333D01*
X194206761Y-62507952D01*
X194254380Y-62603190D01*
X194254380Y-62698428D01*
X194206761Y-62793666D01*
X194159142Y-62841285D01*
X194063904Y-62888904D01*
X193873428Y-62936523D01*
X193635333Y-62936523D01*
X193444857Y-62888904D01*
X193349619Y-62841285D01*
X193302000Y-62793666D01*
X193254380Y-62698428D01*
X201747380Y-91701857D02*
X201271190Y-92035190D01*
X201747380Y-92273285D02*
X200747380Y-92273285D01*
X200747380Y-91892333D01*
X200795000Y-91797095D01*
X200842619Y-91749476D01*
X200937857Y-91701857D01*
X201080714Y-91701857D01*
X201175952Y-91749476D01*
X201223571Y-91797095D01*
X201271190Y-91892333D01*
X201271190Y-92273285D01*
X201747380Y-90749476D02*
X201747380Y-91320904D01*
X201747380Y-91035190D02*
X200747380Y-91035190D01*
X200890238Y-91130428D01*
X200985476Y-91225666D01*
X201033095Y-91320904D01*
X201747380Y-89797095D02*
X201747380Y-90368523D01*
X201747380Y-90082809D02*
X200747380Y-90082809D01*
X200890238Y-90178047D01*
X200985476Y-90273285D01*
X201033095Y-90368523D01*
X205557380Y-64142857D02*
X205081190Y-64476190D01*
X205557380Y-64714285D02*
X204557380Y-64714285D01*
X204557380Y-64333333D01*
X204605000Y-64238095D01*
X204652619Y-64190476D01*
X204747857Y-64142857D01*
X204890714Y-64142857D01*
X204985952Y-64190476D01*
X205033571Y-64238095D01*
X205081190Y-64333333D01*
X205081190Y-64714285D01*
X205557380Y-63190476D02*
X205557380Y-63761904D01*
X205557380Y-63476190D02*
X204557380Y-63476190D01*
X204700238Y-63571428D01*
X204795476Y-63666666D01*
X204843095Y-63761904D01*
X204557380Y-62857142D02*
X204557380Y-62238095D01*
X204938333Y-62571428D01*
X204938333Y-62428571D01*
X204985952Y-62333333D01*
X205033571Y-62285714D01*
X205128809Y-62238095D01*
X205366904Y-62238095D01*
X205462142Y-62285714D01*
X205509761Y-62333333D01*
X205557380Y-62428571D01*
X205557380Y-62714285D01*
X205509761Y-62809523D01*
X205462142Y-62857142D01*
X201112380Y-64142857D02*
X200636190Y-64476190D01*
X201112380Y-64714285D02*
X200112380Y-64714285D01*
X200112380Y-64333333D01*
X200160000Y-64238095D01*
X200207619Y-64190476D01*
X200302857Y-64142857D01*
X200445714Y-64142857D01*
X200540952Y-64190476D01*
X200588571Y-64238095D01*
X200636190Y-64333333D01*
X200636190Y-64714285D01*
X201112380Y-63190476D02*
X201112380Y-63761904D01*
X201112380Y-63476190D02*
X200112380Y-63476190D01*
X200255238Y-63571428D01*
X200350476Y-63666666D01*
X200398095Y-63761904D01*
X200445714Y-62333333D02*
X201112380Y-62333333D01*
X200064761Y-62571428D02*
X200779047Y-62809523D01*
X200779047Y-62190476D01*
X222543142Y-68446380D02*
X222209809Y-67970190D01*
X221971714Y-68446380D02*
X221971714Y-67446380D01*
X222352666Y-67446380D01*
X222447904Y-67494000D01*
X222495523Y-67541619D01*
X222543142Y-67636857D01*
X222543142Y-67779714D01*
X222495523Y-67874952D01*
X222447904Y-67922571D01*
X222352666Y-67970190D01*
X221971714Y-67970190D01*
X223495523Y-68446380D02*
X222924095Y-68446380D01*
X223209809Y-68446380D02*
X223209809Y-67446380D01*
X223114571Y-67589238D01*
X223019333Y-67684476D01*
X222924095Y-67732095D01*
X224400285Y-67446380D02*
X223924095Y-67446380D01*
X223876476Y-67922571D01*
X223924095Y-67874952D01*
X224019333Y-67827333D01*
X224257428Y-67827333D01*
X224352666Y-67874952D01*
X224400285Y-67922571D01*
X224447904Y-68017809D01*
X224447904Y-68255904D01*
X224400285Y-68351142D01*
X224352666Y-68398761D01*
X224257428Y-68446380D01*
X224019333Y-68446380D01*
X223924095Y-68398761D01*
X223876476Y-68351142D01*
X226688380Y-72825857D02*
X226212190Y-73159190D01*
X226688380Y-73397285D02*
X225688380Y-73397285D01*
X225688380Y-73016333D01*
X225736000Y-72921095D01*
X225783619Y-72873476D01*
X225878857Y-72825857D01*
X226021714Y-72825857D01*
X226116952Y-72873476D01*
X226164571Y-72921095D01*
X226212190Y-73016333D01*
X226212190Y-73397285D01*
X226688380Y-71873476D02*
X226688380Y-72444904D01*
X226688380Y-72159190D02*
X225688380Y-72159190D01*
X225831238Y-72254428D01*
X225926476Y-72349666D01*
X225974095Y-72444904D01*
X225688380Y-71016333D02*
X225688380Y-71206809D01*
X225736000Y-71302047D01*
X225783619Y-71349666D01*
X225926476Y-71444904D01*
X226116952Y-71492523D01*
X226497904Y-71492523D01*
X226593142Y-71444904D01*
X226640761Y-71397285D01*
X226688380Y-71302047D01*
X226688380Y-71111571D01*
X226640761Y-71016333D01*
X226593142Y-70968714D01*
X226497904Y-70921095D01*
X226259809Y-70921095D01*
X226164571Y-70968714D01*
X226116952Y-71016333D01*
X226069333Y-71111571D01*
X226069333Y-71302047D01*
X226116952Y-71397285D01*
X226164571Y-71444904D01*
X226259809Y-71492523D01*
X211193142Y-88209380D02*
X210859809Y-87733190D01*
X210621714Y-88209380D02*
X210621714Y-87209380D01*
X211002666Y-87209380D01*
X211097904Y-87257000D01*
X211145523Y-87304619D01*
X211193142Y-87399857D01*
X211193142Y-87542714D01*
X211145523Y-87637952D01*
X211097904Y-87685571D01*
X211002666Y-87733190D01*
X210621714Y-87733190D01*
X212145523Y-88209380D02*
X211574095Y-88209380D01*
X211859809Y-88209380D02*
X211859809Y-87209380D01*
X211764571Y-87352238D01*
X211669333Y-87447476D01*
X211574095Y-87495095D01*
X212478857Y-87209380D02*
X213145523Y-87209380D01*
X212716952Y-88209380D01*
X212670142Y-65046380D02*
X212336809Y-64570190D01*
X212098714Y-65046380D02*
X212098714Y-64046380D01*
X212479666Y-64046380D01*
X212574904Y-64094000D01*
X212622523Y-64141619D01*
X212670142Y-64236857D01*
X212670142Y-64379714D01*
X212622523Y-64474952D01*
X212574904Y-64522571D01*
X212479666Y-64570190D01*
X212098714Y-64570190D01*
X213622523Y-65046380D02*
X213051095Y-65046380D01*
X213336809Y-65046380D02*
X213336809Y-64046380D01*
X213241571Y-64189238D01*
X213146333Y-64284476D01*
X213051095Y-64332095D01*
X214193952Y-64474952D02*
X214098714Y-64427333D01*
X214051095Y-64379714D01*
X214003476Y-64284476D01*
X214003476Y-64236857D01*
X214051095Y-64141619D01*
X214098714Y-64094000D01*
X214193952Y-64046380D01*
X214384428Y-64046380D01*
X214479666Y-64094000D01*
X214527285Y-64141619D01*
X214574904Y-64236857D01*
X214574904Y-64284476D01*
X214527285Y-64379714D01*
X214479666Y-64427333D01*
X214384428Y-64474952D01*
X214193952Y-64474952D01*
X214098714Y-64522571D01*
X214051095Y-64570190D01*
X214003476Y-64665428D01*
X214003476Y-64855904D01*
X214051095Y-64951142D01*
X214098714Y-64998761D01*
X214193952Y-65046380D01*
X214384428Y-65046380D01*
X214479666Y-64998761D01*
X214527285Y-64951142D01*
X214574904Y-64855904D01*
X214574904Y-64665428D01*
X214527285Y-64570190D01*
X214479666Y-64522571D01*
X214384428Y-64474952D01*
X204978095Y-78573380D02*
X204978095Y-79382904D01*
X205025714Y-79478142D01*
X205073333Y-79525761D01*
X205168571Y-79573380D01*
X205359047Y-79573380D01*
X205454285Y-79525761D01*
X205501904Y-79478142D01*
X205549523Y-79382904D01*
X205549523Y-78573380D01*
X205930476Y-78573380D02*
X206549523Y-78573380D01*
X206216190Y-78954333D01*
X206359047Y-78954333D01*
X206454285Y-79001952D01*
X206501904Y-79049571D01*
X206549523Y-79144809D01*
X206549523Y-79382904D01*
X206501904Y-79478142D01*
X206454285Y-79525761D01*
X206359047Y-79573380D01*
X206073333Y-79573380D01*
X205978095Y-79525761D01*
X205930476Y-79478142D01*
X208081571Y-78557380D02*
X207986333Y-78509761D01*
X207938714Y-78462142D01*
X207891095Y-78366904D01*
X207891095Y-78081190D01*
X207938714Y-77985952D01*
X207986333Y-77938333D01*
X208081571Y-77890714D01*
X208224428Y-77890714D01*
X208319666Y-77938333D01*
X208367285Y-77985952D01*
X208414904Y-78081190D01*
X208414904Y-78366904D01*
X208367285Y-78462142D01*
X208319666Y-78509761D01*
X208224428Y-78557380D01*
X208081571Y-78557380D01*
X230692095Y-73017380D02*
X230692095Y-73826904D01*
X230739714Y-73922142D01*
X230787333Y-73969761D01*
X230882571Y-74017380D01*
X231073047Y-74017380D01*
X231168285Y-73969761D01*
X231215904Y-73922142D01*
X231263523Y-73826904D01*
X231263523Y-73017380D01*
X232168285Y-73350714D02*
X232168285Y-74017380D01*
X231930190Y-72969761D02*
X231692095Y-73684047D01*
X232311142Y-73684047D01*
X192230476Y-77303380D02*
X192897142Y-78303380D01*
X192897142Y-77303380D02*
X192230476Y-78303380D01*
X193801904Y-78303380D02*
X193230476Y-78303380D01*
X193516190Y-78303380D02*
X193516190Y-77303380D01*
X193420952Y-77446238D01*
X193325714Y-77541476D01*
X193230476Y-77589095D01*
X190988333Y-96722142D02*
X190940714Y-96769761D01*
X190797857Y-96817380D01*
X190702619Y-96817380D01*
X190559761Y-96769761D01*
X190464523Y-96674523D01*
X190416904Y-96579285D01*
X190369285Y-96388809D01*
X190369285Y-96245952D01*
X190416904Y-96055476D01*
X190464523Y-95960238D01*
X190559761Y-95865000D01*
X190702619Y-95817380D01*
X190797857Y-95817380D01*
X190940714Y-95865000D01*
X190988333Y-95912619D01*
X191321666Y-95817380D02*
X191940714Y-95817380D01*
X191607380Y-96198333D01*
X191750238Y-96198333D01*
X191845476Y-96245952D01*
X191893095Y-96293571D01*
X191940714Y-96388809D01*
X191940714Y-96626904D01*
X191893095Y-96722142D01*
X191845476Y-96769761D01*
X191750238Y-96817380D01*
X191464523Y-96817380D01*
X191369285Y-96769761D01*
X191321666Y-96722142D01*
X183094333Y-96750142D02*
X183046714Y-96797761D01*
X182903857Y-96845380D01*
X182808619Y-96845380D01*
X182665761Y-96797761D01*
X182570523Y-96702523D01*
X182522904Y-96607285D01*
X182475285Y-96416809D01*
X182475285Y-96273952D01*
X182522904Y-96083476D01*
X182570523Y-95988238D01*
X182665761Y-95893000D01*
X182808619Y-95845380D01*
X182903857Y-95845380D01*
X183046714Y-95893000D01*
X183094333Y-95940619D01*
X183951476Y-96178714D02*
X183951476Y-96845380D01*
X183713380Y-95797761D02*
X183475285Y-96512047D01*
X184094333Y-96512047D01*
X166417666Y-77640380D02*
X166417666Y-78354666D01*
X166370047Y-78497523D01*
X166274809Y-78592761D01*
X166131952Y-78640380D01*
X166036714Y-78640380D01*
X167417666Y-78640380D02*
X166846238Y-78640380D01*
X167131952Y-78640380D02*
X167131952Y-77640380D01*
X167036714Y-77783238D01*
X166941476Y-77878476D01*
X166846238Y-77926095D01*
X179999333Y-82953380D02*
X179666000Y-82477190D01*
X179427904Y-82953380D02*
X179427904Y-81953380D01*
X179808857Y-81953380D01*
X179904095Y-82001000D01*
X179951714Y-82048619D01*
X179999333Y-82143857D01*
X179999333Y-82286714D01*
X179951714Y-82381952D01*
X179904095Y-82429571D01*
X179808857Y-82477190D01*
X179427904Y-82477190D01*
X180951714Y-82953380D02*
X180380285Y-82953380D01*
X180666000Y-82953380D02*
X180666000Y-81953380D01*
X180570761Y-82096238D01*
X180475523Y-82191476D01*
X180380285Y-82239095D01*
X186563095Y-92838380D02*
X186563095Y-93647904D01*
X186610714Y-93743142D01*
X186658333Y-93790761D01*
X186753571Y-93838380D01*
X186944047Y-93838380D01*
X187039285Y-93790761D01*
X187086904Y-93743142D01*
X187134523Y-93647904D01*
X187134523Y-92838380D01*
X187563095Y-92933619D02*
X187610714Y-92886000D01*
X187705952Y-92838380D01*
X187944047Y-92838380D01*
X188039285Y-92886000D01*
X188086904Y-92933619D01*
X188134523Y-93028857D01*
X188134523Y-93124095D01*
X188086904Y-93266952D01*
X187515476Y-93838380D01*
X188134523Y-93838380D01*
M02*
