G04 #@! TF.GenerationSoftware,KiCad,Pcbnew,(5.0.0-rc2-dev-311-g1dd4af297)*
G04 #@! TF.CreationDate,2018-06-18T13:27:12-07:00*
G04 #@! TF.ProjectId,beacon_pll,626561636F6E5F706C6C2E6B69636164,rev?*
G04 #@! TF.SameCoordinates,Original*
G04 #@! TF.FileFunction,Copper,L1,Top,Signal*
G04 #@! TF.FilePolarity,Positive*
%FSLAX46Y46*%
G04 Gerber Fmt 4.6, Leading zero omitted, Abs format (unit mm)*
G04 Created by KiCad (PCBNEW (5.0.0-rc2-dev-311-g1dd4af297)) date 06/18/18 13:27:12*
%MOMM*%
%LPD*%
G01*
G04 APERTURE LIST*
%ADD10R,1.500000X1.300000*%
%ADD11R,2.000000X1.500000*%
%ADD12R,2.000000X3.800000*%
%ADD13R,2.000000X1.600000*%
%ADD14R,3.500000X1.800000*%
%ADD15R,2.600000X1.800000*%
%ADD16R,1.500000X1.250000*%
%ADD17R,1.250000X1.500000*%
%ADD18R,1.300000X1.500000*%
%ADD19R,5.080000X1.500000*%
%ADD20R,2.438400X2.438400*%
%ADD21R,0.304800X0.812800*%
%ADD22R,0.812800X0.304800*%
%ADD23R,1.500000X0.400000*%
%ADD24R,1.300000X1.100000*%
%ADD25O,1.700000X1.700000*%
%ADD26R,1.700000X1.700000*%
%ADD27R,1.500000X0.600000*%
%ADD28C,0.800000*%
%ADD29C,1.000000*%
%ADD30C,0.250000*%
%ADD31C,0.500000*%
%ADD32C,0.750000*%
%ADD33C,0.350000*%
%ADD34C,1.000000*%
%ADD35C,1.250000*%
%ADD36C,0.254000*%
G04 APERTURE END LIST*
D10*
X170274000Y-70739000D03*
X172974000Y-70739000D03*
D11*
X176555000Y-66153000D03*
X176555000Y-70753000D03*
X176555000Y-68453000D03*
D12*
X182855000Y-68453000D03*
D13*
X180594000Y-74041000D03*
X176594000Y-74041000D03*
D14*
X165561000Y-65913000D03*
X170561000Y-65913000D03*
D15*
X184912000Y-74041000D03*
X188312000Y-74041000D03*
D16*
X194437000Y-80010000D03*
X196937000Y-80010000D03*
D17*
X196088000Y-67564000D03*
X196088000Y-70064000D03*
X205359000Y-89829000D03*
X205359000Y-92329000D03*
D16*
X194477000Y-73914000D03*
X196977000Y-73914000D03*
D17*
X202966000Y-85451000D03*
X202966000Y-82951000D03*
X204978000Y-82971000D03*
X204978000Y-85471000D03*
X212725000Y-78125000D03*
X212725000Y-80625000D03*
X210693000Y-80625000D03*
X210693000Y-78125000D03*
X212852000Y-69997000D03*
X212852000Y-72497000D03*
D16*
X224663000Y-76200000D03*
X227163000Y-76200000D03*
D17*
X210693000Y-70017000D03*
X210693000Y-72517000D03*
D16*
X219369000Y-76200000D03*
X221869000Y-76200000D03*
X219329000Y-74168000D03*
X221829000Y-74168000D03*
X210586000Y-83439000D03*
X213086000Y-83439000D03*
D17*
X216154000Y-85979000D03*
X216154000Y-83479000D03*
X227203000Y-68921000D03*
X227203000Y-66421000D03*
D16*
X233152000Y-68453000D03*
X230652000Y-68453000D03*
X230632000Y-70612000D03*
X233132000Y-70612000D03*
X235966000Y-74930000D03*
X238466000Y-74930000D03*
D17*
X208407000Y-67457000D03*
X208407000Y-69957000D03*
D18*
X188341000Y-77310000D03*
X188341000Y-80010000D03*
D19*
X244856000Y-74930000D03*
X244856000Y-70680000D03*
X244856000Y-79180000D03*
D10*
X216455000Y-78359000D03*
X219155000Y-78359000D03*
D18*
X202819000Y-67277000D03*
X202819000Y-69977000D03*
D10*
X219075000Y-72136000D03*
X216375000Y-72136000D03*
D18*
X198374000Y-70010000D03*
X198374000Y-67310000D03*
D10*
X233172000Y-72771000D03*
X235872000Y-72771000D03*
X185580000Y-80010000D03*
X182880000Y-80010000D03*
X219362000Y-89789000D03*
X216662000Y-89789000D03*
X210947000Y-92456000D03*
X208247000Y-92456000D03*
D18*
X213741000Y-92409000D03*
X213741000Y-89709000D03*
X193802000Y-67404000D03*
X193802000Y-70104000D03*
X202946000Y-92489000D03*
X202946000Y-89789000D03*
X205105000Y-70010000D03*
X205105000Y-67310000D03*
X200533000Y-67310000D03*
X200533000Y-70010000D03*
D10*
X221836000Y-66294000D03*
X224536000Y-66294000D03*
D18*
X224536000Y-73533000D03*
X224536000Y-70833000D03*
D10*
X210406000Y-85979000D03*
X213106000Y-85979000D03*
X214663000Y-66294000D03*
X211963000Y-66294000D03*
D20*
X205359000Y-75819000D03*
D21*
X206609000Y-77711300D03*
X206109001Y-77711300D03*
X205609000Y-77711300D03*
X205109000Y-77711300D03*
X204608999Y-77711300D03*
X204109000Y-77711300D03*
D22*
X203466700Y-77069000D03*
X203466700Y-76569001D03*
X203466700Y-76069000D03*
X203466700Y-75569000D03*
X203466700Y-75068999D03*
X203466700Y-74569000D03*
D21*
X204109000Y-73926700D03*
X204608999Y-73926700D03*
X205109000Y-73926700D03*
X205609000Y-73926700D03*
X206109001Y-73926700D03*
X206609000Y-73926700D03*
D22*
X207251300Y-74569000D03*
X207251300Y-75068999D03*
X207251300Y-75569000D03*
X207251300Y-76069000D03*
X207251300Y-76569001D03*
X207251300Y-77069000D03*
D23*
X232784000Y-74915000D03*
X232784000Y-75565000D03*
X232784000Y-76215000D03*
X230124000Y-76215000D03*
X230124000Y-75565000D03*
X230124000Y-74915000D03*
D24*
X194911000Y-76010000D03*
X197011000Y-76010000D03*
X197011000Y-77660000D03*
X194911000Y-77660000D03*
D16*
X192405000Y-94615000D03*
X189905000Y-94615000D03*
X184638000Y-94615000D03*
X182138000Y-94615000D03*
D25*
X168021000Y-93218000D03*
X165481000Y-93218000D03*
X168021000Y-90678000D03*
X165481000Y-90678000D03*
X168021000Y-88138000D03*
X165481000Y-88138000D03*
X168021000Y-85598000D03*
X165481000Y-85598000D03*
X168021000Y-83058000D03*
X165481000Y-83058000D03*
X168021000Y-80518000D03*
D26*
X165481000Y-80518000D03*
D10*
X181516000Y-84201000D03*
X178816000Y-84201000D03*
D27*
X184625000Y-91821000D03*
X184625000Y-90551000D03*
X184625000Y-89281000D03*
X184625000Y-88011000D03*
X184625000Y-86741000D03*
X184625000Y-85471000D03*
X184625000Y-84201000D03*
X190025000Y-84201000D03*
X190025000Y-85471000D03*
X190025000Y-86741000D03*
X190025000Y-88011000D03*
X190025000Y-89281000D03*
X190025000Y-90551000D03*
X190025000Y-91821000D03*
D28*
X245036000Y-97917000D03*
X241036000Y-97917000D03*
X237036000Y-97917000D03*
X233036000Y-97917000D03*
X229036000Y-97917000D03*
X225036000Y-97917000D03*
X221036000Y-97917000D03*
X217036000Y-97917000D03*
X213036000Y-97917000D03*
X209036000Y-97917000D03*
X205036000Y-97917000D03*
X201036000Y-97917000D03*
X197036000Y-97917000D03*
X193036000Y-97917000D03*
X189036000Y-97917000D03*
X185036000Y-97917000D03*
X181036000Y-97917000D03*
X177036000Y-97917000D03*
X173036000Y-97917000D03*
X169036000Y-97917000D03*
X165036000Y-97917000D03*
X161036000Y-97917000D03*
X245163000Y-61214000D03*
X241163000Y-61214000D03*
X237163000Y-61214000D03*
X233163000Y-61214000D03*
X229163000Y-61214000D03*
X225163000Y-61214000D03*
X221163000Y-61214000D03*
X217163000Y-61214000D03*
X213163000Y-61214000D03*
X209163000Y-61214000D03*
X205163000Y-61214000D03*
X201163000Y-61214000D03*
X197163000Y-61214000D03*
X193163000Y-61214000D03*
X189163000Y-61214000D03*
X185163000Y-61214000D03*
X181163000Y-61214000D03*
X177163000Y-61214000D03*
X173163000Y-61214000D03*
X169163000Y-61214000D03*
X165163000Y-61214000D03*
X161163000Y-61214000D03*
X230758000Y-82867000D03*
X228758000Y-82867000D03*
X226758000Y-82867000D03*
X224758000Y-82867000D03*
X230758000Y-80867000D03*
X228758000Y-80867000D03*
X226758000Y-80867000D03*
X224758000Y-80867000D03*
X222758000Y-80867000D03*
X230758000Y-78867000D03*
X228758000Y-78867000D03*
X226758000Y-78867000D03*
X224758000Y-78867000D03*
X222758000Y-78867000D03*
X236791000Y-66262000D03*
X236791000Y-64262000D03*
X240791000Y-68262000D03*
X240791000Y-66262000D03*
X238791000Y-72262000D03*
X240791000Y-70262000D03*
X238791000Y-68262000D03*
X238791000Y-66262000D03*
X238791000Y-70262000D03*
X240791000Y-64262000D03*
X240791000Y-72262000D03*
X236791000Y-68262000D03*
X236791000Y-70262000D03*
X238791000Y-64262000D03*
X240791000Y-85724000D03*
X238791000Y-85724000D03*
X236791000Y-85724000D03*
X234791000Y-85724000D03*
X232791000Y-85724000D03*
X240791000Y-83724000D03*
X238791000Y-83724000D03*
X236791000Y-83724000D03*
X234791000Y-83724000D03*
X232791000Y-83724000D03*
X240791000Y-81724000D03*
X238791000Y-81724000D03*
X236791000Y-81724000D03*
X234791000Y-81724000D03*
X232791000Y-81724000D03*
X240791000Y-79724000D03*
X238791000Y-79724000D03*
X236791000Y-79724000D03*
X234791000Y-79724000D03*
X232791000Y-79724000D03*
X240791000Y-77724000D03*
X238791000Y-77724000D03*
X236791000Y-77724000D03*
X234791000Y-77724000D03*
X232791000Y-77724000D03*
X209042000Y-80518000D03*
X204724000Y-76454000D03*
X205994000Y-76454000D03*
X205994000Y-75184000D03*
X204724000Y-75184000D03*
X205105000Y-65532000D03*
X202819000Y-65532000D03*
X200533000Y-65532000D03*
X198374000Y-65532000D03*
X196088000Y-65532000D03*
X193802000Y-65532000D03*
X214884000Y-69977000D03*
X214884000Y-68072000D03*
X212852000Y-68072000D03*
X210693000Y-68072000D03*
X222631000Y-70612000D03*
X221107000Y-70612000D03*
X221107000Y-72009000D03*
X222631000Y-72009000D03*
X228727000Y-70866000D03*
X226949000Y-70866000D03*
X226949000Y-73533000D03*
X226949000Y-72263000D03*
X228727000Y-72263000D03*
X228727000Y-73533000D03*
X230632000Y-73533000D03*
X230632000Y-72263000D03*
D29*
X214884000Y-80645000D03*
X187325000Y-85217000D03*
X187325000Y-89281000D03*
X187325000Y-94615000D03*
X180594000Y-79883000D03*
X184912000Y-76835000D03*
X182626000Y-76835000D03*
X180594000Y-76835000D03*
X179705000Y-69977000D03*
X179705000Y-67945000D03*
X179705000Y-66040000D03*
X196088000Y-82677000D03*
X197104000Y-84455000D03*
X194945000Y-84455000D03*
X192659000Y-84455000D03*
X221107000Y-86233000D03*
X218821000Y-86233000D03*
X221107000Y-83820000D03*
X218821000Y-83820000D03*
X204978000Y-87503000D03*
X206883000Y-86614000D03*
X177673000Y-94615000D03*
X176657000Y-82042000D03*
D28*
X180467000Y-92456000D03*
X193802000Y-92456000D03*
X217170000Y-66294000D03*
X207899000Y-79883000D03*
D29*
X199771000Y-89789000D03*
X221742000Y-89789000D03*
X211582000Y-88519000D03*
X206629000Y-81661000D03*
D30*
X230124000Y-74915000D02*
X230124000Y-74041000D01*
X231521000Y-75828000D02*
X231521000Y-77089000D01*
X230124000Y-75565000D02*
X231124000Y-75565000D01*
X231124000Y-75565000D02*
X231521000Y-75962000D01*
X231521000Y-75962000D02*
X231521000Y-75828000D01*
X231521000Y-75828000D02*
X231784000Y-75565000D01*
X231784000Y-75565000D02*
X232784000Y-75565000D01*
X207505300Y-77069000D02*
X208033300Y-77597000D01*
D31*
X208033300Y-77597000D02*
X208661000Y-78224700D01*
X208661000Y-78232000D02*
X209042000Y-78613000D01*
X209042000Y-78613000D02*
X209042000Y-80518000D01*
X208661000Y-78224700D02*
X208661000Y-78232000D01*
D30*
X207251300Y-77069000D02*
X207505300Y-77069000D01*
X203466700Y-75569000D02*
X205109000Y-75569000D01*
X205109000Y-75569000D02*
X205359000Y-75819000D01*
X205609000Y-77711300D02*
X205609000Y-76069000D01*
X205609000Y-76069000D02*
X205359000Y-75819000D01*
X207251300Y-76069000D02*
X205609000Y-76069000D01*
X206109001Y-73926700D02*
X206109001Y-75068999D01*
X206109001Y-75068999D02*
X205359000Y-75819000D01*
X204608999Y-73926700D02*
X204608999Y-75068999D01*
X204608999Y-75068999D02*
X205359000Y-75819000D01*
D32*
X177673000Y-94615000D02*
X180086000Y-94615000D01*
X180086000Y-94615000D02*
X182138000Y-94615000D01*
X176594000Y-81979000D02*
X176657000Y-82042000D01*
X176594000Y-74041000D02*
X176594000Y-81979000D01*
D31*
X183007000Y-91821000D02*
X182138000Y-92690000D01*
X182138000Y-92690000D02*
X182138000Y-94615000D01*
X184625000Y-91821000D02*
X183007000Y-91821000D01*
X176555000Y-70753000D02*
X176555000Y-74002000D01*
X176555000Y-74002000D02*
X176594000Y-74041000D01*
X172974000Y-70739000D02*
X176541000Y-70739000D01*
X176541000Y-70739000D02*
X176555000Y-70753000D01*
D33*
X193421000Y-82423000D02*
X194437000Y-81407000D01*
X194437000Y-81407000D02*
X194437000Y-80010000D01*
X179594000Y-82423000D02*
X193421000Y-82423000D01*
X178816000Y-84201000D02*
X178816000Y-83201000D01*
X178816000Y-83201000D02*
X179594000Y-82423000D01*
D32*
X224155000Y-91567000D02*
X223313000Y-92409000D01*
X223313000Y-92409000D02*
X213741000Y-92409000D01*
X224155000Y-84328000D02*
X224155000Y-91567000D01*
X221488000Y-81661000D02*
X224155000Y-84328000D01*
X218357000Y-81661000D02*
X221488000Y-81661000D01*
X216455000Y-78359000D02*
X216455000Y-79759000D01*
X216455000Y-79759000D02*
X218357000Y-81661000D01*
X217805000Y-69215000D02*
X216375000Y-70645000D01*
X216375000Y-70645000D02*
X216375000Y-72136000D01*
X220315000Y-69215000D02*
X217805000Y-69215000D01*
X221836000Y-66294000D02*
X221836000Y-67694000D01*
X221836000Y-67694000D02*
X220315000Y-69215000D01*
D31*
X194911000Y-77660000D02*
X194911000Y-76010000D01*
X194477000Y-73914000D02*
X194477000Y-75576000D01*
X194477000Y-75576000D02*
X194911000Y-76010000D01*
X194437000Y-80010000D02*
X194437000Y-78134000D01*
X194437000Y-78134000D02*
X194911000Y-77660000D01*
X194477000Y-73914000D02*
X188439000Y-73914000D01*
X188439000Y-73914000D02*
X188312000Y-74041000D01*
D34*
X182855000Y-68453000D02*
X182855000Y-65803000D01*
D32*
X221836000Y-64894000D02*
X220950000Y-64008000D01*
X221836000Y-66294000D02*
X221836000Y-64894000D01*
X220950000Y-64008000D02*
X184650000Y-64008000D01*
X184650000Y-64008000D02*
X182855000Y-65803000D01*
X161798000Y-92710000D02*
X162306000Y-93218000D01*
X161417000Y-92329000D02*
X161798000Y-92710000D01*
X166370000Y-96520000D02*
X165608000Y-96520000D01*
X165608000Y-96520000D02*
X161798000Y-92710000D01*
X162306000Y-93218000D02*
X165481000Y-93218000D01*
X161417000Y-64770000D02*
X161417000Y-92329000D01*
X163068000Y-63119000D02*
X161417000Y-64770000D01*
X180171000Y-63119000D02*
X163068000Y-63119000D01*
X182855000Y-65803000D02*
X180171000Y-63119000D01*
X212852000Y-72497000D02*
X216014000Y-72497000D01*
X216014000Y-72497000D02*
X216375000Y-72136000D01*
X210693000Y-72517000D02*
X212832000Y-72517000D01*
X212832000Y-72517000D02*
X212852000Y-72497000D01*
D30*
X207251300Y-74569000D02*
X207251300Y-74166600D01*
X207251300Y-74166600D02*
X208900900Y-72517000D01*
X208900900Y-72517000D02*
X209818000Y-72517000D01*
X209818000Y-72517000D02*
X210693000Y-72517000D01*
X205109000Y-77711300D02*
X205109000Y-82840000D01*
X205109000Y-82840000D02*
X204978000Y-82971000D01*
X207907700Y-76569001D02*
X209463699Y-78125000D01*
X207251300Y-76569001D02*
X207907700Y-76569001D01*
X209463699Y-78125000D02*
X210693000Y-78125000D01*
D32*
X210188000Y-94615000D02*
X213035000Y-94615000D01*
X213035000Y-94615000D02*
X213741000Y-93909000D01*
X213741000Y-93909000D02*
X213741000Y-92409000D01*
X192405000Y-94615000D02*
X210188000Y-94615000D01*
X210188000Y-94615000D02*
X210947000Y-93856000D01*
X210947000Y-93856000D02*
X210947000Y-92456000D01*
X210947000Y-92456000D02*
X213694000Y-92456000D01*
X213694000Y-92456000D02*
X213741000Y-92409000D01*
X216455000Y-78359000D02*
X212959000Y-78359000D01*
X212959000Y-78359000D02*
X212725000Y-78125000D01*
X210693000Y-78125000D02*
X212725000Y-78125000D01*
X202966000Y-82951000D02*
X204958000Y-82951000D01*
X204958000Y-82951000D02*
X204978000Y-82971000D01*
X210947000Y-91059000D02*
X210947000Y-92456000D01*
X208788000Y-88900000D02*
X210947000Y-91059000D01*
X208788000Y-85406000D02*
X208788000Y-88900000D01*
X204978000Y-82971000D02*
X206353000Y-82971000D01*
X206353000Y-82971000D02*
X208788000Y-85406000D01*
X166370000Y-96520000D02*
X191875000Y-96520000D01*
X191875000Y-96520000D02*
X192405000Y-95990000D01*
X192405000Y-95990000D02*
X192405000Y-94615000D01*
D31*
X192405000Y-92951000D02*
X192405000Y-94615000D01*
X190025000Y-91821000D02*
X191275000Y-91821000D01*
X191275000Y-91821000D02*
X192405000Y-92951000D01*
D32*
X188341000Y-77310000D02*
X188341000Y-74070000D01*
X188341000Y-74070000D02*
X188312000Y-74041000D01*
X182855000Y-68453000D02*
X184605000Y-68453000D01*
X184605000Y-68453000D02*
X188312000Y-72160000D01*
X188312000Y-72160000D02*
X188312000Y-72391000D01*
X188312000Y-72391000D02*
X188312000Y-74041000D01*
D30*
X197011000Y-77660000D02*
X197011000Y-79936000D01*
X197011000Y-79936000D02*
X196937000Y-80010000D01*
X204109000Y-73926700D02*
X202450700Y-73926700D01*
X202450700Y-73926700D02*
X200152000Y-71628000D01*
X200152000Y-71628000D02*
X196652000Y-71628000D01*
X196652000Y-71628000D02*
X196088000Y-71064000D01*
X196088000Y-71064000D02*
X196088000Y-70064000D01*
D31*
X168021000Y-93218000D02*
X179705000Y-93218000D01*
X179705000Y-93218000D02*
X180467000Y-92456000D01*
D33*
X193835000Y-92489000D02*
X193802000Y-92456000D01*
X202946000Y-92489000D02*
X193835000Y-92489000D01*
D31*
X208247000Y-92456000D02*
X205486000Y-92456000D01*
X205486000Y-92456000D02*
X205359000Y-92329000D01*
X202946000Y-92489000D02*
X205199000Y-92489000D01*
X205199000Y-92489000D02*
X205359000Y-92329000D01*
D33*
X221869000Y-76200000D02*
X224663000Y-76200000D01*
X230124000Y-76215000D02*
X227178000Y-76215000D01*
X227178000Y-76215000D02*
X227163000Y-76200000D01*
D30*
X213872000Y-75569000D02*
X214503000Y-76200000D01*
X214503000Y-76200000D02*
X219369000Y-76200000D01*
X207251300Y-75569000D02*
X213872000Y-75569000D01*
D34*
X219155000Y-78359000D02*
X219155000Y-76414000D01*
X219155000Y-76414000D02*
X219369000Y-76200000D01*
D30*
X213856001Y-75068999D02*
X214757000Y-74168000D01*
X214757000Y-74168000D02*
X219329000Y-74168000D01*
X207251300Y-75068999D02*
X213856001Y-75068999D01*
D34*
X219075000Y-72136000D02*
X219075000Y-73914000D01*
X219075000Y-73914000D02*
X219329000Y-74168000D01*
D32*
X221829000Y-74168000D02*
X223901000Y-74168000D01*
X223901000Y-74168000D02*
X224536000Y-73533000D01*
D33*
X217170000Y-66294000D02*
X214663000Y-66294000D01*
D30*
X207899000Y-78598900D02*
X207899000Y-79883000D01*
X207899000Y-79883000D02*
X207899000Y-82677000D01*
X207899000Y-82677000D02*
X208661000Y-83439000D01*
X208661000Y-83439000D02*
X210586000Y-83439000D01*
X206609000Y-77711300D02*
X207011400Y-77711300D01*
X207011400Y-77711300D02*
X207899000Y-78598900D01*
D33*
X210406000Y-85979000D02*
X210406000Y-83619000D01*
X210406000Y-83619000D02*
X210586000Y-83439000D01*
X213106000Y-85979000D02*
X216154000Y-85979000D01*
D32*
X227203000Y-66421000D02*
X224663000Y-66421000D01*
X224663000Y-66421000D02*
X224536000Y-66294000D01*
X232495000Y-66421000D02*
X227203000Y-66421000D01*
X233152000Y-68453000D02*
X233152000Y-67078000D01*
X233152000Y-67078000D02*
X232495000Y-66421000D01*
D35*
X233132000Y-70612000D02*
X233132000Y-72731000D01*
X233132000Y-72731000D02*
X233172000Y-72771000D01*
X233152000Y-68453000D02*
X233152000Y-70592000D01*
X233152000Y-70592000D02*
X233132000Y-70612000D01*
X233132000Y-72604000D02*
X233299000Y-72771000D01*
D33*
X232784000Y-74915000D02*
X235951000Y-74915000D01*
X235951000Y-74915000D02*
X235966000Y-74930000D01*
D35*
X235872000Y-72771000D02*
X235872000Y-74836000D01*
X235872000Y-74836000D02*
X235966000Y-74930000D01*
X235966000Y-72804000D02*
X235999000Y-72771000D01*
X238466000Y-74930000D02*
X244856000Y-74930000D01*
D30*
X209282000Y-67457000D02*
X210445000Y-66294000D01*
X208407000Y-67457000D02*
X209282000Y-67457000D01*
X210445000Y-66294000D02*
X211963000Y-66294000D01*
X206629000Y-68199000D02*
X207371000Y-67457000D01*
X207371000Y-67457000D02*
X208407000Y-67457000D01*
X206629000Y-73250300D02*
X206629000Y-68199000D01*
X206609000Y-73926700D02*
X206609000Y-73270300D01*
X206609000Y-73270300D02*
X206629000Y-73250300D01*
D34*
X165481000Y-80518000D02*
X165481000Y-65993000D01*
X165481000Y-65993000D02*
X165561000Y-65913000D01*
D31*
X170561000Y-65913000D02*
X170561000Y-70452000D01*
X170561000Y-70452000D02*
X170274000Y-70739000D01*
D32*
X188341000Y-80010000D02*
X185580000Y-80010000D01*
D30*
X198755000Y-85598000D02*
X197612000Y-86741000D01*
X197612000Y-86741000D02*
X190025000Y-86741000D01*
X198755000Y-80624301D02*
X198755000Y-85598000D01*
X203466700Y-76569001D02*
X202810300Y-76569001D01*
X202810300Y-76569001D02*
X198755000Y-80624301D01*
D31*
X199771000Y-89789000D02*
X199009000Y-90551000D01*
X199009000Y-90551000D02*
X190025000Y-90551000D01*
X219362000Y-89789000D02*
X221742000Y-89789000D01*
D30*
X202819000Y-69977000D02*
X205072000Y-69977000D01*
X205072000Y-69977000D02*
X205105000Y-70010000D01*
X205609000Y-73926700D02*
X205609000Y-70514000D01*
X205609000Y-70514000D02*
X205105000Y-70010000D01*
X198374000Y-70010000D02*
X200533000Y-70010000D01*
X201422000Y-72009000D02*
X200533000Y-71120000D01*
X200533000Y-71120000D02*
X200533000Y-70010000D01*
X203847700Y-72009000D02*
X201422000Y-72009000D01*
X205109000Y-73926700D02*
X205109000Y-73270300D01*
X205109000Y-73270300D02*
X203847700Y-72009000D01*
X211582000Y-88519000D02*
X212772000Y-89709000D01*
X212772000Y-89709000D02*
X213741000Y-89709000D01*
X206109001Y-81141001D02*
X206629000Y-81661000D01*
X206109001Y-77711300D02*
X206109001Y-81141001D01*
D31*
X213741000Y-89709000D02*
X216582000Y-89709000D01*
X216582000Y-89709000D02*
X216662000Y-89789000D01*
D30*
X194564000Y-72136000D02*
X193802000Y-71374000D01*
X193802000Y-71374000D02*
X193802000Y-70104000D01*
X199644000Y-72136000D02*
X194564000Y-72136000D01*
X202077000Y-74569000D02*
X199644000Y-72136000D01*
X203466700Y-74569000D02*
X202077000Y-74569000D01*
X201295000Y-81681699D02*
X201295000Y-87138000D01*
X201295000Y-87138000D02*
X202946000Y-88789000D01*
X202946000Y-88789000D02*
X202946000Y-89789000D01*
X204608999Y-77711300D02*
X204608999Y-78367700D01*
X204608999Y-78367700D02*
X201295000Y-81681699D01*
X203466700Y-76069000D02*
X197070000Y-76069000D01*
X197070000Y-76069000D02*
X197011000Y-76010000D01*
X200163999Y-75068999D02*
X199009000Y-73914000D01*
X199009000Y-73914000D02*
X196977000Y-73914000D01*
X203466700Y-75068999D02*
X200163999Y-75068999D01*
D31*
X175006000Y-90551000D02*
X172593000Y-88138000D01*
X172593000Y-88138000D02*
X168021000Y-88138000D01*
X184625000Y-90551000D02*
X175006000Y-90551000D01*
X176022000Y-89281000D02*
X172339000Y-85598000D01*
X172339000Y-85598000D02*
X168021000Y-85598000D01*
X184625000Y-89281000D02*
X176022000Y-89281000D01*
X177038000Y-88011000D02*
X172085000Y-83058000D01*
X172085000Y-83058000D02*
X168021000Y-83058000D01*
X184625000Y-88011000D02*
X177038000Y-88011000D01*
X177927000Y-86741000D02*
X171704000Y-80518000D01*
X171704000Y-80518000D02*
X168021000Y-80518000D01*
X184625000Y-86741000D02*
X177927000Y-86741000D01*
D30*
X181516000Y-84201000D02*
X184625000Y-84201000D01*
X200279000Y-87376000D02*
X198374000Y-89281000D01*
X198374000Y-89281000D02*
X190025000Y-89281000D01*
X200279000Y-82061289D02*
X200279000Y-87376000D01*
X204109000Y-77711300D02*
X204109000Y-78231289D01*
X204109000Y-78231289D02*
X200279000Y-82061289D01*
X199517000Y-86233000D02*
X197739000Y-88011000D01*
X197739000Y-88011000D02*
X190025000Y-88011000D01*
X199517000Y-81421100D02*
X199517000Y-86233000D01*
X203466700Y-77069000D02*
X203466700Y-77471400D01*
X203466700Y-77471400D02*
X199517000Y-81421100D01*
D36*
G36*
X246940000Y-69295000D02*
X245141750Y-69295000D01*
X244983000Y-69453750D01*
X244983000Y-70553000D01*
X245003000Y-70553000D01*
X245003000Y-70807000D01*
X244983000Y-70807000D01*
X244983000Y-71906250D01*
X245141750Y-72065000D01*
X246940000Y-72065000D01*
X246940000Y-73532560D01*
X242316000Y-73532560D01*
X242068235Y-73581843D01*
X241936300Y-73670000D01*
X239278541Y-73670000D01*
X239216000Y-73657560D01*
X237716000Y-73657560D01*
X237468235Y-73706843D01*
X237258191Y-73847191D01*
X237216000Y-73910334D01*
X237173809Y-73847191D01*
X237132000Y-73819255D01*
X237132000Y-73800700D01*
X237220157Y-73668765D01*
X237269440Y-73421000D01*
X237269440Y-72842609D01*
X237283684Y-72771001D01*
X237269440Y-72699392D01*
X237269440Y-72121000D01*
X237220157Y-71873235D01*
X237079809Y-71663191D01*
X236869765Y-71522843D01*
X236622000Y-71473560D01*
X235122000Y-71473560D01*
X234874235Y-71522843D01*
X234664191Y-71663191D01*
X234523843Y-71873235D01*
X234522000Y-71882500D01*
X234520157Y-71873235D01*
X234392000Y-71681436D01*
X234392000Y-71616700D01*
X234480157Y-71484765D01*
X234529440Y-71237000D01*
X234529440Y-70965750D01*
X241681000Y-70965750D01*
X241681000Y-71556309D01*
X241777673Y-71789698D01*
X241956301Y-71968327D01*
X242189690Y-72065000D01*
X244570250Y-72065000D01*
X244729000Y-71906250D01*
X244729000Y-70807000D01*
X241839750Y-70807000D01*
X241681000Y-70965750D01*
X234529440Y-70965750D01*
X234529440Y-69987000D01*
X234492978Y-69803691D01*
X241681000Y-69803691D01*
X241681000Y-70394250D01*
X241839750Y-70553000D01*
X244729000Y-70553000D01*
X244729000Y-69453750D01*
X244570250Y-69295000D01*
X242189690Y-69295000D01*
X241956301Y-69391673D01*
X241777673Y-69570302D01*
X241681000Y-69803691D01*
X234492978Y-69803691D01*
X234480157Y-69739235D01*
X234412000Y-69637232D01*
X234412000Y-69457700D01*
X234500157Y-69325765D01*
X234549440Y-69078000D01*
X234549440Y-67828000D01*
X234500157Y-67580235D01*
X234359809Y-67370191D01*
X234162000Y-67238018D01*
X234162000Y-67177470D01*
X234181786Y-67077999D01*
X234162000Y-66978528D01*
X234162000Y-66978524D01*
X234103399Y-66683918D01*
X233880169Y-66349831D01*
X233795837Y-66293482D01*
X233279518Y-65777163D01*
X233223169Y-65692831D01*
X232889082Y-65469601D01*
X232594476Y-65411000D01*
X232594471Y-65411000D01*
X232495000Y-65391214D01*
X232395529Y-65411000D01*
X228417982Y-65411000D01*
X228285809Y-65213191D01*
X228075765Y-65072843D01*
X227828000Y-65023560D01*
X226578000Y-65023560D01*
X226330235Y-65072843D01*
X226120191Y-65213191D01*
X225988018Y-65411000D01*
X225887094Y-65411000D01*
X225884157Y-65396235D01*
X225743809Y-65186191D01*
X225533765Y-65045843D01*
X225286000Y-64996560D01*
X223786000Y-64996560D01*
X223538235Y-65045843D01*
X223328191Y-65186191D01*
X223187843Y-65396235D01*
X223186000Y-65405500D01*
X223184157Y-65396235D01*
X223043809Y-65186191D01*
X222846000Y-65054018D01*
X222846000Y-64993470D01*
X222865786Y-64893999D01*
X222846000Y-64794528D01*
X222846000Y-64794524D01*
X222787399Y-64499918D01*
X222564169Y-64165831D01*
X222479837Y-64109482D01*
X221734518Y-63364163D01*
X221678169Y-63279831D01*
X221344082Y-63056601D01*
X221049476Y-62998000D01*
X221049471Y-62998000D01*
X220950000Y-62978214D01*
X220850529Y-62998000D01*
X184749470Y-62998000D01*
X184649999Y-62978214D01*
X184550528Y-62998000D01*
X184550524Y-62998000D01*
X184255918Y-63056601D01*
X183921831Y-63279831D01*
X183865482Y-63364163D01*
X182855000Y-64374645D01*
X180955518Y-62475163D01*
X180899169Y-62390831D01*
X180565082Y-62167601D01*
X180270476Y-62109000D01*
X180270471Y-62109000D01*
X180171000Y-62089214D01*
X180071529Y-62109000D01*
X163167472Y-62109000D01*
X163068000Y-62089214D01*
X162968528Y-62109000D01*
X162968524Y-62109000D01*
X162735115Y-62155428D01*
X162673917Y-62167601D01*
X162424162Y-62334482D01*
X162424160Y-62334484D01*
X162339831Y-62390831D01*
X162283484Y-62475160D01*
X160773162Y-63985482D01*
X160688831Y-64041831D01*
X160632483Y-64126162D01*
X160632482Y-64126163D01*
X160605977Y-64165831D01*
X160465601Y-64375919D01*
X160407000Y-64670525D01*
X160407000Y-64670529D01*
X160387214Y-64770000D01*
X160407000Y-64869471D01*
X160407001Y-92229524D01*
X160387214Y-92329000D01*
X160407001Y-92428476D01*
X160442251Y-92605689D01*
X160465602Y-92723082D01*
X160632482Y-92972837D01*
X160632485Y-92972840D01*
X160688832Y-93057169D01*
X160773161Y-93113516D01*
X161013481Y-93353835D01*
X161013482Y-93353837D01*
X161521483Y-93861838D01*
X161577831Y-93946169D01*
X161662162Y-94002517D01*
X164823484Y-97163840D01*
X164879831Y-97248169D01*
X164964160Y-97304516D01*
X164964162Y-97304518D01*
X165139105Y-97421411D01*
X165213918Y-97471399D01*
X165508524Y-97530000D01*
X165508529Y-97530000D01*
X165608000Y-97549786D01*
X165707471Y-97530000D01*
X191775529Y-97530000D01*
X191875000Y-97549786D01*
X191974471Y-97530000D01*
X191974476Y-97530000D01*
X192269082Y-97471399D01*
X192603169Y-97248169D01*
X192659518Y-97163837D01*
X193048835Y-96774519D01*
X193133169Y-96718169D01*
X193356399Y-96384082D01*
X193415000Y-96089476D01*
X193415000Y-96089472D01*
X193434786Y-95990001D01*
X193415000Y-95890530D01*
X193415000Y-95829982D01*
X193612809Y-95697809D01*
X193661459Y-95625000D01*
X210088529Y-95625000D01*
X210188000Y-95644786D01*
X210287471Y-95625000D01*
X212935529Y-95625000D01*
X213035000Y-95644786D01*
X213134471Y-95625000D01*
X213134476Y-95625000D01*
X213429082Y-95566399D01*
X213763169Y-95343169D01*
X213819517Y-95258838D01*
X214384840Y-94693515D01*
X214469169Y-94637169D01*
X214525516Y-94552840D01*
X214525518Y-94552838D01*
X214692398Y-94303083D01*
X214692399Y-94303082D01*
X214751000Y-94008476D01*
X214751000Y-94008471D01*
X214770786Y-93909000D01*
X214751000Y-93809529D01*
X214751000Y-93682163D01*
X214848809Y-93616809D01*
X214980982Y-93419000D01*
X223213529Y-93419000D01*
X223313000Y-93438786D01*
X223412471Y-93419000D01*
X223412476Y-93419000D01*
X223707082Y-93360399D01*
X224041169Y-93137169D01*
X224097518Y-93052837D01*
X224798840Y-92351516D01*
X224883169Y-92295169D01*
X224939516Y-92210840D01*
X224939518Y-92210838D01*
X225106398Y-91961083D01*
X225106399Y-91961082D01*
X225165000Y-91666476D01*
X225165000Y-91666471D01*
X225184786Y-91567000D01*
X225165000Y-91467529D01*
X225165000Y-84427472D01*
X225184786Y-84328000D01*
X225165000Y-84228528D01*
X225165000Y-84228524D01*
X225108206Y-83943000D01*
X225106399Y-83933917D01*
X224939518Y-83684162D01*
X224939516Y-83684160D01*
X224883169Y-83599831D01*
X224798841Y-83543485D01*
X222272517Y-81017162D01*
X222216169Y-80932831D01*
X221882082Y-80709601D01*
X221587476Y-80651000D01*
X221587471Y-80651000D01*
X221488000Y-80631214D01*
X221388529Y-80651000D01*
X218775355Y-80651000D01*
X217619861Y-79495506D01*
X217662809Y-79466809D01*
X217803157Y-79256765D01*
X217805000Y-79247500D01*
X217806843Y-79256765D01*
X217947191Y-79466809D01*
X218157235Y-79607157D01*
X218405000Y-79656440D01*
X219905000Y-79656440D01*
X220152765Y-79607157D01*
X220362809Y-79466809D01*
X220363516Y-79465750D01*
X241681000Y-79465750D01*
X241681000Y-80056309D01*
X241777673Y-80289698D01*
X241956301Y-80468327D01*
X242189690Y-80565000D01*
X244570250Y-80565000D01*
X244729000Y-80406250D01*
X244729000Y-79307000D01*
X241839750Y-79307000D01*
X241681000Y-79465750D01*
X220363516Y-79465750D01*
X220503157Y-79256765D01*
X220552440Y-79009000D01*
X220552440Y-78303691D01*
X241681000Y-78303691D01*
X241681000Y-78894250D01*
X241839750Y-79053000D01*
X244729000Y-79053000D01*
X244729000Y-77953750D01*
X244570250Y-77795000D01*
X242189690Y-77795000D01*
X241956301Y-77891673D01*
X241777673Y-78070302D01*
X241681000Y-78303691D01*
X220552440Y-78303691D01*
X220552440Y-77709000D01*
X220503157Y-77461235D01*
X220443468Y-77371905D01*
X220576809Y-77282809D01*
X220619000Y-77219666D01*
X220661191Y-77282809D01*
X220871235Y-77423157D01*
X221119000Y-77472440D01*
X222619000Y-77472440D01*
X222866765Y-77423157D01*
X223076809Y-77282809D01*
X223217157Y-77072765D01*
X223229642Y-77010000D01*
X223302358Y-77010000D01*
X223314843Y-77072765D01*
X223455191Y-77282809D01*
X223665235Y-77423157D01*
X223913000Y-77472440D01*
X225413000Y-77472440D01*
X225660765Y-77423157D01*
X225870809Y-77282809D01*
X225913000Y-77219666D01*
X225955191Y-77282809D01*
X226165235Y-77423157D01*
X226413000Y-77472440D01*
X227913000Y-77472440D01*
X228160765Y-77423157D01*
X228370809Y-77282809D01*
X228511157Y-77072765D01*
X228520658Y-77025000D01*
X229185774Y-77025000D01*
X229374000Y-77062440D01*
X230874000Y-77062440D01*
X231121765Y-77013157D01*
X231331809Y-76872809D01*
X231458052Y-76683874D01*
X231495673Y-76774699D01*
X231674302Y-76953327D01*
X231907691Y-77050000D01*
X232498250Y-77050000D01*
X232657000Y-76891250D01*
X232657000Y-76315000D01*
X232637000Y-76315000D01*
X232637000Y-76261250D01*
X232657000Y-76241250D01*
X232657000Y-76068000D01*
X232911000Y-76068000D01*
X232911000Y-76241250D01*
X232984750Y-76315000D01*
X232911000Y-76315000D01*
X232911000Y-76891250D01*
X233069750Y-77050000D01*
X233660309Y-77050000D01*
X233893698Y-76953327D01*
X234072327Y-76774699D01*
X234169000Y-76541310D01*
X234169000Y-76473750D01*
X234010250Y-76315000D01*
X233865517Y-76315000D01*
X233893698Y-76303327D01*
X234072327Y-76124699D01*
X234123080Y-76002170D01*
X234169000Y-75956250D01*
X234169000Y-75823750D01*
X234123080Y-75777830D01*
X234101197Y-75725000D01*
X234602375Y-75725000D01*
X234617843Y-75802765D01*
X234758191Y-76012809D01*
X234968235Y-76153157D01*
X235216000Y-76202440D01*
X235904445Y-76202440D01*
X235965999Y-76214684D01*
X236027553Y-76202440D01*
X236716000Y-76202440D01*
X236963765Y-76153157D01*
X237173809Y-76012809D01*
X237216000Y-75949666D01*
X237258191Y-76012809D01*
X237468235Y-76153157D01*
X237716000Y-76202440D01*
X239216000Y-76202440D01*
X239278541Y-76190000D01*
X241936300Y-76190000D01*
X242068235Y-76278157D01*
X242316000Y-76327440D01*
X246940000Y-76327440D01*
X246940000Y-77795000D01*
X245141750Y-77795000D01*
X244983000Y-77953750D01*
X244983000Y-79053000D01*
X245003000Y-79053000D01*
X245003000Y-79307000D01*
X244983000Y-79307000D01*
X244983000Y-80406250D01*
X245141750Y-80565000D01*
X246940001Y-80565000D01*
X246940001Y-98290000D01*
X159710000Y-98290000D01*
X159710000Y-60710000D01*
X246940000Y-60710000D01*
X246940000Y-69295000D01*
X246940000Y-69295000D01*
G37*
X246940000Y-69295000D02*
X245141750Y-69295000D01*
X244983000Y-69453750D01*
X244983000Y-70553000D01*
X245003000Y-70553000D01*
X245003000Y-70807000D01*
X244983000Y-70807000D01*
X244983000Y-71906250D01*
X245141750Y-72065000D01*
X246940000Y-72065000D01*
X246940000Y-73532560D01*
X242316000Y-73532560D01*
X242068235Y-73581843D01*
X241936300Y-73670000D01*
X239278541Y-73670000D01*
X239216000Y-73657560D01*
X237716000Y-73657560D01*
X237468235Y-73706843D01*
X237258191Y-73847191D01*
X237216000Y-73910334D01*
X237173809Y-73847191D01*
X237132000Y-73819255D01*
X237132000Y-73800700D01*
X237220157Y-73668765D01*
X237269440Y-73421000D01*
X237269440Y-72842609D01*
X237283684Y-72771001D01*
X237269440Y-72699392D01*
X237269440Y-72121000D01*
X237220157Y-71873235D01*
X237079809Y-71663191D01*
X236869765Y-71522843D01*
X236622000Y-71473560D01*
X235122000Y-71473560D01*
X234874235Y-71522843D01*
X234664191Y-71663191D01*
X234523843Y-71873235D01*
X234522000Y-71882500D01*
X234520157Y-71873235D01*
X234392000Y-71681436D01*
X234392000Y-71616700D01*
X234480157Y-71484765D01*
X234529440Y-71237000D01*
X234529440Y-70965750D01*
X241681000Y-70965750D01*
X241681000Y-71556309D01*
X241777673Y-71789698D01*
X241956301Y-71968327D01*
X242189690Y-72065000D01*
X244570250Y-72065000D01*
X244729000Y-71906250D01*
X244729000Y-70807000D01*
X241839750Y-70807000D01*
X241681000Y-70965750D01*
X234529440Y-70965750D01*
X234529440Y-69987000D01*
X234492978Y-69803691D01*
X241681000Y-69803691D01*
X241681000Y-70394250D01*
X241839750Y-70553000D01*
X244729000Y-70553000D01*
X244729000Y-69453750D01*
X244570250Y-69295000D01*
X242189690Y-69295000D01*
X241956301Y-69391673D01*
X241777673Y-69570302D01*
X241681000Y-69803691D01*
X234492978Y-69803691D01*
X234480157Y-69739235D01*
X234412000Y-69637232D01*
X234412000Y-69457700D01*
X234500157Y-69325765D01*
X234549440Y-69078000D01*
X234549440Y-67828000D01*
X234500157Y-67580235D01*
X234359809Y-67370191D01*
X234162000Y-67238018D01*
X234162000Y-67177470D01*
X234181786Y-67077999D01*
X234162000Y-66978528D01*
X234162000Y-66978524D01*
X234103399Y-66683918D01*
X233880169Y-66349831D01*
X233795837Y-66293482D01*
X233279518Y-65777163D01*
X233223169Y-65692831D01*
X232889082Y-65469601D01*
X232594476Y-65411000D01*
X232594471Y-65411000D01*
X232495000Y-65391214D01*
X232395529Y-65411000D01*
X228417982Y-65411000D01*
X228285809Y-65213191D01*
X228075765Y-65072843D01*
X227828000Y-65023560D01*
X226578000Y-65023560D01*
X226330235Y-65072843D01*
X226120191Y-65213191D01*
X225988018Y-65411000D01*
X225887094Y-65411000D01*
X225884157Y-65396235D01*
X225743809Y-65186191D01*
X225533765Y-65045843D01*
X225286000Y-64996560D01*
X223786000Y-64996560D01*
X223538235Y-65045843D01*
X223328191Y-65186191D01*
X223187843Y-65396235D01*
X223186000Y-65405500D01*
X223184157Y-65396235D01*
X223043809Y-65186191D01*
X222846000Y-65054018D01*
X222846000Y-64993470D01*
X222865786Y-64893999D01*
X222846000Y-64794528D01*
X222846000Y-64794524D01*
X222787399Y-64499918D01*
X222564169Y-64165831D01*
X222479837Y-64109482D01*
X221734518Y-63364163D01*
X221678169Y-63279831D01*
X221344082Y-63056601D01*
X221049476Y-62998000D01*
X221049471Y-62998000D01*
X220950000Y-62978214D01*
X220850529Y-62998000D01*
X184749470Y-62998000D01*
X184649999Y-62978214D01*
X184550528Y-62998000D01*
X184550524Y-62998000D01*
X184255918Y-63056601D01*
X183921831Y-63279831D01*
X183865482Y-63364163D01*
X182855000Y-64374645D01*
X180955518Y-62475163D01*
X180899169Y-62390831D01*
X180565082Y-62167601D01*
X180270476Y-62109000D01*
X180270471Y-62109000D01*
X180171000Y-62089214D01*
X180071529Y-62109000D01*
X163167472Y-62109000D01*
X163068000Y-62089214D01*
X162968528Y-62109000D01*
X162968524Y-62109000D01*
X162735115Y-62155428D01*
X162673917Y-62167601D01*
X162424162Y-62334482D01*
X162424160Y-62334484D01*
X162339831Y-62390831D01*
X162283484Y-62475160D01*
X160773162Y-63985482D01*
X160688831Y-64041831D01*
X160632483Y-64126162D01*
X160632482Y-64126163D01*
X160605977Y-64165831D01*
X160465601Y-64375919D01*
X160407000Y-64670525D01*
X160407000Y-64670529D01*
X160387214Y-64770000D01*
X160407000Y-64869471D01*
X160407001Y-92229524D01*
X160387214Y-92329000D01*
X160407001Y-92428476D01*
X160442251Y-92605689D01*
X160465602Y-92723082D01*
X160632482Y-92972837D01*
X160632485Y-92972840D01*
X160688832Y-93057169D01*
X160773161Y-93113516D01*
X161013481Y-93353835D01*
X161013482Y-93353837D01*
X161521483Y-93861838D01*
X161577831Y-93946169D01*
X161662162Y-94002517D01*
X164823484Y-97163840D01*
X164879831Y-97248169D01*
X164964160Y-97304516D01*
X164964162Y-97304518D01*
X165139105Y-97421411D01*
X165213918Y-97471399D01*
X165508524Y-97530000D01*
X165508529Y-97530000D01*
X165608000Y-97549786D01*
X165707471Y-97530000D01*
X191775529Y-97530000D01*
X191875000Y-97549786D01*
X191974471Y-97530000D01*
X191974476Y-97530000D01*
X192269082Y-97471399D01*
X192603169Y-97248169D01*
X192659518Y-97163837D01*
X193048835Y-96774519D01*
X193133169Y-96718169D01*
X193356399Y-96384082D01*
X193415000Y-96089476D01*
X193415000Y-96089472D01*
X193434786Y-95990001D01*
X193415000Y-95890530D01*
X193415000Y-95829982D01*
X193612809Y-95697809D01*
X193661459Y-95625000D01*
X210088529Y-95625000D01*
X210188000Y-95644786D01*
X210287471Y-95625000D01*
X212935529Y-95625000D01*
X213035000Y-95644786D01*
X213134471Y-95625000D01*
X213134476Y-95625000D01*
X213429082Y-95566399D01*
X213763169Y-95343169D01*
X213819517Y-95258838D01*
X214384840Y-94693515D01*
X214469169Y-94637169D01*
X214525516Y-94552840D01*
X214525518Y-94552838D01*
X214692398Y-94303083D01*
X214692399Y-94303082D01*
X214751000Y-94008476D01*
X214751000Y-94008471D01*
X214770786Y-93909000D01*
X214751000Y-93809529D01*
X214751000Y-93682163D01*
X214848809Y-93616809D01*
X214980982Y-93419000D01*
X223213529Y-93419000D01*
X223313000Y-93438786D01*
X223412471Y-93419000D01*
X223412476Y-93419000D01*
X223707082Y-93360399D01*
X224041169Y-93137169D01*
X224097518Y-93052837D01*
X224798840Y-92351516D01*
X224883169Y-92295169D01*
X224939516Y-92210840D01*
X224939518Y-92210838D01*
X225106398Y-91961083D01*
X225106399Y-91961082D01*
X225165000Y-91666476D01*
X225165000Y-91666471D01*
X225184786Y-91567000D01*
X225165000Y-91467529D01*
X225165000Y-84427472D01*
X225184786Y-84328000D01*
X225165000Y-84228528D01*
X225165000Y-84228524D01*
X225108206Y-83943000D01*
X225106399Y-83933917D01*
X224939518Y-83684162D01*
X224939516Y-83684160D01*
X224883169Y-83599831D01*
X224798841Y-83543485D01*
X222272517Y-81017162D01*
X222216169Y-80932831D01*
X221882082Y-80709601D01*
X221587476Y-80651000D01*
X221587471Y-80651000D01*
X221488000Y-80631214D01*
X221388529Y-80651000D01*
X218775355Y-80651000D01*
X217619861Y-79495506D01*
X217662809Y-79466809D01*
X217803157Y-79256765D01*
X217805000Y-79247500D01*
X217806843Y-79256765D01*
X217947191Y-79466809D01*
X218157235Y-79607157D01*
X218405000Y-79656440D01*
X219905000Y-79656440D01*
X220152765Y-79607157D01*
X220362809Y-79466809D01*
X220363516Y-79465750D01*
X241681000Y-79465750D01*
X241681000Y-80056309D01*
X241777673Y-80289698D01*
X241956301Y-80468327D01*
X242189690Y-80565000D01*
X244570250Y-80565000D01*
X244729000Y-80406250D01*
X244729000Y-79307000D01*
X241839750Y-79307000D01*
X241681000Y-79465750D01*
X220363516Y-79465750D01*
X220503157Y-79256765D01*
X220552440Y-79009000D01*
X220552440Y-78303691D01*
X241681000Y-78303691D01*
X241681000Y-78894250D01*
X241839750Y-79053000D01*
X244729000Y-79053000D01*
X244729000Y-77953750D01*
X244570250Y-77795000D01*
X242189690Y-77795000D01*
X241956301Y-77891673D01*
X241777673Y-78070302D01*
X241681000Y-78303691D01*
X220552440Y-78303691D01*
X220552440Y-77709000D01*
X220503157Y-77461235D01*
X220443468Y-77371905D01*
X220576809Y-77282809D01*
X220619000Y-77219666D01*
X220661191Y-77282809D01*
X220871235Y-77423157D01*
X221119000Y-77472440D01*
X222619000Y-77472440D01*
X222866765Y-77423157D01*
X223076809Y-77282809D01*
X223217157Y-77072765D01*
X223229642Y-77010000D01*
X223302358Y-77010000D01*
X223314843Y-77072765D01*
X223455191Y-77282809D01*
X223665235Y-77423157D01*
X223913000Y-77472440D01*
X225413000Y-77472440D01*
X225660765Y-77423157D01*
X225870809Y-77282809D01*
X225913000Y-77219666D01*
X225955191Y-77282809D01*
X226165235Y-77423157D01*
X226413000Y-77472440D01*
X227913000Y-77472440D01*
X228160765Y-77423157D01*
X228370809Y-77282809D01*
X228511157Y-77072765D01*
X228520658Y-77025000D01*
X229185774Y-77025000D01*
X229374000Y-77062440D01*
X230874000Y-77062440D01*
X231121765Y-77013157D01*
X231331809Y-76872809D01*
X231458052Y-76683874D01*
X231495673Y-76774699D01*
X231674302Y-76953327D01*
X231907691Y-77050000D01*
X232498250Y-77050000D01*
X232657000Y-76891250D01*
X232657000Y-76315000D01*
X232637000Y-76315000D01*
X232637000Y-76261250D01*
X232657000Y-76241250D01*
X232657000Y-76068000D01*
X232911000Y-76068000D01*
X232911000Y-76241250D01*
X232984750Y-76315000D01*
X232911000Y-76315000D01*
X232911000Y-76891250D01*
X233069750Y-77050000D01*
X233660309Y-77050000D01*
X233893698Y-76953327D01*
X234072327Y-76774699D01*
X234169000Y-76541310D01*
X234169000Y-76473750D01*
X234010250Y-76315000D01*
X233865517Y-76315000D01*
X233893698Y-76303327D01*
X234072327Y-76124699D01*
X234123080Y-76002170D01*
X234169000Y-75956250D01*
X234169000Y-75823750D01*
X234123080Y-75777830D01*
X234101197Y-75725000D01*
X234602375Y-75725000D01*
X234617843Y-75802765D01*
X234758191Y-76012809D01*
X234968235Y-76153157D01*
X235216000Y-76202440D01*
X235904445Y-76202440D01*
X235965999Y-76214684D01*
X236027553Y-76202440D01*
X236716000Y-76202440D01*
X236963765Y-76153157D01*
X237173809Y-76012809D01*
X237216000Y-75949666D01*
X237258191Y-76012809D01*
X237468235Y-76153157D01*
X237716000Y-76202440D01*
X239216000Y-76202440D01*
X239278541Y-76190000D01*
X241936300Y-76190000D01*
X242068235Y-76278157D01*
X242316000Y-76327440D01*
X246940000Y-76327440D01*
X246940000Y-77795000D01*
X245141750Y-77795000D01*
X244983000Y-77953750D01*
X244983000Y-79053000D01*
X245003000Y-79053000D01*
X245003000Y-79307000D01*
X244983000Y-79307000D01*
X244983000Y-80406250D01*
X245141750Y-80565000D01*
X246940001Y-80565000D01*
X246940001Y-98290000D01*
X159710000Y-98290000D01*
X159710000Y-60710000D01*
X246940000Y-60710000D01*
X246940000Y-69295000D01*
G36*
X195729191Y-81092809D02*
X195939235Y-81233157D01*
X196187000Y-81282440D01*
X197687000Y-81282440D01*
X197934765Y-81233157D01*
X197995000Y-81192909D01*
X197995001Y-85283197D01*
X197297199Y-85981000D01*
X191380669Y-85981000D01*
X191422440Y-85771000D01*
X191422440Y-85171000D01*
X191373157Y-84923235D01*
X191320232Y-84844028D01*
X191410000Y-84627310D01*
X191410000Y-84486750D01*
X191251250Y-84328000D01*
X190152000Y-84328000D01*
X190152000Y-84348000D01*
X189898000Y-84348000D01*
X189898000Y-84328000D01*
X188798750Y-84328000D01*
X188640000Y-84486750D01*
X188640000Y-84627310D01*
X188729768Y-84844028D01*
X188676843Y-84923235D01*
X188627560Y-85171000D01*
X188627560Y-85771000D01*
X188676843Y-86018765D01*
X188735132Y-86106000D01*
X188676843Y-86193235D01*
X188627560Y-86441000D01*
X188627560Y-87041000D01*
X188676843Y-87288765D01*
X188735132Y-87376000D01*
X188676843Y-87463235D01*
X188627560Y-87711000D01*
X188627560Y-88311000D01*
X188676843Y-88558765D01*
X188735132Y-88646000D01*
X188676843Y-88733235D01*
X188627560Y-88981000D01*
X188627560Y-89581000D01*
X188676843Y-89828765D01*
X188735132Y-89916000D01*
X188676843Y-90003235D01*
X188627560Y-90251000D01*
X188627560Y-90851000D01*
X188676843Y-91098765D01*
X188735132Y-91186000D01*
X188676843Y-91273235D01*
X188627560Y-91521000D01*
X188627560Y-92121000D01*
X188676843Y-92368765D01*
X188817191Y-92578809D01*
X189027235Y-92719157D01*
X189275000Y-92768440D01*
X190775000Y-92768440D01*
X190938366Y-92735945D01*
X191520000Y-93317579D01*
X191520000Y-93369413D01*
X191407235Y-93391843D01*
X191197191Y-93532191D01*
X191156346Y-93593320D01*
X191014698Y-93451673D01*
X190781309Y-93355000D01*
X190190750Y-93355000D01*
X190032000Y-93513750D01*
X190032000Y-94488000D01*
X190052000Y-94488000D01*
X190052000Y-94742000D01*
X190032000Y-94742000D01*
X190032000Y-94762000D01*
X189778000Y-94762000D01*
X189778000Y-94742000D01*
X188678750Y-94742000D01*
X188520000Y-94900750D01*
X188520000Y-95366310D01*
X188579518Y-95510000D01*
X185963482Y-95510000D01*
X186023000Y-95366310D01*
X186023000Y-94900750D01*
X185864250Y-94742000D01*
X184765000Y-94742000D01*
X184765000Y-94762000D01*
X184511000Y-94762000D01*
X184511000Y-94742000D01*
X184491000Y-94742000D01*
X184491000Y-94488000D01*
X184511000Y-94488000D01*
X184511000Y-93513750D01*
X184765000Y-93513750D01*
X184765000Y-94488000D01*
X185864250Y-94488000D01*
X186023000Y-94329250D01*
X186023000Y-93863690D01*
X188520000Y-93863690D01*
X188520000Y-94329250D01*
X188678750Y-94488000D01*
X189778000Y-94488000D01*
X189778000Y-93513750D01*
X189619250Y-93355000D01*
X189028691Y-93355000D01*
X188795302Y-93451673D01*
X188616673Y-93630301D01*
X188520000Y-93863690D01*
X186023000Y-93863690D01*
X185926327Y-93630301D01*
X185747698Y-93451673D01*
X185514309Y-93355000D01*
X184923750Y-93355000D01*
X184765000Y-93513750D01*
X184511000Y-93513750D01*
X184352250Y-93355000D01*
X183761691Y-93355000D01*
X183528302Y-93451673D01*
X183386654Y-93593320D01*
X183345809Y-93532191D01*
X183135765Y-93391843D01*
X183023000Y-93369413D01*
X183023000Y-93056578D01*
X183373579Y-92706000D01*
X183607544Y-92706000D01*
X183627235Y-92719157D01*
X183875000Y-92768440D01*
X185375000Y-92768440D01*
X185622765Y-92719157D01*
X185832809Y-92578809D01*
X185973157Y-92368765D01*
X186022440Y-92121000D01*
X186022440Y-91521000D01*
X185973157Y-91273235D01*
X185914868Y-91186000D01*
X185973157Y-91098765D01*
X186022440Y-90851000D01*
X186022440Y-90251000D01*
X185973157Y-90003235D01*
X185914868Y-89916000D01*
X185973157Y-89828765D01*
X186022440Y-89581000D01*
X186022440Y-88981000D01*
X185973157Y-88733235D01*
X185914868Y-88646000D01*
X185973157Y-88558765D01*
X186022440Y-88311000D01*
X186022440Y-87711000D01*
X185973157Y-87463235D01*
X185914868Y-87376000D01*
X185973157Y-87288765D01*
X186022440Y-87041000D01*
X186022440Y-86441000D01*
X185973157Y-86193235D01*
X185914868Y-86106000D01*
X185973157Y-86018765D01*
X186022440Y-85771000D01*
X186022440Y-85171000D01*
X185973157Y-84923235D01*
X185914868Y-84836000D01*
X185973157Y-84748765D01*
X186022440Y-84501000D01*
X186022440Y-83901000D01*
X185997316Y-83774690D01*
X188640000Y-83774690D01*
X188640000Y-83915250D01*
X188798750Y-84074000D01*
X189898000Y-84074000D01*
X189898000Y-83424750D01*
X190152000Y-83424750D01*
X190152000Y-84074000D01*
X191251250Y-84074000D01*
X191410000Y-83915250D01*
X191410000Y-83774690D01*
X191313327Y-83541301D01*
X191134698Y-83362673D01*
X190901309Y-83266000D01*
X190310750Y-83266000D01*
X190152000Y-83424750D01*
X189898000Y-83424750D01*
X189739250Y-83266000D01*
X189148691Y-83266000D01*
X188915302Y-83362673D01*
X188736673Y-83541301D01*
X188640000Y-83774690D01*
X185997316Y-83774690D01*
X185973157Y-83653235D01*
X185832809Y-83443191D01*
X185622765Y-83302843D01*
X185375000Y-83253560D01*
X183875000Y-83253560D01*
X183627235Y-83302843D01*
X183420470Y-83441000D01*
X182891560Y-83441000D01*
X182864157Y-83303235D01*
X182817227Y-83233000D01*
X193341227Y-83233000D01*
X193421000Y-83248868D01*
X193500773Y-83233000D01*
X193500774Y-83233000D01*
X193737046Y-83186003D01*
X194004977Y-83006977D01*
X194050168Y-82939344D01*
X194953347Y-82036166D01*
X195020977Y-81990977D01*
X195200003Y-81723046D01*
X195247000Y-81486774D01*
X195247000Y-81486773D01*
X195262868Y-81407000D01*
X195247000Y-81327227D01*
X195247000Y-81270505D01*
X195434765Y-81233157D01*
X195644809Y-81092809D01*
X195687000Y-81029666D01*
X195729191Y-81092809D01*
X195729191Y-81092809D01*
G37*
X195729191Y-81092809D02*
X195939235Y-81233157D01*
X196187000Y-81282440D01*
X197687000Y-81282440D01*
X197934765Y-81233157D01*
X197995000Y-81192909D01*
X197995001Y-85283197D01*
X197297199Y-85981000D01*
X191380669Y-85981000D01*
X191422440Y-85771000D01*
X191422440Y-85171000D01*
X191373157Y-84923235D01*
X191320232Y-84844028D01*
X191410000Y-84627310D01*
X191410000Y-84486750D01*
X191251250Y-84328000D01*
X190152000Y-84328000D01*
X190152000Y-84348000D01*
X189898000Y-84348000D01*
X189898000Y-84328000D01*
X188798750Y-84328000D01*
X188640000Y-84486750D01*
X188640000Y-84627310D01*
X188729768Y-84844028D01*
X188676843Y-84923235D01*
X188627560Y-85171000D01*
X188627560Y-85771000D01*
X188676843Y-86018765D01*
X188735132Y-86106000D01*
X188676843Y-86193235D01*
X188627560Y-86441000D01*
X188627560Y-87041000D01*
X188676843Y-87288765D01*
X188735132Y-87376000D01*
X188676843Y-87463235D01*
X188627560Y-87711000D01*
X188627560Y-88311000D01*
X188676843Y-88558765D01*
X188735132Y-88646000D01*
X188676843Y-88733235D01*
X188627560Y-88981000D01*
X188627560Y-89581000D01*
X188676843Y-89828765D01*
X188735132Y-89916000D01*
X188676843Y-90003235D01*
X188627560Y-90251000D01*
X188627560Y-90851000D01*
X188676843Y-91098765D01*
X188735132Y-91186000D01*
X188676843Y-91273235D01*
X188627560Y-91521000D01*
X188627560Y-92121000D01*
X188676843Y-92368765D01*
X188817191Y-92578809D01*
X189027235Y-92719157D01*
X189275000Y-92768440D01*
X190775000Y-92768440D01*
X190938366Y-92735945D01*
X191520000Y-93317579D01*
X191520000Y-93369413D01*
X191407235Y-93391843D01*
X191197191Y-93532191D01*
X191156346Y-93593320D01*
X191014698Y-93451673D01*
X190781309Y-93355000D01*
X190190750Y-93355000D01*
X190032000Y-93513750D01*
X190032000Y-94488000D01*
X190052000Y-94488000D01*
X190052000Y-94742000D01*
X190032000Y-94742000D01*
X190032000Y-94762000D01*
X189778000Y-94762000D01*
X189778000Y-94742000D01*
X188678750Y-94742000D01*
X188520000Y-94900750D01*
X188520000Y-95366310D01*
X188579518Y-95510000D01*
X185963482Y-95510000D01*
X186023000Y-95366310D01*
X186023000Y-94900750D01*
X185864250Y-94742000D01*
X184765000Y-94742000D01*
X184765000Y-94762000D01*
X184511000Y-94762000D01*
X184511000Y-94742000D01*
X184491000Y-94742000D01*
X184491000Y-94488000D01*
X184511000Y-94488000D01*
X184511000Y-93513750D01*
X184765000Y-93513750D01*
X184765000Y-94488000D01*
X185864250Y-94488000D01*
X186023000Y-94329250D01*
X186023000Y-93863690D01*
X188520000Y-93863690D01*
X188520000Y-94329250D01*
X188678750Y-94488000D01*
X189778000Y-94488000D01*
X189778000Y-93513750D01*
X189619250Y-93355000D01*
X189028691Y-93355000D01*
X188795302Y-93451673D01*
X188616673Y-93630301D01*
X188520000Y-93863690D01*
X186023000Y-93863690D01*
X185926327Y-93630301D01*
X185747698Y-93451673D01*
X185514309Y-93355000D01*
X184923750Y-93355000D01*
X184765000Y-93513750D01*
X184511000Y-93513750D01*
X184352250Y-93355000D01*
X183761691Y-93355000D01*
X183528302Y-93451673D01*
X183386654Y-93593320D01*
X183345809Y-93532191D01*
X183135765Y-93391843D01*
X183023000Y-93369413D01*
X183023000Y-93056578D01*
X183373579Y-92706000D01*
X183607544Y-92706000D01*
X183627235Y-92719157D01*
X183875000Y-92768440D01*
X185375000Y-92768440D01*
X185622765Y-92719157D01*
X185832809Y-92578809D01*
X185973157Y-92368765D01*
X186022440Y-92121000D01*
X186022440Y-91521000D01*
X185973157Y-91273235D01*
X185914868Y-91186000D01*
X185973157Y-91098765D01*
X186022440Y-90851000D01*
X186022440Y-90251000D01*
X185973157Y-90003235D01*
X185914868Y-89916000D01*
X185973157Y-89828765D01*
X186022440Y-89581000D01*
X186022440Y-88981000D01*
X185973157Y-88733235D01*
X185914868Y-88646000D01*
X185973157Y-88558765D01*
X186022440Y-88311000D01*
X186022440Y-87711000D01*
X185973157Y-87463235D01*
X185914868Y-87376000D01*
X185973157Y-87288765D01*
X186022440Y-87041000D01*
X186022440Y-86441000D01*
X185973157Y-86193235D01*
X185914868Y-86106000D01*
X185973157Y-86018765D01*
X186022440Y-85771000D01*
X186022440Y-85171000D01*
X185973157Y-84923235D01*
X185914868Y-84836000D01*
X185973157Y-84748765D01*
X186022440Y-84501000D01*
X186022440Y-83901000D01*
X185997316Y-83774690D01*
X188640000Y-83774690D01*
X188640000Y-83915250D01*
X188798750Y-84074000D01*
X189898000Y-84074000D01*
X189898000Y-83424750D01*
X190152000Y-83424750D01*
X190152000Y-84074000D01*
X191251250Y-84074000D01*
X191410000Y-83915250D01*
X191410000Y-83774690D01*
X191313327Y-83541301D01*
X191134698Y-83362673D01*
X190901309Y-83266000D01*
X190310750Y-83266000D01*
X190152000Y-83424750D01*
X189898000Y-83424750D01*
X189739250Y-83266000D01*
X189148691Y-83266000D01*
X188915302Y-83362673D01*
X188736673Y-83541301D01*
X188640000Y-83774690D01*
X185997316Y-83774690D01*
X185973157Y-83653235D01*
X185832809Y-83443191D01*
X185622765Y-83302843D01*
X185375000Y-83253560D01*
X183875000Y-83253560D01*
X183627235Y-83302843D01*
X183420470Y-83441000D01*
X182891560Y-83441000D01*
X182864157Y-83303235D01*
X182817227Y-83233000D01*
X193341227Y-83233000D01*
X193421000Y-83248868D01*
X193500773Y-83233000D01*
X193500774Y-83233000D01*
X193737046Y-83186003D01*
X194004977Y-83006977D01*
X194050168Y-82939344D01*
X194953347Y-82036166D01*
X195020977Y-81990977D01*
X195200003Y-81723046D01*
X195247000Y-81486774D01*
X195247000Y-81486773D01*
X195262868Y-81407000D01*
X195247000Y-81327227D01*
X195247000Y-81270505D01*
X195434765Y-81233157D01*
X195644809Y-81092809D01*
X195687000Y-81029666D01*
X195729191Y-81092809D01*
G36*
X181590002Y-65966357D02*
X181397191Y-66095191D01*
X181256843Y-66305235D01*
X181207560Y-66553000D01*
X181207560Y-70353000D01*
X181256843Y-70600765D01*
X181397191Y-70810809D01*
X181607235Y-70951157D01*
X181855000Y-71000440D01*
X183855000Y-71000440D01*
X184102765Y-70951157D01*
X184312809Y-70810809D01*
X184453157Y-70600765D01*
X184502440Y-70353000D01*
X184502440Y-69778795D01*
X187217204Y-72493560D01*
X187012000Y-72493560D01*
X186764235Y-72542843D01*
X186612953Y-72643927D01*
X186571698Y-72602673D01*
X186338309Y-72506000D01*
X185197750Y-72506000D01*
X185039000Y-72664750D01*
X185039000Y-73914000D01*
X185059000Y-73914000D01*
X185059000Y-74168000D01*
X185039000Y-74168000D01*
X185039000Y-75417250D01*
X185197750Y-75576000D01*
X186338309Y-75576000D01*
X186571698Y-75479327D01*
X186612953Y-75438073D01*
X186764235Y-75539157D01*
X187012000Y-75588440D01*
X187331001Y-75588440D01*
X187331000Y-76036836D01*
X187233191Y-76102191D01*
X187092843Y-76312235D01*
X187043560Y-76560000D01*
X187043560Y-78060000D01*
X187092843Y-78307765D01*
X187233191Y-78517809D01*
X187443235Y-78658157D01*
X187452500Y-78660000D01*
X187443235Y-78661843D01*
X187233191Y-78802191D01*
X187101018Y-79000000D01*
X186853163Y-79000000D01*
X186787809Y-78902191D01*
X186577765Y-78761843D01*
X186330000Y-78712560D01*
X184830000Y-78712560D01*
X184582235Y-78761843D01*
X184372191Y-78902191D01*
X184231843Y-79112235D01*
X184226279Y-79140209D01*
X184168327Y-79000301D01*
X183989698Y-78821673D01*
X183756309Y-78725000D01*
X183165750Y-78725000D01*
X183007000Y-78883750D01*
X183007000Y-79883000D01*
X183027000Y-79883000D01*
X183027000Y-80137000D01*
X183007000Y-80137000D01*
X183007000Y-81136250D01*
X183165750Y-81295000D01*
X183756309Y-81295000D01*
X183989698Y-81198327D01*
X184168327Y-81019699D01*
X184226279Y-80879791D01*
X184231843Y-80907765D01*
X184372191Y-81117809D01*
X184582235Y-81258157D01*
X184830000Y-81307440D01*
X186330000Y-81307440D01*
X186577765Y-81258157D01*
X186787809Y-81117809D01*
X186853163Y-81020000D01*
X187101018Y-81020000D01*
X187233191Y-81217809D01*
X187443235Y-81358157D01*
X187691000Y-81407440D01*
X188991000Y-81407440D01*
X189238765Y-81358157D01*
X189448809Y-81217809D01*
X189589157Y-81007765D01*
X189638440Y-80760000D01*
X189638440Y-79260000D01*
X189589157Y-79012235D01*
X189448809Y-78802191D01*
X189238765Y-78661843D01*
X189229500Y-78660000D01*
X189238765Y-78658157D01*
X189448809Y-78517809D01*
X189589157Y-78307765D01*
X189638440Y-78060000D01*
X189638440Y-76560000D01*
X189589157Y-76312235D01*
X189448809Y-76102191D01*
X189351000Y-76036837D01*
X189351000Y-75588440D01*
X189612000Y-75588440D01*
X189859765Y-75539157D01*
X190069809Y-75398809D01*
X190210157Y-75188765D01*
X190259440Y-74941000D01*
X190259440Y-74799000D01*
X193137018Y-74799000D01*
X193269191Y-74996809D01*
X193479235Y-75137157D01*
X193592001Y-75159587D01*
X193592001Y-75488835D01*
X193574663Y-75576000D01*
X193613560Y-75771552D01*
X193613560Y-76560000D01*
X193662843Y-76807765D01*
X193681041Y-76835000D01*
X193662843Y-76862235D01*
X193613560Y-77110000D01*
X193613560Y-77773408D01*
X193603348Y-77788691D01*
X193534663Y-78134000D01*
X193552001Y-78221165D01*
X193552001Y-78764413D01*
X193439235Y-78786843D01*
X193229191Y-78927191D01*
X193088843Y-79137235D01*
X193039560Y-79385000D01*
X193039560Y-80635000D01*
X193088843Y-80882765D01*
X193229191Y-81092809D01*
X193439235Y-81233157D01*
X193461001Y-81237486D01*
X193085488Y-81613000D01*
X179673772Y-81613000D01*
X179593999Y-81597132D01*
X179514226Y-81613000D01*
X179277954Y-81659997D01*
X179010023Y-81839023D01*
X178964834Y-81906653D01*
X178299654Y-82571834D01*
X178232024Y-82617023D01*
X178186835Y-82684653D01*
X178052998Y-82884954D01*
X178048609Y-82907019D01*
X177818235Y-82952843D01*
X177608191Y-83093191D01*
X177467843Y-83303235D01*
X177418560Y-83551000D01*
X177418560Y-84851000D01*
X177450834Y-85013255D01*
X172391425Y-79953847D01*
X172342049Y-79879951D01*
X172049310Y-79684348D01*
X171791165Y-79633000D01*
X171791161Y-79633000D01*
X171704000Y-79615663D01*
X171616839Y-79633000D01*
X169215656Y-79633000D01*
X169091625Y-79447375D01*
X168600418Y-79119161D01*
X168167256Y-79033000D01*
X167874744Y-79033000D01*
X167441582Y-79119161D01*
X166950375Y-79447375D01*
X166938184Y-79465619D01*
X166929157Y-79420235D01*
X166788809Y-79210191D01*
X166616000Y-79094723D01*
X166616000Y-67460440D01*
X167311000Y-67460440D01*
X167558765Y-67411157D01*
X167768809Y-67270809D01*
X167909157Y-67060765D01*
X167958440Y-66813000D01*
X167958440Y-65013000D01*
X168163560Y-65013000D01*
X168163560Y-66813000D01*
X168212843Y-67060765D01*
X168353191Y-67270809D01*
X168563235Y-67411157D01*
X168811000Y-67460440D01*
X169676000Y-67460440D01*
X169676001Y-69441560D01*
X169524000Y-69441560D01*
X169276235Y-69490843D01*
X169066191Y-69631191D01*
X168925843Y-69841235D01*
X168876560Y-70089000D01*
X168876560Y-71389000D01*
X168925843Y-71636765D01*
X169066191Y-71846809D01*
X169276235Y-71987157D01*
X169524000Y-72036440D01*
X171024000Y-72036440D01*
X171271765Y-71987157D01*
X171481809Y-71846809D01*
X171622157Y-71636765D01*
X171624000Y-71627500D01*
X171625843Y-71636765D01*
X171766191Y-71846809D01*
X171976235Y-71987157D01*
X172224000Y-72036440D01*
X173724000Y-72036440D01*
X173971765Y-71987157D01*
X174181809Y-71846809D01*
X174322157Y-71636765D01*
X174324696Y-71624000D01*
X174931628Y-71624000D01*
X174956843Y-71750765D01*
X175097191Y-71960809D01*
X175307235Y-72101157D01*
X175555000Y-72150440D01*
X175670000Y-72150440D01*
X175670001Y-72593560D01*
X175594000Y-72593560D01*
X175346235Y-72642843D01*
X175136191Y-72783191D01*
X174995843Y-72993235D01*
X174946560Y-73241000D01*
X174946560Y-74841000D01*
X174995843Y-75088765D01*
X175136191Y-75298809D01*
X175346235Y-75439157D01*
X175584000Y-75486451D01*
X175584001Y-81666550D01*
X175522000Y-81816234D01*
X175522000Y-82267766D01*
X175694793Y-82684926D01*
X176014074Y-83004207D01*
X176431234Y-83177000D01*
X176882766Y-83177000D01*
X177299926Y-83004207D01*
X177619207Y-82684926D01*
X177792000Y-82267766D01*
X177792000Y-81816234D01*
X177619207Y-81399074D01*
X177604000Y-81383867D01*
X177604000Y-80295750D01*
X181495000Y-80295750D01*
X181495000Y-80786310D01*
X181591673Y-81019699D01*
X181770302Y-81198327D01*
X182003691Y-81295000D01*
X182594250Y-81295000D01*
X182753000Y-81136250D01*
X182753000Y-80137000D01*
X181653750Y-80137000D01*
X181495000Y-80295750D01*
X177604000Y-80295750D01*
X177604000Y-79233690D01*
X181495000Y-79233690D01*
X181495000Y-79724250D01*
X181653750Y-79883000D01*
X182753000Y-79883000D01*
X182753000Y-78883750D01*
X182594250Y-78725000D01*
X182003691Y-78725000D01*
X181770302Y-78821673D01*
X181591673Y-79000301D01*
X181495000Y-79233690D01*
X177604000Y-79233690D01*
X177604000Y-75486451D01*
X177841765Y-75439157D01*
X178051809Y-75298809D01*
X178192157Y-75088765D01*
X178241440Y-74841000D01*
X178241440Y-74326750D01*
X178959000Y-74326750D01*
X178959000Y-74967310D01*
X179055673Y-75200699D01*
X179234302Y-75379327D01*
X179467691Y-75476000D01*
X180308250Y-75476000D01*
X180467000Y-75317250D01*
X180467000Y-74168000D01*
X180721000Y-74168000D01*
X180721000Y-75317250D01*
X180879750Y-75476000D01*
X181720309Y-75476000D01*
X181953698Y-75379327D01*
X182132327Y-75200699D01*
X182229000Y-74967310D01*
X182229000Y-74326750D01*
X182977000Y-74326750D01*
X182977000Y-75067310D01*
X183073673Y-75300699D01*
X183252302Y-75479327D01*
X183485691Y-75576000D01*
X184626250Y-75576000D01*
X184785000Y-75417250D01*
X184785000Y-74168000D01*
X183135750Y-74168000D01*
X182977000Y-74326750D01*
X182229000Y-74326750D01*
X182070250Y-74168000D01*
X180721000Y-74168000D01*
X180467000Y-74168000D01*
X179117750Y-74168000D01*
X178959000Y-74326750D01*
X178241440Y-74326750D01*
X178241440Y-73241000D01*
X178216316Y-73114690D01*
X178959000Y-73114690D01*
X178959000Y-73755250D01*
X179117750Y-73914000D01*
X180467000Y-73914000D01*
X180467000Y-72764750D01*
X180721000Y-72764750D01*
X180721000Y-73914000D01*
X182070250Y-73914000D01*
X182229000Y-73755250D01*
X182229000Y-73114690D01*
X182187579Y-73014690D01*
X182977000Y-73014690D01*
X182977000Y-73755250D01*
X183135750Y-73914000D01*
X184785000Y-73914000D01*
X184785000Y-72664750D01*
X184626250Y-72506000D01*
X183485691Y-72506000D01*
X183252302Y-72602673D01*
X183073673Y-72781301D01*
X182977000Y-73014690D01*
X182187579Y-73014690D01*
X182132327Y-72881301D01*
X181953698Y-72702673D01*
X181720309Y-72606000D01*
X180879750Y-72606000D01*
X180721000Y-72764750D01*
X180467000Y-72764750D01*
X180308250Y-72606000D01*
X179467691Y-72606000D01*
X179234302Y-72702673D01*
X179055673Y-72881301D01*
X178959000Y-73114690D01*
X178216316Y-73114690D01*
X178192157Y-72993235D01*
X178051809Y-72783191D01*
X177841765Y-72642843D01*
X177594000Y-72593560D01*
X177440000Y-72593560D01*
X177440000Y-72150440D01*
X177555000Y-72150440D01*
X177802765Y-72101157D01*
X178012809Y-71960809D01*
X178153157Y-71750765D01*
X178202440Y-71503000D01*
X178202440Y-70003000D01*
X178153157Y-69755235D01*
X178051436Y-69603000D01*
X178153157Y-69450765D01*
X178202440Y-69203000D01*
X178202440Y-67703000D01*
X178153157Y-67455235D01*
X178052073Y-67303953D01*
X178093327Y-67262699D01*
X178190000Y-67029310D01*
X178190000Y-66438750D01*
X178031250Y-66280000D01*
X176682000Y-66280000D01*
X176682000Y-66300000D01*
X176428000Y-66300000D01*
X176428000Y-66280000D01*
X175078750Y-66280000D01*
X174920000Y-66438750D01*
X174920000Y-67029310D01*
X175016673Y-67262699D01*
X175057927Y-67303953D01*
X174956843Y-67455235D01*
X174907560Y-67703000D01*
X174907560Y-69203000D01*
X174956843Y-69450765D01*
X175058564Y-69603000D01*
X174956843Y-69755235D01*
X174937198Y-69854000D01*
X174324696Y-69854000D01*
X174322157Y-69841235D01*
X174181809Y-69631191D01*
X173971765Y-69490843D01*
X173724000Y-69441560D01*
X172224000Y-69441560D01*
X171976235Y-69490843D01*
X171766191Y-69631191D01*
X171625843Y-69841235D01*
X171624000Y-69850500D01*
X171622157Y-69841235D01*
X171481809Y-69631191D01*
X171446000Y-69607264D01*
X171446000Y-67460440D01*
X172311000Y-67460440D01*
X172558765Y-67411157D01*
X172768809Y-67270809D01*
X172909157Y-67060765D01*
X172958440Y-66813000D01*
X172958440Y-65276690D01*
X174920000Y-65276690D01*
X174920000Y-65867250D01*
X175078750Y-66026000D01*
X176428000Y-66026000D01*
X176428000Y-64926750D01*
X176682000Y-64926750D01*
X176682000Y-66026000D01*
X178031250Y-66026000D01*
X178190000Y-65867250D01*
X178190000Y-65276690D01*
X178093327Y-65043301D01*
X177914698Y-64864673D01*
X177681309Y-64768000D01*
X176840750Y-64768000D01*
X176682000Y-64926750D01*
X176428000Y-64926750D01*
X176269250Y-64768000D01*
X175428691Y-64768000D01*
X175195302Y-64864673D01*
X175016673Y-65043301D01*
X174920000Y-65276690D01*
X172958440Y-65276690D01*
X172958440Y-65013000D01*
X172909157Y-64765235D01*
X172768809Y-64555191D01*
X172558765Y-64414843D01*
X172311000Y-64365560D01*
X168811000Y-64365560D01*
X168563235Y-64414843D01*
X168353191Y-64555191D01*
X168212843Y-64765235D01*
X168163560Y-65013000D01*
X167958440Y-65013000D01*
X167909157Y-64765235D01*
X167768809Y-64555191D01*
X167558765Y-64414843D01*
X167311000Y-64365560D01*
X163811000Y-64365560D01*
X163563235Y-64414843D01*
X163353191Y-64555191D01*
X163212843Y-64765235D01*
X163163560Y-65013000D01*
X163163560Y-66813000D01*
X163212843Y-67060765D01*
X163353191Y-67270809D01*
X163563235Y-67411157D01*
X163811000Y-67460440D01*
X164346001Y-67460440D01*
X164346000Y-79094723D01*
X164173191Y-79210191D01*
X164032843Y-79420235D01*
X163983560Y-79668000D01*
X163983560Y-81368000D01*
X164032843Y-81615765D01*
X164173191Y-81825809D01*
X164383235Y-81966157D01*
X164486708Y-81986739D01*
X164209355Y-82291076D01*
X164039524Y-82701110D01*
X164160845Y-82931000D01*
X165354000Y-82931000D01*
X165354000Y-82911000D01*
X165608000Y-82911000D01*
X165608000Y-82931000D01*
X165628000Y-82931000D01*
X165628000Y-83185000D01*
X165608000Y-83185000D01*
X165608000Y-85471000D01*
X165628000Y-85471000D01*
X165628000Y-85725000D01*
X165608000Y-85725000D01*
X165608000Y-88011000D01*
X165628000Y-88011000D01*
X165628000Y-88265000D01*
X165608000Y-88265000D01*
X165608000Y-90551000D01*
X167894000Y-90551000D01*
X167894000Y-90531000D01*
X168148000Y-90531000D01*
X168148000Y-90551000D01*
X169341155Y-90551000D01*
X169462476Y-90321110D01*
X169292645Y-89911076D01*
X168902358Y-89482817D01*
X168772522Y-89421843D01*
X169091625Y-89208625D01*
X169215656Y-89023000D01*
X172226422Y-89023000D01*
X174318577Y-91115156D01*
X174367951Y-91189049D01*
X174441844Y-91238423D01*
X174441845Y-91238424D01*
X174532824Y-91299214D01*
X174660690Y-91384652D01*
X174918835Y-91436000D01*
X174918839Y-91436000D01*
X175005999Y-91453337D01*
X175093159Y-91436000D01*
X180224913Y-91436000D01*
X179880720Y-91578569D01*
X179589569Y-91869720D01*
X179439569Y-92231852D01*
X179338422Y-92333000D01*
X169215656Y-92333000D01*
X169091625Y-92147375D01*
X168772522Y-91934157D01*
X168902358Y-91873183D01*
X169292645Y-91444924D01*
X169462476Y-91034890D01*
X169341155Y-90805000D01*
X168148000Y-90805000D01*
X168148000Y-90825000D01*
X167894000Y-90825000D01*
X167894000Y-90805000D01*
X165608000Y-90805000D01*
X165608000Y-90825000D01*
X165354000Y-90825000D01*
X165354000Y-90805000D01*
X164160845Y-90805000D01*
X164039524Y-91034890D01*
X164209355Y-91444924D01*
X164599642Y-91873183D01*
X164729478Y-91934157D01*
X164410375Y-92147375D01*
X164369867Y-92208000D01*
X162724355Y-92208000D01*
X162441837Y-91925482D01*
X162441835Y-91925481D01*
X162427000Y-91910646D01*
X162427000Y-88494890D01*
X164039524Y-88494890D01*
X164209355Y-88904924D01*
X164599642Y-89333183D01*
X164758954Y-89408000D01*
X164599642Y-89482817D01*
X164209355Y-89911076D01*
X164039524Y-90321110D01*
X164160845Y-90551000D01*
X165354000Y-90551000D01*
X165354000Y-88265000D01*
X164160845Y-88265000D01*
X164039524Y-88494890D01*
X162427000Y-88494890D01*
X162427000Y-85954890D01*
X164039524Y-85954890D01*
X164209355Y-86364924D01*
X164599642Y-86793183D01*
X164758954Y-86868000D01*
X164599642Y-86942817D01*
X164209355Y-87371076D01*
X164039524Y-87781110D01*
X164160845Y-88011000D01*
X165354000Y-88011000D01*
X165354000Y-85725000D01*
X164160845Y-85725000D01*
X164039524Y-85954890D01*
X162427000Y-85954890D01*
X162427000Y-83414890D01*
X164039524Y-83414890D01*
X164209355Y-83824924D01*
X164599642Y-84253183D01*
X164758954Y-84328000D01*
X164599642Y-84402817D01*
X164209355Y-84831076D01*
X164039524Y-85241110D01*
X164160845Y-85471000D01*
X165354000Y-85471000D01*
X165354000Y-83185000D01*
X164160845Y-83185000D01*
X164039524Y-83414890D01*
X162427000Y-83414890D01*
X162427000Y-65188355D01*
X163486356Y-64129000D01*
X179752645Y-64129000D01*
X181590002Y-65966357D01*
X181590002Y-65966357D01*
G37*
X181590002Y-65966357D02*
X181397191Y-66095191D01*
X181256843Y-66305235D01*
X181207560Y-66553000D01*
X181207560Y-70353000D01*
X181256843Y-70600765D01*
X181397191Y-70810809D01*
X181607235Y-70951157D01*
X181855000Y-71000440D01*
X183855000Y-71000440D01*
X184102765Y-70951157D01*
X184312809Y-70810809D01*
X184453157Y-70600765D01*
X184502440Y-70353000D01*
X184502440Y-69778795D01*
X187217204Y-72493560D01*
X187012000Y-72493560D01*
X186764235Y-72542843D01*
X186612953Y-72643927D01*
X186571698Y-72602673D01*
X186338309Y-72506000D01*
X185197750Y-72506000D01*
X185039000Y-72664750D01*
X185039000Y-73914000D01*
X185059000Y-73914000D01*
X185059000Y-74168000D01*
X185039000Y-74168000D01*
X185039000Y-75417250D01*
X185197750Y-75576000D01*
X186338309Y-75576000D01*
X186571698Y-75479327D01*
X186612953Y-75438073D01*
X186764235Y-75539157D01*
X187012000Y-75588440D01*
X187331001Y-75588440D01*
X187331000Y-76036836D01*
X187233191Y-76102191D01*
X187092843Y-76312235D01*
X187043560Y-76560000D01*
X187043560Y-78060000D01*
X187092843Y-78307765D01*
X187233191Y-78517809D01*
X187443235Y-78658157D01*
X187452500Y-78660000D01*
X187443235Y-78661843D01*
X187233191Y-78802191D01*
X187101018Y-79000000D01*
X186853163Y-79000000D01*
X186787809Y-78902191D01*
X186577765Y-78761843D01*
X186330000Y-78712560D01*
X184830000Y-78712560D01*
X184582235Y-78761843D01*
X184372191Y-78902191D01*
X184231843Y-79112235D01*
X184226279Y-79140209D01*
X184168327Y-79000301D01*
X183989698Y-78821673D01*
X183756309Y-78725000D01*
X183165750Y-78725000D01*
X183007000Y-78883750D01*
X183007000Y-79883000D01*
X183027000Y-79883000D01*
X183027000Y-80137000D01*
X183007000Y-80137000D01*
X183007000Y-81136250D01*
X183165750Y-81295000D01*
X183756309Y-81295000D01*
X183989698Y-81198327D01*
X184168327Y-81019699D01*
X184226279Y-80879791D01*
X184231843Y-80907765D01*
X184372191Y-81117809D01*
X184582235Y-81258157D01*
X184830000Y-81307440D01*
X186330000Y-81307440D01*
X186577765Y-81258157D01*
X186787809Y-81117809D01*
X186853163Y-81020000D01*
X187101018Y-81020000D01*
X187233191Y-81217809D01*
X187443235Y-81358157D01*
X187691000Y-81407440D01*
X188991000Y-81407440D01*
X189238765Y-81358157D01*
X189448809Y-81217809D01*
X189589157Y-81007765D01*
X189638440Y-80760000D01*
X189638440Y-79260000D01*
X189589157Y-79012235D01*
X189448809Y-78802191D01*
X189238765Y-78661843D01*
X189229500Y-78660000D01*
X189238765Y-78658157D01*
X189448809Y-78517809D01*
X189589157Y-78307765D01*
X189638440Y-78060000D01*
X189638440Y-76560000D01*
X189589157Y-76312235D01*
X189448809Y-76102191D01*
X189351000Y-76036837D01*
X189351000Y-75588440D01*
X189612000Y-75588440D01*
X189859765Y-75539157D01*
X190069809Y-75398809D01*
X190210157Y-75188765D01*
X190259440Y-74941000D01*
X190259440Y-74799000D01*
X193137018Y-74799000D01*
X193269191Y-74996809D01*
X193479235Y-75137157D01*
X193592001Y-75159587D01*
X193592001Y-75488835D01*
X193574663Y-75576000D01*
X193613560Y-75771552D01*
X193613560Y-76560000D01*
X193662843Y-76807765D01*
X193681041Y-76835000D01*
X193662843Y-76862235D01*
X193613560Y-77110000D01*
X193613560Y-77773408D01*
X193603348Y-77788691D01*
X193534663Y-78134000D01*
X193552001Y-78221165D01*
X193552001Y-78764413D01*
X193439235Y-78786843D01*
X193229191Y-78927191D01*
X193088843Y-79137235D01*
X193039560Y-79385000D01*
X193039560Y-80635000D01*
X193088843Y-80882765D01*
X193229191Y-81092809D01*
X193439235Y-81233157D01*
X193461001Y-81237486D01*
X193085488Y-81613000D01*
X179673772Y-81613000D01*
X179593999Y-81597132D01*
X179514226Y-81613000D01*
X179277954Y-81659997D01*
X179010023Y-81839023D01*
X178964834Y-81906653D01*
X178299654Y-82571834D01*
X178232024Y-82617023D01*
X178186835Y-82684653D01*
X178052998Y-82884954D01*
X178048609Y-82907019D01*
X177818235Y-82952843D01*
X177608191Y-83093191D01*
X177467843Y-83303235D01*
X177418560Y-83551000D01*
X177418560Y-84851000D01*
X177450834Y-85013255D01*
X172391425Y-79953847D01*
X172342049Y-79879951D01*
X172049310Y-79684348D01*
X171791165Y-79633000D01*
X171791161Y-79633000D01*
X171704000Y-79615663D01*
X171616839Y-79633000D01*
X169215656Y-79633000D01*
X169091625Y-79447375D01*
X168600418Y-79119161D01*
X168167256Y-79033000D01*
X167874744Y-79033000D01*
X167441582Y-79119161D01*
X166950375Y-79447375D01*
X166938184Y-79465619D01*
X166929157Y-79420235D01*
X166788809Y-79210191D01*
X166616000Y-79094723D01*
X166616000Y-67460440D01*
X167311000Y-67460440D01*
X167558765Y-67411157D01*
X167768809Y-67270809D01*
X167909157Y-67060765D01*
X167958440Y-66813000D01*
X167958440Y-65013000D01*
X168163560Y-65013000D01*
X168163560Y-66813000D01*
X168212843Y-67060765D01*
X168353191Y-67270809D01*
X168563235Y-67411157D01*
X168811000Y-67460440D01*
X169676000Y-67460440D01*
X169676001Y-69441560D01*
X169524000Y-69441560D01*
X169276235Y-69490843D01*
X169066191Y-69631191D01*
X168925843Y-69841235D01*
X168876560Y-70089000D01*
X168876560Y-71389000D01*
X168925843Y-71636765D01*
X169066191Y-71846809D01*
X169276235Y-71987157D01*
X169524000Y-72036440D01*
X171024000Y-72036440D01*
X171271765Y-71987157D01*
X171481809Y-71846809D01*
X171622157Y-71636765D01*
X171624000Y-71627500D01*
X171625843Y-71636765D01*
X171766191Y-71846809D01*
X171976235Y-71987157D01*
X172224000Y-72036440D01*
X173724000Y-72036440D01*
X173971765Y-71987157D01*
X174181809Y-71846809D01*
X174322157Y-71636765D01*
X174324696Y-71624000D01*
X174931628Y-71624000D01*
X174956843Y-71750765D01*
X175097191Y-71960809D01*
X175307235Y-72101157D01*
X175555000Y-72150440D01*
X175670000Y-72150440D01*
X175670001Y-72593560D01*
X175594000Y-72593560D01*
X175346235Y-72642843D01*
X175136191Y-72783191D01*
X174995843Y-72993235D01*
X174946560Y-73241000D01*
X174946560Y-74841000D01*
X174995843Y-75088765D01*
X175136191Y-75298809D01*
X175346235Y-75439157D01*
X175584000Y-75486451D01*
X175584001Y-81666550D01*
X175522000Y-81816234D01*
X175522000Y-82267766D01*
X175694793Y-82684926D01*
X176014074Y-83004207D01*
X176431234Y-83177000D01*
X176882766Y-83177000D01*
X177299926Y-83004207D01*
X177619207Y-82684926D01*
X177792000Y-82267766D01*
X177792000Y-81816234D01*
X177619207Y-81399074D01*
X177604000Y-81383867D01*
X177604000Y-80295750D01*
X181495000Y-80295750D01*
X181495000Y-80786310D01*
X181591673Y-81019699D01*
X181770302Y-81198327D01*
X182003691Y-81295000D01*
X182594250Y-81295000D01*
X182753000Y-81136250D01*
X182753000Y-80137000D01*
X181653750Y-80137000D01*
X181495000Y-80295750D01*
X177604000Y-80295750D01*
X177604000Y-79233690D01*
X181495000Y-79233690D01*
X181495000Y-79724250D01*
X181653750Y-79883000D01*
X182753000Y-79883000D01*
X182753000Y-78883750D01*
X182594250Y-78725000D01*
X182003691Y-78725000D01*
X181770302Y-78821673D01*
X181591673Y-79000301D01*
X181495000Y-79233690D01*
X177604000Y-79233690D01*
X177604000Y-75486451D01*
X177841765Y-75439157D01*
X178051809Y-75298809D01*
X178192157Y-75088765D01*
X178241440Y-74841000D01*
X178241440Y-74326750D01*
X178959000Y-74326750D01*
X178959000Y-74967310D01*
X179055673Y-75200699D01*
X179234302Y-75379327D01*
X179467691Y-75476000D01*
X180308250Y-75476000D01*
X180467000Y-75317250D01*
X180467000Y-74168000D01*
X180721000Y-74168000D01*
X180721000Y-75317250D01*
X180879750Y-75476000D01*
X181720309Y-75476000D01*
X181953698Y-75379327D01*
X182132327Y-75200699D01*
X182229000Y-74967310D01*
X182229000Y-74326750D01*
X182977000Y-74326750D01*
X182977000Y-75067310D01*
X183073673Y-75300699D01*
X183252302Y-75479327D01*
X183485691Y-75576000D01*
X184626250Y-75576000D01*
X184785000Y-75417250D01*
X184785000Y-74168000D01*
X183135750Y-74168000D01*
X182977000Y-74326750D01*
X182229000Y-74326750D01*
X182070250Y-74168000D01*
X180721000Y-74168000D01*
X180467000Y-74168000D01*
X179117750Y-74168000D01*
X178959000Y-74326750D01*
X178241440Y-74326750D01*
X178241440Y-73241000D01*
X178216316Y-73114690D01*
X178959000Y-73114690D01*
X178959000Y-73755250D01*
X179117750Y-73914000D01*
X180467000Y-73914000D01*
X180467000Y-72764750D01*
X180721000Y-72764750D01*
X180721000Y-73914000D01*
X182070250Y-73914000D01*
X182229000Y-73755250D01*
X182229000Y-73114690D01*
X182187579Y-73014690D01*
X182977000Y-73014690D01*
X182977000Y-73755250D01*
X183135750Y-73914000D01*
X184785000Y-73914000D01*
X184785000Y-72664750D01*
X184626250Y-72506000D01*
X183485691Y-72506000D01*
X183252302Y-72602673D01*
X183073673Y-72781301D01*
X182977000Y-73014690D01*
X182187579Y-73014690D01*
X182132327Y-72881301D01*
X181953698Y-72702673D01*
X181720309Y-72606000D01*
X180879750Y-72606000D01*
X180721000Y-72764750D01*
X180467000Y-72764750D01*
X180308250Y-72606000D01*
X179467691Y-72606000D01*
X179234302Y-72702673D01*
X179055673Y-72881301D01*
X178959000Y-73114690D01*
X178216316Y-73114690D01*
X178192157Y-72993235D01*
X178051809Y-72783191D01*
X177841765Y-72642843D01*
X177594000Y-72593560D01*
X177440000Y-72593560D01*
X177440000Y-72150440D01*
X177555000Y-72150440D01*
X177802765Y-72101157D01*
X178012809Y-71960809D01*
X178153157Y-71750765D01*
X178202440Y-71503000D01*
X178202440Y-70003000D01*
X178153157Y-69755235D01*
X178051436Y-69603000D01*
X178153157Y-69450765D01*
X178202440Y-69203000D01*
X178202440Y-67703000D01*
X178153157Y-67455235D01*
X178052073Y-67303953D01*
X178093327Y-67262699D01*
X178190000Y-67029310D01*
X178190000Y-66438750D01*
X178031250Y-66280000D01*
X176682000Y-66280000D01*
X176682000Y-66300000D01*
X176428000Y-66300000D01*
X176428000Y-66280000D01*
X175078750Y-66280000D01*
X174920000Y-66438750D01*
X174920000Y-67029310D01*
X175016673Y-67262699D01*
X175057927Y-67303953D01*
X174956843Y-67455235D01*
X174907560Y-67703000D01*
X174907560Y-69203000D01*
X174956843Y-69450765D01*
X175058564Y-69603000D01*
X174956843Y-69755235D01*
X174937198Y-69854000D01*
X174324696Y-69854000D01*
X174322157Y-69841235D01*
X174181809Y-69631191D01*
X173971765Y-69490843D01*
X173724000Y-69441560D01*
X172224000Y-69441560D01*
X171976235Y-69490843D01*
X171766191Y-69631191D01*
X171625843Y-69841235D01*
X171624000Y-69850500D01*
X171622157Y-69841235D01*
X171481809Y-69631191D01*
X171446000Y-69607264D01*
X171446000Y-67460440D01*
X172311000Y-67460440D01*
X172558765Y-67411157D01*
X172768809Y-67270809D01*
X172909157Y-67060765D01*
X172958440Y-66813000D01*
X172958440Y-65276690D01*
X174920000Y-65276690D01*
X174920000Y-65867250D01*
X175078750Y-66026000D01*
X176428000Y-66026000D01*
X176428000Y-64926750D01*
X176682000Y-64926750D01*
X176682000Y-66026000D01*
X178031250Y-66026000D01*
X178190000Y-65867250D01*
X178190000Y-65276690D01*
X178093327Y-65043301D01*
X177914698Y-64864673D01*
X177681309Y-64768000D01*
X176840750Y-64768000D01*
X176682000Y-64926750D01*
X176428000Y-64926750D01*
X176269250Y-64768000D01*
X175428691Y-64768000D01*
X175195302Y-64864673D01*
X175016673Y-65043301D01*
X174920000Y-65276690D01*
X172958440Y-65276690D01*
X172958440Y-65013000D01*
X172909157Y-64765235D01*
X172768809Y-64555191D01*
X172558765Y-64414843D01*
X172311000Y-64365560D01*
X168811000Y-64365560D01*
X168563235Y-64414843D01*
X168353191Y-64555191D01*
X168212843Y-64765235D01*
X168163560Y-65013000D01*
X167958440Y-65013000D01*
X167909157Y-64765235D01*
X167768809Y-64555191D01*
X167558765Y-64414843D01*
X167311000Y-64365560D01*
X163811000Y-64365560D01*
X163563235Y-64414843D01*
X163353191Y-64555191D01*
X163212843Y-64765235D01*
X163163560Y-65013000D01*
X163163560Y-66813000D01*
X163212843Y-67060765D01*
X163353191Y-67270809D01*
X163563235Y-67411157D01*
X163811000Y-67460440D01*
X164346001Y-67460440D01*
X164346000Y-79094723D01*
X164173191Y-79210191D01*
X164032843Y-79420235D01*
X163983560Y-79668000D01*
X163983560Y-81368000D01*
X164032843Y-81615765D01*
X164173191Y-81825809D01*
X164383235Y-81966157D01*
X164486708Y-81986739D01*
X164209355Y-82291076D01*
X164039524Y-82701110D01*
X164160845Y-82931000D01*
X165354000Y-82931000D01*
X165354000Y-82911000D01*
X165608000Y-82911000D01*
X165608000Y-82931000D01*
X165628000Y-82931000D01*
X165628000Y-83185000D01*
X165608000Y-83185000D01*
X165608000Y-85471000D01*
X165628000Y-85471000D01*
X165628000Y-85725000D01*
X165608000Y-85725000D01*
X165608000Y-88011000D01*
X165628000Y-88011000D01*
X165628000Y-88265000D01*
X165608000Y-88265000D01*
X165608000Y-90551000D01*
X167894000Y-90551000D01*
X167894000Y-90531000D01*
X168148000Y-90531000D01*
X168148000Y-90551000D01*
X169341155Y-90551000D01*
X169462476Y-90321110D01*
X169292645Y-89911076D01*
X168902358Y-89482817D01*
X168772522Y-89421843D01*
X169091625Y-89208625D01*
X169215656Y-89023000D01*
X172226422Y-89023000D01*
X174318577Y-91115156D01*
X174367951Y-91189049D01*
X174441844Y-91238423D01*
X174441845Y-91238424D01*
X174532824Y-91299214D01*
X174660690Y-91384652D01*
X174918835Y-91436000D01*
X174918839Y-91436000D01*
X175005999Y-91453337D01*
X175093159Y-91436000D01*
X180224913Y-91436000D01*
X179880720Y-91578569D01*
X179589569Y-91869720D01*
X179439569Y-92231852D01*
X179338422Y-92333000D01*
X169215656Y-92333000D01*
X169091625Y-92147375D01*
X168772522Y-91934157D01*
X168902358Y-91873183D01*
X169292645Y-91444924D01*
X169462476Y-91034890D01*
X169341155Y-90805000D01*
X168148000Y-90805000D01*
X168148000Y-90825000D01*
X167894000Y-90825000D01*
X167894000Y-90805000D01*
X165608000Y-90805000D01*
X165608000Y-90825000D01*
X165354000Y-90825000D01*
X165354000Y-90805000D01*
X164160845Y-90805000D01*
X164039524Y-91034890D01*
X164209355Y-91444924D01*
X164599642Y-91873183D01*
X164729478Y-91934157D01*
X164410375Y-92147375D01*
X164369867Y-92208000D01*
X162724355Y-92208000D01*
X162441837Y-91925482D01*
X162441835Y-91925481D01*
X162427000Y-91910646D01*
X162427000Y-88494890D01*
X164039524Y-88494890D01*
X164209355Y-88904924D01*
X164599642Y-89333183D01*
X164758954Y-89408000D01*
X164599642Y-89482817D01*
X164209355Y-89911076D01*
X164039524Y-90321110D01*
X164160845Y-90551000D01*
X165354000Y-90551000D01*
X165354000Y-88265000D01*
X164160845Y-88265000D01*
X164039524Y-88494890D01*
X162427000Y-88494890D01*
X162427000Y-85954890D01*
X164039524Y-85954890D01*
X164209355Y-86364924D01*
X164599642Y-86793183D01*
X164758954Y-86868000D01*
X164599642Y-86942817D01*
X164209355Y-87371076D01*
X164039524Y-87781110D01*
X164160845Y-88011000D01*
X165354000Y-88011000D01*
X165354000Y-85725000D01*
X164160845Y-85725000D01*
X164039524Y-85954890D01*
X162427000Y-85954890D01*
X162427000Y-83414890D01*
X164039524Y-83414890D01*
X164209355Y-83824924D01*
X164599642Y-84253183D01*
X164758954Y-84328000D01*
X164599642Y-84402817D01*
X164209355Y-84831076D01*
X164039524Y-85241110D01*
X164160845Y-85471000D01*
X165354000Y-85471000D01*
X165354000Y-83185000D01*
X164160845Y-83185000D01*
X164039524Y-83414890D01*
X162427000Y-83414890D01*
X162427000Y-65188355D01*
X163486356Y-64129000D01*
X179752645Y-64129000D01*
X181590002Y-65966357D01*
G36*
X207778000Y-85824355D02*
X207778001Y-88800525D01*
X207758214Y-88900000D01*
X207836602Y-89294082D01*
X208003482Y-89543837D01*
X208003485Y-89543840D01*
X208059832Y-89628169D01*
X208144161Y-89684516D01*
X209780341Y-91320696D01*
X209739191Y-91348191D01*
X209598843Y-91558235D01*
X209597000Y-91567500D01*
X209595157Y-91558235D01*
X209454809Y-91348191D01*
X209244765Y-91207843D01*
X208997000Y-91158560D01*
X207497000Y-91158560D01*
X207249235Y-91207843D01*
X207039191Y-91348191D01*
X206898843Y-91558235D01*
X206896304Y-91571000D01*
X206629849Y-91571000D01*
X206582157Y-91331235D01*
X206441809Y-91121191D01*
X206380680Y-91080346D01*
X206522327Y-90938698D01*
X206619000Y-90705309D01*
X206619000Y-90114750D01*
X206460250Y-89956000D01*
X205486000Y-89956000D01*
X205486000Y-89976000D01*
X205232000Y-89976000D01*
X205232000Y-89956000D01*
X205212000Y-89956000D01*
X205212000Y-89702000D01*
X205232000Y-89702000D01*
X205232000Y-88602750D01*
X205486000Y-88602750D01*
X205486000Y-89702000D01*
X206460250Y-89702000D01*
X206619000Y-89543250D01*
X206619000Y-88952691D01*
X206522327Y-88719302D01*
X206343699Y-88540673D01*
X206110310Y-88444000D01*
X205644750Y-88444000D01*
X205486000Y-88602750D01*
X205232000Y-88602750D01*
X205073250Y-88444000D01*
X204607690Y-88444000D01*
X204374301Y-88540673D01*
X204195673Y-88719302D01*
X204176699Y-88765108D01*
X204053809Y-88581191D01*
X203843765Y-88440843D01*
X203596000Y-88391560D01*
X203594483Y-88391560D01*
X203493929Y-88241071D01*
X203430473Y-88198671D01*
X202055000Y-86823199D01*
X202055000Y-86769854D01*
X202214690Y-86836000D01*
X202680250Y-86836000D01*
X202839000Y-86677250D01*
X202839000Y-85578000D01*
X203093000Y-85578000D01*
X203093000Y-86677250D01*
X203251750Y-86836000D01*
X203717310Y-86836000D01*
X203950699Y-86739327D01*
X203962000Y-86728026D01*
X203993301Y-86759327D01*
X204226690Y-86856000D01*
X204692250Y-86856000D01*
X204851000Y-86697250D01*
X204851000Y-85598000D01*
X205105000Y-85598000D01*
X205105000Y-86697250D01*
X205263750Y-86856000D01*
X205729310Y-86856000D01*
X205962699Y-86759327D01*
X206141327Y-86580698D01*
X206238000Y-86347309D01*
X206238000Y-85756750D01*
X206079250Y-85598000D01*
X205105000Y-85598000D01*
X204851000Y-85598000D01*
X204087250Y-85598000D01*
X204067250Y-85578000D01*
X203093000Y-85578000D01*
X202839000Y-85578000D01*
X202819000Y-85578000D01*
X202819000Y-85324000D01*
X202839000Y-85324000D01*
X202839000Y-85304000D01*
X203093000Y-85304000D01*
X203093000Y-85324000D01*
X203856750Y-85324000D01*
X203876750Y-85344000D01*
X204851000Y-85344000D01*
X204851000Y-85324000D01*
X205105000Y-85324000D01*
X205105000Y-85344000D01*
X206079250Y-85344000D01*
X206238000Y-85185250D01*
X206238000Y-84594691D01*
X206141327Y-84361302D01*
X205999680Y-84219654D01*
X206060809Y-84178809D01*
X206089506Y-84135861D01*
X207778000Y-85824355D01*
X207778000Y-85824355D01*
G37*
X207778000Y-85824355D02*
X207778001Y-88800525D01*
X207758214Y-88900000D01*
X207836602Y-89294082D01*
X208003482Y-89543837D01*
X208003485Y-89543840D01*
X208059832Y-89628169D01*
X208144161Y-89684516D01*
X209780341Y-91320696D01*
X209739191Y-91348191D01*
X209598843Y-91558235D01*
X209597000Y-91567500D01*
X209595157Y-91558235D01*
X209454809Y-91348191D01*
X209244765Y-91207843D01*
X208997000Y-91158560D01*
X207497000Y-91158560D01*
X207249235Y-91207843D01*
X207039191Y-91348191D01*
X206898843Y-91558235D01*
X206896304Y-91571000D01*
X206629849Y-91571000D01*
X206582157Y-91331235D01*
X206441809Y-91121191D01*
X206380680Y-91080346D01*
X206522327Y-90938698D01*
X206619000Y-90705309D01*
X206619000Y-90114750D01*
X206460250Y-89956000D01*
X205486000Y-89956000D01*
X205486000Y-89976000D01*
X205232000Y-89976000D01*
X205232000Y-89956000D01*
X205212000Y-89956000D01*
X205212000Y-89702000D01*
X205232000Y-89702000D01*
X205232000Y-88602750D01*
X205486000Y-88602750D01*
X205486000Y-89702000D01*
X206460250Y-89702000D01*
X206619000Y-89543250D01*
X206619000Y-88952691D01*
X206522327Y-88719302D01*
X206343699Y-88540673D01*
X206110310Y-88444000D01*
X205644750Y-88444000D01*
X205486000Y-88602750D01*
X205232000Y-88602750D01*
X205073250Y-88444000D01*
X204607690Y-88444000D01*
X204374301Y-88540673D01*
X204195673Y-88719302D01*
X204176699Y-88765108D01*
X204053809Y-88581191D01*
X203843765Y-88440843D01*
X203596000Y-88391560D01*
X203594483Y-88391560D01*
X203493929Y-88241071D01*
X203430473Y-88198671D01*
X202055000Y-86823199D01*
X202055000Y-86769854D01*
X202214690Y-86836000D01*
X202680250Y-86836000D01*
X202839000Y-86677250D01*
X202839000Y-85578000D01*
X203093000Y-85578000D01*
X203093000Y-86677250D01*
X203251750Y-86836000D01*
X203717310Y-86836000D01*
X203950699Y-86739327D01*
X203962000Y-86728026D01*
X203993301Y-86759327D01*
X204226690Y-86856000D01*
X204692250Y-86856000D01*
X204851000Y-86697250D01*
X204851000Y-85598000D01*
X205105000Y-85598000D01*
X205105000Y-86697250D01*
X205263750Y-86856000D01*
X205729310Y-86856000D01*
X205962699Y-86759327D01*
X206141327Y-86580698D01*
X206238000Y-86347309D01*
X206238000Y-85756750D01*
X206079250Y-85598000D01*
X205105000Y-85598000D01*
X204851000Y-85598000D01*
X204087250Y-85598000D01*
X204067250Y-85578000D01*
X203093000Y-85578000D01*
X202839000Y-85578000D01*
X202819000Y-85578000D01*
X202819000Y-85324000D01*
X202839000Y-85324000D01*
X202839000Y-85304000D01*
X203093000Y-85304000D01*
X203093000Y-85324000D01*
X203856750Y-85324000D01*
X203876750Y-85344000D01*
X204851000Y-85344000D01*
X204851000Y-85324000D01*
X205105000Y-85324000D01*
X205105000Y-85344000D01*
X206079250Y-85344000D01*
X206238000Y-85185250D01*
X206238000Y-84594691D01*
X206141327Y-84361302D01*
X205999680Y-84219654D01*
X206060809Y-84178809D01*
X206089506Y-84135861D01*
X207778000Y-85824355D01*
G36*
X208873370Y-78609473D02*
X208915770Y-78672929D01*
X209167162Y-78840904D01*
X209388847Y-78885000D01*
X209388852Y-78885000D01*
X209423937Y-78891979D01*
X209469843Y-79122765D01*
X209610191Y-79332809D01*
X209671320Y-79373654D01*
X209529673Y-79515302D01*
X209433000Y-79748691D01*
X209433000Y-80339250D01*
X209591750Y-80498000D01*
X210566000Y-80498000D01*
X210566000Y-80478000D01*
X210820000Y-80478000D01*
X210820000Y-80498000D01*
X212598000Y-80498000D01*
X212598000Y-80478000D01*
X212852000Y-80478000D01*
X212852000Y-80498000D01*
X213826250Y-80498000D01*
X213985000Y-80339250D01*
X213985000Y-79748691D01*
X213888327Y-79515302D01*
X213746680Y-79373654D01*
X213753646Y-79369000D01*
X215181837Y-79369000D01*
X215247191Y-79466809D01*
X215445001Y-79598982D01*
X215445001Y-79659525D01*
X215425214Y-79759000D01*
X215503602Y-80153082D01*
X215670482Y-80402837D01*
X215670485Y-80402840D01*
X215726832Y-80487169D01*
X215811161Y-80543516D01*
X217572482Y-82304837D01*
X217628831Y-82389169D01*
X217962918Y-82612399D01*
X218257524Y-82671000D01*
X218257528Y-82671000D01*
X218356999Y-82690786D01*
X218456470Y-82671000D01*
X221069645Y-82671000D01*
X223145000Y-84746356D01*
X223145001Y-91148643D01*
X222894645Y-91399000D01*
X214980982Y-91399000D01*
X214848809Y-91201191D01*
X214638765Y-91060843D01*
X214629500Y-91059000D01*
X214638765Y-91057157D01*
X214848809Y-90916809D01*
X214989157Y-90706765D01*
X215011587Y-90594000D01*
X215295391Y-90594000D01*
X215313843Y-90686765D01*
X215454191Y-90896809D01*
X215664235Y-91037157D01*
X215912000Y-91086440D01*
X217412000Y-91086440D01*
X217659765Y-91037157D01*
X217869809Y-90896809D01*
X218010157Y-90686765D01*
X218012000Y-90677500D01*
X218013843Y-90686765D01*
X218154191Y-90896809D01*
X218364235Y-91037157D01*
X218612000Y-91086440D01*
X220112000Y-91086440D01*
X220359765Y-91037157D01*
X220569809Y-90896809D01*
X220710157Y-90686765D01*
X220712696Y-90674000D01*
X221021867Y-90674000D01*
X221099074Y-90751207D01*
X221516234Y-90924000D01*
X221967766Y-90924000D01*
X222384926Y-90751207D01*
X222704207Y-90431926D01*
X222877000Y-90014766D01*
X222877000Y-89563234D01*
X222704207Y-89146074D01*
X222384926Y-88826793D01*
X221967766Y-88654000D01*
X221516234Y-88654000D01*
X221099074Y-88826793D01*
X221021867Y-88904000D01*
X220712696Y-88904000D01*
X220710157Y-88891235D01*
X220569809Y-88681191D01*
X220359765Y-88540843D01*
X220112000Y-88491560D01*
X218612000Y-88491560D01*
X218364235Y-88540843D01*
X218154191Y-88681191D01*
X218013843Y-88891235D01*
X218012000Y-88900500D01*
X218010157Y-88891235D01*
X217869809Y-88681191D01*
X217659765Y-88540843D01*
X217412000Y-88491560D01*
X215912000Y-88491560D01*
X215664235Y-88540843D01*
X215454191Y-88681191D01*
X215358768Y-88824000D01*
X215011587Y-88824000D01*
X214989157Y-88711235D01*
X214848809Y-88501191D01*
X214638765Y-88360843D01*
X214391000Y-88311560D01*
X213091000Y-88311560D01*
X212843235Y-88360843D01*
X212717000Y-88445191D01*
X212717000Y-88293234D01*
X212544207Y-87876074D01*
X212224926Y-87556793D01*
X211807766Y-87384000D01*
X211356234Y-87384000D01*
X210939074Y-87556793D01*
X210619793Y-87876074D01*
X210447000Y-88293234D01*
X210447000Y-88744766D01*
X210619793Y-89161926D01*
X210939074Y-89481207D01*
X211356234Y-89654000D01*
X211642198Y-89654000D01*
X212181671Y-90193473D01*
X212224071Y-90256929D01*
X212443560Y-90403587D01*
X212443560Y-90459000D01*
X212492843Y-90706765D01*
X212633191Y-90916809D01*
X212843235Y-91057157D01*
X212852500Y-91059000D01*
X212843235Y-91060843D01*
X212633191Y-91201191D01*
X212492843Y-91411235D01*
X212485928Y-91446000D01*
X212220163Y-91446000D01*
X212154809Y-91348191D01*
X211957000Y-91216018D01*
X211957000Y-91158470D01*
X211976786Y-91058999D01*
X211957000Y-90959528D01*
X211957000Y-90959524D01*
X211898399Y-90664918D01*
X211675169Y-90330831D01*
X211590838Y-90274483D01*
X209798000Y-88481645D01*
X209798000Y-87276440D01*
X211156000Y-87276440D01*
X211403765Y-87227157D01*
X211613809Y-87086809D01*
X211754157Y-86876765D01*
X211756000Y-86867500D01*
X211757843Y-86876765D01*
X211898191Y-87086809D01*
X212108235Y-87227157D01*
X212356000Y-87276440D01*
X213856000Y-87276440D01*
X214103765Y-87227157D01*
X214313809Y-87086809D01*
X214454157Y-86876765D01*
X214471614Y-86789000D01*
X214893495Y-86789000D01*
X214930843Y-86976765D01*
X215071191Y-87186809D01*
X215281235Y-87327157D01*
X215529000Y-87376440D01*
X216779000Y-87376440D01*
X217026765Y-87327157D01*
X217236809Y-87186809D01*
X217377157Y-86976765D01*
X217426440Y-86729000D01*
X217426440Y-85229000D01*
X217377157Y-84981235D01*
X217236809Y-84771191D01*
X217175680Y-84730346D01*
X217317327Y-84588698D01*
X217414000Y-84355309D01*
X217414000Y-83764750D01*
X217255250Y-83606000D01*
X216281000Y-83606000D01*
X216281000Y-83626000D01*
X216027000Y-83626000D01*
X216027000Y-83606000D01*
X215052750Y-83606000D01*
X214894000Y-83764750D01*
X214894000Y-84355309D01*
X214990673Y-84588698D01*
X215132320Y-84730346D01*
X215071191Y-84771191D01*
X214930843Y-84981235D01*
X214893495Y-85169000D01*
X214471614Y-85169000D01*
X214454157Y-85081235D01*
X214313809Y-84871191D01*
X214103765Y-84730843D01*
X213943678Y-84699000D01*
X213962309Y-84699000D01*
X214195698Y-84602327D01*
X214374327Y-84423699D01*
X214471000Y-84190310D01*
X214471000Y-83724750D01*
X214312250Y-83566000D01*
X213213000Y-83566000D01*
X213213000Y-83586000D01*
X212959000Y-83586000D01*
X212959000Y-83566000D01*
X212939000Y-83566000D01*
X212939000Y-83312000D01*
X212959000Y-83312000D01*
X212959000Y-82337750D01*
X213213000Y-82337750D01*
X213213000Y-83312000D01*
X214312250Y-83312000D01*
X214471000Y-83153250D01*
X214471000Y-82687690D01*
X214435793Y-82602691D01*
X214894000Y-82602691D01*
X214894000Y-83193250D01*
X215052750Y-83352000D01*
X216027000Y-83352000D01*
X216027000Y-82252750D01*
X216281000Y-82252750D01*
X216281000Y-83352000D01*
X217255250Y-83352000D01*
X217414000Y-83193250D01*
X217414000Y-82602691D01*
X217317327Y-82369302D01*
X217138699Y-82190673D01*
X216905310Y-82094000D01*
X216439750Y-82094000D01*
X216281000Y-82252750D01*
X216027000Y-82252750D01*
X215868250Y-82094000D01*
X215402690Y-82094000D01*
X215169301Y-82190673D01*
X214990673Y-82369302D01*
X214894000Y-82602691D01*
X214435793Y-82602691D01*
X214374327Y-82454301D01*
X214195698Y-82275673D01*
X213962309Y-82179000D01*
X213371750Y-82179000D01*
X213213000Y-82337750D01*
X212959000Y-82337750D01*
X212800250Y-82179000D01*
X212209691Y-82179000D01*
X211976302Y-82275673D01*
X211834654Y-82417320D01*
X211793809Y-82356191D01*
X211583765Y-82215843D01*
X211336000Y-82166560D01*
X209836000Y-82166560D01*
X209588235Y-82215843D01*
X209378191Y-82356191D01*
X209237843Y-82566235D01*
X209215413Y-82679000D01*
X208975802Y-82679000D01*
X208659000Y-82362199D01*
X208659000Y-80910750D01*
X209433000Y-80910750D01*
X209433000Y-81501309D01*
X209529673Y-81734698D01*
X209708301Y-81913327D01*
X209941690Y-82010000D01*
X210407250Y-82010000D01*
X210566000Y-81851250D01*
X210566000Y-80752000D01*
X210820000Y-80752000D01*
X210820000Y-81851250D01*
X210978750Y-82010000D01*
X211444310Y-82010000D01*
X211677699Y-81913327D01*
X211709000Y-81882026D01*
X211740301Y-81913327D01*
X211973690Y-82010000D01*
X212439250Y-82010000D01*
X212598000Y-81851250D01*
X212598000Y-80752000D01*
X212852000Y-80752000D01*
X212852000Y-81851250D01*
X213010750Y-82010000D01*
X213476310Y-82010000D01*
X213709699Y-81913327D01*
X213888327Y-81734698D01*
X213985000Y-81501309D01*
X213985000Y-80910750D01*
X213826250Y-80752000D01*
X212852000Y-80752000D01*
X212598000Y-80752000D01*
X210820000Y-80752000D01*
X210566000Y-80752000D01*
X209591750Y-80752000D01*
X209433000Y-80910750D01*
X208659000Y-80910750D01*
X208659000Y-80586711D01*
X208776431Y-80469280D01*
X208934000Y-80088874D01*
X208934000Y-79677126D01*
X208776431Y-79296720D01*
X208659000Y-79179289D01*
X208659000Y-78673747D01*
X208673888Y-78598900D01*
X208659000Y-78524053D01*
X208659000Y-78524048D01*
X208626982Y-78363085D01*
X208873370Y-78609473D01*
X208873370Y-78609473D01*
G37*
X208873370Y-78609473D02*
X208915770Y-78672929D01*
X209167162Y-78840904D01*
X209388847Y-78885000D01*
X209388852Y-78885000D01*
X209423937Y-78891979D01*
X209469843Y-79122765D01*
X209610191Y-79332809D01*
X209671320Y-79373654D01*
X209529673Y-79515302D01*
X209433000Y-79748691D01*
X209433000Y-80339250D01*
X209591750Y-80498000D01*
X210566000Y-80498000D01*
X210566000Y-80478000D01*
X210820000Y-80478000D01*
X210820000Y-80498000D01*
X212598000Y-80498000D01*
X212598000Y-80478000D01*
X212852000Y-80478000D01*
X212852000Y-80498000D01*
X213826250Y-80498000D01*
X213985000Y-80339250D01*
X213985000Y-79748691D01*
X213888327Y-79515302D01*
X213746680Y-79373654D01*
X213753646Y-79369000D01*
X215181837Y-79369000D01*
X215247191Y-79466809D01*
X215445001Y-79598982D01*
X215445001Y-79659525D01*
X215425214Y-79759000D01*
X215503602Y-80153082D01*
X215670482Y-80402837D01*
X215670485Y-80402840D01*
X215726832Y-80487169D01*
X215811161Y-80543516D01*
X217572482Y-82304837D01*
X217628831Y-82389169D01*
X217962918Y-82612399D01*
X218257524Y-82671000D01*
X218257528Y-82671000D01*
X218356999Y-82690786D01*
X218456470Y-82671000D01*
X221069645Y-82671000D01*
X223145000Y-84746356D01*
X223145001Y-91148643D01*
X222894645Y-91399000D01*
X214980982Y-91399000D01*
X214848809Y-91201191D01*
X214638765Y-91060843D01*
X214629500Y-91059000D01*
X214638765Y-91057157D01*
X214848809Y-90916809D01*
X214989157Y-90706765D01*
X215011587Y-90594000D01*
X215295391Y-90594000D01*
X215313843Y-90686765D01*
X215454191Y-90896809D01*
X215664235Y-91037157D01*
X215912000Y-91086440D01*
X217412000Y-91086440D01*
X217659765Y-91037157D01*
X217869809Y-90896809D01*
X218010157Y-90686765D01*
X218012000Y-90677500D01*
X218013843Y-90686765D01*
X218154191Y-90896809D01*
X218364235Y-91037157D01*
X218612000Y-91086440D01*
X220112000Y-91086440D01*
X220359765Y-91037157D01*
X220569809Y-90896809D01*
X220710157Y-90686765D01*
X220712696Y-90674000D01*
X221021867Y-90674000D01*
X221099074Y-90751207D01*
X221516234Y-90924000D01*
X221967766Y-90924000D01*
X222384926Y-90751207D01*
X222704207Y-90431926D01*
X222877000Y-90014766D01*
X222877000Y-89563234D01*
X222704207Y-89146074D01*
X222384926Y-88826793D01*
X221967766Y-88654000D01*
X221516234Y-88654000D01*
X221099074Y-88826793D01*
X221021867Y-88904000D01*
X220712696Y-88904000D01*
X220710157Y-88891235D01*
X220569809Y-88681191D01*
X220359765Y-88540843D01*
X220112000Y-88491560D01*
X218612000Y-88491560D01*
X218364235Y-88540843D01*
X218154191Y-88681191D01*
X218013843Y-88891235D01*
X218012000Y-88900500D01*
X218010157Y-88891235D01*
X217869809Y-88681191D01*
X217659765Y-88540843D01*
X217412000Y-88491560D01*
X215912000Y-88491560D01*
X215664235Y-88540843D01*
X215454191Y-88681191D01*
X215358768Y-88824000D01*
X215011587Y-88824000D01*
X214989157Y-88711235D01*
X214848809Y-88501191D01*
X214638765Y-88360843D01*
X214391000Y-88311560D01*
X213091000Y-88311560D01*
X212843235Y-88360843D01*
X212717000Y-88445191D01*
X212717000Y-88293234D01*
X212544207Y-87876074D01*
X212224926Y-87556793D01*
X211807766Y-87384000D01*
X211356234Y-87384000D01*
X210939074Y-87556793D01*
X210619793Y-87876074D01*
X210447000Y-88293234D01*
X210447000Y-88744766D01*
X210619793Y-89161926D01*
X210939074Y-89481207D01*
X211356234Y-89654000D01*
X211642198Y-89654000D01*
X212181671Y-90193473D01*
X212224071Y-90256929D01*
X212443560Y-90403587D01*
X212443560Y-90459000D01*
X212492843Y-90706765D01*
X212633191Y-90916809D01*
X212843235Y-91057157D01*
X212852500Y-91059000D01*
X212843235Y-91060843D01*
X212633191Y-91201191D01*
X212492843Y-91411235D01*
X212485928Y-91446000D01*
X212220163Y-91446000D01*
X212154809Y-91348191D01*
X211957000Y-91216018D01*
X211957000Y-91158470D01*
X211976786Y-91058999D01*
X211957000Y-90959528D01*
X211957000Y-90959524D01*
X211898399Y-90664918D01*
X211675169Y-90330831D01*
X211590838Y-90274483D01*
X209798000Y-88481645D01*
X209798000Y-87276440D01*
X211156000Y-87276440D01*
X211403765Y-87227157D01*
X211613809Y-87086809D01*
X211754157Y-86876765D01*
X211756000Y-86867500D01*
X211757843Y-86876765D01*
X211898191Y-87086809D01*
X212108235Y-87227157D01*
X212356000Y-87276440D01*
X213856000Y-87276440D01*
X214103765Y-87227157D01*
X214313809Y-87086809D01*
X214454157Y-86876765D01*
X214471614Y-86789000D01*
X214893495Y-86789000D01*
X214930843Y-86976765D01*
X215071191Y-87186809D01*
X215281235Y-87327157D01*
X215529000Y-87376440D01*
X216779000Y-87376440D01*
X217026765Y-87327157D01*
X217236809Y-87186809D01*
X217377157Y-86976765D01*
X217426440Y-86729000D01*
X217426440Y-85229000D01*
X217377157Y-84981235D01*
X217236809Y-84771191D01*
X217175680Y-84730346D01*
X217317327Y-84588698D01*
X217414000Y-84355309D01*
X217414000Y-83764750D01*
X217255250Y-83606000D01*
X216281000Y-83606000D01*
X216281000Y-83626000D01*
X216027000Y-83626000D01*
X216027000Y-83606000D01*
X215052750Y-83606000D01*
X214894000Y-83764750D01*
X214894000Y-84355309D01*
X214990673Y-84588698D01*
X215132320Y-84730346D01*
X215071191Y-84771191D01*
X214930843Y-84981235D01*
X214893495Y-85169000D01*
X214471614Y-85169000D01*
X214454157Y-85081235D01*
X214313809Y-84871191D01*
X214103765Y-84730843D01*
X213943678Y-84699000D01*
X213962309Y-84699000D01*
X214195698Y-84602327D01*
X214374327Y-84423699D01*
X214471000Y-84190310D01*
X214471000Y-83724750D01*
X214312250Y-83566000D01*
X213213000Y-83566000D01*
X213213000Y-83586000D01*
X212959000Y-83586000D01*
X212959000Y-83566000D01*
X212939000Y-83566000D01*
X212939000Y-83312000D01*
X212959000Y-83312000D01*
X212959000Y-82337750D01*
X213213000Y-82337750D01*
X213213000Y-83312000D01*
X214312250Y-83312000D01*
X214471000Y-83153250D01*
X214471000Y-82687690D01*
X214435793Y-82602691D01*
X214894000Y-82602691D01*
X214894000Y-83193250D01*
X215052750Y-83352000D01*
X216027000Y-83352000D01*
X216027000Y-82252750D01*
X216281000Y-82252750D01*
X216281000Y-83352000D01*
X217255250Y-83352000D01*
X217414000Y-83193250D01*
X217414000Y-82602691D01*
X217317327Y-82369302D01*
X217138699Y-82190673D01*
X216905310Y-82094000D01*
X216439750Y-82094000D01*
X216281000Y-82252750D01*
X216027000Y-82252750D01*
X215868250Y-82094000D01*
X215402690Y-82094000D01*
X215169301Y-82190673D01*
X214990673Y-82369302D01*
X214894000Y-82602691D01*
X214435793Y-82602691D01*
X214374327Y-82454301D01*
X214195698Y-82275673D01*
X213962309Y-82179000D01*
X213371750Y-82179000D01*
X213213000Y-82337750D01*
X212959000Y-82337750D01*
X212800250Y-82179000D01*
X212209691Y-82179000D01*
X211976302Y-82275673D01*
X211834654Y-82417320D01*
X211793809Y-82356191D01*
X211583765Y-82215843D01*
X211336000Y-82166560D01*
X209836000Y-82166560D01*
X209588235Y-82215843D01*
X209378191Y-82356191D01*
X209237843Y-82566235D01*
X209215413Y-82679000D01*
X208975802Y-82679000D01*
X208659000Y-82362199D01*
X208659000Y-80910750D01*
X209433000Y-80910750D01*
X209433000Y-81501309D01*
X209529673Y-81734698D01*
X209708301Y-81913327D01*
X209941690Y-82010000D01*
X210407250Y-82010000D01*
X210566000Y-81851250D01*
X210566000Y-80752000D01*
X210820000Y-80752000D01*
X210820000Y-81851250D01*
X210978750Y-82010000D01*
X211444310Y-82010000D01*
X211677699Y-81913327D01*
X211709000Y-81882026D01*
X211740301Y-81913327D01*
X211973690Y-82010000D01*
X212439250Y-82010000D01*
X212598000Y-81851250D01*
X212598000Y-80752000D01*
X212852000Y-80752000D01*
X212852000Y-81851250D01*
X213010750Y-82010000D01*
X213476310Y-82010000D01*
X213709699Y-81913327D01*
X213888327Y-81734698D01*
X213985000Y-81501309D01*
X213985000Y-80910750D01*
X213826250Y-80752000D01*
X212852000Y-80752000D01*
X212598000Y-80752000D01*
X210820000Y-80752000D01*
X210566000Y-80752000D01*
X209591750Y-80752000D01*
X209433000Y-80910750D01*
X208659000Y-80910750D01*
X208659000Y-80586711D01*
X208776431Y-80469280D01*
X208934000Y-80088874D01*
X208934000Y-79677126D01*
X208776431Y-79296720D01*
X208659000Y-79179289D01*
X208659000Y-78673747D01*
X208673888Y-78598900D01*
X208659000Y-78524053D01*
X208659000Y-78524048D01*
X208626982Y-78363085D01*
X208873370Y-78609473D01*
G36*
X205486000Y-75692000D02*
X205506000Y-75692000D01*
X205506000Y-75946000D01*
X205486000Y-75946000D01*
X205486000Y-75966000D01*
X205232000Y-75966000D01*
X205232000Y-75946000D01*
X205212000Y-75946000D01*
X205212000Y-75692000D01*
X205232000Y-75692000D01*
X205232000Y-75672000D01*
X205486000Y-75672000D01*
X205486000Y-75692000D01*
X205486000Y-75692000D01*
G37*
X205486000Y-75692000D02*
X205506000Y-75692000D01*
X205506000Y-75946000D01*
X205486000Y-75946000D01*
X205486000Y-75966000D01*
X205232000Y-75966000D01*
X205232000Y-75946000D01*
X205212000Y-75946000D01*
X205212000Y-75692000D01*
X205232000Y-75692000D01*
X205232000Y-75672000D01*
X205486000Y-75672000D01*
X205486000Y-75692000D01*
G36*
X223187843Y-67191765D02*
X223328191Y-67401809D01*
X223538235Y-67542157D01*
X223786000Y-67591440D01*
X225286000Y-67591440D01*
X225533765Y-67542157D01*
X225700122Y-67431000D01*
X225988018Y-67431000D01*
X226120191Y-67628809D01*
X226181320Y-67669654D01*
X226039673Y-67811302D01*
X225943000Y-68044691D01*
X225943000Y-68635250D01*
X226101750Y-68794000D01*
X227076000Y-68794000D01*
X227076000Y-68774000D01*
X227330000Y-68774000D01*
X227330000Y-68794000D01*
X228304250Y-68794000D01*
X228463000Y-68635250D01*
X228463000Y-68044691D01*
X228366327Y-67811302D01*
X228224680Y-67669654D01*
X228285809Y-67628809D01*
X228417982Y-67431000D01*
X229400974Y-67431000D01*
X229363673Y-67468301D01*
X229267000Y-67701690D01*
X229267000Y-68167250D01*
X229425750Y-68326000D01*
X230525000Y-68326000D01*
X230525000Y-68306000D01*
X230779000Y-68306000D01*
X230779000Y-68326000D01*
X230799000Y-68326000D01*
X230799000Y-68580000D01*
X230779000Y-68580000D01*
X230779000Y-69490750D01*
X230759000Y-69510750D01*
X230759000Y-70485000D01*
X230779000Y-70485000D01*
X230779000Y-70739000D01*
X230759000Y-70739000D01*
X230759000Y-71713250D01*
X230917750Y-71872000D01*
X231508309Y-71872000D01*
X231741698Y-71775327D01*
X231872000Y-71645025D01*
X231872001Y-71801163D01*
X231823843Y-71873235D01*
X231774560Y-72121000D01*
X231774560Y-73421000D01*
X231823843Y-73668765D01*
X231964191Y-73878809D01*
X232174235Y-74019157D01*
X232417576Y-74067560D01*
X232034000Y-74067560D01*
X231786235Y-74116843D01*
X231576191Y-74257191D01*
X231449948Y-74446126D01*
X231412327Y-74355301D01*
X231233698Y-74176673D01*
X231000309Y-74080000D01*
X230409750Y-74080000D01*
X230251000Y-74238750D01*
X230251000Y-74815000D01*
X230271000Y-74815000D01*
X230271000Y-74868750D01*
X230251000Y-74888750D01*
X230251000Y-75062000D01*
X229997000Y-75062000D01*
X229997000Y-74888750D01*
X229923250Y-74815000D01*
X229997000Y-74815000D01*
X229997000Y-74238750D01*
X229838250Y-74080000D01*
X229247691Y-74080000D01*
X229014302Y-74176673D01*
X228835673Y-74355301D01*
X228739000Y-74588690D01*
X228739000Y-74656250D01*
X228897750Y-74815000D01*
X229042483Y-74815000D01*
X229014302Y-74826673D01*
X228835673Y-75005301D01*
X228784920Y-75127830D01*
X228739000Y-75173750D01*
X228739000Y-75306250D01*
X228784920Y-75352170D01*
X228806803Y-75405000D01*
X228526625Y-75405000D01*
X228511157Y-75327235D01*
X228370809Y-75117191D01*
X228160765Y-74976843D01*
X227913000Y-74927560D01*
X226413000Y-74927560D01*
X226165235Y-74976843D01*
X225955191Y-75117191D01*
X225913000Y-75180334D01*
X225870809Y-75117191D01*
X225660765Y-74976843D01*
X225413000Y-74927560D01*
X225200479Y-74927560D01*
X225433765Y-74881157D01*
X225643809Y-74740809D01*
X225784157Y-74530765D01*
X225833440Y-74283000D01*
X225833440Y-72783000D01*
X225784157Y-72535235D01*
X225643809Y-72325191D01*
X225433765Y-72184843D01*
X225405791Y-72179279D01*
X225545699Y-72121327D01*
X225724327Y-71942698D01*
X225821000Y-71709309D01*
X225821000Y-71118750D01*
X225662250Y-70960000D01*
X224663000Y-70960000D01*
X224663000Y-70980000D01*
X224409000Y-70980000D01*
X224409000Y-70960000D01*
X223409750Y-70960000D01*
X223251000Y-71118750D01*
X223251000Y-71709309D01*
X223347673Y-71942698D01*
X223526301Y-72121327D01*
X223666209Y-72179279D01*
X223638235Y-72184843D01*
X223428191Y-72325191D01*
X223287843Y-72535235D01*
X223238560Y-72783000D01*
X223238560Y-73158000D01*
X223085459Y-73158000D01*
X223036809Y-73085191D01*
X222826765Y-72944843D01*
X222579000Y-72895560D01*
X221079000Y-72895560D01*
X220831235Y-72944843D01*
X220621191Y-73085191D01*
X220579000Y-73148334D01*
X220536809Y-73085191D01*
X220427461Y-73012127D01*
X220472440Y-72786000D01*
X220472440Y-71486000D01*
X220423157Y-71238235D01*
X220282809Y-71028191D01*
X220087592Y-70897750D01*
X229247000Y-70897750D01*
X229247000Y-71363310D01*
X229343673Y-71596699D01*
X229522302Y-71775327D01*
X229755691Y-71872000D01*
X230346250Y-71872000D01*
X230505000Y-71713250D01*
X230505000Y-70739000D01*
X229405750Y-70739000D01*
X229247000Y-70897750D01*
X220087592Y-70897750D01*
X220072765Y-70887843D01*
X219825000Y-70838560D01*
X218325000Y-70838560D01*
X218077235Y-70887843D01*
X217867191Y-71028191D01*
X217726843Y-71238235D01*
X217725000Y-71247500D01*
X217723157Y-71238235D01*
X217582809Y-71028191D01*
X217485311Y-70963044D01*
X218223355Y-70225000D01*
X220215529Y-70225000D01*
X220315000Y-70244786D01*
X220414471Y-70225000D01*
X220414476Y-70225000D01*
X220709082Y-70166399D01*
X221022931Y-69956691D01*
X223251000Y-69956691D01*
X223251000Y-70547250D01*
X223409750Y-70706000D01*
X224409000Y-70706000D01*
X224409000Y-69606750D01*
X224663000Y-69606750D01*
X224663000Y-70706000D01*
X225662250Y-70706000D01*
X225821000Y-70547250D01*
X225821000Y-69956691D01*
X225724327Y-69723302D01*
X225545699Y-69544673D01*
X225312310Y-69448000D01*
X224821750Y-69448000D01*
X224663000Y-69606750D01*
X224409000Y-69606750D01*
X224250250Y-69448000D01*
X223759690Y-69448000D01*
X223526301Y-69544673D01*
X223347673Y-69723302D01*
X223251000Y-69956691D01*
X221022931Y-69956691D01*
X221043169Y-69943169D01*
X221099518Y-69858838D01*
X221751606Y-69206750D01*
X225943000Y-69206750D01*
X225943000Y-69797309D01*
X226039673Y-70030698D01*
X226218301Y-70209327D01*
X226451690Y-70306000D01*
X226917250Y-70306000D01*
X227076000Y-70147250D01*
X227076000Y-69048000D01*
X227330000Y-69048000D01*
X227330000Y-70147250D01*
X227488750Y-70306000D01*
X227954310Y-70306000D01*
X228187699Y-70209327D01*
X228366327Y-70030698D01*
X228436746Y-69860690D01*
X229247000Y-69860690D01*
X229247000Y-70326250D01*
X229405750Y-70485000D01*
X230505000Y-70485000D01*
X230505000Y-69574250D01*
X230525000Y-69554250D01*
X230525000Y-68580000D01*
X229425750Y-68580000D01*
X229267000Y-68738750D01*
X229267000Y-69204310D01*
X229363673Y-69437699D01*
X229448475Y-69522500D01*
X229343673Y-69627301D01*
X229247000Y-69860690D01*
X228436746Y-69860690D01*
X228463000Y-69797309D01*
X228463000Y-69206750D01*
X228304250Y-69048000D01*
X227330000Y-69048000D01*
X227076000Y-69048000D01*
X226101750Y-69048000D01*
X225943000Y-69206750D01*
X221751606Y-69206750D01*
X222479840Y-68478516D01*
X222564169Y-68422169D01*
X222620516Y-68337840D01*
X222620518Y-68337838D01*
X222787398Y-68088083D01*
X222787399Y-68088082D01*
X222846000Y-67793476D01*
X222846000Y-67793471D01*
X222865786Y-67694000D01*
X222846000Y-67594529D01*
X222846000Y-67533982D01*
X223043809Y-67401809D01*
X223184157Y-67191765D01*
X223186000Y-67182500D01*
X223187843Y-67191765D01*
X223187843Y-67191765D01*
G37*
X223187843Y-67191765D02*
X223328191Y-67401809D01*
X223538235Y-67542157D01*
X223786000Y-67591440D01*
X225286000Y-67591440D01*
X225533765Y-67542157D01*
X225700122Y-67431000D01*
X225988018Y-67431000D01*
X226120191Y-67628809D01*
X226181320Y-67669654D01*
X226039673Y-67811302D01*
X225943000Y-68044691D01*
X225943000Y-68635250D01*
X226101750Y-68794000D01*
X227076000Y-68794000D01*
X227076000Y-68774000D01*
X227330000Y-68774000D01*
X227330000Y-68794000D01*
X228304250Y-68794000D01*
X228463000Y-68635250D01*
X228463000Y-68044691D01*
X228366327Y-67811302D01*
X228224680Y-67669654D01*
X228285809Y-67628809D01*
X228417982Y-67431000D01*
X229400974Y-67431000D01*
X229363673Y-67468301D01*
X229267000Y-67701690D01*
X229267000Y-68167250D01*
X229425750Y-68326000D01*
X230525000Y-68326000D01*
X230525000Y-68306000D01*
X230779000Y-68306000D01*
X230779000Y-68326000D01*
X230799000Y-68326000D01*
X230799000Y-68580000D01*
X230779000Y-68580000D01*
X230779000Y-69490750D01*
X230759000Y-69510750D01*
X230759000Y-70485000D01*
X230779000Y-70485000D01*
X230779000Y-70739000D01*
X230759000Y-70739000D01*
X230759000Y-71713250D01*
X230917750Y-71872000D01*
X231508309Y-71872000D01*
X231741698Y-71775327D01*
X231872000Y-71645025D01*
X231872001Y-71801163D01*
X231823843Y-71873235D01*
X231774560Y-72121000D01*
X231774560Y-73421000D01*
X231823843Y-73668765D01*
X231964191Y-73878809D01*
X232174235Y-74019157D01*
X232417576Y-74067560D01*
X232034000Y-74067560D01*
X231786235Y-74116843D01*
X231576191Y-74257191D01*
X231449948Y-74446126D01*
X231412327Y-74355301D01*
X231233698Y-74176673D01*
X231000309Y-74080000D01*
X230409750Y-74080000D01*
X230251000Y-74238750D01*
X230251000Y-74815000D01*
X230271000Y-74815000D01*
X230271000Y-74868750D01*
X230251000Y-74888750D01*
X230251000Y-75062000D01*
X229997000Y-75062000D01*
X229997000Y-74888750D01*
X229923250Y-74815000D01*
X229997000Y-74815000D01*
X229997000Y-74238750D01*
X229838250Y-74080000D01*
X229247691Y-74080000D01*
X229014302Y-74176673D01*
X228835673Y-74355301D01*
X228739000Y-74588690D01*
X228739000Y-74656250D01*
X228897750Y-74815000D01*
X229042483Y-74815000D01*
X229014302Y-74826673D01*
X228835673Y-75005301D01*
X228784920Y-75127830D01*
X228739000Y-75173750D01*
X228739000Y-75306250D01*
X228784920Y-75352170D01*
X228806803Y-75405000D01*
X228526625Y-75405000D01*
X228511157Y-75327235D01*
X228370809Y-75117191D01*
X228160765Y-74976843D01*
X227913000Y-74927560D01*
X226413000Y-74927560D01*
X226165235Y-74976843D01*
X225955191Y-75117191D01*
X225913000Y-75180334D01*
X225870809Y-75117191D01*
X225660765Y-74976843D01*
X225413000Y-74927560D01*
X225200479Y-74927560D01*
X225433765Y-74881157D01*
X225643809Y-74740809D01*
X225784157Y-74530765D01*
X225833440Y-74283000D01*
X225833440Y-72783000D01*
X225784157Y-72535235D01*
X225643809Y-72325191D01*
X225433765Y-72184843D01*
X225405791Y-72179279D01*
X225545699Y-72121327D01*
X225724327Y-71942698D01*
X225821000Y-71709309D01*
X225821000Y-71118750D01*
X225662250Y-70960000D01*
X224663000Y-70960000D01*
X224663000Y-70980000D01*
X224409000Y-70980000D01*
X224409000Y-70960000D01*
X223409750Y-70960000D01*
X223251000Y-71118750D01*
X223251000Y-71709309D01*
X223347673Y-71942698D01*
X223526301Y-72121327D01*
X223666209Y-72179279D01*
X223638235Y-72184843D01*
X223428191Y-72325191D01*
X223287843Y-72535235D01*
X223238560Y-72783000D01*
X223238560Y-73158000D01*
X223085459Y-73158000D01*
X223036809Y-73085191D01*
X222826765Y-72944843D01*
X222579000Y-72895560D01*
X221079000Y-72895560D01*
X220831235Y-72944843D01*
X220621191Y-73085191D01*
X220579000Y-73148334D01*
X220536809Y-73085191D01*
X220427461Y-73012127D01*
X220472440Y-72786000D01*
X220472440Y-71486000D01*
X220423157Y-71238235D01*
X220282809Y-71028191D01*
X220087592Y-70897750D01*
X229247000Y-70897750D01*
X229247000Y-71363310D01*
X229343673Y-71596699D01*
X229522302Y-71775327D01*
X229755691Y-71872000D01*
X230346250Y-71872000D01*
X230505000Y-71713250D01*
X230505000Y-70739000D01*
X229405750Y-70739000D01*
X229247000Y-70897750D01*
X220087592Y-70897750D01*
X220072765Y-70887843D01*
X219825000Y-70838560D01*
X218325000Y-70838560D01*
X218077235Y-70887843D01*
X217867191Y-71028191D01*
X217726843Y-71238235D01*
X217725000Y-71247500D01*
X217723157Y-71238235D01*
X217582809Y-71028191D01*
X217485311Y-70963044D01*
X218223355Y-70225000D01*
X220215529Y-70225000D01*
X220315000Y-70244786D01*
X220414471Y-70225000D01*
X220414476Y-70225000D01*
X220709082Y-70166399D01*
X221022931Y-69956691D01*
X223251000Y-69956691D01*
X223251000Y-70547250D01*
X223409750Y-70706000D01*
X224409000Y-70706000D01*
X224409000Y-69606750D01*
X224663000Y-69606750D01*
X224663000Y-70706000D01*
X225662250Y-70706000D01*
X225821000Y-70547250D01*
X225821000Y-69956691D01*
X225724327Y-69723302D01*
X225545699Y-69544673D01*
X225312310Y-69448000D01*
X224821750Y-69448000D01*
X224663000Y-69606750D01*
X224409000Y-69606750D01*
X224250250Y-69448000D01*
X223759690Y-69448000D01*
X223526301Y-69544673D01*
X223347673Y-69723302D01*
X223251000Y-69956691D01*
X221022931Y-69956691D01*
X221043169Y-69943169D01*
X221099518Y-69858838D01*
X221751606Y-69206750D01*
X225943000Y-69206750D01*
X225943000Y-69797309D01*
X226039673Y-70030698D01*
X226218301Y-70209327D01*
X226451690Y-70306000D01*
X226917250Y-70306000D01*
X227076000Y-70147250D01*
X227076000Y-69048000D01*
X227330000Y-69048000D01*
X227330000Y-70147250D01*
X227488750Y-70306000D01*
X227954310Y-70306000D01*
X228187699Y-70209327D01*
X228366327Y-70030698D01*
X228436746Y-69860690D01*
X229247000Y-69860690D01*
X229247000Y-70326250D01*
X229405750Y-70485000D01*
X230505000Y-70485000D01*
X230505000Y-69574250D01*
X230525000Y-69554250D01*
X230525000Y-68580000D01*
X229425750Y-68580000D01*
X229267000Y-68738750D01*
X229267000Y-69204310D01*
X229363673Y-69437699D01*
X229448475Y-69522500D01*
X229343673Y-69627301D01*
X229247000Y-69860690D01*
X228436746Y-69860690D01*
X228463000Y-69797309D01*
X228463000Y-69206750D01*
X228304250Y-69048000D01*
X227330000Y-69048000D01*
X227076000Y-69048000D01*
X226101750Y-69048000D01*
X225943000Y-69206750D01*
X221751606Y-69206750D01*
X222479840Y-68478516D01*
X222564169Y-68422169D01*
X222620516Y-68337840D01*
X222620518Y-68337838D01*
X222787398Y-68088083D01*
X222787399Y-68088082D01*
X222846000Y-67793476D01*
X222846000Y-67793471D01*
X222865786Y-67694000D01*
X222846000Y-67594529D01*
X222846000Y-67533982D01*
X223043809Y-67401809D01*
X223184157Y-67191765D01*
X223186000Y-67182500D01*
X223187843Y-67191765D01*
G36*
X210965235Y-65045843D02*
X210755191Y-65186191D01*
X210614843Y-65396235D01*
X210587440Y-65534000D01*
X210519846Y-65534000D01*
X210444999Y-65519112D01*
X210370152Y-65534000D01*
X210370148Y-65534000D01*
X210148463Y-65578096D01*
X210148461Y-65578097D01*
X210148462Y-65578097D01*
X209960526Y-65703671D01*
X209960524Y-65703673D01*
X209897071Y-65746071D01*
X209854673Y-65809524D01*
X209444969Y-66219229D01*
X209279765Y-66108843D01*
X209032000Y-66059560D01*
X207782000Y-66059560D01*
X207534235Y-66108843D01*
X207324191Y-66249191D01*
X207183843Y-66459235D01*
X207134560Y-66707000D01*
X207134560Y-66729142D01*
X207074463Y-66741096D01*
X207018523Y-66778474D01*
X206886526Y-66866671D01*
X206886524Y-66866673D01*
X206823071Y-66909071D01*
X206780673Y-66972525D01*
X206273724Y-67479474D01*
X206231250Y-67437000D01*
X205232000Y-67437000D01*
X205232000Y-67457000D01*
X204978000Y-67457000D01*
X204978000Y-67437000D01*
X203978750Y-67437000D01*
X203978500Y-67437250D01*
X203945250Y-67404000D01*
X202946000Y-67404000D01*
X202946000Y-67424000D01*
X202692000Y-67424000D01*
X202692000Y-67404000D01*
X201692750Y-67404000D01*
X201659500Y-67437250D01*
X201659250Y-67437000D01*
X200660000Y-67437000D01*
X200660000Y-67457000D01*
X200406000Y-67457000D01*
X200406000Y-67437000D01*
X198501000Y-67437000D01*
X198501000Y-67457000D01*
X198247000Y-67457000D01*
X198247000Y-67437000D01*
X198227000Y-67437000D01*
X198227000Y-67183000D01*
X198247000Y-67183000D01*
X198247000Y-66083750D01*
X198501000Y-66083750D01*
X198501000Y-67183000D01*
X200406000Y-67183000D01*
X200406000Y-66083750D01*
X200660000Y-66083750D01*
X200660000Y-67183000D01*
X201659250Y-67183000D01*
X201692500Y-67149750D01*
X201692750Y-67150000D01*
X202692000Y-67150000D01*
X202692000Y-66050750D01*
X202946000Y-66050750D01*
X202946000Y-67150000D01*
X203945250Y-67150000D01*
X203945500Y-67149750D01*
X203978750Y-67183000D01*
X204978000Y-67183000D01*
X204978000Y-66083750D01*
X205232000Y-66083750D01*
X205232000Y-67183000D01*
X206231250Y-67183000D01*
X206390000Y-67024250D01*
X206390000Y-66433691D01*
X206293327Y-66200302D01*
X206114699Y-66021673D01*
X205881310Y-65925000D01*
X205390750Y-65925000D01*
X205232000Y-66083750D01*
X204978000Y-66083750D01*
X204819250Y-65925000D01*
X204328690Y-65925000D01*
X204095301Y-66021673D01*
X203978500Y-66138475D01*
X203828699Y-65988673D01*
X203595310Y-65892000D01*
X203104750Y-65892000D01*
X202946000Y-66050750D01*
X202692000Y-66050750D01*
X202533250Y-65892000D01*
X202042690Y-65892000D01*
X201809301Y-65988673D01*
X201659500Y-66138475D01*
X201542699Y-66021673D01*
X201309310Y-65925000D01*
X200818750Y-65925000D01*
X200660000Y-66083750D01*
X200406000Y-66083750D01*
X200247250Y-65925000D01*
X199756690Y-65925000D01*
X199523301Y-66021673D01*
X199453500Y-66091474D01*
X199383699Y-66021673D01*
X199150310Y-65925000D01*
X198659750Y-65925000D01*
X198501000Y-66083750D01*
X198247000Y-66083750D01*
X198088250Y-65925000D01*
X197597690Y-65925000D01*
X197364301Y-66021673D01*
X197185673Y-66200302D01*
X197130508Y-66333482D01*
X197072699Y-66275673D01*
X196839310Y-66179000D01*
X196373750Y-66179000D01*
X196215000Y-66337750D01*
X196215000Y-67437000D01*
X196235000Y-67437000D01*
X196235000Y-67691000D01*
X196215000Y-67691000D01*
X196215000Y-67711000D01*
X195961000Y-67711000D01*
X195961000Y-67691000D01*
X195941000Y-67691000D01*
X195941000Y-67437000D01*
X195961000Y-67437000D01*
X195961000Y-66337750D01*
X195802250Y-66179000D01*
X195336690Y-66179000D01*
X195103301Y-66275673D01*
X195017960Y-66361014D01*
X194990327Y-66294302D01*
X194811699Y-66115673D01*
X194578310Y-66019000D01*
X194087750Y-66019000D01*
X193929000Y-66177750D01*
X193929000Y-67277000D01*
X193949000Y-67277000D01*
X193949000Y-67531000D01*
X193929000Y-67531000D01*
X193929000Y-67551000D01*
X193675000Y-67551000D01*
X193675000Y-67531000D01*
X192675750Y-67531000D01*
X192517000Y-67689750D01*
X192517000Y-68280309D01*
X192613673Y-68513698D01*
X192792301Y-68692327D01*
X192932209Y-68750279D01*
X192904235Y-68755843D01*
X192694191Y-68896191D01*
X192553843Y-69106235D01*
X192504560Y-69354000D01*
X192504560Y-70854000D01*
X192553843Y-71101765D01*
X192694191Y-71311809D01*
X192904235Y-71452157D01*
X193048360Y-71480825D01*
X193086096Y-71670536D01*
X193254071Y-71921929D01*
X193317530Y-71964331D01*
X193973670Y-72620472D01*
X193987761Y-72641560D01*
X193727000Y-72641560D01*
X193479235Y-72690843D01*
X193269191Y-72831191D01*
X193137018Y-73029000D01*
X190237162Y-73029000D01*
X190210157Y-72893235D01*
X190069809Y-72683191D01*
X189859765Y-72542843D01*
X189612000Y-72493560D01*
X189322000Y-72493560D01*
X189322000Y-72259471D01*
X189341786Y-72160000D01*
X189322000Y-72060529D01*
X189322000Y-72060524D01*
X189263399Y-71765918D01*
X189213411Y-71691105D01*
X189096518Y-71516162D01*
X189096516Y-71516160D01*
X189040169Y-71431831D01*
X188955841Y-71375485D01*
X185389518Y-67809163D01*
X185333169Y-67724831D01*
X184999082Y-67501601D01*
X184704476Y-67443000D01*
X184704471Y-67443000D01*
X184605000Y-67423214D01*
X184505529Y-67443000D01*
X184502440Y-67443000D01*
X184502440Y-66553000D01*
X184497406Y-66527691D01*
X192517000Y-66527691D01*
X192517000Y-67118250D01*
X192675750Y-67277000D01*
X193675000Y-67277000D01*
X193675000Y-66177750D01*
X193516250Y-66019000D01*
X193025690Y-66019000D01*
X192792301Y-66115673D01*
X192613673Y-66294302D01*
X192517000Y-66527691D01*
X184497406Y-66527691D01*
X184453157Y-66305235D01*
X184312809Y-66095191D01*
X184119998Y-65966357D01*
X185068355Y-65018000D01*
X211105213Y-65018000D01*
X210965235Y-65045843D01*
X210965235Y-65045843D01*
G37*
X210965235Y-65045843D02*
X210755191Y-65186191D01*
X210614843Y-65396235D01*
X210587440Y-65534000D01*
X210519846Y-65534000D01*
X210444999Y-65519112D01*
X210370152Y-65534000D01*
X210370148Y-65534000D01*
X210148463Y-65578096D01*
X210148461Y-65578097D01*
X210148462Y-65578097D01*
X209960526Y-65703671D01*
X209960524Y-65703673D01*
X209897071Y-65746071D01*
X209854673Y-65809524D01*
X209444969Y-66219229D01*
X209279765Y-66108843D01*
X209032000Y-66059560D01*
X207782000Y-66059560D01*
X207534235Y-66108843D01*
X207324191Y-66249191D01*
X207183843Y-66459235D01*
X207134560Y-66707000D01*
X207134560Y-66729142D01*
X207074463Y-66741096D01*
X207018523Y-66778474D01*
X206886526Y-66866671D01*
X206886524Y-66866673D01*
X206823071Y-66909071D01*
X206780673Y-66972525D01*
X206273724Y-67479474D01*
X206231250Y-67437000D01*
X205232000Y-67437000D01*
X205232000Y-67457000D01*
X204978000Y-67457000D01*
X204978000Y-67437000D01*
X203978750Y-67437000D01*
X203978500Y-67437250D01*
X203945250Y-67404000D01*
X202946000Y-67404000D01*
X202946000Y-67424000D01*
X202692000Y-67424000D01*
X202692000Y-67404000D01*
X201692750Y-67404000D01*
X201659500Y-67437250D01*
X201659250Y-67437000D01*
X200660000Y-67437000D01*
X200660000Y-67457000D01*
X200406000Y-67457000D01*
X200406000Y-67437000D01*
X198501000Y-67437000D01*
X198501000Y-67457000D01*
X198247000Y-67457000D01*
X198247000Y-67437000D01*
X198227000Y-67437000D01*
X198227000Y-67183000D01*
X198247000Y-67183000D01*
X198247000Y-66083750D01*
X198501000Y-66083750D01*
X198501000Y-67183000D01*
X200406000Y-67183000D01*
X200406000Y-66083750D01*
X200660000Y-66083750D01*
X200660000Y-67183000D01*
X201659250Y-67183000D01*
X201692500Y-67149750D01*
X201692750Y-67150000D01*
X202692000Y-67150000D01*
X202692000Y-66050750D01*
X202946000Y-66050750D01*
X202946000Y-67150000D01*
X203945250Y-67150000D01*
X203945500Y-67149750D01*
X203978750Y-67183000D01*
X204978000Y-67183000D01*
X204978000Y-66083750D01*
X205232000Y-66083750D01*
X205232000Y-67183000D01*
X206231250Y-67183000D01*
X206390000Y-67024250D01*
X206390000Y-66433691D01*
X206293327Y-66200302D01*
X206114699Y-66021673D01*
X205881310Y-65925000D01*
X205390750Y-65925000D01*
X205232000Y-66083750D01*
X204978000Y-66083750D01*
X204819250Y-65925000D01*
X204328690Y-65925000D01*
X204095301Y-66021673D01*
X203978500Y-66138475D01*
X203828699Y-65988673D01*
X203595310Y-65892000D01*
X203104750Y-65892000D01*
X202946000Y-66050750D01*
X202692000Y-66050750D01*
X202533250Y-65892000D01*
X202042690Y-65892000D01*
X201809301Y-65988673D01*
X201659500Y-66138475D01*
X201542699Y-66021673D01*
X201309310Y-65925000D01*
X200818750Y-65925000D01*
X200660000Y-66083750D01*
X200406000Y-66083750D01*
X200247250Y-65925000D01*
X199756690Y-65925000D01*
X199523301Y-66021673D01*
X199453500Y-66091474D01*
X199383699Y-66021673D01*
X199150310Y-65925000D01*
X198659750Y-65925000D01*
X198501000Y-66083750D01*
X198247000Y-66083750D01*
X198088250Y-65925000D01*
X197597690Y-65925000D01*
X197364301Y-66021673D01*
X197185673Y-66200302D01*
X197130508Y-66333482D01*
X197072699Y-66275673D01*
X196839310Y-66179000D01*
X196373750Y-66179000D01*
X196215000Y-66337750D01*
X196215000Y-67437000D01*
X196235000Y-67437000D01*
X196235000Y-67691000D01*
X196215000Y-67691000D01*
X196215000Y-67711000D01*
X195961000Y-67711000D01*
X195961000Y-67691000D01*
X195941000Y-67691000D01*
X195941000Y-67437000D01*
X195961000Y-67437000D01*
X195961000Y-66337750D01*
X195802250Y-66179000D01*
X195336690Y-66179000D01*
X195103301Y-66275673D01*
X195017960Y-66361014D01*
X194990327Y-66294302D01*
X194811699Y-66115673D01*
X194578310Y-66019000D01*
X194087750Y-66019000D01*
X193929000Y-66177750D01*
X193929000Y-67277000D01*
X193949000Y-67277000D01*
X193949000Y-67531000D01*
X193929000Y-67531000D01*
X193929000Y-67551000D01*
X193675000Y-67551000D01*
X193675000Y-67531000D01*
X192675750Y-67531000D01*
X192517000Y-67689750D01*
X192517000Y-68280309D01*
X192613673Y-68513698D01*
X192792301Y-68692327D01*
X192932209Y-68750279D01*
X192904235Y-68755843D01*
X192694191Y-68896191D01*
X192553843Y-69106235D01*
X192504560Y-69354000D01*
X192504560Y-70854000D01*
X192553843Y-71101765D01*
X192694191Y-71311809D01*
X192904235Y-71452157D01*
X193048360Y-71480825D01*
X193086096Y-71670536D01*
X193254071Y-71921929D01*
X193317530Y-71964331D01*
X193973670Y-72620472D01*
X193987761Y-72641560D01*
X193727000Y-72641560D01*
X193479235Y-72690843D01*
X193269191Y-72831191D01*
X193137018Y-73029000D01*
X190237162Y-73029000D01*
X190210157Y-72893235D01*
X190069809Y-72683191D01*
X189859765Y-72542843D01*
X189612000Y-72493560D01*
X189322000Y-72493560D01*
X189322000Y-72259471D01*
X189341786Y-72160000D01*
X189322000Y-72060529D01*
X189322000Y-72060524D01*
X189263399Y-71765918D01*
X189213411Y-71691105D01*
X189096518Y-71516162D01*
X189096516Y-71516160D01*
X189040169Y-71431831D01*
X188955841Y-71375485D01*
X185389518Y-67809163D01*
X185333169Y-67724831D01*
X184999082Y-67501601D01*
X184704476Y-67443000D01*
X184704471Y-67443000D01*
X184605000Y-67423214D01*
X184505529Y-67443000D01*
X184502440Y-67443000D01*
X184502440Y-66553000D01*
X184497406Y-66527691D01*
X192517000Y-66527691D01*
X192517000Y-67118250D01*
X192675750Y-67277000D01*
X193675000Y-67277000D01*
X193675000Y-66177750D01*
X193516250Y-66019000D01*
X193025690Y-66019000D01*
X192792301Y-66115673D01*
X192613673Y-66294302D01*
X192517000Y-66527691D01*
X184497406Y-66527691D01*
X184453157Y-66305235D01*
X184312809Y-66095191D01*
X184119998Y-65966357D01*
X185068355Y-65018000D01*
X211105213Y-65018000D01*
X210965235Y-65045843D01*
G36*
X220671139Y-65157494D02*
X220628191Y-65186191D01*
X220487843Y-65396235D01*
X220438560Y-65644000D01*
X220438560Y-66944000D01*
X220487843Y-67191765D01*
X220628191Y-67401809D01*
X220671138Y-67430506D01*
X219896645Y-68205000D01*
X217904470Y-68205000D01*
X217804999Y-68185214D01*
X217705528Y-68205000D01*
X217705524Y-68205000D01*
X217410918Y-68263601D01*
X217076831Y-68486831D01*
X217020482Y-68571163D01*
X215731163Y-69860482D01*
X215646831Y-69916831D01*
X215590483Y-70001162D01*
X215590482Y-70001163D01*
X215556797Y-70051576D01*
X215423601Y-70250919D01*
X215365000Y-70545525D01*
X215365000Y-70545529D01*
X215345214Y-70645000D01*
X215365000Y-70744471D01*
X215365000Y-70896018D01*
X215167191Y-71028191D01*
X215026843Y-71238235D01*
X214977560Y-71486000D01*
X214977560Y-71487000D01*
X214066982Y-71487000D01*
X213934809Y-71289191D01*
X213873680Y-71248346D01*
X214015327Y-71106698D01*
X214112000Y-70873309D01*
X214112000Y-70282750D01*
X213953250Y-70124000D01*
X212979000Y-70124000D01*
X212979000Y-70144000D01*
X212725000Y-70144000D01*
X212725000Y-70124000D01*
X211750750Y-70124000D01*
X211730750Y-70144000D01*
X210820000Y-70144000D01*
X210820000Y-70164000D01*
X210566000Y-70164000D01*
X210566000Y-70144000D01*
X209591750Y-70144000D01*
X209580000Y-70155750D01*
X209508250Y-70084000D01*
X208534000Y-70084000D01*
X208534000Y-71183250D01*
X208692750Y-71342000D01*
X209158310Y-71342000D01*
X209391699Y-71245327D01*
X209524007Y-71113019D01*
X209529673Y-71126698D01*
X209671320Y-71268346D01*
X209610191Y-71309191D01*
X209469843Y-71519235D01*
X209422549Y-71757000D01*
X208975748Y-71757000D01*
X208900900Y-71742112D01*
X208826052Y-71757000D01*
X208826048Y-71757000D01*
X208652505Y-71791520D01*
X208604362Y-71801096D01*
X208446989Y-71906250D01*
X208352971Y-71969071D01*
X208310571Y-72032527D01*
X207389000Y-72954099D01*
X207389000Y-71212026D01*
X207422301Y-71245327D01*
X207655690Y-71342000D01*
X208121250Y-71342000D01*
X208280000Y-71183250D01*
X208280000Y-70084000D01*
X208260000Y-70084000D01*
X208260000Y-69830000D01*
X208280000Y-69830000D01*
X208280000Y-69810000D01*
X208534000Y-69810000D01*
X208534000Y-69830000D01*
X209508250Y-69830000D01*
X209520000Y-69818250D01*
X209591750Y-69890000D01*
X210566000Y-69890000D01*
X210566000Y-68790750D01*
X210820000Y-68790750D01*
X210820000Y-69890000D01*
X211794250Y-69890000D01*
X211814250Y-69870000D01*
X212725000Y-69870000D01*
X212725000Y-68770750D01*
X212979000Y-68770750D01*
X212979000Y-69870000D01*
X213953250Y-69870000D01*
X214112000Y-69711250D01*
X214112000Y-69120691D01*
X214015327Y-68887302D01*
X213836699Y-68708673D01*
X213603310Y-68612000D01*
X213137750Y-68612000D01*
X212979000Y-68770750D01*
X212725000Y-68770750D01*
X212566250Y-68612000D01*
X212100690Y-68612000D01*
X211867301Y-68708673D01*
X211762500Y-68813475D01*
X211677699Y-68728673D01*
X211444310Y-68632000D01*
X210978750Y-68632000D01*
X210820000Y-68790750D01*
X210566000Y-68790750D01*
X210407250Y-68632000D01*
X209941690Y-68632000D01*
X209708301Y-68728673D01*
X209575993Y-68860981D01*
X209570327Y-68847302D01*
X209428680Y-68705654D01*
X209489809Y-68664809D01*
X209630157Y-68454765D01*
X209679440Y-68207000D01*
X209679440Y-68105483D01*
X209829929Y-68004929D01*
X209872331Y-67941470D01*
X210617725Y-67196078D01*
X210755191Y-67401809D01*
X210965235Y-67542157D01*
X211213000Y-67591440D01*
X212713000Y-67591440D01*
X212960765Y-67542157D01*
X213170809Y-67401809D01*
X213311157Y-67191765D01*
X213313000Y-67182500D01*
X213314843Y-67191765D01*
X213455191Y-67401809D01*
X213665235Y-67542157D01*
X213913000Y-67591440D01*
X215413000Y-67591440D01*
X215660765Y-67542157D01*
X215870809Y-67401809D01*
X216011157Y-67191765D01*
X216028614Y-67104000D01*
X216516289Y-67104000D01*
X216583720Y-67171431D01*
X216964126Y-67329000D01*
X217375874Y-67329000D01*
X217756280Y-67171431D01*
X218047431Y-66880280D01*
X218205000Y-66499874D01*
X218205000Y-66088126D01*
X218047431Y-65707720D01*
X217756280Y-65416569D01*
X217375874Y-65259000D01*
X216964126Y-65259000D01*
X216583720Y-65416569D01*
X216516289Y-65484000D01*
X216028614Y-65484000D01*
X216011157Y-65396235D01*
X215870809Y-65186191D01*
X215660765Y-65045843D01*
X215520787Y-65018000D01*
X220531645Y-65018000D01*
X220671139Y-65157494D01*
X220671139Y-65157494D01*
G37*
X220671139Y-65157494D02*
X220628191Y-65186191D01*
X220487843Y-65396235D01*
X220438560Y-65644000D01*
X220438560Y-66944000D01*
X220487843Y-67191765D01*
X220628191Y-67401809D01*
X220671138Y-67430506D01*
X219896645Y-68205000D01*
X217904470Y-68205000D01*
X217804999Y-68185214D01*
X217705528Y-68205000D01*
X217705524Y-68205000D01*
X217410918Y-68263601D01*
X217076831Y-68486831D01*
X217020482Y-68571163D01*
X215731163Y-69860482D01*
X215646831Y-69916831D01*
X215590483Y-70001162D01*
X215590482Y-70001163D01*
X215556797Y-70051576D01*
X215423601Y-70250919D01*
X215365000Y-70545525D01*
X215365000Y-70545529D01*
X215345214Y-70645000D01*
X215365000Y-70744471D01*
X215365000Y-70896018D01*
X215167191Y-71028191D01*
X215026843Y-71238235D01*
X214977560Y-71486000D01*
X214977560Y-71487000D01*
X214066982Y-71487000D01*
X213934809Y-71289191D01*
X213873680Y-71248346D01*
X214015327Y-71106698D01*
X214112000Y-70873309D01*
X214112000Y-70282750D01*
X213953250Y-70124000D01*
X212979000Y-70124000D01*
X212979000Y-70144000D01*
X212725000Y-70144000D01*
X212725000Y-70124000D01*
X211750750Y-70124000D01*
X211730750Y-70144000D01*
X210820000Y-70144000D01*
X210820000Y-70164000D01*
X210566000Y-70164000D01*
X210566000Y-70144000D01*
X209591750Y-70144000D01*
X209580000Y-70155750D01*
X209508250Y-70084000D01*
X208534000Y-70084000D01*
X208534000Y-71183250D01*
X208692750Y-71342000D01*
X209158310Y-71342000D01*
X209391699Y-71245327D01*
X209524007Y-71113019D01*
X209529673Y-71126698D01*
X209671320Y-71268346D01*
X209610191Y-71309191D01*
X209469843Y-71519235D01*
X209422549Y-71757000D01*
X208975748Y-71757000D01*
X208900900Y-71742112D01*
X208826052Y-71757000D01*
X208826048Y-71757000D01*
X208652505Y-71791520D01*
X208604362Y-71801096D01*
X208446989Y-71906250D01*
X208352971Y-71969071D01*
X208310571Y-72032527D01*
X207389000Y-72954099D01*
X207389000Y-71212026D01*
X207422301Y-71245327D01*
X207655690Y-71342000D01*
X208121250Y-71342000D01*
X208280000Y-71183250D01*
X208280000Y-70084000D01*
X208260000Y-70084000D01*
X208260000Y-69830000D01*
X208280000Y-69830000D01*
X208280000Y-69810000D01*
X208534000Y-69810000D01*
X208534000Y-69830000D01*
X209508250Y-69830000D01*
X209520000Y-69818250D01*
X209591750Y-69890000D01*
X210566000Y-69890000D01*
X210566000Y-68790750D01*
X210820000Y-68790750D01*
X210820000Y-69890000D01*
X211794250Y-69890000D01*
X211814250Y-69870000D01*
X212725000Y-69870000D01*
X212725000Y-68770750D01*
X212979000Y-68770750D01*
X212979000Y-69870000D01*
X213953250Y-69870000D01*
X214112000Y-69711250D01*
X214112000Y-69120691D01*
X214015327Y-68887302D01*
X213836699Y-68708673D01*
X213603310Y-68612000D01*
X213137750Y-68612000D01*
X212979000Y-68770750D01*
X212725000Y-68770750D01*
X212566250Y-68612000D01*
X212100690Y-68612000D01*
X211867301Y-68708673D01*
X211762500Y-68813475D01*
X211677699Y-68728673D01*
X211444310Y-68632000D01*
X210978750Y-68632000D01*
X210820000Y-68790750D01*
X210566000Y-68790750D01*
X210407250Y-68632000D01*
X209941690Y-68632000D01*
X209708301Y-68728673D01*
X209575993Y-68860981D01*
X209570327Y-68847302D01*
X209428680Y-68705654D01*
X209489809Y-68664809D01*
X209630157Y-68454765D01*
X209679440Y-68207000D01*
X209679440Y-68105483D01*
X209829929Y-68004929D01*
X209872331Y-67941470D01*
X210617725Y-67196078D01*
X210755191Y-67401809D01*
X210965235Y-67542157D01*
X211213000Y-67591440D01*
X212713000Y-67591440D01*
X212960765Y-67542157D01*
X213170809Y-67401809D01*
X213311157Y-67191765D01*
X213313000Y-67182500D01*
X213314843Y-67191765D01*
X213455191Y-67401809D01*
X213665235Y-67542157D01*
X213913000Y-67591440D01*
X215413000Y-67591440D01*
X215660765Y-67542157D01*
X215870809Y-67401809D01*
X216011157Y-67191765D01*
X216028614Y-67104000D01*
X216516289Y-67104000D01*
X216583720Y-67171431D01*
X216964126Y-67329000D01*
X217375874Y-67329000D01*
X217756280Y-67171431D01*
X218047431Y-66880280D01*
X218205000Y-66499874D01*
X218205000Y-66088126D01*
X218047431Y-65707720D01*
X217756280Y-65416569D01*
X217375874Y-65259000D01*
X216964126Y-65259000D01*
X216583720Y-65416569D01*
X216516289Y-65484000D01*
X216028614Y-65484000D01*
X216011157Y-65396235D01*
X215870809Y-65186191D01*
X215660765Y-65045843D01*
X215520787Y-65018000D01*
X220531645Y-65018000D01*
X220671139Y-65157494D01*
M02*
