M48
INCH,TZ
T1C0.0157
T2C0.0236
T3C0.0315
T4C0.0394
%
G90
G05
T1
X63400Y-38550
X63450Y-24100
X64975Y-38550
X65025Y-24100
X66550Y-38550
X66600Y-24100
X68124Y-38550
X68174Y-24100
X69699Y-38550
X69749Y-24100
X71050Y-36400
X71274Y-38550
X71324Y-24100
X72849Y-38550
X72899Y-24100
X74424Y-38550
X74474Y-24100
X75998Y-38550
X76048Y-24100
X76300Y-25800
X76300Y-36400
X77200Y-25800
X77573Y-38550
X77623Y-24100
X78100Y-25800
X78950Y-25800
X79148Y-38550
X79198Y-24100
X79850Y-25800
X80600Y-29600
X80600Y-30100
X80723Y-38550
X80750Y-25800
X80773Y-24100
X81100Y-29600
X81100Y-30100
X81850Y-31450
X82298Y-38550
X82300Y-31700
X82348Y-24100
X82950Y-26800
X83800Y-26800
X83872Y-38550
X83922Y-24100
X84600Y-26800
X84600Y-27550
X85447Y-38550
X85497Y-24100
X85500Y-26100
X87022Y-38550
X87050Y-27800
X87050Y-28350
X87072Y-24100
X87650Y-27800
X87650Y-28350
X87700Y-31050
X87700Y-31837
X88487Y-31050
X88487Y-31837
X88487Y-32625
X88597Y-38550
X88647Y-24100
X89275Y-31050
X89275Y-31837
X89275Y-32625
X89350Y-27900
X89350Y-28450
X89350Y-28950
X90050Y-27900
X90050Y-28450
X90050Y-28950
X90062Y-31050
X90062Y-31837
X90062Y-32625
X90172Y-38550
X90222Y-24100
X90800Y-28450
X90800Y-28950
X90850Y-31050
X90850Y-31837
X90850Y-32625
X91650Y-30600
X91650Y-31387
X91650Y-32175
X91650Y-32962
X91650Y-33750
X91746Y-38550
X91796Y-24100
X92437Y-30600
X92437Y-31387
X92437Y-32175
X92437Y-32962
X92437Y-33750
X93225Y-25300
X93225Y-26087
X93225Y-26875
X93225Y-27662
X93225Y-30600
X93225Y-31387
X93225Y-32175
X93225Y-32962
X93225Y-33750
X93321Y-38550
X93371Y-24100
X94012Y-25300
X94012Y-26087
X94012Y-26875
X94012Y-27662
X94012Y-28450
X94012Y-30600
X94012Y-31387
X94012Y-32175
X94012Y-32962
X94012Y-33750
X94800Y-25300
X94800Y-26087
X94800Y-26875
X94800Y-27662
X94800Y-28450
X94800Y-30600
X94800Y-31387
X94800Y-32175
X94800Y-32962
X94800Y-33750
X94896Y-38550
X94946Y-24100
X96471Y-38550
X96521Y-24100
T2
X78650Y-35350
X81350Y-32150
X83300Y-34850
X87300Y-35350
T3
X69550Y-32300
X69950Y-37250
X70750Y-26000
X70750Y-26750
X70750Y-27550
X71100Y-30250
X71100Y-31450
X71900Y-30250
X72800Y-30250
X73750Y-33550
X73750Y-35150
X73750Y-37250
X75850Y-33250
X76750Y-33250
X77200Y-32550
X77600Y-33250
X80700Y-34450
X81450Y-34100
X84600Y-31750
X86150Y-33000
X86150Y-33950
X87050Y-33000
X87050Y-33950
T4
X65150Y-31700
X65150Y-32700
X65150Y-33700
X65150Y-34700
X65150Y-35700
X65150Y-36700
X66150Y-31700
X66150Y-32700
X66150Y-33700
X66150Y-34700
X66150Y-35700
X66150Y-36700
T0
M30
