G04 #@! TF.GenerationSoftware,KiCad,Pcbnew,(5.0.0-rc2-dev-311-g1dd4af297)*
G04 #@! TF.CreationDate,2018-06-18T13:27:12-07:00*
G04 #@! TF.ProjectId,beacon_pll,626561636F6E5F706C6C2E6B69636164,rev?*
G04 #@! TF.SameCoordinates,Original*
G04 #@! TF.FileFunction,Copper,L2,Bot,Signal*
G04 #@! TF.FilePolarity,Positive*
%FSLAX46Y46*%
G04 Gerber Fmt 4.6, Leading zero omitted, Abs format (unit mm)*
G04 Created by KiCad (PCBNEW (5.0.0-rc2-dev-311-g1dd4af297)) date 06/18/18 13:27:12*
%MOMM*%
%LPD*%
G01*
G04 APERTURE LIST*
%ADD10R,5.080000X1.500000*%
%ADD11O,1.700000X1.700000*%
%ADD12R,1.700000X1.700000*%
%ADD13C,0.800000*%
%ADD14C,1.000000*%
%ADD15C,0.750000*%
%ADD16C,0.350000*%
%ADD17C,0.500000*%
%ADD18C,0.250000*%
%ADD19C,0.254000*%
G04 APERTURE END LIST*
D10*
X244856000Y-70680000D03*
X244856000Y-79180000D03*
D11*
X168021000Y-93218000D03*
X165481000Y-93218000D03*
X168021000Y-90678000D03*
X165481000Y-90678000D03*
X168021000Y-88138000D03*
X165481000Y-88138000D03*
X168021000Y-85598000D03*
X165481000Y-85598000D03*
X168021000Y-83058000D03*
X165481000Y-83058000D03*
X168021000Y-80518000D03*
D12*
X165481000Y-80518000D03*
D13*
X245036000Y-97917000D03*
X241036000Y-97917000D03*
X237036000Y-97917000D03*
X233036000Y-97917000D03*
X229036000Y-97917000D03*
X225036000Y-97917000D03*
X221036000Y-97917000D03*
X217036000Y-97917000D03*
X213036000Y-97917000D03*
X209036000Y-97917000D03*
X205036000Y-97917000D03*
X201036000Y-97917000D03*
X197036000Y-97917000D03*
X193036000Y-97917000D03*
X189036000Y-97917000D03*
X185036000Y-97917000D03*
X181036000Y-97917000D03*
X177036000Y-97917000D03*
X173036000Y-97917000D03*
X169036000Y-97917000D03*
X165036000Y-97917000D03*
X161036000Y-97917000D03*
X245163000Y-61214000D03*
X241163000Y-61214000D03*
X237163000Y-61214000D03*
X233163000Y-61214000D03*
X229163000Y-61214000D03*
X225163000Y-61214000D03*
X221163000Y-61214000D03*
X217163000Y-61214000D03*
X213163000Y-61214000D03*
X209163000Y-61214000D03*
X205163000Y-61214000D03*
X201163000Y-61214000D03*
X197163000Y-61214000D03*
X193163000Y-61214000D03*
X189163000Y-61214000D03*
X185163000Y-61214000D03*
X181163000Y-61214000D03*
X177163000Y-61214000D03*
X173163000Y-61214000D03*
X169163000Y-61214000D03*
X165163000Y-61214000D03*
X161163000Y-61214000D03*
X230758000Y-82867000D03*
X228758000Y-82867000D03*
X226758000Y-82867000D03*
X224758000Y-82867000D03*
X230758000Y-80867000D03*
X228758000Y-80867000D03*
X226758000Y-80867000D03*
X224758000Y-80867000D03*
X222758000Y-80867000D03*
X230758000Y-78867000D03*
X228758000Y-78867000D03*
X226758000Y-78867000D03*
X224758000Y-78867000D03*
X222758000Y-78867000D03*
X236791000Y-66262000D03*
X236791000Y-64262000D03*
X240791000Y-68262000D03*
X240791000Y-66262000D03*
X238791000Y-72262000D03*
X240791000Y-70262000D03*
X238791000Y-68262000D03*
X238791000Y-66262000D03*
X238791000Y-70262000D03*
X240791000Y-64262000D03*
X240791000Y-72262000D03*
X236791000Y-68262000D03*
X236791000Y-70262000D03*
X238791000Y-64262000D03*
X240791000Y-85724000D03*
X238791000Y-85724000D03*
X236791000Y-85724000D03*
X234791000Y-85724000D03*
X232791000Y-85724000D03*
X240791000Y-83724000D03*
X238791000Y-83724000D03*
X236791000Y-83724000D03*
X234791000Y-83724000D03*
X232791000Y-83724000D03*
X240791000Y-81724000D03*
X238791000Y-81724000D03*
X236791000Y-81724000D03*
X234791000Y-81724000D03*
X232791000Y-81724000D03*
X240791000Y-79724000D03*
X238791000Y-79724000D03*
X236791000Y-79724000D03*
X234791000Y-79724000D03*
X232791000Y-79724000D03*
X240791000Y-77724000D03*
X238791000Y-77724000D03*
X236791000Y-77724000D03*
X234791000Y-77724000D03*
X232791000Y-77724000D03*
X209042000Y-80518000D03*
X204724000Y-76454000D03*
X205994000Y-76454000D03*
X205994000Y-75184000D03*
X204724000Y-75184000D03*
X205105000Y-65532000D03*
X202819000Y-65532000D03*
X200533000Y-65532000D03*
X198374000Y-65532000D03*
X196088000Y-65532000D03*
X193802000Y-65532000D03*
X214884000Y-69977000D03*
X214884000Y-68072000D03*
X212852000Y-68072000D03*
X210693000Y-68072000D03*
X222631000Y-70612000D03*
X221107000Y-70612000D03*
X221107000Y-72009000D03*
X222631000Y-72009000D03*
X228727000Y-70866000D03*
X226949000Y-70866000D03*
X226949000Y-73533000D03*
X226949000Y-72263000D03*
X228727000Y-72263000D03*
X228727000Y-73533000D03*
X230632000Y-73533000D03*
X230632000Y-72263000D03*
D14*
X214884000Y-80645000D03*
X187325000Y-85217000D03*
X187325000Y-89281000D03*
X187325000Y-94615000D03*
X180594000Y-79883000D03*
X184912000Y-76835000D03*
X182626000Y-76835000D03*
X180594000Y-76835000D03*
X179705000Y-69977000D03*
X179705000Y-67945000D03*
X179705000Y-66040000D03*
X196088000Y-82677000D03*
X197104000Y-84455000D03*
X194945000Y-84455000D03*
X192659000Y-84455000D03*
X221107000Y-86233000D03*
X218821000Y-86233000D03*
X221107000Y-83820000D03*
X218821000Y-83820000D03*
X204978000Y-87503000D03*
X206883000Y-86614000D03*
X177673000Y-94615000D03*
X176657000Y-82042000D03*
D13*
X180467000Y-92456000D03*
X193802000Y-92456000D03*
X217170000Y-66294000D03*
X207899000Y-79883000D03*
D14*
X199771000Y-89789000D03*
X221742000Y-89789000D03*
X211582000Y-88519000D03*
X206629000Y-81661000D03*
D15*
X176657000Y-93599000D02*
X177673000Y-94615000D01*
X176657000Y-91186000D02*
X176657000Y-93599000D01*
X176657000Y-82042000D02*
X176657000Y-91186000D01*
D16*
X193802000Y-92456000D02*
X180467000Y-92456000D01*
X217170000Y-69723000D02*
X217170000Y-66294000D01*
X215392000Y-71501000D02*
X217170000Y-69723000D01*
X208915000Y-71501000D02*
X215392000Y-71501000D01*
X208298999Y-72117001D02*
X208915000Y-71501000D01*
X207899000Y-79883000D02*
X208298999Y-79483001D01*
X208298999Y-79483001D02*
X208298999Y-72117001D01*
D17*
X221742000Y-89789000D02*
X199771000Y-89789000D01*
D18*
X211582000Y-83312000D02*
X211582000Y-88519000D01*
X210430999Y-82160999D02*
X211582000Y-83312000D01*
X206629000Y-81661000D02*
X207128999Y-82160999D01*
X207128999Y-82160999D02*
X210430999Y-82160999D01*
D19*
G36*
X246940000Y-69295000D02*
X245141750Y-69295000D01*
X244983000Y-69453750D01*
X244983000Y-70553000D01*
X245003000Y-70553000D01*
X245003000Y-70807000D01*
X244983000Y-70807000D01*
X244983000Y-71906250D01*
X245141750Y-72065000D01*
X246940000Y-72065000D01*
X246940000Y-77795000D01*
X245141750Y-77795000D01*
X244983000Y-77953750D01*
X244983000Y-79053000D01*
X245003000Y-79053000D01*
X245003000Y-79307000D01*
X244983000Y-79307000D01*
X244983000Y-80406250D01*
X245141750Y-80565000D01*
X246940001Y-80565000D01*
X246940001Y-98290000D01*
X159710000Y-98290000D01*
X159710000Y-93218000D01*
X163966908Y-93218000D01*
X164082161Y-93797418D01*
X164410375Y-94288625D01*
X164901582Y-94616839D01*
X165334744Y-94703000D01*
X165627256Y-94703000D01*
X166060418Y-94616839D01*
X166551625Y-94288625D01*
X166751000Y-93990239D01*
X166950375Y-94288625D01*
X167441582Y-94616839D01*
X167874744Y-94703000D01*
X168167256Y-94703000D01*
X168600418Y-94616839D01*
X169091625Y-94288625D01*
X169419839Y-93797418D01*
X169535092Y-93218000D01*
X169419839Y-92638582D01*
X169091625Y-92147375D01*
X168772522Y-91934157D01*
X168902358Y-91873183D01*
X169292645Y-91444924D01*
X169462476Y-91034890D01*
X169341155Y-90805000D01*
X168148000Y-90805000D01*
X168148000Y-90825000D01*
X167894000Y-90825000D01*
X167894000Y-90805000D01*
X165608000Y-90805000D01*
X165608000Y-90825000D01*
X165354000Y-90825000D01*
X165354000Y-90805000D01*
X164160845Y-90805000D01*
X164039524Y-91034890D01*
X164209355Y-91444924D01*
X164599642Y-91873183D01*
X164729478Y-91934157D01*
X164410375Y-92147375D01*
X164082161Y-92638582D01*
X163966908Y-93218000D01*
X159710000Y-93218000D01*
X159710000Y-88494890D01*
X164039524Y-88494890D01*
X164209355Y-88904924D01*
X164599642Y-89333183D01*
X164758954Y-89408000D01*
X164599642Y-89482817D01*
X164209355Y-89911076D01*
X164039524Y-90321110D01*
X164160845Y-90551000D01*
X165354000Y-90551000D01*
X165354000Y-88265000D01*
X164160845Y-88265000D01*
X164039524Y-88494890D01*
X159710000Y-88494890D01*
X159710000Y-85954890D01*
X164039524Y-85954890D01*
X164209355Y-86364924D01*
X164599642Y-86793183D01*
X164758954Y-86868000D01*
X164599642Y-86942817D01*
X164209355Y-87371076D01*
X164039524Y-87781110D01*
X164160845Y-88011000D01*
X165354000Y-88011000D01*
X165354000Y-85725000D01*
X164160845Y-85725000D01*
X164039524Y-85954890D01*
X159710000Y-85954890D01*
X159710000Y-83414890D01*
X164039524Y-83414890D01*
X164209355Y-83824924D01*
X164599642Y-84253183D01*
X164758954Y-84328000D01*
X164599642Y-84402817D01*
X164209355Y-84831076D01*
X164039524Y-85241110D01*
X164160845Y-85471000D01*
X165354000Y-85471000D01*
X165354000Y-83185000D01*
X164160845Y-83185000D01*
X164039524Y-83414890D01*
X159710000Y-83414890D01*
X159710000Y-79668000D01*
X163983560Y-79668000D01*
X163983560Y-81368000D01*
X164032843Y-81615765D01*
X164173191Y-81825809D01*
X164383235Y-81966157D01*
X164486708Y-81986739D01*
X164209355Y-82291076D01*
X164039524Y-82701110D01*
X164160845Y-82931000D01*
X165354000Y-82931000D01*
X165354000Y-82911000D01*
X165608000Y-82911000D01*
X165608000Y-82931000D01*
X165628000Y-82931000D01*
X165628000Y-83185000D01*
X165608000Y-83185000D01*
X165608000Y-85471000D01*
X165628000Y-85471000D01*
X165628000Y-85725000D01*
X165608000Y-85725000D01*
X165608000Y-88011000D01*
X165628000Y-88011000D01*
X165628000Y-88265000D01*
X165608000Y-88265000D01*
X165608000Y-90551000D01*
X167894000Y-90551000D01*
X167894000Y-90531000D01*
X168148000Y-90531000D01*
X168148000Y-90551000D01*
X169341155Y-90551000D01*
X169462476Y-90321110D01*
X169292645Y-89911076D01*
X168902358Y-89482817D01*
X168772522Y-89421843D01*
X169091625Y-89208625D01*
X169419839Y-88717418D01*
X169535092Y-88138000D01*
X169419839Y-87558582D01*
X169091625Y-87067375D01*
X168793239Y-86868000D01*
X169091625Y-86668625D01*
X169419839Y-86177418D01*
X169535092Y-85598000D01*
X169419839Y-85018582D01*
X169091625Y-84527375D01*
X168793239Y-84328000D01*
X169091625Y-84128625D01*
X169419839Y-83637418D01*
X169535092Y-83058000D01*
X169419839Y-82478582D01*
X169091625Y-81987375D01*
X168835495Y-81816234D01*
X175522000Y-81816234D01*
X175522000Y-82267766D01*
X175647000Y-82569543D01*
X175647001Y-91086520D01*
X175647000Y-91086525D01*
X175647001Y-93499525D01*
X175627214Y-93599000D01*
X175705602Y-93993082D01*
X175872482Y-94242837D01*
X175872485Y-94242840D01*
X175928832Y-94327169D01*
X176013160Y-94383515D01*
X176585793Y-94956149D01*
X176710793Y-95257926D01*
X177030074Y-95577207D01*
X177447234Y-95750000D01*
X177898766Y-95750000D01*
X178315926Y-95577207D01*
X178635207Y-95257926D01*
X178808000Y-94840766D01*
X178808000Y-94389234D01*
X178635207Y-93972074D01*
X178315926Y-93652793D01*
X178014149Y-93527793D01*
X177667000Y-93180645D01*
X177667000Y-92250126D01*
X179432000Y-92250126D01*
X179432000Y-92661874D01*
X179589569Y-93042280D01*
X179880720Y-93333431D01*
X180261126Y-93491000D01*
X180672874Y-93491000D01*
X181053280Y-93333431D01*
X181120711Y-93266000D01*
X193148289Y-93266000D01*
X193215720Y-93333431D01*
X193596126Y-93491000D01*
X194007874Y-93491000D01*
X194388280Y-93333431D01*
X194679431Y-93042280D01*
X194837000Y-92661874D01*
X194837000Y-92250126D01*
X194679431Y-91869720D01*
X194388280Y-91578569D01*
X194007874Y-91421000D01*
X193596126Y-91421000D01*
X193215720Y-91578569D01*
X193148289Y-91646000D01*
X181120711Y-91646000D01*
X181053280Y-91578569D01*
X180672874Y-91421000D01*
X180261126Y-91421000D01*
X179880720Y-91578569D01*
X179589569Y-91869720D01*
X179432000Y-92250126D01*
X177667000Y-92250126D01*
X177667000Y-89563234D01*
X198636000Y-89563234D01*
X198636000Y-90014766D01*
X198808793Y-90431926D01*
X199128074Y-90751207D01*
X199545234Y-90924000D01*
X199996766Y-90924000D01*
X200413926Y-90751207D01*
X200491133Y-90674000D01*
X221021867Y-90674000D01*
X221099074Y-90751207D01*
X221516234Y-90924000D01*
X221967766Y-90924000D01*
X222384926Y-90751207D01*
X222704207Y-90431926D01*
X222877000Y-90014766D01*
X222877000Y-89563234D01*
X222704207Y-89146074D01*
X222384926Y-88826793D01*
X221967766Y-88654000D01*
X221516234Y-88654000D01*
X221099074Y-88826793D01*
X221021867Y-88904000D01*
X212651043Y-88904000D01*
X212717000Y-88744766D01*
X212717000Y-88293234D01*
X212544207Y-87876074D01*
X212342000Y-87673867D01*
X212342000Y-83386846D01*
X212356888Y-83311999D01*
X212342000Y-83237152D01*
X212342000Y-83237148D01*
X212297904Y-83015463D01*
X212129929Y-82764071D01*
X212066473Y-82721671D01*
X211021330Y-81676529D01*
X210978928Y-81613070D01*
X210727536Y-81445095D01*
X210505851Y-81400999D01*
X210505846Y-81400999D01*
X210430999Y-81386111D01*
X210356152Y-81400999D01*
X207749819Y-81400999D01*
X207591207Y-81018074D01*
X207348303Y-80775170D01*
X207693126Y-80918000D01*
X208104874Y-80918000D01*
X208485280Y-80760431D01*
X208776431Y-80469280D01*
X208934000Y-80088874D01*
X208934000Y-79990615D01*
X209062002Y-79799047D01*
X209108999Y-79562775D01*
X209108999Y-79562774D01*
X209124867Y-79483002D01*
X209121436Y-79465750D01*
X241681000Y-79465750D01*
X241681000Y-80056309D01*
X241777673Y-80289698D01*
X241956301Y-80468327D01*
X242189690Y-80565000D01*
X244570250Y-80565000D01*
X244729000Y-80406250D01*
X244729000Y-79307000D01*
X241839750Y-79307000D01*
X241681000Y-79465750D01*
X209121436Y-79465750D01*
X209108999Y-79403229D01*
X209108999Y-78303691D01*
X241681000Y-78303691D01*
X241681000Y-78894250D01*
X241839750Y-79053000D01*
X244729000Y-79053000D01*
X244729000Y-77953750D01*
X244570250Y-77795000D01*
X242189690Y-77795000D01*
X241956301Y-77891673D01*
X241777673Y-78070302D01*
X241681000Y-78303691D01*
X209108999Y-78303691D01*
X209108999Y-72452513D01*
X209250513Y-72311000D01*
X215312227Y-72311000D01*
X215392000Y-72326868D01*
X215471773Y-72311000D01*
X215471774Y-72311000D01*
X215708046Y-72264003D01*
X215975977Y-72084977D01*
X216021168Y-72017344D01*
X217072762Y-70965750D01*
X241681000Y-70965750D01*
X241681000Y-71556309D01*
X241777673Y-71789698D01*
X241956301Y-71968327D01*
X242189690Y-72065000D01*
X244570250Y-72065000D01*
X244729000Y-71906250D01*
X244729000Y-70807000D01*
X241839750Y-70807000D01*
X241681000Y-70965750D01*
X217072762Y-70965750D01*
X217686347Y-70352166D01*
X217753977Y-70306977D01*
X217841673Y-70175730D01*
X217933003Y-70039047D01*
X217979817Y-69803691D01*
X241681000Y-69803691D01*
X241681000Y-70394250D01*
X241839750Y-70553000D01*
X244729000Y-70553000D01*
X244729000Y-69453750D01*
X244570250Y-69295000D01*
X242189690Y-69295000D01*
X241956301Y-69391673D01*
X241777673Y-69570302D01*
X241681000Y-69803691D01*
X217979817Y-69803691D01*
X217995868Y-69723000D01*
X217980000Y-69643226D01*
X217980000Y-66947711D01*
X218047431Y-66880280D01*
X218205000Y-66499874D01*
X218205000Y-66088126D01*
X218047431Y-65707720D01*
X217756280Y-65416569D01*
X217375874Y-65259000D01*
X216964126Y-65259000D01*
X216583720Y-65416569D01*
X216292569Y-65707720D01*
X216135000Y-66088126D01*
X216135000Y-66499874D01*
X216292569Y-66880280D01*
X216360001Y-66947712D01*
X216360000Y-69387487D01*
X215056488Y-70691000D01*
X208994773Y-70691000D01*
X208915000Y-70675132D01*
X208835227Y-70691000D01*
X208835226Y-70691000D01*
X208598954Y-70737997D01*
X208331023Y-70917023D01*
X208285834Y-70984653D01*
X207782652Y-71487835D01*
X207715023Y-71533024D01*
X207669834Y-71600654D01*
X207535997Y-71800955D01*
X207473131Y-72117001D01*
X207489000Y-72196779D01*
X207488999Y-78932552D01*
X207312720Y-79005569D01*
X207021569Y-79296720D01*
X206864000Y-79677126D01*
X206864000Y-80088874D01*
X207021569Y-80469280D01*
X207236343Y-80684054D01*
X206854766Y-80526000D01*
X206403234Y-80526000D01*
X205986074Y-80698793D01*
X205666793Y-81018074D01*
X205494000Y-81435234D01*
X205494000Y-81886766D01*
X205666793Y-82303926D01*
X205986074Y-82623207D01*
X206403234Y-82796000D01*
X206711382Y-82796000D01*
X206832462Y-82876903D01*
X207054147Y-82920999D01*
X207054151Y-82920999D01*
X207128998Y-82935887D01*
X207203845Y-82920999D01*
X210116198Y-82920999D01*
X210822000Y-83626802D01*
X210822001Y-87673866D01*
X210619793Y-87876074D01*
X210447000Y-88293234D01*
X210447000Y-88744766D01*
X210512957Y-88904000D01*
X200491133Y-88904000D01*
X200413926Y-88826793D01*
X199996766Y-88654000D01*
X199545234Y-88654000D01*
X199128074Y-88826793D01*
X198808793Y-89146074D01*
X198636000Y-89563234D01*
X177667000Y-89563234D01*
X177667000Y-82569543D01*
X177792000Y-82267766D01*
X177792000Y-81816234D01*
X177619207Y-81399074D01*
X177299926Y-81079793D01*
X176882766Y-80907000D01*
X176431234Y-80907000D01*
X176014074Y-81079793D01*
X175694793Y-81399074D01*
X175522000Y-81816234D01*
X168835495Y-81816234D01*
X168793239Y-81788000D01*
X169091625Y-81588625D01*
X169419839Y-81097418D01*
X169535092Y-80518000D01*
X169419839Y-79938582D01*
X169091625Y-79447375D01*
X168600418Y-79119161D01*
X168167256Y-79033000D01*
X167874744Y-79033000D01*
X167441582Y-79119161D01*
X166950375Y-79447375D01*
X166938184Y-79465619D01*
X166929157Y-79420235D01*
X166788809Y-79210191D01*
X166578765Y-79069843D01*
X166331000Y-79020560D01*
X164631000Y-79020560D01*
X164383235Y-79069843D01*
X164173191Y-79210191D01*
X164032843Y-79420235D01*
X163983560Y-79668000D01*
X159710000Y-79668000D01*
X159710000Y-60710000D01*
X246940000Y-60710000D01*
X246940000Y-69295000D01*
X246940000Y-69295000D01*
G37*
X246940000Y-69295000D02*
X245141750Y-69295000D01*
X244983000Y-69453750D01*
X244983000Y-70553000D01*
X245003000Y-70553000D01*
X245003000Y-70807000D01*
X244983000Y-70807000D01*
X244983000Y-71906250D01*
X245141750Y-72065000D01*
X246940000Y-72065000D01*
X246940000Y-77795000D01*
X245141750Y-77795000D01*
X244983000Y-77953750D01*
X244983000Y-79053000D01*
X245003000Y-79053000D01*
X245003000Y-79307000D01*
X244983000Y-79307000D01*
X244983000Y-80406250D01*
X245141750Y-80565000D01*
X246940001Y-80565000D01*
X246940001Y-98290000D01*
X159710000Y-98290000D01*
X159710000Y-93218000D01*
X163966908Y-93218000D01*
X164082161Y-93797418D01*
X164410375Y-94288625D01*
X164901582Y-94616839D01*
X165334744Y-94703000D01*
X165627256Y-94703000D01*
X166060418Y-94616839D01*
X166551625Y-94288625D01*
X166751000Y-93990239D01*
X166950375Y-94288625D01*
X167441582Y-94616839D01*
X167874744Y-94703000D01*
X168167256Y-94703000D01*
X168600418Y-94616839D01*
X169091625Y-94288625D01*
X169419839Y-93797418D01*
X169535092Y-93218000D01*
X169419839Y-92638582D01*
X169091625Y-92147375D01*
X168772522Y-91934157D01*
X168902358Y-91873183D01*
X169292645Y-91444924D01*
X169462476Y-91034890D01*
X169341155Y-90805000D01*
X168148000Y-90805000D01*
X168148000Y-90825000D01*
X167894000Y-90825000D01*
X167894000Y-90805000D01*
X165608000Y-90805000D01*
X165608000Y-90825000D01*
X165354000Y-90825000D01*
X165354000Y-90805000D01*
X164160845Y-90805000D01*
X164039524Y-91034890D01*
X164209355Y-91444924D01*
X164599642Y-91873183D01*
X164729478Y-91934157D01*
X164410375Y-92147375D01*
X164082161Y-92638582D01*
X163966908Y-93218000D01*
X159710000Y-93218000D01*
X159710000Y-88494890D01*
X164039524Y-88494890D01*
X164209355Y-88904924D01*
X164599642Y-89333183D01*
X164758954Y-89408000D01*
X164599642Y-89482817D01*
X164209355Y-89911076D01*
X164039524Y-90321110D01*
X164160845Y-90551000D01*
X165354000Y-90551000D01*
X165354000Y-88265000D01*
X164160845Y-88265000D01*
X164039524Y-88494890D01*
X159710000Y-88494890D01*
X159710000Y-85954890D01*
X164039524Y-85954890D01*
X164209355Y-86364924D01*
X164599642Y-86793183D01*
X164758954Y-86868000D01*
X164599642Y-86942817D01*
X164209355Y-87371076D01*
X164039524Y-87781110D01*
X164160845Y-88011000D01*
X165354000Y-88011000D01*
X165354000Y-85725000D01*
X164160845Y-85725000D01*
X164039524Y-85954890D01*
X159710000Y-85954890D01*
X159710000Y-83414890D01*
X164039524Y-83414890D01*
X164209355Y-83824924D01*
X164599642Y-84253183D01*
X164758954Y-84328000D01*
X164599642Y-84402817D01*
X164209355Y-84831076D01*
X164039524Y-85241110D01*
X164160845Y-85471000D01*
X165354000Y-85471000D01*
X165354000Y-83185000D01*
X164160845Y-83185000D01*
X164039524Y-83414890D01*
X159710000Y-83414890D01*
X159710000Y-79668000D01*
X163983560Y-79668000D01*
X163983560Y-81368000D01*
X164032843Y-81615765D01*
X164173191Y-81825809D01*
X164383235Y-81966157D01*
X164486708Y-81986739D01*
X164209355Y-82291076D01*
X164039524Y-82701110D01*
X164160845Y-82931000D01*
X165354000Y-82931000D01*
X165354000Y-82911000D01*
X165608000Y-82911000D01*
X165608000Y-82931000D01*
X165628000Y-82931000D01*
X165628000Y-83185000D01*
X165608000Y-83185000D01*
X165608000Y-85471000D01*
X165628000Y-85471000D01*
X165628000Y-85725000D01*
X165608000Y-85725000D01*
X165608000Y-88011000D01*
X165628000Y-88011000D01*
X165628000Y-88265000D01*
X165608000Y-88265000D01*
X165608000Y-90551000D01*
X167894000Y-90551000D01*
X167894000Y-90531000D01*
X168148000Y-90531000D01*
X168148000Y-90551000D01*
X169341155Y-90551000D01*
X169462476Y-90321110D01*
X169292645Y-89911076D01*
X168902358Y-89482817D01*
X168772522Y-89421843D01*
X169091625Y-89208625D01*
X169419839Y-88717418D01*
X169535092Y-88138000D01*
X169419839Y-87558582D01*
X169091625Y-87067375D01*
X168793239Y-86868000D01*
X169091625Y-86668625D01*
X169419839Y-86177418D01*
X169535092Y-85598000D01*
X169419839Y-85018582D01*
X169091625Y-84527375D01*
X168793239Y-84328000D01*
X169091625Y-84128625D01*
X169419839Y-83637418D01*
X169535092Y-83058000D01*
X169419839Y-82478582D01*
X169091625Y-81987375D01*
X168835495Y-81816234D01*
X175522000Y-81816234D01*
X175522000Y-82267766D01*
X175647000Y-82569543D01*
X175647001Y-91086520D01*
X175647000Y-91086525D01*
X175647001Y-93499525D01*
X175627214Y-93599000D01*
X175705602Y-93993082D01*
X175872482Y-94242837D01*
X175872485Y-94242840D01*
X175928832Y-94327169D01*
X176013160Y-94383515D01*
X176585793Y-94956149D01*
X176710793Y-95257926D01*
X177030074Y-95577207D01*
X177447234Y-95750000D01*
X177898766Y-95750000D01*
X178315926Y-95577207D01*
X178635207Y-95257926D01*
X178808000Y-94840766D01*
X178808000Y-94389234D01*
X178635207Y-93972074D01*
X178315926Y-93652793D01*
X178014149Y-93527793D01*
X177667000Y-93180645D01*
X177667000Y-92250126D01*
X179432000Y-92250126D01*
X179432000Y-92661874D01*
X179589569Y-93042280D01*
X179880720Y-93333431D01*
X180261126Y-93491000D01*
X180672874Y-93491000D01*
X181053280Y-93333431D01*
X181120711Y-93266000D01*
X193148289Y-93266000D01*
X193215720Y-93333431D01*
X193596126Y-93491000D01*
X194007874Y-93491000D01*
X194388280Y-93333431D01*
X194679431Y-93042280D01*
X194837000Y-92661874D01*
X194837000Y-92250126D01*
X194679431Y-91869720D01*
X194388280Y-91578569D01*
X194007874Y-91421000D01*
X193596126Y-91421000D01*
X193215720Y-91578569D01*
X193148289Y-91646000D01*
X181120711Y-91646000D01*
X181053280Y-91578569D01*
X180672874Y-91421000D01*
X180261126Y-91421000D01*
X179880720Y-91578569D01*
X179589569Y-91869720D01*
X179432000Y-92250126D01*
X177667000Y-92250126D01*
X177667000Y-89563234D01*
X198636000Y-89563234D01*
X198636000Y-90014766D01*
X198808793Y-90431926D01*
X199128074Y-90751207D01*
X199545234Y-90924000D01*
X199996766Y-90924000D01*
X200413926Y-90751207D01*
X200491133Y-90674000D01*
X221021867Y-90674000D01*
X221099074Y-90751207D01*
X221516234Y-90924000D01*
X221967766Y-90924000D01*
X222384926Y-90751207D01*
X222704207Y-90431926D01*
X222877000Y-90014766D01*
X222877000Y-89563234D01*
X222704207Y-89146074D01*
X222384926Y-88826793D01*
X221967766Y-88654000D01*
X221516234Y-88654000D01*
X221099074Y-88826793D01*
X221021867Y-88904000D01*
X212651043Y-88904000D01*
X212717000Y-88744766D01*
X212717000Y-88293234D01*
X212544207Y-87876074D01*
X212342000Y-87673867D01*
X212342000Y-83386846D01*
X212356888Y-83311999D01*
X212342000Y-83237152D01*
X212342000Y-83237148D01*
X212297904Y-83015463D01*
X212129929Y-82764071D01*
X212066473Y-82721671D01*
X211021330Y-81676529D01*
X210978928Y-81613070D01*
X210727536Y-81445095D01*
X210505851Y-81400999D01*
X210505846Y-81400999D01*
X210430999Y-81386111D01*
X210356152Y-81400999D01*
X207749819Y-81400999D01*
X207591207Y-81018074D01*
X207348303Y-80775170D01*
X207693126Y-80918000D01*
X208104874Y-80918000D01*
X208485280Y-80760431D01*
X208776431Y-80469280D01*
X208934000Y-80088874D01*
X208934000Y-79990615D01*
X209062002Y-79799047D01*
X209108999Y-79562775D01*
X209108999Y-79562774D01*
X209124867Y-79483002D01*
X209121436Y-79465750D01*
X241681000Y-79465750D01*
X241681000Y-80056309D01*
X241777673Y-80289698D01*
X241956301Y-80468327D01*
X242189690Y-80565000D01*
X244570250Y-80565000D01*
X244729000Y-80406250D01*
X244729000Y-79307000D01*
X241839750Y-79307000D01*
X241681000Y-79465750D01*
X209121436Y-79465750D01*
X209108999Y-79403229D01*
X209108999Y-78303691D01*
X241681000Y-78303691D01*
X241681000Y-78894250D01*
X241839750Y-79053000D01*
X244729000Y-79053000D01*
X244729000Y-77953750D01*
X244570250Y-77795000D01*
X242189690Y-77795000D01*
X241956301Y-77891673D01*
X241777673Y-78070302D01*
X241681000Y-78303691D01*
X209108999Y-78303691D01*
X209108999Y-72452513D01*
X209250513Y-72311000D01*
X215312227Y-72311000D01*
X215392000Y-72326868D01*
X215471773Y-72311000D01*
X215471774Y-72311000D01*
X215708046Y-72264003D01*
X215975977Y-72084977D01*
X216021168Y-72017344D01*
X217072762Y-70965750D01*
X241681000Y-70965750D01*
X241681000Y-71556309D01*
X241777673Y-71789698D01*
X241956301Y-71968327D01*
X242189690Y-72065000D01*
X244570250Y-72065000D01*
X244729000Y-71906250D01*
X244729000Y-70807000D01*
X241839750Y-70807000D01*
X241681000Y-70965750D01*
X217072762Y-70965750D01*
X217686347Y-70352166D01*
X217753977Y-70306977D01*
X217841673Y-70175730D01*
X217933003Y-70039047D01*
X217979817Y-69803691D01*
X241681000Y-69803691D01*
X241681000Y-70394250D01*
X241839750Y-70553000D01*
X244729000Y-70553000D01*
X244729000Y-69453750D01*
X244570250Y-69295000D01*
X242189690Y-69295000D01*
X241956301Y-69391673D01*
X241777673Y-69570302D01*
X241681000Y-69803691D01*
X217979817Y-69803691D01*
X217995868Y-69723000D01*
X217980000Y-69643226D01*
X217980000Y-66947711D01*
X218047431Y-66880280D01*
X218205000Y-66499874D01*
X218205000Y-66088126D01*
X218047431Y-65707720D01*
X217756280Y-65416569D01*
X217375874Y-65259000D01*
X216964126Y-65259000D01*
X216583720Y-65416569D01*
X216292569Y-65707720D01*
X216135000Y-66088126D01*
X216135000Y-66499874D01*
X216292569Y-66880280D01*
X216360001Y-66947712D01*
X216360000Y-69387487D01*
X215056488Y-70691000D01*
X208994773Y-70691000D01*
X208915000Y-70675132D01*
X208835227Y-70691000D01*
X208835226Y-70691000D01*
X208598954Y-70737997D01*
X208331023Y-70917023D01*
X208285834Y-70984653D01*
X207782652Y-71487835D01*
X207715023Y-71533024D01*
X207669834Y-71600654D01*
X207535997Y-71800955D01*
X207473131Y-72117001D01*
X207489000Y-72196779D01*
X207488999Y-78932552D01*
X207312720Y-79005569D01*
X207021569Y-79296720D01*
X206864000Y-79677126D01*
X206864000Y-80088874D01*
X207021569Y-80469280D01*
X207236343Y-80684054D01*
X206854766Y-80526000D01*
X206403234Y-80526000D01*
X205986074Y-80698793D01*
X205666793Y-81018074D01*
X205494000Y-81435234D01*
X205494000Y-81886766D01*
X205666793Y-82303926D01*
X205986074Y-82623207D01*
X206403234Y-82796000D01*
X206711382Y-82796000D01*
X206832462Y-82876903D01*
X207054147Y-82920999D01*
X207054151Y-82920999D01*
X207128998Y-82935887D01*
X207203845Y-82920999D01*
X210116198Y-82920999D01*
X210822000Y-83626802D01*
X210822001Y-87673866D01*
X210619793Y-87876074D01*
X210447000Y-88293234D01*
X210447000Y-88744766D01*
X210512957Y-88904000D01*
X200491133Y-88904000D01*
X200413926Y-88826793D01*
X199996766Y-88654000D01*
X199545234Y-88654000D01*
X199128074Y-88826793D01*
X198808793Y-89146074D01*
X198636000Y-89563234D01*
X177667000Y-89563234D01*
X177667000Y-82569543D01*
X177792000Y-82267766D01*
X177792000Y-81816234D01*
X177619207Y-81399074D01*
X177299926Y-81079793D01*
X176882766Y-80907000D01*
X176431234Y-80907000D01*
X176014074Y-81079793D01*
X175694793Y-81399074D01*
X175522000Y-81816234D01*
X168835495Y-81816234D01*
X168793239Y-81788000D01*
X169091625Y-81588625D01*
X169419839Y-81097418D01*
X169535092Y-80518000D01*
X169419839Y-79938582D01*
X169091625Y-79447375D01*
X168600418Y-79119161D01*
X168167256Y-79033000D01*
X167874744Y-79033000D01*
X167441582Y-79119161D01*
X166950375Y-79447375D01*
X166938184Y-79465619D01*
X166929157Y-79420235D01*
X166788809Y-79210191D01*
X166578765Y-79069843D01*
X166331000Y-79020560D01*
X164631000Y-79020560D01*
X164383235Y-79069843D01*
X164173191Y-79210191D01*
X164032843Y-79420235D01*
X163983560Y-79668000D01*
X159710000Y-79668000D01*
X159710000Y-60710000D01*
X246940000Y-60710000D01*
X246940000Y-69295000D01*
M02*
