G75*
%MOIN*%
%OFA0B0*%
%FSLAX25Y25*%
%IPPOS*%
%LPD*%
%AMOC8*
5,1,8,0,0,1.08239X$1,22.5*
%
%ADD10OC8,0.07087*%
%ADD11OC8,0.06000*%
%ADD12C,0.00600*%
%ADD13C,0.01200*%
D10*
X0067757Y0061300D03*
X0076772Y0061300D03*
X0085788Y0061300D03*
X0094804Y0061300D03*
X0103820Y0061300D03*
X0108308Y0051300D03*
X0099292Y0051300D03*
X0090276Y0051300D03*
X0081261Y0051300D03*
X0072245Y0051300D03*
X0072245Y0071300D03*
X0081261Y0071300D03*
X0090276Y0071300D03*
X0099292Y0071300D03*
X0108308Y0071300D03*
D11*
X0104292Y0132245D03*
X0104292Y0142245D03*
X0114292Y0142245D03*
X0114292Y0132245D03*
X0124292Y0132245D03*
X0124292Y0142245D03*
X0094292Y0142245D03*
X0084292Y0142245D03*
X0084292Y0132245D03*
X0094292Y0132245D03*
X0074292Y0132245D03*
X0074292Y0142245D03*
X0064292Y0142245D03*
X0064292Y0132245D03*
X0054292Y0132245D03*
X0054292Y0142245D03*
D12*
X0028100Y0156232D02*
X0028100Y0018100D01*
X0150484Y0018100D01*
X0150484Y0156232D01*
X0028100Y0156232D01*
X0028100Y0155753D02*
X0150484Y0155753D01*
X0150484Y0155155D02*
X0028100Y0155155D01*
X0028100Y0154556D02*
X0150484Y0154556D01*
X0150484Y0153958D02*
X0028100Y0153958D01*
X0028100Y0153359D02*
X0150484Y0153359D01*
X0150484Y0152761D02*
X0028100Y0152761D01*
X0028100Y0152162D02*
X0150484Y0152162D01*
X0150484Y0151564D02*
X0028100Y0151564D01*
X0028100Y0150965D02*
X0150484Y0150965D01*
X0150484Y0150367D02*
X0028100Y0150367D01*
X0028100Y0149768D02*
X0150484Y0149768D01*
X0150484Y0149170D02*
X0028100Y0149170D01*
X0028100Y0148571D02*
X0150484Y0148571D01*
X0150484Y0147972D02*
X0028100Y0147972D01*
X0028100Y0147374D02*
X0081360Y0147374D01*
X0081052Y0147066D02*
X0081052Y0147066D01*
X0079471Y0145485D01*
X0079471Y0145485D01*
X0078592Y0144606D01*
X0078592Y0141921D01*
X0078192Y0141521D01*
X0078192Y0143860D01*
X0075908Y0146145D01*
X0072677Y0146145D01*
X0070392Y0143860D01*
X0070392Y0140629D01*
X0072677Y0138345D01*
X0075016Y0138345D01*
X0074701Y0138030D01*
X0072016Y0138030D01*
X0071138Y0137152D01*
X0068592Y0134606D01*
X0068592Y0081568D01*
X0060592Y0073568D01*
X0059713Y0072689D01*
X0059713Y0055002D01*
X0060592Y0054123D01*
X0069659Y0045057D01*
X0074831Y0045057D01*
X0078026Y0048251D01*
X0079420Y0046857D01*
X0083101Y0046857D01*
X0085704Y0049460D01*
X0085704Y0053140D01*
X0083101Y0055743D01*
X0080045Y0055743D01*
X0082553Y0058251D01*
X0083948Y0056857D01*
X0087629Y0056857D01*
X0090231Y0059460D01*
X0090231Y0063140D01*
X0088315Y0065057D01*
X0088926Y0065057D01*
X0090601Y0063381D01*
X0090361Y0063140D01*
X0090361Y0059460D01*
X0092963Y0056857D01*
X0096644Y0056857D01*
X0099247Y0059460D01*
X0099247Y0063140D01*
X0096644Y0065743D01*
X0092963Y0065743D01*
X0092723Y0065503D01*
X0091369Y0066857D01*
X0092117Y0066857D01*
X0094720Y0069460D01*
X0094720Y0073140D01*
X0092117Y0075743D01*
X0088436Y0075743D01*
X0086051Y0073359D01*
X0083267Y0076143D01*
X0081561Y0076143D01*
X0081561Y0071600D01*
X0080961Y0071600D01*
X0080961Y0076143D01*
X0079254Y0076143D01*
X0076470Y0073359D01*
X0074085Y0075743D01*
X0072101Y0075743D01*
X0095792Y0099434D01*
X0095792Y0128345D01*
X0095908Y0128345D01*
X0098192Y0130629D01*
X0098192Y0133860D01*
X0095908Y0136145D01*
X0092677Y0136145D01*
X0090392Y0133860D01*
X0090392Y0130629D01*
X0092677Y0128345D01*
X0092792Y0128345D01*
X0092792Y0100677D01*
X0081592Y0089477D01*
X0081592Y0129429D01*
X0082677Y0128345D01*
X0085908Y0128345D01*
X0088192Y0130629D01*
X0088192Y0133860D01*
X0085908Y0136145D01*
X0084374Y0136145D01*
X0084913Y0136685D01*
X0085792Y0137563D01*
X0085792Y0138345D01*
X0085908Y0138345D01*
X0088192Y0140629D01*
X0088192Y0143860D01*
X0087108Y0144945D01*
X0091477Y0144945D01*
X0090392Y0143860D01*
X0090392Y0140629D01*
X0092677Y0138345D01*
X0095908Y0138345D01*
X0095989Y0138427D01*
X0098592Y0135824D01*
X0098592Y0129884D01*
X0111551Y0116925D01*
X0111551Y0074340D01*
X0110148Y0075743D01*
X0106467Y0075743D01*
X0103865Y0073140D01*
X0103865Y0069460D01*
X0106467Y0066857D01*
X0107255Y0066857D01*
X0105901Y0065503D01*
X0105660Y0065743D01*
X0101979Y0065743D01*
X0099376Y0063140D01*
X0099376Y0059460D01*
X0101979Y0056857D01*
X0102728Y0056857D01*
X0101373Y0055503D01*
X0101133Y0055743D01*
X0097452Y0055743D01*
X0094849Y0053140D01*
X0094849Y0049460D01*
X0097452Y0046857D01*
X0101133Y0046857D01*
X0103735Y0049460D01*
X0103735Y0053140D01*
X0103495Y0053381D01*
X0105170Y0055057D01*
X0105781Y0055057D01*
X0103865Y0053140D01*
X0103865Y0049460D01*
X0106467Y0046857D01*
X0110148Y0046857D01*
X0112751Y0049460D01*
X0112751Y0053140D01*
X0110148Y0055743D01*
X0107092Y0055743D01*
X0107284Y0055935D01*
X0107284Y0055935D01*
X0118581Y0067232D01*
X0119460Y0068111D01*
X0119460Y0106726D01*
X0125792Y0113058D01*
X0125792Y0128345D01*
X0125908Y0128345D01*
X0128192Y0130629D01*
X0128192Y0133860D01*
X0125908Y0136145D01*
X0122677Y0136145D01*
X0120392Y0133860D01*
X0120392Y0130629D01*
X0122677Y0128345D01*
X0122792Y0128345D01*
X0122792Y0114301D01*
X0117339Y0108847D01*
X0117339Y0108847D01*
X0116460Y0107969D01*
X0116460Y0069353D01*
X0108263Y0061157D01*
X0108263Y0063140D01*
X0108022Y0063381D01*
X0109698Y0065057D01*
X0110894Y0065057D01*
X0111773Y0065935D01*
X0113672Y0067835D01*
X0113673Y0067835D01*
X0114551Y0068714D01*
X0114551Y0118167D01*
X0104374Y0128345D01*
X0105908Y0128345D01*
X0108192Y0130629D01*
X0108192Y0133860D01*
X0105908Y0136145D01*
X0102677Y0136145D01*
X0101592Y0135060D01*
X0101592Y0137066D01*
X0100713Y0137945D01*
X0098110Y0140548D01*
X0098192Y0140629D01*
X0098192Y0142163D01*
X0098732Y0141624D01*
X0099611Y0140745D01*
X0100392Y0140745D01*
X0100392Y0140629D01*
X0102677Y0138345D01*
X0105908Y0138345D01*
X0108192Y0140629D01*
X0108192Y0143860D01*
X0105908Y0146145D01*
X0102677Y0146145D01*
X0100565Y0144033D01*
X0097532Y0147066D01*
X0096653Y0147945D01*
X0081931Y0147945D01*
X0081052Y0147066D01*
X0080762Y0146775D02*
X0028100Y0146775D01*
X0028100Y0146177D02*
X0052143Y0146177D01*
X0052511Y0146545D02*
X0049992Y0144026D01*
X0049992Y0142545D01*
X0053992Y0142545D01*
X0053992Y0146545D01*
X0052511Y0146545D01*
X0051545Y0145578D02*
X0028100Y0145578D01*
X0028100Y0144980D02*
X0050946Y0144980D01*
X0050348Y0144381D02*
X0028100Y0144381D01*
X0028100Y0143783D02*
X0049992Y0143783D01*
X0049992Y0143184D02*
X0028100Y0143184D01*
X0028100Y0142586D02*
X0049992Y0142586D01*
X0049992Y0141945D02*
X0049992Y0140464D01*
X0052511Y0137945D01*
X0053992Y0137945D01*
X0053992Y0141945D01*
X0049992Y0141945D01*
X0049992Y0141389D02*
X0028100Y0141389D01*
X0028100Y0141987D02*
X0053992Y0141987D01*
X0053992Y0141945D02*
X0053992Y0142545D01*
X0054592Y0142545D01*
X0054592Y0146545D01*
X0056073Y0146545D01*
X0058592Y0144026D01*
X0058592Y0142545D01*
X0054592Y0142545D01*
X0054592Y0141945D01*
X0058592Y0141945D01*
X0058592Y0140464D01*
X0056073Y0137945D01*
X0054592Y0137945D01*
X0054592Y0141945D01*
X0053992Y0141945D01*
X0053992Y0141389D02*
X0054592Y0141389D01*
X0054592Y0141987D02*
X0060392Y0141987D01*
X0060392Y0141389D02*
X0058592Y0141389D01*
X0058592Y0140790D02*
X0060392Y0140790D01*
X0060392Y0140629D02*
X0062677Y0138345D01*
X0065908Y0138345D01*
X0068192Y0140629D01*
X0068192Y0143860D01*
X0065908Y0146145D01*
X0062677Y0146145D01*
X0060392Y0143860D01*
X0060392Y0140629D01*
X0060830Y0140192D02*
X0058320Y0140192D01*
X0057722Y0139593D02*
X0061428Y0139593D01*
X0062027Y0138995D02*
X0057123Y0138995D01*
X0056525Y0138396D02*
X0062625Y0138396D01*
X0062677Y0136145D02*
X0060392Y0133860D01*
X0060392Y0130629D01*
X0062677Y0128345D01*
X0065908Y0128345D01*
X0068192Y0130629D01*
X0068192Y0133860D01*
X0065908Y0136145D01*
X0062677Y0136145D01*
X0062534Y0136002D02*
X0056050Y0136002D01*
X0055908Y0136145D02*
X0052677Y0136145D01*
X0050392Y0133860D01*
X0050392Y0130629D01*
X0052677Y0128345D01*
X0055908Y0128345D01*
X0058192Y0130629D01*
X0058192Y0133860D01*
X0055908Y0136145D01*
X0056649Y0135404D02*
X0061936Y0135404D01*
X0061337Y0134805D02*
X0057247Y0134805D01*
X0057846Y0134207D02*
X0060739Y0134207D01*
X0060392Y0133608D02*
X0058192Y0133608D01*
X0058192Y0133010D02*
X0060392Y0133010D01*
X0060392Y0132411D02*
X0058192Y0132411D01*
X0058192Y0131813D02*
X0060392Y0131813D01*
X0060392Y0131214D02*
X0058192Y0131214D01*
X0058178Y0130616D02*
X0060406Y0130616D01*
X0061004Y0130017D02*
X0057580Y0130017D01*
X0056981Y0129419D02*
X0061603Y0129419D01*
X0062201Y0128820D02*
X0056383Y0128820D01*
X0052201Y0128820D02*
X0028100Y0128820D01*
X0028100Y0128222D02*
X0068592Y0128222D01*
X0068592Y0128820D02*
X0066383Y0128820D01*
X0066981Y0129419D02*
X0068592Y0129419D01*
X0068592Y0130017D02*
X0067580Y0130017D01*
X0068178Y0130616D02*
X0068592Y0130616D01*
X0068592Y0131214D02*
X0068192Y0131214D01*
X0068192Y0131813D02*
X0068592Y0131813D01*
X0068592Y0132411D02*
X0068192Y0132411D01*
X0068192Y0133010D02*
X0068592Y0133010D01*
X0068592Y0133608D02*
X0068192Y0133608D01*
X0067846Y0134207D02*
X0068592Y0134207D01*
X0068791Y0134805D02*
X0067247Y0134805D01*
X0066649Y0135404D02*
X0069390Y0135404D01*
X0069988Y0136002D02*
X0066050Y0136002D01*
X0065959Y0138396D02*
X0072625Y0138396D01*
X0072027Y0138995D02*
X0066557Y0138995D01*
X0067156Y0139593D02*
X0071428Y0139593D01*
X0070830Y0140192D02*
X0067755Y0140192D01*
X0068192Y0140790D02*
X0070392Y0140790D01*
X0070392Y0141389D02*
X0068192Y0141389D01*
X0068192Y0141987D02*
X0070392Y0141987D01*
X0070392Y0142586D02*
X0068192Y0142586D01*
X0068192Y0143184D02*
X0070392Y0143184D01*
X0070392Y0143783D02*
X0068192Y0143783D01*
X0067671Y0144381D02*
X0070913Y0144381D01*
X0071512Y0144980D02*
X0067072Y0144980D01*
X0066474Y0145578D02*
X0072110Y0145578D01*
X0076474Y0145578D02*
X0079565Y0145578D01*
X0078966Y0144980D02*
X0077072Y0144980D01*
X0077671Y0144381D02*
X0078592Y0144381D01*
X0078592Y0143783D02*
X0078192Y0143783D01*
X0078192Y0143184D02*
X0078592Y0143184D01*
X0078592Y0142586D02*
X0078192Y0142586D01*
X0078192Y0141987D02*
X0078592Y0141987D01*
X0080163Y0146177D02*
X0056441Y0146177D01*
X0057040Y0145578D02*
X0062110Y0145578D01*
X0061512Y0144980D02*
X0057638Y0144980D01*
X0058237Y0144381D02*
X0060913Y0144381D01*
X0060392Y0143783D02*
X0058592Y0143783D01*
X0058592Y0143184D02*
X0060392Y0143184D01*
X0060392Y0142586D02*
X0058592Y0142586D01*
X0054592Y0142586D02*
X0053992Y0142586D01*
X0053992Y0143184D02*
X0054592Y0143184D01*
X0054592Y0143783D02*
X0053992Y0143783D01*
X0053992Y0144381D02*
X0054592Y0144381D01*
X0054592Y0144980D02*
X0053992Y0144980D01*
X0053992Y0145578D02*
X0054592Y0145578D01*
X0054592Y0146177D02*
X0053992Y0146177D01*
X0053992Y0140790D02*
X0054592Y0140790D01*
X0054592Y0140192D02*
X0053992Y0140192D01*
X0053992Y0139593D02*
X0054592Y0139593D01*
X0054592Y0138995D02*
X0053992Y0138995D01*
X0053992Y0138396D02*
X0054592Y0138396D01*
X0052060Y0138396D02*
X0028100Y0138396D01*
X0028100Y0137798D02*
X0071784Y0137798D01*
X0071185Y0137199D02*
X0028100Y0137199D01*
X0028100Y0136601D02*
X0070587Y0136601D01*
X0068592Y0127623D02*
X0028100Y0127623D01*
X0028100Y0127025D02*
X0068592Y0127025D01*
X0068592Y0126426D02*
X0028100Y0126426D01*
X0028100Y0125828D02*
X0068592Y0125828D01*
X0068592Y0125229D02*
X0028100Y0125229D01*
X0028100Y0124631D02*
X0068592Y0124631D01*
X0068592Y0124032D02*
X0028100Y0124032D01*
X0028100Y0123434D02*
X0068592Y0123434D01*
X0068592Y0122835D02*
X0028100Y0122835D01*
X0028100Y0122237D02*
X0068592Y0122237D01*
X0068592Y0121638D02*
X0028100Y0121638D01*
X0028100Y0121039D02*
X0068592Y0121039D01*
X0068592Y0120441D02*
X0028100Y0120441D01*
X0028100Y0119842D02*
X0068592Y0119842D01*
X0068592Y0119244D02*
X0028100Y0119244D01*
X0028100Y0118645D02*
X0068592Y0118645D01*
X0068592Y0118047D02*
X0028100Y0118047D01*
X0028100Y0117448D02*
X0068592Y0117448D01*
X0068592Y0116850D02*
X0028100Y0116850D01*
X0028100Y0116251D02*
X0068592Y0116251D01*
X0068592Y0115653D02*
X0028100Y0115653D01*
X0028100Y0115054D02*
X0068592Y0115054D01*
X0068592Y0114456D02*
X0028100Y0114456D01*
X0028100Y0113857D02*
X0068592Y0113857D01*
X0068592Y0113259D02*
X0028100Y0113259D01*
X0028100Y0112660D02*
X0068592Y0112660D01*
X0068592Y0112062D02*
X0028100Y0112062D01*
X0028100Y0111463D02*
X0068592Y0111463D01*
X0068592Y0110865D02*
X0028100Y0110865D01*
X0028100Y0110266D02*
X0047022Y0110266D01*
X0048350Y0110817D02*
X0045446Y0109613D01*
X0043223Y0107390D01*
X0042020Y0104486D01*
X0042020Y0101342D01*
X0043223Y0098438D01*
X0045446Y0096215D01*
X0048350Y0095012D01*
X0051494Y0095012D01*
X0054398Y0096215D01*
X0056621Y0098438D01*
X0057824Y0101342D01*
X0057824Y0104486D01*
X0056621Y0107390D01*
X0054398Y0109613D01*
X0051494Y0110817D01*
X0048350Y0110817D01*
X0045577Y0109668D02*
X0028100Y0109668D01*
X0028100Y0109069D02*
X0044902Y0109069D01*
X0044303Y0108471D02*
X0028100Y0108471D01*
X0028100Y0107872D02*
X0043704Y0107872D01*
X0043174Y0107274D02*
X0028100Y0107274D01*
X0028100Y0106675D02*
X0042926Y0106675D01*
X0042679Y0106077D02*
X0028100Y0106077D01*
X0028100Y0105478D02*
X0042431Y0105478D01*
X0042183Y0104880D02*
X0028100Y0104880D01*
X0028100Y0104281D02*
X0042020Y0104281D01*
X0042020Y0103683D02*
X0028100Y0103683D01*
X0028100Y0103084D02*
X0042020Y0103084D01*
X0042020Y0102486D02*
X0028100Y0102486D01*
X0028100Y0101887D02*
X0042020Y0101887D01*
X0042042Y0101289D02*
X0028100Y0101289D01*
X0028100Y0100690D02*
X0042290Y0100690D01*
X0042538Y0100092D02*
X0028100Y0100092D01*
X0028100Y0099493D02*
X0042786Y0099493D01*
X0043034Y0098895D02*
X0028100Y0098895D01*
X0028100Y0098296D02*
X0043365Y0098296D01*
X0043963Y0097698D02*
X0028100Y0097698D01*
X0028100Y0097099D02*
X0044562Y0097099D01*
X0045160Y0096501D02*
X0028100Y0096501D01*
X0028100Y0095902D02*
X0046201Y0095902D01*
X0047646Y0095303D02*
X0028100Y0095303D01*
X0028100Y0094705D02*
X0068592Y0094705D01*
X0068592Y0095303D02*
X0052198Y0095303D01*
X0053643Y0095902D02*
X0068592Y0095902D01*
X0068592Y0096501D02*
X0054684Y0096501D01*
X0055283Y0097099D02*
X0068592Y0097099D01*
X0068592Y0097698D02*
X0055881Y0097698D01*
X0056480Y0098296D02*
X0068592Y0098296D01*
X0068592Y0098895D02*
X0056811Y0098895D01*
X0057058Y0099493D02*
X0068592Y0099493D01*
X0068592Y0100092D02*
X0057306Y0100092D01*
X0057554Y0100690D02*
X0068592Y0100690D01*
X0068592Y0101289D02*
X0057802Y0101289D01*
X0057824Y0101887D02*
X0068592Y0101887D01*
X0068592Y0102486D02*
X0057824Y0102486D01*
X0057824Y0103084D02*
X0068592Y0103084D01*
X0068592Y0103683D02*
X0057824Y0103683D01*
X0057824Y0104281D02*
X0068592Y0104281D01*
X0068592Y0104880D02*
X0057661Y0104880D01*
X0057413Y0105478D02*
X0068592Y0105478D01*
X0068592Y0106077D02*
X0057166Y0106077D01*
X0056918Y0106675D02*
X0068592Y0106675D01*
X0068592Y0107274D02*
X0056670Y0107274D01*
X0056140Y0107872D02*
X0068592Y0107872D01*
X0068592Y0108471D02*
X0055541Y0108471D01*
X0054943Y0109069D02*
X0068592Y0109069D01*
X0068592Y0109668D02*
X0054267Y0109668D01*
X0052822Y0110266D02*
X0068592Y0110266D01*
X0081592Y0110266D02*
X0092792Y0110266D01*
X0092792Y0109668D02*
X0081592Y0109668D01*
X0081592Y0109069D02*
X0092792Y0109069D01*
X0092792Y0108471D02*
X0081592Y0108471D01*
X0081592Y0107872D02*
X0092792Y0107872D01*
X0092792Y0107274D02*
X0081592Y0107274D01*
X0081592Y0106675D02*
X0092792Y0106675D01*
X0092792Y0106077D02*
X0081592Y0106077D01*
X0081592Y0105478D02*
X0092792Y0105478D01*
X0092792Y0104880D02*
X0081592Y0104880D01*
X0081592Y0104281D02*
X0092792Y0104281D01*
X0092792Y0103683D02*
X0081592Y0103683D01*
X0081592Y0103084D02*
X0092792Y0103084D01*
X0092792Y0102486D02*
X0081592Y0102486D01*
X0081592Y0101887D02*
X0092792Y0101887D01*
X0092792Y0101289D02*
X0081592Y0101289D01*
X0081592Y0100690D02*
X0092792Y0100690D01*
X0092207Y0100092D02*
X0081592Y0100092D01*
X0081592Y0099493D02*
X0091609Y0099493D01*
X0091010Y0098895D02*
X0081592Y0098895D01*
X0081592Y0098296D02*
X0090412Y0098296D01*
X0089813Y0097698D02*
X0081592Y0097698D01*
X0081592Y0097099D02*
X0089215Y0097099D01*
X0088616Y0096501D02*
X0081592Y0096501D01*
X0081592Y0095902D02*
X0088018Y0095902D01*
X0087419Y0095303D02*
X0081592Y0095303D01*
X0081592Y0094705D02*
X0086820Y0094705D01*
X0086222Y0094106D02*
X0081592Y0094106D01*
X0081592Y0093508D02*
X0085623Y0093508D01*
X0085025Y0092909D02*
X0081592Y0092909D01*
X0081592Y0092311D02*
X0084426Y0092311D01*
X0083828Y0091712D02*
X0081592Y0091712D01*
X0081592Y0091114D02*
X0083229Y0091114D01*
X0082631Y0090515D02*
X0081592Y0090515D01*
X0081592Y0089917D02*
X0082032Y0089917D01*
X0083881Y0087523D02*
X0111551Y0087523D01*
X0111551Y0088121D02*
X0084479Y0088121D01*
X0085078Y0088720D02*
X0111551Y0088720D01*
X0111551Y0089318D02*
X0085677Y0089318D01*
X0086275Y0089917D02*
X0111551Y0089917D01*
X0111551Y0090515D02*
X0086874Y0090515D01*
X0087472Y0091114D02*
X0111551Y0091114D01*
X0111551Y0091712D02*
X0088071Y0091712D01*
X0088669Y0092311D02*
X0111551Y0092311D01*
X0111551Y0092909D02*
X0089268Y0092909D01*
X0089866Y0093508D02*
X0111551Y0093508D01*
X0111551Y0094106D02*
X0090465Y0094106D01*
X0091063Y0094705D02*
X0111551Y0094705D01*
X0111551Y0095303D02*
X0091662Y0095303D01*
X0092260Y0095902D02*
X0111551Y0095902D01*
X0111551Y0096501D02*
X0092859Y0096501D01*
X0093457Y0097099D02*
X0111551Y0097099D01*
X0111551Y0097698D02*
X0094056Y0097698D01*
X0094654Y0098296D02*
X0111551Y0098296D01*
X0111551Y0098895D02*
X0095253Y0098895D01*
X0095792Y0099493D02*
X0111551Y0099493D01*
X0111551Y0100092D02*
X0095792Y0100092D01*
X0095792Y0100690D02*
X0111551Y0100690D01*
X0111551Y0101289D02*
X0095792Y0101289D01*
X0095792Y0101887D02*
X0111551Y0101887D01*
X0111551Y0102486D02*
X0095792Y0102486D01*
X0095792Y0103084D02*
X0111551Y0103084D01*
X0111551Y0103683D02*
X0095792Y0103683D01*
X0095792Y0104281D02*
X0111551Y0104281D01*
X0111551Y0104880D02*
X0095792Y0104880D01*
X0095792Y0105478D02*
X0111551Y0105478D01*
X0111551Y0106077D02*
X0095792Y0106077D01*
X0095792Y0106675D02*
X0111551Y0106675D01*
X0111551Y0107274D02*
X0095792Y0107274D01*
X0095792Y0107872D02*
X0111551Y0107872D01*
X0111551Y0108471D02*
X0095792Y0108471D01*
X0095792Y0109069D02*
X0111551Y0109069D01*
X0111551Y0109668D02*
X0095792Y0109668D01*
X0095792Y0110266D02*
X0111551Y0110266D01*
X0111551Y0110865D02*
X0095792Y0110865D01*
X0095792Y0111463D02*
X0111551Y0111463D01*
X0111551Y0112062D02*
X0095792Y0112062D01*
X0095792Y0112660D02*
X0111551Y0112660D01*
X0111551Y0113259D02*
X0095792Y0113259D01*
X0095792Y0113857D02*
X0111551Y0113857D01*
X0111551Y0114456D02*
X0095792Y0114456D01*
X0095792Y0115054D02*
X0111551Y0115054D01*
X0111551Y0115653D02*
X0095792Y0115653D01*
X0095792Y0116251D02*
X0111551Y0116251D01*
X0111551Y0116850D02*
X0095792Y0116850D01*
X0095792Y0117448D02*
X0111028Y0117448D01*
X0110429Y0118047D02*
X0095792Y0118047D01*
X0095792Y0118645D02*
X0109831Y0118645D01*
X0109232Y0119244D02*
X0095792Y0119244D01*
X0095792Y0119842D02*
X0108634Y0119842D01*
X0108035Y0120441D02*
X0095792Y0120441D01*
X0095792Y0121039D02*
X0107436Y0121039D01*
X0106838Y0121638D02*
X0095792Y0121638D01*
X0095792Y0122237D02*
X0106239Y0122237D01*
X0105641Y0122835D02*
X0095792Y0122835D01*
X0095792Y0123434D02*
X0105042Y0123434D01*
X0104444Y0124032D02*
X0095792Y0124032D01*
X0095792Y0124631D02*
X0103845Y0124631D01*
X0103247Y0125229D02*
X0095792Y0125229D01*
X0095792Y0125828D02*
X0102648Y0125828D01*
X0102050Y0126426D02*
X0095792Y0126426D01*
X0095792Y0127025D02*
X0101451Y0127025D01*
X0100853Y0127623D02*
X0095792Y0127623D01*
X0095792Y0128222D02*
X0100254Y0128222D01*
X0099656Y0128820D02*
X0096383Y0128820D01*
X0096981Y0129419D02*
X0099057Y0129419D01*
X0098592Y0130017D02*
X0097580Y0130017D01*
X0098178Y0130616D02*
X0098592Y0130616D01*
X0098592Y0131214D02*
X0098192Y0131214D01*
X0098192Y0131813D02*
X0098592Y0131813D01*
X0098592Y0132411D02*
X0098192Y0132411D01*
X0098192Y0133010D02*
X0098592Y0133010D01*
X0098592Y0133608D02*
X0098192Y0133608D01*
X0097846Y0134207D02*
X0098592Y0134207D01*
X0098592Y0134805D02*
X0097247Y0134805D01*
X0096649Y0135404D02*
X0098592Y0135404D01*
X0098413Y0136002D02*
X0096050Y0136002D01*
X0097216Y0137199D02*
X0085428Y0137199D01*
X0085792Y0137798D02*
X0096618Y0137798D01*
X0096019Y0138396D02*
X0095959Y0138396D01*
X0097815Y0136601D02*
X0084830Y0136601D01*
X0086050Y0136002D02*
X0092534Y0136002D01*
X0091936Y0135404D02*
X0086649Y0135404D01*
X0087247Y0134805D02*
X0091337Y0134805D01*
X0090739Y0134207D02*
X0087846Y0134207D01*
X0088192Y0133608D02*
X0090392Y0133608D01*
X0090392Y0133010D02*
X0088192Y0133010D01*
X0088192Y0132411D02*
X0090392Y0132411D01*
X0090392Y0131813D02*
X0088192Y0131813D01*
X0088192Y0131214D02*
X0090392Y0131214D01*
X0090406Y0130616D02*
X0088178Y0130616D01*
X0087580Y0130017D02*
X0091004Y0130017D01*
X0091603Y0129419D02*
X0086981Y0129419D01*
X0086383Y0128820D02*
X0092201Y0128820D01*
X0092792Y0128222D02*
X0081592Y0128222D01*
X0081592Y0128820D02*
X0082201Y0128820D01*
X0081603Y0129419D02*
X0081592Y0129419D01*
X0081592Y0127623D02*
X0092792Y0127623D01*
X0092792Y0127025D02*
X0081592Y0127025D01*
X0081592Y0126426D02*
X0092792Y0126426D01*
X0092792Y0125828D02*
X0081592Y0125828D01*
X0081592Y0125229D02*
X0092792Y0125229D01*
X0092792Y0124631D02*
X0081592Y0124631D01*
X0081592Y0124032D02*
X0092792Y0124032D01*
X0092792Y0123434D02*
X0081592Y0123434D01*
X0081592Y0122835D02*
X0092792Y0122835D01*
X0092792Y0122237D02*
X0081592Y0122237D01*
X0081592Y0121638D02*
X0092792Y0121638D01*
X0092792Y0121039D02*
X0081592Y0121039D01*
X0081592Y0120441D02*
X0092792Y0120441D01*
X0092792Y0119842D02*
X0081592Y0119842D01*
X0081592Y0119244D02*
X0092792Y0119244D01*
X0092792Y0118645D02*
X0081592Y0118645D01*
X0081592Y0118047D02*
X0092792Y0118047D01*
X0092792Y0117448D02*
X0081592Y0117448D01*
X0081592Y0116850D02*
X0092792Y0116850D01*
X0092792Y0116251D02*
X0081592Y0116251D01*
X0081592Y0115653D02*
X0092792Y0115653D01*
X0092792Y0115054D02*
X0081592Y0115054D01*
X0081592Y0114456D02*
X0092792Y0114456D01*
X0092792Y0113857D02*
X0081592Y0113857D01*
X0081592Y0113259D02*
X0092792Y0113259D01*
X0092792Y0112660D02*
X0081592Y0112660D01*
X0081592Y0112062D02*
X0092792Y0112062D01*
X0092792Y0111463D02*
X0081592Y0111463D01*
X0081592Y0110865D02*
X0092792Y0110865D01*
X0107490Y0125229D02*
X0122792Y0125229D01*
X0122792Y0124631D02*
X0108088Y0124631D01*
X0108687Y0124032D02*
X0122792Y0124032D01*
X0122792Y0123434D02*
X0109285Y0123434D01*
X0109884Y0122835D02*
X0122792Y0122835D01*
X0122792Y0122237D02*
X0110482Y0122237D01*
X0111081Y0121638D02*
X0122792Y0121638D01*
X0122792Y0121039D02*
X0111679Y0121039D01*
X0112278Y0120441D02*
X0122792Y0120441D01*
X0122792Y0119842D02*
X0112876Y0119842D01*
X0113475Y0119244D02*
X0122792Y0119244D01*
X0122792Y0118645D02*
X0114073Y0118645D01*
X0114551Y0118047D02*
X0122792Y0118047D01*
X0122792Y0117448D02*
X0114551Y0117448D01*
X0114551Y0116850D02*
X0122792Y0116850D01*
X0122792Y0116251D02*
X0114551Y0116251D01*
X0114551Y0115653D02*
X0122792Y0115653D01*
X0122792Y0115054D02*
X0114551Y0115054D01*
X0114551Y0114456D02*
X0122792Y0114456D01*
X0122349Y0113857D02*
X0114551Y0113857D01*
X0114551Y0113259D02*
X0121750Y0113259D01*
X0121152Y0112660D02*
X0114551Y0112660D01*
X0114551Y0112062D02*
X0120553Y0112062D01*
X0119955Y0111463D02*
X0114551Y0111463D01*
X0114551Y0110865D02*
X0119356Y0110865D01*
X0118758Y0110266D02*
X0114551Y0110266D01*
X0114551Y0109668D02*
X0118159Y0109668D01*
X0117561Y0109069D02*
X0114551Y0109069D01*
X0114551Y0108471D02*
X0116962Y0108471D01*
X0116460Y0107872D02*
X0114551Y0107872D01*
X0114551Y0107274D02*
X0116460Y0107274D01*
X0116460Y0106675D02*
X0114551Y0106675D01*
X0114551Y0106077D02*
X0116460Y0106077D01*
X0116460Y0105478D02*
X0114551Y0105478D01*
X0114551Y0104880D02*
X0116460Y0104880D01*
X0116460Y0104281D02*
X0114551Y0104281D01*
X0114551Y0103683D02*
X0116460Y0103683D01*
X0116460Y0103084D02*
X0114551Y0103084D01*
X0114551Y0102486D02*
X0116460Y0102486D01*
X0116460Y0101887D02*
X0114551Y0101887D01*
X0114551Y0101289D02*
X0116460Y0101289D01*
X0116460Y0100690D02*
X0114551Y0100690D01*
X0114551Y0100092D02*
X0116460Y0100092D01*
X0116460Y0099493D02*
X0114551Y0099493D01*
X0114551Y0098895D02*
X0116460Y0098895D01*
X0116460Y0098296D02*
X0114551Y0098296D01*
X0114551Y0097698D02*
X0116460Y0097698D01*
X0116460Y0097099D02*
X0114551Y0097099D01*
X0114551Y0096501D02*
X0116460Y0096501D01*
X0116460Y0095902D02*
X0114551Y0095902D01*
X0114551Y0095303D02*
X0116460Y0095303D01*
X0116460Y0094705D02*
X0114551Y0094705D01*
X0114551Y0094106D02*
X0116460Y0094106D01*
X0116460Y0093508D02*
X0114551Y0093508D01*
X0114551Y0092909D02*
X0116460Y0092909D01*
X0116460Y0092311D02*
X0114551Y0092311D01*
X0114551Y0091712D02*
X0116460Y0091712D01*
X0116460Y0091114D02*
X0114551Y0091114D01*
X0114551Y0090515D02*
X0116460Y0090515D01*
X0116460Y0089917D02*
X0114551Y0089917D01*
X0114551Y0089318D02*
X0116460Y0089318D01*
X0116460Y0088720D02*
X0114551Y0088720D01*
X0114551Y0088121D02*
X0116460Y0088121D01*
X0116460Y0087523D02*
X0114551Y0087523D01*
X0114551Y0086924D02*
X0116460Y0086924D01*
X0116460Y0086326D02*
X0114551Y0086326D01*
X0114551Y0085727D02*
X0116460Y0085727D01*
X0116460Y0085129D02*
X0114551Y0085129D01*
X0114551Y0084530D02*
X0116460Y0084530D01*
X0116460Y0083932D02*
X0114551Y0083932D01*
X0114551Y0083333D02*
X0116460Y0083333D01*
X0116460Y0082735D02*
X0114551Y0082735D01*
X0114551Y0082136D02*
X0116460Y0082136D01*
X0116460Y0081538D02*
X0114551Y0081538D01*
X0114551Y0080939D02*
X0116460Y0080939D01*
X0116460Y0080341D02*
X0114551Y0080341D01*
X0114551Y0079742D02*
X0116460Y0079742D01*
X0116460Y0079144D02*
X0114551Y0079144D01*
X0114551Y0078545D02*
X0116460Y0078545D01*
X0116460Y0077947D02*
X0114551Y0077947D01*
X0114551Y0077348D02*
X0116460Y0077348D01*
X0116460Y0076750D02*
X0114551Y0076750D01*
X0114551Y0076151D02*
X0116460Y0076151D01*
X0116460Y0075553D02*
X0114551Y0075553D01*
X0114551Y0074954D02*
X0116460Y0074954D01*
X0116460Y0074356D02*
X0114551Y0074356D01*
X0114551Y0073757D02*
X0116460Y0073757D01*
X0116460Y0073159D02*
X0114551Y0073159D01*
X0114551Y0072560D02*
X0116460Y0072560D01*
X0116460Y0071962D02*
X0114551Y0071962D01*
X0114551Y0071363D02*
X0116460Y0071363D01*
X0116460Y0070765D02*
X0114551Y0070765D01*
X0114551Y0070166D02*
X0116460Y0070166D01*
X0116460Y0069568D02*
X0114551Y0069568D01*
X0114551Y0068969D02*
X0116075Y0068969D01*
X0115477Y0068370D02*
X0114208Y0068370D01*
X0113609Y0067772D02*
X0114878Y0067772D01*
X0114280Y0067173D02*
X0113011Y0067173D01*
X0112412Y0066575D02*
X0113681Y0066575D01*
X0113083Y0065976D02*
X0111814Y0065976D01*
X0111215Y0065378D02*
X0112484Y0065378D01*
X0111886Y0064779D02*
X0109420Y0064779D01*
X0108822Y0064181D02*
X0111287Y0064181D01*
X0110689Y0063582D02*
X0108223Y0063582D01*
X0108263Y0062984D02*
X0110090Y0062984D01*
X0109492Y0062385D02*
X0108263Y0062385D01*
X0108263Y0061787D02*
X0108893Y0061787D01*
X0108295Y0061188D02*
X0108263Y0061188D01*
X0110143Y0058794D02*
X0130969Y0058794D01*
X0131217Y0058196D02*
X0109545Y0058196D01*
X0108946Y0057597D02*
X0131465Y0057597D01*
X0131713Y0056999D02*
X0108348Y0056999D01*
X0107749Y0056400D02*
X0132209Y0056400D01*
X0131786Y0056824D02*
X0134009Y0054601D01*
X0136913Y0053398D01*
X0140057Y0053398D01*
X0142961Y0054601D01*
X0145184Y0056824D01*
X0146387Y0059728D01*
X0146387Y0062872D01*
X0145184Y0065776D01*
X0142961Y0067999D01*
X0140057Y0069202D01*
X0136913Y0069202D01*
X0134009Y0067999D01*
X0131786Y0065776D01*
X0130583Y0062872D01*
X0130583Y0059728D01*
X0131786Y0056824D01*
X0132808Y0055802D02*
X0107151Y0055802D01*
X0105329Y0054605D02*
X0104718Y0054605D01*
X0104730Y0054006D02*
X0104120Y0054006D01*
X0104132Y0053408D02*
X0103521Y0053408D01*
X0103735Y0052809D02*
X0103865Y0052809D01*
X0103865Y0052211D02*
X0103735Y0052211D01*
X0103735Y0051612D02*
X0103865Y0051612D01*
X0103865Y0051014D02*
X0103735Y0051014D01*
X0103735Y0050415D02*
X0103865Y0050415D01*
X0103865Y0049817D02*
X0103735Y0049817D01*
X0103494Y0049218D02*
X0104106Y0049218D01*
X0104704Y0048620D02*
X0102896Y0048620D01*
X0102297Y0048021D02*
X0105303Y0048021D01*
X0105902Y0047423D02*
X0101698Y0047423D01*
X0096886Y0047423D02*
X0092683Y0047423D01*
X0092117Y0046857D02*
X0094720Y0049460D01*
X0094720Y0053140D01*
X0092117Y0055743D01*
X0088436Y0055743D01*
X0085833Y0053140D01*
X0085833Y0049460D01*
X0088436Y0046857D01*
X0092117Y0046857D01*
X0093281Y0048021D02*
X0096287Y0048021D01*
X0095689Y0048620D02*
X0093880Y0048620D01*
X0094478Y0049218D02*
X0095090Y0049218D01*
X0094849Y0049817D02*
X0094720Y0049817D01*
X0094720Y0050415D02*
X0094849Y0050415D01*
X0094849Y0051014D02*
X0094720Y0051014D01*
X0094720Y0051612D02*
X0094849Y0051612D01*
X0094849Y0052211D02*
X0094720Y0052211D01*
X0094720Y0052809D02*
X0094849Y0052809D01*
X0095116Y0053408D02*
X0094452Y0053408D01*
X0093854Y0054006D02*
X0095715Y0054006D01*
X0096313Y0054605D02*
X0093255Y0054605D01*
X0092657Y0055203D02*
X0096912Y0055203D01*
X0096786Y0056999D02*
X0101837Y0056999D01*
X0102271Y0056400D02*
X0080702Y0056400D01*
X0080104Y0055802D02*
X0101673Y0055802D01*
X0101239Y0057597D02*
X0097385Y0057597D01*
X0097984Y0058196D02*
X0100640Y0058196D01*
X0100042Y0058794D02*
X0098582Y0058794D01*
X0099181Y0059393D02*
X0099443Y0059393D01*
X0099376Y0059991D02*
X0099247Y0059991D01*
X0099247Y0060590D02*
X0099376Y0060590D01*
X0099376Y0061188D02*
X0099247Y0061188D01*
X0099247Y0061787D02*
X0099376Y0061787D01*
X0099376Y0062385D02*
X0099247Y0062385D01*
X0099247Y0062984D02*
X0099376Y0062984D01*
X0099818Y0063582D02*
X0098805Y0063582D01*
X0098207Y0064181D02*
X0100417Y0064181D01*
X0101015Y0064779D02*
X0097608Y0064779D01*
X0097010Y0065378D02*
X0101614Y0065378D01*
X0101133Y0066857D02*
X0103735Y0069460D01*
X0103735Y0073140D01*
X0101133Y0075743D01*
X0097452Y0075743D01*
X0094849Y0073140D01*
X0094849Y0069460D01*
X0097452Y0066857D01*
X0101133Y0066857D01*
X0101449Y0067173D02*
X0106151Y0067173D01*
X0105552Y0067772D02*
X0102048Y0067772D01*
X0102646Y0068370D02*
X0104954Y0068370D01*
X0104355Y0068969D02*
X0103245Y0068969D01*
X0103735Y0069568D02*
X0103865Y0069568D01*
X0103865Y0070166D02*
X0103735Y0070166D01*
X0103735Y0070765D02*
X0103865Y0070765D01*
X0103865Y0071363D02*
X0103735Y0071363D01*
X0103735Y0071962D02*
X0103865Y0071962D01*
X0103865Y0072560D02*
X0103735Y0072560D01*
X0103717Y0073159D02*
X0103883Y0073159D01*
X0104481Y0073757D02*
X0103119Y0073757D01*
X0102520Y0074356D02*
X0105080Y0074356D01*
X0105678Y0074954D02*
X0101922Y0074954D01*
X0101323Y0075553D02*
X0106277Y0075553D01*
X0110339Y0075553D02*
X0111551Y0075553D01*
X0111551Y0076151D02*
X0072509Y0076151D01*
X0073108Y0076750D02*
X0111551Y0076750D01*
X0111551Y0077348D02*
X0073706Y0077348D01*
X0074305Y0077947D02*
X0111551Y0077947D01*
X0111551Y0078545D02*
X0074903Y0078545D01*
X0075502Y0079144D02*
X0111551Y0079144D01*
X0111551Y0079742D02*
X0076100Y0079742D01*
X0076699Y0080341D02*
X0111551Y0080341D01*
X0111551Y0080939D02*
X0077297Y0080939D01*
X0077896Y0081538D02*
X0111551Y0081538D01*
X0111551Y0082136D02*
X0078494Y0082136D01*
X0079093Y0082735D02*
X0111551Y0082735D01*
X0111551Y0083333D02*
X0079691Y0083333D01*
X0080290Y0083932D02*
X0111551Y0083932D01*
X0111551Y0084530D02*
X0080888Y0084530D01*
X0081487Y0085129D02*
X0111551Y0085129D01*
X0111551Y0085727D02*
X0082085Y0085727D01*
X0082684Y0086326D02*
X0111551Y0086326D01*
X0111551Y0086924D02*
X0083282Y0086924D01*
X0083857Y0075553D02*
X0088245Y0075553D01*
X0087647Y0074954D02*
X0084456Y0074954D01*
X0085054Y0074356D02*
X0087048Y0074356D01*
X0086450Y0073757D02*
X0085653Y0073757D01*
X0081561Y0073757D02*
X0080961Y0073757D01*
X0080961Y0073159D02*
X0081561Y0073159D01*
X0081561Y0072560D02*
X0080961Y0072560D01*
X0080961Y0071962D02*
X0081561Y0071962D01*
X0081561Y0074356D02*
X0080961Y0074356D01*
X0080961Y0074954D02*
X0081561Y0074954D01*
X0081561Y0075553D02*
X0080961Y0075553D01*
X0078664Y0075553D02*
X0074276Y0075553D01*
X0074875Y0074954D02*
X0078065Y0074954D01*
X0077467Y0074356D02*
X0075473Y0074356D01*
X0076072Y0073757D02*
X0076868Y0073757D01*
X0068562Y0081538D02*
X0028100Y0081538D01*
X0028100Y0082136D02*
X0068592Y0082136D01*
X0068592Y0082735D02*
X0028100Y0082735D01*
X0028100Y0083333D02*
X0068592Y0083333D01*
X0068592Y0083932D02*
X0028100Y0083932D01*
X0028100Y0084530D02*
X0068592Y0084530D01*
X0068592Y0085129D02*
X0028100Y0085129D01*
X0028100Y0085727D02*
X0068592Y0085727D01*
X0068592Y0086326D02*
X0028100Y0086326D01*
X0028100Y0086924D02*
X0068592Y0086924D01*
X0068592Y0087523D02*
X0028100Y0087523D01*
X0028100Y0088121D02*
X0068592Y0088121D01*
X0068592Y0088720D02*
X0028100Y0088720D01*
X0028100Y0089318D02*
X0068592Y0089318D01*
X0068592Y0089917D02*
X0028100Y0089917D01*
X0028100Y0090515D02*
X0068592Y0090515D01*
X0068592Y0091114D02*
X0028100Y0091114D01*
X0028100Y0091712D02*
X0068592Y0091712D01*
X0068592Y0092311D02*
X0028100Y0092311D01*
X0028100Y0092909D02*
X0068592Y0092909D01*
X0068592Y0093508D02*
X0028100Y0093508D01*
X0028100Y0094106D02*
X0068592Y0094106D01*
X0067964Y0080939D02*
X0028100Y0080939D01*
X0028100Y0080341D02*
X0067365Y0080341D01*
X0066766Y0079742D02*
X0028100Y0079742D01*
X0028100Y0079144D02*
X0066168Y0079144D01*
X0065569Y0078545D02*
X0028100Y0078545D01*
X0028100Y0077947D02*
X0064971Y0077947D01*
X0064372Y0077348D02*
X0028100Y0077348D01*
X0028100Y0076750D02*
X0063774Y0076750D01*
X0063175Y0076151D02*
X0028100Y0076151D01*
X0028100Y0075553D02*
X0062577Y0075553D01*
X0061978Y0074954D02*
X0028100Y0074954D01*
X0028100Y0074356D02*
X0061380Y0074356D01*
X0060781Y0073757D02*
X0028100Y0073757D01*
X0028100Y0073159D02*
X0060183Y0073159D01*
X0059713Y0072560D02*
X0028100Y0072560D01*
X0028100Y0071962D02*
X0059713Y0071962D01*
X0059713Y0071363D02*
X0028100Y0071363D01*
X0028100Y0070765D02*
X0059713Y0070765D01*
X0059713Y0070166D02*
X0028100Y0070166D01*
X0028100Y0069568D02*
X0059713Y0069568D01*
X0059713Y0068969D02*
X0042234Y0068969D01*
X0041671Y0069202D02*
X0038527Y0069202D01*
X0035623Y0067999D01*
X0033400Y0065776D01*
X0032197Y0062872D01*
X0032197Y0059728D01*
X0033400Y0056824D01*
X0035623Y0054601D01*
X0038527Y0053398D01*
X0041671Y0053398D01*
X0044576Y0054601D01*
X0046798Y0056824D01*
X0048002Y0059728D01*
X0048002Y0062872D01*
X0046798Y0065776D01*
X0044576Y0067999D01*
X0041671Y0069202D01*
X0043679Y0068370D02*
X0059713Y0068370D01*
X0059713Y0067772D02*
X0044803Y0067772D01*
X0045401Y0067173D02*
X0059713Y0067173D01*
X0059713Y0066575D02*
X0046000Y0066575D01*
X0046598Y0065976D02*
X0059713Y0065976D01*
X0059713Y0065378D02*
X0046964Y0065378D01*
X0047211Y0064779D02*
X0059713Y0064779D01*
X0059713Y0064181D02*
X0047459Y0064181D01*
X0047707Y0063582D02*
X0059713Y0063582D01*
X0059713Y0062984D02*
X0047955Y0062984D01*
X0048002Y0062385D02*
X0059713Y0062385D01*
X0059713Y0061787D02*
X0048002Y0061787D01*
X0048002Y0061188D02*
X0059713Y0061188D01*
X0059713Y0060590D02*
X0048002Y0060590D01*
X0048002Y0059991D02*
X0059713Y0059991D01*
X0059713Y0059393D02*
X0047863Y0059393D01*
X0047615Y0058794D02*
X0059713Y0058794D01*
X0059713Y0058196D02*
X0047367Y0058196D01*
X0047119Y0057597D02*
X0059713Y0057597D01*
X0059713Y0056999D02*
X0046871Y0056999D01*
X0046375Y0056400D02*
X0059713Y0056400D01*
X0059713Y0055802D02*
X0045777Y0055802D01*
X0045178Y0055203D02*
X0059713Y0055203D01*
X0060111Y0054605D02*
X0044580Y0054605D01*
X0043140Y0054006D02*
X0060709Y0054006D01*
X0061308Y0053408D02*
X0041695Y0053408D01*
X0038503Y0053408D02*
X0028100Y0053408D01*
X0028100Y0054006D02*
X0037058Y0054006D01*
X0035619Y0054605D02*
X0028100Y0054605D01*
X0028100Y0055203D02*
X0035020Y0055203D01*
X0034422Y0055802D02*
X0028100Y0055802D01*
X0028100Y0056400D02*
X0033823Y0056400D01*
X0033327Y0056999D02*
X0028100Y0056999D01*
X0028100Y0057597D02*
X0033079Y0057597D01*
X0032832Y0058196D02*
X0028100Y0058196D01*
X0028100Y0058794D02*
X0032584Y0058794D01*
X0032336Y0059393D02*
X0028100Y0059393D01*
X0028100Y0059991D02*
X0032197Y0059991D01*
X0032197Y0060590D02*
X0028100Y0060590D01*
X0028100Y0061188D02*
X0032197Y0061188D01*
X0032197Y0061787D02*
X0028100Y0061787D01*
X0028100Y0062385D02*
X0032197Y0062385D01*
X0032243Y0062984D02*
X0028100Y0062984D01*
X0028100Y0063582D02*
X0032491Y0063582D01*
X0032739Y0064181D02*
X0028100Y0064181D01*
X0028100Y0064779D02*
X0032987Y0064779D01*
X0033235Y0065378D02*
X0028100Y0065378D01*
X0028100Y0065976D02*
X0033600Y0065976D01*
X0034199Y0066575D02*
X0028100Y0066575D01*
X0028100Y0067173D02*
X0034797Y0067173D01*
X0035396Y0067772D02*
X0028100Y0067772D01*
X0028100Y0068370D02*
X0036519Y0068370D01*
X0037964Y0068969D02*
X0028100Y0068969D01*
X0028100Y0052809D02*
X0061906Y0052809D01*
X0062505Y0052211D02*
X0028100Y0052211D01*
X0028100Y0051612D02*
X0063103Y0051612D01*
X0063702Y0051014D02*
X0028100Y0051014D01*
X0028100Y0050415D02*
X0064300Y0050415D01*
X0064899Y0049817D02*
X0028100Y0049817D01*
X0028100Y0049218D02*
X0065497Y0049218D01*
X0066096Y0048620D02*
X0028100Y0048620D01*
X0028100Y0048021D02*
X0066694Y0048021D01*
X0067293Y0047423D02*
X0028100Y0047423D01*
X0028100Y0046824D02*
X0067891Y0046824D01*
X0068490Y0046226D02*
X0028100Y0046226D01*
X0028100Y0045627D02*
X0069088Y0045627D01*
X0075401Y0045627D02*
X0150484Y0045627D01*
X0150484Y0045029D02*
X0028100Y0045029D01*
X0028100Y0044430D02*
X0150484Y0044430D01*
X0150484Y0043832D02*
X0028100Y0043832D01*
X0028100Y0043233D02*
X0150484Y0043233D01*
X0150484Y0042634D02*
X0028100Y0042634D01*
X0028100Y0042036D02*
X0150484Y0042036D01*
X0150484Y0041437D02*
X0028100Y0041437D01*
X0028100Y0040839D02*
X0150484Y0040839D01*
X0150484Y0040240D02*
X0028100Y0040240D01*
X0028100Y0039642D02*
X0150484Y0039642D01*
X0150484Y0039043D02*
X0028100Y0039043D01*
X0028100Y0038445D02*
X0150484Y0038445D01*
X0150484Y0037846D02*
X0028100Y0037846D01*
X0028100Y0037248D02*
X0150484Y0037248D01*
X0150484Y0036649D02*
X0028100Y0036649D01*
X0028100Y0036051D02*
X0150484Y0036051D01*
X0150484Y0035452D02*
X0028100Y0035452D01*
X0028100Y0034854D02*
X0150484Y0034854D01*
X0150484Y0034255D02*
X0028100Y0034255D01*
X0028100Y0033657D02*
X0150484Y0033657D01*
X0150484Y0033058D02*
X0028100Y0033058D01*
X0028100Y0032460D02*
X0150484Y0032460D01*
X0150484Y0031861D02*
X0028100Y0031861D01*
X0028100Y0031263D02*
X0150484Y0031263D01*
X0150484Y0030664D02*
X0028100Y0030664D01*
X0028100Y0030066D02*
X0150484Y0030066D01*
X0150484Y0029467D02*
X0028100Y0029467D01*
X0028100Y0028869D02*
X0150484Y0028869D01*
X0150484Y0028270D02*
X0028100Y0028270D01*
X0028100Y0027672D02*
X0150484Y0027672D01*
X0150484Y0027073D02*
X0028100Y0027073D01*
X0028100Y0026475D02*
X0150484Y0026475D01*
X0150484Y0025876D02*
X0028100Y0025876D01*
X0028100Y0025278D02*
X0150484Y0025278D01*
X0150484Y0024679D02*
X0028100Y0024679D01*
X0028100Y0024081D02*
X0150484Y0024081D01*
X0150484Y0023482D02*
X0028100Y0023482D01*
X0028100Y0022884D02*
X0150484Y0022884D01*
X0150484Y0022285D02*
X0028100Y0022285D01*
X0028100Y0021687D02*
X0150484Y0021687D01*
X0150484Y0021088D02*
X0028100Y0021088D01*
X0028100Y0020490D02*
X0150484Y0020490D01*
X0150484Y0019891D02*
X0028100Y0019891D01*
X0028100Y0019293D02*
X0150484Y0019293D01*
X0150484Y0018694D02*
X0028100Y0018694D01*
X0076000Y0046226D02*
X0150484Y0046226D01*
X0150484Y0046824D02*
X0076598Y0046824D01*
X0077197Y0047423D02*
X0078854Y0047423D01*
X0078256Y0048021D02*
X0077795Y0048021D01*
X0083667Y0047423D02*
X0087870Y0047423D01*
X0087271Y0048021D02*
X0084266Y0048021D01*
X0084864Y0048620D02*
X0086673Y0048620D01*
X0086074Y0049218D02*
X0085463Y0049218D01*
X0085704Y0049817D02*
X0085833Y0049817D01*
X0085833Y0050415D02*
X0085704Y0050415D01*
X0085704Y0051014D02*
X0085833Y0051014D01*
X0085833Y0051612D02*
X0085704Y0051612D01*
X0085704Y0052211D02*
X0085833Y0052211D01*
X0085833Y0052809D02*
X0085704Y0052809D01*
X0085437Y0053408D02*
X0086100Y0053408D01*
X0086699Y0054006D02*
X0084838Y0054006D01*
X0084240Y0054605D02*
X0087297Y0054605D01*
X0087896Y0055203D02*
X0083641Y0055203D01*
X0083806Y0056999D02*
X0081301Y0056999D01*
X0081899Y0057597D02*
X0083207Y0057597D01*
X0082609Y0058196D02*
X0082498Y0058196D01*
X0087771Y0056999D02*
X0092821Y0056999D01*
X0092223Y0057597D02*
X0088369Y0057597D01*
X0088968Y0058196D02*
X0091624Y0058196D01*
X0091026Y0058794D02*
X0089566Y0058794D01*
X0090165Y0059393D02*
X0090427Y0059393D01*
X0090361Y0059991D02*
X0090231Y0059991D01*
X0090231Y0060590D02*
X0090361Y0060590D01*
X0090361Y0061188D02*
X0090231Y0061188D01*
X0090231Y0061787D02*
X0090361Y0061787D01*
X0090361Y0062385D02*
X0090231Y0062385D01*
X0090231Y0062984D02*
X0090361Y0062984D01*
X0090400Y0063582D02*
X0089790Y0063582D01*
X0089802Y0064181D02*
X0089191Y0064181D01*
X0089203Y0064779D02*
X0088593Y0064779D01*
X0091650Y0066575D02*
X0106973Y0066575D01*
X0106375Y0065976D02*
X0092249Y0065976D01*
X0092434Y0067173D02*
X0097135Y0067173D01*
X0096536Y0067772D02*
X0093032Y0067772D01*
X0093631Y0068370D02*
X0095938Y0068370D01*
X0095339Y0068969D02*
X0094229Y0068969D01*
X0094720Y0069568D02*
X0094849Y0069568D01*
X0094849Y0070166D02*
X0094720Y0070166D01*
X0094720Y0070765D02*
X0094849Y0070765D01*
X0094849Y0071363D02*
X0094720Y0071363D01*
X0094720Y0071962D02*
X0094849Y0071962D01*
X0094849Y0072560D02*
X0094720Y0072560D01*
X0094702Y0073159D02*
X0094867Y0073159D01*
X0095465Y0073757D02*
X0094103Y0073757D01*
X0093505Y0074356D02*
X0096064Y0074356D01*
X0096662Y0074954D02*
X0092906Y0074954D01*
X0092308Y0075553D02*
X0097261Y0075553D01*
X0110938Y0074954D02*
X0111551Y0074954D01*
X0111536Y0074356D02*
X0111551Y0074356D01*
X0119460Y0074356D02*
X0150484Y0074356D01*
X0150484Y0074954D02*
X0119460Y0074954D01*
X0119460Y0075553D02*
X0150484Y0075553D01*
X0150484Y0076151D02*
X0119460Y0076151D01*
X0119460Y0076750D02*
X0150484Y0076750D01*
X0150484Y0077348D02*
X0119460Y0077348D01*
X0119460Y0077947D02*
X0150484Y0077947D01*
X0150484Y0078545D02*
X0119460Y0078545D01*
X0119460Y0079144D02*
X0150484Y0079144D01*
X0150484Y0079742D02*
X0119460Y0079742D01*
X0119460Y0080341D02*
X0150484Y0080341D01*
X0150484Y0080939D02*
X0119460Y0080939D01*
X0119460Y0081538D02*
X0150484Y0081538D01*
X0150484Y0082136D02*
X0119460Y0082136D01*
X0119460Y0082735D02*
X0150484Y0082735D01*
X0150484Y0083333D02*
X0119460Y0083333D01*
X0119460Y0083932D02*
X0150484Y0083932D01*
X0150484Y0084530D02*
X0119460Y0084530D01*
X0119460Y0085129D02*
X0150484Y0085129D01*
X0150484Y0085727D02*
X0119460Y0085727D01*
X0119460Y0086326D02*
X0150484Y0086326D01*
X0150484Y0086924D02*
X0119460Y0086924D01*
X0119460Y0087523D02*
X0150484Y0087523D01*
X0150484Y0088121D02*
X0119460Y0088121D01*
X0119460Y0088720D02*
X0150484Y0088720D01*
X0150484Y0089318D02*
X0119460Y0089318D01*
X0119460Y0089917D02*
X0150484Y0089917D01*
X0150484Y0090515D02*
X0119460Y0090515D01*
X0119460Y0091114D02*
X0150484Y0091114D01*
X0150484Y0091712D02*
X0119460Y0091712D01*
X0119460Y0092311D02*
X0150484Y0092311D01*
X0150484Y0092909D02*
X0119460Y0092909D01*
X0119460Y0093508D02*
X0150484Y0093508D01*
X0150484Y0094106D02*
X0119460Y0094106D01*
X0119460Y0094705D02*
X0150484Y0094705D01*
X0150484Y0095303D02*
X0130938Y0095303D01*
X0130234Y0095012D02*
X0133139Y0096215D01*
X0135361Y0098438D01*
X0136565Y0101342D01*
X0136565Y0104486D01*
X0135361Y0107390D01*
X0133139Y0109613D01*
X0130234Y0110817D01*
X0127090Y0110817D01*
X0124186Y0109613D01*
X0121963Y0107390D01*
X0120760Y0104486D01*
X0120760Y0101342D01*
X0121963Y0098438D01*
X0124186Y0096215D01*
X0127090Y0095012D01*
X0130234Y0095012D01*
X0132383Y0095902D02*
X0150484Y0095902D01*
X0150484Y0096501D02*
X0133424Y0096501D01*
X0134023Y0097099D02*
X0150484Y0097099D01*
X0150484Y0097698D02*
X0134621Y0097698D01*
X0135220Y0098296D02*
X0150484Y0098296D01*
X0150484Y0098895D02*
X0135551Y0098895D01*
X0135799Y0099493D02*
X0150484Y0099493D01*
X0150484Y0100092D02*
X0136046Y0100092D01*
X0136294Y0100690D02*
X0150484Y0100690D01*
X0150484Y0101289D02*
X0136542Y0101289D01*
X0136565Y0101887D02*
X0150484Y0101887D01*
X0150484Y0102486D02*
X0136565Y0102486D01*
X0136565Y0103084D02*
X0150484Y0103084D01*
X0150484Y0103683D02*
X0136565Y0103683D01*
X0136565Y0104281D02*
X0150484Y0104281D01*
X0150484Y0104880D02*
X0136402Y0104880D01*
X0136154Y0105478D02*
X0150484Y0105478D01*
X0150484Y0106077D02*
X0135906Y0106077D01*
X0135658Y0106675D02*
X0150484Y0106675D01*
X0150484Y0107274D02*
X0135410Y0107274D01*
X0134880Y0107872D02*
X0150484Y0107872D01*
X0150484Y0108471D02*
X0134281Y0108471D01*
X0133683Y0109069D02*
X0150484Y0109069D01*
X0150484Y0109668D02*
X0133007Y0109668D01*
X0131562Y0110266D02*
X0150484Y0110266D01*
X0150484Y0110865D02*
X0123599Y0110865D01*
X0124197Y0111463D02*
X0150484Y0111463D01*
X0150484Y0112062D02*
X0124796Y0112062D01*
X0125394Y0112660D02*
X0150484Y0112660D01*
X0150484Y0113259D02*
X0125792Y0113259D01*
X0125792Y0113857D02*
X0150484Y0113857D01*
X0150484Y0114456D02*
X0125792Y0114456D01*
X0125792Y0115054D02*
X0150484Y0115054D01*
X0150484Y0115653D02*
X0125792Y0115653D01*
X0125792Y0116251D02*
X0150484Y0116251D01*
X0150484Y0116850D02*
X0125792Y0116850D01*
X0125792Y0117448D02*
X0150484Y0117448D01*
X0150484Y0118047D02*
X0125792Y0118047D01*
X0125792Y0118645D02*
X0150484Y0118645D01*
X0150484Y0119244D02*
X0125792Y0119244D01*
X0125792Y0119842D02*
X0150484Y0119842D01*
X0150484Y0120441D02*
X0125792Y0120441D01*
X0125792Y0121039D02*
X0150484Y0121039D01*
X0150484Y0121638D02*
X0125792Y0121638D01*
X0125792Y0122237D02*
X0150484Y0122237D01*
X0150484Y0122835D02*
X0125792Y0122835D01*
X0125792Y0123434D02*
X0150484Y0123434D01*
X0150484Y0124032D02*
X0125792Y0124032D01*
X0125792Y0124631D02*
X0150484Y0124631D01*
X0150484Y0125229D02*
X0125792Y0125229D01*
X0125792Y0125828D02*
X0150484Y0125828D01*
X0150484Y0126426D02*
X0125792Y0126426D01*
X0125792Y0127025D02*
X0150484Y0127025D01*
X0150484Y0127623D02*
X0125792Y0127623D01*
X0125792Y0128222D02*
X0150484Y0128222D01*
X0150484Y0128820D02*
X0126383Y0128820D01*
X0126981Y0129419D02*
X0150484Y0129419D01*
X0150484Y0130017D02*
X0127580Y0130017D01*
X0128178Y0130616D02*
X0150484Y0130616D01*
X0150484Y0131214D02*
X0128192Y0131214D01*
X0128192Y0131813D02*
X0150484Y0131813D01*
X0150484Y0132411D02*
X0128192Y0132411D01*
X0128192Y0133010D02*
X0150484Y0133010D01*
X0150484Y0133608D02*
X0128192Y0133608D01*
X0127846Y0134207D02*
X0150484Y0134207D01*
X0150484Y0134805D02*
X0127247Y0134805D01*
X0126649Y0135404D02*
X0150484Y0135404D01*
X0150484Y0136002D02*
X0126050Y0136002D01*
X0125908Y0138345D02*
X0128192Y0140629D01*
X0128192Y0143860D01*
X0125908Y0146145D01*
X0122677Y0146145D01*
X0120392Y0143860D01*
X0120392Y0140629D01*
X0122677Y0138345D01*
X0125908Y0138345D01*
X0125959Y0138396D02*
X0150484Y0138396D01*
X0150484Y0137798D02*
X0100861Y0137798D01*
X0101459Y0137199D02*
X0150484Y0137199D01*
X0150484Y0136601D02*
X0101592Y0136601D01*
X0101592Y0136002D02*
X0102534Y0136002D01*
X0101936Y0135404D02*
X0101592Y0135404D01*
X0102625Y0138396D02*
X0100262Y0138396D01*
X0099663Y0138995D02*
X0102027Y0138995D01*
X0101428Y0139593D02*
X0099065Y0139593D01*
X0098466Y0140192D02*
X0100830Y0140192D01*
X0099565Y0140790D02*
X0098192Y0140790D01*
X0098192Y0141389D02*
X0098967Y0141389D01*
X0098368Y0141987D02*
X0098192Y0141987D01*
X0100217Y0144381D02*
X0100913Y0144381D01*
X0101512Y0144980D02*
X0099618Y0144980D01*
X0099020Y0145578D02*
X0102110Y0145578D01*
X0098421Y0146177D02*
X0150484Y0146177D01*
X0150484Y0146775D02*
X0097823Y0146775D01*
X0097224Y0147374D02*
X0150484Y0147374D01*
X0150484Y0145578D02*
X0126474Y0145578D01*
X0127072Y0144980D02*
X0150484Y0144980D01*
X0150484Y0144381D02*
X0127671Y0144381D01*
X0128192Y0143783D02*
X0150484Y0143783D01*
X0150484Y0143184D02*
X0128192Y0143184D01*
X0128192Y0142586D02*
X0150484Y0142586D01*
X0150484Y0141987D02*
X0128192Y0141987D01*
X0128192Y0141389D02*
X0150484Y0141389D01*
X0150484Y0140790D02*
X0128192Y0140790D01*
X0127755Y0140192D02*
X0150484Y0140192D01*
X0150484Y0139593D02*
X0127156Y0139593D01*
X0126557Y0138995D02*
X0150484Y0138995D01*
X0122625Y0138396D02*
X0115959Y0138396D01*
X0115908Y0138345D02*
X0118192Y0140629D01*
X0118192Y0143860D01*
X0115908Y0146145D01*
X0112677Y0146145D01*
X0110392Y0143860D01*
X0110392Y0140629D01*
X0112677Y0138345D01*
X0115908Y0138345D01*
X0116557Y0138995D02*
X0122027Y0138995D01*
X0121428Y0139593D02*
X0117156Y0139593D01*
X0117755Y0140192D02*
X0120830Y0140192D01*
X0120392Y0140790D02*
X0118192Y0140790D01*
X0118192Y0141389D02*
X0120392Y0141389D01*
X0120392Y0141987D02*
X0118192Y0141987D01*
X0118192Y0142586D02*
X0120392Y0142586D01*
X0120392Y0143184D02*
X0118192Y0143184D01*
X0118192Y0143783D02*
X0120392Y0143783D01*
X0120913Y0144381D02*
X0117671Y0144381D01*
X0117072Y0144980D02*
X0121512Y0144980D01*
X0122110Y0145578D02*
X0116474Y0145578D01*
X0112110Y0145578D02*
X0106474Y0145578D01*
X0107072Y0144980D02*
X0111512Y0144980D01*
X0110913Y0144381D02*
X0107671Y0144381D01*
X0108192Y0143783D02*
X0110392Y0143783D01*
X0110392Y0143184D02*
X0108192Y0143184D01*
X0108192Y0142586D02*
X0110392Y0142586D01*
X0110392Y0141987D02*
X0108192Y0141987D01*
X0108192Y0141389D02*
X0110392Y0141389D01*
X0110392Y0140790D02*
X0108192Y0140790D01*
X0107755Y0140192D02*
X0110830Y0140192D01*
X0111428Y0139593D02*
X0107156Y0139593D01*
X0106557Y0138995D02*
X0112027Y0138995D01*
X0112625Y0138396D02*
X0105959Y0138396D01*
X0106050Y0136002D02*
X0112534Y0136002D01*
X0112677Y0136145D02*
X0110392Y0133860D01*
X0110392Y0130629D01*
X0112677Y0128345D01*
X0115908Y0128345D01*
X0118192Y0130629D01*
X0118192Y0133860D01*
X0115908Y0136145D01*
X0112677Y0136145D01*
X0111936Y0135404D02*
X0106649Y0135404D01*
X0107247Y0134805D02*
X0111337Y0134805D01*
X0110739Y0134207D02*
X0107846Y0134207D01*
X0108192Y0133608D02*
X0110392Y0133608D01*
X0110392Y0133010D02*
X0108192Y0133010D01*
X0108192Y0132411D02*
X0110392Y0132411D01*
X0110392Y0131813D02*
X0108192Y0131813D01*
X0108192Y0131214D02*
X0110392Y0131214D01*
X0110406Y0130616D02*
X0108178Y0130616D01*
X0107580Y0130017D02*
X0111004Y0130017D01*
X0111603Y0129419D02*
X0106981Y0129419D01*
X0106383Y0128820D02*
X0112201Y0128820D01*
X0116383Y0128820D02*
X0122201Y0128820D01*
X0122792Y0128222D02*
X0104497Y0128222D01*
X0105095Y0127623D02*
X0122792Y0127623D01*
X0122792Y0127025D02*
X0105694Y0127025D01*
X0106293Y0126426D02*
X0122792Y0126426D01*
X0122792Y0125828D02*
X0106891Y0125828D01*
X0116981Y0129419D02*
X0121603Y0129419D01*
X0121004Y0130017D02*
X0117580Y0130017D01*
X0118178Y0130616D02*
X0120406Y0130616D01*
X0120392Y0131214D02*
X0118192Y0131214D01*
X0118192Y0131813D02*
X0120392Y0131813D01*
X0120392Y0132411D02*
X0118192Y0132411D01*
X0118192Y0133010D02*
X0120392Y0133010D01*
X0120392Y0133608D02*
X0118192Y0133608D01*
X0117846Y0134207D02*
X0120739Y0134207D01*
X0121337Y0134805D02*
X0117247Y0134805D01*
X0116649Y0135404D02*
X0121936Y0135404D01*
X0122534Y0136002D02*
X0116050Y0136002D01*
X0092625Y0138396D02*
X0085959Y0138396D01*
X0086557Y0138995D02*
X0092027Y0138995D01*
X0091428Y0139593D02*
X0087156Y0139593D01*
X0087755Y0140192D02*
X0090830Y0140192D01*
X0090392Y0140790D02*
X0088192Y0140790D01*
X0088192Y0141389D02*
X0090392Y0141389D01*
X0090392Y0141987D02*
X0088192Y0141987D01*
X0088192Y0142586D02*
X0090392Y0142586D01*
X0090392Y0143184D02*
X0088192Y0143184D01*
X0088192Y0143783D02*
X0090392Y0143783D01*
X0090913Y0144381D02*
X0087671Y0144381D01*
X0122402Y0109668D02*
X0124317Y0109668D01*
X0123642Y0109069D02*
X0121803Y0109069D01*
X0121205Y0108471D02*
X0123043Y0108471D01*
X0122445Y0107872D02*
X0120606Y0107872D01*
X0120008Y0107274D02*
X0121915Y0107274D01*
X0121667Y0106675D02*
X0119460Y0106675D01*
X0119460Y0106077D02*
X0121419Y0106077D01*
X0121171Y0105478D02*
X0119460Y0105478D01*
X0119460Y0104880D02*
X0120923Y0104880D01*
X0120760Y0104281D02*
X0119460Y0104281D01*
X0119460Y0103683D02*
X0120760Y0103683D01*
X0120760Y0103084D02*
X0119460Y0103084D01*
X0119460Y0102486D02*
X0120760Y0102486D01*
X0120760Y0101887D02*
X0119460Y0101887D01*
X0119460Y0101289D02*
X0120782Y0101289D01*
X0121030Y0100690D02*
X0119460Y0100690D01*
X0119460Y0100092D02*
X0121278Y0100092D01*
X0121526Y0099493D02*
X0119460Y0099493D01*
X0119460Y0098895D02*
X0121774Y0098895D01*
X0122105Y0098296D02*
X0119460Y0098296D01*
X0119460Y0097698D02*
X0122703Y0097698D01*
X0123302Y0097099D02*
X0119460Y0097099D01*
X0119460Y0096501D02*
X0123900Y0096501D01*
X0124941Y0095902D02*
X0119460Y0095902D01*
X0119460Y0095303D02*
X0126386Y0095303D01*
X0125762Y0110266D02*
X0123000Y0110266D01*
X0119460Y0073757D02*
X0150484Y0073757D01*
X0150484Y0073159D02*
X0119460Y0073159D01*
X0119460Y0072560D02*
X0150484Y0072560D01*
X0150484Y0071962D02*
X0119460Y0071962D01*
X0119460Y0071363D02*
X0150484Y0071363D01*
X0150484Y0070765D02*
X0119460Y0070765D01*
X0119460Y0070166D02*
X0150484Y0070166D01*
X0150484Y0069568D02*
X0119460Y0069568D01*
X0119460Y0068969D02*
X0136350Y0068969D01*
X0134905Y0068370D02*
X0119460Y0068370D01*
X0119121Y0067772D02*
X0133781Y0067772D01*
X0133183Y0067173D02*
X0118523Y0067173D01*
X0117924Y0066575D02*
X0132584Y0066575D01*
X0131986Y0065976D02*
X0117326Y0065976D01*
X0116727Y0065378D02*
X0131621Y0065378D01*
X0131373Y0064779D02*
X0116128Y0064779D01*
X0115530Y0064181D02*
X0131125Y0064181D01*
X0130877Y0063582D02*
X0114931Y0063582D01*
X0114333Y0062984D02*
X0130629Y0062984D01*
X0130583Y0062385D02*
X0113734Y0062385D01*
X0113136Y0061787D02*
X0130583Y0061787D01*
X0130583Y0061188D02*
X0112537Y0061188D01*
X0111939Y0060590D02*
X0130583Y0060590D01*
X0130583Y0059991D02*
X0111340Y0059991D01*
X0110742Y0059393D02*
X0130722Y0059393D01*
X0133406Y0055203D02*
X0110688Y0055203D01*
X0111287Y0054605D02*
X0134005Y0054605D01*
X0135444Y0054006D02*
X0111885Y0054006D01*
X0112484Y0053408D02*
X0136889Y0053408D01*
X0140081Y0053408D02*
X0150484Y0053408D01*
X0150484Y0054006D02*
X0141526Y0054006D01*
X0142965Y0054605D02*
X0150484Y0054605D01*
X0150484Y0055203D02*
X0143564Y0055203D01*
X0144162Y0055802D02*
X0150484Y0055802D01*
X0150484Y0056400D02*
X0144761Y0056400D01*
X0145257Y0056999D02*
X0150484Y0056999D01*
X0150484Y0057597D02*
X0145505Y0057597D01*
X0145753Y0058196D02*
X0150484Y0058196D01*
X0150484Y0058794D02*
X0146001Y0058794D01*
X0146248Y0059393D02*
X0150484Y0059393D01*
X0150484Y0059991D02*
X0146387Y0059991D01*
X0146387Y0060590D02*
X0150484Y0060590D01*
X0150484Y0061188D02*
X0146387Y0061188D01*
X0146387Y0061787D02*
X0150484Y0061787D01*
X0150484Y0062385D02*
X0146387Y0062385D01*
X0146341Y0062984D02*
X0150484Y0062984D01*
X0150484Y0063582D02*
X0146093Y0063582D01*
X0145845Y0064181D02*
X0150484Y0064181D01*
X0150484Y0064779D02*
X0145597Y0064779D01*
X0145349Y0065378D02*
X0150484Y0065378D01*
X0150484Y0065976D02*
X0144984Y0065976D01*
X0144386Y0066575D02*
X0150484Y0066575D01*
X0150484Y0067173D02*
X0143787Y0067173D01*
X0143189Y0067772D02*
X0150484Y0067772D01*
X0150484Y0068370D02*
X0142065Y0068370D01*
X0140620Y0068969D02*
X0150484Y0068969D01*
X0150484Y0052809D02*
X0112751Y0052809D01*
X0112751Y0052211D02*
X0150484Y0052211D01*
X0150484Y0051612D02*
X0112751Y0051612D01*
X0112751Y0051014D02*
X0150484Y0051014D01*
X0150484Y0050415D02*
X0112751Y0050415D01*
X0112751Y0049817D02*
X0150484Y0049817D01*
X0150484Y0049218D02*
X0112510Y0049218D01*
X0111911Y0048620D02*
X0150484Y0048620D01*
X0150484Y0048021D02*
X0111313Y0048021D01*
X0110714Y0047423D02*
X0150484Y0047423D01*
X0051603Y0129419D02*
X0028100Y0129419D01*
X0028100Y0130017D02*
X0051004Y0130017D01*
X0050406Y0130616D02*
X0028100Y0130616D01*
X0028100Y0131214D02*
X0050392Y0131214D01*
X0050392Y0131813D02*
X0028100Y0131813D01*
X0028100Y0132411D02*
X0050392Y0132411D01*
X0050392Y0133010D02*
X0028100Y0133010D01*
X0028100Y0133608D02*
X0050392Y0133608D01*
X0050739Y0134207D02*
X0028100Y0134207D01*
X0028100Y0134805D02*
X0051337Y0134805D01*
X0051936Y0135404D02*
X0028100Y0135404D01*
X0028100Y0136002D02*
X0052534Y0136002D01*
X0051461Y0138995D02*
X0028100Y0138995D01*
X0028100Y0139593D02*
X0050863Y0139593D01*
X0050264Y0140192D02*
X0028100Y0140192D01*
X0028100Y0140790D02*
X0049992Y0140790D01*
D13*
X0070092Y0133985D02*
X0072638Y0136530D01*
X0075322Y0136530D01*
X0080092Y0141300D01*
X0080092Y0143985D01*
X0082552Y0146445D01*
X0096032Y0146445D01*
X0100232Y0142245D01*
X0104292Y0142245D01*
X0100092Y0136445D02*
X0100092Y0130505D01*
X0113051Y0117546D01*
X0113051Y0069335D01*
X0110273Y0066557D01*
X0109076Y0066557D01*
X0103820Y0061300D01*
X0104549Y0056557D02*
X0105784Y0056557D01*
X0117960Y0068732D01*
X0117960Y0107347D01*
X0124292Y0113680D01*
X0124292Y0132245D01*
X0100092Y0136445D02*
X0094292Y0142245D01*
X0084292Y0142245D02*
X0084292Y0138185D01*
X0080092Y0133985D01*
X0080092Y0088401D01*
X0063013Y0071322D01*
X0063013Y0059335D01*
X0065792Y0056557D01*
X0078737Y0056557D01*
X0083481Y0061300D01*
X0085788Y0061300D01*
X0089547Y0066557D02*
X0070280Y0066557D01*
X0067502Y0069335D01*
X0067502Y0073265D01*
X0094292Y0100055D01*
X0094292Y0132245D01*
X0070092Y0133985D02*
X0070092Y0080947D01*
X0061213Y0072068D01*
X0061213Y0055623D01*
X0070280Y0046557D01*
X0074210Y0046557D01*
X0078953Y0051300D01*
X0081261Y0051300D01*
X0094804Y0061300D02*
X0089547Y0066557D01*
X0104549Y0056557D02*
X0099292Y0051300D01*
M02*
